<svg width="18" height="12" viewBox="0 0 18 12" fill="none" xmlns="http://www.w3.org/2000/svg">
<path d="M2.88251 5.86178L0.14055 8.52129C-0.0468501 8.71194 -0.0468501 9.00744 0.14055 9.19808L2.88251 11.8576C3.18827 12.1626 3.72088 11.9434 3.72088 11.524V9.80815H9.64866C10.1911 9.80815 10.635 9.3792 10.635 8.85492C10.635 8.33065 10.1911 7.90169 9.64866 7.90169H3.72088V6.19541C3.72088 5.76646 3.18827 5.55675 2.88251 5.86178ZM17.194 2.80192L14.452 0.142407C14.1463 -0.162626 13.6137 0.0566166 13.6137 0.476037V2.18232H7.67602C7.13355 2.18232 6.6897 2.61127 6.6897 3.13555C6.6897 3.65982 7.13355 4.08878 7.67602 4.08878H13.6038V5.79506C13.6038 6.22401 14.1364 6.43372 14.4422 6.12869L17.1841 3.46918C17.3814 3.28806 17.3814 2.98303 17.194 2.80192Z" fill="white"/>
</svg>
