<svg width="25" height="25" viewBox="0 0 25 25" fill="none" xmlns="http://www.w3.org/2000/svg">
<path d="M19.7916 11.4584H8.15619L13.2395 6.3751C13.6458 5.96885 13.6458 5.30219 13.2395 4.89594C13.1432 4.79937 13.0287 4.72276 12.9027 4.67049C12.7767 4.61821 12.6416 4.59131 12.5051 4.59131C12.3687 4.59131 12.2336 4.61821 12.1076 4.67049C11.9816 4.72276 11.8671 4.79937 11.7708 4.89594L4.90619 11.7605C4.80963 11.8569 4.73301 11.9714 4.68074 12.0974C4.62847 12.2234 4.60156 12.3585 4.60156 12.4949C4.60156 12.6313 4.62847 12.7664 4.68074 12.8924C4.73301 13.0184 4.80963 13.1329 4.90619 13.2293L11.7708 20.0939C11.8672 20.1903 11.9817 20.2668 12.1077 20.319C12.2337 20.3712 12.3688 20.398 12.5051 20.398C12.6415 20.398 12.7766 20.3712 12.9026 20.319C13.0286 20.2668 13.1431 20.1903 13.2395 20.0939C13.336 19.9974 13.4125 19.8829 13.4647 19.7569C13.5168 19.6309 13.5437 19.4959 13.5437 19.3595C13.5437 19.2231 13.5168 19.088 13.4647 18.962C13.4125 18.836 13.336 18.7215 13.2395 18.6251L8.15619 13.5418H19.7916C20.3645 13.5418 20.8333 13.073 20.8333 12.5001C20.8333 11.9272 20.3645 11.4584 19.7916 11.4584Z" fill="#A7A8AA"/>
</svg>
