<svg xmlns="http://www.w3.org/2000/svg" width="20" height="20" viewBox="0 0 20 20" fill="none">
    <path
        d="M9.9987 6.66671C10.9192 6.66671 11.6654 5.92052 11.6654 5.00004C11.6654 4.07957 10.9192 3.33337 9.9987 3.33337C9.07822 3.33337 8.33203 4.07957 8.33203 5.00004C8.33203 5.92052 9.07822 6.66671 9.9987 6.66671Z"
        fill="#A7A8AA" />
    <path
        d="M4.9987 16.6667C5.91917 16.6667 6.66536 15.9205 6.66536 15C6.66536 14.0796 5.91917 13.3334 4.9987 13.3334C4.07822 13.3334 3.33203 14.0796 3.33203 15C3.33203 15.9205 4.07822 16.6667 4.9987 16.6667Z"
        fill="#A7A8AA" />
    <path
        d="M4.9987 11.6667C5.91917 11.6667 6.66536 10.9205 6.66536 10C6.66536 9.07957 5.91917 8.33337 4.9987 8.33337C4.07822 8.33337 3.33203 9.07957 3.33203 10C3.33203 10.9205 4.07822 11.6667 4.9987 11.6667Z"
        fill="#A7A8AA" />
    <path
        d="M4.9987 6.66671C5.91917 6.66671 6.66536 5.92052 6.66536 5.00004C6.66536 4.07957 5.91917 3.33337 4.9987 3.33337C4.07822 3.33337 3.33203 4.07957 3.33203 5.00004C3.33203 5.92052 4.07822 6.66671 4.9987 6.66671Z"
        fill="#A7A8AA" />
    <path
        d="M14.9987 6.66671C15.9192 6.66671 16.6654 5.92052 16.6654 5.00004C16.6654 4.07957 15.9192 3.33337 14.9987 3.33337C14.0782 3.33337 13.332 4.07957 13.332 5.00004C13.332 5.92052 14.0782 6.66671 14.9987 6.66671Z"
        fill="#A7A8AA" />
    <path
        d="M9.16536 15.0584V16.25C9.16536 16.4834 9.3487 16.6667 9.58203 16.6667H10.7487C10.857 16.6667 10.9654 16.625 11.0404 16.5417L15.8987 11.6834L14.132 9.91671L9.29036 14.7584C9.20703 14.8417 9.16536 14.95 9.16536 15.0584ZM10.0237 11.6667L11.6654 10.025V10C11.6654 9.08337 10.9154 8.33337 9.9987 8.33337C9.08203 8.33337 8.33203 9.08337 8.33203 10C8.33203 10.9167 9.08203 11.6667 9.9987 11.6667H10.0237ZM17.3737 9.63337L16.1987 8.45837C16.032 8.29171 15.7737 8.29171 15.607 8.45837L14.7237 9.34171L16.4904 11.1084L17.3737 10.225C17.5404 10.0584 17.5404 9.80004 17.3737 9.63337Z"
        fill="#A7A8AA" />
</svg>