<svg width="25" height="25" viewBox="0 0 25 25" fill="none" xmlns="http://www.w3.org/2000/svg">
<path d="M9.37483 16.8442L5.76024 13.2296C5.56547 13.0349 5.30131 12.9255 5.02587 12.9255C4.75042 12.9255 4.48626 13.0349 4.29149 13.2296C4.09672 13.4244 3.9873 13.6886 3.9873 13.964C3.9873 14.1004 4.01417 14.2355 4.06636 14.3615C4.11855 14.4875 4.19505 14.602 4.29149 14.6984L8.64566 19.0526C9.05191 19.4588 9.70816 19.4588 10.1144 19.0526L21.1352 8.03173C21.33 7.83696 21.4394 7.5728 21.4394 7.29735C21.4394 7.02191 21.33 6.75775 21.1352 6.56298C20.9405 6.36821 20.6763 6.25879 20.4009 6.25879C20.1254 6.25879 19.8613 6.36821 19.6665 6.56298L9.37483 16.8442Z" fill="#EA7600"/>
</svg>
