<svg width="10" height="6" viewBox="0 0 10 6" fill="none" xmlns="http://www.w3.org/2000/svg">
<path d="M9.05989 0.243704C8.98279 0.166451 8.89122 0.105161 8.79041 0.063343C8.68959 0.0215252 8.58153 0 8.47239 0C8.36325 0 8.25518 0.0215252 8.15437 0.063343C8.05355 0.105161 7.96198 0.166451 7.88489 0.243704L4.65155 3.47704L1.41822 0.243704C1.34107 0.166552 1.24948 0.105352 1.14867 0.0635982C1.04787 0.021844 0.939829 0.00035286 0.83072 0.000352859C0.721611 0.000352859 0.61357 0.021844 0.512767 0.0635982C0.411963 0.105352 0.32037 0.166552 0.243218 0.243704C0.166067 0.320855 0.104868 0.412447 0.0631142 0.513251C0.0213594 0.614054 -0.000130653 0.722095 -0.000130653 0.831203C-0.000130653 0.940312 0.0213594 1.04835 0.0631142 1.14916C0.104868 1.24996 0.166067 1.34155 0.243218 1.4187L4.06822 5.2437C4.14531 5.32096 4.23689 5.38225 4.3377 5.42406C4.43851 5.46588 4.54658 5.48741 4.65572 5.48741C4.76486 5.48741 4.87293 5.46588 4.97374 5.42406C5.07455 5.38225 5.16612 5.32096 5.24322 5.2437L9.06822 1.4187C9.38489 1.10204 9.38489 0.568703 9.05989 0.243704Z" fill="#63666A"/>
</svg>
