<svg width="20" height="20" viewBox="0 0 20 20" fill="none" xmlns="http://www.w3.org/2000/svg">
<path d="M15.4113 4.91843C15.3342 4.84118 15.2426 4.77989 15.1418 4.73807C15.041 4.69625 14.933 4.67473 14.8238 4.67473C14.7147 4.67473 14.6066 4.69625 14.5058 4.73807C14.405 4.77989 14.3134 4.84118 14.2363 4.91843L10.1613 8.9851L6.08632 4.9101C6.00917 4.83295 5.91758 4.77175 5.81677 4.72999C5.71597 4.68824 5.60793 4.66675 5.49882 4.66675C5.38971 4.66675 5.28167 4.68824 5.18087 4.72999C5.08006 4.77175 4.98847 4.83295 4.91132 4.9101C4.83417 4.98725 4.77297 5.07884 4.73121 5.17965C4.68946 5.28045 4.66797 5.38849 4.66797 5.4976C4.66797 5.60671 4.68946 5.71475 4.73121 5.81555C4.77297 5.91635 4.83417 6.00795 4.91132 6.0851L8.98632 10.1601L4.91132 14.2351C4.83417 14.3122 4.77297 14.4038 4.73121 14.5046C4.68946 14.6054 4.66797 14.7135 4.66797 14.8226C4.66797 14.9317 4.68946 15.0397 4.73121 15.1406C4.77297 15.2414 4.83417 15.3329 4.91132 15.4101C4.98847 15.4872 5.08006 15.5484 5.18087 15.5902C5.28167 15.632 5.38971 15.6534 5.49882 15.6534C5.60793 15.6534 5.71597 15.632 5.81677 15.5902C5.91758 15.5484 6.00917 15.4872 6.08632 15.4101L10.1613 11.3351L14.2363 15.4101C14.3135 15.4872 14.4051 15.5484 14.5059 15.5902C14.6067 15.632 14.7147 15.6534 14.8238 15.6534C14.9329 15.6534 15.041 15.632 15.1418 15.5902C15.2426 15.5484 15.3342 15.4872 15.4113 15.4101C15.4885 15.3329 15.5497 15.2414 15.5914 15.1406C15.6332 15.0397 15.6547 14.9317 15.6547 14.8226C15.6547 14.7135 15.6332 14.6054 15.5914 14.5046C15.5497 14.4038 15.4885 14.3122 15.4113 14.2351L11.3363 10.1601L15.4113 6.0851C15.728 5.76843 15.728 5.2351 15.4113 4.91843Z" fill="white"/>
</svg>
