<svg width="25" height="25" viewBox="0 0 25 25" fill="none" xmlns="http://www.w3.org/2000/svg">
<path d="M20.8359 4.16663H4.16927C3.02344 4.16663 2.09635 5.10413 2.09635 6.24996L2.08594 18.75C2.08594 19.8958 3.02344 20.8333 4.16927 20.8333H20.8359C21.9818 20.8333 22.9193 19.8958 22.9193 18.75V6.24996C22.9193 5.10413 21.9818 4.16663 20.8359 4.16663ZM20.4193 8.59371L13.0547 13.1979C12.7214 13.4062 12.2839 13.4062 11.9505 13.1979L4.58594 8.59371C4.48149 8.53507 4.39002 8.45586 4.31707 8.36085C4.24412 8.26584 4.19121 8.15702 4.16154 8.04097C4.13186 7.92492 4.12604 7.80406 4.14443 7.6857C4.16282 7.56733 4.20504 7.45393 4.26852 7.35236C4.33201 7.25078 4.41544 7.16314 4.51378 7.09475C4.61211 7.02635 4.7233 6.97862 4.84062 6.95444C4.95794 6.93026 5.07894 6.93013 5.19631 6.95407C5.31367 6.97801 5.42496 7.02551 5.52344 7.09371L12.5026 11.4583L19.4818 7.09371C19.5802 7.02551 19.6915 6.97801 19.8089 6.95407C19.9263 6.93013 20.0473 6.93026 20.1646 6.95444C20.2819 6.97862 20.3931 7.02635 20.4914 7.09475C20.5898 7.16314 20.6732 7.25078 20.7367 7.35236C20.8002 7.45393 20.8424 7.56733 20.8608 7.6857C20.8792 7.80406 20.8733 7.92492 20.8437 8.04097C20.814 8.15702 20.7611 8.26584 20.6881 8.36085C20.6152 8.45586 20.5237 8.53507 20.4193 8.59371Z" fill="#EA7600"/>
</svg>
