<svg width="25" height="25" viewBox="0 0 25 25" fill="none" xmlns="http://www.w3.org/2000/svg">
<path d="M20.2134 12.5C20.2134 12.27 20.2031 12.05 20.1826 11.82L22.0955 10.41C22.5069 10.11 22.62 9.55 22.3629 9.11L20.4397 5.88C20.3164 5.66818 20.1169 5.50814 19.8796 5.43062C19.6423 5.3531 19.384 5.36356 19.1541 5.46L16.9429 6.37C16.5624 6.11 16.1613 5.88 15.7396 5.69L15.4414 3.38C15.3797 2.88 14.9374 2.5 14.4232 2.5H10.5871C10.0626 2.5 9.62032 2.88 9.55861 3.38L9.26036 5.69C8.83869 5.88 8.43759 6.11 8.05706 6.37L5.84588 5.46C5.37279 5.26 4.81742 5.44 4.56031 5.88L2.63709 9.12C2.37998 9.56 2.49311 10.11 2.90449 10.42L4.81742 11.83C4.77454 12.279 4.77454 12.731 4.81742 13.18L2.90449 14.59C2.49311 14.89 2.37998 15.45 2.63709 15.89L4.56031 19.12C4.81742 19.56 5.37279 19.74 5.84588 19.54L8.05706 18.63C8.43759 18.89 8.83869 19.12 9.26036 19.31L9.55861 21.62C9.62032 22.12 10.0626 22.5 10.5768 22.5H14.4129C14.9272 22.5 15.3694 22.12 15.4311 21.62L15.7294 19.31C16.151 19.12 16.5521 18.89 16.9327 18.63L19.1438 19.54C19.6169 19.74 20.1723 19.56 20.4294 19.12L22.3526 15.89C22.6097 15.45 22.4966 14.9 22.0852 14.59L20.1723 13.18C20.2031 12.95 20.2134 12.73 20.2134 12.5ZM12.5411 16C10.5562 16 8.94154 14.43 8.94154 12.5C8.94154 10.57 10.5562 9 12.5411 9C14.5261 9 16.1407 10.57 16.1407 12.5C16.1407 14.43 14.5261 16 12.5411 16Z" fill="#A7A8AA"/>
</svg>
