<svg width="25" height="25" viewBox="0 0 25 25" fill="none" xmlns="http://www.w3.org/2000/svg">
<path d="M12.5026 2.08337C8.47135 2.08337 5.21094 5.34379 5.21094 9.37504C5.21094 14.8438 12.5026 22.9167 12.5026 22.9167C12.5026 22.9167 19.7943 14.8438 19.7943 9.37504C19.7943 5.34379 16.5339 2.08337 12.5026 2.08337ZM12.5026 11.9792C11.8119 11.9792 11.1496 11.7048 10.6612 11.2165C10.1728 10.7281 9.89844 10.0657 9.89844 9.37504C9.89844 8.68437 10.1728 8.02199 10.6612 7.53362C11.1496 7.04524 11.8119 6.77087 12.5026 6.77087C13.1933 6.77087 13.8557 7.04524 14.344 7.53362C14.8324 8.02199 15.1068 8.68437 15.1068 9.37504C15.1068 10.0657 14.8324 10.7281 14.344 11.2165C13.8557 11.7048 13.1933 11.9792 12.5026 11.9792Z" fill="#EA7600"/>
</svg>
