<svg width="30" height="30" viewBox="0 0 30 30" fill="none" xmlns="http://www.w3.org/2000/svg">
<path d="M11.6124 8.38747C11.4965 8.50311 11.4046 8.64047 11.3418 8.79169C11.2791 8.9429 11.2468 9.10501 11.2468 9.26872C11.2468 9.43243 11.2791 9.59453 11.3418 9.74575C11.4046 9.89696 11.4965 10.0343 11.6124 10.15L16.4624 15L11.6124 19.85C11.4967 19.9657 11.4049 20.1031 11.3422 20.2543C11.2796 20.4055 11.2474 20.5676 11.2474 20.7312C11.2474 20.8949 11.2796 21.0569 11.3422 21.2081C11.4049 21.3594 11.4967 21.4967 11.6124 21.6125C11.7281 21.7282 11.8655 21.82 12.0167 21.8826C12.1679 21.9453 12.33 21.9775 12.4936 21.9775C12.6573 21.9775 12.8194 21.9453 12.9706 21.8826C13.1218 21.82 13.2592 21.7282 13.3749 21.6125L19.1124 15.875C19.2283 15.7593 19.3202 15.622 19.3829 15.4707C19.4456 15.3195 19.4779 15.1574 19.4779 14.9937C19.4779 14.83 19.4456 14.6679 19.3829 14.5167C19.3202 14.3655 19.2283 14.2281 19.1124 14.1125L13.3749 8.37497C12.8999 7.89997 12.0999 7.89997 11.6124 8.38747Z" fill="#63666A"/>
</svg>
