<svg width="24" height="24" viewBox="0 0 24 24" fill="none" xmlns="http://www.w3.org/2000/svg">
<path d="M18.1715 13.0286H13.0286V18.1715C13.0286 18.4443 12.9203 18.7059 12.7274 18.8988C12.5345 19.0917 12.2728 19.2 12.0001 19.2C11.7273 19.2 11.4656 19.0917 11.2727 18.8988C11.0798 18.7059 10.9715 18.4443 10.9715 18.1715V13.0286H5.82862C5.55583 13.0286 5.29421 12.9203 5.10131 12.7274C4.90842 12.5345 4.80005 12.2728 4.80005 12C4.80005 11.7273 4.90842 11.4656 5.10131 11.2727C5.29421 11.0798 5.55583 10.9715 5.82862 10.9715H10.9715V5.82862C10.9715 5.55583 11.0798 5.2942 11.2727 5.10131C11.4656 4.90842 11.7273 4.80005 12.0001 4.80005C12.2728 4.80005 12.5345 4.90842 12.7274 5.10131C12.9203 5.2942 13.0286 5.55583 13.0286 5.82862V10.9715H18.1715C18.4443 10.9715 18.7059 11.0798 18.8988 11.2727C19.0917 11.4656 19.2001 11.7273 19.2001 12C19.2001 12.2728 19.0917 12.5345 18.8988 12.7274C18.7059 12.9203 18.4443 13.0286 18.1715 13.0286Z" fill="#A7A8AA"/>
</svg>
