<svg width="30" height="30" viewBox="0 0 30 30" fill="none" xmlns="http://www.w3.org/2000/svg">
<path d="M18.3876 21.6125C18.5035 21.4969 18.5954 21.3595 18.6582 21.2083C18.7209 21.0571 18.7532 20.895 18.7532 20.7313C18.7532 20.5676 18.7209 20.4055 18.6582 20.2543C18.5954 20.103 18.5035 19.9657 18.3876 19.85L13.5376 15L18.3876 10.15C18.5033 10.0343 18.5951 9.89692 18.6578 9.74571C18.7204 9.59451 18.7526 9.43245 18.7526 9.26878C18.7526 9.10512 18.7204 8.94306 18.6578 8.79185C18.5951 8.64065 18.5033 8.50326 18.3876 8.38753C18.2719 8.2718 18.1345 8.18001 17.9833 8.11738C17.8321 8.05474 17.67 8.02251 17.5064 8.02251C17.3427 8.02251 17.1806 8.05474 17.0294 8.11738C16.8782 8.18001 16.7408 8.2718 16.6251 8.38753L10.8876 14.125C10.7717 14.2407 10.6798 14.378 10.6171 14.5293C10.5544 14.6805 10.5221 14.8426 10.5221 15.0063C10.5221 15.17 10.5544 15.3321 10.6171 15.4833C10.6798 15.6345 10.7717 15.7719 10.8876 15.8875L16.6251 21.625C17.1001 22.1 17.9001 22.1 18.3876 21.6125Z" fill="#63666A"/>
</svg>
