<svg width="20" height="20" viewBox="0 0 20 20" fill="none" xmlns="http://www.w3.org/2000/svg">
<path d="M7.74163 5.59148C7.66438 5.66858 7.60309 5.76015 7.56127 5.86096C7.51945 5.96177 7.49792 6.06984 7.49792 6.17898C7.49792 6.28812 7.51945 6.39619 7.56127 6.497C7.60309 6.59781 7.66438 6.68939 7.74163 6.76648L10.975 9.99981L7.74163 13.2331C7.66448 13.3103 7.60328 13.4019 7.56152 13.5027C7.51977 13.6035 7.49828 13.7115 7.49828 13.8206C7.49828 13.9298 7.51977 14.0378 7.56152 14.1386C7.60328 14.2394 7.66448 14.331 7.74163 14.4081C7.81878 14.4853 7.91037 14.5465 8.01118 14.5883C8.11198 14.63 8.22002 14.6515 8.32913 14.6515C8.43824 14.6515 8.54628 14.63 8.64708 14.5883C8.74788 14.5465 8.83948 14.4853 8.91663 14.4081L12.7416 10.5831C12.8189 10.5061 12.8802 10.4145 12.922 10.3137C12.9638 10.2129 12.9853 10.1048 12.9853 9.99565C12.9853 9.88651 12.9638 9.77844 12.922 9.67763C12.8802 9.57682 12.8189 9.48524 12.7416 9.40815L8.91663 5.58315C8.59996 5.26648 8.06663 5.26648 7.74163 5.59148Z" fill="#EA7600"/>
</svg>
