<svg width="20" height="20" viewBox="0 0 20 20" fill="none" xmlns="http://www.w3.org/2000/svg">
<path d="M14.5 7.08752H13C12.5875 7.08752 12.25 7.41752 12.25 7.82086C12.25 8.22419 12.5875 8.55419 13 8.55419H14.5V16.6209H5.5V8.55419H7C7.4125 8.55419 7.75 8.22419 7.75 7.82086C7.75 7.41752 7.4125 7.08752 7 7.08752H5.5C4.675 7.08752 4 7.74752 4 8.55419V16.6209C4 17.4275 4.675 18.0875 5.5 18.0875H14.5C15.325 18.0875 16 17.4275 16 16.6209V8.55419C16 7.74752 15.325 7.08752 14.5 7.08752Z" fill="#63666A"/>
<path d="M10.0004 13.0875C10.3345 13.0875 10.6079 12.7528 10.6079 12.3438V4.90632H11.6953C11.9687 4.90632 12.1023 4.5047 11.9079 4.27414L10.213 2.19909C10.0915 2.05034 9.90323 2.05034 9.78173 2.19909L8.08683 4.27414C8.04485 4.32657 8.01649 4.39304 8.00532 4.46517C7.99415 4.53731 8.00066 4.61188 8.02405 4.67948C8.04744 4.74709 8.08665 4.80471 8.13674 4.84507C8.18683 4.88544 8.24556 4.90675 8.30553 4.90632H9.39294V12.3438C9.39294 12.7528 9.66631 13.0875 10.0004 13.0875Z" fill="#63666A"/>
</svg>
