<svg width="20" height="20" viewBox="0 0 20 20" fill="none" xmlns="http://www.w3.org/2000/svg">
<path d="M15 5C16.725 6.7 17.375 9.075 16.9667 11.2917C17.3083 11.8917 17.5 12.5917 17.5 13.3333C17.5 14.4384 17.061 15.4982 16.2796 16.2796C15.4982 17.061 14.4384 17.5 13.3333 17.5C12.5917 17.5 11.8917 17.3083 11.2917 16.9667C9.075 17.375 6.7 16.725 5 15C3.275 13.3 2.625 10.925 3.03333 8.70833C2.69167 8.10833 2.5 7.40833 2.5 6.66667C2.5 5.5616 2.93899 4.50179 3.72039 3.72039C4.50179 2.93899 5.5616 2.5 6.66667 2.5C7.40833 2.5 8.10833 2.69167 8.70833 3.03333C10.925 2.625 13.3 3.275 15 5ZM10.0333 14.3C12.425 14.3 13.6167 13.15 13.6167 11.6C13.6167 10.6083 13.15 9.55 11.3417 9.14167L9.68333 8.775C9.05 8.63333 8.33333 8.44167 8.33333 7.85C8.33333 7.25 8.83333 6.83333 9.75 6.83333C11.6083 6.83333 11.4333 8.10833 12.3583 8.10833C12.8417 8.10833 13.2583 7.825 13.2583 7.33333C13.2583 6.19167 11.4333 5.33333 9.88333 5.33333C8.20833 5.33333 6.41667 6.05 6.41667 7.95C6.41667 8.86667 6.74167 9.84167 8.54167 10.2917L10.7833 10.8583C11.4583 11.025 11.625 11.4 11.625 11.75C11.625 12.3167 11.0583 12.875 10.0333 12.875C8.025 12.875 8.3 11.3333 7.225 11.3333C6.74167 11.3333 6.39167 11.6667 6.39167 12.1417C6.39167 13.0667 7.5 14.3 10.0333 14.3Z" fill="#EA7600"/>
</svg>
