<svg width="16" height="15" viewBox="0 0 16 15" fill="none" xmlns="http://www.w3.org/2000/svg">
<path d="M7.38755 0.236158C7.54718 -0.0787199 8.00838 -0.0787192 8.168 0.236159L10.2344 4.31229C10.2977 4.43733 10.4203 4.524 10.562 4.54405L15.1825 5.19769C15.5394 5.24818 15.6819 5.67521 15.4237 5.92031L12.0802 9.09314C11.9777 9.19047 11.9309 9.3307 11.9551 9.46813L12.7444 13.9482C12.8053 14.2943 12.4322 14.5582 12.113 14.3948L7.98028 12.2796C7.8535 12.2147 7.70205 12.2147 7.57528 12.2796L3.44258 14.3948C3.12334 14.5582 2.75022 14.2943 2.81119 13.9482L3.60046 9.46813C3.62467 9.3307 3.57787 9.19047 3.47531 9.09314L0.131889 5.92031C-0.126387 5.67521 0.0161337 5.24818 0.373063 5.19769L4.99356 4.54405C5.13529 4.524 5.25782 4.43733 5.32121 4.31229L7.38755 0.236158Z" fill="#EA7600"/>
</svg>
