<svg width="34" height="34" viewBox="0 0 34 34" fill="none" xmlns="http://www.w3.org/2000/svg">
<path d="M16.65 0C7.45 0 0 7.46667 0 16.6667C0 25.8667 7.45 33.3333 16.65 33.3333C25.8667 33.3333 33.3333 25.8667 33.3333 16.6667C33.3333 7.46667 25.8667 0 16.65 0ZM22.0333 25.65L16.6667 22.4167L11.3 25.65C11.1596 25.7352 10.9972 25.7772 10.8331 25.7707C10.669 25.7642 10.5104 25.7096 10.3772 25.6137C10.2439 25.5177 10.1418 25.3846 10.0836 25.2311C10.0254 25.0775 10.0137 24.9102 10.05 24.75L11.4667 18.65L6.75 14.5667C6.62748 14.4575 6.53953 14.315 6.49697 14.1565C6.45441 13.998 6.4591 13.8306 6.51045 13.6748C6.56181 13.5189 6.65759 13.3815 6.78602 13.2794C6.91445 13.1773 7.06993 13.1149 7.23333 13.1L13.4667 12.5667L15.9 6.81667C16.1833 6.13333 17.15 6.13333 17.4333 6.81667L19.8667 12.55L26.1 13.0833C26.2641 13.0974 26.4203 13.1598 26.5489 13.2626C26.6775 13.3654 26.7728 13.504 26.8228 13.6609C26.8727 13.8179 26.875 13.986 26.8294 14.1443C26.7839 14.3025 26.6924 14.4437 26.5667 14.55L21.85 18.6333L23.2667 24.75C23.4333 25.4667 22.6667 26.0333 22.0333 25.65Z" fill="white"/>
</svg>
