<svg width="36" height="36" viewBox="0 0 36 36" fill="none" xmlns="http://www.w3.org/2000/svg">
<path d="M10.05 27.435C10.635 28.02 11.58 28.02 12.165 27.435L18 21.63L23.82 27.45C24.1005 27.7305 24.4809 27.888 24.8775 27.888C25.2741 27.888 25.6545 27.7305 25.935 27.45C26.2155 27.1696 26.373 26.7892 26.373 26.3925C26.373 25.9959 26.2155 25.6155 25.935 25.335L19.05 18.45C18.9112 18.311 18.7464 18.2006 18.5649 18.1254C18.3835 18.0501 18.1889 18.0114 17.9925 18.0114C17.796 18.0114 17.6015 18.0501 17.4201 18.1254C17.2386 18.2006 17.0738 18.311 16.935 18.45L10.05 25.32C9.91094 25.4588 9.80062 25.6236 9.72534 25.8051C9.65007 25.9865 9.61133 26.1811 9.61133 26.3775C9.61133 26.574 9.65007 26.7685 9.72534 26.95C9.80062 27.1314 9.91094 27.2962 10.05 27.435Z" fill="white"/>
<path d="M10.05 17.55C10.635 18.135 11.58 18.135 12.165 17.55L18 11.745L23.82 17.565C24.1005 17.8455 24.4809 18.003 24.8775 18.003C25.2741 18.003 25.6545 17.8455 25.935 17.565C26.2155 17.2845 26.373 16.9041 26.373 16.5075C26.373 16.1109 26.2155 15.7305 25.935 15.45L19.05 8.56501C18.9112 8.42595 18.7464 8.31563 18.5649 8.24036C18.3835 8.16509 18.1889 8.12634 17.9925 8.12634C17.796 8.12634 17.6015 8.16509 17.4201 8.24036C17.2386 8.31563 17.0738 8.42595 16.935 8.56501L10.05 15.435C9.91094 15.5738 9.80062 15.7386 9.72534 15.9201C9.65007 16.1015 9.61133 16.2961 9.61133 16.4925C9.61133 16.689 9.65007 16.8835 9.72534 17.0649C9.80062 17.2464 9.91094 17.4112 10.05 17.55Z" fill="white"/>
</svg>
