<svg xmlns="http://www.w3.org/2000/svg" width="20" height="20" viewBox="0 0 20 20" fill="none">
    <path
        d="M15.5575 6.328L11.935 2.464C11.6575 2.168 11.275 2 10.8775 2H5.5C4.675 2 4.0075 2.72 4.0075 3.6L4 16.4C4 17.28 4.6675 18 5.4925 18H14.5C15.325 18 16 17.28 16 16.4V7.464C16 7.04 15.8425 6.632 15.5575 6.328ZM12.1 12.4H10.75V14.8C10.75 15.24 10.4125 15.6 10 15.6C9.5875 15.6 9.25 15.24 9.25 14.8V12.4H7.9075C7.57 12.4 7.405 11.968 7.645 11.72L9.745 9.488C9.895 9.336 10.1275 9.336 10.2775 9.488L12.37 11.72C12.595 11.968 12.43 12.4 12.1 12.4ZM11.5 7.6C11.0875 7.6 10.75 7.24 10.75 6.8V3.2L14.875 7.6H11.5Z"
        fill="#EA7600" />
</svg>