<svg width="30" height="30" viewBox="0 0 30 30" fill="none" xmlns="http://www.w3.org/2000/svg">
<path d="M19.8125 4.81251L21.625 6.62501L18.9 9.32501C18.4125 9.81251 18.4125 10.6125 18.9 11.1C19.3875 11.5875 20.1875 11.5875 20.675 11.1L23.375 8.37501L25.1875 10.1875C25.2756 10.2739 25.3873 10.3323 25.5086 10.3552C25.6298 10.3782 25.7551 10.3648 25.8688 10.3167C25.9824 10.2686 26.0792 10.1879 26.1471 10.0848C26.2149 9.98175 26.2507 9.8609 26.25 9.73751V4.37501C26.25 4.02501 25.975 3.75001 25.625 3.75001H20.2625C20.1391 3.74929 20.0183 3.7851 19.9152 3.85295C19.8121 3.92079 19.7315 4.01763 19.6833 4.13125C19.6352 4.24488 19.6218 4.37021 19.6448 4.49144C19.6678 4.61267 19.7261 4.72439 19.8125 4.81251ZM4.81251 10.1875L6.62501 8.37501L9.32501 11.1C9.81251 11.5875 10.6125 11.5875 11.1 11.1C11.5875 10.6125 11.5875 9.81251 11.1 9.32501L8.37501 6.62501L10.1875 4.81251C10.2739 4.72439 10.3323 4.61267 10.3552 4.49144C10.3782 4.37021 10.3648 4.24488 10.3167 4.13125C10.2686 4.01763 10.1879 3.92079 10.0848 3.85295C9.98175 3.7851 9.8609 3.74929 9.73751 3.75001H4.37501C4.02501 3.75001 3.75001 4.02501 3.75001 4.37501V9.73751C3.75001 10.3 4.42501 10.575 4.81251 10.1875ZM10.1875 25.1875L8.37501 23.375L11.1 20.675C11.5875 20.1875 11.5875 19.3875 11.1 18.9C10.6125 18.4125 9.81251 18.4125 9.32501 18.9L6.62501 21.625L4.81251 19.8125C4.72439 19.7261 4.61267 19.6678 4.49144 19.6448C4.37021 19.6218 4.24488 19.6352 4.13125 19.6833C4.01763 19.7315 3.92079 19.8121 3.85295 19.9152C3.7851 20.0183 3.74929 20.1391 3.75001 20.2625V25.625C3.75001 25.975 4.02501 26.25 4.37501 26.25H9.73751C9.8609 26.2507 9.98175 26.2149 10.0848 26.1471C10.1879 26.0792 10.2686 25.9824 10.3167 25.8688C10.3648 25.7551 10.3782 25.6298 10.3552 25.5086C10.3323 25.3873 10.2739 25.2756 10.1875 25.1875ZM25.1875 19.8125L23.375 21.625L20.675 18.9C20.1875 18.4125 19.3875 18.4125 18.9 18.9C18.4125 19.3875 18.4125 20.1875 18.9 20.675L21.625 23.375L19.8125 25.1875C19.7261 25.2756 19.6678 25.3873 19.6448 25.5086C19.6218 25.6298 19.6352 25.7551 19.6833 25.8688C19.7315 25.9824 19.8121 26.0792 19.9152 26.1471C20.0183 26.2149 20.1391 26.2507 20.2625 26.25H25.625C25.975 26.25 26.25 25.975 26.25 25.625V20.2625C26.2507 20.1391 26.2149 20.0183 26.1471 19.9152C26.0792 19.8121 25.9824 19.7315 25.8688 19.6833C25.7551 19.6352 25.6298 19.6218 25.5086 19.6448C25.3873 19.6678 25.2756 19.7261 25.1875 19.8125Z" fill="white"/>
</svg>
