<svg width="97" height="88" viewBox="0 0 97 88" fill="none" xmlns="http://www.w3.org/2000/svg">
<mask id="path-1-inside-1_1_4378" fill="white">
<path d="M14.3941 24.5245C14.4007 24.4561 14.4127 24.3884 14.4299 24.3221C14.8139 22.399 17.6884 21.2789 22.9062 19.4449C25.6339 18.5589 28.4709 18.1041 31.325 18.0953C31.9739 15.4718 33.6761 12.6284 37.3876 12.6284C38.8519 12.614 40.2111 13.4289 40.9481 14.7633C41.6308 16.0329 41.969 17.476 41.9259 18.9348C41.9259 19.0144 41.9259 19.094 41.9182 19.1736C42.5581 19.4152 43.2057 19.6689 43.8712 19.9429C45.9905 20.8786 48.1888 21.6016 50.4368 22.1021C52.8797 22.6398 55.4101 22.5411 57.8086 21.8147C60.7619 21.0746 63.7883 20.709 66.8238 20.7256C76.7386 20.7256 91.1406 29.6636 91.1406 43.6678C91.1406 54.7178 89.505 60.1578 85.3686 62.6706C84.4381 67.4588 82.4173 72.3873 78.1106 74.3036C72.7136 76.8192 64.1707 76.5466 53.3548 76.2051C48.9598 76.0702 44.4113 75.9352 39.5262 75.9352C36.1986 75.9514 28.3916 75.9906 24.4958 77.7234C22.9479 78.4124 21.1612 77.6757 20.4672 76.0621C19.7733 74.4486 20.4247 72.5458 21.9361 71.7719C28.192 68.5533 40.3658 68.1875 52.1262 67.834C59.7105 67.6059 66.8762 67.3913 71.3518 66.3899C72.3721 66.1932 73.3587 65.8366 74.2788 65.3319C74.6632 64.7058 74.9521 64.02 75.135 63.2995C72.7605 62.6407 70.4352 61.7985 68.1778 60.7799C67.7772 61.6342 67.3818 62.5559 67.0452 63.4938C66.6752 64.5534 65.7189 65.2582 64.6481 65.2604H53.3343C52.4421 65.2611 51.6139 64.7719 51.1485 63.9692C50.6831 63.1665 50.6476 62.1662 51.0549 61.3292C52.3514 58.6476 54.3159 57.1631 56.5851 57.1631C58.5164 57.1631 59.5786 57.0835 60.0714 56.2482C59.626 55.9108 59.2113 55.5869 58.8402 55.2913C56.7924 53.6489 55.6559 52.7448 49.9747 51.7461C49.9338 51.7461 49.8928 51.7299 49.8468 51.7218C47.0209 52.9304 44.4104 54.6367 42.1268 56.7677C40.9381 57.9895 40.0131 59.467 39.4148 61.0998C38.8863 62.4169 38.2835 63.9108 36.1077 63.9108H29.9645C29.1325 63.9098 28.3519 63.4857 27.8682 62.7718C27.3911 62.0806 27.2649 61.1869 27.5303 60.3791C28.1969 58.2292 29.8102 56.5533 31.8587 55.8824C34.0805 55.1024 36.6657 50.3493 38.423 45.6529C36.8529 44.094 35.6435 42.1755 34.8881 40.0456C33.8424 36.7203 33.1731 35.5705 27.1489 35.5705C20.2186 35.5705 14.4785 28.5772 14.3621 24.8957C14.3621 24.8754 14.3621 24.8552 14.3557 24.8336C14.3493 24.812 14.3557 24.7931 14.3557 24.7742C14.3639 24.6903 14.3767 24.6069 14.3941 24.5245ZM71.8791 69.0391C67.177 70.0904 59.8999 70.309 52.1965 70.5411C41.2373 70.8691 28.8165 71.2429 23.056 74.2065C22.7839 74.3358 22.6627 74.6732 22.7853 74.9602C22.9079 75.2471 23.228 75.3749 23.5001 75.2456C27.3498 73.533 33.7554 73.2726 39.5159 73.2443H40.312C44.9412 73.2443 49.2542 73.3792 53.4329 73.5142C63.9211 73.8475 72.2093 74.112 77.0957 71.8326C80.7241 70.2132 82.3008 65.3832 82.983 61.4263C82.9894 61.4061 82.983 61.3832 82.9945 61.3629C83.1647 60.371 83.2824 59.4317 83.3592 58.6193C83.4581 57.5614 82.9361 56.5467 82.0412 56.0572C81.1463 55.5677 80.059 55.7021 79.2958 56.3966C78.7619 56.889 78.4515 57.5975 78.4421 58.3453C78.3845 59.7165 78.0582 64.3872 76.3816 66.869C75.6175 68.0944 72.9772 68.7894 71.8791 69.0391ZM27.1489 32.8714C34.0882 32.8714 35.8518 34.5273 37.3223 39.1927C37.7955 40.5171 38.5015 41.7355 39.4033 42.7838C39.6273 42.0402 39.8244 41.3196 39.9856 40.6407C40.0941 40.17 40.4335 39.7967 40.875 39.6625C41.3164 39.5284 41.7922 39.6541 42.1216 39.9918C42.4509 40.3296 42.5833 40.8275 42.4685 41.2966C42.103 42.7851 41.6634 44.2523 41.1516 45.6921C41.1413 45.7258 41.1298 45.7568 41.117 45.7906C39.3073 50.9188 36.2178 57.1982 32.6701 58.4439C31.3934 58.8447 30.3831 59.8783 29.9645 61.2118H36.1077C36.5902 61.2118 36.5902 61.2118 37.0663 60.039C37.7949 58.0907 38.9043 56.3259 40.3222 54.8595C44.3294 50.6341 52.0161 47.8999 52.3412 47.7852C52.6633 47.672 53.0149 47.6984 53.3185 47.8586C53.6221 48.0189 53.853 48.2997 53.9602 48.6395C54.0795 49.0334 54.018 49.4635 53.7938 49.8028C56.1677 50.3052 58.3873 51.4177 60.2557 53.0416C60.0537 52.0786 59.8059 51.1269 59.5134 50.1901C58.5637 46.9957 57.3837 43.02 59.2791 39.0213C62.2432 32.7662 70.6569 30.1724 74.5028 30.1724C75.2096 30.1724 75.7826 30.7766 75.7826 31.5219C75.7826 32.2672 75.2096 32.8714 74.5028 32.8714C71.1125 32.8714 63.8904 35.3276 61.57 40.2224C60.1354 43.2467 61.0581 46.3641 61.954 49.3777C62.5338 51.0102 62.881 52.7242 62.9843 54.4641C62.9837 54.9534 62.9408 55.4417 62.8563 55.9229C62.8563 55.9607 62.846 55.9971 62.8384 56.0349C62.1217 59.8514 58.7173 59.8622 56.5851 59.8622C55.2912 59.8622 54.1982 60.7678 53.3343 62.5613L64.6481 62.5384C65.151 61.1663 65.7327 59.8278 66.3899 58.5302C66.3893 58.5217 66.3893 58.5131 66.3899 58.5046C66.3976 58.487 66.4129 58.4762 66.4206 58.4587C67.3946 56.5248 68.2546 55.1564 68.3122 55.0646C68.566 54.6635 69.0034 54.4356 69.4598 54.4667C69.9161 54.4979 70.322 54.7834 70.5246 55.2157C70.7272 55.648 70.6956 56.1615 70.4419 56.5626C70.4316 56.5774 69.985 57.29 69.3822 58.3939C71.4198 59.3035 73.5153 60.0615 75.6533 60.6625C75.7685 59.8109 75.844 58.9675 75.876 58.2198C75.9136 56.7489 76.5297 55.3607 77.5768 54.388C78.6238 53.4152 80.0074 52.9456 81.396 53.0916C84.0749 53.3578 86.0715 55.8154 85.9099 58.6476C87.4521 56.5113 88.581 52.3979 88.581 43.6678C88.581 31.31 75.6956 23.4247 66.8238 23.4247C63.971 23.4061 61.1266 23.7513 58.3525 24.453C55.6087 25.2579 52.7221 25.3588 49.9338 24.7472C47.5399 24.2145 45.1987 23.4464 42.9408 22.453C42.4698 22.26 42.0129 22.0711 41.5611 21.8956C40.8022 24.9537 38.8811 27.4733 36.1077 27.4733C35.4009 27.4733 34.8279 26.8691 34.8279 26.1237C34.8279 25.3784 35.4009 24.7742 36.1077 24.7742C38.0275 24.7742 39.3662 21.6973 39.3662 18.9348C39.4036 17.9779 39.1977 17.0278 38.7698 16.183C38.5008 15.6439 37.9651 15.3123 37.3876 15.3274C33.63 15.3274 33.5481 20.48 33.5481 20.7256C33.5454 21.4496 32.9988 22.041 32.3124 22.0625C31.6261 22.084 31.0472 21.5278 31.0038 20.8052C28.5301 20.834 26.0732 21.238 23.7087 22.005C22.6093 22.3909 21.1708 22.8984 19.8884 23.4112C20.0611 23.5291 20.2222 23.6647 20.3696 23.816C20.8546 24.3456 20.8477 25.1873 20.354 25.7078C19.8604 26.2284 19.0621 26.2357 18.5599 25.7243C18.2937 25.4436 17.6768 25.4908 17.1048 25.6406C18.0275 28.1292 22.1831 32.8714 27.1489 32.8714Z"/>
</mask>
<path d="M14.3941 24.5245C14.4007 24.4561 14.4127 24.3884 14.4299 24.3221C14.8139 22.399 17.6884 21.2789 22.9062 19.4449C25.6339 18.5589 28.4709 18.1041 31.325 18.0953C31.9739 15.4718 33.6761 12.6284 37.3876 12.6284C38.8519 12.614 40.2111 13.4289 40.9481 14.7633C41.6308 16.0329 41.969 17.476 41.9259 18.9348C41.9259 19.0144 41.9259 19.094 41.9182 19.1736C42.5581 19.4152 43.2057 19.6689 43.8712 19.9429C45.9905 20.8786 48.1888 21.6016 50.4368 22.1021C52.8797 22.6398 55.4101 22.5411 57.8086 21.8147C60.7619 21.0746 63.7883 20.709 66.8238 20.7256C76.7386 20.7256 91.1406 29.6636 91.1406 43.6678C91.1406 54.7178 89.505 60.1578 85.3686 62.6706C84.4381 67.4588 82.4173 72.3873 78.1106 74.3036C72.7136 76.8192 64.1707 76.5466 53.3548 76.2051C48.9598 76.0702 44.4113 75.9352 39.5262 75.9352C36.1986 75.9514 28.3916 75.9906 24.4958 77.7234C22.9479 78.4124 21.1612 77.6757 20.4672 76.0621C19.7733 74.4486 20.4247 72.5458 21.9361 71.7719C28.192 68.5533 40.3658 68.1875 52.1262 67.834C59.7105 67.6059 66.8762 67.3913 71.3518 66.3899C72.3721 66.1932 73.3587 65.8366 74.2788 65.3319C74.6632 64.7058 74.9521 64.02 75.135 63.2995C72.7605 62.6407 70.4352 61.7985 68.1778 60.7799C67.7772 61.6342 67.3818 62.5559 67.0452 63.4938C66.6752 64.5534 65.7189 65.2582 64.6481 65.2604H53.3343C52.4421 65.2611 51.6139 64.7719 51.1485 63.9692C50.6831 63.1665 50.6476 62.1662 51.0549 61.3292C52.3514 58.6476 54.3159 57.1631 56.5851 57.1631C58.5164 57.1631 59.5786 57.0835 60.0714 56.2482C59.626 55.9108 59.2113 55.5869 58.8402 55.2913C56.7924 53.6489 55.6559 52.7448 49.9747 51.7461C49.9338 51.7461 49.8928 51.7299 49.8468 51.7218C47.0209 52.9304 44.4104 54.6367 42.1268 56.7677C40.9381 57.9895 40.0131 59.467 39.4148 61.0998C38.8863 62.4169 38.2835 63.9108 36.1077 63.9108H29.9645C29.1325 63.9098 28.3519 63.4857 27.8682 62.7718C27.3911 62.0806 27.2649 61.1869 27.5303 60.3791C28.1969 58.2292 29.8102 56.5533 31.8587 55.8824C34.0805 55.1024 36.6657 50.3493 38.423 45.6529C36.8529 44.094 35.6435 42.1755 34.8881 40.0456C33.8424 36.7203 33.1731 35.5705 27.1489 35.5705C20.2186 35.5705 14.4785 28.5772 14.3621 24.8957C14.3621 24.8754 14.3621 24.8552 14.3557 24.8336C14.3493 24.812 14.3557 24.7931 14.3557 24.7742C14.3639 24.6903 14.3767 24.6069 14.3941 24.5245ZM71.8791 69.0391C67.177 70.0904 59.8999 70.309 52.1965 70.5411C41.2373 70.8691 28.8165 71.2429 23.056 74.2065C22.7839 74.3358 22.6627 74.6732 22.7853 74.9602C22.9079 75.2471 23.228 75.3749 23.5001 75.2456C27.3498 73.533 33.7554 73.2726 39.5159 73.2443H40.312C44.9412 73.2443 49.2542 73.3792 53.4329 73.5142C63.9211 73.8475 72.2093 74.112 77.0957 71.8326C80.7241 70.2132 82.3008 65.3832 82.983 61.4263C82.9894 61.4061 82.983 61.3832 82.9945 61.3629C83.1647 60.371 83.2824 59.4317 83.3592 58.6193C83.4581 57.5614 82.9361 56.5467 82.0412 56.0572C81.1463 55.5677 80.059 55.7021 79.2958 56.3966C78.7619 56.889 78.4515 57.5975 78.4421 58.3453C78.3845 59.7165 78.0582 64.3872 76.3816 66.869C75.6175 68.0944 72.9772 68.7894 71.8791 69.0391ZM27.1489 32.8714C34.0882 32.8714 35.8518 34.5273 37.3223 39.1927C37.7955 40.5171 38.5015 41.7355 39.4033 42.7838C39.6273 42.0402 39.8244 41.3196 39.9856 40.6407C40.0941 40.17 40.4335 39.7967 40.875 39.6625C41.3164 39.5284 41.7922 39.6541 42.1216 39.9918C42.4509 40.3296 42.5833 40.8275 42.4685 41.2966C42.103 42.7851 41.6634 44.2523 41.1516 45.6921C41.1413 45.7258 41.1298 45.7568 41.117 45.7906C39.3073 50.9188 36.2178 57.1982 32.6701 58.4439C31.3934 58.8447 30.3831 59.8783 29.9645 61.2118H36.1077C36.5902 61.2118 36.5902 61.2118 37.0663 60.039C37.7949 58.0907 38.9043 56.3259 40.3222 54.8595C44.3294 50.6341 52.0161 47.8999 52.3412 47.7852C52.6633 47.672 53.0149 47.6984 53.3185 47.8586C53.6221 48.0189 53.853 48.2997 53.9602 48.6395C54.0795 49.0334 54.018 49.4635 53.7938 49.8028C56.1677 50.3052 58.3873 51.4177 60.2557 53.0416C60.0537 52.0786 59.8059 51.1269 59.5134 50.1901C58.5637 46.9957 57.3837 43.02 59.2791 39.0213C62.2432 32.7662 70.6569 30.1724 74.5028 30.1724C75.2096 30.1724 75.7826 30.7766 75.7826 31.5219C75.7826 32.2672 75.2096 32.8714 74.5028 32.8714C71.1125 32.8714 63.8904 35.3276 61.57 40.2224C60.1354 43.2467 61.0581 46.3641 61.954 49.3777C62.5338 51.0102 62.881 52.7242 62.9843 54.4641C62.9837 54.9534 62.9408 55.4417 62.8563 55.9229C62.8563 55.9607 62.846 55.9971 62.8384 56.0349C62.1217 59.8514 58.7173 59.8622 56.5851 59.8622C55.2912 59.8622 54.1982 60.7678 53.3343 62.5613L64.6481 62.5384C65.151 61.1663 65.7327 59.8278 66.3899 58.5302C66.3893 58.5217 66.3893 58.5131 66.3899 58.5046C66.3976 58.487 66.4129 58.4762 66.4206 58.4587C67.3946 56.5248 68.2546 55.1564 68.3122 55.0646C68.566 54.6635 69.0034 54.4356 69.4598 54.4667C69.9161 54.4979 70.322 54.7834 70.5246 55.2157C70.7272 55.648 70.6956 56.1615 70.4419 56.5626C70.4316 56.5774 69.985 57.29 69.3822 58.3939C71.4198 59.3035 73.5153 60.0615 75.6533 60.6625C75.7685 59.8109 75.844 58.9675 75.876 58.2198C75.9136 56.7489 76.5297 55.3607 77.5768 54.388C78.6238 53.4152 80.0074 52.9456 81.396 53.0916C84.0749 53.3578 86.0715 55.8154 85.9099 58.6476C87.4521 56.5113 88.581 52.3979 88.581 43.6678C88.581 31.31 75.6956 23.4247 66.8238 23.4247C63.971 23.4061 61.1266 23.7513 58.3525 24.453C55.6087 25.2579 52.7221 25.3588 49.9338 24.7472C47.5399 24.2145 45.1987 23.4464 42.9408 22.453C42.4698 22.26 42.0129 22.0711 41.5611 21.8956C40.8022 24.9537 38.8811 27.4733 36.1077 27.4733C35.4009 27.4733 34.8279 26.8691 34.8279 26.1237C34.8279 25.3784 35.4009 24.7742 36.1077 24.7742C38.0275 24.7742 39.3662 21.6973 39.3662 18.9348C39.4036 17.9779 39.1977 17.0278 38.7698 16.183C38.5008 15.6439 37.9651 15.3123 37.3876 15.3274C33.63 15.3274 33.5481 20.48 33.5481 20.7256C33.5454 21.4496 32.9988 22.041 32.3124 22.0625C31.6261 22.084 31.0472 21.5278 31.0038 20.8052C28.5301 20.834 26.0732 21.238 23.7087 22.005C22.6093 22.3909 21.1708 22.8984 19.8884 23.4112C20.0611 23.5291 20.2222 23.6647 20.3696 23.816C20.8546 24.3456 20.8477 25.1873 20.354 25.7078C19.8604 26.2284 19.0621 26.2357 18.5599 25.7243C18.2937 25.4436 17.6768 25.4908 17.1048 25.6406C18.0275 28.1292 22.1831 32.8714 27.1489 32.8714Z" fill="#2B2B2B" stroke="white" stroke-width="0.5" mask="url(#path-1-inside-1_1_4378)"/>
<path d="M29.6963 23.925H28.417C28.011 23.925 27.6367 24.2802 27.6367 24.7747C27.6368 25.2691 28.011 25.6243 28.417 25.6243H29.6963C30.1023 25.6243 30.4765 25.2691 30.4766 24.7747C30.4766 24.2802 30.1023 23.925 29.6963 23.925Z" fill="#2B2B2B" stroke="#2B2B2B"/>
<mask id="path-3-outside-2_1_4378" maskUnits="userSpaceOnUse" x="3.16868" y="35.78" width="33.4856" height="36.3268" fill="black">
<rect fill="white" x="3.16868" y="35.78" width="33.4856" height="36.3268"/>
<path d="M20.9317 40.2773C24.1412 42.5314 23.0744 46.1171 22.7058 47.0914C23.2354 47.34 23.7269 47.6852 24.1533 48.108C24.8167 47.3407 27.3771 44.8041 30.5867 47.0582C35.0055 50.1616 30.4623 58.771 30.2667 59.1358C30.2434 59.1793 30.2112 59.2165 30.172 59.2451C30.1328 59.2738 30.0873 59.2934 30.0382 59.3028C29.989 59.3123 29.9372 59.3114 29.8856 59.3002C29.834 59.289 29.7836 59.2677 29.7374 59.2375L29.7238 59.2284C29.6347 59.1658 29.5682 59.0733 29.5382 58.9705C29.5082 58.8677 29.5171 58.7624 29.563 58.6768C29.6074 58.5937 33.9644 50.3429 30.2049 47.7026C27.3271 45.6815 25.0643 48.3095 24.6911 48.7841C24.8458 49.0419 24.9538 49.3212 25.0091 49.6066C25.1109 50.2531 24.9767 50.8818 24.6327 51.3703C24.7361 51.8698 24.7578 52.372 24.697 52.8555L26.2203 52.8571L27.4224 51.5907C27.4558 51.5555 27.4967 51.5283 27.5428 51.5109C27.5888 51.4934 27.639 51.486 27.6906 51.489L29.1069 51.5711C29.1587 51.5736 29.2109 51.5867 29.2606 51.6095C29.3102 51.6323 29.3563 51.6644 29.3961 51.7039C29.436 51.7435 29.4688 51.7897 29.4927 51.8399C29.5166 51.8901 29.5311 51.9433 29.5354 51.9964C29.5397 52.0496 29.5336 52.1016 29.5176 52.1495C29.5016 52.1973 29.476 52.2402 29.4422 52.2754C29.4084 52.3107 29.3671 52.3378 29.3207 52.355C29.2742 52.3722 29.2236 52.3793 29.1717 52.3759L27.9182 52.3032L26.7243 53.561C26.6616 53.627 26.5739 53.6635 26.4779 53.6634L24.5702 53.6614C24.3238 54.7159 23.94 55.7144 23.4284 56.6323L24.8224 57.6113C24.904 57.6686 24.967 57.7511 25.0001 57.8442C25.0331 57.9372 25.0342 58.0347 25.003 58.1194L24.2551 60.1516L24.997 61.932C25.0182 61.9828 25.0299 62.036 25.0314 62.0886C25.0329 62.1412 25.0241 62.1922 25.0057 62.2386C24.9873 62.2849 24.9595 62.3258 24.924 62.3589C24.8885 62.392 24.8459 62.4166 24.7987 62.4314C24.7033 62.4612 24.5948 62.449 24.4972 62.3975C24.4488 62.372 24.4045 62.3376 24.3669 62.2963C24.3293 62.255 24.299 62.2076 24.2778 62.1567L23.4713 60.2214C23.4298 60.1218 23.4255 60.015 23.4595 59.923L24.1485 58.0506L23.0613 57.2871C22.2198 58.7916 21.1138 60.1034 19.79 61.167L20.836 64.0431C20.8628 64.1169 20.8696 64.1941 20.8556 64.2658C20.8416 64.3376 20.8074 64.401 20.7569 64.4487L18.7294 66.3633L19.2544 67.4664C19.2788 67.5164 19.2938 67.5696 19.2985 67.6228C19.3033 67.676 19.2978 67.7282 19.2822 67.7763C19.2666 67.8245 19.2414 67.8676 19.2079 67.9033C19.1744 67.9389 19.1333 67.9664 19.0871 67.984C19.0408 68.0017 18.9903 68.0093 18.9383 68.0062C18.8864 68.0032 18.8342 67.9897 18.7847 67.9664C18.7351 67.9431 18.6892 67.9106 18.6497 67.8707C18.6101 67.8308 18.5777 67.7843 18.5542 67.7339L17.9016 66.3629C17.8642 66.2845 17.8501 66.1995 17.8612 66.1195C17.8723 66.0396 17.9079 65.9685 17.9634 65.9162L20.0116 63.9819L19.1483 61.6086C16.8141 63.0588 14.9807 62.4777 14.8044 62.4162L14.8034 62.4158L14.7936 62.4125C14.7183 62.3851 14.6495 62.3368 14.5956 62.2734L14.5887 62.2651L14.588 62.2642C14.4639 62.1147 13.2217 60.5357 13.4727 57.6225L11.1308 57.7449L10.3568 60.574C10.3358 60.6506 10.2911 60.7152 10.2288 60.7592C10.1664 60.8031 10.0895 60.8242 10.0085 60.8195L8.59219 60.7374C8.48847 60.7306 8.38589 60.6821 8.3068 60.6025C8.22772 60.5229 8.17853 60.4186 8.16997 60.3124C8.16142 60.2062 8.19417 60.1067 8.26111 60.0356C8.32805 59.9644 8.42374 59.9274 8.52733 59.9326L9.66681 59.9985L10.4329 57.1981C10.452 57.1283 10.4909 57.0682 10.5452 57.0247C10.5995 56.9813 10.6668 56.9562 10.7396 56.9523L13.5776 56.8039C13.9218 55.0523 14.5633 53.4144 15.4753 51.9593L14.3882 51.1958L13.1055 52.6513C13.0425 52.7229 12.9514 52.7627 12.8509 52.7626L10.899 52.7606C10.7954 52.7605 10.6904 52.718 10.607 52.6423C10.5237 52.5667 10.4688 52.4641 10.4544 52.3572C10.44 52.2503 10.4673 52.1479 10.5303 52.0723C10.5934 51.9968 10.687 51.9544 10.7905 51.9545L12.5862 51.9564L13.9783 50.3766C14.0363 50.3108 14.1183 50.2716 14.2098 50.266C14.3013 50.2605 14.3963 50.2889 14.4779 50.3462L15.8719 51.3253C16.429 50.4393 17.1062 49.647 17.8871 48.9678L17.0988 47.0763C17.0591 46.9811 17.0534 46.8791 17.0828 46.7897L17.643 45.0868L17.0654 43.8735C17.0182 43.7729 17.0096 43.6626 17.0415 43.5668C17.0734 43.471 17.1432 43.3974 17.2357 43.362C17.3281 43.3267 17.4357 43.3325 17.535 43.3782C17.6343 43.4239 17.7172 43.5058 17.7656 43.606L18.4182 44.9769C18.442 45.0268 18.4565 45.0797 18.4609 45.1326C18.4652 45.1854 18.4594 45.2371 18.4437 45.2849L17.8797 46.9994L18.5091 48.5097C18.8886 48.25 19.3177 48.0645 19.7783 47.9611C20.0453 47.4184 20.5161 47.0261 21.0989 46.8605C21.3606 46.7977 21.6389 46.7896 21.9183 46.8368C22.1616 46.2709 23.4277 42.9429 20.5498 40.9218C16.7904 38.2814 11.6828 46.0051 11.6317 46.0834C11.5789 46.1642 11.4945 46.2164 11.3961 46.2291C11.2977 46.2418 11.1929 46.2139 11.1038 46.1514L11.0905 46.1416C11.0462 46.1082 11.0077 46.067 10.977 46.0205C10.9463 45.9739 10.9242 45.9228 10.9118 45.8702C10.8995 45.8175 10.8971 45.7643 10.905 45.7136C10.9128 45.6629 10.9306 45.6157 10.9574 45.5747C11.182 45.2302 16.5128 37.1739 20.9317 40.2773ZM22.3717 56.8027C24.1116 53.8661 23.9948 52.1066 23.8881 51.5458L21.9574 50.9087L15.5288 61.7591C16.7141 61.8608 19.5741 61.5246 22.3717 56.8027ZM14.8427 61.2688L21.2677 50.4244L19.9386 48.772C19.4253 48.8974 17.9049 49.507 16.165 52.4437C13.389 57.1291 14.2756 60.1237 14.8427 61.2688ZM20.5327 48.3309L21.9514 50.0947L24.0121 50.7746C24.2186 50.4562 24.2975 50.0571 24.2348 49.6475C24.1487 49.3461 24.0014 49.0585 23.803 48.8049C23.6047 48.5512 23.3602 48.3376 23.0865 48.1788C22.8408 47.9728 22.5612 47.8184 22.2671 47.7262C21.9731 47.6341 21.6717 47.6065 21.384 47.6453C21.0155 47.7521 20.714 47.9948 20.5327 48.3309Z"/>
</mask>
<path d="M20.9317 40.2773C24.1412 42.5314 23.0744 46.1171 22.7058 47.0914C23.2354 47.34 23.7269 47.6852 24.1533 48.108C24.8167 47.3407 27.3771 44.8041 30.5867 47.0582C35.0055 50.1616 30.4623 58.771 30.2667 59.1358C30.2434 59.1793 30.2112 59.2165 30.172 59.2451C30.1328 59.2738 30.0873 59.2934 30.0382 59.3028C29.989 59.3123 29.9372 59.3114 29.8856 59.3002C29.834 59.289 29.7836 59.2677 29.7374 59.2375L29.7238 59.2284C29.6347 59.1658 29.5682 59.0733 29.5382 58.9705C29.5082 58.8677 29.5171 58.7624 29.563 58.6768C29.6074 58.5937 33.9644 50.3429 30.2049 47.7026C27.3271 45.6815 25.0643 48.3095 24.6911 48.7841C24.8458 49.0419 24.9538 49.3212 25.0091 49.6066C25.1109 50.2531 24.9767 50.8818 24.6327 51.3703C24.7361 51.8698 24.7578 52.372 24.697 52.8555L26.2203 52.8571L27.4224 51.5907C27.4558 51.5555 27.4967 51.5283 27.5428 51.5109C27.5888 51.4934 27.639 51.486 27.6906 51.489L29.1069 51.5711C29.1587 51.5736 29.2109 51.5867 29.2606 51.6095C29.3102 51.6323 29.3563 51.6644 29.3961 51.7039C29.436 51.7435 29.4688 51.7897 29.4927 51.8399C29.5166 51.8901 29.5311 51.9433 29.5354 51.9964C29.5397 52.0496 29.5336 52.1016 29.5176 52.1495C29.5016 52.1973 29.476 52.2402 29.4422 52.2754C29.4084 52.3107 29.3671 52.3378 29.3207 52.355C29.2742 52.3722 29.2236 52.3793 29.1717 52.3759L27.9182 52.3032L26.7243 53.561C26.6616 53.627 26.5739 53.6635 26.4779 53.6634L24.5702 53.6614C24.3238 54.7159 23.94 55.7144 23.4284 56.6323L24.8224 57.6113C24.904 57.6686 24.967 57.7511 25.0001 57.8442C25.0331 57.9372 25.0342 58.0347 25.003 58.1194L24.2551 60.1516L24.997 61.932C25.0182 61.9828 25.0299 62.036 25.0314 62.0886C25.0329 62.1412 25.0241 62.1922 25.0057 62.2386C24.9873 62.2849 24.9595 62.3258 24.924 62.3589C24.8885 62.392 24.8459 62.4166 24.7987 62.4314C24.7033 62.4612 24.5948 62.449 24.4972 62.3975C24.4488 62.372 24.4045 62.3376 24.3669 62.2963C24.3293 62.255 24.299 62.2076 24.2778 62.1567L23.4713 60.2214C23.4298 60.1218 23.4255 60.015 23.4595 59.923L24.1485 58.0506L23.0613 57.2871C22.2198 58.7916 21.1138 60.1034 19.79 61.167L20.836 64.0431C20.8628 64.1169 20.8696 64.1941 20.8556 64.2658C20.8416 64.3376 20.8074 64.401 20.7569 64.4487L18.7294 66.3633L19.2544 67.4664C19.2788 67.5164 19.2938 67.5696 19.2985 67.6228C19.3033 67.676 19.2978 67.7282 19.2822 67.7763C19.2666 67.8245 19.2414 67.8676 19.2079 67.9033C19.1744 67.9389 19.1333 67.9664 19.0871 67.984C19.0408 68.0017 18.9903 68.0093 18.9383 68.0062C18.8864 68.0032 18.8342 67.9897 18.7847 67.9664C18.7351 67.9431 18.6892 67.9106 18.6497 67.8707C18.6101 67.8308 18.5777 67.7843 18.5542 67.7339L17.9016 66.3629C17.8642 66.2845 17.8501 66.1995 17.8612 66.1195C17.8723 66.0396 17.9079 65.9685 17.9634 65.9162L20.0116 63.9819L19.1483 61.6086C16.8141 63.0588 14.9807 62.4777 14.8044 62.4162L14.8034 62.4158L14.7936 62.4125C14.7183 62.3851 14.6495 62.3368 14.5956 62.2734L14.5887 62.2651L14.588 62.2642C14.4639 62.1147 13.2217 60.5357 13.4727 57.6225L11.1308 57.7449L10.3568 60.574C10.3358 60.6506 10.2911 60.7152 10.2288 60.7592C10.1664 60.8031 10.0895 60.8242 10.0085 60.8195L8.59219 60.7374C8.48847 60.7306 8.38589 60.6821 8.3068 60.6025C8.22772 60.5229 8.17853 60.4186 8.16997 60.3124C8.16142 60.2062 8.19417 60.1067 8.26111 60.0356C8.32805 59.9644 8.42374 59.9274 8.52733 59.9326L9.66681 59.9985L10.4329 57.1981C10.452 57.1283 10.4909 57.0682 10.5452 57.0247C10.5995 56.9813 10.6668 56.9562 10.7396 56.9523L13.5776 56.8039C13.9218 55.0523 14.5633 53.4144 15.4753 51.9593L14.3882 51.1958L13.1055 52.6513C13.0425 52.7229 12.9514 52.7627 12.8509 52.7626L10.899 52.7606C10.7954 52.7605 10.6904 52.718 10.607 52.6423C10.5237 52.5667 10.4688 52.4641 10.4544 52.3572C10.44 52.2503 10.4673 52.1479 10.5303 52.0723C10.5934 51.9968 10.687 51.9544 10.7905 51.9545L12.5862 51.9564L13.9783 50.3766C14.0363 50.3108 14.1183 50.2716 14.2098 50.266C14.3013 50.2605 14.3963 50.2889 14.4779 50.3462L15.8719 51.3253C16.429 50.4393 17.1062 49.647 17.8871 48.9678L17.0988 47.0763C17.0591 46.9811 17.0534 46.8791 17.0828 46.7897L17.643 45.0868L17.0654 43.8735C17.0182 43.7729 17.0096 43.6626 17.0415 43.5668C17.0734 43.471 17.1432 43.3974 17.2357 43.362C17.3281 43.3267 17.4357 43.3325 17.535 43.3782C17.6343 43.4239 17.7172 43.5058 17.7656 43.606L18.4182 44.9769C18.442 45.0268 18.4565 45.0797 18.4609 45.1326C18.4652 45.1854 18.4594 45.2371 18.4437 45.2849L17.8797 46.9994L18.5091 48.5097C18.8886 48.25 19.3177 48.0645 19.7783 47.9611C20.0453 47.4184 20.5161 47.0261 21.0989 46.8605C21.3606 46.7977 21.6389 46.7896 21.9183 46.8368C22.1616 46.2709 23.4277 42.9429 20.5498 40.9218C16.7904 38.2814 11.6828 46.0051 11.6317 46.0834C11.5789 46.1642 11.4945 46.2164 11.3961 46.2291C11.2977 46.2418 11.1929 46.2139 11.1038 46.1514L11.0905 46.1416C11.0462 46.1082 11.0077 46.067 10.977 46.0205C10.9463 45.9739 10.9242 45.9228 10.9118 45.8702C10.8995 45.8175 10.8971 45.7643 10.905 45.7136C10.9128 45.6629 10.9306 45.6157 10.9574 45.5747C11.182 45.2302 16.5128 37.1739 20.9317 40.2773ZM22.3717 56.8027C24.1116 53.8661 23.9948 52.1066 23.8881 51.5458L21.9574 50.9087L15.5288 61.7591C16.7141 61.8608 19.5741 61.5246 22.3717 56.8027ZM14.8427 61.2688L21.2677 50.4244L19.9386 48.772C19.4253 48.8974 17.9049 49.507 16.165 52.4437C13.389 57.1291 14.2756 60.1237 14.8427 61.2688ZM20.5327 48.3309L21.9514 50.0947L24.0121 50.7746C24.2186 50.4562 24.2975 50.0571 24.2348 49.6475C24.1487 49.3461 24.0014 49.0585 23.803 48.8049C23.6047 48.5512 23.3602 48.3376 23.0865 48.1788C22.8408 47.9728 22.5612 47.8184 22.2671 47.7262C21.9731 47.6341 21.6717 47.6065 21.384 47.6453C21.0155 47.7521 20.714 47.9948 20.5327 48.3309Z" fill="#2B2B2B"/>
<path d="M20.9317 40.2773C24.1412 42.5314 23.0744 46.1171 22.7058 47.0914C23.2354 47.34 23.7269 47.6852 24.1533 48.108C24.8167 47.3407 27.3771 44.8041 30.5867 47.0582C35.0055 50.1616 30.4623 58.771 30.2667 59.1358C30.2434 59.1793 30.2112 59.2165 30.172 59.2451C30.1328 59.2738 30.0873 59.2934 30.0382 59.3028C29.989 59.3123 29.9372 59.3114 29.8856 59.3002C29.834 59.289 29.7836 59.2677 29.7374 59.2375L29.7238 59.2284C29.6347 59.1658 29.5682 59.0733 29.5382 58.9705C29.5082 58.8677 29.5171 58.7624 29.563 58.6768C29.6074 58.5937 33.9644 50.3429 30.2049 47.7026C27.3271 45.6815 25.0643 48.3095 24.6911 48.7841C24.8458 49.0419 24.9538 49.3212 25.0091 49.6066C25.1109 50.2531 24.9767 50.8818 24.6327 51.3703C24.7361 51.8698 24.7578 52.372 24.697 52.8555L26.2203 52.8571L27.4224 51.5907C27.4558 51.5555 27.4967 51.5283 27.5428 51.5109C27.5888 51.4934 27.639 51.486 27.6906 51.489L29.1069 51.5711C29.1587 51.5736 29.2109 51.5867 29.2606 51.6095C29.3102 51.6323 29.3563 51.6644 29.3961 51.7039C29.436 51.7435 29.4688 51.7897 29.4927 51.8399C29.5166 51.8901 29.5311 51.9433 29.5354 51.9964C29.5397 52.0496 29.5336 52.1016 29.5176 52.1495C29.5016 52.1973 29.476 52.2402 29.4422 52.2754C29.4084 52.3107 29.3671 52.3378 29.3207 52.355C29.2742 52.3722 29.2236 52.3793 29.1717 52.3759L27.9182 52.3032L26.7243 53.561C26.6616 53.627 26.5739 53.6635 26.4779 53.6634L24.5702 53.6614C24.3238 54.7159 23.94 55.7144 23.4284 56.6323L24.8224 57.6113C24.904 57.6686 24.967 57.7511 25.0001 57.8442C25.0331 57.9372 25.0342 58.0347 25.003 58.1194L24.2551 60.1516L24.997 61.932C25.0182 61.9828 25.0299 62.036 25.0314 62.0886C25.0329 62.1412 25.0241 62.1922 25.0057 62.2386C24.9873 62.2849 24.9595 62.3258 24.924 62.3589C24.8885 62.392 24.8459 62.4166 24.7987 62.4314C24.7033 62.4612 24.5948 62.449 24.4972 62.3975C24.4488 62.372 24.4045 62.3376 24.3669 62.2963C24.3293 62.255 24.299 62.2076 24.2778 62.1567L23.4713 60.2214C23.4298 60.1218 23.4255 60.015 23.4595 59.923L24.1485 58.0506L23.0613 57.2871C22.2198 58.7916 21.1138 60.1034 19.79 61.167L20.836 64.0431C20.8628 64.1169 20.8696 64.1941 20.8556 64.2658C20.8416 64.3376 20.8074 64.401 20.7569 64.4487L18.7294 66.3633L19.2544 67.4664C19.2788 67.5164 19.2938 67.5696 19.2985 67.6228C19.3033 67.676 19.2978 67.7282 19.2822 67.7763C19.2666 67.8245 19.2414 67.8676 19.2079 67.9033C19.1744 67.9389 19.1333 67.9664 19.0871 67.984C19.0408 68.0017 18.9903 68.0093 18.9383 68.0062C18.8864 68.0032 18.8342 67.9897 18.7847 67.9664C18.7351 67.9431 18.6892 67.9106 18.6497 67.8707C18.6101 67.8308 18.5777 67.7843 18.5542 67.7339L17.9016 66.3629C17.8642 66.2845 17.8501 66.1995 17.8612 66.1195C17.8723 66.0396 17.9079 65.9685 17.9634 65.9162L20.0116 63.9819L19.1483 61.6086C16.8141 63.0588 14.9807 62.4777 14.8044 62.4162L14.8034 62.4158L14.7936 62.4125C14.7183 62.3851 14.6495 62.3368 14.5956 62.2734L14.5887 62.2651L14.588 62.2642C14.4639 62.1147 13.2217 60.5357 13.4727 57.6225L11.1308 57.7449L10.3568 60.574C10.3358 60.6506 10.2911 60.7152 10.2288 60.7592C10.1664 60.8031 10.0895 60.8242 10.0085 60.8195L8.59219 60.7374C8.48847 60.7306 8.38589 60.6821 8.3068 60.6025C8.22772 60.5229 8.17853 60.4186 8.16997 60.3124C8.16142 60.2062 8.19417 60.1067 8.26111 60.0356C8.32805 59.9644 8.42374 59.9274 8.52733 59.9326L9.66681 59.9985L10.4329 57.1981C10.452 57.1283 10.4909 57.0682 10.5452 57.0247C10.5995 56.9813 10.6668 56.9562 10.7396 56.9523L13.5776 56.8039C13.9218 55.0523 14.5633 53.4144 15.4753 51.9593L14.3882 51.1958L13.1055 52.6513C13.0425 52.7229 12.9514 52.7627 12.8509 52.7626L10.899 52.7606C10.7954 52.7605 10.6904 52.718 10.607 52.6423C10.5237 52.5667 10.4688 52.4641 10.4544 52.3572C10.44 52.2503 10.4673 52.1479 10.5303 52.0723C10.5934 51.9968 10.687 51.9544 10.7905 51.9545L12.5862 51.9564L13.9783 50.3766C14.0363 50.3108 14.1183 50.2716 14.2098 50.266C14.3013 50.2605 14.3963 50.2889 14.4779 50.3462L15.8719 51.3253C16.429 50.4393 17.1062 49.647 17.8871 48.9678L17.0988 47.0763C17.0591 46.9811 17.0534 46.8791 17.0828 46.7897L17.643 45.0868L17.0654 43.8735C17.0182 43.7729 17.0096 43.6626 17.0415 43.5668C17.0734 43.471 17.1432 43.3974 17.2357 43.362C17.3281 43.3267 17.4357 43.3325 17.535 43.3782C17.6343 43.4239 17.7172 43.5058 17.7656 43.606L18.4182 44.9769C18.442 45.0268 18.4565 45.0797 18.4609 45.1326C18.4652 45.1854 18.4594 45.2371 18.4437 45.2849L17.8797 46.9994L18.5091 48.5097C18.8886 48.25 19.3177 48.0645 19.7783 47.9611C20.0453 47.4184 20.5161 47.0261 21.0989 46.8605C21.3606 46.7977 21.6389 46.7896 21.9183 46.8368C22.1616 46.2709 23.4277 42.9429 20.5498 40.9218C16.7904 38.2814 11.6828 46.0051 11.6317 46.0834C11.5789 46.1642 11.4945 46.2164 11.3961 46.2291C11.2977 46.2418 11.1929 46.2139 11.1038 46.1514L11.0905 46.1416C11.0462 46.1082 11.0077 46.067 10.977 46.0205C10.9463 45.9739 10.9242 45.9228 10.9118 45.8702C10.8995 45.8175 10.8971 45.7643 10.905 45.7136C10.9128 45.6629 10.9306 45.6157 10.9574 45.5747C11.182 45.2302 16.5128 37.1739 20.9317 40.2773ZM22.3717 56.8027C24.1116 53.8661 23.9948 52.1066 23.8881 51.5458L21.9574 50.9087L15.5288 61.7591C16.7141 61.8608 19.5741 61.5246 22.3717 56.8027ZM14.8427 61.2688L21.2677 50.4244L19.9386 48.772C19.4253 48.8974 17.9049 49.507 16.165 52.4437C13.389 57.1291 14.2756 60.1237 14.8427 61.2688ZM20.5327 48.3309L21.9514 50.0947L24.0121 50.7746C24.2186 50.4562 24.2975 50.0571 24.2348 49.6475C24.1487 49.3461 24.0014 49.0585 23.803 48.8049C23.6047 48.5512 23.3602 48.3376 23.0865 48.1788C22.8408 47.9728 22.5612 47.8184 22.2671 47.7262C21.9731 47.6341 21.6717 47.6065 21.384 47.6453C21.0155 47.7521 20.714 47.9948 20.5327 48.3309Z" stroke="#2B2B2B" stroke-width="0.4" mask="url(#path-3-outside-2_1_4378)"/>
<path d="M2.5 84.5813L94.1387 2.49997" stroke="#FB7E00" stroke-width="5" stroke-linecap="round"/>
</svg>
