<svg width="97" height="87" viewBox="0 0 97 87" fill="none" xmlns="http://www.w3.org/2000/svg">
<path d="M15.1045 10.2887H40.3535C41.2395 10.2887 41.958 11.0073 41.958 11.8932V20.3092C41.958 21.1951 41.2395 21.9137 40.3535 21.9137H37.75V56.2203C37.7501 58.8942 39.9248 61.069 42.5987 61.069C45.2724 61.0688 47.4473 58.8941 47.4473 56.2203V35.7399C47.4473 24.0271 56.9768 14.4969 68.6895 14.4967H72.6963V11.8932C72.6963 11.0073 73.4149 10.2887 74.3008 10.2887H82.7178C83.6036 10.2889 84.3213 11.0074 84.3213 11.8932V37.1422C84.3213 38.028 83.6036 38.7465 82.7178 38.7467H74.3008C73.4149 38.7467 72.6963 38.0281 72.6963 37.1422V34.5387H68.6895C68.0268 34.5389 67.4883 35.0771 67.4883 35.7399V56.2203C67.4883 69.9442 56.3225 81.1098 42.5987 81.11C28.8747 81.11 17.7081 69.9443 17.708 56.2203V21.9137H15.1045C14.2186 21.9137 13.5 21.1951 13.5 20.3092V11.8932C13.5 11.0073 14.2186 10.2887 15.1045 10.2887ZM20.917 56.2203C20.9171 68.1762 30.6428 77.902 42.5987 77.902C54.5544 77.9018 64.2803 68.1761 64.2803 56.2203V47.3033H50.6553V56.2203C50.6553 60.6624 47.0407 64.2768 42.5987 64.277C38.1565 64.277 34.5411 60.6625 34.541 56.2203V47.3033H20.917V56.2203ZM20.917 44.0953H34.541V21.9137H20.917V44.0953ZM68.6895 17.7057C58.7449 17.7059 50.6553 25.7953 50.6553 35.7399V44.0953H64.2803V35.7399C64.2803 33.3089 66.2586 31.3299 68.6895 31.3297H72.6963V17.7057H68.6895ZM75.9053 35.5387H81.1133V13.4967H75.9053V35.5387ZM16.708 18.7057H38.75V13.4967H16.708V18.7057Z" fill="#2B2B2B" stroke="#F2F2F2"/>
<path d="M52.8311 66.1305C53.2474 66.1307 53.585 66.469 53.585 66.8854C53.5848 67.3016 53.2473 67.6391 52.8311 67.6393C52.4147 67.6393 52.0764 67.3017 52.0762 66.8854C52.0762 66.4689 52.4146 66.1305 52.8311 66.1305Z" fill="#2B2B2B" stroke="#2A2A2A" stroke-width="2.7"/>
<path d="M32.3545 66.1305C32.7709 66.1307 33.1084 66.469 33.1084 66.8854C33.1082 67.3016 32.7708 67.6391 32.3545 67.6393C31.9381 67.6393 31.5998 67.3017 31.5996 66.8854C31.5996 66.4689 31.938 66.1305 32.3545 66.1305Z" fill="#2B2B2B" stroke="#2A2A2A" stroke-width="2.7"/>
<path d="M27.7217 55.4664C28.1381 55.4666 28.4756 55.8049 28.4756 56.2213C28.4754 56.6375 28.1379 56.975 27.7217 56.9752C27.3053 56.9752 26.967 56.6377 26.9668 56.2213C26.9668 55.8048 27.3052 55.4664 27.7217 55.4664Z" fill="#2B2B2B" stroke="#2A2A2A" stroke-width="2.7"/>
<path d="M42.5967 70.3414C43.0131 70.3416 43.3506 70.6799 43.3506 71.0963C43.3504 71.5125 43.0129 71.85 42.5967 71.8502C42.1803 71.8502 41.842 71.5127 41.8418 71.0963C41.8418 70.6798 42.1802 70.3414 42.5967 70.3414Z" fill="#2B2B2B" stroke="#2A2A2A" stroke-width="2.7"/>
<path d="M57.4639 55.4664C57.8802 55.4666 58.2178 55.8049 58.2178 56.2213C58.2176 56.6375 57.8801 56.975 57.4639 56.9752C57.0475 56.9752 56.7092 56.6377 56.709 56.2213C56.709 55.8048 57.0474 55.4664 57.4639 55.4664Z" fill="#2B2B2B" stroke="#2A2A2A" stroke-width="2.7"/>
<path d="M2.50003 84.4215L93.9604 2.49998" stroke="#FB7E00" stroke-width="5" stroke-linecap="round"/>
</svg>
