<svg width="48" height="44" viewBox="0 0 48 44" fill="none" xmlns="http://www.w3.org/2000/svg">
<path d="M1.00593 1L7.25018 8.34099C7.79264 8.9837 8.09336 9.80919 8.09336 10.676V38.4243C8.09336 40.9539 10.0274 42.9999 12.4095 42.9999H34.462C36.8441 42.9999 38.7781 40.9539 38.7781 38.4243V1.00589H1.00003L1.00593 1Z" stroke="#FB7E00" stroke-width="2" stroke-linecap="round" stroke-linejoin="round"/>
<path d="M38.7891 4.60156C43.1347 4.60156 46.6549 8.33397 46.6549 12.9331V25.8403C46.6549 30.4454 43.1347 34.1719 38.7891 34.1719" stroke="#FB7E00" stroke-width="2" stroke-linecap="round" stroke-linejoin="round"/>
<path d="M8.10941 24.6983C8.10941 24.6983 14.277 20.1227 22.2961 24.6983C30.3152 29.2739 37.7151 22.6641 37.7151 22.6641" stroke="#FB7E00" stroke-width="2" stroke-linecap="round" stroke-linejoin="round"/>
<path d="M17.4922 28.2109C17.958 28.2994 18.4356 28.4114 18.925 28.5588" stroke="#FB7E00" stroke-width="2" stroke-linecap="round" stroke-linejoin="round"/>
<path d="M21.4063 29.5391C21.6952 29.6806 21.99 29.8398 22.2848 30.0108C27.568 33.0297 32.5858 31.1842 35.3925 29.5744" stroke="#FB7E00" stroke-width="2" stroke-linecap="round" stroke-linejoin="round"/>
<path d="M36.5313 28.8747C37.2801 28.3617 37.7047 27.9844 37.7047 27.9844" stroke="#FB7E00" stroke-width="2" stroke-linecap="round" stroke-linejoin="round"/>
</svg>
