<svg width="49" height="50" viewBox="0 0 49 50" fill="none" xmlns="http://www.w3.org/2000/svg">
<path d="M3.57031 18.2212C3.97937 17.8567 4.42141 17.5253 4.88985 17.2271" stroke="#FB7E00" stroke-width="2" stroke-linecap="round" stroke-linejoin="round"/>
<path d="M7.64844 15.969C8.83602 15.6175 10.1028 15.465 11.3893 15.5446C12.214 16.0949 12.1085 17.5074 13.969 18.2501C14.8795 18.6148 15.9483 18.6413 16.9182 18.3495" stroke="#FB7E00" stroke-width="2" stroke-linecap="round" stroke-linejoin="round"/>
<path d="M18.25 17.6883C18.6854 17.3569 19.0483 16.9327 19.2924 16.4224" stroke="#FB7E00" stroke-width="2" stroke-linecap="round" stroke-linejoin="round"/>
<path d="M3.64648 1.92236C6.19318 2.51916 8.46938 2.17432 10.2771 4.46867C11.4054 5.89435 11.4779 7.19402 11.28 8.92473L8.89164 8.54016C5.02539 7.91684 3.17804 6.0071 3.63988 1.92236H3.64648Z" stroke="#FB7E00" stroke-width="2" stroke-linecap="round" stroke-linejoin="round"/>
<path d="M23.1088 39.7114C22.4359 38.0072 22.9835 36.0974 24.3162 35.0431C24.2304 34.685 24.1513 34.3269 24.0853 33.9622C22.4887 33.5245 21.3011 31.9861 21.3011 30.156C21.3011 28.3258 22.4821 26.7874 24.0853 26.3497C24.1315 26.0911 24.1843 25.8391 24.2436 25.5805C22.9043 24.5461 22.3369 22.6429 22.9769 20.9388C23.6696 19.1086 25.5038 18.1405 27.2588 18.5715C28.0703 17.3646 29.0006 16.2572 30.043 15.2427C26.4737 12.2852 21.7761 11.0386 17.4282 13.26C17.6921 10.3954 18.7214 7.17929 21.0174 5.2828C21.7629 4.66611 22.6932 4.36776 22.8053 3.26037C22.9307 2.05352 21.9608 0.912958 20.7469 1.00579C19.236 1.31745 17.1511 3.77095 16.3 5.06401C14.6044 7.65675 14.0106 10.3423 13.9644 13.4258C9.90687 10.7004 4.6881 12.2587 1 15.2692C1.95007 16.1976 2.81436 17.2121 3.57969 18.3062C5.33468 17.8354 7.19522 18.777 7.91437 20.6006C8.58733 22.3047 8.03973 24.2145 6.70699 25.2689C6.79276 25.6269 6.87194 25.985 6.93791 26.3497C8.53455 26.7874 9.72213 28.3258 9.72213 30.156C9.72213 31.9861 8.54115 33.5245 6.93791 33.9622C6.89173 34.2208 6.83895 34.4728 6.77957 34.7314C8.1189 35.7659 8.6863 37.669 8.04633 39.3732C7.35357 41.2033 5.51941 42.1714 3.76443 41.7404C3.2894 42.4433 2.77478 43.1131 2.22057 43.7497C4.63532 46.6806 7.34037 48.8092 11.3914 47.9803C12.8165 47.6885 14.1228 46.9194 15.6007 46.9459C16.7553 46.9857 17.7383 47.4631 18.8137 47.8079C21.941 48.8025 24.5999 47.9073 26.9223 45.7323C27.5359 45.1554 28.1561 44.4725 28.7696 43.7165C28.3012 43.1662 27.8526 42.5958 27.4435 42.0057C25.6885 42.4765 23.828 41.5349 23.1088 39.7114Z" stroke="#FB7E00" stroke-width="2" stroke-linecap="round" stroke-linejoin="round"/>
<path d="M15.4473 29.8677C14.5896 30.5971 14.0156 31.9498 14.0156 33.5015C14.0156 35.0532 14.5896 36.4059 15.4473 37.1353C16.305 36.4059 16.879 35.0532 16.879 33.5015C16.879 31.9498 16.305 30.5971 15.4473 29.8677Z" stroke="#FB7E00" stroke-width="2" stroke-linecap="round" stroke-linejoin="round"/>
<path d="M15.4473 22.6099C14.5896 23.3393 14.0156 24.692 14.0156 26.2437C14.0156 27.7953 14.5896 29.1482 15.4473 29.8776C16.305 29.1482 16.879 27.7953 16.879 26.2437C16.879 24.692 16.305 23.3393 15.4473 22.6099Z" stroke="#FB7E00" stroke-width="2" stroke-linecap="round" stroke-linejoin="round"/>
<path d="M48.0015 16.6351C48.0015 12.2321 44.4519 8.66455 40.071 8.66455C35.6902 8.66455 32.1406 12.2321 32.1406 16.6351C32.1406 17.4308 32.2594 18.2001 32.4771 18.9295L36.2114 44.353C36.2114 46.4949 37.94 48.2255 40.0644 48.2255C42.1889 48.2255 43.9175 46.4882 43.9175 44.353L47.6518 18.9295C47.8695 18.2001 47.9883 17.4308 47.9883 16.6351H48.0015Z" stroke="#FB7E00" stroke-width="2" stroke-linecap="round" stroke-linejoin="round"/>
<path d="M38.1318 8.91418V3.66906C37.7095 2.89323 36.8056 2.46879 35.9216 2.70751C34.8857 2.98601 34.2655 4.06024 34.5426 5.10131C34.5558 5.15436 34.5822 5.20085 34.602 5.2539H34.5954L35.8358 9.90884" stroke="#FB7E00" stroke-width="2" stroke-linecap="round" stroke-linejoin="round"/>
<path d="M42.0156 8.91418V3.66906C42.4379 2.89323 43.3418 2.46879 44.2258 2.70751C45.2617 2.98601 45.8819 4.06024 45.6048 5.10131C45.5916 5.15436 45.5652 5.20085 45.5454 5.2539H45.552L44.3116 9.90884" stroke="#FB7E00" stroke-width="2" stroke-linecap="round" stroke-linejoin="round"/>
<path d="M38.1316 3.11576V8.92459C38.7518 8.76544 39.3984 8.6726 40.0713 8.6726C40.7443 8.6726 41.3909 8.76544 42.0176 8.92459V3.11576H42.0044C42.0044 3.06271 42.0176 3.00967 42.0176 2.95662C42.0176 1.87576 41.1467 1.00049 40.0713 1.00049C38.9959 1.00049 38.125 1.87576 38.125 2.95662C38.125 3.00967 38.1382 3.06271 38.1382 3.11576H38.1316Z" stroke="#FB7E00" stroke-width="2" stroke-linecap="round" stroke-linejoin="round"/>
<path d="M32.2109 15.5317H39.1847" stroke="#FB7E00" stroke-width="2" stroke-linecap="round" stroke-linejoin="round"/>
<path d="M47.2579 21.688H38.6875" stroke="#FB7E00" stroke-width="2" stroke-linecap="round" stroke-linejoin="round"/>
<path d="M36.3047 27.7036H38.6865" stroke="#FB7E00" stroke-width="2" stroke-linecap="round" stroke-linejoin="round"/>
<path d="M34.8438 35.0005H40.0757" stroke="#FB7E00" stroke-width="2" stroke-linecap="round" stroke-linejoin="round"/>
<path d="M42.0179 40.313H39.1875" stroke="#FB7E00" stroke-width="2" stroke-linecap="round" stroke-linejoin="round"/>
<path d="M45.8235 31.4224H40.0703" stroke="#FB7E00" stroke-width="2" stroke-linecap="round" stroke-linejoin="round"/>
</svg>
