<svg width="56" height="54" viewBox="0 0 56 54" fill="none" xmlns="http://www.w3.org/2000/svg">
<path d="M30.5511 34.4438C30.4648 33.9592 30.3712 33.4745 30.2776 32.9899L25.3981 28.2158L22.8143 34.1328L19.3021 29.771L16.5097 35.0659L11.7596 27.5938L6.08112 33.4094L5.15272 28.8451C5.15272 28.8451 3.59814 29.8072 1.89963 30.8488C1.4966 32.838 1.05759 36.216 1.05759 36.216C1.0216 36.65 1 37.0841 1 37.5253C1 45.8149 7.68607 52.5348 15.9339 52.5348C24.1817 52.5348 30.8678 45.8149 30.8678 37.5253C30.8678 37.0841 30.8462 36.65 30.8102 36.216C30.8102 36.216 30.6087 34.726 30.5583 34.4511L30.5511 34.4438Z" stroke="#FB7E00" stroke-width="2" stroke-linecap="round" stroke-linejoin="round"/>
<path d="M29.2559 20.2509C27.4495 15.5058 25.4559 11.1078 23.3831 7.17281C21.5335 2.99909 17.0929 0.402271 12.386 1.11839C8.59317 1.68983 5.59919 4.26493 4.28932 7.6068C3.99424 8.35908 3.29614 11.4333 3.17379 12.1783C2.52605 16.0048 2.04383 20.1207 1.75594 24.4247C1.75594 24.5259 1.74157 24.6416 1.73438 24.7574C3.26015 23.477 4.65638 22.2908 4.65638 22.2908L6.25411 26.667L11.0114 20.0701L16.8194 26.7466L18.7914 21.09L22.9081 24.8731L24.585 18.6379L30.1196 22.6235C29.8461 21.8351 29.5582 21.0466 29.2559 20.2582V20.2509Z" stroke="#FB7E00" stroke-width="2" stroke-linecap="round" stroke-linejoin="round"/>
<path d="M54.7804 40.6292C54.7969 42.4346 54.5854 44.197 54.0633 45.907C53.4883 47.7891 52.6148 49.471 51.2927 50.839C50.2154 51.9534 48.964 52.7095 47.4909 52.9326C45.906 53.1726 44.4351 52.7782 43.0925 51.8201C41.5318 50.7062 40.4558 49.1393 39.6824 47.2974C39.1387 46.0024 38.7971 44.6438 38.62 43.2286C38.4649 41.9883 38.4386 40.7466 38.5517 39.505C38.7848 36.9477 39.5052 34.5837 40.933 32.5266C41.9576 31.0501 43.226 29.9282 44.8724 29.406C46.754 28.8091 48.5144 29.1515 50.1493 30.3024C51.7169 31.4056 52.7869 32.9823 53.5603 34.8232C54.1044 36.1173 54.4621 37.4736 54.6172 38.8916C54.6803 39.4694 54.7261 40.0496 54.7795 40.6287L54.7804 40.6292ZM46.9269 30.0208C46.8692 30.0905 46.7561 30.1906 46.6849 30.3188C45.6441 32.1986 44.8538 34.1879 44.5342 36.3812C44.3923 37.3562 44.3812 38.3283 44.5363 39.3047C44.677 40.1908 45.0292 40.9764 45.4034 41.7619C46.4039 43.8606 47.0845 46.0665 47.1769 48.4638C47.2244 49.6933 47.146 50.9008 46.7752 52.0709C46.7213 52.2407 46.7964 52.4157 46.9519 52.41C47.0638 52.4058 47.221 52.3226 47.274 52.221C47.5655 51.6648 47.8647 51.109 48.0991 50.5223C48.8152 48.73 49.067 46.8483 48.8538 44.903C48.6974 43.4793 48.2762 42.1408 47.632 40.8982C46.6828 39.0666 46.2454 37.1021 46.3035 34.9959C46.3302 34.0214 46.448 33.0609 46.6917 32.1256C46.8404 31.5549 47.0383 30.9995 47.221 30.44C47.3045 30.1845 47.2244 30.0157 46.9269 30.0203L46.9269 30.0208Z" stroke="#FB7E00" stroke-width="2" stroke-miterlimit="10"/>
</svg>
