<svg width="38" height="38" viewBox="0 0 38 38" fill="none" xmlns="http://www.w3.org/2000/svg">
<path d="M13.0747 5.76526V1.00001C7.34045 2.81866 2.81866 7.34542 1.00001 13.0747H5.73051" stroke="#FB7E00" stroke-width="2" stroke-linecap="round" stroke-linejoin="round"/>
<path d="M31.5453 13.0747H36.395C34.5764 7.34045 30.0496 2.81866 24.3203 1.00001V5.81992" stroke="#FB7E00" stroke-width="2" stroke-linecap="round" stroke-linejoin="round"/>
<path d="M5.73051 24.3125H1.00001C2.81866 30.0467 7.34542 34.5685 13.0747 36.3872V31.6219" stroke="#FB7E00" stroke-width="2" stroke-linecap="round" stroke-linejoin="round"/>
<path d="M24.3203 31.5672V36.3872C30.0545 34.5685 34.5764 30.0418 36.395 24.3125H31.5453" stroke="#FB7E00" stroke-width="2" stroke-linecap="round" stroke-linejoin="round"/>
<path d="M18.6953 1.00001V14.6498" stroke="#FB7E00" stroke-width="2" stroke-linecap="round" stroke-linejoin="round"/>
<path d="M20.8966 10.6719L18.6953 14.6471" stroke="#FB7E00" stroke-width="2" stroke-linecap="round" stroke-linejoin="round"/>
<path d="M18.7013 14.6471L16.5 10.6719" stroke="#FB7E00" stroke-width="2" stroke-linecap="round" stroke-linejoin="round"/>
<path d="M18.6953 36.3892V22.7344" stroke="#FB7E00" stroke-width="2" stroke-linecap="round" stroke-linejoin="round"/>
<path d="M16.5 26.7096L18.7013 22.7344" stroke="#FB7E00" stroke-width="2" stroke-linecap="round" stroke-linejoin="round"/>
<path d="M18.6953 22.7344L20.8966 26.7096" stroke="#FB7E00" stroke-width="2" stroke-linecap="round" stroke-linejoin="round"/>
<path d="M1.00001 18.6953H14.6548" stroke="#FB7E00" stroke-width="2" stroke-linecap="round" stroke-linejoin="round"/>
<path d="M10.6797 16.4844L14.6549 18.6856" stroke="#FB7E00" stroke-width="2" stroke-linecap="round" stroke-linejoin="round"/>
<path d="M14.6549 18.6953L10.6797 20.8966" stroke="#FB7E00" stroke-width="2" stroke-linecap="round" stroke-linejoin="round"/>
<path d="M36.3921 18.6953H22.7422" stroke="#FB7E00" stroke-width="2" stroke-linecap="round" stroke-linejoin="round"/>
<path d="M26.7174 20.8966L22.7422 18.6953" stroke="#FB7E00" stroke-width="2" stroke-linecap="round" stroke-linejoin="round"/>
<path d="M22.7422 18.6856L26.7174 16.4844" stroke="#FB7E00" stroke-width="2" stroke-linecap="round" stroke-linejoin="round"/>
<path d="M31.7727 11.0412C30.4609 8.80515 28.5876 6.93682 26.3516 5.62501" stroke="#FB7E00" stroke-width="2" stroke-linecap="round" stroke-linejoin="round"/>
<path d="M11.0462 5.62501C8.81016 6.93682 6.93682 8.80515 5.62501 11.0412" stroke="#FB7E00" stroke-width="2" stroke-linecap="round" stroke-linejoin="round"/>
<path d="M5.60938 26.3438C6.92617 28.5897 8.79948 30.468 11.0455 31.7848" stroke="#FB7E00" stroke-width="2" stroke-linecap="round" stroke-linejoin="round"/>
<path d="M26.3516 31.7848C28.5976 30.468 30.4758 28.5897 31.7877 26.3438" stroke="#FB7E00" stroke-width="2" stroke-linecap="round" stroke-linejoin="round"/>
</svg>
