<svg width="68" height="57" viewBox="0 0 68 57" fill="none" xmlns="http://www.w3.org/2000/svg">
<path d="M35.1158 28.9909L40.6266 1.5083H6.19519C3.60145 1.5083 1.5 3.48997 1.5 5.93354V23.3439L7.76025 28.976L10.3466 51.1916C10.6185 53.1286 12.3746 54.5813 14.4467 54.5813H32.5C34.5721 54.5813 36.3282 53.136 36.6 51.1916L39.1864 29.0058H35.1084L35.1158 28.9909Z" stroke="#FB7E00" stroke-width="3" stroke-linecap="round" stroke-linejoin="round"/>
<path d="M23.4796 33.4127C26.864 33.4127 29.6075 30.631 29.6075 27.1995C29.6075 23.7681 26.864 20.9863 23.4796 20.9863C20.0952 20.9863 17.3516 23.7681 17.3516 27.1995C17.3516 30.631 20.0952 33.4127 23.4796 33.4127Z" stroke="#FB7E00" stroke-width="3" stroke-linecap="round" stroke-linejoin="round"/>
<path d="M1.5 20.9863H36.4604" stroke="#FB7E00" stroke-width="3" stroke-linecap="round" stroke-linejoin="round"/>
<path d="M7.75781 28.9629H17.3539" stroke="#FB7E00" stroke-width="3" stroke-linecap="round" stroke-linejoin="round"/>
<path d="M29.6016 28.9629H39.1903" stroke="#FB7E00" stroke-width="3" stroke-linecap="round" stroke-linejoin="round"/>
<path d="M44.4782 54.5655L66.4993 16.2359H55.272L59.9819 1.5H40.6353L35.1172 28.9901H44.8456L44.4782 54.5655Z" stroke="#FB7E00" stroke-width="3" stroke-linecap="round" stroke-linejoin="round"/>
<path d="M32.8341 7.74219H14.1268C12.2972 7.74219 10.8203 9.23961 10.8203 11.0946C10.8203 12.9497 12.2972 14.4471 14.1268 14.4471H32.8341C34.6636 14.4471 36.1405 12.9497 36.1405 11.0946C36.1405 9.23961 34.6636 7.74219 32.8341 7.74219Z" stroke="#FB7E00" stroke-width="3" stroke-linecap="round" stroke-linejoin="round"/>
<path d="M12.5547 35.9414L13.8846 47.3397C14.1124 48.9415 15.5599 50.1409 17.2719 50.1409H32.1878" stroke="#FB7E00" stroke-width="3" stroke-linecap="round" stroke-linejoin="round"/>
</svg>
