<svg width="41" height="38" viewBox="0 0 41 38" fill="none" xmlns="http://www.w3.org/2000/svg">
<path d="M16.7906 24.4129C16.0651 24.0999 15.1955 25.2278 14.3409 26.0278C14.321 26.1471 14.2862 26.2713 14.2812 26.3906V30.9074C14.2812 33.9087 16.7161 36.3435 19.7173 36.3435C22.7186 36.3435 25.1534 33.9087 25.1534 30.9074V26.7384C23.6478 26.6589 21.1186 26.2663 16.7956 24.4129H16.7906Z" stroke="#FB7E00" stroke-width="2" stroke-linecap="round" stroke-linejoin="round"/>
<path d="M15.1506 8.50383C15.1506 8.11624 11.7617 8.33488 9.62506 8.33488C7.48839 8.33488 4.09953 8.11624 4.09953 8.50383C4.09953 9.42309 3.63244 10.233 2.92188 10.7101V16.2853C2.92188 19.9872 5.92316 22.9885 9.62506 22.9885C13.327 22.9885 16.3282 19.9872 16.3282 16.2853V10.7101C15.6177 10.233 15.1506 9.42309 15.1506 8.50383Z" stroke="#FB7E00" stroke-width="2" stroke-linecap="round" stroke-linejoin="round"/>
<path d="M9.62122 1.00781C4.86091 1.00781 1 4.86873 1 9.62904C1 10.1508 1.05466 10.6576 1.1441 11.1496C1.23851 11.1595 1.33292 11.1794 1.4323 11.1794C2.90313 11.1794 4.09569 9.98679 4.09569 8.51597C4.09569 8.12839 7.48455 8.34703 9.62122 8.34703C11.7579 8.34703 15.1468 8.12839 15.1468 8.51597C15.1468 9.98679 16.3393 11.1794 17.8101 11.1794C17.9095 11.1794 18.0039 11.1595 18.0983 11.1496C18.1878 10.6527 18.2424 10.1508 18.2424 9.62904C18.2424 4.86873 14.3815 1.00781 9.62122 1.00781Z" stroke="#FB7E00" stroke-width="2" stroke-linecap="round" stroke-linejoin="round"/>
<path d="M36.4271 13.1148C32.3327 13.1148 28.7699 11.3111 26.8469 8.63281C26.1661 9.88997 24.904 10.8887 23.3438 11.4303V16.295C23.3438 19.9969 26.345 22.9982 30.0469 22.9982C33.7488 22.9982 36.7501 19.9969 36.7501 16.295V13.0999C36.6408 13.0999 36.5365 13.1148 36.4271 13.1148Z" stroke="#FB7E00" stroke-width="2" stroke-linecap="round" stroke-linejoin="round"/>
<path d="M31.5122 1.00995C29.301 1.00995 27.3084 2.15779 25.9121 3.97644C23.0798 3.99632 20.7891 6.90318 20.7891 10.4809C20.7891 10.5256 20.8089 11.0573 20.8437 11.8772C23.527 11.8324 25.8177 10.5156 26.8413 8.6324C28.7643 11.3107 32.3271 13.1144 36.4215 13.1144C37.3358 13.1144 38.2153 13.015 39.065 12.8461C39.1247 11.4051 39.1694 10.3815 39.1694 10.292C39.1694 5.15906 35.7408 1 31.5122 1V1.00995Z" stroke="#FB7E00" stroke-width="2" stroke-linecap="round" stroke-linejoin="round"/>
<path d="M31.5122 1.00497C29.301 1.00497 27.3084 2.15281 25.9121 3.97147C23.0798 3.99135 20.7891 6.89821 20.7891 10.4759C20.7891 10.6101 20.9779 14.9728 21.1319 18.635C23.7009 19.1667 25.7481 21.1145 26.4339 23.6239H37.2613C38.0066 23.6239 38.6228 23.0375 38.6526 22.2922C38.7967 18.9679 39.1644 10.5554 39.1644 10.292C39.1644 5.15906 35.7358 1 31.5072 1L31.5122 1.00497Z" stroke="#FB7E00" stroke-width="2" stroke-linecap="round" stroke-linejoin="round"/>
<path d="M19.7023 18.4844C15.8414 18.4844 12.7109 21.6148 12.7109 25.4758C12.7109 25.8981 12.7557 26.3056 12.8252 26.7081C12.9047 26.718 12.9793 26.7329 13.0588 26.7329C14.2513 26.7329 15.6824 23.9155 16.7756 24.3875C22.5595 26.872 25.1434 26.7329 26.3359 26.7329C26.4154 26.7329 26.495 26.718 26.5695 26.7081C26.6391 26.3056 26.6838 25.8981 26.6838 25.4758C26.6838 21.6148 23.5533 18.4844 19.6974 18.4844H19.7023Z" stroke="#FB7E00" stroke-width="2" stroke-linecap="round" stroke-linejoin="round"/>
</svg>
