<svg width="59" height="44" viewBox="0 0 59 44" fill="none" xmlns="http://www.w3.org/2000/svg">
<path d="M3.25781 16.1069C3.6183 15.7871 4.00785 15.4964 4.42066 15.2347" stroke="#FB7E00" stroke-width="2" stroke-linecap="round" stroke-linejoin="round"/>
<path d="M6.85156 14.1328C7.89813 13.8246 9.01446 13.6909 10.1482 13.7606C10.875 14.2432 10.782 15.4817 12.4216 16.1329C13.224 16.4526 14.1659 16.4759 15.0206 16.2201" stroke="#FB7E00" stroke-width="2" stroke-linecap="round" stroke-linejoin="round"/>
<path d="M16.2031 15.6265C16.5869 15.3358 16.9066 14.9637 17.1218 14.516" stroke="#FB7E00" stroke-width="2" stroke-linecap="round" stroke-linejoin="round"/>
<path d="M3.33275 1.81287C5.57705 2.33615 7.58295 2.03381 9.17606 4.04553C10.1703 5.29559 10.2343 6.43519 10.0598 7.9527L7.95507 7.61548C4.54793 7.06894 2.91994 5.39444 3.32693 1.81287H3.33275Z" stroke="#FB7E00" stroke-width="2" stroke-linecap="round" stroke-linejoin="round"/>
<path d="M20.4835 34.9427C19.8905 33.4485 20.3731 31.774 21.5475 30.8495C21.4719 30.5355 21.4022 30.2216 21.344 29.9018C19.937 29.518 18.8904 28.1691 18.8904 26.5644C18.8904 24.9597 19.9312 23.6108 21.344 23.227C21.3847 23.0003 21.4312 22.7793 21.4836 22.5526C20.3033 21.6456 19.8033 19.9769 20.3672 18.4826C20.9777 16.8779 22.5941 16.029 24.1407 16.4069C24.8558 15.3487 25.6756 14.3778 26.5943 13.4882C23.4488 10.895 19.309 9.80196 15.4775 11.7497C15.71 9.23798 16.6171 6.41807 18.6404 4.7552C19.2974 4.21448 20.1172 3.95283 20.2161 2.98186C20.3265 1.92366 19.4718 0.923618 18.402 1.00502C17.0706 1.27829 15.2333 3.42955 14.4832 4.56333C12.989 6.8367 12.4657 9.19146 12.425 11.8951C8.84923 9.50543 4.25016 10.8718 1 13.5114C1.83725 14.3254 2.59892 15.215 3.27337 16.1744C4.81996 15.7616 6.45958 16.5872 7.09333 18.1861C7.68638 19.6804 7.2038 21.3549 6.02932 22.2793C6.10491 22.5933 6.17467 22.9073 6.23282 23.227C7.63986 23.6108 8.68643 24.9597 8.68643 26.5644C8.68643 28.1691 7.64568 29.518 6.23282 29.9018C6.19212 30.1285 6.14561 30.3495 6.09328 30.5762C7.27357 31.4833 7.77359 33.1519 7.20961 34.6462C6.59912 36.2509 4.98276 37.0998 3.43617 36.7219C3.01754 37.3382 2.56403 37.9254 2.07564 38.4836C4.20365 41.0535 6.58748 42.9199 10.1574 42.1931C11.4133 41.9373 12.5645 41.2628 13.8669 41.2861C14.8844 41.321 15.7507 41.7396 16.6984 42.0419C19.4544 42.9141 21.7975 42.1291 23.8442 40.2221C24.3849 39.7162 24.9314 39.1174 25.4721 38.4545C25.0593 37.972 24.664 37.4719 24.3035 36.9545C22.7569 37.3673 21.1173 36.5417 20.4835 34.9427Z" stroke="#FB7E00" stroke-width="2" stroke-linecap="round" stroke-linejoin="round"/>
<path d="M22.5703 7.14602C26.3263 3.34932 31.5359 1.00037 37.292 1.00037C48.7286 1.00037 57.9965 10.2683 57.9965 21.7049C57.9965 33.1415 48.7286 42.4094 37.292 42.4094C34.3267 42.4094 31.5126 41.7873 28.966 40.6651" stroke="#FB7E00" stroke-width="2" stroke-linecap="round" stroke-linejoin="round"/>
<path d="M27.4062 24.4691C28.6098 28.7949 32.5809 31.9753 37.2905 31.9753C42 31.9753 45.9711 28.8007 47.1747 24.4691" stroke="#FB7E00" stroke-width="2" stroke-linecap="round" stroke-linejoin="round"/>
<path d="M47.1747 18.9519C45.9711 14.6261 42 11.4457 37.2905 11.4457C32.5809 11.4457 28.6098 14.6203 27.4062 18.9519" stroke="#FB7E00" stroke-width="2" stroke-linecap="round" stroke-linejoin="round"/>
<path d="M47.1797 18.9532L47.8134 13.8832" stroke="#FB7E00" stroke-width="2" stroke-linecap="round" stroke-linejoin="round"/>
<path d="M42.7656 16.641L47.1786 18.9434" stroke="#FB7E00" stroke-width="2" stroke-linecap="round" stroke-linejoin="round"/>
<path d="M27.3056 24.3051L26.6719 29.3809" stroke="#FB7E00" stroke-width="2" stroke-linecap="round" stroke-linejoin="round"/>
<path d="M31.7177 26.6075L27.3047 24.3051" stroke="#FB7E00" stroke-width="2" stroke-linecap="round" stroke-linejoin="round"/>
<path d="M13.7383 26.3207C12.9824 26.9602 12.4766 28.1464 12.4766 29.5069C12.4766 30.8674 12.9824 32.0535 13.7383 32.6931C14.4941 32.0535 14.9999 30.8674 14.9999 29.5069C14.9999 28.1464 14.4941 26.9602 13.7383 26.3207Z" stroke="#FB7E00" stroke-width="2" stroke-linecap="round" stroke-linejoin="round"/>
<path d="M13.7383 19.9535C12.9824 20.5931 12.4766 21.7792 12.4766 23.1397C12.4766 24.5002 12.9824 25.6863 13.7383 26.3259C14.4941 25.6863 14.9999 24.5002 14.9999 23.1397C14.9999 21.7792 14.4941 20.5931 13.7383 19.9535Z" stroke="#FB7E00" stroke-width="2" stroke-linecap="round" stroke-linejoin="round"/>
</svg>
