<svg width="57" height="47" viewBox="0 0 57 47" fill="none" xmlns="http://www.w3.org/2000/svg">
<path d="M25.0235 11.9948C25.5524 9.01912 27.2054 4.70493 32.3205 7.63085C39.7619 11.889 32.3205 17.7533 32.3205 17.7533" stroke="#FB7E00" stroke-width="2" stroke-linecap="round" stroke-linejoin="round"/>
<path d="M32.5034 29.125C32.5034 29.125 36.2061 32.1069 36.3022 36.9627C36.3804 41.0715 31.3133 40.5298 29.9789 37.8841C28.9811 35.8982 27.8571 35.1201 27.3282 34.8337" stroke="#FB7E00" stroke-width="2" stroke-linecap="round" stroke-linejoin="round"/>
<path d="M29.6456 22.1274C29.9161 22.2333 30.1084 22.2831 30.439 22.3578C34.6586 23.2791 35.3257 21.5547 35.3257 21.5547C35.3257 21.5547 33.6367 33.47 29.1407 28.4648" stroke="#FB7E00" stroke-width="2" stroke-linecap="round" stroke-linejoin="round"/>
<path d="M30.8641 11.1953C30.8641 11.1953 30.6056 13.038 28.9046 15.3352C28.7964 15.4846 28.6882 15.634 28.586 15.7959" stroke="#FB7E00" stroke-width="2" stroke-linecap="round" stroke-linejoin="round"/>
<path d="M40.0966 29.1146C40.0966 29.1146 36.394 32.0965 36.2978 36.9523C36.2197 41.061 41.2868 40.5194 42.6211 37.8736C43.9555 35.2279 45.6205 34.6552 45.6205 34.6552C51.7274 31.088 49.2871 23.1693 49.2871 23.1693C54.0596 18.2388 47.8445 14.4165 47.8445 14.4165C47.8445 14.4165 47.7363 3.37893 40.295 7.63085C32.8537 11.889 40.295 17.7533 40.295 17.7533" stroke="#FB7E00" stroke-width="2" stroke-linecap="round" stroke-linejoin="round"/>
<path d="M41.7389 11.1953C41.7389 11.1953 41.9973 13.038 43.6984 15.3352C45.3994 17.6324 46.4032 21.4298 42.1837 22.3512C37.9641 23.2725 37.2969 21.5481 37.2969 21.5481C37.2969 21.5481 39.1843 34.8891 44.2934 27.4124" stroke="#FB7E00" stroke-width="2" stroke-linecap="round" stroke-linejoin="round"/>
<path d="M8.6312 15.7768C8.80551 15.2787 8.98584 14.7994 9.17217 14.3263C8.75743 14.015 8.34269 13.7224 7.92194 13.4609" stroke="#FB7E00" stroke-width="2" stroke-linecap="round" stroke-linejoin="round"/>
<path d="M5.43558 12.187C4.95472 12.0003 4.47988 11.8448 3.99902 11.7266C3.7105 12.1372 3.44001 12.5728 3.18756 13.0332" stroke="#FB7E00" stroke-width="2" stroke-linecap="round" stroke-linejoin="round"/>
<path d="M1.96629 15.9922C0.427539 21.0161 0.679995 27.7519 3.06025 34.5251C4.03399 37.2954 5.27821 39.8229 6.69675 42.0329C8.67429 45.1144 12.0223 45.905 14.9615 45.0708C15.2561 44.9899 14.9135 44.7969 14.4506 44.7471C11.325 44.4234 8.36173 42.2881 7.49618 38.335C6.86505 35.4651 6.51643 32.3462 6.51643 29.0779C6.51643 24.826 7.10549 20.8231 8.13933 17.312" stroke="#FB7E00" stroke-width="2" stroke-linecap="round" stroke-linejoin="round"/>
<path d="M9.82761 36.7459C10.1101 34.1001 10.7292 31.3422 11.703 28.5719C13.9029 22.3155 17.4793 17.2916 21.3983 14.3345C19.8656 10.5184 17.7498 7.49908 15.2854 5.6875C10.1402 9.4663 6.51569 18.518 6.51569 29.0886C6.51569 32.3569 6.8643 35.4821 7.49543 38.3458C8.39103 42.4234 11.5046 44.5649 14.7384 44.7828C11.745 43.5689 9.40685 40.6305 9.82761 36.7459Z" stroke="#FB7E00" stroke-width="2" stroke-linecap="round" stroke-linejoin="round"/>
<path d="M26.5764 11.7172C30.0867 16.6663 30.6637 25.5686 27.5141 34.5207C26.5404 37.291 25.2961 39.8184 23.8776 42.0284C19.61 48.6771 8.97094 44.668 9.83048 36.7306C10.113 34.0849 10.7321 31.327 11.7058 28.5567C14.8494 19.6047 20.8121 13.1677 26.5764 11.7109V11.7172Z" stroke="#FB7E00" stroke-width="2" stroke-linecap="round" stroke-linejoin="round"/>
<path d="M15.2852 42.3011C13.6623 40.9315 12.6344 38.8584 12.935 36.3994C13.2115 34.1272 13.7825 31.7615 14.6721 29.3959C16.1507 25.4615 18.2846 22.1309 20.7069 19.6719" stroke="#FB7E00" stroke-width="2" stroke-linecap="round" stroke-linejoin="round"/>
<path d="M42.9221 1.48758C41.7139 0.672057 40.103 0.896173 39.1714 2.03542C38.3539 3.03147 37.3741 3.61668 36.3102 3.61668C35.2463 3.61668 34.2666 3.03147 33.4491 2.03542C32.5175 0.896173 30.9066 0.672057 29.6984 1.48758C25.4849 4.32635 22.173 7.53243 19.961 11C20.4839 11.9462 20.9708 12.9485 21.4036 14.0317C23.0926 12.7555 24.8417 11.859 26.5788 11.4232C30.0891 16.3724 30.6661 25.2747 27.5165 34.2268C26.7592 36.3745 25.8455 38.3729 24.8057 40.1907C26.4646 41.7284 28.4181 43.1602 30.7022 44.4675C31.724 45.0527 32.8781 45.3577 34.0442 45.3577H38.5703C39.7364 45.3577 40.8904 45.0527 41.9123 44.4675C52.1486 38.5846 55.7911 30.2923 55.7911 21.0975C55.7911 13.7204 50.9885 6.92232 42.9161 1.48758H42.9221Z" stroke="#FB7E00" stroke-width="2" stroke-linecap="round" stroke-linejoin="round"/>
</svg>
