<svg width="50" height="44" viewBox="0 0 50 44" fill="none" xmlns="http://www.w3.org/2000/svg">
<path fill-rule="evenodd" clip-rule="evenodd" d="M21.5792 30.205L21.5908 30.1934C19.6888 27.8344 18.5904 24.8537 18.4228 21.7045L6.16684 21.6929C6.11481 20.7806 6.04542 20.3042 5.7159 19.5721C4.93545 17.8174 3.16646 16.5333 1.01011 16.5391C1.07371 19.6476 1.01011 22.8259 1.01011 25.9403C1.01011 26.8757 0.969651 29.9029 1.05059 30.5943C1.2298 32.0643 1.42058 33.1102 1.95244 34.3827C3.6752 38.5138 7.33461 41.4829 11.6126 42.2208C11.867 42.2673 12.5029 42.3196 12.6128 42.4009H15.1333C15.2258 42.2847 15.1738 42.337 15.3819 42.3138L16.1623 42.2092C16.4803 42.1511 16.7983 42.0756 17.0873 42C20.8739 41.0006 23.961 38.4499 25.626 34.7661L21.5792 30.1992V30.205ZM16.012 30.8442C15.7056 31.3032 15.5496 31.3323 15.168 31.6402V35.6377C15.168 36.1258 15.1044 36.4337 14.85 36.7533C14.2719 37.4796 12.5896 37.4796 12.5896 35.6377V31.6402C12.2023 31.3264 12.0173 31.2683 11.7225 30.8151C10.9247 29.5891 11.3525 28.0494 12.4914 27.2999C14.8038 25.7775 17.5267 28.6014 16.012 30.8384V30.8442Z" stroke="#FB7E00" stroke-width="2" stroke-linecap="round" stroke-linejoin="round"/>
<path fill-rule="evenodd" clip-rule="evenodd" d="M26.5067 21.9315L31.5594 27.004L41.3352 14.564C41.8555 13.9016 42.8152 13.7912 43.4742 14.3142L43.8326 14.5989C44.4917 15.1218 44.6015 16.0863 44.0812 16.7487L34.051 29.5082L33.0047 30.8446L31.8715 32.2856L24.0382 24.4242C23.4485 23.8315 23.4427 22.8554 24.0382 22.2627L24.3619 21.9373C24.9516 21.3447 25.9228 21.3447 26.5125 21.9373L26.5067 21.9315Z" stroke="#FB7E00" stroke-width="2" stroke-linecap="round" stroke-linejoin="round"/>
<path fill-rule="evenodd" clip-rule="evenodd" d="M18.715 4.95884C19.9869 5.28422 21.3107 5.44693 22.6404 5.44693C22.756 5.44693 22.8716 5.44111 22.9872 5.44111C21.2298 3.16926 18.6167 1.61789 15.7088 1.14144C15.362 1.08334 15.1192 1.12402 15.0556 1.00781H12.7027C12.5755 1.10078 11.5927 1.22279 11.4193 1.25765C10.344 1.46683 8.997 2.0188 8.09515 2.55335C5.45319 4.11052 3.52808 6.53926 2.70139 9.54321C2.3314 10.897 2.25046 12.4658 2.2678 14.0172C3.20434 14.1683 4.09462 14.4936 4.89819 14.9585C4.87507 13.7441 4.81147 12.2218 4.99646 11.1991C6.22205 4.40104 13.512 1.79801 18.5705 4.92398L18.7092 4.95884H18.715Z" stroke="#FB7E00" stroke-width="2" stroke-linecap="round" stroke-linejoin="round"/>
<path d="M35.1962 41.5504C34.2134 42.6544 32.6237 42.6544 31.6409 41.5504L21.576 30.2028L21.5875 30.1912C19.5237 27.6288 18.3906 24.3402 18.3906 20.8888V4.88131L18.7086 4.96266C19.9804 5.28804 21.3043 5.45075 22.6339 5.45075C26.7558 5.45075 30.6061 3.89356 33.1902 1.18594L33.3694 1L33.5486 1.18594C36.1328 3.89937 39.983 5.45075 44.1049 5.45075C45.475 5.45075 46.8278 5.27643 48.1228 4.93943L48.4465 4.85808V20.8888C48.4465 24.2995 47.3365 27.5591 45.3131 30.1099H45.3247L44.7929 30.7199L35.1847 41.5504H35.1962Z" stroke="#FB7E00" stroke-width="2" stroke-linecap="round" stroke-linejoin="round"/>
<path d="M18.3906 8.77344L18.7086 8.85475C19.067 8.94767 19.4312 9.02315 19.7954 9.09284" stroke="#FB7E00" stroke-width="2" stroke-linecap="round" stroke-linejoin="round"/>
<path d="M22.4609 9.33719C22.5245 9.33719 22.5823 9.33719 22.6459 9.33719C25.8487 9.33719 28.8837 8.40175 31.2887 6.71094" stroke="#FB7E00" stroke-width="2" stroke-linecap="round" stroke-linejoin="round"/>
<path d="M32.3359 5.8953C32.6366 5.63396 32.9256 5.36103 33.1973 5.07647L33.3765 4.89062L33.5557 5.07647C33.8275 5.36103 34.1165 5.63396 34.4171 5.8953" stroke="#FB7E00" stroke-width="2" stroke-linecap="round" stroke-linejoin="round"/>
<path d="M36.6172 7.4375C38.8082 8.66867 41.4039 9.33654 44.1153 9.33654C44.6529 9.33654 45.1848 9.30749 45.7166 9.25523" stroke="#FB7E00" stroke-width="2" stroke-linecap="round" stroke-linejoin="round"/>
<path d="M47.0469 9.07521C47.4111 9.00553 47.7753 8.92423 48.1337 8.83131L48.4575 8.75" stroke="#FB7E00" stroke-width="2" stroke-linecap="round" stroke-linejoin="round"/>
</svg>
