<svg width="63" height="75" viewBox="0 0 63 75" fill="none" xmlns="http://www.w3.org/2000/svg">
<path d="M27.6875 20.0193C28.5075 19.8793 29.3375 19.8192 30.1775 19.8292" stroke="#2B2B2B" stroke-width="3" stroke-linecap="round" stroke-linejoin="round"/>
<path d="M34.0781 20.4219C35.6181 20.8742 37.1181 21.5978 38.4781 22.5727C39.0281 23.7888 37.9082 25.3265 39.4982 27.5075C40.2282 28.5125 41.3481 29.2764 42.5681 29.6684" stroke="#2B2B2B" stroke-width="3" stroke-linecap="round" stroke-linejoin="round"/>
<path d="M44.5078 29.9398C45.3378 29.9096 46.1479 29.6887 46.8679 29.2266" stroke="#2B2B2B" stroke-width="3" stroke-linecap="round" stroke-linejoin="round"/>
<path d="M39.3257 1.5C41.8057 4.0026 44.6457 5.23881 45.0757 9.1485C45.3457 11.5807 44.5157 13.1185 43.0557 14.9477L40.6057 12.7969C36.6457 9.31936 35.8957 5.82176 39.3157 1.5H39.3257Z" stroke="#2B2B2B" stroke-width="3" stroke-linecap="round" stroke-linejoin="round"/>
<path d="M34.7069 58.5098C35.1469 56.0876 37.1268 54.2986 39.3868 54.0573C39.5368 53.585 39.7068 53.1226 39.8868 52.6603C38.3768 51.012 38.1169 48.419 39.4169 46.3285C40.7169 44.238 43.1569 43.3333 45.2869 43.9866C45.5269 43.7253 45.7668 43.474 46.0068 43.2228C45.2068 41.082 45.9169 38.5091 47.8569 37.0216C49.9369 35.4336 52.7269 35.6447 54.4169 37.3935C56.1969 36.5995 58.0469 36.0065 59.9469 35.5944C57.9769 29.6645 53.5069 24.8805 46.9769 24.2975C49.3069 21.222 52.7669 18.2973 56.7269 17.7847C58.0169 17.6139 59.2869 17.9455 60.1969 16.7596C61.1969 15.4731 60.8969 13.473 59.4469 12.7192C57.4969 11.9956 53.3868 13.2921 51.5068 14.1665C47.7368 15.9053 45.1569 18.5385 42.9169 22.016C40.2269 16.0057 33.1769 14.0459 26.8369 14.8298C27.2569 16.5686 27.5268 18.3475 27.6268 20.1365C29.9568 20.8602 31.4169 23.2622 30.9369 25.8653C30.4969 28.2875 28.5168 30.0766 26.2568 30.3178C26.1068 30.7902 25.9368 31.2525 25.7568 31.7149C27.2668 33.3632 27.5269 35.9562 26.2269 38.0467C24.9269 40.1372 22.4869 41.0418 20.3569 40.3885C20.1169 40.6499 19.8768 40.9011 19.6368 41.1524C20.4368 43.2932 19.7269 45.8661 17.7869 47.3535C15.7069 48.9415 12.9169 48.7305 11.2269 46.9817C10.1869 47.444 9.12688 47.836 8.04688 48.1677C8.71688 53.2332 10.2969 57.5951 15.4969 59.5651C17.3269 60.2586 19.3569 60.3189 21.0269 61.4044C22.3069 62.2788 23.0969 63.525 24.0769 64.6908C26.9369 68.0678 30.5969 68.9423 34.7869 68.1282C35.8969 67.9071 37.0869 67.5754 38.3169 67.1533C38.1669 66.1885 38.0668 65.2236 38.0168 64.2487C35.6868 63.525 34.2269 61.1229 34.7069 58.5198V58.5098Z" stroke="#2B2B2B" stroke-width="3" stroke-linecap="round" stroke-linejoin="round"/>
<path d="M32.9593 41.8047C31.4693 42.0158 29.8493 43.1514 28.7493 44.9204C27.6493 46.6893 27.3493 48.6491 27.8093 50.0864C29.2993 49.8753 30.9192 48.7395 32.0192 46.9706C33.1192 45.2017 33.4193 43.2419 32.9593 41.8047Z" stroke="#2B2B2B" stroke-width="3" stroke-linecap="round" stroke-linejoin="round"/>
<path d="M38.1078 33.5156C36.6178 33.7267 34.9977 34.8625 33.8977 36.6314C32.7977 38.4003 32.4977 40.3602 32.9577 41.7974C34.4477 41.5864 36.0677 40.4506 37.1677 38.6817C38.2677 36.9127 38.5678 34.9529 38.1078 33.5156Z" stroke="#2B2B2B" stroke-width="3" stroke-linecap="round" stroke-linejoin="round"/>
<path d="M9.28992 62.516C4.45992 63.6417 1.5 65.1492 1.5 66.8075C1.5 70.275 14.35 73.0792 30.2 73.0792C46.05 73.0792 58.8999 70.275 58.8999 66.8075C58.8999 64.8376 55.53 63.0386 49.25 61.8828" stroke="#2B2B2B" stroke-width="3" stroke-linecap="round" stroke-linejoin="round"/>
<path d="M6.71094 69.8428C8.74094 69.1898 11.2009 68.6273 14.0909 68.1953" stroke="#2B2B2B" stroke-width="3" stroke-linecap="round" stroke-linejoin="round"/>
<path d="M54.4291 70.1732C51.5191 69.1581 48.3191 68.4244 43.5391 67.9219" stroke="#2B2B2B" stroke-width="3" stroke-linecap="round" stroke-linejoin="round"/>
</svg>
