<svg width="51" height="39" viewBox="0 0 51 39" fill="none" xmlns="http://www.w3.org/2000/svg">
<path d="M27.6031 3.65874H23.8773C23.2009 3.65874 22.5346 3.76691 21.8991 3.98324C21.2637 4.19957 20.6692 4.51377 20.1362 4.92068L12.3618 10.6896H3.33693C2.04547 10.6896 1 11.7455 1 13.0383V25.8226C1 27.1206 2.05059 28.1713 3.33693 28.1713H12.3618L20.1362 33.9402C20.6692 34.3471 21.2637 34.6665 21.8991 34.8777C22.5398 35.094 23.206 35.2022 23.8773 35.2022H27.6031V3.64844V3.65874Z" stroke="#FB7E00" stroke-width="2" stroke-linecap="round" stroke-linejoin="round"/>
<path d="M32.6445 27.8881C34.7713 25.7093 36.0884 22.7218 36.0884 19.4253C36.0884 16.1288 34.7406 13.0641 32.5625 10.875" stroke="#FB7E00" stroke-width="2" stroke-linecap="round" stroke-linejoin="round"/>
<path d="M37.4797 32.6535C40.8057 29.2437 42.8556 24.5771 42.8556 19.4315C42.8556 14.2858 40.7493 9.49044 37.3516 6.07031" stroke="#FB7E00" stroke-width="2" stroke-linecap="round" stroke-linejoin="round"/>
<path d="M42.5856 37.6891C47.1724 32.9864 50.0064 26.5479 50.0064 19.4398C50.0064 12.3317 47.1006 5.72327 42.4062 1" stroke="#FB7E00" stroke-width="2" stroke-linecap="round" stroke-linejoin="round"/>
<path d="M23.875 3.65625V4.9433" stroke="#FB7E00" stroke-width="2" stroke-linecap="round" stroke-linejoin="round"/>
<path d="M23.875 7.57812V32.6058" stroke="#FB7E00" stroke-width="2" stroke-linecap="round" stroke-linejoin="round"/>
<path d="M23.875 33.9219V35.2089" stroke="#FB7E00" stroke-width="2" stroke-linecap="round" stroke-linejoin="round"/>
<path d="M11.651 15.6562L4.13281 23.2125" stroke="#FB7E00" stroke-width="2" stroke-linecap="round" stroke-linejoin="round"/>
<path d="M11.651 23.2125L4.13281 15.6562" stroke="#FB7E00" stroke-width="2" stroke-linecap="round" stroke-linejoin="round"/>
</svg>
