<svg width="45" height="45" viewBox="0 0 45 45" fill="none" xmlns="http://www.w3.org/2000/svg">
<path d="M3.5625 6.25781V11.6229H8.90157" stroke="#FB7E00" stroke-width="2.5" stroke-miterlimit="10" stroke-linecap="round" stroke-linejoin="round"/>
<path d="M3.75 11.6225C7.44259 5.208 14.3443 1.25 22.2492 1.25C34.0439 1.25 43.2495 10.5005 43.2495 22.3527C43.2495 23.6808 43.1295 24.9807 42.8996 26.2421" stroke="#FB7E00" stroke-width="2.5" stroke-miterlimit="10" stroke-linecap="round" stroke-linejoin="round"/>
<path d="M40.8331 32.9531C40.1625 34.1386 39.3829 35.2537 38.5078 36.2845" stroke="#FB7E00" stroke-width="2.5" stroke-miterlimit="10" stroke-linecap="round" stroke-linejoin="round"/>
<path d="M33.0761 40.8594C31.9183 41.5442 30.6906 42.1224 29.4062 42.5807" stroke="#FB7E00" stroke-width="2.5" stroke-miterlimit="10" stroke-linecap="round" stroke-linejoin="round"/>
<path d="M22.417 43.4524C22.3626 43.4528 22.308 43.453 22.2534 43.453C20.9317 43.453 19.6381 43.3324 18.3828 43.1016" stroke="#FB7E00" stroke-width="2.5" stroke-miterlimit="10" stroke-linecap="round" stroke-linejoin="round"/>
<path d="M11.7136 41.0163C10.5339 40.3424 9.42425 39.559 8.39844 38.6797" stroke="#FB7E00" stroke-width="2.5" stroke-miterlimit="10" stroke-linecap="round" stroke-linejoin="round"/>
<path d="M3.83884 33.2189C3.15704 32.0555 2.58131 30.8218 2.125 29.5312" stroke="#FB7E00" stroke-width="2.5" stroke-miterlimit="10" stroke-linecap="round" stroke-linejoin="round"/>
<path d="M1.25062 22.5148C1.25018 22.4601 1.25 22.4053 1.25 22.3504C1.25 21.0222 1.37004 19.7224 1.59989 18.4609" stroke="#FB7E00" stroke-width="2.5" stroke-miterlimit="10" stroke-linecap="round" stroke-linejoin="round"/>
<path d="M22.2485 33.0853C28.1458 33.0853 32.9266 28.2813 32.9266 22.3552C32.9266 16.4291 28.1458 11.625 22.2485 11.625C16.3511 11.625 11.5703 16.4291 11.5703 22.3552C11.5703 28.2813 16.3511 33.0853 22.2485 33.0853Z" stroke="#FB7E00" stroke-width="2.5" stroke-miterlimit="10" stroke-linecap="round" stroke-linejoin="round"/>
</svg>
