<svg width="56" height="75" viewBox="0 0 56 75" fill="none" xmlns="http://www.w3.org/2000/svg">
<path d="M18.22 23.9062H1.5V73.0437H18.22V23.9062Z" stroke="#2B2B2B" stroke-width="3" stroke-linecap="round" stroke-linejoin="round"/>
<path d="M35.1619 1.5L3.67188 9.52036V20.184H16.0519V14.5054L35.1619 6.3041V1.5Z" stroke="#2B2B2B" stroke-width="3" stroke-linecap="round" stroke-linejoin="round"/>
<path d="M47.1066 31.8069H18.2266V41.3751H41.5865C43.2365 41.3751 44.5765 42.7219 44.5765 44.3803V53.1344H53.8865V38.6112C53.8865 34.8523 50.8566 31.7969 47.1066 31.7969V31.8069Z" stroke="#2B2B2B" stroke-width="3" stroke-linecap="round" stroke-linejoin="round"/>
<path d="M44.5781 53.125V59.5875" stroke="#2B2B2B" stroke-width="3" stroke-linecap="round" stroke-linejoin="round"/>
<path d="M44.5781 64.3125V73.0464" stroke="#2B2B2B" stroke-width="3" stroke-linecap="round" stroke-linejoin="round"/>
<path d="M49.2266 56.9141V73.0251" stroke="#2B2B2B" stroke-width="3" stroke-linecap="round" stroke-linejoin="round"/>
<path d="M5.59375 37.2891V73.0491" stroke="#2B2B2B" stroke-width="3" stroke-linecap="round" stroke-linejoin="round"/>
<path d="M5.59375 23.9062V30.5698" stroke="#2B2B2B" stroke-width="3" stroke-linecap="round" stroke-linejoin="round"/>
<path d="M53.8828 53.125V65.8289" stroke="#2B2B2B" stroke-width="3" stroke-linecap="round" stroke-linejoin="round"/>
<path d="M53.8828 70.8984V73.0493" stroke="#2B2B2B" stroke-width="3" stroke-linecap="round" stroke-linejoin="round"/>
</svg>
