<svg width="23" height="86" viewBox="0 0 23 86" fill="none" xmlns="http://www.w3.org/2000/svg">
<path d="M12.546 1.5C12.546 0.671573 11.8744 0 11.046 0C10.2175 0 9.54596 0.671573 9.54596 1.5L11.046 1.5L12.546 1.5ZM9.9853 85.5607C10.5711 86.1464 11.5208 86.1464 12.1066 85.5607L21.6526 76.0147C22.2383 75.4289 22.2383 74.4792 21.6526 73.8934C21.0668 73.3076 20.117 73.3076 19.5312 73.8934L11.046 82.3787L2.56068 73.8934C1.97489 73.3076 1.02514 73.3076 0.439358 73.8934C-0.146429 74.4792 -0.146429 75.4289 0.439358 76.0147L9.9853 85.5607ZM11.046 1.5L9.54596 1.5L9.54596 84.5H11.046H12.546L12.546 1.5L11.046 1.5Z" fill="#FB7E00"/>
</svg>
