<svg width="37" height="47" viewBox="0 0 37 47" fill="none" xmlns="http://www.w3.org/2000/svg">
<path d="M31.0023 18.6891C32.1372 16.9814 32.7892 15.0152 32.7892 12.9167C32.7892 6.33132 26.3938 1 18.506 1C10.6183 1 4.22282 6.33762 4.22282 12.9167C4.22282 15.0089 4.87489 16.9751 6.00978 18.6891C2.91236 21.8652 1 26.2072 1 31.0028C1 37.2227 4.21654 42.6864 9.06957 45.8184H27.9362C32.7892 42.6927 36.0058 37.229 36.0058 31.0028C36.0058 26.2072 34.0934 21.8589 30.996 18.6891H31.0023Z" stroke="#FB7E00" stroke-width="2" stroke-linecap="round" stroke-linejoin="round"/>
<path d="M25.6974 15.3977C25.9859 14.6856 26.1489 13.923 26.1489 13.1227C26.1489 9.39205 22.7317 6.36719 18.5119 6.36719C14.2922 6.36719 10.875 9.39205 10.875 13.1227C10.875 13.923 11.038 14.6856 11.3265 15.3977C13.4896 14.257 15.9287 13.6079 18.5119 13.6079C21.0952 13.6079 23.528 14.2507 25.6974 15.3977Z" stroke="#FB7E00" stroke-width="2" stroke-linecap="round" stroke-linejoin="round"/>
<path d="M21.5 19.25C21.5 19.25 28.7169 21.0208 29.8643 27.5684" stroke="#FB7E00" stroke-width="2" stroke-linecap="round" stroke-linejoin="round"/>
</svg>
