<svg width="33" height="38" viewBox="0 0 33 38" fill="none" xmlns="http://www.w3.org/2000/svg">
<path d="M14.1215 36.3758H26.6484L28.7602 30.572V23.1732C28.7602 22.6117 28.308 22.1595 27.7465 22.1595H25.262V21.8266C25.262 21.2651 24.8098 20.8129 24.2483 20.8129H21.7638V20.5793C21.7638 20.0179 21.3117 19.5657 20.7502 19.5657H18.2657V13.8315C18.2657 12.8526 17.4706 12.0625 16.4967 12.0625H15.9004C14.9215 12.0625 14.1314 12.8575 14.1314 13.8315V28.0925L11.8606 24.157C11.3736 23.3123 10.2904 23.0191 9.44071 23.5111L8.92394 23.8092C8.07921 24.2962 7.78605 25.3794 8.27798 26.2291L14.1364 36.3758H14.1215Z" stroke="#FB7E00" stroke-width="2" stroke-linecap="round" stroke-linejoin="round"/>
<path d="M18.2578 25.1335V19.5781" stroke="#FB7E00" stroke-width="2" stroke-linecap="round" stroke-linejoin="round"/>
<path d="M21.7656 25.6353V20.8203" stroke="#FB7E00" stroke-width="2" stroke-linecap="round" stroke-linejoin="round"/>
<path d="M25.25 26.2266V22.1719" stroke="#FB7E00" stroke-width="2" stroke-linecap="round" stroke-linejoin="round"/>
<path d="M10.5504 30.2973C4.95531 28.0562 1 22.5854 1 16.1902C1 7.80257 7.80257 1 16.1902 1C24.5779 1 31.3805 7.80257 31.3805 16.1902C31.3805 19.3356 30.4264 22.2574 28.7867 24.6823" stroke="#FB7E00" stroke-width="2" stroke-linecap="round" stroke-linejoin="round"/>
<path d="M20.7761 16.7501C21.2283 15.97 21.4866 15.0706 21.4866 14.1066C21.4866 11.1799 19.1164 8.80469 16.1847 8.80469C13.253 8.80469 10.8828 11.1749 10.8828 14.1066C10.8828 15.0706 11.1462 15.97 11.5934 16.7501" stroke="#FB7E00" stroke-width="2" stroke-linecap="round" stroke-linejoin="round"/>
<path d="M23.1172 19.0818C23.3607 18.7489 23.5743 18.3961 23.7681 18.0234" stroke="#FB7E00" stroke-width="2" stroke-linecap="round" stroke-linejoin="round"/>
<path d="M24.5509 15.8334C24.6701 15.2719 24.7297 14.6955 24.7297 14.0992C24.7297 9.38366 20.9086 5.5625 16.193 5.5625C11.4774 5.5625 7.65625 9.38366 7.65625 14.0992C7.65625 15.103 7.83017 16.062 8.15315 16.9564" stroke="#FB7E00" stroke-width="2" stroke-linecap="round" stroke-linejoin="round"/>
<path d="M8.61719 18.0234C8.81098 18.3911 9.02961 18.7439 9.26813 19.0818" stroke="#FB7E00" stroke-width="2" stroke-linecap="round" stroke-linejoin="round"/>
</svg>
