<svg preserveAspectRatio="none" width="100%" height="100%" overflow="visible" style="display: block;" viewBox="0 0 96.6388 87.0814" fill="none" xmlns="http://www.w3.org/2000/svg">
<g id="Group 1336">
<g id="015---Rat">
<g id="Shape">
<mask id="path-1-inside-1_0_9" fill="white">
<path d="M14.3941 24.5247C14.4007 24.4563 14.4127 24.3886 14.4299 24.3223C14.8139 22.3992 17.6884 21.2791 22.9063 19.4451C25.6339 18.5591 28.471 18.1043 31.325 18.0955C31.9739 15.472 33.6761 12.6286 37.3876 12.6286C38.852 12.6142 40.2111 13.4291 40.9481 14.7635C41.6308 16.0331 41.9691 17.4762 41.9259 18.935C41.9259 19.0146 41.9259 19.0942 41.9182 19.1738C42.5581 19.4154 43.2057 19.6691 43.8712 19.9431C45.9905 20.8788 48.1888 21.6018 50.4368 22.1023C52.8797 22.64 55.4101 22.5413 57.8086 21.8149C60.7619 21.0748 63.7883 20.7092 66.8238 20.7258C76.7387 20.7258 91.1406 29.6638 91.1406 43.668C91.1406 54.718 89.505 60.158 85.3686 62.6708C84.4382 67.459 82.4173 72.3875 78.1107 74.3038C72.7136 76.8194 64.1707 76.5468 53.3548 76.2053C48.9599 76.0704 44.4113 75.9354 39.5262 75.9354C36.1986 75.9516 28.3916 75.9908 24.4958 77.7236C22.9479 78.4126 21.1612 77.6759 20.4672 76.0623C19.7733 74.4488 20.4248 72.5461 21.9362 71.7721C28.192 68.5535 40.3658 68.1877 52.1262 67.8342C59.7105 67.6061 66.8763 67.3915 71.3518 66.3901C72.3721 66.1934 73.3587 65.8368 74.2788 65.3321C74.6632 64.706 74.9521 64.0202 75.135 63.2997C72.7605 62.6409 70.4352 61.7987 68.1779 60.7801C67.7773 61.6344 67.3818 62.5561 67.0452 63.494C66.6752 64.5536 65.7189 65.2584 64.6481 65.2606H53.3343C52.4421 65.2613 51.6139 64.7721 51.1485 63.9694C50.6831 63.1667 50.6477 62.1664 51.055 61.3294C52.3514 58.6478 54.316 57.1633 56.5851 57.1633C58.5164 57.1633 59.5787 57.0837 60.0714 56.2484C59.626 55.911 59.2113 55.5871 58.8402 55.2915C56.7924 53.6491 55.656 52.745 49.9748 51.7463C49.9338 51.7463 49.8929 51.7301 49.8468 51.722C47.0209 52.9306 44.4104 54.6369 42.1268 56.7679C40.9381 57.9897 40.0131 59.4672 39.4149 61.1C38.8863 62.4171 38.2835 63.911 36.1078 63.911H29.9646C29.1325 63.91 28.3519 63.4859 27.8682 62.772C27.3911 62.0808 27.2649 61.1871 27.5303 60.3793C28.1969 58.2294 29.8102 56.5535 31.8587 55.8826C34.0805 55.1026 36.6658 50.3495 38.423 45.6531C36.8529 44.0942 35.6435 42.1757 34.8881 40.0458C33.8425 36.7205 33.1731 35.5707 27.1489 35.5707C20.2186 35.5707 14.4786 28.5774 14.3621 24.8959C14.3621 24.8756 14.3621 24.8554 14.3557 24.8338C14.3493 24.8122 14.3557 24.7933 14.3557 24.7744C14.3639 24.6905 14.3768 24.6071 14.3941 24.5247ZM71.8791 69.0393C67.177 70.0906 59.8999 70.3092 52.1966 70.5413C41.2373 70.8693 28.8165 71.2431 23.056 74.2067C22.7839 74.336 22.6627 74.6734 22.7853 74.9604C22.908 75.2473 23.228 75.3751 23.5001 75.2458C27.3499 73.5333 33.7554 73.2728 39.516 73.2445H40.312C44.9412 73.2445 49.2542 73.3794 53.4329 73.5144C63.9211 73.8477 72.2093 74.1122 77.0957 71.8328C80.7241 70.2134 82.3008 65.3834 82.983 61.4265C82.9894 61.4063 82.983 61.3834 82.9945 61.3631C83.1647 60.3712 83.2825 59.4319 83.3593 58.6195C83.4581 57.5616 82.9361 56.5469 82.0412 56.0574C81.1463 55.5679 80.059 55.7023 79.2958 56.3968C78.7619 56.8892 78.4516 57.5977 78.4421 58.3455C78.3845 59.7167 78.0582 64.3874 76.3816 66.8692C75.6175 68.0946 72.9772 68.7896 71.8791 69.0393ZM27.1489 32.8716C34.0882 32.8716 35.8518 34.5275 37.3223 39.1929C37.7955 40.5173 38.5016 41.7357 39.4033 42.784C39.6273 42.0404 39.8244 41.3198 39.9857 40.6409C40.0941 40.1702 40.4335 39.7969 40.875 39.6627C41.3165 39.5286 41.7922 39.6543 42.1216 39.992C42.4509 40.3298 42.5834 40.8278 42.4685 41.2968C42.103 42.7853 41.6634 44.2525 41.1516 45.6923C41.1414 45.726 41.1298 45.757 41.117 45.7908C39.3074 50.919 36.2178 57.1984 32.6701 58.4441C31.3934 58.8449 30.3832 59.8785 29.9646 61.212H36.1078C36.5903 61.212 36.5903 61.212 37.0664 60.0392C37.7949 58.0909 38.9043 56.3261 40.3223 54.8597C44.3294 50.6343 52.0161 47.9001 52.3412 47.7854C52.6633 47.6722 53.0149 47.6986 53.3185 47.8588C53.6222 48.0191 53.853 48.2999 53.9602 48.6397C54.0795 49.0336 54.018 49.4637 53.7938 49.803C56.1677 50.3054 58.3873 51.4179 60.2557 53.0419C60.0537 52.0788 59.806 51.1271 59.5134 50.1903C58.5637 46.9959 57.3837 43.0202 59.2792 39.0215C62.2433 32.7664 70.6569 30.1726 74.5028 30.1726C75.2096 30.1726 75.7826 30.7768 75.7826 31.5221C75.7826 32.2674 75.2096 32.8716 74.5028 32.8716C71.1125 32.8716 63.8904 35.3278 61.5701 40.2226C60.1354 43.2469 61.0581 46.3643 61.954 49.3779C62.5338 51.0104 62.881 52.7244 62.9843 54.4643C62.9837 54.9536 62.9409 55.4419 62.8563 55.9231C62.8563 55.9609 62.8461 55.9973 62.8384 56.0351C62.1217 59.8516 58.7173 59.8624 56.5851 59.8624C55.2912 59.8624 54.1982 60.768 53.3343 62.5615L64.6481 62.5386C65.151 61.1665 65.7327 59.828 66.3899 58.5304C66.3893 58.5219 66.3893 58.5133 66.3899 58.5048C66.3976 58.4872 66.413 58.4764 66.4206 58.4589C67.3946 56.525 68.2546 55.1566 68.3122 55.0648C68.566 54.6637 69.0035 54.4358 69.4598 54.4669C69.9161 54.4981 70.322 54.7836 70.5246 55.2159C70.7272 55.6482 70.6957 56.1617 70.4419 56.5628C70.4316 56.5776 69.985 57.2902 69.3822 58.3941C71.4198 59.3037 73.5153 60.0617 75.6534 60.6627C75.7686 59.8111 75.8441 58.9677 75.8761 58.22C75.9136 56.7491 76.5297 55.3609 77.5768 54.3882C78.6238 53.4154 80.0074 52.9458 81.396 53.0918C84.0749 53.358 86.0716 55.8156 85.91 58.6478C87.4522 56.5115 88.581 52.3981 88.581 43.668C88.581 31.3102 75.6956 23.4249 66.8238 23.4249C63.9711 23.4063 61.1267 23.7515 58.3526 24.4532C55.6088 25.2581 52.7221 25.359 49.9338 24.7474C47.54 24.2147 45.1987 23.4466 42.9408 22.4532C42.4698 22.2602 42.0129 22.0713 41.5611 21.8958C40.8022 24.9539 38.8812 27.4735 36.1078 27.4735C35.4009 27.4735 34.8279 26.8693 34.8279 26.124C34.8279 25.3786 35.4009 24.7744 36.1078 24.7744C38.0275 24.7744 39.3662 21.6975 39.3662 18.935C39.4036 17.9781 39.1977 17.028 38.7698 16.1833C38.5009 15.6441 37.9651 15.3125 37.3876 15.3276C33.63 15.3276 33.5481 20.4802 33.5481 20.7258C33.5454 21.4498 32.9988 22.0412 32.3124 22.0627C31.6261 22.0842 31.0472 21.528 31.0038 20.8054C28.5301 20.8342 26.0732 21.2382 23.7087 22.0052C22.6094 22.3911 21.1708 22.8986 19.8884 23.4114C20.0611 23.5293 20.2223 23.6649 20.3696 23.8162C20.8547 24.3458 20.8477 25.1875 20.354 25.708C19.8604 26.2286 19.0621 26.2359 18.56 25.7245C18.2937 25.4438 17.6769 25.491 17.1048 25.6408C18.0275 28.1294 22.1832 32.8716 27.1489 32.8716Z"/>
</mask>
<path d="M14.3941 24.5247C14.4007 24.4563 14.4127 24.3886 14.4299 24.3223C14.8139 22.3992 17.6884 21.2791 22.9063 19.4451C25.6339 18.5591 28.471 18.1043 31.325 18.0955C31.9739 15.472 33.6761 12.6286 37.3876 12.6286C38.852 12.6142 40.2111 13.4291 40.9481 14.7635C41.6308 16.0331 41.9691 17.4762 41.9259 18.935C41.9259 19.0146 41.9259 19.0942 41.9182 19.1738C42.5581 19.4154 43.2057 19.6691 43.8712 19.9431C45.9905 20.8788 48.1888 21.6018 50.4368 22.1023C52.8797 22.64 55.4101 22.5413 57.8086 21.8149C60.7619 21.0748 63.7883 20.7092 66.8238 20.7258C76.7387 20.7258 91.1406 29.6638 91.1406 43.668C91.1406 54.718 89.505 60.158 85.3686 62.6708C84.4382 67.459 82.4173 72.3875 78.1107 74.3038C72.7136 76.8194 64.1707 76.5468 53.3548 76.2053C48.9599 76.0704 44.4113 75.9354 39.5262 75.9354C36.1986 75.9516 28.3916 75.9908 24.4958 77.7236C22.9479 78.4126 21.1612 77.6759 20.4672 76.0623C19.7733 74.4488 20.4248 72.5461 21.9362 71.7721C28.192 68.5535 40.3658 68.1877 52.1262 67.8342C59.7105 67.6061 66.8763 67.3915 71.3518 66.3901C72.3721 66.1934 73.3587 65.8368 74.2788 65.3321C74.6632 64.706 74.9521 64.0202 75.135 63.2997C72.7605 62.6409 70.4352 61.7987 68.1779 60.7801C67.7773 61.6344 67.3818 62.5561 67.0452 63.494C66.6752 64.5536 65.7189 65.2584 64.6481 65.2606H53.3343C52.4421 65.2613 51.6139 64.7721 51.1485 63.9694C50.6831 63.1667 50.6477 62.1664 51.055 61.3294C52.3514 58.6478 54.316 57.1633 56.5851 57.1633C58.5164 57.1633 59.5787 57.0837 60.0714 56.2484C59.626 55.911 59.2113 55.5871 58.8402 55.2915C56.7924 53.6491 55.656 52.745 49.9748 51.7463C49.9338 51.7463 49.8929 51.7301 49.8468 51.722C47.0209 52.9306 44.4104 54.6369 42.1268 56.7679C40.9381 57.9897 40.0131 59.4672 39.4149 61.1C38.8863 62.4171 38.2835 63.911 36.1078 63.911H29.9646C29.1325 63.91 28.3519 63.4859 27.8682 62.772C27.3911 62.0808 27.2649 61.1871 27.5303 60.3793C28.1969 58.2294 29.8102 56.5535 31.8587 55.8826C34.0805 55.1026 36.6658 50.3495 38.423 45.6531C36.8529 44.0942 35.6435 42.1757 34.8881 40.0458C33.8425 36.7205 33.1731 35.5707 27.1489 35.5707C20.2186 35.5707 14.4786 28.5774 14.3621 24.8959C14.3621 24.8756 14.3621 24.8554 14.3557 24.8338C14.3493 24.8122 14.3557 24.7933 14.3557 24.7744C14.3639 24.6905 14.3768 24.6071 14.3941 24.5247ZM71.8791 69.0393C67.177 70.0906 59.8999 70.3092 52.1966 70.5413C41.2373 70.8693 28.8165 71.2431 23.056 74.2067C22.7839 74.336 22.6627 74.6734 22.7853 74.9604C22.908 75.2473 23.228 75.3751 23.5001 75.2458C27.3499 73.5333 33.7554 73.2728 39.516 73.2445H40.312C44.9412 73.2445 49.2542 73.3794 53.4329 73.5144C63.9211 73.8477 72.2093 74.1122 77.0957 71.8328C80.7241 70.2134 82.3008 65.3834 82.983 61.4265C82.9894 61.4063 82.983 61.3834 82.9945 61.3631C83.1647 60.3712 83.2825 59.4319 83.3593 58.6195C83.4581 57.5616 82.9361 56.5469 82.0412 56.0574C81.1463 55.5679 80.059 55.7023 79.2958 56.3968C78.7619 56.8892 78.4516 57.5977 78.4421 58.3455C78.3845 59.7167 78.0582 64.3874 76.3816 66.8692C75.6175 68.0946 72.9772 68.7896 71.8791 69.0393ZM27.1489 32.8716C34.0882 32.8716 35.8518 34.5275 37.3223 39.1929C37.7955 40.5173 38.5016 41.7357 39.4033 42.784C39.6273 42.0404 39.8244 41.3198 39.9857 40.6409C40.0941 40.1702 40.4335 39.7969 40.875 39.6627C41.3165 39.5286 41.7922 39.6543 42.1216 39.992C42.4509 40.3298 42.5834 40.8278 42.4685 41.2968C42.103 42.7853 41.6634 44.2525 41.1516 45.6923C41.1414 45.726 41.1298 45.757 41.117 45.7908C39.3074 50.919 36.2178 57.1984 32.6701 58.4441C31.3934 58.8449 30.3832 59.8785 29.9646 61.212H36.1078C36.5903 61.212 36.5903 61.212 37.0664 60.0392C37.7949 58.0909 38.9043 56.3261 40.3223 54.8597C44.3294 50.6343 52.0161 47.9001 52.3412 47.7854C52.6633 47.6722 53.0149 47.6986 53.3185 47.8588C53.6222 48.0191 53.853 48.2999 53.9602 48.6397C54.0795 49.0336 54.018 49.4637 53.7938 49.803C56.1677 50.3054 58.3873 51.4179 60.2557 53.0419C60.0537 52.0788 59.806 51.1271 59.5134 50.1903C58.5637 46.9959 57.3837 43.0202 59.2792 39.0215C62.2433 32.7664 70.6569 30.1726 74.5028 30.1726C75.2096 30.1726 75.7826 30.7768 75.7826 31.5221C75.7826 32.2674 75.2096 32.8716 74.5028 32.8716C71.1125 32.8716 63.8904 35.3278 61.5701 40.2226C60.1354 43.2469 61.0581 46.3643 61.954 49.3779C62.5338 51.0104 62.881 52.7244 62.9843 54.4643C62.9837 54.9536 62.9409 55.4419 62.8563 55.9231C62.8563 55.9609 62.8461 55.9973 62.8384 56.0351C62.1217 59.8516 58.7173 59.8624 56.5851 59.8624C55.2912 59.8624 54.1982 60.768 53.3343 62.5615L64.6481 62.5386C65.151 61.1665 65.7327 59.828 66.3899 58.5304C66.3893 58.5219 66.3893 58.5133 66.3899 58.5048C66.3976 58.4872 66.413 58.4764 66.4206 58.4589C67.3946 56.525 68.2546 55.1566 68.3122 55.0648C68.566 54.6637 69.0035 54.4358 69.4598 54.4669C69.9161 54.4981 70.322 54.7836 70.5246 55.2159C70.7272 55.6482 70.6957 56.1617 70.4419 56.5628C70.4316 56.5776 69.985 57.2902 69.3822 58.3941C71.4198 59.3037 73.5153 60.0617 75.6534 60.6627C75.7686 59.8111 75.8441 58.9677 75.8761 58.22C75.9136 56.7491 76.5297 55.3609 77.5768 54.3882C78.6238 53.4154 80.0074 52.9458 81.396 53.0918C84.0749 53.358 86.0716 55.8156 85.91 58.6478C87.4522 56.5115 88.581 52.3981 88.581 43.668C88.581 31.3102 75.6956 23.4249 66.8238 23.4249C63.9711 23.4063 61.1267 23.7515 58.3526 24.4532C55.6088 25.2581 52.7221 25.359 49.9338 24.7474C47.54 24.2147 45.1987 23.4466 42.9408 22.4532C42.4698 22.2602 42.0129 22.0713 41.5611 21.8958C40.8022 24.9539 38.8812 27.4735 36.1078 27.4735C35.4009 27.4735 34.8279 26.8693 34.8279 26.124C34.8279 25.3786 35.4009 24.7744 36.1078 24.7744C38.0275 24.7744 39.3662 21.6975 39.3662 18.935C39.4036 17.9781 39.1977 17.028 38.7698 16.1833C38.5009 15.6441 37.9651 15.3125 37.3876 15.3276C33.63 15.3276 33.5481 20.4802 33.5481 20.7258C33.5454 21.4498 32.9988 22.0412 32.3124 22.0627C31.6261 22.0842 31.0472 21.528 31.0038 20.8054C28.5301 20.8342 26.0732 21.2382 23.7087 22.0052C22.6094 22.3911 21.1708 22.8986 19.8884 23.4114C20.0611 23.5293 20.2223 23.6649 20.3696 23.8162C20.8547 24.3458 20.8477 25.1875 20.354 25.708C19.8604 26.2286 19.0621 26.2359 18.56 25.7245C18.2937 25.4438 17.6769 25.491 17.1048 25.6408C18.0275 28.1294 22.1832 32.8716 27.1489 32.8716Z" fill="var(--fill-0, #2B2B2B)" stroke="var(--stroke-0, white)" stroke-width="0.5" mask="url(#path-1-inside-1_0_9)"/>
</g>
<path id="Shape_2" d="M29.6963 23.9253H28.417C28.011 23.9253 27.6367 24.2804 27.6367 24.7749C27.6368 25.2693 28.011 25.6245 28.417 25.6245H29.6963C30.1023 25.6245 30.4766 25.2693 30.4766 24.7749C30.4766 24.2804 30.1023 23.9253 29.6963 23.9253Z" fill="var(--fill-0, #2B2B2B)" stroke="var(--stroke-0, #2B2B2B)"/>
</g>
<g id="13-cockroach">
<g id="Vector">
<mask id="path-3-outside-2_0_9" maskUnits="userSpaceOnUse" x="2.76096" y="35.5162" width="33.909" height="36.671" fill="black">
<rect fill="white" x="2.76096" y="35.5162" width="33.909" height="36.671"/>
<path d="M20.9886 40.238C24.1856 42.4703 23.1045 46.0703 22.7322 47.0492C23.2602 47.294 23.7498 47.6358 24.174 48.056C24.84 47.2821 27.4088 44.7209 30.6057 46.9533C35.0071 50.0267 30.4317 58.6864 30.2347 59.0534C30.2113 59.0971 30.179 59.1346 30.1397 59.1636C30.1004 59.1926 30.0549 59.2126 30.0057 59.2225C29.9566 59.2323 29.9048 59.2319 29.8533 59.221C29.8018 59.2102 29.7516 59.1893 29.7055 59.1595L29.6919 59.1504C29.6032 59.0884 29.5371 58.9963 29.5076 58.8936C29.4781 58.7908 29.4875 58.6853 29.5337 58.5992C29.5784 58.5156 33.9662 50.2166 30.2215 47.6018C27.355 45.6002 25.0833 48.2505 24.7084 48.7289C24.8618 48.9859 24.9685 49.2648 25.0226 49.5503C25.1216 50.1969 24.9848 50.8278 24.6391 51.3199C24.7402 51.8193 24.7598 52.3221 24.697 52.807L26.2189 52.7964L27.4252 51.5184C27.4587 51.4829 27.4997 51.4553 27.5458 51.4375C27.5918 51.4196 27.642 51.4118 27.6935 51.4144L29.1081 51.4854C29.1599 51.4875 29.212 51.5002 29.2615 51.5226C29.311 51.5451 29.3569 51.5769 29.3966 51.6162C29.4362 51.6555 29.4688 51.7015 29.4924 51.7516C29.5161 51.8017 29.5304 51.8548 29.5344 51.908C29.5385 51.9612 29.5322 52.0134 29.5161 52.0614C29.4999 52.1095 29.4741 52.1526 29.4401 52.1882C29.4062 52.2238 29.3648 52.2513 29.3184 52.2689C29.2719 52.2865 29.2213 52.2941 29.1695 52.291L27.9175 52.2281L26.7194 53.4975C26.6565 53.5641 26.5687 53.6013 26.4728 53.602L24.5669 53.6152C24.3162 54.6734 23.9286 55.6766 23.4135 56.6L24.8021 57.5696C24.8834 57.6264 24.9459 57.7085 24.9786 57.8014C25.0112 57.8943 25.0119 57.992 24.9804 58.0771L24.2245 60.1186L24.9582 61.896C24.9792 61.9467 24.9906 62 24.9919 62.0526C24.9931 62.1053 24.9842 62.1564 24.9656 62.203C24.947 62.2496 24.9191 62.2908 24.8835 62.3242C24.8478 62.3577 24.8052 62.3827 24.7579 62.3978C24.6625 62.4284 24.5542 62.4171 24.4568 62.3663C24.4086 62.3411 24.3646 62.307 24.3271 62.2659C24.2897 62.2248 24.2597 62.1776 24.2387 62.1268L23.4412 60.1947C23.4001 60.0953 23.3964 59.9883 23.4306 59.8959L24.127 58.0149L23.0441 57.2588C22.197 58.7725 21.0865 60.0952 19.7594 61.1711L20.7922 64.0437C20.8187 64.1174 20.8251 64.1946 20.8108 64.2666C20.7965 64.3386 20.7621 64.4023 20.7114 64.4506L18.6777 66.3844L19.1976 67.4851C19.2217 67.5351 19.2365 67.5882 19.241 67.6414C19.2455 67.6947 19.2398 67.747 19.224 67.7954C19.2083 67.8437 19.1829 67.8871 19.1492 67.9231C19.1156 67.9591 19.0745 67.9869 19.0282 68.005C18.9819 68.023 18.9314 68.031 18.8795 68.0284C18.8277 68.0258 18.7755 68.0126 18.7261 67.9897C18.6767 67.9668 18.631 67.9346 18.5917 67.8949C18.5523 67.8552 18.5201 67.8089 18.4969 67.7586L17.8507 66.3906C17.8137 66.3124 17.8 66.2273 17.8114 66.1471C17.8228 66.0669 17.8587 65.9955 17.9143 65.9426L19.9688 63.9889L19.1165 61.6185C16.7783 63.0896 14.9491 62.5221 14.7733 62.462L14.7722 62.4616L14.7624 62.4583C14.6874 62.4315 14.6188 62.3837 14.5652 62.3206L14.5584 62.3123L14.5577 62.3114C14.4343 62.1626 13.2 60.591 13.4631 57.6709L11.123 57.8121L10.3377 60.6521C10.3164 60.7289 10.2715 60.7941 10.209 60.8386C10.1465 60.8831 10.0695 60.9048 9.98863 60.9007L8.57405 60.8298C8.47046 60.8238 8.36818 60.776 8.28951 60.6969C8.21083 60.6178 8.16214 60.5137 8.15404 60.4074C8.14594 60.3011 8.17909 60.2012 8.24627 60.1294C8.31344 60.0576 8.4092 60.0198 8.51267 60.0241L9.65079 60.0811L10.428 57.27C10.4474 57.1999 10.4866 57.1394 10.541 57.0954C10.5953 57.0515 10.6628 57.0258 10.7355 57.0214L13.5714 56.8502C13.9227 55.0929 14.5706 53.4473 15.4879 51.9825L14.405 51.2264L13.1174 52.6945C13.0542 52.7667 12.9629 52.8073 12.8626 52.808L10.9125 52.8215C10.8091 52.8222 10.7043 52.7804 10.6214 52.7053C10.5384 52.6302 10.4839 52.5279 10.47 52.421C10.4561 52.314 10.4838 52.2112 10.5471 52.135C10.6104 52.0589 10.7041 52.0157 10.8075 52.0149L12.6015 52.0025L13.999 50.409C14.0572 50.3427 14.1393 50.3028 14.2308 50.2965C14.3222 50.2902 14.417 50.3179 14.4982 50.3747L15.8868 51.3443C16.4471 50.4525 17.1271 49.6535 17.91 48.9669L17.1305 47.0786C17.0913 46.9836 17.0861 46.8814 17.1158 46.7917L17.6827 45.0815L17.1107 43.8708C17.064 43.7703 17.0559 43.66 17.0882 43.5637C17.1205 43.4675 17.1906 43.3932 17.2831 43.3571C17.3756 43.321 17.4831 43.326 17.582 43.371C17.681 43.4159 17.7635 43.4973 17.8114 43.5972L18.4576 44.9652C18.4812 45.015 18.4954 45.0679 18.4996 45.1208C18.5037 45.1737 18.4977 45.2256 18.4817 45.2735L17.911 46.9953L18.5334 48.5032C18.9137 48.24 19.3432 48.0508 19.8038 47.9435C20.0728 47.3978 20.5448 47.0011 21.1278 46.8306C21.3895 46.7657 21.6675 46.7554 21.9465 46.8004C22.192 46.2316 23.4709 42.8881 20.6044 40.8865C16.8597 38.2717 11.7243 46.0486 11.6728 46.1275C11.6198 46.2088 11.5353 46.2618 11.4369 46.2753C11.3385 46.2887 11.234 46.2617 11.1452 46.1997L11.132 46.19C11.0879 46.157 11.0495 46.116 11.0191 46.0696C10.9886 46.0232 10.9667 45.9723 10.9546 45.9196C10.9425 45.867 10.9404 45.8137 10.9484 45.7629C10.9564 45.712 10.9744 45.6646 11.0014 45.6232C11.2272 45.2764 16.5872 37.1646 20.9886 40.238ZM22.3572 56.7791C24.1078 53.8239 23.9986 52.0624 23.8945 51.5015L21.9682 50.8787L15.4997 61.798C16.6835 61.8905 19.5422 61.531 22.3572 56.7791ZM14.8163 61.3124L21.2813 50.3991L19.9604 48.7545C19.4471 48.8842 17.9255 49.5069 16.1748 52.4622C13.3816 57.1774 14.2547 60.1699 14.8163 61.3124ZM20.5558 48.308L21.9657 50.0634L24.0216 50.728C24.2293 50.4074 24.3098 50.0071 24.2489 49.5973C24.1642 49.2961 24.0182 49.0093 23.8211 48.7568C23.624 48.5043 23.3806 48.2922 23.1079 48.1353C22.8633 47.931 22.5846 47.7785 22.2912 47.6885C21.9979 47.5985 21.6969 47.5733 21.4093 47.6145C21.0406 47.7244 20.7384 47.9699 20.5558 48.308Z"/>
</mask>
<path d="M20.9886 40.238C24.1856 42.4703 23.1045 46.0703 22.7322 47.0492C23.2602 47.294 23.7498 47.6358 24.174 48.056C24.84 47.2821 27.4088 44.7209 30.6057 46.9533C35.0071 50.0267 30.4317 58.6864 30.2347 59.0534C30.2113 59.0971 30.179 59.1346 30.1397 59.1636C30.1004 59.1926 30.0549 59.2126 30.0057 59.2225C29.9566 59.2323 29.9048 59.2319 29.8533 59.221C29.8018 59.2102 29.7516 59.1893 29.7055 59.1595L29.6919 59.1504C29.6032 59.0884 29.5371 58.9963 29.5076 58.8936C29.4781 58.7908 29.4875 58.6853 29.5337 58.5992C29.5784 58.5156 33.9662 50.2166 30.2215 47.6018C27.355 45.6002 25.0833 48.2505 24.7084 48.7289C24.8618 48.9859 24.9685 49.2648 25.0226 49.5503C25.1216 50.1969 24.9848 50.8278 24.6391 51.3199C24.7402 51.8193 24.7598 52.3221 24.697 52.807L26.2189 52.7964L27.4252 51.5184C27.4587 51.4829 27.4997 51.4553 27.5458 51.4375C27.5918 51.4196 27.642 51.4118 27.6935 51.4144L29.1081 51.4854C29.1599 51.4875 29.212 51.5002 29.2615 51.5226C29.311 51.5451 29.3569 51.5769 29.3966 51.6162C29.4362 51.6555 29.4688 51.7015 29.4924 51.7516C29.5161 51.8017 29.5304 51.8548 29.5344 51.908C29.5385 51.9612 29.5322 52.0134 29.5161 52.0614C29.4999 52.1095 29.4741 52.1526 29.4401 52.1882C29.4062 52.2238 29.3648 52.2513 29.3184 52.2689C29.2719 52.2865 29.2213 52.2941 29.1695 52.291L27.9175 52.2281L26.7194 53.4975C26.6565 53.5641 26.5687 53.6013 26.4728 53.602L24.5669 53.6152C24.3162 54.6734 23.9286 55.6766 23.4135 56.6L24.8021 57.5696C24.8834 57.6264 24.9459 57.7085 24.9786 57.8014C25.0112 57.8943 25.0119 57.992 24.9804 58.0771L24.2245 60.1186L24.9582 61.896C24.9792 61.9467 24.9906 62 24.9919 62.0526C24.9931 62.1053 24.9842 62.1564 24.9656 62.203C24.947 62.2496 24.9191 62.2908 24.8835 62.3242C24.8478 62.3577 24.8052 62.3827 24.7579 62.3978C24.6625 62.4284 24.5542 62.4171 24.4568 62.3663C24.4086 62.3411 24.3646 62.307 24.3271 62.2659C24.2897 62.2248 24.2597 62.1776 24.2387 62.1268L23.4412 60.1947C23.4001 60.0953 23.3964 59.9883 23.4306 59.8959L24.127 58.0149L23.0441 57.2588C22.197 58.7725 21.0865 60.0952 19.7594 61.1711L20.7922 64.0437C20.8187 64.1174 20.8251 64.1946 20.8108 64.2666C20.7965 64.3386 20.7621 64.4023 20.7114 64.4506L18.6777 66.3844L19.1976 67.4851C19.2217 67.5351 19.2365 67.5882 19.241 67.6414C19.2455 67.6947 19.2398 67.747 19.224 67.7954C19.2083 67.8437 19.1829 67.8871 19.1492 67.9231C19.1156 67.9591 19.0745 67.9869 19.0282 68.005C18.9819 68.023 18.9314 68.031 18.8795 68.0284C18.8277 68.0258 18.7755 68.0126 18.7261 67.9897C18.6767 67.9668 18.631 67.9346 18.5917 67.8949C18.5523 67.8552 18.5201 67.8089 18.4969 67.7586L17.8507 66.3906C17.8137 66.3124 17.8 66.2273 17.8114 66.1471C17.8228 66.0669 17.8587 65.9955 17.9143 65.9426L19.9688 63.9889L19.1165 61.6185C16.7783 63.0896 14.9491 62.5221 14.7733 62.462L14.7722 62.4616L14.7624 62.4583C14.6874 62.4315 14.6188 62.3837 14.5652 62.3206L14.5584 62.3123L14.5577 62.3114C14.4343 62.1626 13.2 60.591 13.4631 57.6709L11.123 57.8121L10.3377 60.6521C10.3164 60.7289 10.2715 60.7941 10.209 60.8386C10.1465 60.8831 10.0695 60.9048 9.98863 60.9007L8.57405 60.8298C8.47046 60.8238 8.36818 60.776 8.28951 60.6969C8.21083 60.6178 8.16214 60.5137 8.15404 60.4074C8.14594 60.3011 8.17909 60.2012 8.24627 60.1294C8.31344 60.0576 8.4092 60.0198 8.51267 60.0241L9.65079 60.0811L10.428 57.27C10.4474 57.1999 10.4866 57.1394 10.541 57.0954C10.5953 57.0515 10.6628 57.0258 10.7355 57.0214L13.5714 56.8502C13.9227 55.0929 14.5706 53.4473 15.4879 51.9825L14.405 51.2264L13.1174 52.6945C13.0542 52.7667 12.9629 52.8073 12.8626 52.808L10.9125 52.8215C10.8091 52.8222 10.7043 52.7804 10.6214 52.7053C10.5384 52.6302 10.4839 52.5279 10.47 52.421C10.4561 52.314 10.4838 52.2112 10.5471 52.135C10.6104 52.0589 10.7041 52.0157 10.8075 52.0149L12.6015 52.0025L13.999 50.409C14.0572 50.3427 14.1393 50.3028 14.2308 50.2965C14.3222 50.2902 14.417 50.3179 14.4982 50.3747L15.8868 51.3443C16.4471 50.4525 17.1271 49.6535 17.91 48.9669L17.1305 47.0786C17.0913 46.9836 17.0861 46.8814 17.1158 46.7917L17.6827 45.0815L17.1107 43.8708C17.064 43.7703 17.0559 43.66 17.0882 43.5637C17.1205 43.4675 17.1906 43.3932 17.2831 43.3571C17.3756 43.321 17.4831 43.326 17.582 43.371C17.681 43.4159 17.7635 43.4973 17.8114 43.5972L18.4576 44.9652C18.4812 45.015 18.4954 45.0679 18.4996 45.1208C18.5037 45.1737 18.4977 45.2256 18.4817 45.2735L17.911 46.9953L18.5334 48.5032C18.9137 48.24 19.3432 48.0508 19.8038 47.9435C20.0728 47.3978 20.5448 47.0011 21.1278 46.8306C21.3895 46.7657 21.6675 46.7554 21.9465 46.8004C22.192 46.2316 23.4709 42.8881 20.6044 40.8865C16.8597 38.2717 11.7243 46.0486 11.6728 46.1275C11.6198 46.2088 11.5353 46.2618 11.4369 46.2753C11.3385 46.2887 11.234 46.2617 11.1452 46.1997L11.132 46.19C11.0879 46.157 11.0495 46.116 11.0191 46.0696C10.9886 46.0232 10.9667 45.9723 10.9546 45.9196C10.9425 45.867 10.9404 45.8137 10.9484 45.7629C10.9564 45.712 10.9744 45.6646 11.0014 45.6232C11.2272 45.2764 16.5872 37.1646 20.9886 40.238ZM22.3572 56.7791C24.1078 53.8239 23.9986 52.0624 23.8945 51.5015L21.9682 50.8787L15.4997 61.798C16.6835 61.8905 19.5422 61.531 22.3572 56.7791ZM14.8163 61.3124L21.2813 50.3991L19.9604 48.7545C19.4471 48.8842 17.9255 49.5069 16.1748 52.4622C13.3816 57.1774 14.2547 60.1699 14.8163 61.3124ZM20.5558 48.308L21.9657 50.0634L24.0216 50.728C24.2293 50.4074 24.3098 50.0071 24.2489 49.5973C24.1642 49.2961 24.0182 49.0093 23.8211 48.7568C23.624 48.5043 23.3806 48.2922 23.1079 48.1353C22.8633 47.931 22.5846 47.7785 22.2912 47.6885C21.9979 47.5985 21.6969 47.5733 21.4093 47.6145C21.0406 47.7244 20.7384 47.9699 20.5558 48.308Z" fill="var(--fill-0, #2B2B2B)"/>
<path d="M20.9886 40.238C24.1856 42.4703 23.1045 46.0703 22.7322 47.0492C23.2602 47.294 23.7498 47.6358 24.174 48.056C24.84 47.2821 27.4088 44.7209 30.6057 46.9533C35.0071 50.0267 30.4317 58.6864 30.2347 59.0534C30.2113 59.0971 30.179 59.1346 30.1397 59.1636C30.1004 59.1926 30.0549 59.2126 30.0057 59.2225C29.9566 59.2323 29.9048 59.2319 29.8533 59.221C29.8018 59.2102 29.7516 59.1893 29.7055 59.1595L29.6919 59.1504C29.6032 59.0884 29.5371 58.9963 29.5076 58.8936C29.4781 58.7908 29.4875 58.6853 29.5337 58.5992C29.5784 58.5156 33.9662 50.2166 30.2215 47.6018C27.355 45.6002 25.0833 48.2505 24.7084 48.7289C24.8618 48.9859 24.9685 49.2648 25.0226 49.5503C25.1216 50.1969 24.9848 50.8278 24.6391 51.3199C24.7402 51.8193 24.7598 52.3221 24.697 52.807L26.2189 52.7964L27.4252 51.5184C27.4587 51.4829 27.4997 51.4553 27.5458 51.4375C27.5918 51.4196 27.642 51.4118 27.6935 51.4144L29.1081 51.4854C29.1599 51.4875 29.212 51.5002 29.2615 51.5226C29.311 51.5451 29.3569 51.5769 29.3966 51.6162C29.4362 51.6555 29.4688 51.7015 29.4924 51.7516C29.5161 51.8017 29.5304 51.8548 29.5344 51.908C29.5385 51.9612 29.5322 52.0134 29.5161 52.0614C29.4999 52.1095 29.4741 52.1526 29.4401 52.1882C29.4062 52.2238 29.3648 52.2513 29.3184 52.2689C29.2719 52.2865 29.2213 52.2941 29.1695 52.291L27.9175 52.2281L26.7194 53.4975C26.6565 53.5641 26.5687 53.6013 26.4728 53.602L24.5669 53.6152C24.3162 54.6734 23.9286 55.6766 23.4135 56.6L24.8021 57.5696C24.8834 57.6264 24.9459 57.7085 24.9786 57.8014C25.0112 57.8943 25.0119 57.992 24.9804 58.0771L24.2245 60.1186L24.9582 61.896C24.9792 61.9467 24.9906 62 24.9919 62.0526C24.9931 62.1053 24.9842 62.1564 24.9656 62.203C24.947 62.2496 24.9191 62.2908 24.8835 62.3242C24.8478 62.3577 24.8052 62.3827 24.7579 62.3978C24.6625 62.4284 24.5542 62.4171 24.4568 62.3663C24.4086 62.3411 24.3646 62.307 24.3271 62.2659C24.2897 62.2248 24.2597 62.1776 24.2387 62.1268L23.4412 60.1947C23.4001 60.0953 23.3964 59.9883 23.4306 59.8959L24.127 58.0149L23.0441 57.2588C22.197 58.7725 21.0865 60.0952 19.7594 61.1711L20.7922 64.0437C20.8187 64.1174 20.8251 64.1946 20.8108 64.2666C20.7965 64.3386 20.7621 64.4023 20.7114 64.4506L18.6777 66.3844L19.1976 67.4851C19.2217 67.5351 19.2365 67.5882 19.241 67.6414C19.2455 67.6947 19.2398 67.747 19.224 67.7954C19.2083 67.8437 19.1829 67.8871 19.1492 67.9231C19.1156 67.9591 19.0745 67.9869 19.0282 68.005C18.9819 68.023 18.9314 68.031 18.8795 68.0284C18.8277 68.0258 18.7755 68.0126 18.7261 67.9897C18.6767 67.9668 18.631 67.9346 18.5917 67.8949C18.5523 67.8552 18.5201 67.8089 18.4969 67.7586L17.8507 66.3906C17.8137 66.3124 17.8 66.2273 17.8114 66.1471C17.8228 66.0669 17.8587 65.9955 17.9143 65.9426L19.9688 63.9889L19.1165 61.6185C16.7783 63.0896 14.9491 62.5221 14.7733 62.462L14.7722 62.4616L14.7624 62.4583C14.6874 62.4315 14.6188 62.3837 14.5652 62.3206L14.5584 62.3123L14.5577 62.3114C14.4343 62.1626 13.2 60.591 13.4631 57.6709L11.123 57.8121L10.3377 60.6521C10.3164 60.7289 10.2715 60.7941 10.209 60.8386C10.1465 60.8831 10.0695 60.9048 9.98863 60.9007L8.57405 60.8298C8.47046 60.8238 8.36818 60.776 8.28951 60.6969C8.21083 60.6178 8.16214 60.5137 8.15404 60.4074C8.14594 60.3011 8.17909 60.2012 8.24627 60.1294C8.31344 60.0576 8.4092 60.0198 8.51267 60.0241L9.65079 60.0811L10.428 57.27C10.4474 57.1999 10.4866 57.1394 10.541 57.0954C10.5953 57.0515 10.6628 57.0258 10.7355 57.0214L13.5714 56.8502C13.9227 55.0929 14.5706 53.4473 15.4879 51.9825L14.405 51.2264L13.1174 52.6945C13.0542 52.7667 12.9629 52.8073 12.8626 52.808L10.9125 52.8215C10.8091 52.8222 10.7043 52.7804 10.6214 52.7053C10.5384 52.6302 10.4839 52.5279 10.47 52.421C10.4561 52.314 10.4838 52.2112 10.5471 52.135C10.6104 52.0589 10.7041 52.0157 10.8075 52.0149L12.6015 52.0025L13.999 50.409C14.0572 50.3427 14.1393 50.3028 14.2308 50.2965C14.3222 50.2902 14.417 50.3179 14.4982 50.3747L15.8868 51.3443C16.4471 50.4525 17.1271 49.6535 17.91 48.9669L17.1305 47.0786C17.0913 46.9836 17.0861 46.8814 17.1158 46.7917L17.6827 45.0815L17.1107 43.8708C17.064 43.7703 17.0559 43.66 17.0882 43.5637C17.1205 43.4675 17.1906 43.3932 17.2831 43.3571C17.3756 43.321 17.4831 43.326 17.582 43.371C17.681 43.4159 17.7635 43.4973 17.8114 43.5972L18.4576 44.9652C18.4812 45.015 18.4954 45.0679 18.4996 45.1208C18.5037 45.1737 18.4977 45.2256 18.4817 45.2735L17.911 46.9953L18.5334 48.5032C18.9137 48.24 19.3432 48.0508 19.8038 47.9435C20.0728 47.3978 20.5448 47.0011 21.1278 46.8306C21.3895 46.7657 21.6675 46.7554 21.9465 46.8004C22.192 46.2316 23.4709 42.8881 20.6044 40.8865C16.8597 38.2717 11.7243 46.0486 11.6728 46.1275C11.6198 46.2088 11.5353 46.2618 11.4369 46.2753C11.3385 46.2887 11.234 46.2617 11.1452 46.1997L11.132 46.19C11.0879 46.157 11.0495 46.116 11.0191 46.0696C10.9886 46.0232 10.9667 45.9723 10.9546 45.9196C10.9425 45.867 10.9404 45.8137 10.9484 45.7629C10.9564 45.712 10.9744 45.6646 11.0014 45.6232C11.2272 45.2764 16.5872 37.1646 20.9886 40.238ZM22.3572 56.7791C24.1078 53.8239 23.9986 52.0624 23.8945 51.5015L21.9682 50.8787L15.4997 61.798C16.6835 61.8905 19.5422 61.531 22.3572 56.7791ZM14.8163 61.3124L21.2813 50.3991L19.9604 48.7545C19.4471 48.8842 17.9255 49.5069 16.1748 52.4622C13.3816 57.1774 14.2547 60.1699 14.8163 61.3124ZM20.5558 48.308L21.9657 50.0634L24.0216 50.728C24.2293 50.4074 24.3098 50.0071 24.2489 49.5973C24.1642 49.2961 24.0182 49.0093 23.8211 48.7568C23.624 48.5043 23.3806 48.2922 23.1079 48.1353C22.8633 47.931 22.5846 47.7785 22.2912 47.6885C21.9979 47.5985 21.6969 47.5733 21.4093 47.6145C21.0406 47.7244 20.7384 47.9699 20.5558 48.308Z" stroke="var(--stroke-0, #2B2B2B)" stroke-width="0.4" mask="url(#path-3-outside-2_0_9)"/>
</g>
</g>
<path id="Line 41" d="M2.50002 84.5814L94.1388 2.50002" stroke="var(--stroke-0, #FB7E00)" stroke-width="5" stroke-linecap="round"/>
</g>
</svg>
