<svg preserveAspectRatio="none" width="100%" height="100%" overflow="visible" style="display: block;" viewBox="0 0 107.732 86.9192" fill="none" xmlns="http://www.w3.org/2000/svg">
<g id="Group 1337">
<g id="Vector">
<mask id="path-1-outside-1_0_17" maskUnits="userSpaceOnUse" x="17.5938" y="2.79504" width="91" height="77" fill="black">
<rect fill="white" x="17.5938" y="2.79504" width="91" height="77"/>
<path d="M64.9645 72.2952C64.9645 72.6133 64.8369 72.9184 64.6096 73.1434C64.3823 73.3683 64.0741 73.4947 63.7527 73.4947H63.1831C62.8617 73.4947 62.5535 73.3683 62.3262 73.1434C62.0989 72.9184 61.9713 72.6133 61.9713 72.2952C61.9713 71.9771 62.0989 71.672 62.3262 71.447C62.5535 71.2221 62.8617 71.0957 63.1831 71.0957H63.7523C63.9115 71.0957 64.0691 71.1266 64.2162 71.1869C64.3633 71.2472 64.4969 71.3355 64.6095 71.4469C64.722 71.5583 64.8113 71.6905 64.8723 71.8361C64.9332 71.9816 64.9645 72.1377 64.9645 72.2952ZM72.5024 72.2513H71.9327C71.7735 72.2513 71.6159 72.2824 71.4689 72.3427C71.3219 72.4029 71.1883 72.4913 71.0758 72.6027C70.9632 72.7141 70.874 72.8463 70.8131 72.9918C70.7522 73.1374 70.7208 73.2933 70.7208 73.4509C70.7208 73.6084 70.7522 73.7644 70.8131 73.9099C70.874 74.0554 70.9632 74.1877 71.0758 74.299C71.1883 74.4104 71.3219 74.4988 71.4689 74.5591C71.6159 74.6193 71.7735 74.6504 71.9327 74.6504H72.5021C72.8235 74.6504 73.1317 74.524 73.359 74.299C73.5862 74.0741 73.7139 73.769 73.7139 73.4509C73.7139 73.1327 73.5862 72.8276 73.359 72.6027C73.1317 72.3777 72.8235 72.2513 72.5021 72.2513H72.5024ZM62.5401 65.524C62.8615 65.524 63.1698 65.3976 63.3971 65.1726C63.6243 64.9477 63.752 64.6426 63.752 64.3244C63.752 64.0063 63.6243 63.7012 63.3971 63.4763C63.1698 63.2513 62.8615 63.1249 62.5401 63.1249H61.9709C61.6495 63.1249 61.3413 63.2513 61.114 63.4763C60.8868 63.7012 60.7591 64.0063 60.7591 64.3244C60.7591 64.6426 60.8868 64.9477 61.114 65.1726C61.3413 65.3976 61.6495 65.524 61.9709 65.524H62.5401ZM33.8955 71.5373H33.3212C32.9998 71.5373 32.6916 71.6637 32.4643 71.8886C32.2371 72.1136 32.1094 72.4187 32.1094 72.7368C32.1094 73.0549 32.2371 73.36 32.4643 73.585C32.6916 73.8099 32.9998 73.9363 33.3212 73.9363H33.8955C34.2169 73.9363 34.5251 73.8099 34.7524 73.585C34.9797 73.36 35.1073 73.0549 35.1073 72.7368C35.1073 72.4187 34.9797 72.1136 34.7524 71.8886C34.5251 71.6637 34.2169 71.5373 33.8955 71.5373ZM72.0066 68.3995C72.328 68.3995 72.6362 68.2732 72.8635 68.0482C73.0908 67.8233 73.2184 67.5182 73.2184 67.2C73.2184 66.8819 73.0908 66.5768 72.8635 66.3518C72.6362 66.1269 72.328 66.0005 72.0066 66.0005H71.4374C71.116 66.0005 70.8077 66.1269 70.5805 66.3518C70.3532 66.5768 70.2255 66.8819 70.2255 67.2C70.2255 67.5182 70.3532 67.8233 70.5805 68.0482C70.8077 68.2732 71.116 68.3995 71.4374 68.3995H72.0066ZM107.217 49.9236C107.176 50.1819 107.051 50.4198 106.861 50.6012C106.671 50.7826 106.426 50.8975 106.164 50.9285L95.638 52.1717L93.1201 54.6375L95.8632 57.3793C95.9753 57.4912 96.0639 57.6239 96.1242 57.7698C96.1844 57.9156 96.215 58.0718 96.2143 58.2294C96.2135 58.3869 96.1814 58.5428 96.1198 58.6881C96.0582 58.8334 95.9683 58.9653 95.8552 59.0762C95.7421 59.1871 95.608 59.2748 95.4607 59.3344C95.3133 59.394 95.1555 59.4243 94.9964 59.4236C94.8372 59.4229 94.6797 59.3911 94.5329 59.3301C94.3861 59.2691 94.2529 59.1801 94.1409 59.0682L91.3969 56.3264L89.675 58.0128L93.7389 62.0772C93.965 62.3034 94.0911 62.6093 94.0894 62.9275C94.0877 63.2457 93.9584 63.5502 93.7299 63.774C93.5013 63.9979 93.1924 64.1227 92.8709 64.121C92.5494 64.1193 92.2417 63.9913 92.0156 63.7651L87.9518 59.7005L86.2276 61.3892L88.969 64.1324C89.1951 64.3586 89.3211 64.6644 89.3194 64.9826C89.3177 65.3008 89.1883 65.6053 88.9598 65.8291C88.7312 66.0528 88.4222 66.1776 88.1008 66.1759C87.7793 66.1742 87.4717 66.0461 87.2456 65.8199L84.5044 63.077L81.4748 66.0439C81.8529 67.5914 81.8198 69.2095 81.3787 70.7406C81.692 71.0815 81.9871 71.4383 82.2627 71.8097C83.5158 73.4987 84.3362 75.4634 84.6533 77.5352C84.6791 77.7058 84.6674 77.88 84.619 78.0457C84.5706 78.2115 84.4866 78.365 84.3728 78.4957C84.2591 78.6264 84.1181 78.7313 83.9597 78.8032C83.8012 78.8751 83.6289 78.9123 83.4546 78.9122H24.5909C24.4213 78.9123 24.2535 78.8771 24.0984 78.8089C23.9434 78.7407 23.8046 78.641 23.6909 78.5164C23.5772 78.3917 23.4913 78.2448 23.4386 78.0852C23.3859 77.9255 23.3677 77.7567 23.3851 77.5897C23.5868 75.931 23.9858 74.3017 24.5738 72.7358C22.2446 71.2921 20.195 69.0185 18.7304 66.2276C18.6437 66.0626 18.597 65.8799 18.5939 65.6939C18.5909 65.508 18.6315 65.3239 18.7126 65.1562C18.7938 64.9884 18.9132 64.8417 19.0615 64.7275C19.2098 64.6133 19.3829 64.5348 19.5671 64.4982C19.673 64.4771 19.7558 64.4571 19.8278 64.4353C20.1079 64.353 20.3688 64.2168 20.5955 64.0344C20.8222 63.8521 21.0103 63.6272 21.1489 63.3726C21.2875 63.1181 21.374 62.839 21.4033 62.5513C21.4327 62.2636 21.4043 61.973 21.3198 61.6961C21.1954 61.2937 20.9586 60.9343 20.6368 60.6593C20.4996 60.5429 20.3905 60.3977 20.3173 60.2343C20.2441 60.0708 20.2088 59.8932 20.2139 59.7145C20.219 59.5358 20.2644 59.3605 20.3468 59.2013C20.4291 59.0422 20.5464 58.9034 20.69 58.7949C21.2649 58.3577 21.6921 57.7581 21.9151 57.0752C22.1381 56.3924 22.1463 55.6587 21.9387 54.9712C21.7661 54.4005 21.4501 53.8825 21.0201 53.4657C20.5902 53.0488 20.0604 52.7468 19.4804 52.5879C19.2793 52.5324 19.0961 52.4265 18.9485 52.2803C18.801 52.1342 18.694 51.9527 18.6381 51.7537C18.5822 51.5546 18.5792 51.3446 18.6294 51.144C18.6796 50.9434 18.7813 50.7591 18.9246 50.6089C20.1521 49.3213 22.353 47.9676 26.0692 48.2894C25.6559 45.6703 24.3877 44.9568 23.4137 44.6545C23.1068 44.5593 22.8508 44.3474 22.7018 44.0653C22.5528 43.7832 22.5231 43.4541 22.6193 43.1504C22.7155 42.8467 22.9296 42.5932 23.2146 42.4457C23.4996 42.2983 23.832 42.2689 24.1389 42.3641C26.3822 43.0603 27.7917 44.7308 28.3521 47.3361C31.0639 45.4469 33.4509 45.4321 35.0893 45.8331L35.1001 45.836C37.4069 42.0882 40.6789 38.1213 44.8489 34.0189C42.3357 31.4964 41.1377 29.1842 40.7842 26.267C40.7217 25.75 40.7701 25.2257 40.9261 24.7284C41.0821 24.2311 41.3422 23.772 41.6895 23.3808C42.0367 22.9897 42.4634 22.6754 42.9416 22.4584C43.4198 22.2414 43.9389 22.1266 44.4649 22.1215C48.2673 22.0925 55.4458 22.0925 59.2418 22.1215C59.7684 22.1257 60.288 22.2398 60.767 22.4563C61.2459 22.6728 61.6734 22.9869 62.0213 23.378C62.3693 23.7691 62.6301 24.2285 62.7865 24.7261C62.943 25.2238 62.9916 25.7485 62.9293 26.266C62.5758 29.1842 61.3778 31.4962 58.8646 34.0188C61.991 37.0935 64.6283 40.103 66.7382 43.0009L66.7652 42.9135C66.7767 42.8764 66.79 42.8399 66.8052 42.804C67.9651 40.0537 69.5207 39.5669 70.6571 39.2115L70.752 39.1816L72.0064 35.1504C72.1978 34.5404 72.6254 34.0302 73.1957 33.7313C73.7659 33.4323 74.4325 33.3689 75.0499 33.5549L78.8904 34.7263C79.5078 34.9144 80.0247 35.3372 80.3278 35.9018C80.631 36.4665 80.6956 37.1271 80.5075 37.7388L79.2524 41.7681C79.2735 41.7947 79.2948 41.8218 79.3165 41.8488C80.054 42.7757 81.064 44.0453 80.4622 46.96C80.4543 46.9979 80.4447 47.0354 80.4333 47.0724L76.4515 59.8926C77.8281 60.5463 79.0205 61.5259 79.9233 62.7447C80.1321 63.0261 80.3247 63.3189 80.5003 63.6217L82.8 61.3692L80.0566 58.624C79.9446 58.512 79.8561 58.3793 79.7959 58.2334C79.7358 58.0875 79.7053 57.9313 79.7062 57.7738C79.707 57.6162 79.7392 57.4604 79.801 57.3151C79.8627 57.1699 79.9527 57.0381 80.0658 56.9273C80.179 56.8165 80.3131 56.7288 80.4605 56.6693C80.6079 56.6098 80.7656 56.5796 80.9248 56.5805C81.084 56.5813 81.2414 56.6132 81.3882 56.6743C81.5349 56.7354 81.668 56.8245 81.78 56.9365L84.5233 59.6815L86.2472 57.9931L82.1815 53.9278C81.9553 53.7016 81.8292 53.3958 81.8309 53.0776C81.8326 52.7594 81.9619 52.4549 82.1904 52.2311C82.4189 52.0072 82.7278 51.8824 83.0493 51.8841C83.3708 51.8857 83.6784 52.0137 83.9045 52.2399L87.9701 56.3062L89.6913 54.6206L86.947 51.8788C86.835 51.7669 86.7463 51.6342 86.6861 51.4883C86.6259 51.3425 86.5953 51.1863 86.5961 51.0288C86.5968 50.8712 86.6289 50.7154 86.6906 50.5701C86.7522 50.4248 86.8421 50.293 86.9552 50.1821C87.0683 50.0712 87.2023 49.9835 87.3497 49.9239C87.497 49.8643 87.6548 49.834 87.814 49.8348C87.9731 49.8355 88.1306 49.8673 88.2774 49.9283C88.4241 49.9893 88.5573 50.0783 88.6694 50.1903L91.4145 52.9334L93.9328 50.467L95.302 40.0619C95.3359 39.8025 95.4545 39.5612 95.6398 39.3747C95.825 39.1882 96.0668 39.0667 96.3283 39.0288C96.5898 38.991 96.8566 39.0387 97.0881 39.1648C97.3196 39.2909 97.5032 39.4885 97.6107 39.7274L100.374 45.8485L106.526 48.6475C106.766 48.7566 106.963 48.9402 107.088 49.1706C107.213 49.401 107.258 49.6654 107.217 49.9236ZM64.9145 57.035C66.3576 57.6727 67.6716 58.5647 68.7924 59.6674C70.487 58.9731 72.3507 58.7883 74.1507 59.1362L78.0979 46.424C78.4542 44.6439 78.0158 44.0935 77.4114 43.333C77.2401 43.1174 77.0626 42.8946 76.8955 42.6371C76.8 42.4901 76.7381 42.3242 76.7142 42.151C76.6903 41.9779 76.7049 41.8016 76.757 41.6346L78.19 37.0347C78.1888 37.0294 78.1861 37.0246 78.1822 37.0208L74.3389 35.8487C74.3351 35.8455 74.3247 35.8542 74.3216 35.8568L72.8895 40.4617C72.8375 40.6286 72.7494 40.7822 72.6312 40.9119C72.513 41.0416 72.3677 41.1442 72.2053 41.2126C71.9221 41.3317 71.6498 41.4168 71.3868 41.4993C70.4563 41.7906 69.7813 42.0014 69.0639 43.6755L68.317 46.0794C68.3141 46.0893 68.3111 46.0992 68.3079 46.109L64.9145 57.035ZM47.0685 32.8136H56.6447C59.1445 30.4511 60.2091 28.5639 60.5226 25.982C60.5446 25.7992 60.5272 25.6138 60.4717 25.4381C60.4162 25.2624 60.3238 25.1002 60.2005 24.9623C60.0773 24.8244 59.926 24.7139 59.7565 24.638C59.587 24.562 59.4033 24.5224 59.2173 24.5217C55.437 24.4929 48.2772 24.4929 44.4907 24.5217C44.3052 24.5234 44.1221 24.5637 43.9534 24.6401C43.7846 24.7165 43.6341 24.8273 43.5116 24.9652C43.3891 25.1031 43.2973 25.2651 43.2423 25.4404C43.1873 25.6158 43.1702 25.8007 43.1923 25.9831C43.5042 28.5637 44.5688 30.4511 47.0685 32.8136ZM37.3584 46.7852C39.417 48.0284 41.1818 50.2091 42.3914 53.0365C44.2285 51.6292 46.4861 50.8664 48.809 50.8682C50.6403 50.8749 52.4384 51.3519 54.0277 52.2524C55.6169 53.1529 56.9429 54.4462 57.8761 56.0058C59.4595 55.8044 61.0668 55.891 62.6187 56.2613L65.8308 45.9214C63.5507 42.5189 60.4599 38.9208 56.6326 35.2133H54.8629C55.7083 36.4193 56.1923 37.8678 56.3232 39.5869C56.3352 39.744 56.3158 39.9019 56.2661 40.0516C56.2165 40.2013 56.1375 40.3399 56.0337 40.4593C55.9299 40.5788 55.8034 40.6769 55.6613 40.7479C55.5192 40.819 55.3644 40.8616 55.2057 40.8735C55.1747 40.8759 55.1437 40.8771 55.1132 40.8771C54.8077 40.8768 54.5136 40.7623 54.2897 40.5565C54.0659 40.3508 53.9288 40.0689 53.9059 39.7673C53.7615 37.8737 53.1211 36.5247 51.8558 35.4935C50.5863 36.5268 49.9463 37.8754 49.8062 39.7649C49.7946 39.9221 49.7518 40.0754 49.6803 40.2162C49.6088 40.3569 49.51 40.4824 49.3895 40.5853C49.269 40.6883 49.1292 40.7667 48.9781 40.8162C48.827 40.8657 48.6675 40.8852 48.5087 40.8737C48.35 40.8622 48.1951 40.8198 48.0529 40.7491C47.9107 40.6783 47.784 40.5805 47.6799 40.4612C47.5759 40.342 47.4967 40.2036 47.4467 40.054C47.3967 39.9045 47.3769 39.7466 47.3886 39.5895C47.5158 37.8701 47.9988 36.4209 48.8464 35.2133H47.0806C42.9129 39.2516 39.6488 43.1371 37.3584 46.7852ZM25.5294 70.4893C26.0368 69.4386 26.6322 68.4317 27.3093 67.4793C30.1003 63.5861 33.8751 61.4069 38.2838 61.1231C38.3174 58.8567 39.1014 56.6638 40.5153 54.8809C39.3533 51.6687 37.4012 49.2817 35.2337 48.4001C35.211 48.3918 35.1885 48.3829 35.1664 48.3742C34.9517 48.2894 34.7315 48.219 34.5073 48.1634C32.4847 47.668 30.3823 48.4686 28.2592 50.5426C28.1185 50.6797 27.9462 50.7808 27.7571 50.8372C27.5681 50.8936 27.368 50.9035 27.1742 50.8661C25.1163 50.4663 23.4175 50.5883 22.0987 51.2275C23.1319 51.987 23.8898 53.0564 24.2594 54.2766C24.5458 55.2255 24.5887 56.23 24.3843 57.1994C24.18 58.1687 23.7347 59.0724 23.0889 59.8287C23.3256 60.1916 23.5108 60.5851 23.6393 60.998C23.9384 61.9839 23.8956 63.0404 23.5178 63.9994C23.1399 64.9584 22.4488 65.7646 21.5544 66.2898C22.57 67.9479 23.9238 69.3782 25.5294 70.4893ZM80.3093 73.2284C79.9606 72.7583 79.5739 72.317 79.1529 71.909C78.9848 71.7463 78.8682 71.5387 78.8172 71.3115C78.7663 71.0844 78.7832 70.8474 78.8658 70.6296C79.362 69.3223 79.4431 67.8961 79.0983 66.5419C78.7536 65.1877 77.9993 63.97 76.9364 63.0516C75.8735 62.1332 74.5526 61.5579 73.1505 61.4026C71.7483 61.2473 70.3317 61.5195 69.09 62.1826C68.8477 62.3127 68.5678 62.3571 68.2966 62.3085C68.0253 62.2599 67.779 62.1212 67.5981 61.9153C66.3601 60.5134 64.7702 59.4598 62.989 58.861C61.2078 58.2622 59.2985 58.1395 57.454 58.5053C57.1893 58.5577 56.9145 58.5213 56.673 58.4017C56.4316 58.2822 56.2373 58.0863 56.121 57.8452C55.3323 56.2016 54.0021 54.8724 52.3491 54.0762C50.6961 53.28 48.8187 53.0641 47.0253 53.4641C45.2319 53.864 43.6294 54.856 42.481 56.2769C41.3327 57.6979 40.707 59.4632 40.7066 61.2828C40.7062 61.5737 40.7231 61.8644 40.7573 62.1533C40.7776 62.3234 40.7607 62.4959 40.708 62.659C40.6553 62.8221 40.5679 62.9722 40.4517 63.0991C40.3355 63.226 40.1932 63.3268 40.0343 63.3947C39.8755 63.4626 39.7038 63.4961 39.5308 63.4928C30.556 63.3292 26.9263 72.0179 26.0062 76.5112H81.95C81.5997 75.3309 81.0446 74.2201 80.3093 73.2284ZM101.608 49.0497L98.9477 47.8394C98.6808 47.7181 98.4674 47.505 98.3474 47.2396L97.1513 44.5904L96.4846 49.6556L101.608 49.0497ZM40.9916 71.4634H40.4222C40.1008 71.4634 39.7925 71.5898 39.5653 71.8148C39.338 72.0397 39.2103 72.3448 39.2103 72.6629C39.2103 72.9811 39.338 73.2862 39.5653 73.5111C39.7925 73.7361 40.1008 73.8625 40.4222 73.8625H40.9916C41.313 73.8625 41.6212 73.7361 41.8485 73.5111C42.0757 73.2862 42.2034 72.9811 42.2034 72.6629C42.2034 72.3448 42.0757 72.0397 41.8485 71.8148C41.6212 71.5898 41.313 71.4634 40.9916 71.4634ZM53.7999 64.1918H53.2307C52.9093 64.1918 52.6011 64.3182 52.3738 64.5431C52.1465 64.7681 52.0189 65.0732 52.0189 65.3913C52.0189 65.7095 52.1465 66.0146 52.3738 66.2395C52.6011 66.4645 52.9093 66.5908 53.2307 66.5908H53.7999C54.1213 66.5908 54.4296 66.4645 54.6569 66.2395C54.8841 66.0146 55.0118 65.7095 55.0118 65.3913C55.0118 65.0732 54.8841 64.7681 54.6569 64.5431C54.4296 64.3182 54.1213 64.1918 53.7999 64.1918ZM52.9705 70.8709H52.4013C52.0799 70.8709 51.7717 70.9973 51.5444 71.2222C51.3171 71.4472 51.1894 71.7523 51.1894 72.0704C51.1894 72.3885 51.3171 72.6936 51.5444 72.9186C51.7717 73.1435 52.0799 73.2699 52.4013 73.2699H52.9705C53.2919 73.2699 53.6002 73.1435 53.8274 72.9186C54.0547 72.6936 54.1824 72.3885 54.1824 72.0704C54.1824 71.7523 54.0547 71.4472 53.8274 71.2222C53.6002 70.9973 53.2919 70.8709 52.9705 70.8709ZM48.603 58.2462H48.0338C47.7124 58.2462 47.4041 58.3726 47.1769 58.5975C46.9496 58.8225 46.8219 59.1276 46.8219 59.4457C46.8219 59.7638 46.9496 60.0689 47.1769 60.2939C47.4041 60.5188 47.7124 60.6452 48.0338 60.6452H48.603C48.9244 60.6452 49.2327 60.5188 49.4599 60.2939C49.6872 60.0689 49.8149 59.7638 49.8149 59.4457C49.8149 59.1276 49.6872 58.8225 49.4599 58.5975C49.2327 58.3726 48.9244 58.2462 48.603 58.2462ZM44.829 65.9794H44.2596C43.9382 65.9794 43.6299 66.1058 43.4027 66.3308C43.1754 66.5557 43.0477 66.8608 43.0477 67.1789C43.0477 67.4971 43.1754 67.8022 43.4027 68.0271C43.6299 68.2521 43.9382 68.3785 44.2596 68.3785H44.829C45.1504 68.3785 45.4586 68.2521 45.6859 68.0271C45.9131 67.8022 46.0408 67.4971 46.0408 67.1789C46.0408 66.8608 45.9131 66.5557 45.6859 66.3308C45.4586 66.1058 45.1504 65.9794 44.829 65.9794ZM86.8325 40.8262C86.6367 41.0785 86.5501 41.3975 86.5919 41.7131C86.6337 42.0286 86.8004 42.3147 87.0553 42.5086C87.3103 42.7024 87.6326 42.7881 87.9513 42.7467C88.2701 42.7054 88.5592 42.5404 88.755 42.288C91.476 38.7827 89.7062 36.5667 88.535 35.1007C87.381 33.6562 86.8543 32.9968 88.6787 31.069C88.8985 30.8367 89.016 30.5276 89.0055 30.2095C88.995 29.8915 88.8573 29.5906 88.6226 29.3731C88.388 29.1555 88.0756 29.0392 87.7543 29.0496C87.433 29.06 87.129 29.1963 86.9092 29.4286C83.6578 32.8645 85.4486 35.1059 86.6336 36.5892C87.7733 38.0169 88.4024 38.8036 86.8325 40.8262ZM56.9954 15.572C56.7995 15.8242 56.7129 16.1431 56.7545 16.4586C56.7962 16.7741 56.9628 17.0602 57.2176 17.2541C57.4724 17.448 57.7947 17.5338 58.1134 17.4925C58.4321 17.4513 58.7212 17.2864 58.9171 17.0342C61.6413 13.5249 59.8692 11.3094 58.6975 9.84329C57.5437 8.40027 57.0172 7.74174 58.8404 5.81498C58.9492 5.7 59.0341 5.56493 59.0901 5.41748C59.1462 5.27004 59.1724 5.1131 59.1672 4.95563C59.162 4.79817 59.1256 4.64325 59.0599 4.49974C58.9942 4.35623 58.9006 4.22692 58.7845 4.11921C58.6683 4.0115 58.5318 3.92749 58.3829 3.87198C58.2339 3.81647 58.0754 3.79054 57.9163 3.79568C57.7572 3.80082 57.6007 3.83693 57.4557 3.90194C57.3107 3.96694 57.1801 4.05958 57.0712 4.17456C53.82 7.60997 55.6113 9.85014 56.7965 11.3326C57.9389 12.7603 58.5677 13.5467 56.9954 15.572ZM69.4453 28.5324C69.3484 28.6573 69.2773 28.8 69.2361 28.9521C69.1948 29.1043 69.1843 29.263 69.2051 29.4192C69.2258 29.5754 69.2774 29.726 69.357 29.8625C69.4366 29.9989 69.5425 30.1185 69.6688 30.2144C69.795 30.3104 69.9391 30.3807 70.0929 30.4215C70.2466 30.4623 70.4069 30.4727 70.5647 30.4522C70.7225 30.4316 70.8747 30.3805 71.0125 30.3018C71.1504 30.223 71.2712 30.1182 71.3681 29.9932C74.0885 26.4853 72.3179 24.2698 71.1462 22.8044C69.9915 21.3596 69.4645 20.7002 71.2913 18.7701C71.511 18.5378 71.6286 18.2287 71.6182 17.9107C71.6077 17.5927 71.47 17.2918 71.2354 17.0742C71.0008 16.8566 70.6885 16.7402 70.3672 16.7506C70.0459 16.761 69.7419 16.8973 69.5221 17.1295C66.2674 20.5683 68.0594 22.8098 69.2451 24.2931C70.3863 25.7211 71.0151 26.5076 69.4453 28.5324ZM39.9907 15.5727C39.8938 15.6977 39.8227 15.8403 39.7815 15.9925C39.7403 16.1447 39.7298 16.3034 39.7505 16.4596C39.7713 16.6158 39.8229 16.7664 39.9025 16.9029C39.982 17.0394 40.088 17.159 40.2142 17.2549C40.3405 17.3508 40.4846 17.4212 40.6384 17.462C40.7921 17.5028 40.9525 17.5132 41.1103 17.4927C41.2681 17.4721 41.4203 17.421 41.5582 17.3423C41.696 17.2635 41.8169 17.1587 41.9138 17.0337C44.6344 13.5253 42.8632 11.3103 41.6913 9.84449C40.5373 8.40147 40.0107 7.74277 41.8364 5.81549C42.0563 5.58337 42.174 5.2743 42.1637 4.95626C42.1533 4.63823 42.0158 4.33729 41.7813 4.11964C41.5467 3.90199 41.2345 3.78547 40.9132 3.79571C40.5919 3.80594 40.2878 3.9421 40.068 4.17422C36.8133 7.61031 38.6046 9.851 39.791 11.3336C40.932 12.7615 41.5608 13.5479 39.9907 15.5727ZM31.7858 36.0221C31.6874 36.1469 31.6148 36.2897 31.5724 36.4424C31.53 36.595 31.5185 36.7544 31.5387 36.9115C31.5588 37.0685 31.6101 37.2201 31.6897 37.3574C31.7693 37.4947 31.8756 37.6151 32.0024 37.7116C32.1292 37.8081 32.2741 37.8787 32.4286 37.9195C32.5831 37.9603 32.7443 37.9704 32.9028 37.9493C33.0613 37.9281 33.214 37.8761 33.3521 37.7962C33.4902 37.7164 33.611 37.6103 33.7075 37.484C36.4317 33.9747 34.6596 31.7592 33.4878 30.2931C32.3341 28.8502 31.8075 28.1919 33.6308 26.2651C33.7396 26.1501 33.8245 26.0151 33.8806 25.8676C33.9367 25.7202 33.9629 25.5632 33.9577 25.4058C33.9525 25.2483 33.916 25.0934 33.8504 24.9498C33.7847 24.8063 33.6911 24.677 33.575 24.5693C33.4588 24.4615 33.3223 24.3775 33.1734 24.322C33.0244 24.2665 32.8658 24.2405 32.7067 24.2457C32.5476 24.2508 32.3911 24.2869 32.2461 24.3519C32.1011 24.4169 31.9705 24.5096 31.8617 24.6245C28.6104 28.0599 30.4016 30.3001 31.5869 31.7825C32.7293 33.2101 33.3583 33.9967 31.7858 36.0221Z"/>
</mask>
<path d="M64.9645 72.2952C64.9645 72.6133 64.8369 72.9184 64.6096 73.1434C64.3823 73.3683 64.0741 73.4947 63.7527 73.4947H63.1831C62.8617 73.4947 62.5535 73.3683 62.3262 73.1434C62.0989 72.9184 61.9713 72.6133 61.9713 72.2952C61.9713 71.9771 62.0989 71.672 62.3262 71.447C62.5535 71.2221 62.8617 71.0957 63.1831 71.0957H63.7523C63.9115 71.0957 64.0691 71.1266 64.2162 71.1869C64.3633 71.2472 64.4969 71.3355 64.6095 71.4469C64.722 71.5583 64.8113 71.6905 64.8723 71.8361C64.9332 71.9816 64.9645 72.1377 64.9645 72.2952ZM72.5024 72.2513H71.9327C71.7735 72.2513 71.6159 72.2824 71.4689 72.3427C71.3219 72.4029 71.1883 72.4913 71.0758 72.6027C70.9632 72.7141 70.874 72.8463 70.8131 72.9918C70.7522 73.1374 70.7208 73.2933 70.7208 73.4509C70.7208 73.6084 70.7522 73.7644 70.8131 73.9099C70.874 74.0554 70.9632 74.1877 71.0758 74.299C71.1883 74.4104 71.3219 74.4988 71.4689 74.5591C71.6159 74.6193 71.7735 74.6504 71.9327 74.6504H72.5021C72.8235 74.6504 73.1317 74.524 73.359 74.299C73.5862 74.0741 73.7139 73.769 73.7139 73.4509C73.7139 73.1327 73.5862 72.8276 73.359 72.6027C73.1317 72.3777 72.8235 72.2513 72.5021 72.2513H72.5024ZM62.5401 65.524C62.8615 65.524 63.1698 65.3976 63.3971 65.1726C63.6243 64.9477 63.752 64.6426 63.752 64.3244C63.752 64.0063 63.6243 63.7012 63.3971 63.4763C63.1698 63.2513 62.8615 63.1249 62.5401 63.1249H61.9709C61.6495 63.1249 61.3413 63.2513 61.114 63.4763C60.8868 63.7012 60.7591 64.0063 60.7591 64.3244C60.7591 64.6426 60.8868 64.9477 61.114 65.1726C61.3413 65.3976 61.6495 65.524 61.9709 65.524H62.5401ZM33.8955 71.5373H33.3212C32.9998 71.5373 32.6916 71.6637 32.4643 71.8886C32.2371 72.1136 32.1094 72.4187 32.1094 72.7368C32.1094 73.0549 32.2371 73.36 32.4643 73.585C32.6916 73.8099 32.9998 73.9363 33.3212 73.9363H33.8955C34.2169 73.9363 34.5251 73.8099 34.7524 73.585C34.9797 73.36 35.1073 73.0549 35.1073 72.7368C35.1073 72.4187 34.9797 72.1136 34.7524 71.8886C34.5251 71.6637 34.2169 71.5373 33.8955 71.5373ZM72.0066 68.3995C72.328 68.3995 72.6362 68.2732 72.8635 68.0482C73.0908 67.8233 73.2184 67.5182 73.2184 67.2C73.2184 66.8819 73.0908 66.5768 72.8635 66.3518C72.6362 66.1269 72.328 66.0005 72.0066 66.0005H71.4374C71.116 66.0005 70.8077 66.1269 70.5805 66.3518C70.3532 66.5768 70.2255 66.8819 70.2255 67.2C70.2255 67.5182 70.3532 67.8233 70.5805 68.0482C70.8077 68.2732 71.116 68.3995 71.4374 68.3995H72.0066ZM107.217 49.9236C107.176 50.1819 107.051 50.4198 106.861 50.6012C106.671 50.7826 106.426 50.8975 106.164 50.9285L95.638 52.1717L93.1201 54.6375L95.8632 57.3793C95.9753 57.4912 96.0639 57.6239 96.1242 57.7698C96.1844 57.9156 96.215 58.0718 96.2143 58.2294C96.2135 58.3869 96.1814 58.5428 96.1198 58.6881C96.0582 58.8334 95.9683 58.9653 95.8552 59.0762C95.7421 59.1871 95.608 59.2748 95.4607 59.3344C95.3133 59.394 95.1555 59.4243 94.9964 59.4236C94.8372 59.4229 94.6797 59.3911 94.5329 59.3301C94.3861 59.2691 94.2529 59.1801 94.1409 59.0682L91.3969 56.3264L89.675 58.0128L93.7389 62.0772C93.965 62.3034 94.0911 62.6093 94.0894 62.9275C94.0877 63.2457 93.9584 63.5502 93.7299 63.774C93.5013 63.9979 93.1924 64.1227 92.8709 64.121C92.5494 64.1193 92.2417 63.9913 92.0156 63.7651L87.9518 59.7005L86.2276 61.3892L88.969 64.1324C89.1951 64.3586 89.3211 64.6644 89.3194 64.9826C89.3177 65.3008 89.1883 65.6053 88.9598 65.8291C88.7312 66.0528 88.4222 66.1776 88.1008 66.1759C87.7793 66.1742 87.4717 66.0461 87.2456 65.8199L84.5044 63.077L81.4748 66.0439C81.8529 67.5914 81.8198 69.2095 81.3787 70.7406C81.692 71.0815 81.9871 71.4383 82.2627 71.8097C83.5158 73.4987 84.3362 75.4634 84.6533 77.5352C84.6791 77.7058 84.6674 77.88 84.619 78.0457C84.5706 78.2115 84.4866 78.365 84.3728 78.4957C84.2591 78.6264 84.1181 78.7313 83.9597 78.8032C83.8012 78.8751 83.6289 78.9123 83.4546 78.9122H24.5909C24.4213 78.9123 24.2535 78.8771 24.0984 78.8089C23.9434 78.7407 23.8046 78.641 23.6909 78.5164C23.5772 78.3917 23.4913 78.2448 23.4386 78.0852C23.3859 77.9255 23.3677 77.7567 23.3851 77.5897C23.5868 75.931 23.9858 74.3017 24.5738 72.7358C22.2446 71.2921 20.195 69.0185 18.7304 66.2276C18.6437 66.0626 18.597 65.8799 18.5939 65.6939C18.5909 65.508 18.6315 65.3239 18.7126 65.1562C18.7938 64.9884 18.9132 64.8417 19.0615 64.7275C19.2098 64.6133 19.3829 64.5348 19.5671 64.4982C19.673 64.4771 19.7558 64.4571 19.8278 64.4353C20.1079 64.353 20.3688 64.2168 20.5955 64.0344C20.8222 63.8521 21.0103 63.6272 21.1489 63.3726C21.2875 63.1181 21.374 62.839 21.4033 62.5513C21.4327 62.2636 21.4043 61.973 21.3198 61.6961C21.1954 61.2937 20.9586 60.9343 20.6368 60.6593C20.4996 60.5429 20.3905 60.3977 20.3173 60.2343C20.2441 60.0708 20.2088 59.8932 20.2139 59.7145C20.219 59.5358 20.2644 59.3605 20.3468 59.2013C20.4291 59.0422 20.5464 58.9034 20.69 58.7949C21.2649 58.3577 21.6921 57.7581 21.9151 57.0752C22.1381 56.3924 22.1463 55.6587 21.9387 54.9712C21.7661 54.4005 21.4501 53.8825 21.0201 53.4657C20.5902 53.0488 20.0604 52.7468 19.4804 52.5879C19.2793 52.5324 19.0961 52.4265 18.9485 52.2803C18.801 52.1342 18.694 51.9527 18.6381 51.7537C18.5822 51.5546 18.5792 51.3446 18.6294 51.144C18.6796 50.9434 18.7813 50.7591 18.9246 50.6089C20.1521 49.3213 22.353 47.9676 26.0692 48.2894C25.6559 45.6703 24.3877 44.9568 23.4137 44.6545C23.1068 44.5593 22.8508 44.3474 22.7018 44.0653C22.5528 43.7832 22.5231 43.4541 22.6193 43.1504C22.7155 42.8467 22.9296 42.5932 23.2146 42.4457C23.4996 42.2983 23.832 42.2689 24.1389 42.3641C26.3822 43.0603 27.7917 44.7308 28.3521 47.3361C31.0639 45.4469 33.4509 45.4321 35.0893 45.8331L35.1001 45.836C37.4069 42.0882 40.6789 38.1213 44.8489 34.0189C42.3357 31.4964 41.1377 29.1842 40.7842 26.267C40.7217 25.75 40.7701 25.2257 40.9261 24.7284C41.0821 24.2311 41.3422 23.772 41.6895 23.3808C42.0367 22.9897 42.4634 22.6754 42.9416 22.4584C43.4198 22.2414 43.9389 22.1266 44.4649 22.1215C48.2673 22.0925 55.4458 22.0925 59.2418 22.1215C59.7684 22.1257 60.288 22.2398 60.767 22.4563C61.2459 22.6728 61.6734 22.9869 62.0213 23.378C62.3693 23.7691 62.6301 24.2285 62.7865 24.7261C62.943 25.2238 62.9916 25.7485 62.9293 26.266C62.5758 29.1842 61.3778 31.4962 58.8646 34.0188C61.991 37.0935 64.6283 40.103 66.7382 43.0009L66.7652 42.9135C66.7767 42.8764 66.79 42.8399 66.8052 42.804C67.9651 40.0537 69.5207 39.5669 70.6571 39.2115L70.752 39.1816L72.0064 35.1504C72.1978 34.5404 72.6254 34.0302 73.1957 33.7313C73.7659 33.4323 74.4325 33.3689 75.0499 33.5549L78.8904 34.7263C79.5078 34.9144 80.0247 35.3372 80.3278 35.9018C80.631 36.4665 80.6956 37.1271 80.5075 37.7388L79.2524 41.7681C79.2735 41.7947 79.2948 41.8218 79.3165 41.8488C80.054 42.7757 81.064 44.0453 80.4622 46.96C80.4543 46.9979 80.4447 47.0354 80.4333 47.0724L76.4515 59.8926C77.8281 60.5463 79.0205 61.5259 79.9233 62.7447C80.1321 63.0261 80.3247 63.3189 80.5003 63.6217L82.8 61.3692L80.0566 58.624C79.9446 58.512 79.8561 58.3793 79.7959 58.2334C79.7358 58.0875 79.7053 57.9313 79.7062 57.7738C79.707 57.6162 79.7392 57.4604 79.801 57.3151C79.8627 57.1699 79.9527 57.0381 80.0658 56.9273C80.179 56.8165 80.3131 56.7288 80.4605 56.6693C80.6079 56.6098 80.7656 56.5796 80.9248 56.5805C81.084 56.5813 81.2414 56.6132 81.3882 56.6743C81.5349 56.7354 81.668 56.8245 81.78 56.9365L84.5233 59.6815L86.2472 57.9931L82.1815 53.9278C81.9553 53.7016 81.8292 53.3958 81.8309 53.0776C81.8326 52.7594 81.9619 52.4549 82.1904 52.2311C82.4189 52.0072 82.7278 51.8824 83.0493 51.8841C83.3708 51.8857 83.6784 52.0137 83.9045 52.2399L87.9701 56.3062L89.6913 54.6206L86.947 51.8788C86.835 51.7669 86.7463 51.6342 86.6861 51.4883C86.6259 51.3425 86.5953 51.1863 86.5961 51.0288C86.5968 50.8712 86.6289 50.7154 86.6906 50.5701C86.7522 50.4248 86.8421 50.293 86.9552 50.1821C87.0683 50.0712 87.2023 49.9835 87.3497 49.9239C87.497 49.8643 87.6548 49.834 87.814 49.8348C87.9731 49.8355 88.1306 49.8673 88.2774 49.9283C88.4241 49.9893 88.5573 50.0783 88.6694 50.1903L91.4145 52.9334L93.9328 50.467L95.302 40.0619C95.3359 39.8025 95.4545 39.5612 95.6398 39.3747C95.825 39.1882 96.0668 39.0667 96.3283 39.0288C96.5898 38.991 96.8566 39.0387 97.0881 39.1648C97.3196 39.2909 97.5032 39.4885 97.6107 39.7274L100.374 45.8485L106.526 48.6475C106.766 48.7566 106.963 48.9402 107.088 49.1706C107.213 49.401 107.258 49.6654 107.217 49.9236ZM64.9145 57.035C66.3576 57.6727 67.6716 58.5647 68.7924 59.6674C70.487 58.9731 72.3507 58.7883 74.1507 59.1362L78.0979 46.424C78.4542 44.6439 78.0158 44.0935 77.4114 43.333C77.2401 43.1174 77.0626 42.8946 76.8955 42.6371C76.8 42.4901 76.7381 42.3242 76.7142 42.151C76.6903 41.9779 76.7049 41.8016 76.757 41.6346L78.19 37.0347C78.1888 37.0294 78.1861 37.0246 78.1822 37.0208L74.3389 35.8487C74.3351 35.8455 74.3247 35.8542 74.3216 35.8568L72.8895 40.4617C72.8375 40.6286 72.7494 40.7822 72.6312 40.9119C72.513 41.0416 72.3677 41.1442 72.2053 41.2126C71.9221 41.3317 71.6498 41.4168 71.3868 41.4993C70.4563 41.7906 69.7813 42.0014 69.0639 43.6755L68.317 46.0794C68.3141 46.0893 68.3111 46.0992 68.3079 46.109L64.9145 57.035ZM47.0685 32.8136H56.6447C59.1445 30.4511 60.2091 28.5639 60.5226 25.982C60.5446 25.7992 60.5272 25.6138 60.4717 25.4381C60.4162 25.2624 60.3238 25.1002 60.2005 24.9623C60.0773 24.8244 59.926 24.7139 59.7565 24.638C59.587 24.562 59.4033 24.5224 59.2173 24.5217C55.437 24.4929 48.2772 24.4929 44.4907 24.5217C44.3052 24.5234 44.1221 24.5637 43.9534 24.6401C43.7846 24.7165 43.6341 24.8273 43.5116 24.9652C43.3891 25.1031 43.2973 25.2651 43.2423 25.4404C43.1873 25.6158 43.1702 25.8007 43.1923 25.9831C43.5042 28.5637 44.5688 30.4511 47.0685 32.8136ZM37.3584 46.7852C39.417 48.0284 41.1818 50.2091 42.3914 53.0365C44.2285 51.6292 46.4861 50.8664 48.809 50.8682C50.6403 50.8749 52.4384 51.3519 54.0277 52.2524C55.6169 53.1529 56.9429 54.4462 57.8761 56.0058C59.4595 55.8044 61.0668 55.891 62.6187 56.2613L65.8308 45.9214C63.5507 42.5189 60.4599 38.9208 56.6326 35.2133H54.8629C55.7083 36.4193 56.1923 37.8678 56.3232 39.5869C56.3352 39.744 56.3158 39.9019 56.2661 40.0516C56.2165 40.2013 56.1375 40.3399 56.0337 40.4593C55.9299 40.5788 55.8034 40.6769 55.6613 40.7479C55.5192 40.819 55.3644 40.8616 55.2057 40.8735C55.1747 40.8759 55.1437 40.8771 55.1132 40.8771C54.8077 40.8768 54.5136 40.7623 54.2897 40.5565C54.0659 40.3508 53.9288 40.0689 53.9059 39.7673C53.7615 37.8737 53.1211 36.5247 51.8558 35.4935C50.5863 36.5268 49.9463 37.8754 49.8062 39.7649C49.7946 39.9221 49.7518 40.0754 49.6803 40.2162C49.6088 40.3569 49.51 40.4824 49.3895 40.5853C49.269 40.6883 49.1292 40.7667 48.9781 40.8162C48.827 40.8657 48.6675 40.8852 48.5087 40.8737C48.35 40.8622 48.1951 40.8198 48.0529 40.7491C47.9107 40.6783 47.784 40.5805 47.6799 40.4612C47.5759 40.342 47.4967 40.2036 47.4467 40.054C47.3967 39.9045 47.3769 39.7466 47.3886 39.5895C47.5158 37.8701 47.9988 36.4209 48.8464 35.2133H47.0806C42.9129 39.2516 39.6488 43.1371 37.3584 46.7852ZM25.5294 70.4893C26.0368 69.4386 26.6322 68.4317 27.3093 67.4793C30.1003 63.5861 33.8751 61.4069 38.2838 61.1231C38.3174 58.8567 39.1014 56.6638 40.5153 54.8809C39.3533 51.6687 37.4012 49.2817 35.2337 48.4001C35.211 48.3918 35.1885 48.3829 35.1664 48.3742C34.9517 48.2894 34.7315 48.219 34.5073 48.1634C32.4847 47.668 30.3823 48.4686 28.2592 50.5426C28.1185 50.6797 27.9462 50.7808 27.7571 50.8372C27.5681 50.8936 27.368 50.9035 27.1742 50.8661C25.1163 50.4663 23.4175 50.5883 22.0987 51.2275C23.1319 51.987 23.8898 53.0564 24.2594 54.2766C24.5458 55.2255 24.5887 56.23 24.3843 57.1994C24.18 58.1687 23.7347 59.0724 23.0889 59.8287C23.3256 60.1916 23.5108 60.5851 23.6393 60.998C23.9384 61.9839 23.8956 63.0404 23.5178 63.9994C23.1399 64.9584 22.4488 65.7646 21.5544 66.2898C22.57 67.9479 23.9238 69.3782 25.5294 70.4893ZM80.3093 73.2284C79.9606 72.7583 79.5739 72.317 79.1529 71.909C78.9848 71.7463 78.8682 71.5387 78.8172 71.3115C78.7663 71.0844 78.7832 70.8474 78.8658 70.6296C79.362 69.3223 79.4431 67.8961 79.0983 66.5419C78.7536 65.1877 77.9993 63.97 76.9364 63.0516C75.8735 62.1332 74.5526 61.5579 73.1505 61.4026C71.7483 61.2473 70.3317 61.5195 69.09 62.1826C68.8477 62.3127 68.5678 62.3571 68.2966 62.3085C68.0253 62.2599 67.779 62.1212 67.5981 61.9153C66.3601 60.5134 64.7702 59.4598 62.989 58.861C61.2078 58.2622 59.2985 58.1395 57.454 58.5053C57.1893 58.5577 56.9145 58.5213 56.673 58.4017C56.4316 58.2822 56.2373 58.0863 56.121 57.8452C55.3323 56.2016 54.0021 54.8724 52.3491 54.0762C50.6961 53.28 48.8187 53.0641 47.0253 53.4641C45.2319 53.864 43.6294 54.856 42.481 56.2769C41.3327 57.6979 40.707 59.4632 40.7066 61.2828C40.7062 61.5737 40.7231 61.8644 40.7573 62.1533C40.7776 62.3234 40.7607 62.4959 40.708 62.659C40.6553 62.8221 40.5679 62.9722 40.4517 63.0991C40.3355 63.226 40.1932 63.3268 40.0343 63.3947C39.8755 63.4626 39.7038 63.4961 39.5308 63.4928C30.556 63.3292 26.9263 72.0179 26.0062 76.5112H81.95C81.5997 75.3309 81.0446 74.2201 80.3093 73.2284ZM101.608 49.0497L98.9477 47.8394C98.6808 47.7181 98.4674 47.505 98.3474 47.2396L97.1513 44.5904L96.4846 49.6556L101.608 49.0497ZM40.9916 71.4634H40.4222C40.1008 71.4634 39.7925 71.5898 39.5653 71.8148C39.338 72.0397 39.2103 72.3448 39.2103 72.6629C39.2103 72.9811 39.338 73.2862 39.5653 73.5111C39.7925 73.7361 40.1008 73.8625 40.4222 73.8625H40.9916C41.313 73.8625 41.6212 73.7361 41.8485 73.5111C42.0757 73.2862 42.2034 72.9811 42.2034 72.6629C42.2034 72.3448 42.0757 72.0397 41.8485 71.8148C41.6212 71.5898 41.313 71.4634 40.9916 71.4634ZM53.7999 64.1918H53.2307C52.9093 64.1918 52.6011 64.3182 52.3738 64.5431C52.1465 64.7681 52.0189 65.0732 52.0189 65.3913C52.0189 65.7095 52.1465 66.0146 52.3738 66.2395C52.6011 66.4645 52.9093 66.5908 53.2307 66.5908H53.7999C54.1213 66.5908 54.4296 66.4645 54.6569 66.2395C54.8841 66.0146 55.0118 65.7095 55.0118 65.3913C55.0118 65.0732 54.8841 64.7681 54.6569 64.5431C54.4296 64.3182 54.1213 64.1918 53.7999 64.1918ZM52.9705 70.8709H52.4013C52.0799 70.8709 51.7717 70.9973 51.5444 71.2222C51.3171 71.4472 51.1894 71.7523 51.1894 72.0704C51.1894 72.3885 51.3171 72.6936 51.5444 72.9186C51.7717 73.1435 52.0799 73.2699 52.4013 73.2699H52.9705C53.2919 73.2699 53.6002 73.1435 53.8274 72.9186C54.0547 72.6936 54.1824 72.3885 54.1824 72.0704C54.1824 71.7523 54.0547 71.4472 53.8274 71.2222C53.6002 70.9973 53.2919 70.8709 52.9705 70.8709ZM48.603 58.2462H48.0338C47.7124 58.2462 47.4041 58.3726 47.1769 58.5975C46.9496 58.8225 46.8219 59.1276 46.8219 59.4457C46.8219 59.7638 46.9496 60.0689 47.1769 60.2939C47.4041 60.5188 47.7124 60.6452 48.0338 60.6452H48.603C48.9244 60.6452 49.2327 60.5188 49.4599 60.2939C49.6872 60.0689 49.8149 59.7638 49.8149 59.4457C49.8149 59.1276 49.6872 58.8225 49.4599 58.5975C49.2327 58.3726 48.9244 58.2462 48.603 58.2462ZM44.829 65.9794H44.2596C43.9382 65.9794 43.6299 66.1058 43.4027 66.3308C43.1754 66.5557 43.0477 66.8608 43.0477 67.1789C43.0477 67.4971 43.1754 67.8022 43.4027 68.0271C43.6299 68.2521 43.9382 68.3785 44.2596 68.3785H44.829C45.1504 68.3785 45.4586 68.2521 45.6859 68.0271C45.9131 67.8022 46.0408 67.4971 46.0408 67.1789C46.0408 66.8608 45.9131 66.5557 45.6859 66.3308C45.4586 66.1058 45.1504 65.9794 44.829 65.9794ZM86.8325 40.8262C86.6367 41.0785 86.5501 41.3975 86.5919 41.7131C86.6337 42.0286 86.8004 42.3147 87.0553 42.5086C87.3103 42.7024 87.6326 42.7881 87.9513 42.7467C88.2701 42.7054 88.5592 42.5404 88.755 42.288C91.476 38.7827 89.7062 36.5667 88.535 35.1007C87.381 33.6562 86.8543 32.9968 88.6787 31.069C88.8985 30.8367 89.016 30.5276 89.0055 30.2095C88.995 29.8915 88.8573 29.5906 88.6226 29.3731C88.388 29.1555 88.0756 29.0392 87.7543 29.0496C87.433 29.06 87.129 29.1963 86.9092 29.4286C83.6578 32.8645 85.4486 35.1059 86.6336 36.5892C87.7733 38.0169 88.4024 38.8036 86.8325 40.8262ZM56.9954 15.572C56.7995 15.8242 56.7129 16.1431 56.7545 16.4586C56.7962 16.7741 56.9628 17.0602 57.2176 17.2541C57.4724 17.448 57.7947 17.5338 58.1134 17.4925C58.4321 17.4513 58.7212 17.2864 58.9171 17.0342C61.6413 13.5249 59.8692 11.3094 58.6975 9.84329C57.5437 8.40027 57.0172 7.74174 58.8404 5.81498C58.9492 5.7 59.0341 5.56493 59.0901 5.41748C59.1462 5.27004 59.1724 5.1131 59.1672 4.95563C59.162 4.79817 59.1256 4.64325 59.0599 4.49974C58.9942 4.35623 58.9006 4.22692 58.7845 4.11921C58.6683 4.0115 58.5318 3.92749 58.3829 3.87198C58.2339 3.81647 58.0754 3.79054 57.9163 3.79568C57.7572 3.80082 57.6007 3.83693 57.4557 3.90194C57.3107 3.96694 57.1801 4.05958 57.0712 4.17456C53.82 7.60997 55.6113 9.85014 56.7965 11.3326C57.9389 12.7603 58.5677 13.5467 56.9954 15.572ZM69.4453 28.5324C69.3484 28.6573 69.2773 28.8 69.2361 28.9521C69.1948 29.1043 69.1843 29.263 69.2051 29.4192C69.2258 29.5754 69.2774 29.726 69.357 29.8625C69.4366 29.9989 69.5425 30.1185 69.6688 30.2144C69.795 30.3104 69.9391 30.3807 70.0929 30.4215C70.2466 30.4623 70.4069 30.4727 70.5647 30.4522C70.7225 30.4316 70.8747 30.3805 71.0125 30.3018C71.1504 30.223 71.2712 30.1182 71.3681 29.9932C74.0885 26.4853 72.3179 24.2698 71.1462 22.8044C69.9915 21.3596 69.4645 20.7002 71.2913 18.7701C71.511 18.5378 71.6286 18.2287 71.6182 17.9107C71.6077 17.5927 71.47 17.2918 71.2354 17.0742C71.0008 16.8566 70.6885 16.7402 70.3672 16.7506C70.0459 16.761 69.7419 16.8973 69.5221 17.1295C66.2674 20.5683 68.0594 22.8098 69.2451 24.2931C70.3863 25.7211 71.0151 26.5076 69.4453 28.5324ZM39.9907 15.5727C39.8938 15.6977 39.8227 15.8403 39.7815 15.9925C39.7403 16.1447 39.7298 16.3034 39.7505 16.4596C39.7713 16.6158 39.8229 16.7664 39.9025 16.9029C39.982 17.0394 40.088 17.159 40.2142 17.2549C40.3405 17.3508 40.4846 17.4212 40.6384 17.462C40.7921 17.5028 40.9525 17.5132 41.1103 17.4927C41.2681 17.4721 41.4203 17.421 41.5582 17.3423C41.696 17.2635 41.8169 17.1587 41.9138 17.0337C44.6344 13.5253 42.8632 11.3103 41.6913 9.84449C40.5373 8.40147 40.0107 7.74277 41.8364 5.81549C42.0563 5.58337 42.174 5.2743 42.1637 4.95626C42.1533 4.63823 42.0158 4.33729 41.7813 4.11964C41.5467 3.90199 41.2345 3.78547 40.9132 3.79571C40.5919 3.80594 40.2878 3.9421 40.068 4.17422C36.8133 7.61031 38.6046 9.851 39.791 11.3336C40.932 12.7615 41.5608 13.5479 39.9907 15.5727ZM31.7858 36.0221C31.6874 36.1469 31.6148 36.2897 31.5724 36.4424C31.53 36.595 31.5185 36.7544 31.5387 36.9115C31.5588 37.0685 31.6101 37.2201 31.6897 37.3574C31.7693 37.4947 31.8756 37.6151 32.0024 37.7116C32.1292 37.8081 32.2741 37.8787 32.4286 37.9195C32.5831 37.9603 32.7443 37.9704 32.9028 37.9493C33.0613 37.9281 33.214 37.8761 33.3521 37.7962C33.4902 37.7164 33.611 37.6103 33.7075 37.484C36.4317 33.9747 34.6596 31.7592 33.4878 30.2931C32.3341 28.8502 31.8075 28.1919 33.6308 26.2651C33.7396 26.1501 33.8245 26.0151 33.8806 25.8676C33.9367 25.7202 33.9629 25.5632 33.9577 25.4058C33.9525 25.2483 33.916 25.0934 33.8504 24.9498C33.7847 24.8063 33.6911 24.677 33.575 24.5693C33.4588 24.4615 33.3223 24.3775 33.1734 24.322C33.0244 24.2665 32.8658 24.2405 32.7067 24.2457C32.5476 24.2508 32.3911 24.2869 32.2461 24.3519C32.1011 24.4169 31.9705 24.5096 31.8617 24.6245C28.6104 28.0599 30.4016 30.3001 31.5869 31.7825C32.7293 33.2101 33.3583 33.9967 31.7858 36.0221Z" fill="var(--fill-0, #2B2B2B)"/>
<path d="M64.9645 72.2952C64.9645 72.6133 64.8369 72.9184 64.6096 73.1434C64.3823 73.3683 64.0741 73.4947 63.7527 73.4947H63.1831C62.8617 73.4947 62.5535 73.3683 62.3262 73.1434C62.0989 72.9184 61.9713 72.6133 61.9713 72.2952C61.9713 71.9771 62.0989 71.672 62.3262 71.447C62.5535 71.2221 62.8617 71.0957 63.1831 71.0957H63.7523C63.9115 71.0957 64.0691 71.1266 64.2162 71.1869C64.3633 71.2472 64.4969 71.3355 64.6095 71.4469C64.722 71.5583 64.8113 71.6905 64.8723 71.8361C64.9332 71.9816 64.9645 72.1377 64.9645 72.2952ZM72.5024 72.2513H71.9327C71.7735 72.2513 71.6159 72.2824 71.4689 72.3427C71.3219 72.4029 71.1883 72.4913 71.0758 72.6027C70.9632 72.7141 70.874 72.8463 70.8131 72.9918C70.7522 73.1374 70.7208 73.2933 70.7208 73.4509C70.7208 73.6084 70.7522 73.7644 70.8131 73.9099C70.874 74.0554 70.9632 74.1877 71.0758 74.299C71.1883 74.4104 71.3219 74.4988 71.4689 74.5591C71.6159 74.6193 71.7735 74.6504 71.9327 74.6504H72.5021C72.8235 74.6504 73.1317 74.524 73.359 74.299C73.5862 74.0741 73.7139 73.769 73.7139 73.4509C73.7139 73.1327 73.5862 72.8276 73.359 72.6027C73.1317 72.3777 72.8235 72.2513 72.5021 72.2513H72.5024ZM62.5401 65.524C62.8615 65.524 63.1698 65.3976 63.3971 65.1726C63.6243 64.9477 63.752 64.6426 63.752 64.3244C63.752 64.0063 63.6243 63.7012 63.3971 63.4763C63.1698 63.2513 62.8615 63.1249 62.5401 63.1249H61.9709C61.6495 63.1249 61.3413 63.2513 61.114 63.4763C60.8868 63.7012 60.7591 64.0063 60.7591 64.3244C60.7591 64.6426 60.8868 64.9477 61.114 65.1726C61.3413 65.3976 61.6495 65.524 61.9709 65.524H62.5401ZM33.8955 71.5373H33.3212C32.9998 71.5373 32.6916 71.6637 32.4643 71.8886C32.2371 72.1136 32.1094 72.4187 32.1094 72.7368C32.1094 73.0549 32.2371 73.36 32.4643 73.585C32.6916 73.8099 32.9998 73.9363 33.3212 73.9363H33.8955C34.2169 73.9363 34.5251 73.8099 34.7524 73.585C34.9797 73.36 35.1073 73.0549 35.1073 72.7368C35.1073 72.4187 34.9797 72.1136 34.7524 71.8886C34.5251 71.6637 34.2169 71.5373 33.8955 71.5373ZM72.0066 68.3995C72.328 68.3995 72.6362 68.2732 72.8635 68.0482C73.0908 67.8233 73.2184 67.5182 73.2184 67.2C73.2184 66.8819 73.0908 66.5768 72.8635 66.3518C72.6362 66.1269 72.328 66.0005 72.0066 66.0005H71.4374C71.116 66.0005 70.8077 66.1269 70.5805 66.3518C70.3532 66.5768 70.2255 66.8819 70.2255 67.2C70.2255 67.5182 70.3532 67.8233 70.5805 68.0482C70.8077 68.2732 71.116 68.3995 71.4374 68.3995H72.0066ZM107.217 49.9236C107.176 50.1819 107.051 50.4198 106.861 50.6012C106.671 50.7826 106.426 50.8975 106.164 50.9285L95.638 52.1717L93.1201 54.6375L95.8632 57.3793C95.9753 57.4912 96.0639 57.6239 96.1242 57.7698C96.1844 57.9156 96.215 58.0718 96.2143 58.2294C96.2135 58.3869 96.1814 58.5428 96.1198 58.6881C96.0582 58.8334 95.9683 58.9653 95.8552 59.0762C95.7421 59.1871 95.608 59.2748 95.4607 59.3344C95.3133 59.394 95.1555 59.4243 94.9964 59.4236C94.8372 59.4229 94.6797 59.3911 94.5329 59.3301C94.3861 59.2691 94.2529 59.1801 94.1409 59.0682L91.3969 56.3264L89.675 58.0128L93.7389 62.0772C93.965 62.3034 94.0911 62.6093 94.0894 62.9275C94.0877 63.2457 93.9584 63.5502 93.7299 63.774C93.5013 63.9979 93.1924 64.1227 92.8709 64.121C92.5494 64.1193 92.2417 63.9913 92.0156 63.7651L87.9518 59.7005L86.2276 61.3892L88.969 64.1324C89.1951 64.3586 89.3211 64.6644 89.3194 64.9826C89.3177 65.3008 89.1883 65.6053 88.9598 65.8291C88.7312 66.0528 88.4222 66.1776 88.1008 66.1759C87.7793 66.1742 87.4717 66.0461 87.2456 65.8199L84.5044 63.077L81.4748 66.0439C81.8529 67.5914 81.8198 69.2095 81.3787 70.7406C81.692 71.0815 81.9871 71.4383 82.2627 71.8097C83.5158 73.4987 84.3362 75.4634 84.6533 77.5352C84.6791 77.7058 84.6674 77.88 84.619 78.0457C84.5706 78.2115 84.4866 78.365 84.3728 78.4957C84.2591 78.6264 84.1181 78.7313 83.9597 78.8032C83.8012 78.8751 83.6289 78.9123 83.4546 78.9122H24.5909C24.4213 78.9123 24.2535 78.8771 24.0984 78.8089C23.9434 78.7407 23.8046 78.641 23.6909 78.5164C23.5772 78.3917 23.4913 78.2448 23.4386 78.0852C23.3859 77.9255 23.3677 77.7567 23.3851 77.5897C23.5868 75.931 23.9858 74.3017 24.5738 72.7358C22.2446 71.2921 20.195 69.0185 18.7304 66.2276C18.6437 66.0626 18.597 65.8799 18.5939 65.6939C18.5909 65.508 18.6315 65.3239 18.7126 65.1562C18.7938 64.9884 18.9132 64.8417 19.0615 64.7275C19.2098 64.6133 19.3829 64.5348 19.5671 64.4982C19.673 64.4771 19.7558 64.4571 19.8278 64.4353C20.1079 64.353 20.3688 64.2168 20.5955 64.0344C20.8222 63.8521 21.0103 63.6272 21.1489 63.3726C21.2875 63.1181 21.374 62.839 21.4033 62.5513C21.4327 62.2636 21.4043 61.973 21.3198 61.6961C21.1954 61.2937 20.9586 60.9343 20.6368 60.6593C20.4996 60.5429 20.3905 60.3977 20.3173 60.2343C20.2441 60.0708 20.2088 59.8932 20.2139 59.7145C20.219 59.5358 20.2644 59.3605 20.3468 59.2013C20.4291 59.0422 20.5464 58.9034 20.69 58.7949C21.2649 58.3577 21.6921 57.7581 21.9151 57.0752C22.1381 56.3924 22.1463 55.6587 21.9387 54.9712C21.7661 54.4005 21.4501 53.8825 21.0201 53.4657C20.5902 53.0488 20.0604 52.7468 19.4804 52.5879C19.2793 52.5324 19.0961 52.4265 18.9485 52.2803C18.801 52.1342 18.694 51.9527 18.6381 51.7537C18.5822 51.5546 18.5792 51.3446 18.6294 51.144C18.6796 50.9434 18.7813 50.7591 18.9246 50.6089C20.1521 49.3213 22.353 47.9676 26.0692 48.2894C25.6559 45.6703 24.3877 44.9568 23.4137 44.6545C23.1068 44.5593 22.8508 44.3474 22.7018 44.0653C22.5528 43.7832 22.5231 43.4541 22.6193 43.1504C22.7155 42.8467 22.9296 42.5932 23.2146 42.4457C23.4996 42.2983 23.832 42.2689 24.1389 42.3641C26.3822 43.0603 27.7917 44.7308 28.3521 47.3361C31.0639 45.4469 33.4509 45.4321 35.0893 45.8331L35.1001 45.836C37.4069 42.0882 40.6789 38.1213 44.8489 34.0189C42.3357 31.4964 41.1377 29.1842 40.7842 26.267C40.7217 25.75 40.7701 25.2257 40.9261 24.7284C41.0821 24.2311 41.3422 23.772 41.6895 23.3808C42.0367 22.9897 42.4634 22.6754 42.9416 22.4584C43.4198 22.2414 43.9389 22.1266 44.4649 22.1215C48.2673 22.0925 55.4458 22.0925 59.2418 22.1215C59.7684 22.1257 60.288 22.2398 60.767 22.4563C61.2459 22.6728 61.6734 22.9869 62.0213 23.378C62.3693 23.7691 62.6301 24.2285 62.7865 24.7261C62.943 25.2238 62.9916 25.7485 62.9293 26.266C62.5758 29.1842 61.3778 31.4962 58.8646 34.0188C61.991 37.0935 64.6283 40.103 66.7382 43.0009L66.7652 42.9135C66.7767 42.8764 66.79 42.8399 66.8052 42.804C67.9651 40.0537 69.5207 39.5669 70.6571 39.2115L70.752 39.1816L72.0064 35.1504C72.1978 34.5404 72.6254 34.0302 73.1957 33.7313C73.7659 33.4323 74.4325 33.3689 75.0499 33.5549L78.8904 34.7263C79.5078 34.9144 80.0247 35.3372 80.3278 35.9018C80.631 36.4665 80.6956 37.1271 80.5075 37.7388L79.2524 41.7681C79.2735 41.7947 79.2948 41.8218 79.3165 41.8488C80.054 42.7757 81.064 44.0453 80.4622 46.96C80.4543 46.9979 80.4447 47.0354 80.4333 47.0724L76.4515 59.8926C77.8281 60.5463 79.0205 61.5259 79.9233 62.7447C80.1321 63.0261 80.3247 63.3189 80.5003 63.6217L82.8 61.3692L80.0566 58.624C79.9446 58.512 79.8561 58.3793 79.7959 58.2334C79.7358 58.0875 79.7053 57.9313 79.7062 57.7738C79.707 57.6162 79.7392 57.4604 79.801 57.3151C79.8627 57.1699 79.9527 57.0381 80.0658 56.9273C80.179 56.8165 80.3131 56.7288 80.4605 56.6693C80.6079 56.6098 80.7656 56.5796 80.9248 56.5805C81.084 56.5813 81.2414 56.6132 81.3882 56.6743C81.5349 56.7354 81.668 56.8245 81.78 56.9365L84.5233 59.6815L86.2472 57.9931L82.1815 53.9278C81.9553 53.7016 81.8292 53.3958 81.8309 53.0776C81.8326 52.7594 81.9619 52.4549 82.1904 52.2311C82.4189 52.0072 82.7278 51.8824 83.0493 51.8841C83.3708 51.8857 83.6784 52.0137 83.9045 52.2399L87.9701 56.3062L89.6913 54.6206L86.947 51.8788C86.835 51.7669 86.7463 51.6342 86.6861 51.4883C86.6259 51.3425 86.5953 51.1863 86.5961 51.0288C86.5968 50.8712 86.6289 50.7154 86.6906 50.5701C86.7522 50.4248 86.8421 50.293 86.9552 50.1821C87.0683 50.0712 87.2023 49.9835 87.3497 49.9239C87.497 49.8643 87.6548 49.834 87.814 49.8348C87.9731 49.8355 88.1306 49.8673 88.2774 49.9283C88.4241 49.9893 88.5573 50.0783 88.6694 50.1903L91.4145 52.9334L93.9328 50.467L95.302 40.0619C95.3359 39.8025 95.4545 39.5612 95.6398 39.3747C95.825 39.1882 96.0668 39.0667 96.3283 39.0288C96.5898 38.991 96.8566 39.0387 97.0881 39.1648C97.3196 39.2909 97.5032 39.4885 97.6107 39.7274L100.374 45.8485L106.526 48.6475C106.766 48.7566 106.963 48.9402 107.088 49.1706C107.213 49.401 107.258 49.6654 107.217 49.9236ZM64.9145 57.035C66.3576 57.6727 67.6716 58.5647 68.7924 59.6674C70.487 58.9731 72.3507 58.7883 74.1507 59.1362L78.0979 46.424C78.4542 44.6439 78.0158 44.0935 77.4114 43.333C77.2401 43.1174 77.0626 42.8946 76.8955 42.6371C76.8 42.4901 76.7381 42.3242 76.7142 42.151C76.6903 41.9779 76.7049 41.8016 76.757 41.6346L78.19 37.0347C78.1888 37.0294 78.1861 37.0246 78.1822 37.0208L74.3389 35.8487C74.3351 35.8455 74.3247 35.8542 74.3216 35.8568L72.8895 40.4617C72.8375 40.6286 72.7494 40.7822 72.6312 40.9119C72.513 41.0416 72.3677 41.1442 72.2053 41.2126C71.9221 41.3317 71.6498 41.4168 71.3868 41.4993C70.4563 41.7906 69.7813 42.0014 69.0639 43.6755L68.317 46.0794C68.3141 46.0893 68.3111 46.0992 68.3079 46.109L64.9145 57.035ZM47.0685 32.8136H56.6447C59.1445 30.4511 60.2091 28.5639 60.5226 25.982C60.5446 25.7992 60.5272 25.6138 60.4717 25.4381C60.4162 25.2624 60.3238 25.1002 60.2005 24.9623C60.0773 24.8244 59.926 24.7139 59.7565 24.638C59.587 24.562 59.4033 24.5224 59.2173 24.5217C55.437 24.4929 48.2772 24.4929 44.4907 24.5217C44.3052 24.5234 44.1221 24.5637 43.9534 24.6401C43.7846 24.7165 43.6341 24.8273 43.5116 24.9652C43.3891 25.1031 43.2973 25.2651 43.2423 25.4404C43.1873 25.6158 43.1702 25.8007 43.1923 25.9831C43.5042 28.5637 44.5688 30.4511 47.0685 32.8136ZM37.3584 46.7852C39.417 48.0284 41.1818 50.2091 42.3914 53.0365C44.2285 51.6292 46.4861 50.8664 48.809 50.8682C50.6403 50.8749 52.4384 51.3519 54.0277 52.2524C55.6169 53.1529 56.9429 54.4462 57.8761 56.0058C59.4595 55.8044 61.0668 55.891 62.6187 56.2613L65.8308 45.9214C63.5507 42.5189 60.4599 38.9208 56.6326 35.2133H54.8629C55.7083 36.4193 56.1923 37.8678 56.3232 39.5869C56.3352 39.744 56.3158 39.9019 56.2661 40.0516C56.2165 40.2013 56.1375 40.3399 56.0337 40.4593C55.9299 40.5788 55.8034 40.6769 55.6613 40.7479C55.5192 40.819 55.3644 40.8616 55.2057 40.8735C55.1747 40.8759 55.1437 40.8771 55.1132 40.8771C54.8077 40.8768 54.5136 40.7623 54.2897 40.5565C54.0659 40.3508 53.9288 40.0689 53.9059 39.7673C53.7615 37.8737 53.1211 36.5247 51.8558 35.4935C50.5863 36.5268 49.9463 37.8754 49.8062 39.7649C49.7946 39.9221 49.7518 40.0754 49.6803 40.2162C49.6088 40.3569 49.51 40.4824 49.3895 40.5853C49.269 40.6883 49.1292 40.7667 48.9781 40.8162C48.827 40.8657 48.6675 40.8852 48.5087 40.8737C48.35 40.8622 48.1951 40.8198 48.0529 40.7491C47.9107 40.6783 47.784 40.5805 47.6799 40.4612C47.5759 40.342 47.4967 40.2036 47.4467 40.054C47.3967 39.9045 47.3769 39.7466 47.3886 39.5895C47.5158 37.8701 47.9988 36.4209 48.8464 35.2133H47.0806C42.9129 39.2516 39.6488 43.1371 37.3584 46.7852ZM25.5294 70.4893C26.0368 69.4386 26.6322 68.4317 27.3093 67.4793C30.1003 63.5861 33.8751 61.4069 38.2838 61.1231C38.3174 58.8567 39.1014 56.6638 40.5153 54.8809C39.3533 51.6687 37.4012 49.2817 35.2337 48.4001C35.211 48.3918 35.1885 48.3829 35.1664 48.3742C34.9517 48.2894 34.7315 48.219 34.5073 48.1634C32.4847 47.668 30.3823 48.4686 28.2592 50.5426C28.1185 50.6797 27.9462 50.7808 27.7571 50.8372C27.5681 50.8936 27.368 50.9035 27.1742 50.8661C25.1163 50.4663 23.4175 50.5883 22.0987 51.2275C23.1319 51.987 23.8898 53.0564 24.2594 54.2766C24.5458 55.2255 24.5887 56.23 24.3843 57.1994C24.18 58.1687 23.7347 59.0724 23.0889 59.8287C23.3256 60.1916 23.5108 60.5851 23.6393 60.998C23.9384 61.9839 23.8956 63.0404 23.5178 63.9994C23.1399 64.9584 22.4488 65.7646 21.5544 66.2898C22.57 67.9479 23.9238 69.3782 25.5294 70.4893ZM80.3093 73.2284C79.9606 72.7583 79.5739 72.317 79.1529 71.909C78.9848 71.7463 78.8682 71.5387 78.8172 71.3115C78.7663 71.0844 78.7832 70.8474 78.8658 70.6296C79.362 69.3223 79.4431 67.8961 79.0983 66.5419C78.7536 65.1877 77.9993 63.97 76.9364 63.0516C75.8735 62.1332 74.5526 61.5579 73.1505 61.4026C71.7483 61.2473 70.3317 61.5195 69.09 62.1826C68.8477 62.3127 68.5678 62.3571 68.2966 62.3085C68.0253 62.2599 67.779 62.1212 67.5981 61.9153C66.3601 60.5134 64.7702 59.4598 62.989 58.861C61.2078 58.2622 59.2985 58.1395 57.454 58.5053C57.1893 58.5577 56.9145 58.5213 56.673 58.4017C56.4316 58.2822 56.2373 58.0863 56.121 57.8452C55.3323 56.2016 54.0021 54.8724 52.3491 54.0762C50.6961 53.28 48.8187 53.0641 47.0253 53.4641C45.2319 53.864 43.6294 54.856 42.481 56.2769C41.3327 57.6979 40.707 59.4632 40.7066 61.2828C40.7062 61.5737 40.7231 61.8644 40.7573 62.1533C40.7776 62.3234 40.7607 62.4959 40.708 62.659C40.6553 62.8221 40.5679 62.9722 40.4517 63.0991C40.3355 63.226 40.1932 63.3268 40.0343 63.3947C39.8755 63.4626 39.7038 63.4961 39.5308 63.4928C30.556 63.3292 26.9263 72.0179 26.0062 76.5112H81.95C81.5997 75.3309 81.0446 74.2201 80.3093 73.2284ZM101.608 49.0497L98.9477 47.8394C98.6808 47.7181 98.4674 47.505 98.3474 47.2396L97.1513 44.5904L96.4846 49.6556L101.608 49.0497ZM40.9916 71.4634H40.4222C40.1008 71.4634 39.7925 71.5898 39.5653 71.8148C39.338 72.0397 39.2103 72.3448 39.2103 72.6629C39.2103 72.9811 39.338 73.2862 39.5653 73.5111C39.7925 73.7361 40.1008 73.8625 40.4222 73.8625H40.9916C41.313 73.8625 41.6212 73.7361 41.8485 73.5111C42.0757 73.2862 42.2034 72.9811 42.2034 72.6629C42.2034 72.3448 42.0757 72.0397 41.8485 71.8148C41.6212 71.5898 41.313 71.4634 40.9916 71.4634ZM53.7999 64.1918H53.2307C52.9093 64.1918 52.6011 64.3182 52.3738 64.5431C52.1465 64.7681 52.0189 65.0732 52.0189 65.3913C52.0189 65.7095 52.1465 66.0146 52.3738 66.2395C52.6011 66.4645 52.9093 66.5908 53.2307 66.5908H53.7999C54.1213 66.5908 54.4296 66.4645 54.6569 66.2395C54.8841 66.0146 55.0118 65.7095 55.0118 65.3913C55.0118 65.0732 54.8841 64.7681 54.6569 64.5431C54.4296 64.3182 54.1213 64.1918 53.7999 64.1918ZM52.9705 70.8709H52.4013C52.0799 70.8709 51.7717 70.9973 51.5444 71.2222C51.3171 71.4472 51.1894 71.7523 51.1894 72.0704C51.1894 72.3885 51.3171 72.6936 51.5444 72.9186C51.7717 73.1435 52.0799 73.2699 52.4013 73.2699H52.9705C53.2919 73.2699 53.6002 73.1435 53.8274 72.9186C54.0547 72.6936 54.1824 72.3885 54.1824 72.0704C54.1824 71.7523 54.0547 71.4472 53.8274 71.2222C53.6002 70.9973 53.2919 70.8709 52.9705 70.8709ZM48.603 58.2462H48.0338C47.7124 58.2462 47.4041 58.3726 47.1769 58.5975C46.9496 58.8225 46.8219 59.1276 46.8219 59.4457C46.8219 59.7638 46.9496 60.0689 47.1769 60.2939C47.4041 60.5188 47.7124 60.6452 48.0338 60.6452H48.603C48.9244 60.6452 49.2327 60.5188 49.4599 60.2939C49.6872 60.0689 49.8149 59.7638 49.8149 59.4457C49.8149 59.1276 49.6872 58.8225 49.4599 58.5975C49.2327 58.3726 48.9244 58.2462 48.603 58.2462ZM44.829 65.9794H44.2596C43.9382 65.9794 43.6299 66.1058 43.4027 66.3308C43.1754 66.5557 43.0477 66.8608 43.0477 67.1789C43.0477 67.4971 43.1754 67.8022 43.4027 68.0271C43.6299 68.2521 43.9382 68.3785 44.2596 68.3785H44.829C45.1504 68.3785 45.4586 68.2521 45.6859 68.0271C45.9131 67.8022 46.0408 67.4971 46.0408 67.1789C46.0408 66.8608 45.9131 66.5557 45.6859 66.3308C45.4586 66.1058 45.1504 65.9794 44.829 65.9794ZM86.8325 40.8262C86.6367 41.0785 86.5501 41.3975 86.5919 41.7131C86.6337 42.0286 86.8004 42.3147 87.0553 42.5086C87.3103 42.7024 87.6326 42.7881 87.9513 42.7467C88.2701 42.7054 88.5592 42.5404 88.755 42.288C91.476 38.7827 89.7062 36.5667 88.535 35.1007C87.381 33.6562 86.8543 32.9968 88.6787 31.069C88.8985 30.8367 89.016 30.5276 89.0055 30.2095C88.995 29.8915 88.8573 29.5906 88.6226 29.3731C88.388 29.1555 88.0756 29.0392 87.7543 29.0496C87.433 29.06 87.129 29.1963 86.9092 29.4286C83.6578 32.8645 85.4486 35.1059 86.6336 36.5892C87.7733 38.0169 88.4024 38.8036 86.8325 40.8262ZM56.9954 15.572C56.7995 15.8242 56.7129 16.1431 56.7545 16.4586C56.7962 16.7741 56.9628 17.0602 57.2176 17.2541C57.4724 17.448 57.7947 17.5338 58.1134 17.4925C58.4321 17.4513 58.7212 17.2864 58.9171 17.0342C61.6413 13.5249 59.8692 11.3094 58.6975 9.84329C57.5437 8.40027 57.0172 7.74174 58.8404 5.81498C58.9492 5.7 59.0341 5.56493 59.0901 5.41748C59.1462 5.27004 59.1724 5.1131 59.1672 4.95563C59.162 4.79817 59.1256 4.64325 59.0599 4.49974C58.9942 4.35623 58.9006 4.22692 58.7845 4.11921C58.6683 4.0115 58.5318 3.92749 58.3829 3.87198C58.2339 3.81647 58.0754 3.79054 57.9163 3.79568C57.7572 3.80082 57.6007 3.83693 57.4557 3.90194C57.3107 3.96694 57.1801 4.05958 57.0712 4.17456C53.82 7.60997 55.6113 9.85014 56.7965 11.3326C57.9389 12.7603 58.5677 13.5467 56.9954 15.572ZM69.4453 28.5324C69.3484 28.6573 69.2773 28.8 69.2361 28.9521C69.1948 29.1043 69.1843 29.263 69.2051 29.4192C69.2258 29.5754 69.2774 29.726 69.357 29.8625C69.4366 29.9989 69.5425 30.1185 69.6688 30.2144C69.795 30.3104 69.9391 30.3807 70.0929 30.4215C70.2466 30.4623 70.4069 30.4727 70.5647 30.4522C70.7225 30.4316 70.8747 30.3805 71.0125 30.3018C71.1504 30.223 71.2712 30.1182 71.3681 29.9932C74.0885 26.4853 72.3179 24.2698 71.1462 22.8044C69.9915 21.3596 69.4645 20.7002 71.2913 18.7701C71.511 18.5378 71.6286 18.2287 71.6182 17.9107C71.6077 17.5927 71.47 17.2918 71.2354 17.0742C71.0008 16.8566 70.6885 16.7402 70.3672 16.7506C70.0459 16.761 69.7419 16.8973 69.5221 17.1295C66.2674 20.5683 68.0594 22.8098 69.2451 24.2931C70.3863 25.7211 71.0151 26.5076 69.4453 28.5324ZM39.9907 15.5727C39.8938 15.6977 39.8227 15.8403 39.7815 15.9925C39.7403 16.1447 39.7298 16.3034 39.7505 16.4596C39.7713 16.6158 39.8229 16.7664 39.9025 16.9029C39.982 17.0394 40.088 17.159 40.2142 17.2549C40.3405 17.3508 40.4846 17.4212 40.6384 17.462C40.7921 17.5028 40.9525 17.5132 41.1103 17.4927C41.2681 17.4721 41.4203 17.421 41.5582 17.3423C41.696 17.2635 41.8169 17.1587 41.9138 17.0337C44.6344 13.5253 42.8632 11.3103 41.6913 9.84449C40.5373 8.40147 40.0107 7.74277 41.8364 5.81549C42.0563 5.58337 42.174 5.2743 42.1637 4.95626C42.1533 4.63823 42.0158 4.33729 41.7813 4.11964C41.5467 3.90199 41.2345 3.78547 40.9132 3.79571C40.5919 3.80594 40.2878 3.9421 40.068 4.17422C36.8133 7.61031 38.6046 9.851 39.791 11.3336C40.932 12.7615 41.5608 13.5479 39.9907 15.5727ZM31.7858 36.0221C31.6874 36.1469 31.6148 36.2897 31.5724 36.4424C31.53 36.595 31.5185 36.7544 31.5387 36.9115C31.5588 37.0685 31.6101 37.2201 31.6897 37.3574C31.7693 37.4947 31.8756 37.6151 32.0024 37.7116C32.1292 37.8081 32.2741 37.8787 32.4286 37.9195C32.5831 37.9603 32.7443 37.9704 32.9028 37.9493C33.0613 37.9281 33.214 37.8761 33.3521 37.7962C33.4902 37.7164 33.611 37.6103 33.7075 37.484C36.4317 33.9747 34.6596 31.7592 33.4878 30.2931C32.3341 28.8502 31.8075 28.1919 33.6308 26.2651C33.7396 26.1501 33.8245 26.0151 33.8806 25.8676C33.9367 25.7202 33.9629 25.5632 33.9577 25.4058C33.9525 25.2483 33.916 25.0934 33.8504 24.9498C33.7847 24.8063 33.6911 24.677 33.575 24.5693C33.4588 24.4615 33.3223 24.3775 33.1734 24.322C33.0244 24.2665 32.8658 24.2405 32.7067 24.2457C32.5476 24.2508 32.3911 24.2869 32.2461 24.3519C32.1011 24.4169 31.9705 24.5096 31.8617 24.6245C28.6104 28.0599 30.4016 30.3001 31.5869 31.7825C32.7293 33.2101 33.3583 33.9967 31.7858 36.0221Z" stroke="var(--stroke-0, white)" mask="url(#path-1-outside-1_0_17)"/>
</g>
<path id="Line 40" d="M2.50002 84.4191L93.9577 2.50002" stroke="var(--stroke-0, #FB7E00)" stroke-width="5" stroke-linecap="round"/>
</g>
</svg>
