<svg preserveAspectRatio="none" width="100%" height="100%" overflow="visible" style="display: block;" viewBox="0 0 49 43" fill="none" xmlns="http://www.w3.org/2000/svg">
<path id="Vector" d="M26.8516 0.25C27.3226 0.250076 27.6738 0.655641 27.6738 1.11621V2.98926L31.8916 0.371094C32.1495 0.210824 32.4707 0.209848 32.7285 0.370117L48.3457 10.0703L48.4365 10.1357C48.6361 10.3009 48.75 10.5534 48.75 10.8164C48.75 11.117 48.6008 11.4029 48.3457 11.5615L41.7383 15.666L48.3457 19.7715L48.4365 19.8369C48.6357 20.002 48.7499 20.2537 48.75 20.5166C48.75 20.8173 48.601 21.1042 48.3457 21.2627L40.9424 25.8594V32.1836C40.9424 32.4842 40.7935 32.7712 40.5381 32.9297L24.918 42.6299C24.7899 42.7095 24.6454 42.75 24.5 42.75C24.3909 42.75 24.2821 42.7276 24.1807 42.6826L24.082 42.6299L16.2715 37.7793L8.46387 32.9297C8.20872 32.7711 8.06055 32.4842 8.06055 32.1836V25.8623L0.654297 21.2627C0.399072 21.1041 0.25 20.8172 0.25 20.5166C0.250073 20.2161 0.39917 19.93 0.654297 19.7715L7.2627 15.666L0.654297 11.5615C0.399242 11.4029 0.250026 11.117 0.25 10.8164L0.256836 10.7041C0.288879 10.4458 0.43107 10.2089 0.654297 10.0703L16.2715 0.370117H16.2725C16.5302 0.210308 16.8507 0.210026 17.1084 0.370117L21.3262 2.98926V1.11621C21.3262 0.655673 21.6775 0.250132 22.1484 0.25H26.8516ZM17.1074 30.9619L17.1084 30.9629C16.9803 31.0425 16.835 31.083 16.6895 31.083C16.544 31.0829 16.3994 31.0424 16.2715 30.9629L9.70508 26.8828V31.6895L17.1084 36.2891L23.6777 40.3682V26.8828L17.1074 30.9619ZM32.7285 30.9629C32.6005 31.0424 32.4559 31.0829 32.3105 31.083C32.165 31.083 32.0197 31.0425 31.8916 30.9629L25.3223 26.8828V40.3682L39.2979 31.6895V26.8818L32.7285 30.9629ZM2.69043 20.5166L16.6895 29.2109L22.8809 25.3672L8.88184 16.6719L2.69043 20.5166ZM26.1182 25.3672L32.3096 29.2109L46.3086 20.5166L40.1191 16.6709L26.1182 25.3672ZM27.6738 13.4912H30.9629C31.3062 13.4912 31.603 13.7128 31.7256 14.0312C31.8471 14.3473 31.7816 14.7135 31.5508 14.9619L25.0879 21.915C24.9289 22.0861 24.7162 22.1758 24.5 22.1758C24.2838 22.1758 24.071 22.0859 23.9121 21.915L17.4492 14.9619C17.2185 14.7137 17.1528 14.3474 17.2744 14.0312L17.3291 13.917C17.4725 13.6613 17.7365 13.4912 18.0371 13.4912H21.3262V8.94238L10.501 15.666L24.5 24.3623L38.501 15.666L27.6738 8.94238V13.4912ZM22.9707 14.3564C22.9707 14.8171 22.6195 15.2227 22.1484 15.2227H19.9922L24.5 20.0703L29.0078 15.2227H26.8516C26.3805 15.2227 26.0293 14.8171 26.0293 14.3564V1.98145H22.9707V14.3564ZM2.68945 10.8154L8.88184 14.6611L21.3262 6.93262V4.99902L16.6895 2.12109L2.68945 10.8154ZM27.6738 4.99902V6.93262L40.1191 14.6611L46.3096 10.8164L32.3086 2.12012L27.6738 4.99902Z" fill="var(--fill-0, #FB7E00)" stroke="var(--stroke-0, #FB7E00)" stroke-width="0.5"/>
</svg>
