<svg preserveAspectRatio="none" width="100%" height="100%" overflow="visible" style="display: block;" viewBox="0 0 55.3865 74.5502" fill="none" xmlns="http://www.w3.org/2000/svg">
<g id="Group">
<path id="Vector" d="M18.22 23.9097H1.5V73.0471H18.22V23.9097Z" stroke="var(--stroke-0, #2B2B2B)" stroke-width="3" stroke-linecap="round" stroke-linejoin="round"/>
<path id="Vector_2" d="M35.1619 1.50001L3.67188 9.52038V20.1841H16.0519V14.5054L35.1619 6.30411V1.50001Z" stroke="var(--stroke-0, #2B2B2B)" stroke-width="3" stroke-linecap="round" stroke-linejoin="round"/>
<path id="Vector_3" d="M47.1066 31.8111H18.2266V41.3793H41.5865C43.2365 41.3793 44.5765 42.726 44.5765 44.3844V53.1385H53.8865V38.6153C53.8865 34.8564 50.8566 31.801 47.1066 31.801V31.8111Z" stroke="var(--stroke-0, #2B2B2B)" stroke-width="3" stroke-linecap="round" stroke-linejoin="round"/>
<path id="Vector_4" d="M44.5781 53.1271V59.5896" stroke="var(--stroke-0, #2B2B2B)" stroke-width="3" stroke-linecap="round" stroke-linejoin="round"/>
<path id="Vector_5" d="M44.5781 64.3163V73.0502" stroke="var(--stroke-0, #2B2B2B)" stroke-width="3" stroke-linecap="round" stroke-linejoin="round"/>
<path id="Vector_6" d="M49.2266 56.9118V73.0228" stroke="var(--stroke-0, #2B2B2B)" stroke-width="3" stroke-linecap="round" stroke-linejoin="round"/>
<path id="Vector_7" d="M5.59375 37.2896V73.0496" stroke="var(--stroke-0, #2B2B2B)" stroke-width="3" stroke-linecap="round" stroke-linejoin="round"/>
<path id="Vector_8" d="M5.59375 23.9097V30.5733" stroke="var(--stroke-0, #2B2B2B)" stroke-width="3" stroke-linecap="round" stroke-linejoin="round"/>
<path id="Vector_9" d="M53.8828 53.1271V65.831" stroke="var(--stroke-0, #2B2B2B)" stroke-width="3" stroke-linecap="round" stroke-linejoin="round"/>
<path id="Vector_10" d="M53.8828 70.8963V73.0471" stroke="var(--stroke-0, #2B2B2B)" stroke-width="3" stroke-linecap="round" stroke-linejoin="round"/>
</g>
</svg>
