<svg preserveAspectRatio="none" width="100%" height="100%" overflow="visible" style="display: block;" viewBox="0 0 64.14 74.5481" fill="none" xmlns="http://www.w3.org/2000/svg">
<g id="Group">
<g id="Group_2">
<path id="Vector" d="M27.9127 73.0481H53.1227L57.3727 61.309V46.3437C57.3727 45.208 56.4627 44.2933 55.3327 44.2933H50.3327V43.6199C50.3327 42.4842 49.4226 41.5697 48.2926 41.5697H43.2927V41.0972C43.2927 39.9615 42.3827 39.047 41.2527 39.047H36.2527V27.4485C36.2527 25.4685 34.6527 23.8704 32.6927 23.8704H31.4927C29.5227 23.8704 27.9327 25.4786 27.9327 27.4485V56.2937L23.3627 48.3337C22.3827 46.6251 20.2027 46.0321 18.4927 47.0271L17.4527 47.6301C15.7527 48.615 15.1627 50.8061 16.1527 52.5247L27.9427 73.0481H27.9127Z" stroke="var(--stroke-0, #2B2B2B)" stroke-width="3" stroke-linecap="round" stroke-linejoin="round"/>
<path id="Vector_2" d="M36.2344 50.3028V39.0563" stroke="var(--stroke-0, #2B2B2B)" stroke-width="3" stroke-linecap="round" stroke-linejoin="round"/>
<path id="Vector_3" d="M43.2812 51.3057V41.5768" stroke="var(--stroke-0, #2B2B2B)" stroke-width="3" stroke-linecap="round" stroke-linejoin="round"/>
<path id="Vector_4" d="M50.3203 52.5028V44.3014" stroke="var(--stroke-0, #2B2B2B)" stroke-width="3" stroke-linecap="round" stroke-linejoin="round"/>
</g>
<path id="Vector_5" d="M20.72 60.7583C9.45997 56.2255 1.5 45.1598 1.5 32.2247C1.5 15.2592 15.1899 1.5 32.0699 1.5C48.9499 1.5 62.64 15.2592 62.64 32.2247C62.64 38.5867 60.7199 44.4964 57.4199 49.4011" stroke="var(--stroke-0, #2B2B2B)" stroke-width="3" stroke-linecap="round" stroke-linejoin="round"/>
<path id="Vector_6" d="M41.3007 33.3378C42.2107 31.7598 42.7307 29.9407 42.7307 27.9909C42.7307 22.0711 37.9607 17.2669 32.0607 17.2669C26.1607 17.2669 21.3906 22.0611 21.3906 27.9909C21.3906 29.9407 21.9206 31.7598 22.8206 33.3378" stroke="var(--stroke-0, #2B2B2B)" stroke-width="3" stroke-linecap="round" stroke-linejoin="round"/>
<g id="Group_3">
<path id="Vector_7" d="M46.0078 38.072C46.4978 37.3986 46.9278 36.685 47.3178 35.9312" stroke="var(--stroke-0, #2B2B2B)" stroke-width="3" stroke-linecap="round" stroke-linejoin="round"/>
<path id="Vector_8" d="M48.8907 31.5008C49.1307 30.3651 49.2507 29.1992 49.2507 27.9931C49.2507 18.4551 41.5606 10.7261 32.0706 10.7261C22.5806 10.7261 14.8906 18.4551 14.8906 27.9931C14.8906 30.0233 15.2406 31.9631 15.8906 33.7722" stroke="var(--stroke-0, #2B2B2B)" stroke-width="3" stroke-linecap="round" stroke-linejoin="round"/>
<path id="Vector_9" d="M16.8203 35.9312C17.2103 36.6749 17.6503 37.3885 18.1303 38.072" stroke="var(--stroke-0, #2B2B2B)" stroke-width="3" stroke-linecap="round" stroke-linejoin="round"/>
</g>
</g>
</svg>
