<svg width="20" height="20" viewBox="0 0 20 20" fill="none" xmlns="http://www.w3.org/2000/svg">
<path fill-rule="evenodd" clip-rule="evenodd" d="M17.9881 2.75311H11.6569V1.26123L1.25 2.86748V16.9469L11.6569 18.7394V16.5281H17.9881C18.18 16.5382 18.3679 16.4717 18.5108 16.3432C18.6536 16.2148 18.7397 16.0349 18.75 15.8431V3.43748C18.7395 3.24578 18.6534 3.06606 18.5106 2.93776C18.3677 2.80946 18.1799 2.74305 17.9881 2.75311ZM18.0881 15.9569H11.6356L11.625 14.7762H13.1794V13.4012H11.6131L11.6056 12.5887H13.1794V11.2137H11.5938L11.5863 10.4012H13.1794V9.02623H11.5813V8.21373H13.1794V6.83873H11.5813V6.02623H13.1794V4.65123H11.5813V3.40123H18.0881V15.9569Z" fill="#00778B"/>
<path d="M14.0547 4.64941H16.7566V6.02441H14.0547V4.64941ZM14.0547 6.83754H16.7566V8.21254H14.0547V6.83754ZM14.0547 9.02566H16.7566V10.4007H14.0547V9.02566ZM14.0547 11.2138H16.7566V12.5888H14.0547V11.2138ZM14.0547 13.4019H16.7566V14.7769H14.0547V13.4019Z" fill="#00778B"/>
<path fill-rule="evenodd" clip-rule="evenodd" d="M3.96656 6.67064L5.30781 6.59376L6.15094 8.91189L7.14719 6.49814L8.48844 6.42126L6.85969 9.71251L8.48844 13.0119L7.07031 12.9163L6.11281 10.4013L5.15469 12.8206L3.85156 12.7056L5.36531 9.79126L3.96656 6.67064Z" fill="white"/>
</svg>
