<svg xmlns="http://www.w3.org/2000/svg" width="40" height="40" viewBox="0 0 40 40" fill="none">
    <path
        d="M19.9834 3.33325C10.7834 3.33325 3.33337 10.7999 3.33337 19.9999C3.33337 29.1999 10.7834 36.6666 19.9834 36.6666C29.2 36.6666 36.6667 29.1999 36.6667 19.9999C36.6667 10.7999 29.2 3.33325 19.9834 3.33325ZM25.3667 28.9832L20 25.7499L14.6334 28.9832C14.493 29.0684 14.3306 29.1104 14.1665 29.104C14.0024 29.0975 13.8438 29.0429 13.7105 28.9469C13.5773 28.851 13.4752 28.7179 13.417 28.5643C13.3588 28.4107 13.3471 28.2434 13.3834 28.0833L14.8 21.9833L10.0834 17.8999C9.96085 17.7908 9.8729 17.6482 9.83035 17.4898C9.78779 17.3313 9.79247 17.1638 9.84383 17.008C9.89518 16.8522 9.99096 16.7147 10.1194 16.6126C10.2478 16.5105 10.4033 16.4482 10.5667 16.4333L16.8 15.8999L19.2334 10.1499C19.5167 9.46659 20.4834 9.46659 20.7667 10.1499L23.2 15.8833L29.4334 16.4166C29.5974 16.4307 29.7536 16.4931 29.8823 16.5959C30.0109 16.6987 30.1062 16.8373 30.1561 16.9942C30.2061 17.1511 30.2084 17.3193 30.1628 17.4775C30.1172 17.6358 30.0258 17.7769 29.9 17.8833L25.1834 21.9666L26.6 28.0833C26.7667 28.7999 26 29.3666 25.3667 28.9832Z"
        fill="white" />
</svg>