<svg width="32" height="31" viewBox="0 0 32 31" fill="none" xmlns="http://www.w3.org/2000/svg">
<path fill-rule="evenodd" clip-rule="evenodd" d="M15.8441 1.64007e-09C16.2306 -2.16856e-05 16.585 0.215042 16.7635 0.557942L31.575 29.0024C31.7424 29.3239 31.7299 29.7094 31.542 30.0194C31.354 30.3293 31.018 30.5185 30.6556 30.5185H1.03666C0.67434 30.5185 0.338307 30.3293 0.150367 30.0194C-0.0375734 29.7095 -0.0501462 29.324 0.117206 29.0025L14.9247 0.558046C15.1032 0.215125 15.4576 2.16889e-05 15.8441 1.64007e-09ZM15.8443 3.28202L2.74533 28.4444H28.9468L15.8443 3.28202Z" fill="#5CB9FF"/>
<path d="M14.5625 22.8389H17.3369V25.6628H14.5625V22.8389ZM14.8708 21.7093L14.5625 17.7558V12.4844H17.3369V17.7558L17.0286 21.7093H14.8708Z" fill="#5CB9FF"/>
</svg>
