<svg width="44" height="34" viewBox="0 0 44 34" fill="none" xmlns="http://www.w3.org/2000/svg">
<g filter="url(#filter0_f_2017_394)">
<path d="M26 29.0129L39 19.0129M27.5 24.0129L22.5 22.5129L20 23.5129L17.5 24.0129H15.5L13.5 22.5129V20.5129L14.5 19.0129L17.5 17.5129L15 16.5129L13.5 14.2883L15 12.0129L18 11.5129L22 12.0129L23.5 13.5129L25 11.0129H28.5L31.5 11.5129L32 13.5129L31 15.5129L30 16.5129L33 20.0129M27 20.0129L30.5 22.0129M10 21.0129H6.5L4.5 19.0129V16.5129L6.5 14.2883L6 11.0129L8 8.51294L10.5 7.01294L15 6.01294L17.5 6.51294L20 5.01294L24 4.51294L27.5 6.01294V8.51294" stroke="white"/>
</g>
<g filter="url(#filter1_f_2017_394)">
<path d="M26 29.0129L39 19.0129M27.5 24.0129L22.5 22.5129L20 23.5129L17.5 24.0129H15.5L13.5 22.5129V20.5129L14.5 19.0129L17.5 17.5129L15 16.5129L13.5 14.2883L15 12.0129L18 11.5129L22 12.0129L23.5 13.5129L25 11.0129H28.5L31.5 11.5129L32 13.5129L31 15.5129L30 16.5129L33 20.0129M27 20.0129L30.5 22.0129M10 21.0129H6.5L4.5 19.0129V16.5129L6.5 14.2883L6 11.0129L8 8.51294L10.5 7.01294L15 6.01294L17.5 6.51294L20 5.01294L24 4.51294L27.5 6.01294V8.51294" stroke="white"/>
</g>
<g filter="url(#filter2_f_2017_394)">
<path d="M26 29.0129L39 19.0129M27.5 24.0129L22.5 22.5129L20 23.5129L17.5 24.0129H15.5L13.5 22.5129V20.5129L14.5 19.0129L17.5 17.5129L15 16.5129L13.5 14.2883L15 12.0129L18 11.5129L22 12.0129L23.5 13.5129L25 11.0129H28.5L31.5 11.5129L32 13.5129L31 15.5129L30 16.5129L33 20.0129M27 20.0129L30.5 22.0129M10 21.0129H6.5L4.5 19.0129V16.5129L6.5 14.2883L6 11.0129L8 8.51294L10.5 7.01294L15 6.01294L17.5 6.51294L20 5.01294L24 4.51294L27.5 6.01294V8.51294" stroke="white"/>
</g>
<path d="M26 29.0129L39 19.0129M27.5 24.0129L22.5 22.5129L20 23.5129L17.5 24.0129H15.5L13.5 22.5129V20.5129L14.5 19.0129L17.5 17.5129L15 16.5129L13.5 14.2883L15 12.0129L18 11.5129L22 12.0129L23.5 13.5129L25 11.0129H28.5L31.5 11.5129L32 13.5129L31 15.5129L30 16.5129L33 20.0129M27 20.0129L30.5 22.0129M10 21.0129H6.5L4.5 19.0129V16.5129L6.5 14.2883L6 11.0129L8 8.51294L10.5 7.01294L15 6.01294L17.5 6.51294L20 5.01294L24 4.51294L27.5 6.01294V8.51294" stroke="white"/>
<defs>
<filter id="filter0_f_2017_394" x="0" y="0" width="43.3049" height="33.4092" filterUnits="userSpaceOnUse" color-interpolation-filters="sRGB">
<feFlood flood-opacity="0" result="BackgroundImageFix"/>
<feBlend mode="normal" in="SourceGraphic" in2="BackgroundImageFix" result="shape"/>
<feGaussianBlur stdDeviation="2" result="effect1_foregroundBlur_2017_394"/>
</filter>
<filter id="filter1_f_2017_394" x="0" y="0" width="43.3049" height="33.4092" filterUnits="userSpaceOnUse" color-interpolation-filters="sRGB">
<feFlood flood-opacity="0" result="BackgroundImageFix"/>
<feBlend mode="normal" in="SourceGraphic" in2="BackgroundImageFix" result="shape"/>
<feGaussianBlur stdDeviation="2" result="effect1_foregroundBlur_2017_394"/>
</filter>
<filter id="filter2_f_2017_394" x="1.4" y="1.4" width="40.5049" height="30.6092" filterUnits="userSpaceOnUse" color-interpolation-filters="sRGB">
<feFlood flood-opacity="0" result="BackgroundImageFix"/>
<feBlend mode="normal" in="SourceGraphic" in2="BackgroundImageFix" result="shape"/>
<feGaussianBlur stdDeviation="1.3" result="effect1_foregroundBlur_2017_394"/>
</filter>
</defs>
</svg>
