<svg width="60" height="59" viewBox="0 0 60 59" fill="none" xmlns="http://www.w3.org/2000/svg">
<path d="M38.2768 2.89158C35.5217 1.98745 32.5855 1.5 29.5312 1.5C14.0475 1.5 1.5 14.0321 1.5 29.4967" stroke="#5CB9FF" stroke-width="3" stroke-linecap="round" stroke-linejoin="round"/>
<path d="M57.57 29.4955C57.57 23.4653 55.6572 17.8755 52.4141 13.3076" stroke="#5CB9FF" stroke-width="3" stroke-linecap="round" stroke-linejoin="round"/>
<path d="M1.99219 34.6997C2.2126 35.8712 2.50384 37.0111 2.86594 38.1276" stroke="#5CB9FF" stroke-width="3" stroke-linecap="round" stroke-linejoin="round"/>
<path d="M6.5 45.4387C11.5615 52.7268 19.9921 57.499 29.5405 57.499C40.5531 57.499 50.0858 51.1544 54.6672 41.9165" stroke="#5CB9FF" stroke-width="3" stroke-linecap="round" stroke-linejoin="round"/>
<path d="M56.2031 38.1276C56.5652 37.0111 56.8565 35.8712 57.0769 34.6997" stroke="#5CB9FF" stroke-width="3" stroke-linecap="round" stroke-linejoin="round"/>
<path d="M29.5415 35.0864C32.5847 35.0864 35.0517 32.6225 35.0517 29.583C35.0517 26.5436 32.5847 24.0796 29.5415 24.0796C26.4983 24.0796 24.0312 26.5436 24.0312 29.583C24.0312 32.6225 26.4983 35.0864 29.5415 35.0864Z" stroke="#5CB9FF" stroke-width="3" stroke-linecap="round" stroke-linejoin="round"/>
<path d="M46.1656 10.2039C48.0002 10.2039 49.4875 8.71848 49.4875 6.88613C49.4875 5.05377 48.0002 3.56836 46.1656 3.56836C44.331 3.56836 42.8438 5.05377 42.8438 6.88613C42.8438 8.71848 44.331 10.2039 46.1656 10.2039Z" stroke="#5CB9FF" stroke-width="3" stroke-linecap="round" stroke-linejoin="round"/>
<path d="M33.2578 24.5039L43.8847 10.0063" stroke="#5CB9FF" stroke-width="3" stroke-linecap="round" stroke-linejoin="round"/>
<path d="M47.2876 33.1696C45.4614 42.7691 36.1885 49.0666 26.5771 47.2426C16.9657 45.4186 10.6604 36.1572 12.4867 26.5577C13.5021 21.2351 16.8083 16.9267 21.185 14.458" stroke="#5CB9FF" stroke-width="3" stroke-linecap="round" stroke-linejoin="round"/>
<path d="M10.5078 17.9487L21.2055 14.458" stroke="#5CB9FF" stroke-width="3" stroke-linecap="round" stroke-linejoin="round"/>
<path d="M18.1562 24.9695L21.1947 14.458" stroke="#5CB9FF" stroke-width="3" stroke-linecap="round" stroke-linejoin="round"/>
</svg>
