<svg width="63" height="57" viewBox="0 0 63 57" fill="none" xmlns="http://www.w3.org/2000/svg">
<path d="M19.6683 24.4908C17.9249 22.1013 16.8984 19.1615 16.8984 15.9804C16.8984 7.98265 23.3891 1.5 31.3968 1.5C38.6497 1.5 44.6649 6.82181 45.7291 13.7718" stroke="#5CB9FF" stroke-width="3" stroke-linecap="round" stroke-linejoin="round"/>
<path d="M17.1531 40.0027C16.3682 40.1459 15.5681 40.2213 14.7455 40.2213C7.43216 40.2213 1.5 34.2965 1.5 26.9922C1.5 19.6879 7.43216 13.763 14.7455 13.763C15.5681 13.763 15.7644 13.7404 16.5493 13.8836" stroke="#5CB9FF" stroke-width="3" stroke-linecap="round" stroke-linejoin="round"/>
<path d="M38.3281 18C40.7508 15.3919 44.2075 13.7637 48.0415 13.7637C55.3548 13.7637 61.287 19.6885 61.287 26.9928C61.287 34.2971 55.3548 40.222 48.0415 40.222C47.3471 40.222 46.6679 40.1692 46.0037 40.0637" stroke="#5CB9FF" stroke-width="3" stroke-linecap="round" stroke-linejoin="round"/>
<path d="M31.3984 49.2371V44.7143" stroke="#5CB9FF" stroke-width="3" stroke-linecap="round" stroke-linejoin="round"/>
<path d="M31.3984 38.8935V30.1645" stroke="#5CB9FF" stroke-width="3" stroke-linecap="round" stroke-linejoin="round"/>
<path d="M31.3984 27.2562V22.7334" stroke="#5CB9FF" stroke-width="3" stroke-linecap="round" stroke-linejoin="round"/>
<path d="M28.2659 55.1828L26.7188 50.9313" stroke="#5CB9FF" stroke-width="3" stroke-linecap="round" stroke-linejoin="round"/>
<path d="M24.7231 45.4591L21.7344 37.2653" stroke="#5CB9FF" stroke-width="3" stroke-linecap="round" stroke-linejoin="round"/>
<path d="M20.7425 34.5289L19.1953 30.2775" stroke="#5CB9FF" stroke-width="3" stroke-linecap="round" stroke-linejoin="round"/>
<path d="M43.8985 30.277L42.3438 34.5284" stroke="#5CB9FF" stroke-width="3" stroke-linecap="round" stroke-linejoin="round"/>
<path d="M40.3481 39.9943L37.3594 48.1956" stroke="#5CB9FF" stroke-width="3" stroke-linecap="round" stroke-linejoin="round"/>
<path d="M36.3597 50.9303L34.8125 55.1818" stroke="#5CB9FF" stroke-width="3" stroke-linecap="round" stroke-linejoin="round"/>
</svg>
