<svg width="64" height="59" viewBox="0 0 64 59" fill="none" xmlns="http://www.w3.org/2000/svg">
<path d="M33.0143 57.2877C31.8728 57.4292 30.7155 57.5 29.5346 57.5C14.0491 57.5 1.5 44.9665 1.5 29.5C1.5 14.0336 14.0491 1.5 29.5346 1.5C31.9437 1.5 34.2897 1.80667 36.5255 2.3728" stroke="#5CB9FF" stroke-width="3" stroke-linecap="round" stroke-linejoin="round"/>
<path d="M29.54 16.9668V30.2867L23.2812 36.0423" stroke="#5CB9FF" stroke-width="3" stroke-linecap="round" stroke-linejoin="round"/>
<path d="M29.5391 6.86279V9.60696" stroke="#5CB9FF" stroke-width="3" stroke-linecap="round" stroke-linejoin="round"/>
<path d="M29.5391 52.129V49.3848" stroke="#5CB9FF" stroke-width="3" stroke-linecap="round" stroke-linejoin="round"/>
<path d="M6.875 29.4917H9.62257" stroke="#5CB9FF" stroke-width="3" stroke-linecap="round" stroke-linejoin="round"/>
<path d="M13.5156 45.5003L15.4602 43.5581" stroke="#5CB9FF" stroke-width="3" stroke-linecap="round" stroke-linejoin="round"/>
<path d="M13.5156 13.4917L15.4602 15.4339" stroke="#5CB9FF" stroke-width="3" stroke-linecap="round" stroke-linejoin="round"/>
<path d="M59.7031 29.4902H62.4507" stroke="#5CB9FF" stroke-width="3" stroke-linecap="round" stroke-linejoin="round"/>
<path d="M59.7031 22.0693H62.4507" stroke="#5CB9FF" stroke-width="3" stroke-linecap="round" stroke-linejoin="round"/>
<path d="M59.7031 14.6221H62.4507" stroke="#5CB9FF" stroke-width="3" stroke-linecap="round" stroke-linejoin="round"/>
<path d="M59.7031 7.18604H62.4507" stroke="#5CB9FF" stroke-width="3" stroke-linecap="round" stroke-linejoin="round"/>
<path d="M53.1109 38.7446C55.9844 40.5373 57.8896 43.7219 57.8896 47.3545C57.8896 52.953 53.3392 57.4978 47.7339 57.4978C42.1285 57.4978 37.5781 52.953 37.5781 47.3545C37.5781 43.7219 39.4833 40.5373 42.3568 38.7446V6.94678C42.3568 3.98244 44.7659 1.57639 47.7339 1.57639C50.7019 1.57639 53.1109 3.98244 53.1109 6.94678V38.7446Z" stroke="#5CB9FF" stroke-width="3" stroke-linecap="round" stroke-linejoin="round"/>
<path d="M47.7285 50.5724C49.5634 50.5724 51.0508 49.0868 51.0508 47.2542C51.0508 45.4216 49.5634 43.936 47.7285 43.936C45.8937 43.936 44.4062 45.4216 44.4062 47.2542C44.4062 49.0868 45.8937 50.5724 47.7285 50.5724Z" stroke="#5CB9FF" stroke-width="3" stroke-linecap="round" stroke-linejoin="round"/>
</svg>
