<svg preserveAspectRatio="none" width="100%" height="100%" overflow="visible" style="display: block;" viewBox="0 0 96.4604 86.9216" fill="none" xmlns="http://www.w3.org/2000/svg">
<g id="Group 1338">
<g id="Group">
<path id="Vector" d="M15.1045 10.2964H40.3535C41.2394 10.2964 41.958 11.015 41.958 11.9009V20.317C41.958 21.2029 41.2394 21.9214 40.3535 21.9214H37.75V56.2281C37.7501 58.9019 39.9248 61.0767 42.5987 61.0767C45.2724 61.0766 47.4472 58.9018 47.4473 56.2281V35.7476C47.4473 24.0349 56.9768 14.5046 68.6895 14.5045H72.6963V11.9009C72.6963 11.0151 73.4149 10.2965 74.3008 10.2964H82.7178C83.6036 10.2966 84.3213 11.0151 84.3213 11.9009V37.15C84.3213 38.0358 83.6036 38.7543 82.7178 38.7545H74.3008C73.4149 38.7544 72.6963 38.0358 72.6963 37.15V34.5464H68.6895C68.0268 34.5466 67.4883 35.0849 67.4883 35.7476V56.2281C67.4883 69.952 56.3225 81.1176 42.5987 81.1177C28.8747 81.1177 17.7081 69.9521 17.708 56.2281V21.9214H15.1045C14.2186 21.9214 13.5 21.2029 13.5 20.317V11.9009C13.5 11.015 14.2186 10.2964 15.1045 10.2964ZM20.917 56.2281C20.9171 68.1839 30.6428 77.9097 42.5987 77.9097C54.5544 77.9096 64.2803 68.1838 64.2803 56.2281V47.3111H50.6553V56.2281C50.6553 60.6702 47.0407 64.2846 42.5987 64.2847C38.1565 64.2847 34.5411 60.6702 34.541 56.2281V47.3111H20.917V56.2281ZM20.917 44.1031H34.541V21.9214H20.917V44.1031ZM68.6895 17.7134C58.7449 17.7136 50.6553 25.803 50.6553 35.7476V44.1031H64.2803V35.7476C64.2803 33.3167 66.2586 31.3377 68.6895 31.3375H72.6963V17.7134H68.6895ZM75.9053 35.5464H81.1133V13.5045H75.9053V35.5464ZM16.708 18.7134H38.75V13.5045H16.708V18.7134Z" fill="var(--fill-0, #2B2B2B)" stroke="var(--stroke-0, #F2F2F2)"/>
<path id="Vector_2" d="M52.8311 66.1382C53.2474 66.1384 53.585 66.4767 53.585 66.8931C53.5848 67.3094 53.2473 67.6468 52.8311 67.647C52.4147 67.647 52.0764 67.3095 52.0762 66.8931C52.0762 66.4766 52.4146 66.1382 52.8311 66.1382Z" fill="var(--fill-0, #2B2B2B)" stroke="var(--stroke-0, #2A2A2A)" stroke-width="2.7"/>
<path id="Vector_3" d="M32.3545 66.1382C32.7709 66.1384 33.1084 66.4767 33.1084 66.8931C33.1082 67.3094 32.7707 67.6468 32.3545 67.647C31.9381 67.647 31.5998 67.3095 31.5996 66.8931C31.5996 66.4766 31.938 66.1382 32.3545 66.1382Z" fill="var(--fill-0, #2B2B2B)" stroke="var(--stroke-0, #2A2A2A)" stroke-width="2.7"/>
<path id="Vector_4" d="M27.7217 55.4742C28.1381 55.4744 28.4756 55.8127 28.4756 56.2291C28.4754 56.6453 28.1379 56.9828 27.7217 56.983C27.3053 56.983 26.967 56.6454 26.9668 56.2291C26.9668 55.8126 27.3052 55.4742 27.7217 55.4742Z" fill="var(--fill-0, #2B2B2B)" stroke="var(--stroke-0, #2A2A2A)" stroke-width="2.7"/>
<path id="Vector_5" d="M42.5967 70.3492C43.0131 70.3494 43.3506 70.6877 43.3506 71.1041C43.3504 71.5203 43.0129 71.8578 42.5967 71.858C42.1803 71.858 41.842 71.5204 41.8418 71.1041C41.8418 70.6876 42.1802 70.3492 42.5967 70.3492Z" fill="var(--fill-0, #2B2B2B)" stroke="var(--stroke-0, #2A2A2A)" stroke-width="2.7"/>
<path id="Vector_6" d="M57.4639 55.4742C57.8802 55.4744 58.2178 55.8127 58.2178 56.2291C58.2176 56.6453 57.8801 56.9828 57.4639 56.983C57.0475 56.983 56.7092 56.6454 56.709 56.2291C56.709 55.8126 57.0474 55.4742 57.4639 55.4742Z" fill="var(--fill-0, #2B2B2B)" stroke="var(--stroke-0, #2A2A2A)" stroke-width="2.7"/>
</g>
<path id="Line 38" d="M2.50002 84.4216L93.9604 2.50002" stroke="var(--stroke-0, #FB7E00)" stroke-width="5" stroke-linecap="round"/>
</g>
</svg>
