<svg preserveAspectRatio="none" width="100%" height="100%" overflow="visible" style="display: block;" viewBox="0 0 100 3.00001" fill="none" xmlns="http://www.w3.org/2000/svg">
<path id="Vector 825" d="M1.5 3.8147e-06C0.671573 3.69549e-06 1.19209e-07 0.671576 0 1.5C-1.19209e-07 2.32843 0.671573 3 1.5 3L1.5 1.5L1.5 3.8147e-06ZM83.0881 1.50001V3.00001V3.00001V1.50001ZM1.5 1.5L1.5 3L8.29901 3V1.5L8.29901 4.41074e-06L1.5 3.8147e-06L1.5 1.5ZM21.897 1.50001V3.00001L35.495 3.00001V1.50001V6.67572e-06L21.897 5.48363e-06V1.50001ZM49.0931 1.50001V3.00001L62.6911 3.00001V1.50001V9.05991e-06L49.0931 7.86781e-06V1.50001ZM76.2891 1.50001V3.00001L83.0881 3.00001V1.50001V1.07288e-05L76.2891 1.01328e-05V1.50001ZM83.0881 1.50001V3.00001L87.3161 3.00001V1.50001L87.3161 8.10623e-06L83.0881 1.07288e-05V1.50001ZM95.772 1.5L95.772 3L100 3V1.5V0L95.772 2.74181e-06V1.5Z" fill="var(--stroke-0, #FB7E00)"/>
</svg>
