<svg preserveAspectRatio="none" width="100%" height="100%" overflow="visible" style="display: block;" viewBox="0 0 98.0002 51.0021" fill="none" xmlns="http://www.w3.org/2000/svg">
<path id="Vector 823" d="M0.724898 48.2178C0.0157177 48.646 -0.212061 49.568 0.216139 50.2772C0.644339 50.9863 1.56637 51.2141 2.27555 50.7859L1.50022 49.5018L0.724898 48.2178ZM81.0002 1.50002V1.72853e-05L80.5825 1.7643e-05L80.2249 0.215934L81.0002 1.50002ZM1.50022 49.5018L2.27555 50.7859L7.2443 47.7858L6.46897 46.5017L5.69365 45.2176L0.724898 48.2178L1.50022 49.5018ZM16.4065 40.5015L17.1818 41.7856L27.1193 35.7854L26.344 34.5013L25.5686 33.2172L15.6311 39.2174L16.4065 40.5015ZM36.2815 28.501L37.0568 29.7851L46.9943 23.7849L46.219 22.5008L45.4437 21.2167L35.5062 27.217L36.2815 28.501ZM56.1565 16.5006L56.9318 17.7847L66.8693 11.7844L66.094 10.5004L65.3187 9.21628L55.3812 15.2165L56.1565 16.5006ZM76.0315 4.50013L76.8068 5.78421L81.7756 2.7841L81.0002 1.50002L80.2249 0.215934L75.2562 3.21605L76.0315 4.50013ZM81.0002 1.50002V3.00002L85.2502 3.00001V1.50001V1.28746e-05L81.0002 1.72853e-05V1.50002ZM93.7502 1.5V3L98.0002 3V1.5V0L93.7502 4.29153e-06V1.5Z" fill="var(--stroke-0, #FB7E00)"/>
</svg>
