<svg preserveAspectRatio="none" width="100%" height="100%" overflow="visible" style="display: block;" viewBox="0 0 46.2012 39.9582" fill="none" xmlns="http://www.w3.org/2000/svg">
<g id="Group 2051">
<path id="Vector (Stroke)" fill-rule="evenodd" clip-rule="evenodd" d="M5.86368 1.90769C3.70762 1.90769 1.96778 3.60199 1.96778 5.67829V12.3839C1.96778 14.4706 3.71837 16.1545 5.86368 16.1545H29.2945V1.90769H5.86368ZM0.1 5.67829C0.1 2.60714 2.67245 0.1 5.86368 0.1H31.1622V17.9622H5.86368C2.69044 17.9622 0.1 15.4724 0.1 12.3839V5.67829Z" fill="var(--fill-0, #FB7E00)" stroke="var(--stroke-0, #FB7E00)" stroke-width="0.2" stroke-miterlimit="10"/>
<path id="Vector (Stroke)_2" fill-rule="evenodd" clip-rule="evenodd" d="M4.88125 28.0353V16.8109H6.74788V28.0353C6.74788 30.0573 8.4274 31.6976 10.4978 31.6976H15.0367C14.1442 30.7264 13.6012 29.4426 13.6012 28.0353V16.8109H15.4678V28.0353C15.4678 30.0573 17.1473 31.6976 19.2177 31.6976V33.5207H10.4978C7.3965 33.5207 4.88125 31.0642 4.88125 28.0353Z" fill="var(--fill-0, #FB7E00)" stroke="var(--stroke-0, #FB7E00)" stroke-width="0.2" stroke-miterlimit="10"/>
<path id="Vector (Stroke)_3" fill-rule="evenodd" clip-rule="evenodd" d="M19.1784 18.4663V16.8109H20.999V18.4663C20.999 21.0539 18.9241 23.1491 16.3617 23.1491H14.4281V21.3107H16.3617C17.9186 21.3107 19.1784 20.0385 19.1784 18.4663Z" fill="var(--fill-0, #FB7E00)" stroke="var(--stroke-0, #FB7E00)" stroke-width="0.2" stroke-miterlimit="10"/>
<path id="Vector (Stroke)_4" fill-rule="evenodd" clip-rule="evenodd" d="M46.1012 9.89696H40.725V8.16836H46.1012V9.89696Z" fill="var(--fill-0, #FB7E00)" stroke="var(--stroke-0, #FB7E00)" stroke-width="0.2" stroke-miterlimit="10"/>
<path id="Vector (Stroke)_5" fill-rule="evenodd" clip-rule="evenodd" d="M37.7456 7.61182H35.3422V5.86367H37.7456C39.7168 5.86367 41.3157 7.41203 41.3157 9.32087C41.3157 11.2297 39.7168 12.7781 37.7456 12.7781H35.3422V11.0299H37.7456C38.7198 11.0299 39.5105 10.2642 39.5105 9.32087C39.5105 8.37751 38.7198 7.61182 37.7456 7.61182Z" fill="var(--fill-0, #FB7E00)" stroke="var(--stroke-0, #FB7E00)" stroke-width="0.2" stroke-miterlimit="10"/>
<path id="Vector (Stroke)_6" fill-rule="evenodd" clip-rule="evenodd" d="M34.6328 4.72989H29.9594V2.98086H36.5302V15.081H29.9594V13.332H34.6328V4.72989Z" fill="var(--fill-0, #FB7E00)" stroke="var(--stroke-0, #FB7E00)" stroke-width="0.2" stroke-miterlimit="10"/>
<path id="Vector (Stroke)_7" fill-rule="evenodd" clip-rule="evenodd" d="M16.2291 7.59227H9.06094V5.86367H16.2291V7.59227Z" fill="var(--fill-0, #FB7E00)" stroke="var(--stroke-0, #FB7E00)" stroke-width="0.2" stroke-miterlimit="10"/>
<path id="Vector (Stroke)_8" fill-rule="evenodd" clip-rule="evenodd" d="M16.2291 12.7778H9.06094V11.0492H16.2291V12.7778Z" fill="var(--fill-0, #FB7E00)" stroke="var(--stroke-0, #FB7E00)" stroke-width="0.2" stroke-miterlimit="10"/>
<path id="Vector (Stroke)_9" fill-rule="evenodd" clip-rule="evenodd" d="M23.4047 16.8097V1.25234H25.1967V16.8097H23.4047Z" fill="var(--fill-0, #FB7E00)" stroke="var(--stroke-0, #FB7E00)" stroke-width="0.2" stroke-miterlimit="10"/>
<path id="Vector (Stroke)_10" fill-rule="evenodd" clip-rule="evenodd" d="M9.6625 39.8582V32.3676H11.4546V39.8582H9.6625Z" fill="var(--fill-0, #FB7E00)" stroke="var(--stroke-0, #FB7E00)" stroke-width="0.2" stroke-miterlimit="10"/>
</g>
</svg>
