<svg preserveAspectRatio="none" width="100%" height="100%" overflow="visible" style="display: block;" viewBox="0 0 53.2269 24.3271" fill="none" xmlns="http://www.w3.org/2000/svg">
<g id="&#208;&#186;&#208;&#187;&#208;&#176;&#209;&#129;&#209;&#129;&#226;&#128;&#168;&#208;&#191;&#209;&#139;&#208;&#187;&#208;&#184;">
<path id="Vector" d="M47.7868 14.2207H51.2376V24.1399H47.9734V18.7124L44.8024 24.1399H41.3516V14.2207H44.6158V19.6482L47.7868 14.2207Z" fill="var(--fill-0, #2B2B2B)"/>
<path id="Vector_2" d="M30.5372 24.3271C30.0025 24.3271 29.3807 24.2647 28.6719 24.1399V21.7069H29.418C29.8905 21.7069 30.1392 21.4574 30.1641 20.9583L30.5372 14.2207H39.4906V24.1399H36.2263V16.7473H33.6149L33.3351 21.5197C33.2854 22.3682 33.0056 23.0482 32.4957 23.5597C31.9859 24.0713 31.333 24.3271 30.5372 24.3271Z" fill="var(--fill-0, #2B2B2B)"/>
<path id="Vector_3" d="M13.3672 24.1399V14.2207H16.6315V17.3088H20.2688C21.1144 17.3088 21.7921 17.5645 22.302 18.0761C22.8118 18.5877 23.0667 19.2676 23.0667 20.1161V21.3326C23.0667 22.181 22.8118 22.861 22.302 23.3726C21.7921 23.8841 21.1144 24.1399 20.2688 24.1399H13.3672ZM19.1496 21.8005C19.3361 21.8005 19.4916 21.7381 19.6159 21.6133C19.7403 21.4886 19.8025 21.3326 19.8025 21.1454V20.322C19.8025 20.1348 19.7403 19.9788 19.6159 19.8541C19.4916 19.7293 19.3361 19.6669 19.1496 19.6669H16.6315V21.8005H19.1496ZM27.5434 24.1399H24.2792V14.2207H27.5434V24.1399Z" fill="var(--fill-0, #2B2B2B)"/>
<path id="Vector_4" d="M11.5111 14.2207V24.1399H8.2468V16.7473H4.88927V24.1399H1.625V14.2207H11.5111Z" fill="var(--fill-0, #2B2B2B)"/>
<path id="Vector_5" d="M53.2269 9.9176C50.9015 10.1671 48.8496 10.2919 47.0714 10.2919C46.2258 10.2919 45.5481 10.0361 45.0382 9.52458C44.5284 9.01302 44.2734 8.33302 44.2734 7.48459V3.18003C44.2734 2.24425 44.5346 1.51435 45.0569 0.990313C45.5916 0.453802 46.3253 0.185547 47.2579 0.185547H53.2269V2.71214H48.2838C47.7864 2.71214 47.5377 2.96168 47.5377 3.46076V7.11028C47.5377 7.29743 47.5999 7.4534 47.7242 7.57817C47.8486 7.70294 48.004 7.76532 48.1906 7.76532C49.3097 7.76532 50.9885 7.67174 53.2269 7.48459V9.9176Z" fill="var(--fill-0, #2B2B2B)"/>
<path id="Vector_6" d="M42.969 9.9176C40.6436 10.1671 38.5918 10.2919 36.8136 10.2919C35.968 10.2919 35.2902 10.0361 34.7804 9.52458C34.2705 9.01302 34.0156 8.33302 34.0156 7.48459V3.18003C34.0156 2.24425 34.2768 1.51435 34.799 0.990313C35.3338 0.453802 36.0675 0.185547 37.0001 0.185547H42.969V2.71214H38.026C37.5286 2.71214 37.2799 2.96168 37.2799 3.46076V7.11028C37.2799 7.29743 37.3421 7.4534 37.4664 7.57817C37.5908 7.70294 37.7462 7.76532 37.9327 7.76532C39.0519 7.76532 40.7307 7.67174 42.969 7.48459V9.9176Z" fill="var(--fill-0, #2B2B2B)"/>
<path id="Vector_7" d="M27.0319 7.67335C27.691 7.67335 28.4371 7.54858 29.2702 7.29904V6.17611H26.5656C26.379 6.17611 26.2236 6.2385 26.0992 6.36327C25.9749 6.48804 25.9127 6.644 25.9127 6.83115V7.01831C25.9127 7.20546 25.9749 7.36142 26.0992 7.48619C26.2236 7.61096 26.379 7.67335 26.5656 7.67335H27.0319ZM23.5811 0.374309C25.8567 0.12477 27.9086 0 29.7366 0C30.5822 0 31.2599 0.255778 31.7697 0.767335C32.2796 1.27889 32.5345 1.95889 32.5345 2.80732V10.1064H29.6433L29.4568 9.17059C28.8723 9.55737 28.2692 9.84435 27.6474 10.0315C27.0381 10.2062 26.522 10.2935 26.0992 10.2935H25.4464C24.6008 10.2935 23.9231 10.0377 23.4132 9.52618C22.9034 9.01463 22.6484 8.33463 22.6484 7.48619V6.644C22.6484 5.79556 22.9034 5.11557 23.4132 4.60401C23.9231 4.09245 24.6008 3.83667 25.4464 3.83667H29.2702V3.08806C29.2702 2.9009 29.2081 2.74494 29.0837 2.62017C28.9594 2.4954 28.8039 2.43301 28.6174 2.43301C27.8091 2.43301 26.9137 2.47044 25.9314 2.54531C24.9614 2.62017 24.178 2.67631 23.5811 2.71375V0.374309Z" fill="var(--fill-0, #2B2B2B)"/>
<path id="Vector_8" d="M12.3028 10.2919C11.7681 10.2919 11.1463 10.2295 10.4375 10.1048V7.67174H11.1836C11.6562 7.67174 11.9049 7.4222 11.9297 6.92312L12.3028 0.185547H21.2562V10.1048H17.9919V2.71214H15.3805L15.1007 7.48459C15.051 8.33302 14.7712 9.01302 14.2614 9.52458C13.7515 10.0361 13.0987 10.2919 12.3028 10.2919Z" fill="var(--fill-0, #2B2B2B)"/>
<path id="Vector_9" d="M4.66324 6.36327H3.26427V10.1064H0V0.187155H3.26427V3.83668H4.7565L5.78242 1.77797C6.15547 0.979444 6.73993 0.436695 7.53579 0.149724C7.8218 0.0499081 8.09538 0 8.35652 0C8.77932 0 9.16482 0.0311925 9.51301 0.0935774L9.97933 0.187155V2.71375H9.32648C8.90368 2.71375 8.59279 2.9009 8.39383 3.27521L7.46118 5.14676L10.2591 10.1064H6.71506L4.66324 6.36327Z" fill="var(--fill-0, #2B2B2B)"/>
</g>
</svg>
