<svg preserveAspectRatio="none" width="100%" height="100%" overflow="visible" style="display: block;" viewBox="0 0 102.998 103.338" fill="none" xmlns="http://www.w3.org/2000/svg">
<g id="Group 1557">
<path id="Vector" d="M30.3094 20.6678H72.6887C78.0429 20.6678 82.3966 25.0268 82.3966 30.4082V72.9296C82.3966 78.3017 78.0522 82.67 72.6887 82.67H30.3094C24.9553 82.67 20.6016 78.311 20.6016 72.9296V30.4082C20.6016 25.0361 24.946 20.6678 30.3094 20.6678Z" fill="var(--fill-0, white)"/>
<path id="Vector_2" d="M0 16.2361L16.335 0L32.5587 0.400824L0.390188 32.6678L0 16.2361Z" fill="var(--fill-0, #ED1C24)"/>
<path id="Vector_3" d="M0.0374667 61.1396L62.3773 0H81.0645L0 80.0028L0.0374667 61.1396Z" fill="var(--fill-0, #ED1C24)"/>
<path id="Vector_4" d="M102.97 34.7823L34.3829 103.337L15.9531 103.196L102.998 16.0008L102.97 34.7823Z" fill="var(--fill-0, #ED1C24)"/>
<path id="Vector_5" d="M102.301 79.4236L78.7641 103.338H63.125L102.328 63.3369L102.301 79.4236Z" fill="var(--fill-0, #ED1C24)"/>
<path id="Vector (Stroke)" fill-rule="evenodd" clip-rule="evenodd" d="M10.1841 0.930628C5.07023 0.930628 0.927519 5.09605 0.927519 10.2184V93.1187C0.927519 98.2498 5.07892 102.406 10.1841 102.406H92.8076C97.9215 102.406 102.064 98.2411 102.064 93.1187V10.2184C102.064 5.08732 97.9128 0.930628 92.8076 0.930628H10.1841ZM0 10.2184C0 4.58267 4.55738 0 10.1841 0H92.8076C98.4245 0 102.992 4.57279 102.992 10.2184V93.1187C102.992 98.7545 98.4343 103.337 92.8076 103.337H10.1841C4.56724 103.337 0 98.7643 0 93.1187V10.2184Z" fill="var(--fill-0, #ED1C24)"/>
<path id="Vector_6" d="M30.3094 20.6678H72.6887C78.0429 20.6678 82.3966 25.0268 82.3966 30.4082V72.9296C82.3966 78.3017 78.0522 82.67 72.6887 82.67H30.3094C24.9553 82.67 20.6016 78.311 20.6016 72.9296V30.4082C20.6016 25.0361 24.946 20.6678 30.3094 20.6678Z" fill="var(--fill-0, white)"/>
<path id="Vector (Stroke)_2" fill-rule="evenodd" clip-rule="evenodd" d="M30.1233 20.7876C24.9297 20.7876 20.7225 25.0178 20.7225 30.2199V73.1156C20.7225 78.3267 24.9385 82.548 30.1233 82.548H72.8757C78.0693 82.548 82.2765 78.3178 82.2765 73.1156V30.2199C82.2765 25.0089 78.0604 20.7876 72.8757 20.7876H30.1233ZM19.9375 30.2199C19.9375 24.5833 24.4957 20 30.1233 20H72.8757C78.4935 20 83.0615 24.5734 83.0615 30.2199V73.1156C83.0615 78.7523 78.5033 83.3356 72.8757 83.3356H30.1233C24.5055 83.3356 19.9375 78.7621 19.9375 73.1156V30.2199Z" fill="var(--fill-0, #1D1D1B)"/>
<path id="Vector_7" d="M45.8304 67.1849H67.118V72.0012H39.875V27.3329H45.8304V67.1849Z" fill="var(--fill-0, #1D1D1B)"/>
</g>
</svg>
