<svg preserveAspectRatio="none" width="100%" height="100%" overflow="visible" style="display: block;" viewBox="0 0 157.999 45.9651" fill="none" xmlns="http://www.w3.org/2000/svg">
<g id="Group">
<path id="Vector" d="M64.1691 18.206H66.9112C70.3499 18.206 71.9606 16.551 71.9606 14.8472C71.9606 14.2349 71.8275 12.3181 68.3888 12.3181H65.3849L64.1647 18.2016L64.1691 18.206ZM61.6888 30.4611H64.6483C68.5219 30.4611 69.7021 28.3269 69.7021 26.8848C69.7021 26.45 69.569 25.9753 69.3516 25.5804C68.5662 24.2714 67.2218 24.2271 66.0416 24.2271H62.9489L61.6888 30.4611ZM74.4409 6.13284C81.234 6.13284 83.5013 9.79339 83.5013 12.9792C83.5013 16.9015 80.3244 20.3047 75.9672 21.0901L75.9228 21.2676C79.6633 21.5693 81.4957 24.3602 81.4957 26.9336C81.4957 31.3396 77.4004 36.6552 68.4775 36.6552H49.3672L55.5524 6.13728H74.4453" fill="var(--fill-0, #231F20)"/>
<path id="Vector_2" d="M95.6469 21.654C94.9503 23.0472 94.165 26.6678 94.165 28.5003C94.165 30.3328 95.079 30.639 95.7756 30.639C97.475 30.639 98.216 29.157 98.6109 28.0211C99.1744 26.4504 99.7823 23.9213 99.7823 22.0045C99.7823 21.3478 99.6979 19.8215 98.0873 19.8215C96.6497 19.8215 95.9531 21.0416 95.6514 21.654H95.6469ZM111.452 23.0028C111.452 30.3727 105.226 37.1747 94.7773 37.1747C84.3281 37.1747 82.5 30.8519 82.5 27.7993C82.5 20.6068 88.1173 13.2813 99.3031 13.2813C108.315 13.2813 111.447 18.1665 111.447 23.0028" fill="var(--fill-0, #231F20)"/>
<path id="Vector_3" d="M132.123 13.817C128.676 14.2163 125.512 16.5413 124.243 18.9994H124.075L125.157 13.8125H114.881L110.227 36.6588H121.195L122.894 28.3749C123.817 23.9689 130.331 22.691 130.331 22.691L132.123 13.8214V13.817Z" fill="var(--fill-0, #231F20)"/>
<path id="Vector_4" d="M147.204 22.6826H156.198L157.999 13.8085H149.001L150.381 6.42971L139.444 6.53177L138.028 13.8041H135.073L133.352 22.6781H136.236L135.069 28.2732C134.851 29.3647 134.718 30.3631 134.718 31.4546C134.718 35.5588 138.157 37.1695 142.51 37.1695C145.687 37.1695 148.038 36.4729 149.431 35.9937L150.785 29.4091C149.564 29.7108 148.824 29.8484 148.216 29.8484C147.04 29.8484 146.215 29.1917 146.215 27.8872C146.215 27.5411 146.254 27.1862 146.343 26.8401L147.204 22.6826Z" fill="var(--fill-0, #231F20)"/>
<path id="Vector_5" d="M153.905 10.0793V9.27615C153.905 9.0188 153.949 9.0188 154.215 9.0188C154.606 9.0188 154.832 9.15635 154.832 9.54237C154.832 10.0349 154.433 10.0837 153.993 10.0837H153.905V10.0793ZM153.905 10.2301C154.734 10.1502 154.61 11.051 154.947 11.2906C155.081 11.3837 155.254 11.3571 155.396 11.3571H155.573V11.2462C155.311 11.2551 155.24 11.0288 155.107 10.7626C154.97 10.483 154.81 10.1724 154.544 10.1414V10.1281C154.912 10.1192 155.267 9.85297 155.267 9.48469C155.267 8.97 154.837 8.87238 154.22 8.87238H153.146V8.98331C153.448 8.98331 153.457 9.03655 153.457 9.16523V11.0598C153.457 11.1929 153.443 11.2418 153.146 11.2418V11.3527H154.206V11.2418C153.909 11.2418 153.9 11.1885 153.9 11.0598V10.2257L153.905 10.2301ZM154.215 12.3466C155.578 12.3466 156.474 11.4414 156.474 10.2079C156.474 8.97443 155.582 8.07815 154.224 8.07815C152.866 8.07815 152.023 9.04099 152.023 10.2257C152.023 11.4104 152.893 12.351 154.22 12.351L154.215 12.3466ZM154.224 8.34881C155.356 8.34881 156.145 9.08092 156.145 10.2079C156.145 11.3349 155.365 12.0804 154.264 12.0804C153.164 12.0804 152.338 11.3482 152.338 10.2035C152.338 9.05874 153.128 8.35325 154.224 8.35325V8.34881Z" fill="var(--fill-0, #231F20)"/>
<path id="Vector_6" d="M44.7408 21.8214C44.7408 33.8723 34.9705 43.6471 22.9195 43.6471C10.8685 43.6471 1.09375 33.8723 1.09375 21.8214C1.09375 9.77038 10.8641 2.67029e-05 22.9195 2.67029e-05C34.9749 2.67029e-05 44.7408 9.77038 44.7408 21.8214Z" fill="var(--fill-0, #EA7600)"/>
<path id="Vector_7" d="M15.8547 24.1797C15.837 24.2951 15.8414 24.2906 15.8636 24.2108C15.8636 24.2019 15.868 24.1886 15.868 24.1797H15.8547Z" fill="var(--fill-0, #1D1D1B)"/>
<path id="Vector_8" d="M9.25 26.3873C9.25 26.5204 9.25 26.5869 9.25 26.6136C9.25 26.5337 9.25 26.4583 9.25887 26.3828H9.25V26.3873Z" fill="var(--fill-0, #1D1D1B)"/>
<path id="Vector_9" d="M11.3672 18.6875C11.4293 18.7985 11.4959 18.9138 11.5713 19.0425C11.5802 19.0425 11.589 19.0425 11.5979 19.0381C11.5535 18.9804 11.4692 18.8517 11.3761 18.692H11.3716L11.3672 18.6875Z" fill="var(--fill-0, #1D1D1B)"/>
<path id="Vector_10" d="M10.4964 18.625C10.4831 18.6516 10.4742 18.6783 10.4609 18.7093H10.5009C10.5097 18.6738 10.5186 18.6428 10.5231 18.625H10.5009H10.4964Z" fill="var(--fill-0, #1D1D1B)"/>
<path id="Vector_11" d="M8.83983 25.4382L8.54698 25.487L8.40056 25.5092H8.38725C8.38725 25.5092 8.38725 25.5403 8.38281 25.558L8.4893 25.5447L8.70228 25.5092L9.27022 25.416C9.27022 25.416 9.27022 25.3805 9.27022 25.3672L8.83983 25.4382Z" fill="var(--fill-0, #1D1D1B)"/>
<path id="Vector_12" d="M11.3652 18.6607C11.3477 18.6343 11.3345 18.6079 11.3169 18.586H11.3125C11.3257 18.6079 11.3433 18.6343 11.3608 18.6607H11.3696H11.3652Z" fill="var(--fill-0, #1D1D1B)"/>
<path id="Vector_13" d="M10.5721 18.704H10.5011C10.5011 18.704 10.4966 18.7218 10.4922 18.7306H10.612L11.0868 18.6996C11.1799 18.6996 11.2775 18.6907 11.3663 18.6863C11.3663 18.6774 11.3574 18.6685 11.353 18.6641C11.0912 18.6774 10.8338 18.6907 10.5676 18.6996L10.5721 18.704Z" fill="var(--fill-0, #1D1D1B)"/>
<path id="Vector_14" d="M8.35156 25.5162H8.38262C8.39593 25.3343 8.37818 25.4097 8.35156 25.5162Z" fill="var(--fill-0, #1D1D1B)"/>
<path id="Vector_15" d="M9.91069 22.4602H9.91512C9.91956 22.4247 9.924 22.3848 9.92844 22.336C9.91956 22.3803 9.91512 22.4158 9.90625 22.4602H9.91069Z" fill="var(--fill-0, #1D1D1B)"/>
<path id="Vector_16" d="M21.0054 18.2657C20.9832 18.35 20.9699 18.3943 20.961 18.3899C20.9388 18.5186 20.9299 18.6073 21.0054 18.2834C21.0054 18.279 21.0054 18.2745 21.0054 18.2657Z" fill="var(--fill-0, #1D1D1B)"/>
<path id="Vector_17" d="M9.3344 16.7369C9.32996 16.7058 9.32553 16.7147 9.32996 16.7635C9.3344 16.8034 9.34327 16.8478 9.34771 16.8833C9.34327 16.8301 9.33884 16.7813 9.3344 16.7325V16.7369Z" fill="var(--fill-0, #1D1D1B)"/>
<path id="Vector_18" d="M16.6316 26.4375C16.6271 26.6505 16.6182 26.8546 16.6094 27.0277C16.6182 27.001 16.6271 26.7481 16.6316 26.4375Z" fill="var(--fill-0, #1D1D1B)"/>
<path id="Vector_19" d="M16.8759 25.8438L16.8359 25.8526C16.8492 25.9991 16.8581 26.2165 16.8759 25.8438Z" fill="var(--fill-0, #1D1D1B)"/>
<path id="Vector_20" d="M16.875 24.255H16.8927C16.8927 24.1086 16.8839 24.1618 16.875 24.255Z" fill="var(--fill-0, #1D1D1B)"/>
<path id="Vector_21" d="M16.8716 25.8392C16.8716 25.6928 16.8761 25.573 16.8805 25.4532C16.8761 25.6218 16.8716 25.7504 16.8672 25.8392H16.8716Z" fill="var(--fill-0, #1D1D1B)"/>
<path id="Vector_22" d="M9.47319 18.3727C9.52199 18.8297 9.55305 19.0471 9.50425 18.4304C9.50425 18.4082 9.49537 18.386 9.49093 18.3594L9.46875 18.3727H9.47319Z" fill="var(--fill-0, #1D1D1B)"/>
<path id="Vector_23" d="M9.25781 26.609V26.6401H9.27556V26.5469C9.27112 26.6046 9.26225 26.6445 9.25781 26.609Z" fill="var(--fill-0, #1D1D1B)"/>
<path id="Vector_24" d="M20.3984 18.9258H20.4072C20.3984 18.9785 20.4072 18.9566 20.4204 18.8907H20.4072C20.4072 18.8907 20.4028 18.9126 20.3984 18.9258Z" fill="var(--fill-0, #1D1D1B)"/>
<path id="Vector_25" d="M9.71306 26.5316C9.71306 26.4739 9.71306 26.4251 9.71306 26.3985H9.69975C9.69975 26.4384 9.69975 26.4872 9.69531 26.5316H9.70862H9.71306Z" fill="var(--fill-0, #1D1D1B)"/>
<path id="Vector_26" d="M20.54 18.2657C20.54 18.2657 20.5356 18.2964 20.5312 18.3096C20.5312 18.2964 20.54 18.2832 20.54 18.2657Z" fill="var(--fill-0, #1D1D1B)"/>
<path id="Vector_27" d="M9.32588 16.7621C9.3037 16.629 9.29038 16.5535 9.33032 17.0682H9.34807C9.33475 16.9262 9.32588 16.8197 9.32588 16.7621Z" fill="var(--fill-0, #1D1D1B)"/>
<path id="Vector_28" d="M16.8091 25.8643L16.8313 25.8554C16.8224 25.7667 16.8136 25.7046 16.8047 25.8643H16.8091Z" fill="var(--fill-0, #1D1D1B)"/>
<path id="Vector_29" d="M7.56351 29.2363H7.61232H7.7055C7.89185 29.2363 8.07377 29.2363 8.26013 29.2363V29.1875C8.04271 29.1875 7.8253 29.1875 7.60788 29.1875H7.5502C7.5502 29.3073 7.53689 29.4892 7.56351 29.2363Z" fill="var(--fill-0, #1D1D1B)"/>
<path id="Vector_30" d="M14.9419 27.375C14.9419 27.375 14.9419 27.4146 14.9375 27.4365C14.9375 27.4014 14.9375 27.3794 14.9375 27.375H14.9419Z" fill="var(--fill-0, #1D1D1B)"/>
<path id="Vector_31" d="M10.8993 23.6519C10.8682 23.7229 10.8816 23.6519 10.9126 23.4922H10.9082C10.8904 23.581 10.8771 23.6564 10.8594 23.7229H10.8816C10.8816 23.7229 10.8949 23.6786 10.8993 23.6519Z" fill="var(--fill-0, #1D1D1B)"/>
<path id="Vector_32" d="M8.46412 24.1099C8.473 24.0256 8.48187 23.9502 8.49518 23.8836C8.51737 23.5597 8.48187 23.8082 8.4375 24.1987C8.45969 24.0522 8.46412 24.0611 8.46412 24.1099Z" fill="var(--fill-0, #1D1D1B)"/>
<path id="Vector_33" d="M10.4062 20.8905C10.4062 20.8905 10.4062 20.8727 10.4062 20.8594C10.4062 20.8594 10.4062 20.886 10.4062 20.8905Z" fill="var(--fill-0, #1D1D1B)"/>
<path id="Vector_34" d="M8.30469 29.1088H8.32687C8.32687 28.9535 8.318 29.0201 8.30469 29.1088Z" fill="var(--fill-0, #1D1D1B)"/>
<path id="Vector_35" d="M8.28337 28.9532H8.27894C8.2745 29.0419 8.27006 29.1173 8.26562 29.1883H8.2745C8.2745 29.1351 8.27894 29.0596 8.28781 28.9532H8.28337Z" fill="var(--fill-0, #1D1D1B)"/>
<path id="Vector_36" d="M15.8984 24.2871C15.8984 24.2871 15.9072 24.252 15.9116 24.2344C15.9072 24.2564 15.9028 24.2696 15.8984 24.2871Z" fill="var(--fill-0, #1D1D1B)"/>
<path id="Vector_37" d="M10.9183 23.3404C10.9183 23.3404 10.9183 23.3404 10.9183 23.3448C10.905 23.3936 10.8961 23.4425 10.8828 23.5001H10.9094C10.9227 23.4469 10.9316 23.3936 10.9449 23.336H10.9227L10.9183 23.3404Z" fill="var(--fill-0, #1D1D1B)"/>
<path id="Vector_38" d="M7.54668 29.1948H7.55112C7.55112 29.0794 7.55112 29.0173 7.51562 29.4388H7.5245C7.53337 29.359 7.53781 29.2835 7.54668 29.1948Z" fill="var(--fill-0, #1D1D1B)"/>
<path id="Vector_39" d="M14.8383 28.9107C14.8161 29.3189 14.8339 29.2169 14.8561 28.9196C14.8561 28.9196 14.8561 28.9107 14.8561 28.9063H14.8383V28.9107Z" fill="var(--fill-0, #1D1D1B)"/>
<path id="Vector_40" d="M16.8447 24.4922C16.8447 24.4922 16.8403 24.5318 16.8359 24.5581C16.8359 24.5449 16.8403 24.5186 16.8447 24.4922Z" fill="var(--fill-0, #1D1D1B)"/>
<path id="Vector_41" d="M16.5881 26.8594L16.5703 26.8683C16.5703 27.0324 16.5792 26.9969 16.5881 26.8594Z" fill="var(--fill-0, #1D1D1B)"/>
<path id="Vector_42" d="M9.10806 23.873L10.2706 23.8065L10.8563 23.7754C10.8563 23.7754 10.8607 23.7443 10.8651 23.7266L9.75143 23.7931L8.92171 23.8375L8.53125 23.8597C8.53125 23.8597 8.53125 23.8908 8.53125 23.9085L9.1125 23.8774L9.10806 23.873Z" fill="var(--fill-0, #1D1D1B)"/>
<path id="Vector_43" d="M8.49325 23.8584H8.51543C8.55981 23.3703 8.53318 23.5167 8.48438 23.8805C8.48438 23.8939 8.48438 23.9072 8.48438 23.9293C8.48438 23.9027 8.49325 23.885 8.49325 23.8584Z" fill="var(--fill-0, #1D1D1B)"/>
<path id="Vector_44" d="M19.2399 20.9453C19.2399 20.9453 19.231 20.9941 19.2266 21.0341C19.2354 20.9853 19.2354 20.9587 19.2354 20.9453H19.2399Z" fill="var(--fill-0, #1D1D1B)"/>
<path id="Vector_45" d="M10.6972 19.375C10.6839 19.4283 10.6662 19.5037 10.6484 19.6191C10.6662 19.517 10.6839 19.4371 10.6972 19.375Z" fill="var(--fill-0, #1D1D1B)"/>
<path id="Vector_46" d="M9.27006 25.3688H9.27894C9.27894 25.3333 9.27894 25.2978 9.27894 25.2578C9.2745 25.2578 9.27006 25.2845 9.26562 25.3688H9.27006Z" fill="var(--fill-0, #1D1D1B)"/>
<path id="Vector_47" d="M12.1919 19.0671C12.1919 19.0094 12.1919 18.9561 12.1919 18.8985H12.1875C12.1875 19.0671 12.1919 19.2046 12.1964 19.3155H12.2008C12.2008 19.2268 12.2008 19.1425 12.1964 19.0626L12.1919 19.0671Z" fill="var(--fill-0, #1D1D1B)"/>
<path id="Vector_48" d="M8.30992 25.5C8.27443 25.8994 8.3188 25.6731 8.3543 25.5133H8.32324C8.31436 25.5621 8.30992 25.5488 8.31436 25.5H8.30992Z" fill="var(--fill-0, #1D1D1B)"/>
<path id="Vector_49" d="M19.2052 21.211C19.2008 21.242 19.1964 21.2775 19.1875 21.313C19.1919 21.2775 19.1964 21.242 19.2052 21.211Z" fill="var(--fill-0, #1D1D1B)"/>
<path id="Vector_50" d="M12.1841 18.8282H12.1797C12.1797 18.8501 12.1797 18.8721 12.1797 18.8853H12.1885C12.1885 18.8853 12.1885 18.8457 12.1841 18.8282Z" fill="var(--fill-0, #1D1D1B)"/>
<g id="Vector_51">
</g>
<path id="Vector_52" d="M10.7086 19.4058C10.7131 19.3703 10.7219 19.3392 10.7308 19.3126C10.7486 19.1706 10.7619 19.0419 10.6953 19.3703C10.7352 19.1928 10.7219 19.2904 10.7086 19.4058Z" fill="var(--fill-0, #1D1D1B)"/>
<path id="Vector_53" d="M9.72656 26.5283H9.74414V26.4844L9.72656 26.4932V26.5283Z" fill="var(--fill-0, #1D1D1B)"/>
<path id="Vector_54" d="M18.9987 22.2735C18.9943 22.309 18.9854 22.34 18.9766 22.3755H18.981C18.9899 22.34 18.9943 22.309 18.9987 22.2735Z" fill="var(--fill-0, #1D1D1B)"/>
<path id="Vector_55" d="M9.28125 25.3672C9.28125 25.3672 9.28125 25.398 9.28125 25.4156H9.29443C9.29443 25.4156 9.29443 25.3804 9.29443 25.3672H9.28125Z" fill="var(--fill-0, #1D1D1B)"/>
<path id="Vector_56" d="M12.1953 19.4448H12.1997C12.1997 19.4137 12.1997 19.3782 12.1997 19.3516H12.1953C12.1953 19.3871 12.1953 19.4181 12.1953 19.4448Z" fill="var(--fill-0, #1D1D1B)"/>
<path id="Vector_57" d="M20.2823 18.4844C20.2823 18.4844 20.2779 18.5022 20.2734 18.511H20.2823C20.2823 18.511 20.2867 18.4888 20.2867 18.4844H20.2779H20.2823Z" fill="var(--fill-0, #1D1D1B)"/>
<path id="Vector_58" d="M33.7481 11.7754C33.7481 11.7754 33.7481 11.7621 33.7481 11.7577C33.8102 11.7577 33.8768 11.7577 33.9389 11.7577C33.8768 11.7577 33.8102 11.7665 33.7436 11.771L33.7481 11.7754ZM28.5701 10.1559C28.5834 10.1293 28.5922 10.1071 28.5967 10.0938C28.6943 10.0938 28.7963 10.0938 28.8895 10.0849L31.6937 10.0272L32.9095 10.0006L33.0515 10.2224C31.5429 10.1958 30.0476 10.1736 28.5656 10.1515L28.5701 10.1559ZM26.0276 15.782C26.0454 15.6534 26.0498 15.5602 26.0276 15.5602C25.9433 15.5602 25.859 15.5602 25.7747 15.5558C25.7792 15.4936 25.7836 15.4315 25.788 15.3738C26.5157 15.4005 27.2434 15.4271 27.9711 15.4537C27.3233 15.5646 26.671 15.6756 26.0232 15.782H26.0276ZM26.8973 10.1293C27.4608 10.1204 28.0287 10.1071 28.5967 10.0938C28.5922 10.1071 28.5834 10.1337 28.5701 10.1559C28.011 10.147 27.4519 10.1381 26.8973 10.1293ZM24.2883 15.5158C23.9822 15.5114 23.6849 15.5025 23.3787 15.4936C23.392 15.3827 23.3787 15.4182 23.3565 15.4936C22.8285 15.4803 22.3005 15.467 21.7725 15.4537L20.366 15.3206L17.8679 15.0899C20.2196 15.1742 22.5801 15.2585 24.9317 15.3428L24.2883 15.5158ZM20.7564 18.2712H20.965C20.965 18.2712 20.9517 18.3156 20.9428 18.3467H20.5257C20.5257 18.3467 20.5346 18.3245 20.5346 18.3156C20.5346 18.3289 20.5302 18.3378 20.5257 18.3467H20.5168C20.5168 18.3467 20.5168 18.3333 20.5213 18.3245C20.5302 18.3067 20.5346 18.289 20.539 18.2712C20.539 18.2712 20.539 18.2579 20.5435 18.2535C20.5435 18.2535 20.5435 18.2668 20.539 18.2712H20.752H20.7564ZM20.4592 18.5863C20.468 18.5374 20.4813 18.4753 20.4947 18.4088C20.4991 18.3999 20.5035 18.3955 20.5035 18.3821C20.4414 18.6927 20.4459 18.6617 20.4547 18.5863H20.4592ZM20.3926 18.5419C20.3926 18.5419 20.3571 18.5463 20.3394 18.5463C20.3482 18.5241 20.3527 18.5064 20.3571 18.4798L20.4636 18.4709C20.4636 18.4709 20.4547 18.5064 20.4503 18.533H20.3926V18.5419ZM20.3349 18.5508H20.3172C20.3172 18.5508 20.3261 18.5064 20.3305 18.4886H20.3527C20.3527 18.4886 20.3394 18.5241 20.3349 18.5508ZM20.2284 18.9457H20.2151C20.2151 18.9457 20.224 18.9235 20.224 18.9102H20.2373C20.2373 18.9102 20.2329 18.9323 20.2284 18.9457ZM20.295 18.5241H20.2817C20.2817 18.5241 20.2772 18.5419 20.2728 18.5552C20.2728 18.5552 20.2639 18.5552 20.2595 18.5596C20.2595 18.5419 20.2684 18.5286 20.2728 18.5197L20.1663 18.5019L20.2595 18.4931H20.2817H20.3039C20.3039 18.4931 20.2994 18.5153 20.295 18.5241ZM20.1841 18.9501H20.153C20.153 18.9501 20.1574 18.9279 20.1619 18.919H20.1929C20.1929 18.9279 20.1885 18.9412 20.1841 18.9501ZM19.9045 19.9129C19.5673 19.9085 19.2345 19.8996 18.8973 19.8952C19.2035 19.8641 19.5096 19.8375 19.8158 19.8064C19.8247 19.8064 19.8291 19.8064 19.838 19.8064H19.909C19.9267 19.7576 19.9223 19.8064 19.909 19.9129H19.9045ZM15.8668 24.2124C15.8624 24.2479 15.8535 24.2745 15.8491 24.3056H15.8269L15.676 24.3322C15.676 24.2923 15.6805 24.2523 15.6805 24.2124L15.8535 24.1814C15.858 24.1414 15.8668 24.0926 15.8801 24.0305L15.8092 24.0438L15.6894 24.066C15.6894 24.0349 15.6938 24.0083 15.6982 23.9817C15.7426 23.9728 15.787 23.9684 15.8313 23.9595C15.9112 23.9462 16.0842 23.2185 16.0665 23.041H16.1153C16.0665 23.3206 15.9156 24.0083 15.8624 24.2124H15.8668ZM15.8402 24.3677L15.676 24.381V24.3766L15.7382 24.3633L15.8402 24.3455C15.8402 24.3455 15.8402 24.3633 15.8402 24.3677ZM16.2085 22.8724C16.1996 22.9079 16.1907 22.9434 16.1819 22.9834H16.1641C16.173 22.9479 16.1774 22.9079 16.1863 22.8769H16.2085V22.8724ZM17.3222 22.7393L18.4847 22.6018L18.7775 22.5707L18.9239 22.553C18.9195 22.5929 18.9106 22.6284 18.9062 22.6639L18.8352 22.6728L17.6239 22.8192L16.1863 22.9922C16.1952 22.9523 16.204 22.9124 16.2085 22.8769L17.3222 22.7438V22.7393ZM15.8269 24.4786C15.8225 24.5097 15.8136 24.5363 15.8136 24.5629L15.6716 24.5763C15.6716 24.5319 15.6716 24.4875 15.676 24.4343L15.8313 24.4165C15.8225 24.4742 15.8225 24.4875 15.8269 24.4786ZM15.7914 24.6827C15.787 24.7404 15.7914 24.7315 15.8047 24.6827L16.0576 24.6561L16.5634 24.6029L16.8119 24.5763C16.8119 24.5763 16.8119 24.6117 16.8119 24.6251C16.4259 24.665 16.0399 24.7049 15.6539 24.7449C15.6539 24.7271 15.6539 24.7138 15.6539 24.7005L15.787 24.6872L15.7914 24.6827ZM15.8757 24.4165L16.7099 24.3322L16.8474 24.3189C16.8474 24.3855 16.8474 24.4254 16.8474 24.4387C16.8474 24.4609 16.8474 24.4786 16.843 24.4964C16.8474 24.4609 16.8519 24.4742 16.8563 24.6162C16.8474 24.6162 16.8385 24.6162 16.8297 24.6162C16.8297 24.6029 16.8297 24.5807 16.8341 24.5629C16.8341 24.5807 16.8252 24.5629 16.8208 24.4565H16.7587L16.244 24.5141L15.8402 24.5541C15.8535 24.5141 15.8624 24.4653 15.8757 24.4076V24.4165ZM16.6433 25.6456C16.5901 25.6589 16.5368 25.6766 16.4791 25.6899H16.4392L16.204 25.721L16.1064 25.7343C16.2839 25.6855 16.4614 25.6367 16.6433 25.5879C16.6433 25.6101 16.6433 25.6278 16.6433 25.65V25.6456ZM16.7099 25.5657C16.7676 25.548 16.8208 25.3616 16.8652 25.1575C16.8652 25.2817 16.8652 25.4193 16.8652 25.5835L16.803 25.6012L16.6744 25.6323C16.6744 25.6323 16.6611 25.6367 16.6522 25.6367V25.5746C16.6522 25.5746 16.6877 25.5657 16.7099 25.5613V25.5657ZM16.6433 25.8009C16.6433 25.8009 16.6344 25.8009 16.6256 25.8009V25.7654H16.6433V25.7964V25.8009ZM16.4126 25.8231L16.488 25.8053L16.5856 25.7831H16.6211V25.7742H16.6256C16.6256 25.7742 16.6256 25.7876 16.6256 25.8053C16.559 25.8142 16.4836 25.8186 16.4126 25.8275V25.8231ZM15.645 24.7005H15.6583C15.6583 24.7005 15.6583 24.7271 15.6539 24.7449C15.6539 24.7449 15.6494 24.7449 15.645 24.7449C15.645 24.7271 15.645 24.7138 15.645 24.6961V24.7005ZM15.6627 24.3322C15.6627 24.2967 15.6672 24.2612 15.6672 24.2302C15.6672 24.2257 15.6672 24.2169 15.6672 24.2124H15.6805C15.6805 24.2523 15.676 24.2878 15.6716 24.3322H15.6583H15.6627ZM15.6583 24.4387H15.6716C15.6716 24.4831 15.6627 24.5274 15.6627 24.5763H15.6494C15.6494 24.5319 15.6539 24.4831 15.6583 24.4387ZM15.6405 24.3899C15.6405 24.3899 15.6405 24.3855 15.6405 24.381H15.645C15.645 24.381 15.645 24.381 15.645 24.3899H15.6361H15.6405ZM15.6272 24.4387H15.645C15.645 24.4831 15.645 24.5319 15.6361 24.5763H15.5917C15.605 24.5363 15.6139 24.4919 15.6272 24.4387ZM15.6938 24.066C15.6938 24.066 15.6938 24.0971 15.6894 24.1148C15.6894 24.1015 15.6894 24.0882 15.6894 24.0749C15.6894 24.0749 15.6894 24.0719 15.6894 24.066H15.6938ZM15.6272 24.7005C15.6272 24.7005 15.6272 24.7315 15.6272 24.7493C15.5917 24.7493 15.5562 24.7582 15.5207 24.7626C15.5296 24.7493 15.5385 24.7315 15.5474 24.7138L15.6272 24.7049V24.7005ZM15.6228 22.939L15.9511 22.8991L16.1286 22.9257C16.1419 22.8857 16.1419 22.9168 16.1286 22.9922H16.0576C15.9112 22.9789 15.7692 22.9612 15.6228 22.939ZM14.9173 27.2873C14.9173 27.3095 14.9173 27.3316 14.9173 27.3538H14.7753L14.6289 27.3627L14.9262 27.2873H14.9173ZM14.1719 27.3805L13.99 27.3893C14.3006 27.3095 14.6156 27.2296 14.9306 27.1453C14.9306 27.1586 14.9262 27.1764 14.9262 27.1897C14.6733 27.2562 14.4204 27.3183 14.1719 27.3805ZM13.9323 27.6955C13.9323 27.6955 13.9101 27.6955 13.9057 27.6999C13.6572 27.7132 13.4043 27.7221 13.1558 27.731C13.1691 27.731 13.178 27.7265 13.1869 27.7221C13.4398 27.7088 13.6838 27.6999 13.9323 27.6955ZM14.1719 27.6866C14.2651 27.6866 14.3582 27.6777 14.4514 27.6777L14.8241 27.66H14.8729C14.6289 27.6689 14.3893 27.6777 14.1453 27.6866H14.1719ZM14.9129 27.4958C14.9129 27.4958 14.904 27.5446 14.8996 27.5668C14.8996 27.5712 14.8996 27.5979 14.8996 27.66H14.8862C14.8862 27.66 14.8951 27.6023 14.8996 27.5668C14.8996 27.5579 14.8907 27.6112 14.8818 27.66C14.8818 27.66 14.8818 27.6201 14.8818 27.5757L14.5357 27.589L14.9129 27.4958ZM14.7088 28.6184C14.7664 28.6051 14.8241 28.401 14.8685 28.1836C14.8596 28.3078 14.8508 28.4453 14.8374 28.6095L14.7443 28.6317L14.5623 28.6805L13.8214 28.8624L12.3704 29.213C12.2861 29.2351 12.2107 29.2529 12.1264 29.2751C12.1264 29.2706 12.1264 29.2618 12.1264 29.2573C12.9872 29.0443 13.848 28.8358 14.7088 28.6228V28.6184ZM12.0909 29.4836C12.0909 29.4836 12.0865 29.4614 12.0776 29.4614C12.0776 29.4614 12.0776 29.4392 12.082 29.4259H12.051H11.7936C11.9001 29.3993 12.0022 29.3727 12.1087 29.3461C12.1042 29.3904 12.0954 29.4348 12.0909 29.4836ZM11.9223 30.3266C11.9223 30.3266 11.9179 30.3621 11.909 30.4065H11.8735C11.8735 30.4065 11.9046 30.371 11.9223 30.3266ZM11.9622 30.2113C11.8824 30.7482 11.9312 30.3311 11.9267 30.3178C11.9401 30.2867 11.9534 30.2512 11.9622 30.2113ZM11.4298 29.4259C11.6472 29.3727 11.8691 29.3194 12.0865 29.2662C12.0865 29.2706 12.0865 29.2751 12.0865 29.2795C12.0909 29.2795 12.0954 29.2795 12.0954 29.2795C12.0954 29.2706 12.0954 29.2662 12.0998 29.2618C12.1087 29.2618 12.1131 29.2618 12.122 29.2618C12.122 29.2618 12.122 29.2706 12.122 29.2795C12.1131 29.2795 12.1042 29.2839 12.0954 29.2884C12.0865 29.3283 12.082 29.3416 12.0865 29.2884C11.8913 29.3372 11.696 29.386 11.5008 29.4348H11.4342L11.4298 29.4259ZM11.1902 22.3001V22.2912H11.1725C11.1725 22.2912 11.1725 22.2912 11.1725 22.3001H11.1591V22.2912H11.137V22.3001C11.1059 22.3001 11.0748 22.3134 11.0393 22.3134C11.026 22.3134 11.0038 22.3577 10.9772 22.4154L10.183 22.5263L10.0321 22.5441L9.95227 22.553C9.96114 22.5042 9.96558 22.4731 9.96558 22.4465L10.0499 22.4332L10.6356 22.3577L11.1325 22.2912C11.1414 22.2646 11.1458 22.2335 11.1547 22.2113C11.1591 22.2113 11.168 22.2113 11.1769 22.2113C11.168 22.2379 11.1636 22.2646 11.1547 22.2912H11.168C11.168 22.2912 11.1769 22.2601 11.1769 22.2424H11.1991C11.1991 22.2424 11.1902 22.2734 11.1858 22.2912L11.3455 22.269H11.3721L11.381 22.2734C11.3144 22.2779 11.2479 22.2912 11.1858 22.2956L11.1902 22.3001ZM10.5735 20.9778H10.4891L10.6045 20.9689L10.8929 20.9423L11.4653 20.8891H11.523H12.4148L11.7138 20.9556L11.381 20.9823L10.5735 20.9734V20.9778ZM10.467 20.7826C10.4758 20.7249 10.4803 20.6983 10.4803 20.685C10.7687 20.6894 11.0571 20.6983 11.3411 20.7027L11.0926 20.7249L10.538 20.7737L10.467 20.7826ZM10.3827 21.0799C10.3827 21.0444 10.3915 21.0177 10.4004 20.9823C10.396 21.0177 10.3915 21.0532 10.3871 21.0799H10.3827ZM10.4182 20.8713C10.4093 20.9113 10.4048 20.9468 10.4004 20.9734C10.4093 20.9379 10.4137 20.9068 10.4182 20.8713ZM12.7432 27.7399C12.7432 27.7399 12.721 27.7487 12.7077 27.7532C12.65 27.7532 12.5923 27.7532 12.5346 27.7576C12.5479 27.7576 12.5612 27.7532 12.5701 27.7487C12.6278 27.7487 12.6855 27.7399 12.7432 27.7399ZM12.2773 19.2341V19.1453C13.0538 19.0832 13.8347 19.0166 14.6067 18.9545C14.7221 18.9767 14.833 18.9945 14.9484 19.0078C14.5623 19.0433 14.1763 19.0743 13.777 19.1098L12.508 19.2163L12.3483 19.2296L12.2773 19.2385V19.2341ZM12.2462 19.3272C12.2462 19.3051 12.2462 19.2518 12.2418 19.1498H12.264C12.264 19.1808 12.2551 19.2873 12.2507 19.3272H12.2462ZM13.1469 15.0632L13.0449 15.1786C12.9961 15.2008 12.9517 15.2274 12.8985 15.254L13.1913 14.9213C13.2179 14.9213 13.2445 14.9257 13.2667 14.9257L13.1425 15.0677L13.1469 15.0632ZM12.1797 18.6306V18.5685C12.1797 18.5685 12.1797 18.6084 12.1797 18.6306ZM11.8114 18.6484C11.7138 18.6484 11.6162 18.6572 11.5185 18.6617C11.5097 18.6439 11.4964 18.6262 11.4875 18.6084C11.5319 18.5996 11.5762 18.5907 11.6206 18.5774L12.0865 18.5552C12.0865 18.5552 12.1264 18.5596 12.1486 18.5641L11.8158 18.6484H11.8114ZM11.5629 18.7105C11.5718 18.7371 11.5629 18.7238 11.5363 18.6839C11.5895 18.6839 11.6428 18.6839 11.696 18.6839L11.5629 18.7149V18.7105ZM11.8691 17.1132L11.838 17.1487H11.8025L11.8691 17.1132ZM14.4692 15.254C14.4692 15.254 14.478 15.2629 14.4825 15.2674C14.4825 15.2674 14.4736 15.2585 14.4736 15.254H14.4692ZM13.8968 16.9978C14.0476 16.9978 14.1896 16.9934 14.3449 16.9889C14.1808 17.0333 14.021 17.0732 13.8569 17.1132C13.8657 17.0865 13.879 17.051 13.8968 16.9978ZM13.9944 16.0838L14.0698 16.0438C14.0565 16.1459 14.0521 16.2213 14.0787 16.2213C14.0831 16.2213 14.0876 16.2213 14.092 16.2213C14.0476 16.3722 14.0033 16.5186 13.9678 16.6473L13.1292 16.6606C13.1957 16.5852 13.2712 16.5008 13.3377 16.421L13.9944 16.0749V16.0838ZM14.0831 15.9507C14.0787 15.9728 14.0743 16.0039 14.0743 16.0261L13.4265 16.3677L13.3732 16.3944C13.4087 16.3544 13.4486 16.3145 13.4841 16.2701L14.0831 15.9551V15.9507ZM13.8702 16.9978C13.8569 17.0466 13.848 17.0865 13.8391 17.1132C13.462 17.122 13.0937 17.1265 12.7165 17.1309C12.752 17.091 12.7831 17.0555 12.8186 17.0155C13.1647 17.0111 13.5152 17.0022 13.8702 16.9978ZM13.2179 16.7538C13.1602 16.7538 13.107 16.7538 13.0449 16.7582C13.0671 16.7316 13.0893 16.7094 13.107 16.6872C13.3865 16.6872 13.6749 16.6783 13.9589 16.6739C13.95 16.6961 13.9456 16.7227 13.9367 16.7449C13.6971 16.7449 13.4531 16.7538 13.2135 16.7538H13.2179ZM15.0016 19.0166H15.006C15.0016 19.0521 14.9972 19.061 15.0016 19.0166ZM16.0931 22.6417L16.1952 22.655C16.1952 22.6772 16.1863 22.7038 16.1863 22.7171L15.9467 22.7438L15.6095 22.6994C15.7737 22.6772 15.9334 22.6595 16.0931 22.6417ZM20.2684 13.0355C19.8469 13.0444 19.4209 13.0444 18.9994 13.0533C16.8519 13.0888 14.6955 13.2308 12.5346 13.3994L9.88571 13.3017L9.10036 13.2707L8.7099 13.2574C8.7099 13.2574 8.71433 13.2263 8.71877 13.2041H8.86076L9.11367 13.1997L9.61505 13.1908C12.2595 13.1509 14.5268 13.1154 16.3727 13.0843M12.0377 9.90742H12.0111C11.98 10.2358 11.9933 10.045 12.0022 9.87636C12.681 9.86305 13.3599 9.85417 14.0388 9.8453C13.9323 9.87192 13.8258 9.90298 13.7193 9.93404L12.366 9.91185H12.1442L12.0332 9.90742H12.0377ZM18.813 21.2751L19.0083 21.2485H19.1103C19.1059 21.2928 19.1059 21.3195 19.1014 21.3372H19.0792C18.853 21.3372 18.6222 21.3372 18.3959 21.3372L18.813 21.2795V21.2751ZM19.1414 21.2307H19.1635C19.1635 21.2307 19.1547 21.284 19.1502 21.3283H19.1147C19.1147 21.3283 19.1325 21.2707 19.1414 21.2307ZM10.1652 30.899C10.041 30.9168 9.91677 30.9345 9.79253 30.9523C9.67273 30.899 9.5485 30.8458 9.42426 30.7925C9.55293 30.7748 9.68604 30.757 9.81916 30.7393C9.93452 30.7925 10.0499 30.8458 10.1652 30.899ZM9.77922 27.4736L9.73042 27.4869V27.4648C9.77479 27.4603 9.81916 27.4559 9.86353 27.4514L9.77922 27.4736ZM9.73042 26.3866C9.73042 26.3511 9.73042 26.32 9.73042 26.2978C9.73929 26.2978 9.74373 26.2978 9.7526 26.2934C9.7526 26.32 9.7526 26.3511 9.74816 26.3866H9.72598H9.73042ZM9.31333 25.366V25.3527L9.37989 25.3439L9.53519 25.3305L9.31333 25.366ZM9.34883 25.1398H9.36658C9.36214 25.2107 9.35327 25.193 9.34883 25.1398ZM11.0216 33.0599C11.0571 33.0066 11.0349 33.0066 11.0216 33.0599ZM8.27951 29.2928C8.27951 29.2928 8.28394 29.2573 8.28838 29.2351C8.36381 29.2351 8.43924 29.2351 8.51467 29.2351C8.43924 29.2573 8.35937 29.2751 8.27951 29.2928ZM8.47917 24.2435C8.47917 24.2435 8.48361 24.208 8.49248 24.1769H8.55904L8.8297 24.1547L9.0693 24.1414C8.86963 24.1769 8.6744 24.208 8.47917 24.239V24.2435ZM10.5113 18.4043C10.5246 18.3467 10.5335 18.3156 10.5335 18.3067C10.6888 18.3333 10.8441 18.3555 11.0038 18.3821L10.5113 18.4043ZM11.1458 17.0466C11.1946 17.0466 11.2479 17.0466 11.2967 17.0466L11.2745 17.0688L11.1414 17.051L11.1458 17.0466ZM46.5667 11.4781L46.6643 10.9767L43.1413 10.9412C43.2034 10.573 43.2078 10.4487 43.2078 10.4487H43.0437L42.4092 10.4354C40.7453 10.4044 41.7214 10.3733 40.5767 10.3556H40.5279C39.6671 9.73437 39.8224 9.61013 39.5783 9.43709H39.5473L39.321 9.44596L38.4203 9.47702C37.2356 9.51252 36.0953 9.54802 35.0038 9.57908L34.6177 9.58795L34.3648 9.18862L34.2051 8.71385L34.1962 8.70054C34.6089 8.90021 33.6238 8.4077 33.717 8.45651H33.6682L33.5795 8.46094H33.3931L33.0248 8.46982L32.306 8.48313L30.9128 8.50975C29.0981 8.54525 27.4608 8.57631 25.9744 8.60736C24.8252 8.62955 23.7736 8.65174 22.8064 8.66948C22.5712 8.57631 22.3405 8.47425 22.1053 8.38108C21.9189 8.30565 21.3022 7.89744 21.0582 7.95956C20.0554 8.22578 19.0571 8.49644 18.0543 8.7671C13.2224 8.86471 12.2995 8.89577 12.2995 8.89577L12.2507 8.91796C11.4609 8.92683 10.6711 8.94014 9.88127 8.94902C9.80141 8.95345 9.58843 9.91185 9.66386 9.91185C10.4448 9.89854 11.2213 9.88523 11.9977 9.87192C11.9889 9.97841 11.9711 10.147 11.9489 10.3999C11.9134 10.4132 11.8779 10.4221 11.8424 10.431C11.8336 10.431 11.8203 10.4487 11.8069 10.4709L0 10.9235L11.665 10.9368C11.6428 11.0522 11.625 11.1675 11.6162 11.2518C11.137 11.2873 10.6666 11.3184 10.2052 11.3495L9.14916 11.4249H9.08705L9.05599 11.4338C9.07373 11.3184 9.02493 11.5713 8.95393 11.9485C8.86519 12.1881 8.7587 12.7471 8.7942 12.7959C8.7587 12.969 8.72765 13.1331 8.70546 13.2618H8.51467L8.41705 13.2485C8.24401 13.9895 8.58566 12.1215 8.2307 13.7632C8.20851 13.7632 8.18633 13.7632 8.1597 13.7676C8.07096 13.7765 7.86686 14.7216 7.94229 14.726C7.96891 14.726 7.99997 14.726 8.02659 14.726C7.99554 14.8858 7.96448 15.0544 7.92011 15.2407L9.50856 15.1076C10.4226 15.0322 11.3322 14.9568 12.2329 14.8769C12.5435 14.8902 12.8541 14.8991 13.1602 14.908L12.8452 15.2674C11.9356 15.7466 11.0216 16.2258 10.1164 16.705L9.37102 16.7183C9.29115 16.1193 9.29115 16.3056 9.32221 16.7316L9.44201 16.7404L9.92565 16.7316H10.0765C10.0321 16.7538 9.98776 16.7759 9.93896 16.7981C9.76147 16.8026 9.57512 16.807 9.39764 16.807H9.33996C9.34883 17.0022 9.34439 16.9667 9.33108 16.8824C9.33552 16.9401 9.33996 17.0067 9.34439 17.0688H9.43313C9.40651 17.0821 9.37545 17.0998 9.34883 17.1176C9.34883 17.1043 9.34883 17.0865 9.34439 17.0688H9.33552C9.33552 17.0688 9.33552 17.1043 9.33552 17.1176C9.33108 17.1176 9.32665 17.1265 9.31777 17.1265C9.31777 17.1043 9.31777 17.091 9.31777 17.0732H9.24234C9.22903 17.0289 9.23347 17.0732 9.24234 17.1708C9.23347 17.1797 9.22459 17.1797 9.21128 17.1886C9.08705 17.2551 8.94062 18.147 8.99387 18.147C9.10923 18.147 9.22459 18.1426 9.34439 18.1426C9.37545 18.4176 9.39764 18.5374 9.36658 18.147H9.37545C9.37545 18.147 9.39764 18.1381 9.40651 18.1381C9.41095 18.218 9.41982 18.2978 9.42426 18.3866L9.45532 18.3733C9.44644 18.3023 9.43757 18.2224 9.43313 18.1426H9.45088C9.45976 18.2313 9.47307 18.3067 9.4775 18.36L9.53519 18.3289L9.75704 18.2091L9.90346 18.1337C9.95227 18.1337 9.99664 18.1337 10.041 18.1337L9.77035 18.2757L9.53519 18.3999L9.48194 18.4265C9.49082 18.4753 9.49969 18.4842 9.50413 18.4354L9.61949 18.3777L9.85022 18.2535L10.0809 18.1337C10.1919 18.1337 10.3028 18.1337 10.4137 18.1292C10.4004 18.2269 10.4048 18.2934 10.427 18.2978C10.4359 18.2978 10.4492 18.2978 10.4625 18.3023C10.4492 18.3644 10.4492 18.3821 10.4714 18.3112C10.4714 18.3112 10.4714 18.3067 10.4714 18.3023V18.3112C10.3782 18.6572 10.4359 18.4975 10.4803 18.3821C10.4847 18.36 10.4936 18.3333 10.498 18.3112H10.5069C10.5069 18.3112 10.5069 18.3156 10.5069 18.32V18.3112C10.5069 18.3112 10.4936 18.3511 10.4891 18.3688C10.4891 18.3555 10.498 18.3333 10.5025 18.32C10.4936 18.3333 10.4847 18.36 10.4758 18.3821C10.4537 18.462 10.427 18.5508 10.4048 18.6351H10.4093C10.2806 19.0876 10.3605 18.888 10.4315 18.7149H10.4048C10.3827 18.777 10.3871 18.7371 10.4137 18.6351H10.467C10.4936 18.5685 10.5113 18.5463 10.4891 18.6351H10.538L10.8086 18.6173L11.2789 18.5996C11.2523 18.5508 11.2257 18.502 11.1991 18.4576C11.2257 18.5064 11.2568 18.5552 11.2834 18.5996H11.31C11.3277 18.6218 11.3411 18.6484 11.3588 18.675H11.3322C11.3322 18.675 11.3411 18.6883 11.3455 18.6972H11.3721C11.4742 18.8747 11.5407 18.9812 11.5762 19.0433H11.5673C11.5851 19.0655 11.594 19.0788 11.5984 19.0788C11.6339 19.132 11.6206 19.1054 11.5984 19.0566L11.7182 19.0255L11.9622 18.9634L12.1575 18.9146C12.1575 18.9146 12.1575 18.9013 12.1575 18.8924C11.9667 18.9412 11.7803 18.99 11.5895 19.0388C11.5363 18.9279 11.4387 18.7416 11.5807 18.9812L11.6916 18.9545L12.153 18.8392C12.153 18.7815 12.153 18.7238 12.153 18.6617C12.153 18.7194 12.153 18.777 12.1575 18.8392H12.1619V18.8968V18.9146C12.1619 18.9678 12.1619 19.0255 12.1619 19.0832C12.1619 19.1586 12.1663 19.2474 12.1708 19.3361V19.3672C12.1708 19.3982 12.1708 19.4293 12.1708 19.4603C12.1708 19.4958 12.1708 19.5269 12.1708 19.5668H12.1752V19.5846C12.1752 19.5846 12.1708 19.5846 12.1663 19.5846C12.1663 19.5491 12.1663 19.5092 12.1663 19.4603L10.711 19.4293C10.7154 19.4071 10.7243 19.376 10.7332 19.3361H10.8086L11.097 19.345L11.6738 19.3583L12.1619 19.3716V19.3406L11.3366 19.3228L10.8752 19.3139H10.7598C10.8707 18.675 10.8131 18.8747 10.711 19.3272C10.6977 19.4293 10.6888 19.5402 10.7021 19.4825C10.6578 19.6645 10.6755 19.5358 10.6888 19.4204C10.6755 19.487 10.6622 19.558 10.6444 19.629H10.7465L11.0172 19.6334C11.1858 19.6378 11.3544 19.6423 11.523 19.6467C11.2257 19.6733 10.924 19.7044 10.6223 19.731C10.6267 19.6955 10.6356 19.66 10.6444 19.629H10.6267C10.6223 19.66 10.6134 19.6955 10.6089 19.731H10.6045C10.6134 19.6955 10.6178 19.66 10.6267 19.629H10.6089C10.6001 19.6645 10.5956 19.7 10.5912 19.7354C10.5823 19.7354 10.5735 19.7354 10.5601 19.7354C10.4714 19.7443 10.2717 20.6938 10.3427 20.6938H10.4093C10.4004 20.7604 10.3915 20.8092 10.3871 20.8403H10.3915C10.4048 20.7915 10.4093 20.7382 10.4182 20.6938H10.427C10.4182 20.7427 10.4093 20.787 10.4004 20.8403C10.4093 20.7959 10.4182 20.7471 10.427 20.6938H10.4448C10.4359 20.716 10.4182 20.7826 10.4004 20.8403V20.8491C10.4004 20.858 10.4004 20.858 10.4004 20.8625C10.4004 20.858 10.4004 20.8491 10.4004 20.8403H10.3915C10.3915 20.8403 10.3915 20.8625 10.3827 20.8758H10.3915L10.3827 20.9068C10.3782 20.9334 10.3693 20.9556 10.3649 20.9867H10.1919C10.1297 21.3017 10.1652 20.9867 10.1697 20.8802H10.3782C10.3782 20.8802 10.3782 20.858 10.3827 20.8447H10.2141C10.2895 20.228 10.2451 20.4143 10.1697 20.8491C10.1652 20.8491 10.1475 20.9334 10.1031 21.1597H10.112C10.1297 21.071 10.1431 20.9778 10.1608 20.8802C10.1475 20.9689 10.1297 21.0621 10.112 21.1642H10.3782L10.6977 21.173C10.5025 21.1997 10.2984 21.2263 10.0987 21.2529C10.1031 21.2263 10.112 21.1952 10.1164 21.1642C10.112 21.1908 10.1076 21.2219 10.1031 21.2529C10.1031 21.2529 10.0987 21.2529 10.0943 21.2573C10.0987 21.2263 10.1031 21.1908 10.1076 21.1642C10.1076 21.1154 10.0943 21.1642 10.0765 21.2573C10.0676 21.2573 10.0588 21.2573 10.0499 21.2573C9.94783 21.2707 9.76591 22.2113 9.83247 22.2157H9.92565C9.92121 22.269 9.91233 22.3089 9.9079 22.3533C9.91677 22.3089 9.92121 22.2601 9.93008 22.2157H9.93896C9.92121 22.3222 9.9079 22.4065 9.89459 22.4775H9.89015C9.88571 22.513 9.88571 22.5397 9.88571 22.5485C9.8369 22.8769 9.87684 22.7127 9.91233 22.5663C9.91233 22.5397 9.91233 22.513 9.92121 22.4775H9.9079C9.91677 22.4332 9.92564 22.3844 9.93896 22.3045C9.93896 22.2779 9.94339 22.2468 9.95227 22.2202C10.1342 22.2202 10.3205 22.2246 10.5069 22.2246L10.1519 22.2734L10.0099 22.2956L9.93896 22.3045C9.93008 22.371 9.92564 22.4287 9.91677 22.4775H9.93008C9.93008 22.4997 9.91677 22.5352 9.9079 22.5663C9.89902 22.6417 9.90346 22.6683 9.92121 22.6151L10.9373 22.4775C10.8441 22.7438 10.7332 23.2851 10.7953 23.2939C10.8219 23.2939 10.8574 23.2984 10.884 23.3073C10.8707 23.3738 10.8707 23.4004 10.884 23.3649C10.8885 23.3428 10.8929 23.3206 10.8974 23.3073C10.9062 23.3073 10.9151 23.3073 10.9195 23.3073C10.9195 23.325 10.9151 23.3383 10.9107 23.3561H10.9151C10.9151 23.3561 10.9195 23.325 10.924 23.3073C10.9861 23.3161 11.0527 23.3294 11.1103 23.3339L10.9107 23.3561C10.8974 23.4137 10.884 23.467 10.8796 23.5114H10.9195L11.4964 23.4404L11.7138 23.4137C11.8646 23.4315 12.0111 23.4492 12.1619 23.4714L11.554 23.5469L10.9506 23.6179L10.8752 23.6312C10.8752 23.6312 10.8663 23.6622 10.8663 23.6755L10.9728 23.6622L11.1902 23.6356L12.0687 23.5291L12.3216 23.4981C12.4548 23.5158 12.5879 23.5335 12.7254 23.5557C12.4725 23.5957 12.2152 23.64 11.9622 23.6844L11.3632 23.7155L10.8485 23.7465C10.8485 23.7465 10.8397 23.7776 10.8352 23.7953L11.5097 23.7554C11.2789 23.7953 11.0438 23.8308 10.8131 23.8663C10.8175 23.8486 10.8264 23.8175 10.8308 23.7953H10.8086C10.8042 23.822 10.7997 23.8486 10.7953 23.8708C10.6444 23.8974 10.4891 23.9196 10.3339 23.9462L9.62393 23.9861L8.51023 24.0482H8.43924C8.43924 24.0172 8.44368 23.9817 8.44811 23.9551C8.43924 24.0305 8.43036 24.1015 8.42149 24.168V24.2612H8.41262C8.41262 24.2302 8.42149 24.1991 8.42149 24.1636V24.1281C8.41705 24.1725 8.41262 24.2168 8.40374 24.2612C8.40374 24.2612 8.40374 24.2612 8.39931 24.2612C8.39931 24.2612 8.39487 24.2657 8.39043 24.2657C8.39043 24.2479 8.39487 24.2302 8.39487 24.2124C8.39487 24.2302 8.39043 24.2435 8.39043 24.2657C8.27507 24.3411 8.13752 25.2196 8.18189 25.2196C8.21295 25.2196 8.24401 25.2196 8.27507 25.2107C8.27507 25.2329 8.27507 25.2507 8.27063 25.2729H8.28838C8.27951 25.3794 8.27063 25.4637 8.26619 25.5125C8.27063 25.4592 8.27951 25.3882 8.28838 25.3084C8.28838 25.295 8.28838 25.2817 8.28838 25.2684C8.28838 25.2684 8.28838 25.2285 8.29725 25.2063C8.48805 25.193 8.67884 25.1841 8.87407 25.1708L8.40374 25.2462L8.29282 25.264C8.29282 25.264 8.28838 25.2862 8.28838 25.3039C8.27951 25.406 8.27951 25.4548 8.29282 25.4015L8.4348 25.3794L8.71877 25.335L9.2379 25.2507V25.264C9.2379 25.264 9.24678 25.3084 9.25122 25.3572C9.25122 25.3172 9.25122 25.2817 9.25122 25.2462C9.25122 25.2862 9.25122 25.3217 9.25122 25.3705C9.25122 25.3705 9.25122 25.4015 9.25122 25.4148H9.25565C9.25565 25.4148 9.25565 25.4148 9.25122 25.4193V25.4148C9.25122 25.4148 9.24234 25.4326 9.2379 25.437C9.2379 25.4326 9.2379 25.4237 9.2379 25.4193H9.22903C9.22903 25.4193 9.22903 25.4415 9.22903 25.4503C9.1181 25.6456 9.0338 26.3644 9.05599 26.3599C9.10923 26.3555 9.15804 26.3511 9.21128 26.3466V26.391H9.22459C9.22459 26.391 9.22459 26.3599 9.22459 26.3466H9.23347C9.23347 26.3466 9.23347 26.3732 9.23347 26.3866H9.24678V26.3422C9.34439 26.3289 9.44201 26.32 9.53519 26.3111L9.34439 26.3599L9.24678 26.3821C9.24678 26.4354 9.24678 26.493 9.24678 26.5507C9.26009 26.4354 9.2734 26.2668 9.2734 26.5019L9.33996 26.4842L9.61062 26.4176L9.67717 26.3999C9.67717 26.3511 9.67717 26.3156 9.68161 26.2934H9.68604C9.68604 26.2934 9.69048 26.3289 9.69048 26.3644C9.69048 26.3644 9.69048 26.3777 9.68604 26.3954H9.69492C9.69492 26.4221 9.69492 26.4487 9.69492 26.4842C9.69492 26.4531 9.69492 26.4221 9.69492 26.3954L9.7171 26.3866C9.7171 26.4176 9.71267 26.4531 9.71267 26.4842L9.81472 26.4753L9.93896 26.462C9.87684 26.4797 9.81028 26.493 9.74816 26.5108L9.71267 26.5197C9.71267 26.5197 9.71267 26.5197 9.71267 26.5241C9.70823 26.5241 9.69936 26.5241 9.69936 26.5374V26.5285H9.68604C9.68604 26.5285 9.68604 26.5507 9.68604 26.5552C9.68604 26.564 9.67717 26.564 9.67273 26.5729V26.5285L9.57956 26.5552L9.29559 26.6217L9.24234 26.635C9.24234 26.635 9.24234 26.6661 9.24234 26.6883L9.44201 26.635L9.6683 26.5818C9.55737 26.7948 9.48194 27.4781 9.50413 27.4736C9.56181 27.4692 9.61949 27.4648 9.67717 27.4559C9.67717 27.4825 9.67717 27.4914 9.68161 27.4869C9.68161 27.4736 9.68161 27.4648 9.68161 27.4559C9.68604 27.4559 9.69048 27.4559 9.69492 27.4559C9.69492 27.4648 9.69492 27.4692 9.69492 27.4781H9.68604C9.68604 27.4781 9.68604 27.4869 9.68161 27.4914C9.68161 27.5091 9.68161 27.5269 9.68161 27.5446C9.36214 27.5579 9.05155 27.5668 8.73208 27.5801L8.42149 27.5934H8.34162C8.34162 27.5934 8.33719 27.6156 8.33719 27.6289C8.33719 27.6289 8.34162 27.6334 8.34162 27.6467L8.57235 27.6378L9.0338 27.6201C9.20241 27.6156 9.37102 27.6067 9.54406 27.5979C9.28227 27.6644 9.02049 27.731 8.7587 27.7975L8.43036 27.8108H8.32831C8.32831 27.8463 8.32388 27.8774 8.32388 27.904H8.3505C8.3505 27.904 8.33275 27.904 8.32388 27.9085L8.31944 27.904C8.31944 27.8863 8.32388 27.8597 8.32831 27.8153C8.33275 27.7532 8.33719 27.691 8.34162 27.6245C8.33719 27.6245 8.32831 27.731 8.315 27.904C8.30613 27.833 8.31056 27.5535 8.28838 27.8242C8.28838 27.8463 8.28838 27.8818 8.29282 27.9173C8.29282 27.9173 8.29282 27.9173 8.28838 27.9173C8.28838 27.9173 8.28838 27.9173 8.28394 27.9173C8.28394 27.8818 8.28838 27.8508 8.28838 27.8242C8.28838 27.802 8.28394 27.8108 8.27507 27.9262C8.15527 28.0238 8.03103 28.8757 8.07096 28.8757C8.12865 28.8757 8.18189 28.8757 8.23957 28.8669C8.23957 28.8979 8.23957 28.9245 8.23957 28.9512H8.25288C8.25288 28.9201 8.25732 28.8935 8.25732 28.8669H8.26176C8.26176 28.8979 8.25732 28.9201 8.25732 28.9467L8.28838 28.9379L8.50579 28.8802L8.63447 28.8491C8.89625 28.8402 9.1536 28.8314 9.41539 28.8225H9.38876L8.44368 29.0665L8.32831 29.0931H8.30613C8.30613 29.1153 8.30613 29.1331 8.30613 29.1508L8.46142 29.1109L9.10036 28.9512L9.65055 28.8136C9.85909 28.8047 10.0721 28.7914 10.2806 28.787C9.74816 28.9201 9.21128 29.0532 8.67884 29.1819C8.54573 29.1819 8.40818 29.1819 8.27507 29.1819C8.2795 29.1553 8.28394 29.1286 8.28838 29.1065H8.27063C8.27063 29.1375 8.26619 29.1597 8.26619 29.1819H8.25288C8.25288 29.1819 8.25288 29.213 8.25288 29.2263C8.25288 29.2263 8.26176 29.2263 8.26619 29.2263C8.26619 29.2484 8.26619 29.2662 8.26176 29.2839C8.26176 29.2839 8.25732 29.2839 8.25288 29.2839C8.25288 29.2706 8.25288 29.2484 8.25288 29.2218H8.24845C8.24845 29.244 8.24401 29.2662 8.24401 29.2839C8.05765 29.3283 7.8713 29.3727 7.68938 29.4215H7.5119C7.5119 29.4215 7.5119 29.4526 7.50746 29.4703C7.50746 29.4703 7.50302 29.4703 7.49859 29.4703C7.49859 29.4526 7.49859 29.4392 7.49859 29.4215H7.47197V29.4747H7.46309C7.46309 29.4747 7.46309 29.4392 7.46753 29.4215C7.46753 29.386 7.46753 29.386 7.45422 29.4747C7.45422 29.4747 7.44978 29.4747 7.44534 29.4747C7.37435 29.4925 7.29005 29.843 7.24568 30.1137C7.2368 30.1137 7.23237 30.1137 7.22349 30.1137C7.14362 30.127 6.9129 31.0499 7.00608 31.0765C7.0327 31.0809 7.05932 31.0854 7.08151 31.0987C7.05045 31.2185 7.06819 31.1697 7.09038 31.0987C7.09925 31.0987 7.11256 31.0987 7.12144 31.1076C7.07707 31.2806 7.05045 31.3693 7.07707 31.3028H7.08594C7.09482 31.2584 7.11257 31.1919 7.13475 31.112C7.27674 31.1519 7.42316 31.1919 7.56071 31.2362L7.41872 31.254L7.11257 31.2984H7.08151C7.06819 31.3605 7.06376 31.3782 7.08151 31.3383L7.18356 31.325C7.33442 31.3072 7.48528 31.285 7.63613 31.2629C8.16858 31.4315 8.68771 31.6223 9.19353 31.8308C9.66386 32.0305 10.0943 32.2701 10.4891 32.5585C10.6888 32.7005 10.8441 32.8779 10.9506 33.0998C10.9062 33.153 10.8352 33.224 10.7154 33.3305C9.06486 34.7504 6.04768 35.1541 4.10869 35.9351C2.32057 36.6494 1.16694 37.5413 0.847473 39.2406C0.709925 39.9905 0.92734 40.6383 1.26899 41.224C1.83249 42.1913 3.44758 43.762 2.88407 45.133C2.80421 45.3194 2.71103 46.0426 2.74652 45.9583C3.68274 43.6821 2.70215 42.2356 1.65058 40.5363C1.36661 40.0837 0.803103 39.2628 1.21575 38.6283C1.59733 38.0427 2.35163 37.63 2.96838 37.3061C4.33942 36.5917 5.85245 36.1747 7.28117 35.6999C8.93175 35.1497 10.924 34.6439 11.2213 32.8513C11.3677 31.9728 10.6977 31.3782 9.82359 30.9567C9.94339 30.939 10.0721 30.9256 10.1963 30.9079C10.3427 30.9789 10.4891 31.0588 10.6267 31.1386C11.1325 31.5025 11.8913 31.782 11.8957 32.909C11.6827 34.0582 9.65055 35.1674 10.5335 34.6528C10.9462 34.3954 11.5673 34.0094 11.838 33.2418C12.1442 32.4609 11.6383 31.8397 11.3233 31.5868C10.9905 31.3117 10.6356 31.0898 10.2629 30.9035C10.396 30.8857 10.5246 30.868 10.6578 30.8502L11.5762 30.7215L11.8114 30.6905L11.8691 30.6816C11.8913 30.5485 11.909 30.4243 11.9267 30.3178C11.8868 30.5662 11.8602 30.7215 11.8646 30.6372H11.8203L11.6472 30.6683L11.3011 30.7171L10.6223 30.8103C10.4803 30.8325 10.3427 30.8502 10.1963 30.868C10.0854 30.8147 9.97001 30.757 9.85465 30.7082C9.91233 30.6994 9.97002 30.6905 10.0277 30.686L11.1015 30.5396L11.6561 30.4642L11.7981 30.4464L11.8691 30.4376C11.9312 30.0515 11.8069 31.0099 11.9356 30.1713C11.9489 30.1314 11.9578 30.087 11.9667 30.0427C11.9534 30.1359 11.9401 30.229 11.9267 30.3133C11.9445 30.2113 11.9578 30.1181 11.9711 30.0294C12.0066 29.8652 12.0377 29.6833 12.051 29.5635L13.8702 29.1198L14.447 28.9778L14.7398 28.9068L14.7975 28.8935V28.8447L14.7443 28.858L14.5268 28.9112L13.6705 29.1198C13.1247 29.2529 12.5879 29.386 12.0554 29.5147V29.4836C12.0643 29.4259 12.0732 29.3727 12.0776 29.3283C12.6145 29.1996 13.1514 29.0665 13.706 28.9334L14.4692 28.7471L14.6644 28.6983L14.762 28.6761L14.8108 28.6628C14.8286 28.4365 14.8419 28.2457 14.8552 28.0904C14.8685 28.015 14.8818 27.9351 14.8907 27.873C14.8729 28.2057 14.8419 28.6317 14.8197 28.9024C14.8286 28.9911 14.8641 28.4098 14.8907 27.8641C14.9084 27.7532 14.9129 27.6689 14.904 27.6467C14.904 27.5757 14.9084 27.5224 14.9129 27.4692C14.9129 27.5269 14.9084 27.5801 14.904 27.6422C14.904 27.6422 14.904 27.6378 14.8996 27.6422C14.8951 27.6422 14.8907 27.6422 14.8862 27.6422C14.8907 27.5535 14.8951 27.5003 14.8951 27.4736H14.9129V27.4204C14.6999 27.4736 14.4869 27.5269 14.2739 27.5801L13.5374 27.6067C13.6261 27.5846 13.7104 27.5624 13.7992 27.5446L14.3627 27.3982H14.3716L14.7975 27.3849H14.904C14.904 27.3627 14.9084 27.3538 14.9129 27.3583C14.9129 27.3228 14.9129 27.2917 14.9129 27.2607L15.6272 27.0832L16.5368 26.8524V26.7504L16.4791 26.7637L16.3682 26.7948L16.1419 26.8524L15.2412 27.0832C15.1303 27.1098 15.0238 27.1364 14.9129 27.163V27.1231C15.4187 26.99 15.929 26.8658 16.4303 26.7326C16.488 26.7193 16.5368 26.5596 16.5768 26.3732C16.5723 26.5552 16.559 26.7282 16.5546 26.8391C16.5546 26.9057 16.5546 26.9545 16.5546 26.9944L16.4481 27.0166L16.1952 27.0832L15.1968 27.3361C15.0992 27.3583 15.0016 27.3849 14.904 27.4071C14.904 27.4204 14.904 27.4381 14.904 27.4603L15.6849 27.2607L16.3682 27.0876L16.5368 27.0477C16.5368 27.6067 16.5546 27.416 16.5723 27.0077C16.5723 27.0166 16.5723 27.0077 16.5679 26.9856C16.5723 26.8436 16.5812 26.5729 16.5856 26.3067C16.5901 26.2801 16.5945 26.2534 16.6034 26.2224C16.6034 26.2889 16.6034 26.3555 16.6034 26.4176C16.6034 26.3466 16.6034 26.2756 16.6078 26.2046C16.6256 26.0982 16.6433 25.9917 16.6478 25.9162L16.7631 25.8807C16.7631 25.8807 16.7631 25.8452 16.7631 25.8275L16.6478 25.8586C16.6522 25.8009 16.6522 25.7609 16.6478 25.7609C16.6389 25.7654 16.6256 25.7654 16.6123 25.7654C16.6123 25.7521 16.6123 25.7388 16.6123 25.7254L16.701 25.7033L16.8297 25.6678C16.8297 25.4282 16.8297 25.2329 16.8341 25.0643C16.8385 25.0377 16.843 25.0066 16.8474 24.9756C16.8474 25.1043 16.843 25.2507 16.8385 25.4193C16.8385 25.2906 16.8474 25.1398 16.8474 24.9578C16.8785 24.7537 16.8962 24.5763 16.8829 24.5763C16.874 24.5763 16.8652 24.5763 16.8563 24.5763C16.8563 24.4653 16.8563 24.35 16.8607 24.2213H16.8474C16.8474 24.2878 16.8474 24.3988 16.8474 24.5763C16.8385 24.5763 16.8341 24.5763 16.8297 24.5763C16.8297 24.4165 16.8252 24.3411 16.8208 24.31C16.8208 24.279 16.8252 24.2479 16.8297 24.2213H16.7676L16.0088 24.3056L15.8446 24.3233C15.8491 24.3012 15.8535 24.279 15.8624 24.2523H15.8313C15.9068 23.9551 16.0399 23.3472 16.1064 22.9878H16.1286C16.0754 23.254 15.9911 23.64 15.8713 24.1947C15.9556 23.8353 16.0621 23.3383 16.1286 22.9878L17.3799 22.8369L18.2761 22.7304L18.7243 22.6772L18.8352 22.6639C18.7731 23.0721 18.7731 23.1209 18.813 22.9789C18.813 22.9567 18.8219 22.9035 18.8308 22.8103C18.8219 22.8991 18.8751 22.6639 18.9328 22.34L18.7953 22.3577L17.6594 22.4908L16.1952 22.6683C16.1863 22.6994 16.1774 22.7438 16.1686 22.7926C16.1774 22.7438 16.1863 22.7038 16.1907 22.6683H16.1641C16.173 22.6417 16.1819 22.6106 16.1907 22.5796C16.1952 22.5796 16.1996 22.5796 16.204 22.5796C16.204 22.6018 16.1952 22.6328 16.1907 22.6683H16.1952C16.1996 22.6328 16.204 22.6018 16.2085 22.5751C17.1003 22.4687 17.9877 22.3622 18.8796 22.2557C18.9106 22.2557 18.9506 22.1581 18.9861 22.0383C18.9772 22.1004 18.9639 22.1669 18.955 22.2379C18.9728 22.1536 18.9861 22.0649 19.0038 21.9806C19.0127 21.9495 19.0216 21.9096 19.0304 21.8741C18.9461 22.3311 18.853 22.8059 18.8086 22.9789C18.8041 23.0765 18.9239 22.4553 19.0304 21.8652C19.0659 21.7144 19.097 21.5502 19.1059 21.4348C19.1147 21.3949 19.1192 21.355 19.1281 21.3195C19.1192 21.3594 19.1147 21.3949 19.1059 21.4348C19.1059 21.3993 19.1103 21.3771 19.1103 21.355C19.1103 21.3417 19.1103 21.3328 19.1147 21.3195H19.1192C19.1192 21.3195 19.1281 21.2973 19.1281 21.284H19.1192C19.1281 21.2485 19.1281 21.213 19.1325 21.1819H19.1414C19.1502 21.1065 19.1591 21.0488 19.168 20.9956L18.8441 21.0399H18.498L18.1342 21.0311C18.3871 20.9956 18.6355 20.9645 18.8885 20.929H19.0127H19.1591C19.168 20.9068 19.1724 20.9024 19.1724 20.9068V20.8891C19.3233 20.8669 19.4741 20.8447 19.6206 20.827C19.6561 20.8181 19.7049 20.6938 19.7448 20.5385C19.6649 21.0355 19.5806 21.4792 19.6516 20.929L19.5096 20.9468L19.2257 20.9867L19.1635 20.9956C19.1547 21.0444 19.1458 21.1065 19.1369 21.1819L19.3322 21.1553L19.625 21.1154C19.6206 21.1553 19.6161 21.1864 19.6073 21.2174L19.5052 21.2307L19.2035 21.2707L19.1236 21.284C19.1236 21.284 19.1192 21.3062 19.1192 21.315C19.1281 21.315 19.1369 21.315 19.1502 21.315L19.6073 21.2529C19.5629 21.5413 19.5806 21.4881 19.625 21.2751C19.6294 21.2751 19.6339 21.2529 19.6472 21.213H19.6339C19.6827 20.9867 19.7492 20.6273 19.8069 20.3034C19.8202 20.2413 19.8291 20.1791 19.838 20.1303C19.8424 20.117 19.8469 20.0993 19.8513 20.0904C19.7759 20.5563 19.6871 21.0399 19.6472 21.213H19.6605C19.7492 20.716 19.8069 20.3478 19.8557 20.0727C19.9045 19.8996 19.98 19.6156 20.0953 19.1897C19.9933 19.5535 19.9223 19.8153 19.8646 19.9928C19.8646 19.9795 19.8735 19.9662 19.8735 19.9484C19.8735 19.9573 19.8735 19.9662 19.869 19.9706C19.869 19.9884 19.8646 20.0017 19.8646 20.015C19.8602 20.0239 19.8557 20.0372 19.8557 20.046C19.8513 20.0682 19.8469 20.0904 19.8424 20.1082C19.8424 20.0904 19.8469 20.0771 19.8469 20.0593C19.8469 20.0593 19.8513 20.046 19.8513 20.0416C19.8513 20.0239 19.8557 20.0105 19.8602 19.9928C19.8602 19.9839 19.869 19.9795 19.869 19.9662C19.8823 19.8907 19.8912 19.8153 19.9045 19.7399C19.9045 19.7443 19.9045 19.7488 19.9045 19.7576C19.9134 19.6955 19.9223 19.6467 19.9267 19.6112C19.9267 19.6068 19.9267 19.6023 19.9312 19.5935C19.9223 19.6378 19.9178 19.6911 19.909 19.7399C19.9134 19.7266 19.9178 19.7177 19.9223 19.7044C19.9312 19.6467 19.94 19.6068 19.9445 19.5624C19.9977 19.3938 20.0554 19.1542 20.0776 18.99C20.0776 18.9723 20.0865 18.959 20.0909 18.9412H20.1219C20.0554 19.2074 19.9755 19.5136 19.9223 19.7044C19.909 19.7709 19.9001 19.8552 19.8823 19.9484C19.9489 19.7266 20.0598 19.3139 20.153 18.9368H20.1708C20.1441 19.0255 20.1219 19.1143 20.1042 19.1897C20.1264 19.1143 20.1486 19.0255 20.1752 18.9368L20.2994 18.9235C20.1885 19.5979 20.2462 19.3805 20.3527 18.8924L20.1841 18.9102C20.1841 18.9102 20.1929 18.888 20.1974 18.8747L20.2772 18.8658H20.3482L20.3615 18.8614C20.397 18.7016 20.4325 18.5241 20.4725 18.3378H20.4813C20.437 18.5729 20.397 18.7682 20.3793 18.8614H20.3882C20.4237 18.6661 20.4592 18.4931 20.4858 18.3378H20.5657L20.7964 18.3333H20.9117V18.36C20.9162 18.3156 20.9251 18.2712 20.9295 18.2357H20.9517C20.965 18.1869 20.9783 18.1248 20.996 18.0538C20.9295 18.289 21.0582 17.6456 20.9694 17.9961H20.8452H20.6011H20.5523C20.5568 17.9651 20.5657 17.9296 20.5701 17.8985L20.6588 17.8852C20.7831 17.8852 20.9073 17.8808 21.0315 17.8763C21.0182 17.9384 21.0049 17.9961 20.9916 18.0494C21.0005 18.0272 21.0049 17.9873 21.0182 17.9384C21.0182 17.9207 21.0271 17.8941 21.0315 17.8763C21.0271 17.8985 21.0182 17.9207 21.0182 17.9384C20.9872 18.0716 20.965 18.1736 20.9472 18.249C20.9472 18.289 20.9827 18.1248 21.0404 17.8719H21.0537C21.0537 17.8719 21.0803 17.8453 21.1025 17.8053L22.3582 17.5879L22.833 17.5036L22.9528 17.4814C22.9927 17.2685 23.0282 17.0865 23.0637 16.9091L23.5296 16.9224C23.5207 17.0155 23.5163 17.0777 23.5163 17.0777C23.5473 17.0777 23.5784 17.0688 23.605 17.0644C23.6494 17.8142 23.7026 18.4132 23.6804 17.5524L23.9067 17.5125L24.3593 17.4371L25.26 17.2818C27.6605 16.878 30.0387 16.4698 32.3948 16.0749C32.2705 17.0289 32.417 16.2124 32.559 15.3517L32.9272 15.325L33.4819 15.2851L33.6194 15.2762H33.6549C33.9389 15.1342 33.0603 15.5779 34.3071 14.9656L34.356 14.9124L34.5512 14.6994L34.9106 14.1803L34.9505 14.1403L35.3188 14.0871C36.7342 13.8874 38.0919 13.6922 39.4009 13.5014L39.6449 13.4704L39.7647 13.4526L40.5634 12.756L42.4402 12.1659L42.7819 12.1437H42.8662C42.8573 12.1969 42.9017 11.944 42.9594 11.6112L46.5179 11.4382L46.5667 11.4781Z" fill="var(--fill-0, #231F20)"/>
</g>
</svg>
