<svg width="47" height="56" viewBox="0 0 47 56" fill="none" xmlns="http://www.w3.org/2000/svg">
<path d="M13.2658 14.7207C17.3344 14.7207 21.1421 14.2338 24.391 13.395C22.9156 7.98761 18.7874 3.4865 13.2658 1C7.74424 3.4865 3.61609 7.9951 2.14069 13.395C5.38956 14.2338 9.19729 14.7207 13.2658 14.7207Z" stroke="#FB7E00" stroke-width="2" stroke-linecap="round" stroke-linejoin="round"/>
<path d="M4.78912 7.89062C7.26303 8.53439 10.1617 8.90118 13.2615 8.90118" stroke="#FB7E00" stroke-width="2" stroke-linecap="round" stroke-linejoin="round"/>
<path d="M13.2579 14.7188V42.2875" stroke="#FB7E00" stroke-width="2" stroke-linecap="round" stroke-linejoin="round"/>
<path d="M4.55475 19.2422H22.1031" stroke="#FB7E00" stroke-width="2" stroke-linecap="round" stroke-linejoin="round"/>
<path d="M4.55475 28.3047H22.1031" stroke="#FB7E00" stroke-width="2" stroke-linecap="round" stroke-linejoin="round"/>
<path d="M3.07819 23.7734H23.4507" stroke="#FB7E00" stroke-width="2" stroke-linecap="round" stroke-linejoin="round"/>
<path d="M6.78131 32.8203H19.7246" stroke="#FB7E00" stroke-width="2" stroke-linecap="round" stroke-linejoin="round"/>
<path d="M9.22662 37.3672H17.2817" stroke="#FB7E00" stroke-width="2" stroke-linecap="round" stroke-linejoin="round"/>
<path d="M13.2579 50.2721C18.2057 50.2721 22.617 51.8524 25.5156 54.324C23.7869 49.0738 19.2712 44.7075 13.2579 42.2734C7.24446 44.7075 2.72882 49.0738 1.00006 54.324C3.89126 51.8524 8.30258 50.2721 13.2579 50.2721Z" stroke="#FB7E00" stroke-width="2" stroke-linecap="round" stroke-linejoin="round"/>
<path d="M40.9643 54.3191C38.5052 54.3191 36.5157 52.3194 36.5157 49.8479C36.5157 48.7844 36.8808 47.8108 37.4993 47.0469" stroke="#FB7E00" stroke-width="2" stroke-linecap="round" stroke-linejoin="round"/>
<path d="M33.6519 9.94275V45.3844C31.1928 45.3844 29.2032 47.3842 29.2032 49.8558C29.2032 52.3274 31.1928 54.3272 33.6519 54.3272C35.1721 54.3272 36.5135 53.5633 37.3108 52.3949C38.1156 53.5633 39.4569 54.3272 40.9697 54.3272C43.4288 54.3272 45.4184 52.3274 45.4184 49.8558C45.4184 47.3842 43.4288 45.3844 40.9697 45.3844V9.94275C43.4288 9.94275 45.4184 7.943 45.4184 5.47138C45.4184 2.99975 43.4288 1 40.9697 1C39.4495 1 38.1082 1.76392 37.3108 2.93233C36.506 1.76392 35.1647 1 33.6519 1C31.1928 1 29.2032 2.99975 29.2032 5.47138C29.2032 6.3327 29.4491 7.14161 29.8664 7.82318" stroke="#FB7E00" stroke-width="2" stroke-linecap="round" stroke-linejoin="round"/>
</svg>
