<svg width="59" height="60" viewBox="0 0 59 60" fill="none" xmlns="http://www.w3.org/2000/svg">
<path d="M12.8698 52.498L6.48676 46.1149L10.4097 40.4632L8.21551 35.4765L1.5 33.8807V25.1705L8.21551 23.7742L10.4097 18.8539L6.48676 12.9363L12.8698 6.68623L18.588 10.5427L23.5082 8.74743L25.0375 1.5H33.6147L35.277 8.41498L40.1308 10.5427L45.7824 7.01868L52.4315 12.9363L48.3756 18.8539L50.5032 23.7742L57.2188 25.1705V33.8807L50.5032 35.4765L48.3756 40.4632L52.4315 46.1149L45.7824 52.498L40.1308 48.575L35.277 50.7027L33.6147 57.7507H25.0375L23.5082 50.7027L18.588 48.575L12.8698 52.498Z" stroke="#FB7E00" stroke-width="3" stroke-linecap="round" stroke-linejoin="round"/>
<circle cx="29.2897" cy="29.696" r="11.3991" stroke="#FB7E00" stroke-width="3"/>
</svg>
