<svg width="64" height="48" viewBox="0 0 64 48" fill="none" xmlns="http://www.w3.org/2000/svg">
<path d="M4.39858 21.2047V16.5823C1.25177 14.4766 0.738478 9.98236 1.1 6.07018C1.2812 4.1094 1.68215 2.29483 2.08144 1.00049M10.9763 1.00049C11.5733 2.86852 11.9203 4.55562 12.0765 6.07018C12.7182 12.2928 10.1382 15.603 8.4349 16.5823V44.9875C8.45983 45.6585 8.09111 47.0005 6.41674 47.0005C4.74237 47.0005 4.37365 45.6585 4.39858 44.9875V24.5596M6.49154 1.00049V8.1577M6.49154 8.1577C4.69762 8.1577 2.40772 7.44198 1.1 6.07018M6.49154 8.1577C8.28546 8.1577 10.3854 7.79984 12.0765 6.07018M47.5274 37.8303C36.9433 50.2361 24.4307 45.236 19.4975 41.1853C9.21232 30.9266 13.8665 19.4154 17.4793 14.9421L19.4975 15.2404L18.8247 19.4154L25.3277 20.8319L22.1136 14.9421L23.3095 10.3198C26.997 8.2074 36.5098 5.87634 45.0608 13.4511C53.6118 21.0258 51.2149 31.3192 48.9476 35.5191M28.536 29.3311L30.8589 30.9447L31.7559 31.5677L33.5498 29.9276M38.4084 27.0945C40.2023 25.5438 40.2521 23.1183 40.0528 22.0994C38.7372 21.8608 37.7107 20.8568 37.3619 20.3846C35.3288 21.16 33.5747 19.8627 32.9519 19.1172C32.1147 20.6679 30.3108 21.1053 29.5135 21.1301C28.9903 22.4721 29.065 22.3976 28.766 24.9324C28.5269 26.9603 27.8691 28.2625 27.5701 28.6601L28.536 29.3311M36.2407 28.6601V28.511M30.8589 30.9447L28.9155 34.1771C29.2644 34.7984 29.6481 36.2199 28.3923 36.9357C26.8226 37.8303 25.5519 36.041 25.9257 35.4446C25.1284 35.544 23.5637 35.3253 23.6833 33.6553C23.8029 31.9853 25.228 31.9654 25.9257 32.1642L28.536 29.3311M55.2264 44.9875V16.0605C53.9461 14.8427 51.3856 11.8109 51.3856 9.42512C51.3856 6.44295 52.984 2.86435 57.2445 2.86435C61.5051 2.86435 63 6.29384 63 9.42512C63 11.9301 60.5084 14.8924 59.2627 16.0605V44.9875C59.2627 45.6585 58.859 47.0005 57.2445 47.0005C55.63 47.0005 55.2264 45.6585 55.2264 44.9875Z" stroke="#FB7E00" stroke-width="2" stroke-linecap="round" stroke-linejoin="round"/>
</svg>
