<svg width="61" height="40" viewBox="0 0 61 40" fill="none" xmlns="http://www.w3.org/2000/svg">
<path d="M51.8941 6.05469H15.7607C14.6987 6.05469 13.8438 6.96394 13.8438 8.08991V31.5502C13.8438 32.6762 14.7042 33.5854 15.7607 33.5854H51.8941C52.5204 33.5854 53.1303 33.374 53.6368 32.9775L58.4619 29.182C59.2079 28.5952 59.6436 27.6701 59.6436 26.6869V12.9532C59.6436 11.97 59.2025 11.0449 58.4619 10.4581L53.6368 6.66262C53.1303 6.26615 52.5204 6.05469 51.8941 6.05469Z" stroke="#FB7E00" stroke-width="2" stroke-linecap="round" stroke-linejoin="round"/>
<path d="M44.6314 9.64844H19.3516V29.9846H44.6314V9.64844Z" stroke="#FB7E00" stroke-width="2" stroke-linecap="round" stroke-linejoin="round"/>
<path d="M22.3188 1H29.3767C29.9812 1 30.4768 1.47574 30.4768 2.0678V6.0589H21.2188V2.0678C21.2188 1.48103 21.7089 1 22.3188 1Z" stroke="#FB7E00" stroke-width="2" stroke-linecap="round" stroke-linejoin="round"/>
<path d="M44.6314 14.0625H19.3516V25.5812H44.6314V14.0625Z" stroke="#FB7E00" stroke-width="2" stroke-linecap="round" stroke-linejoin="round"/>
<path d="M44.6314 6.05469H19.3516V33.5907H44.6314V6.05469Z" stroke="#FB7E00" stroke-width="2" stroke-linecap="round" stroke-linejoin="round"/>
<path d="M9.62803 12.0365H13.8432V27.6045H9.62803C8.89828 27.6045 8.30469 27.0283 8.30469 26.32V13.3158C8.30469 12.6075 8.89828 12.0312 9.62803 12.0312V12.0365Z" stroke="#FB7E00" stroke-width="2" stroke-linecap="round" stroke-linejoin="round"/>
<path d="M18.5859 38.6484H50.9889" stroke="#FB7E00" stroke-width="2" stroke-linecap="round" stroke-linejoin="round"/>
<path d="M24.6953 38.6449V33.5859" stroke="#FB7E00" stroke-width="2" stroke-linecap="round" stroke-linejoin="round"/>
<path d="M44.6328 38.6449V33.5859" stroke="#FB7E00" stroke-width="2" stroke-linecap="round" stroke-linejoin="round"/>
<path d="M3.05311 17.6484C1.92036 17.6484 1 18.6211 1 19.8264C1 21.0316 1.92036 22.0043 3.05311 22.0043H8.30293V17.6537H3.05311V17.6484Z" stroke="#FB7E00" stroke-width="2" stroke-linecap="round" stroke-linejoin="round"/>
</svg>
