<svg width="65" height="75" viewBox="0 0 65 75" fill="none" xmlns="http://www.w3.org/2000/svg">
<path d="M27.9127 73.0449H53.1227L57.3727 61.3057V46.3405C57.3727 45.2047 56.4627 44.2901 55.3327 44.2901H50.3327V43.6167C50.3327 42.4809 49.4226 41.5664 48.2926 41.5664H43.2927V41.0939C43.2927 39.9582 42.3827 39.0437 41.2527 39.0437H36.2527V27.4453C36.2527 25.4653 34.6527 23.8672 32.6927 23.8672H31.4927C29.5227 23.8672 27.9327 25.4753 27.9327 27.4453V56.2905L23.3627 48.3305C22.3827 46.6219 20.2027 46.0288 18.4927 47.0238L17.4527 47.6268C15.7527 48.6118 15.1627 50.8028 16.1527 52.5215L27.9427 73.0449H27.9127Z" stroke="#2B2B2B" stroke-width="3" stroke-linecap="round" stroke-linejoin="round"/>
<path d="M36.2344 50.3013V39.0547" stroke="#2B2B2B" stroke-width="3" stroke-linecap="round" stroke-linejoin="round"/>
<path d="M43.2812 51.2992V41.5703" stroke="#2B2B2B" stroke-width="3" stroke-linecap="round" stroke-linejoin="round"/>
<path d="M50.3203 52.4982V44.2969" stroke="#2B2B2B" stroke-width="3" stroke-linecap="round" stroke-linejoin="round"/>
<path d="M20.72 60.7583C9.45997 56.2255 1.5 45.1598 1.5 32.2247C1.5 15.2592 15.1899 1.5 32.0699 1.5C48.9499 1.5 62.64 15.2592 62.64 32.2247C62.64 38.5867 60.7199 44.4964 57.4199 49.4011" stroke="#2B2B2B" stroke-width="3" stroke-linecap="round" stroke-linejoin="round"/>
<path d="M41.3007 33.3365C42.2107 31.7586 42.7307 29.9395 42.7307 27.9897C42.7307 22.0699 37.9607 17.2656 32.0607 17.2656C26.1607 17.2656 21.3906 22.0598 21.3906 27.9897C21.3906 29.9395 21.9206 31.7586 22.8206 33.3365" stroke="#2B2B2B" stroke-width="3" stroke-linecap="round" stroke-linejoin="round"/>
<path d="M46.0078 38.0705C46.4978 37.3971 46.9278 36.6835 47.3178 35.9297" stroke="#2B2B2B" stroke-width="3" stroke-linecap="round" stroke-linejoin="round"/>
<path d="M48.8907 31.5012C49.1307 30.3655 49.2507 29.1996 49.2507 27.9936C49.2507 18.4555 41.5606 10.7266 32.0706 10.7266C22.5806 10.7266 14.8906 18.4555 14.8906 27.9936C14.8906 30.0238 15.2406 31.9636 15.8906 33.7727" stroke="#2B2B2B" stroke-width="3" stroke-linecap="round" stroke-linejoin="round"/>
<path d="M16.8203 35.9297C17.2103 36.6734 17.6503 37.387 18.1303 38.0705" stroke="#2B2B2B" stroke-width="3" stroke-linecap="round" stroke-linejoin="round"/>
</svg>
