<svg width="108" height="87" viewBox="0 0 108 87" fill="none" xmlns="http://www.w3.org/2000/svg">
<mask id="path-1-outside-1_1_4375" maskUnits="userSpaceOnUse" x="17.5938" y="2.79419" width="91" height="77" fill="black">
<rect fill="white" x="17.5938" y="2.79419" width="91" height="77"/>
<path d="M64.9645 72.2944C64.9645 72.6125 64.8368 72.9176 64.6096 73.1425C64.3823 73.3675 64.0741 73.4939 63.7527 73.4939H63.1831C62.8617 73.4939 62.5535 73.3675 62.3262 73.1425C62.0989 72.9176 61.9712 72.6125 61.9712 72.2944C61.9712 71.9762 62.0989 71.6711 62.3262 71.4462C62.5535 71.2212 62.8617 71.0948 63.1831 71.0948H63.7523C63.9115 71.0948 64.0691 71.1258 64.2162 71.1861C64.3632 71.2463 64.4969 71.3347 64.6094 71.446C64.722 71.5574 64.8113 71.6897 64.8722 71.8352C64.9332 71.9808 64.9645 72.1368 64.9645 72.2944ZM72.5024 72.2505H71.9326C71.7735 72.2505 71.6159 72.2815 71.4689 72.3418C71.3219 72.4021 71.1883 72.4904 71.0757 72.6018C70.9632 72.7132 70.8739 72.8454 70.813 72.991C70.7521 73.1365 70.7208 73.2925 70.7208 73.45C70.7208 73.6075 70.7521 73.7635 70.813 73.909C70.8739 74.0546 70.9632 74.1868 71.0757 74.2982C71.1883 74.4096 71.3219 74.4979 71.4689 74.5582C71.6159 74.6185 71.7735 74.6495 71.9326 74.6495H72.502C72.8234 74.6495 73.1317 74.5231 73.359 74.2982C73.5862 74.0732 73.7139 73.7681 73.7139 73.45C73.7139 73.1319 73.5862 72.8268 73.359 72.6018C73.1317 72.3769 72.8234 72.2505 72.502 72.2505H72.5024ZM62.5401 65.5231C62.8615 65.5231 63.1698 65.3967 63.397 65.1718C63.6243 64.9468 63.752 64.6417 63.752 64.3236C63.752 64.0055 63.6243 63.7004 63.397 63.4754C63.1698 63.2505 62.8615 63.1241 62.5401 63.1241H61.9709C61.6495 63.1241 61.3413 63.2505 61.114 63.4754C60.8867 63.7004 60.7591 64.0055 60.7591 64.3236C60.7591 64.6417 60.8867 64.9468 61.114 65.1718C61.3413 65.3967 61.6495 65.5231 61.9709 65.5231H62.5401ZM33.8955 71.5364H33.3212C32.9998 71.5364 32.6916 71.6628 32.4643 71.8878C32.237 72.1127 32.1094 72.4178 32.1094 72.7359C32.1094 73.0541 32.237 73.3592 32.4643 73.5841C32.6916 73.8091 32.9998 73.9355 33.3212 73.9355H33.8955C34.2169 73.9355 34.5251 73.8091 34.7524 73.5841C34.9796 73.3592 35.1073 73.0541 35.1073 72.7359C35.1073 72.4178 34.9796 72.1127 34.7524 71.8878C34.5251 71.6628 34.2169 71.5364 33.8955 71.5364ZM72.0066 68.3987C72.328 68.3987 72.6362 68.2723 72.8635 68.0474C73.0907 67.8224 73.2184 67.5173 73.2184 67.1992C73.2184 66.881 73.0907 66.5759 72.8635 66.351C72.6362 66.126 72.328 65.9997 72.0066 65.9997H71.4374C71.1159 65.9997 70.8077 66.126 70.5804 66.351C70.3532 66.5759 70.2255 66.881 70.2255 67.1992C70.2255 67.5173 70.3532 67.8224 70.5804 68.0474C70.8077 68.2723 71.1159 68.3987 71.4374 68.3987H72.0066ZM107.217 49.9228C107.176 50.181 107.051 50.4189 106.861 50.6003C106.671 50.7817 106.426 50.8966 106.164 50.9276L95.638 52.1708L93.1201 54.6367L95.8632 57.3784C95.9753 57.4904 96.0639 57.6231 96.1241 57.7689C96.1844 57.9148 96.215 58.0709 96.2142 58.2285C96.2135 58.3861 96.1814 58.542 96.1198 58.6873C96.0582 58.8326 95.9683 58.9644 95.8552 59.0753C95.7421 59.1862 95.608 59.274 95.4607 59.3336C95.3133 59.3932 95.1555 59.4235 94.9963 59.4228C94.8371 59.422 94.6797 59.3902 94.5329 59.3293C94.3861 59.2683 94.2529 59.1793 94.1408 59.0673L91.3969 56.3256L89.675 58.0119L93.7388 62.0764C93.965 62.3026 94.0911 62.6084 94.0894 62.9266C94.0877 63.2449 93.9584 63.5494 93.7298 63.7732C93.5013 63.997 93.1923 64.1218 92.8708 64.1202C92.5494 64.1185 92.2417 63.9905 92.0156 63.7643L87.9517 59.6996L86.2276 61.3884L88.969 64.1315C89.1951 64.3577 89.3211 64.6636 89.3194 64.9818C89.3176 65.3 89.1883 65.6044 88.9597 65.8282C88.7312 66.052 88.4222 66.1768 88.1007 66.175C87.7793 66.1733 87.4717 66.0453 87.2456 65.819L84.5044 63.0761L81.4748 66.043C81.8529 67.5906 81.8198 69.2087 81.3787 70.7398C81.692 71.0806 81.9871 71.4375 82.2626 71.8089C83.5158 73.4978 84.3361 75.4625 84.6533 77.5343C84.6791 77.705 84.6674 77.8791 84.619 78.0449C84.5706 78.2107 84.4866 78.3641 84.3728 78.4948C84.259 78.6256 84.1181 78.7304 83.9596 78.8023C83.8012 78.8742 83.6289 78.9114 83.4546 78.9114H24.5909C24.4212 78.9114 24.2535 78.8762 24.0984 78.808C23.9434 78.7398 23.8045 78.6402 23.6909 78.5155C23.5772 78.3908 23.4913 78.2439 23.4386 78.0843C23.3859 77.9247 23.3677 77.7559 23.3851 77.5888C23.5867 75.9302 23.9857 74.3009 24.5737 72.7349C22.2446 71.2912 20.195 69.0176 18.7304 66.2267C18.6437 66.0617 18.597 65.879 18.5939 65.6931C18.5908 65.5071 18.6315 65.323 18.7126 65.1553C18.7938 64.9876 18.9132 64.8408 19.0615 64.7266C19.2098 64.6125 19.3829 64.534 19.5671 64.4974C19.673 64.4763 19.7558 64.4562 19.8278 64.4345C20.1079 64.3522 20.3687 64.216 20.5955 64.0336C20.8222 63.8512 21.0102 63.6263 21.1489 63.3718C21.2875 63.1172 21.374 62.8381 21.4033 62.5504C21.4326 62.2627 21.4042 61.9721 21.3198 61.6953C21.1954 61.2929 20.9586 60.9334 20.6368 60.6584C20.4996 60.5421 20.3905 60.3969 20.3173 60.2334C20.2441 60.07 20.2088 59.8924 20.2139 59.7137C20.219 59.5349 20.2644 59.3596 20.3467 59.2005C20.4291 59.0414 20.5464 58.9025 20.6899 58.794C21.2649 58.3569 21.6921 57.7572 21.9151 57.0744C22.1381 56.3916 22.1463 55.6578 21.9387 54.9703C21.7661 54.3996 21.45 53.8816 21.0201 53.4648C20.5901 53.048 20.0604 52.746 19.4803 52.5871C19.2793 52.5316 19.096 52.4256 18.9485 52.2795C18.8009 52.1333 18.694 51.9519 18.6381 51.7528C18.5822 51.5537 18.5792 51.3437 18.6294 51.1432C18.6796 50.9426 18.7813 50.7583 18.9246 50.608C20.1521 49.3204 22.3529 47.9667 26.0692 48.2885C25.6559 45.6695 24.3876 44.9559 23.4137 44.6536C23.1068 44.5585 22.8507 44.3465 22.7018 44.0644C22.5528 43.7824 22.5231 43.4533 22.6193 43.1495C22.7155 42.8458 22.9296 42.5924 23.2146 42.4449C23.4995 42.2974 23.832 42.2681 24.1389 42.3633C26.3822 43.0595 27.7917 44.7299 28.3521 47.3352C31.0639 45.446 33.4509 45.4313 35.0893 45.8323L35.1 45.8352C37.4069 42.0874 40.6789 38.1204 44.8489 34.0181C42.3356 31.4955 41.1376 29.1834 40.7841 26.2662C40.7217 25.7491 40.7701 25.2249 40.9261 24.7276C41.082 24.2303 41.3422 23.7711 41.6894 23.38C42.0367 22.9889 42.4634 22.6745 42.9416 22.4576C43.4198 22.2406 43.9388 22.1258 44.4649 22.1206C48.2673 22.0917 55.4458 22.0917 59.2418 22.1206C59.7683 22.1249 60.288 22.2389 60.767 22.4555C61.2459 22.672 61.6733 22.986 62.0213 23.3772C62.3693 23.7683 62.6301 24.2277 62.7865 24.7253C62.943 25.2229 62.9916 25.7476 62.9293 26.2651C62.5758 29.1834 61.3778 31.4953 58.8646 34.0179C61.991 37.0926 64.6283 40.1022 66.7381 43L66.7651 42.9126C66.7767 42.8755 66.79 42.839 66.8051 42.8031C67.965 40.0528 69.5207 39.566 70.6571 39.2106L70.752 39.1808L72.0064 35.1496C72.1978 34.5396 72.6254 34.0294 73.1956 33.7304C73.7659 33.4314 74.4325 33.368 75.0499 33.554L78.8904 34.7255C79.5078 34.9136 80.0247 35.3363 80.3278 35.901C80.6309 36.4656 80.6956 37.1262 80.5075 37.7379L79.2524 41.7673C79.2735 41.7938 79.2948 41.8209 79.3164 41.848C80.0539 42.7749 81.0639 44.0445 80.4622 46.9591C80.4543 46.997 80.4447 47.0345 80.4333 47.0715L76.4515 59.8917C77.828 60.5454 79.0205 61.5251 79.9232 62.7438C80.132 63.0252 80.3247 63.318 80.5002 63.6209L82.8 61.3683L80.0565 58.6232C79.9446 58.5112 79.856 58.3784 79.7959 58.2325C79.7358 58.0866 79.7053 57.9305 79.7062 57.7729C79.707 57.6154 79.7392 57.4595 79.8009 57.3143C79.8626 57.169 79.9526 57.0373 80.0658 56.9265C80.179 56.8157 80.3131 56.728 80.4605 56.6685C80.6078 56.609 80.7656 56.5788 80.9248 56.5796C81.084 56.5805 81.2414 56.6124 81.3882 56.6735C81.5349 56.7345 81.668 56.8236 81.78 56.9356L84.5232 59.6806L86.2472 57.9922L82.1814 53.9269C81.9553 53.7007 81.8292 53.3949 81.8309 53.0767C81.8326 52.7585 81.9619 52.454 82.1903 52.2302C82.4188 52.0064 82.7278 51.8816 83.0493 51.8832C83.3707 51.8849 83.6784 52.0129 83.9045 52.239L87.9701 56.3054L89.6913 54.6197L86.9469 51.878C86.8349 51.766 86.7463 51.6333 86.6861 51.4875C86.6259 51.3416 86.5953 51.1855 86.596 51.0279C86.5968 50.8704 86.6289 50.7145 86.6905 50.5692C86.7522 50.424 86.8421 50.2921 86.9552 50.1813C87.0683 50.0704 87.2023 49.9827 87.3497 49.9231C87.497 49.8635 87.6548 49.8332 87.8139 49.8339C87.9731 49.8347 88.1306 49.8665 88.2774 49.9275C88.4241 49.9884 88.5573 50.0775 88.6693 50.1894L91.4145 52.9325L93.9327 50.4661L95.302 40.0611C95.3358 39.8016 95.4545 39.5603 95.6397 39.3738C95.825 39.1873 96.0668 39.0659 96.3283 39.028C96.5898 38.9901 96.8566 39.0379 97.0881 39.164C97.3196 39.2901 97.5031 39.4877 97.6107 39.7266L100.374 45.8477L106.526 48.6467C106.766 48.7557 106.963 48.9394 107.088 49.1697C107.213 49.4001 107.258 49.6645 107.217 49.9228ZM64.9145 57.0342C66.3576 57.6718 67.6716 58.5638 68.7924 59.6666C70.487 58.9722 72.3507 58.7874 74.1507 59.1354L78.0978 46.4231C78.4541 44.643 78.0158 44.0926 77.4114 43.3321C77.24 43.1166 77.0626 42.8938 76.8955 42.6362C76.8 42.4893 76.7381 42.3234 76.7142 42.1502C76.6902 41.977 76.7049 41.8008 76.757 41.6338L78.1899 37.0338C78.1887 37.0286 78.186 37.0237 78.1822 37.02L74.3389 35.8479C74.3351 35.8446 74.3247 35.8533 74.3215 35.8559L72.8895 40.4608C72.8375 40.6277 72.7493 40.7814 72.6312 40.9111C72.513 41.0408 72.3677 41.1434 72.2053 41.2117C71.9221 41.3308 71.6498 41.416 71.3868 41.4984C70.4563 41.7897 69.7813 42.0005 69.0639 43.6747L68.317 46.0785C68.3141 46.0884 68.3111 46.0984 68.3078 46.1081L64.9145 57.0342ZM47.0684 32.8127H56.6446C59.1445 30.4502 60.209 28.563 60.5226 25.9812C60.5445 25.7983 60.5272 25.613 60.4717 25.4372C60.4162 25.2615 60.3238 25.0994 60.2005 24.9615C60.0773 24.8236 59.9259 24.713 59.7565 24.6371C59.587 24.5612 59.4032 24.5216 59.2172 24.5209C55.437 24.4921 48.2772 24.4921 44.4907 24.5209C44.3051 24.5225 44.122 24.5628 43.9533 24.6393C43.7846 24.7157 43.6341 24.8265 43.5116 24.9644C43.389 25.1023 43.2973 25.2642 43.2423 25.4396C43.1872 25.615 43.1702 25.7999 43.1923 25.9822C43.5042 28.5629 44.5687 30.4502 47.0684 32.8127ZM37.3584 46.7843C39.417 48.0275 41.1818 50.2082 42.3914 53.0357C44.2284 51.6284 46.486 50.8656 48.809 50.8673C50.6402 50.8741 52.4384 51.351 54.0276 52.2515C55.6169 53.1521 56.9429 54.4453 57.8761 56.005C59.4595 55.8036 61.0667 55.8902 62.6187 56.2605L65.8308 45.9205C63.5506 42.518 60.4599 38.92 56.6325 35.2125H54.8629C55.7082 36.4185 56.1923 37.867 56.3232 39.586C56.3352 39.7432 56.3158 39.9011 56.2661 40.0508C56.2164 40.2005 56.1375 40.339 56.0337 40.4585C55.9299 40.578 55.8034 40.676 55.6613 40.7471C55.5192 40.8181 55.3644 40.8608 55.2057 40.8726C55.1747 40.875 55.1437 40.8762 55.1132 40.8762C54.8077 40.8759 54.5136 40.7615 54.2897 40.5557C54.0658 40.3499 53.9287 40.068 53.9059 39.7665C53.7615 37.8728 53.1211 36.5239 51.8558 35.4926C50.5863 36.5259 49.9462 37.8745 49.8062 39.7641C49.7945 39.9212 49.7517 40.0745 49.6802 40.2153C49.6087 40.3561 49.5099 40.4815 49.3895 40.5845C49.269 40.6874 49.1292 40.7659 48.9781 40.8154C48.827 40.8649 48.6675 40.8844 48.5087 40.8729C48.35 40.8613 48.1951 40.819 48.0529 40.7482C47.9107 40.6774 47.7839 40.5796 47.6799 40.4604C47.5759 40.3411 47.4966 40.2028 47.4466 40.0532C47.3966 39.9036 47.3769 39.7457 47.3885 39.5886C47.5158 37.8692 47.9988 36.42 48.8464 35.2125H47.0806C42.9128 39.2507 39.6488 43.1363 37.3584 46.7843ZM25.5294 70.4884C26.0368 69.4377 26.6322 68.4309 27.3092 67.4785C30.1003 63.5852 33.875 61.406 38.2837 61.1223C38.3174 58.8559 39.1013 56.663 40.5153 54.88C39.3533 51.6679 37.4012 49.2809 35.2337 48.3992C35.211 48.391 35.1885 48.3821 35.1663 48.3733C34.9517 48.2885 34.7315 48.2181 34.5073 48.1626C32.4847 47.6672 30.3823 48.4678 28.2592 50.5417C28.1185 50.6788 27.9462 50.78 27.7571 50.8363C27.5681 50.8927 27.368 50.9026 27.1742 50.8652C25.1163 50.4655 23.4175 50.5875 22.0986 51.2266C23.1319 51.9861 23.8898 53.0556 24.2594 54.2758C24.5457 55.2246 24.5887 56.2291 24.3843 57.1985C24.18 58.1679 23.7347 59.0716 23.0889 59.8278C23.3256 60.1908 23.5108 60.5843 23.6392 60.9972C23.9383 61.983 23.8956 63.0396 23.5177 63.9985C23.1399 64.9575 22.4487 65.7638 21.5543 66.2889C22.57 67.9471 23.9238 69.3773 25.5294 70.4884ZM80.3093 73.2276C79.9606 72.7574 79.5738 72.3162 79.1528 71.9081C78.9848 71.7454 78.8682 71.5378 78.8172 71.3107C78.7663 71.0835 78.7831 70.8466 78.8658 70.6287C79.362 69.3214 79.4431 67.8953 79.0983 66.5411C78.7535 65.1869 77.9992 63.9692 76.9364 63.0508C75.8735 62.1323 74.5526 61.557 73.1505 61.4017C71.7483 61.2465 70.3317 61.5186 69.09 62.1818C68.8477 62.3118 68.5678 62.3562 68.2966 62.3076C68.0253 62.259 67.7789 62.1203 67.598 61.9145C66.3601 60.5125 64.7702 59.4589 62.989 58.8601C61.2078 58.2614 59.2985 58.1387 57.454 58.5044C57.1893 58.5569 56.9145 58.5204 56.673 58.4009C56.4316 58.2813 56.2373 58.0855 56.121 57.8443C55.3323 56.2007 54.0021 54.8715 52.3491 54.0753C50.6961 53.2791 48.8186 53.0633 47.0253 53.4632C45.2319 53.8632 43.6293 54.8551 42.481 56.2761C41.3327 57.697 40.7069 59.4624 40.7066 61.282C40.7062 61.5729 40.7231 61.8636 40.7573 62.1525C40.7775 62.3226 40.7607 62.495 40.708 62.6581C40.6553 62.8213 40.5679 62.9713 40.4517 63.0982C40.3355 63.2251 40.1932 63.326 40.0343 63.3939C39.8755 63.4618 39.7037 63.4952 39.5307 63.492C30.556 63.3283 26.9263 72.0171 26.0061 76.5103H81.95C81.5997 75.3301 81.0445 74.2193 80.3093 73.2276ZM101.608 49.0488L98.9477 47.8385C98.6808 47.7172 98.4674 47.5041 98.3473 47.2388L97.1512 44.5896L96.4846 49.6548L101.608 49.0488ZM40.9915 71.4626H40.4221C40.1007 71.4626 39.7925 71.589 39.5652 71.8139C39.338 72.0389 39.2103 72.344 39.2103 72.6621C39.2103 72.9802 39.338 73.2853 39.5652 73.5103C39.7925 73.7352 40.1007 73.8616 40.4221 73.8616H40.9915C41.3129 73.8616 41.6212 73.7352 41.8484 73.5103C42.0757 73.2853 42.2034 72.9802 42.2034 72.6621C42.2034 72.344 42.0757 72.0389 41.8484 71.8139C41.6212 71.589 41.3129 71.4626 40.9915 71.4626ZM53.7999 64.191H53.2307C52.9093 64.191 52.6011 64.3173 52.3738 64.5423C52.1465 64.7672 52.0188 65.0723 52.0188 65.3905C52.0188 65.7086 52.1465 66.0137 52.3738 66.2387C52.6011 66.4636 52.9093 66.59 53.2307 66.59H53.7999C54.1213 66.59 54.4296 66.4636 54.6568 66.2387C54.8841 66.0137 55.0118 65.7086 55.0118 65.3905C55.0118 65.0723 54.8841 64.7672 54.6568 64.5423C54.4296 64.3173 54.1213 64.191 53.7999 64.191ZM52.9705 70.87H52.4013C52.0799 70.87 51.7716 70.9964 51.5444 71.2214C51.3171 71.4463 51.1894 71.7514 51.1894 72.0695C51.1894 72.3877 51.3171 72.6928 51.5444 72.9177C51.7716 73.1427 52.0799 73.269 52.4013 73.269H52.9705C53.2919 73.269 53.6001 73.1427 53.8274 72.9177C54.0547 72.6928 54.1823 72.3877 54.1823 72.0695C54.1823 71.7514 54.0547 71.4463 53.8274 71.2214C53.6001 70.9964 53.2919 70.87 52.9705 70.87ZM48.603 58.2453H48.0338C47.7124 58.2453 47.4041 58.3717 47.1769 58.5966C46.9496 58.8216 46.8219 59.1267 46.8219 59.4448C46.8219 59.763 46.9496 60.0681 47.1769 60.293C47.4041 60.518 47.7124 60.6443 48.0338 60.6443H48.603C48.9244 60.6443 49.2326 60.518 49.4599 60.293C49.6872 60.0681 49.8148 59.763 49.8148 59.4448C49.8148 59.1267 49.6872 58.8216 49.4599 58.5966C49.2326 58.3717 48.9244 58.2453 48.603 58.2453ZM44.8289 65.9786H44.2595C43.9381 65.9786 43.6299 66.105 43.4026 66.3299C43.1754 66.5549 43.0477 66.86 43.0477 67.1781C43.0477 67.4962 43.1754 67.8013 43.4026 68.0263C43.6299 68.2512 43.9381 68.3776 44.2595 68.3776H44.8289C45.1503 68.3776 45.4586 68.2512 45.6859 68.0263C45.9131 67.8013 46.0408 67.4962 46.0408 67.1781C46.0408 66.86 45.9131 66.5549 45.6859 66.3299C45.4586 66.105 45.1503 65.9786 44.8289 65.9786ZM86.8325 40.8253C86.6367 41.0777 86.5501 41.3967 86.5919 41.7122C86.6337 42.0277 86.8004 42.3139 87.0553 42.5077C87.3103 42.7016 87.6326 42.7872 87.9513 42.7459C88.2701 42.7045 88.5592 42.5395 88.755 42.2872C91.476 38.7819 89.7062 36.5658 88.535 35.0999C87.381 33.6553 86.8543 32.9959 88.6787 31.0681C88.8984 30.8359 89.016 30.5267 89.0055 30.2087C88.995 29.8906 88.8572 29.5897 88.6226 29.3722C88.3879 29.1547 88.0756 29.0383 87.7543 29.0487C87.433 29.0591 87.129 29.1955 86.9092 29.4277C83.6578 32.8636 85.4486 35.105 86.6336 36.5883C87.7733 38.0161 88.4024 38.8028 86.8325 40.8253ZM56.9954 15.5711C56.7995 15.8234 56.7129 16.1423 56.7545 16.4578C56.7962 16.7732 56.9628 17.0594 57.2176 17.2533C57.4724 17.4472 57.7946 17.5329 58.1133 17.4917C58.432 17.4504 58.7211 17.2856 58.917 17.0333C61.6413 13.5241 59.8692 11.3086 58.6975 9.84243C57.5437 8.39942 57.0172 7.74089 58.8403 5.81413C58.9492 5.69915 59.034 5.56408 59.0901 5.41663C59.1462 5.26918 59.1724 5.11225 59.1672 4.95478C59.162 4.79731 59.1255 4.6424 59.0599 4.49889C58.9942 4.35537 58.9006 4.22607 58.7844 4.11836C58.6683 4.01065 58.5318 3.92664 58.3828 3.87113C58.2339 3.81561 58.0753 3.78969 57.9162 3.79483C57.7572 3.79997 57.6007 3.83607 57.4557 3.90108C57.3107 3.96609 57.18 4.05873 57.0712 4.17371C53.82 7.60911 55.6113 9.84929 56.7965 11.3317C57.9389 12.7595 58.5677 13.5458 56.9954 15.5711ZM69.4452 28.5315C69.3483 28.6565 69.2772 28.7991 69.236 28.9513C69.1948 29.1035 69.1843 29.2622 69.205 29.4184C69.2258 29.5746 69.2774 29.7252 69.357 29.8616C69.4366 29.9981 69.5425 30.1177 69.6687 30.2136C69.795 30.3095 69.9391 30.3799 70.0928 30.4207C70.2466 30.4614 70.4069 30.4719 70.5647 30.4513C70.7225 30.4308 70.8747 30.3797 71.0125 30.3009C71.1504 30.2222 71.2712 30.1173 71.3681 29.9924C74.0885 26.4845 72.3178 24.269 71.1462 22.8035C69.9914 21.3588 69.4645 20.6994 71.2912 18.7692C71.511 18.537 71.6286 18.2279 71.6182 17.9098C71.6077 17.5918 71.47 17.2909 71.2354 17.0733C71.0008 16.8558 70.6885 16.7394 70.3672 16.7498C70.0459 16.7601 69.7419 16.8964 69.5221 17.1286C66.2674 20.5674 68.0594 22.809 69.2451 24.2923C70.3863 25.7202 71.0151 26.5067 69.4452 28.5315ZM39.9907 15.5718C39.8938 15.6968 39.8227 15.8395 39.7815 15.9916C39.7403 16.1438 39.7297 16.3025 39.7505 16.4587C39.7712 16.615 39.8229 16.7656 39.9024 16.9021C39.982 17.0385 40.088 17.1581 40.2142 17.254C40.3405 17.35 40.4846 17.4204 40.6384 17.4612C40.7921 17.502 40.9525 17.5124 41.1103 17.4918C41.2681 17.4713 41.4203 17.4202 41.5581 17.3414C41.696 17.2627 41.8168 17.1578 41.9138 17.0328C44.6344 13.5244 42.8632 11.3094 41.6913 9.84363C40.5373 8.40062 40.0106 7.74191 41.8364 5.81464C42.0563 5.58252 42.174 5.27344 42.1636 4.95541C42.1533 4.63738 42.0157 4.33643 41.7812 4.11879C41.5467 3.90114 41.2345 3.78462 40.9132 3.79485C40.5919 3.80509 40.2878 3.94124 40.0679 4.17336C36.8133 7.60945 38.6045 9.85014 39.7909 11.3327C40.932 12.7607 41.5608 13.547 39.9907 15.5718ZM31.7858 36.0213C31.6874 36.146 31.6148 36.2889 31.5724 36.4415C31.53 36.5941 31.5185 36.7536 31.5386 36.9106C31.5588 37.0677 31.6101 37.2192 31.6897 37.3566C31.7693 37.4939 31.8756 37.6143 32.0024 37.7107C32.1292 37.8072 32.274 37.8779 32.4286 37.9187C32.5831 37.9595 32.7443 37.9696 32.9028 37.9484C33.0613 37.9272 33.214 37.8752 33.3521 37.7954C33.4902 37.7155 33.611 37.6094 33.7075 37.4831C36.4317 33.9739 34.6596 31.7584 33.4878 30.2922C32.3341 28.8494 31.8074 28.191 33.6308 26.2643C33.7396 26.1493 33.8245 26.0142 33.8806 25.8668C33.9367 25.7193 33.9629 25.5624 33.9577 25.4049C33.9525 25.2474 33.916 25.0925 33.8504 24.949C33.7847 24.8055 33.6911 24.6761 33.5749 24.5684C33.4588 24.4607 33.3223 24.3767 33.1733 24.3211C33.0244 24.2656 32.8658 24.2397 32.7067 24.2448C32.5476 24.25 32.3911 24.2861 32.2461 24.3511C32.1011 24.4161 31.9705 24.5087 31.8616 24.6237C28.6104 28.0591 30.4015 30.2993 31.5869 31.7817C32.7293 33.2093 33.3583 33.9958 31.7858 36.0213Z"/>
</mask>
<path d="M64.9645 72.2944C64.9645 72.6125 64.8368 72.9176 64.6096 73.1425C64.3823 73.3675 64.0741 73.4939 63.7527 73.4939H63.1831C62.8617 73.4939 62.5535 73.3675 62.3262 73.1425C62.0989 72.9176 61.9712 72.6125 61.9712 72.2944C61.9712 71.9762 62.0989 71.6711 62.3262 71.4462C62.5535 71.2212 62.8617 71.0948 63.1831 71.0948H63.7523C63.9115 71.0948 64.0691 71.1258 64.2162 71.1861C64.3632 71.2463 64.4969 71.3347 64.6094 71.446C64.722 71.5574 64.8113 71.6897 64.8722 71.8352C64.9332 71.9808 64.9645 72.1368 64.9645 72.2944ZM72.5024 72.2505H71.9326C71.7735 72.2505 71.6159 72.2815 71.4689 72.3418C71.3219 72.4021 71.1883 72.4904 71.0757 72.6018C70.9632 72.7132 70.8739 72.8454 70.813 72.991C70.7521 73.1365 70.7208 73.2925 70.7208 73.45C70.7208 73.6075 70.7521 73.7635 70.813 73.909C70.8739 74.0546 70.9632 74.1868 71.0757 74.2982C71.1883 74.4096 71.3219 74.4979 71.4689 74.5582C71.6159 74.6185 71.7735 74.6495 71.9326 74.6495H72.502C72.8234 74.6495 73.1317 74.5231 73.359 74.2982C73.5862 74.0732 73.7139 73.7681 73.7139 73.45C73.7139 73.1319 73.5862 72.8268 73.359 72.6018C73.1317 72.3769 72.8234 72.2505 72.502 72.2505H72.5024ZM62.5401 65.5231C62.8615 65.5231 63.1698 65.3967 63.397 65.1718C63.6243 64.9468 63.752 64.6417 63.752 64.3236C63.752 64.0055 63.6243 63.7004 63.397 63.4754C63.1698 63.2505 62.8615 63.1241 62.5401 63.1241H61.9709C61.6495 63.1241 61.3413 63.2505 61.114 63.4754C60.8867 63.7004 60.7591 64.0055 60.7591 64.3236C60.7591 64.6417 60.8867 64.9468 61.114 65.1718C61.3413 65.3967 61.6495 65.5231 61.9709 65.5231H62.5401ZM33.8955 71.5364H33.3212C32.9998 71.5364 32.6916 71.6628 32.4643 71.8878C32.237 72.1127 32.1094 72.4178 32.1094 72.7359C32.1094 73.0541 32.237 73.3592 32.4643 73.5841C32.6916 73.8091 32.9998 73.9355 33.3212 73.9355H33.8955C34.2169 73.9355 34.5251 73.8091 34.7524 73.5841C34.9796 73.3592 35.1073 73.0541 35.1073 72.7359C35.1073 72.4178 34.9796 72.1127 34.7524 71.8878C34.5251 71.6628 34.2169 71.5364 33.8955 71.5364ZM72.0066 68.3987C72.328 68.3987 72.6362 68.2723 72.8635 68.0474C73.0907 67.8224 73.2184 67.5173 73.2184 67.1992C73.2184 66.881 73.0907 66.5759 72.8635 66.351C72.6362 66.126 72.328 65.9997 72.0066 65.9997H71.4374C71.1159 65.9997 70.8077 66.126 70.5804 66.351C70.3532 66.5759 70.2255 66.881 70.2255 67.1992C70.2255 67.5173 70.3532 67.8224 70.5804 68.0474C70.8077 68.2723 71.1159 68.3987 71.4374 68.3987H72.0066ZM107.217 49.9228C107.176 50.181 107.051 50.4189 106.861 50.6003C106.671 50.7817 106.426 50.8966 106.164 50.9276L95.638 52.1708L93.1201 54.6367L95.8632 57.3784C95.9753 57.4904 96.0639 57.6231 96.1241 57.7689C96.1844 57.9148 96.215 58.0709 96.2142 58.2285C96.2135 58.3861 96.1814 58.542 96.1198 58.6873C96.0582 58.8326 95.9683 58.9644 95.8552 59.0753C95.7421 59.1862 95.608 59.274 95.4607 59.3336C95.3133 59.3932 95.1555 59.4235 94.9963 59.4228C94.8371 59.422 94.6797 59.3902 94.5329 59.3293C94.3861 59.2683 94.2529 59.1793 94.1408 59.0673L91.3969 56.3256L89.675 58.0119L93.7388 62.0764C93.965 62.3026 94.0911 62.6084 94.0894 62.9266C94.0877 63.2449 93.9584 63.5494 93.7298 63.7732C93.5013 63.997 93.1923 64.1218 92.8708 64.1202C92.5494 64.1185 92.2417 63.9905 92.0156 63.7643L87.9517 59.6996L86.2276 61.3884L88.969 64.1315C89.1951 64.3577 89.3211 64.6636 89.3194 64.9818C89.3176 65.3 89.1883 65.6044 88.9597 65.8282C88.7312 66.052 88.4222 66.1768 88.1007 66.175C87.7793 66.1733 87.4717 66.0453 87.2456 65.819L84.5044 63.0761L81.4748 66.043C81.8529 67.5906 81.8198 69.2087 81.3787 70.7398C81.692 71.0806 81.9871 71.4375 82.2626 71.8089C83.5158 73.4978 84.3361 75.4625 84.6533 77.5343C84.6791 77.705 84.6674 77.8791 84.619 78.0449C84.5706 78.2107 84.4866 78.3641 84.3728 78.4948C84.259 78.6256 84.1181 78.7304 83.9596 78.8023C83.8012 78.8742 83.6289 78.9114 83.4546 78.9114H24.5909C24.4212 78.9114 24.2535 78.8762 24.0984 78.808C23.9434 78.7398 23.8045 78.6402 23.6909 78.5155C23.5772 78.3908 23.4913 78.2439 23.4386 78.0843C23.3859 77.9247 23.3677 77.7559 23.3851 77.5888C23.5867 75.9302 23.9857 74.3009 24.5737 72.7349C22.2446 71.2912 20.195 69.0176 18.7304 66.2267C18.6437 66.0617 18.597 65.879 18.5939 65.6931C18.5908 65.5071 18.6315 65.323 18.7126 65.1553C18.7938 64.9876 18.9132 64.8408 19.0615 64.7266C19.2098 64.6125 19.3829 64.534 19.5671 64.4974C19.673 64.4763 19.7558 64.4562 19.8278 64.4345C20.1079 64.3522 20.3687 64.216 20.5955 64.0336C20.8222 63.8512 21.0102 63.6263 21.1489 63.3718C21.2875 63.1172 21.374 62.8381 21.4033 62.5504C21.4326 62.2627 21.4042 61.9721 21.3198 61.6953C21.1954 61.2929 20.9586 60.9334 20.6368 60.6584C20.4996 60.5421 20.3905 60.3969 20.3173 60.2334C20.2441 60.07 20.2088 59.8924 20.2139 59.7137C20.219 59.5349 20.2644 59.3596 20.3467 59.2005C20.4291 59.0414 20.5464 58.9025 20.6899 58.794C21.2649 58.3569 21.6921 57.7572 21.9151 57.0744C22.1381 56.3916 22.1463 55.6578 21.9387 54.9703C21.7661 54.3996 21.45 53.8816 21.0201 53.4648C20.5901 53.048 20.0604 52.746 19.4803 52.5871C19.2793 52.5316 19.096 52.4256 18.9485 52.2795C18.8009 52.1333 18.694 51.9519 18.6381 51.7528C18.5822 51.5537 18.5792 51.3437 18.6294 51.1432C18.6796 50.9426 18.7813 50.7583 18.9246 50.608C20.1521 49.3204 22.3529 47.9667 26.0692 48.2885C25.6559 45.6695 24.3876 44.9559 23.4137 44.6536C23.1068 44.5585 22.8507 44.3465 22.7018 44.0644C22.5528 43.7824 22.5231 43.4533 22.6193 43.1495C22.7155 42.8458 22.9296 42.5924 23.2146 42.4449C23.4995 42.2974 23.832 42.2681 24.1389 42.3633C26.3822 43.0595 27.7917 44.7299 28.3521 47.3352C31.0639 45.446 33.4509 45.4313 35.0893 45.8323L35.1 45.8352C37.4069 42.0874 40.6789 38.1204 44.8489 34.0181C42.3356 31.4955 41.1376 29.1834 40.7841 26.2662C40.7217 25.7491 40.7701 25.2249 40.9261 24.7276C41.082 24.2303 41.3422 23.7711 41.6894 23.38C42.0367 22.9889 42.4634 22.6745 42.9416 22.4576C43.4198 22.2406 43.9388 22.1258 44.4649 22.1206C48.2673 22.0917 55.4458 22.0917 59.2418 22.1206C59.7683 22.1249 60.288 22.2389 60.767 22.4555C61.2459 22.672 61.6733 22.986 62.0213 23.3772C62.3693 23.7683 62.6301 24.2277 62.7865 24.7253C62.943 25.2229 62.9916 25.7476 62.9293 26.2651C62.5758 29.1834 61.3778 31.4953 58.8646 34.0179C61.991 37.0926 64.6283 40.1022 66.7381 43L66.7651 42.9126C66.7767 42.8755 66.79 42.839 66.8051 42.8031C67.965 40.0528 69.5207 39.566 70.6571 39.2106L70.752 39.1808L72.0064 35.1496C72.1978 34.5396 72.6254 34.0294 73.1956 33.7304C73.7659 33.4314 74.4325 33.368 75.0499 33.554L78.8904 34.7255C79.5078 34.9136 80.0247 35.3363 80.3278 35.901C80.6309 36.4656 80.6956 37.1262 80.5075 37.7379L79.2524 41.7673C79.2735 41.7938 79.2948 41.8209 79.3164 41.848C80.0539 42.7749 81.0639 44.0445 80.4622 46.9591C80.4543 46.997 80.4447 47.0345 80.4333 47.0715L76.4515 59.8917C77.828 60.5454 79.0205 61.5251 79.9232 62.7438C80.132 63.0252 80.3247 63.318 80.5002 63.6209L82.8 61.3683L80.0565 58.6232C79.9446 58.5112 79.856 58.3784 79.7959 58.2325C79.7358 58.0866 79.7053 57.9305 79.7062 57.7729C79.707 57.6154 79.7392 57.4595 79.8009 57.3143C79.8626 57.169 79.9526 57.0373 80.0658 56.9265C80.179 56.8157 80.3131 56.728 80.4605 56.6685C80.6078 56.609 80.7656 56.5788 80.9248 56.5796C81.084 56.5805 81.2414 56.6124 81.3882 56.6735C81.5349 56.7345 81.668 56.8236 81.78 56.9356L84.5232 59.6806L86.2472 57.9922L82.1814 53.9269C81.9553 53.7007 81.8292 53.3949 81.8309 53.0767C81.8326 52.7585 81.9619 52.454 82.1903 52.2302C82.4188 52.0064 82.7278 51.8816 83.0493 51.8832C83.3707 51.8849 83.6784 52.0129 83.9045 52.239L87.9701 56.3054L89.6913 54.6197L86.9469 51.878C86.8349 51.766 86.7463 51.6333 86.6861 51.4875C86.6259 51.3416 86.5953 51.1855 86.596 51.0279C86.5968 50.8704 86.6289 50.7145 86.6905 50.5692C86.7522 50.424 86.8421 50.2921 86.9552 50.1813C87.0683 50.0704 87.2023 49.9827 87.3497 49.9231C87.497 49.8635 87.6548 49.8332 87.8139 49.8339C87.9731 49.8347 88.1306 49.8665 88.2774 49.9275C88.4241 49.9884 88.5573 50.0775 88.6693 50.1894L91.4145 52.9325L93.9327 50.4661L95.302 40.0611C95.3358 39.8016 95.4545 39.5603 95.6397 39.3738C95.825 39.1873 96.0668 39.0659 96.3283 39.028C96.5898 38.9901 96.8566 39.0379 97.0881 39.164C97.3196 39.2901 97.5031 39.4877 97.6107 39.7266L100.374 45.8477L106.526 48.6467C106.766 48.7557 106.963 48.9394 107.088 49.1697C107.213 49.4001 107.258 49.6645 107.217 49.9228ZM64.9145 57.0342C66.3576 57.6718 67.6716 58.5638 68.7924 59.6666C70.487 58.9722 72.3507 58.7874 74.1507 59.1354L78.0978 46.4231C78.4541 44.643 78.0158 44.0926 77.4114 43.3321C77.24 43.1166 77.0626 42.8938 76.8955 42.6362C76.8 42.4893 76.7381 42.3234 76.7142 42.1502C76.6902 41.977 76.7049 41.8008 76.757 41.6338L78.1899 37.0338C78.1887 37.0286 78.186 37.0237 78.1822 37.02L74.3389 35.8479C74.3351 35.8446 74.3247 35.8533 74.3215 35.8559L72.8895 40.4608C72.8375 40.6277 72.7493 40.7814 72.6312 40.9111C72.513 41.0408 72.3677 41.1434 72.2053 41.2117C71.9221 41.3308 71.6498 41.416 71.3868 41.4984C70.4563 41.7897 69.7813 42.0005 69.0639 43.6747L68.317 46.0785C68.3141 46.0884 68.3111 46.0984 68.3078 46.1081L64.9145 57.0342ZM47.0684 32.8127H56.6446C59.1445 30.4502 60.209 28.563 60.5226 25.9812C60.5445 25.7983 60.5272 25.613 60.4717 25.4372C60.4162 25.2615 60.3238 25.0994 60.2005 24.9615C60.0773 24.8236 59.9259 24.713 59.7565 24.6371C59.587 24.5612 59.4032 24.5216 59.2172 24.5209C55.437 24.4921 48.2772 24.4921 44.4907 24.5209C44.3051 24.5225 44.122 24.5628 43.9533 24.6393C43.7846 24.7157 43.6341 24.8265 43.5116 24.9644C43.389 25.1023 43.2973 25.2642 43.2423 25.4396C43.1872 25.615 43.1702 25.7999 43.1923 25.9822C43.5042 28.5629 44.5687 30.4502 47.0684 32.8127ZM37.3584 46.7843C39.417 48.0275 41.1818 50.2082 42.3914 53.0357C44.2284 51.6284 46.486 50.8656 48.809 50.8673C50.6402 50.8741 52.4384 51.351 54.0276 52.2515C55.6169 53.1521 56.9429 54.4453 57.8761 56.005C59.4595 55.8036 61.0667 55.8902 62.6187 56.2605L65.8308 45.9205C63.5506 42.518 60.4599 38.92 56.6325 35.2125H54.8629C55.7082 36.4185 56.1923 37.867 56.3232 39.586C56.3352 39.7432 56.3158 39.9011 56.2661 40.0508C56.2164 40.2005 56.1375 40.339 56.0337 40.4585C55.9299 40.578 55.8034 40.676 55.6613 40.7471C55.5192 40.8181 55.3644 40.8608 55.2057 40.8726C55.1747 40.875 55.1437 40.8762 55.1132 40.8762C54.8077 40.8759 54.5136 40.7615 54.2897 40.5557C54.0658 40.3499 53.9287 40.068 53.9059 39.7665C53.7615 37.8728 53.1211 36.5239 51.8558 35.4926C50.5863 36.5259 49.9462 37.8745 49.8062 39.7641C49.7945 39.9212 49.7517 40.0745 49.6802 40.2153C49.6087 40.3561 49.5099 40.4815 49.3895 40.5845C49.269 40.6874 49.1292 40.7659 48.9781 40.8154C48.827 40.8649 48.6675 40.8844 48.5087 40.8729C48.35 40.8613 48.1951 40.819 48.0529 40.7482C47.9107 40.6774 47.7839 40.5796 47.6799 40.4604C47.5759 40.3411 47.4966 40.2028 47.4466 40.0532C47.3966 39.9036 47.3769 39.7457 47.3885 39.5886C47.5158 37.8692 47.9988 36.42 48.8464 35.2125H47.0806C42.9128 39.2507 39.6488 43.1363 37.3584 46.7843ZM25.5294 70.4884C26.0368 69.4377 26.6322 68.4309 27.3092 67.4785C30.1003 63.5852 33.875 61.406 38.2837 61.1223C38.3174 58.8559 39.1013 56.663 40.5153 54.88C39.3533 51.6679 37.4012 49.2809 35.2337 48.3992C35.211 48.391 35.1885 48.3821 35.1663 48.3733C34.9517 48.2885 34.7315 48.2181 34.5073 48.1626C32.4847 47.6672 30.3823 48.4678 28.2592 50.5417C28.1185 50.6788 27.9462 50.78 27.7571 50.8363C27.5681 50.8927 27.368 50.9026 27.1742 50.8652C25.1163 50.4655 23.4175 50.5875 22.0986 51.2266C23.1319 51.9861 23.8898 53.0556 24.2594 54.2758C24.5457 55.2246 24.5887 56.2291 24.3843 57.1985C24.18 58.1679 23.7347 59.0716 23.0889 59.8278C23.3256 60.1908 23.5108 60.5843 23.6392 60.9972C23.9383 61.983 23.8956 63.0396 23.5177 63.9985C23.1399 64.9575 22.4487 65.7638 21.5543 66.2889C22.57 67.9471 23.9238 69.3773 25.5294 70.4884ZM80.3093 73.2276C79.9606 72.7574 79.5738 72.3162 79.1528 71.9081C78.9848 71.7454 78.8682 71.5378 78.8172 71.3107C78.7663 71.0835 78.7831 70.8466 78.8658 70.6287C79.362 69.3214 79.4431 67.8953 79.0983 66.5411C78.7535 65.1869 77.9992 63.9692 76.9364 63.0508C75.8735 62.1323 74.5526 61.557 73.1505 61.4017C71.7483 61.2465 70.3317 61.5186 69.09 62.1818C68.8477 62.3118 68.5678 62.3562 68.2966 62.3076C68.0253 62.259 67.7789 62.1203 67.598 61.9145C66.3601 60.5125 64.7702 59.4589 62.989 58.8601C61.2078 58.2614 59.2985 58.1387 57.454 58.5044C57.1893 58.5569 56.9145 58.5204 56.673 58.4009C56.4316 58.2813 56.2373 58.0855 56.121 57.8443C55.3323 56.2007 54.0021 54.8715 52.3491 54.0753C50.6961 53.2791 48.8186 53.0633 47.0253 53.4632C45.2319 53.8632 43.6293 54.8551 42.481 56.2761C41.3327 57.697 40.7069 59.4624 40.7066 61.282C40.7062 61.5729 40.7231 61.8636 40.7573 62.1525C40.7775 62.3226 40.7607 62.495 40.708 62.6581C40.6553 62.8213 40.5679 62.9713 40.4517 63.0982C40.3355 63.2251 40.1932 63.326 40.0343 63.3939C39.8755 63.4618 39.7037 63.4952 39.5307 63.492C30.556 63.3283 26.9263 72.0171 26.0061 76.5103H81.95C81.5997 75.3301 81.0445 74.2193 80.3093 73.2276ZM101.608 49.0488L98.9477 47.8385C98.6808 47.7172 98.4674 47.5041 98.3473 47.2388L97.1512 44.5896L96.4846 49.6548L101.608 49.0488ZM40.9915 71.4626H40.4221C40.1007 71.4626 39.7925 71.589 39.5652 71.8139C39.338 72.0389 39.2103 72.344 39.2103 72.6621C39.2103 72.9802 39.338 73.2853 39.5652 73.5103C39.7925 73.7352 40.1007 73.8616 40.4221 73.8616H40.9915C41.3129 73.8616 41.6212 73.7352 41.8484 73.5103C42.0757 73.2853 42.2034 72.9802 42.2034 72.6621C42.2034 72.344 42.0757 72.0389 41.8484 71.8139C41.6212 71.589 41.3129 71.4626 40.9915 71.4626ZM53.7999 64.191H53.2307C52.9093 64.191 52.6011 64.3173 52.3738 64.5423C52.1465 64.7672 52.0188 65.0723 52.0188 65.3905C52.0188 65.7086 52.1465 66.0137 52.3738 66.2387C52.6011 66.4636 52.9093 66.59 53.2307 66.59H53.7999C54.1213 66.59 54.4296 66.4636 54.6568 66.2387C54.8841 66.0137 55.0118 65.7086 55.0118 65.3905C55.0118 65.0723 54.8841 64.7672 54.6568 64.5423C54.4296 64.3173 54.1213 64.191 53.7999 64.191ZM52.9705 70.87H52.4013C52.0799 70.87 51.7716 70.9964 51.5444 71.2214C51.3171 71.4463 51.1894 71.7514 51.1894 72.0695C51.1894 72.3877 51.3171 72.6928 51.5444 72.9177C51.7716 73.1427 52.0799 73.269 52.4013 73.269H52.9705C53.2919 73.269 53.6001 73.1427 53.8274 72.9177C54.0547 72.6928 54.1823 72.3877 54.1823 72.0695C54.1823 71.7514 54.0547 71.4463 53.8274 71.2214C53.6001 70.9964 53.2919 70.87 52.9705 70.87ZM48.603 58.2453H48.0338C47.7124 58.2453 47.4041 58.3717 47.1769 58.5966C46.9496 58.8216 46.8219 59.1267 46.8219 59.4448C46.8219 59.763 46.9496 60.0681 47.1769 60.293C47.4041 60.518 47.7124 60.6443 48.0338 60.6443H48.603C48.9244 60.6443 49.2326 60.518 49.4599 60.293C49.6872 60.0681 49.8148 59.763 49.8148 59.4448C49.8148 59.1267 49.6872 58.8216 49.4599 58.5966C49.2326 58.3717 48.9244 58.2453 48.603 58.2453ZM44.8289 65.9786H44.2595C43.9381 65.9786 43.6299 66.105 43.4026 66.3299C43.1754 66.5549 43.0477 66.86 43.0477 67.1781C43.0477 67.4962 43.1754 67.8013 43.4026 68.0263C43.6299 68.2512 43.9381 68.3776 44.2595 68.3776H44.8289C45.1503 68.3776 45.4586 68.2512 45.6859 68.0263C45.9131 67.8013 46.0408 67.4962 46.0408 67.1781C46.0408 66.86 45.9131 66.5549 45.6859 66.3299C45.4586 66.105 45.1503 65.9786 44.8289 65.9786ZM86.8325 40.8253C86.6367 41.0777 86.5501 41.3967 86.5919 41.7122C86.6337 42.0277 86.8004 42.3139 87.0553 42.5077C87.3103 42.7016 87.6326 42.7872 87.9513 42.7459C88.2701 42.7045 88.5592 42.5395 88.755 42.2872C91.476 38.7819 89.7062 36.5658 88.535 35.0999C87.381 33.6553 86.8543 32.9959 88.6787 31.0681C88.8984 30.8359 89.016 30.5267 89.0055 30.2087C88.995 29.8906 88.8572 29.5897 88.6226 29.3722C88.3879 29.1547 88.0756 29.0383 87.7543 29.0487C87.433 29.0591 87.129 29.1955 86.9092 29.4277C83.6578 32.8636 85.4486 35.105 86.6336 36.5883C87.7733 38.0161 88.4024 38.8028 86.8325 40.8253ZM56.9954 15.5711C56.7995 15.8234 56.7129 16.1423 56.7545 16.4578C56.7962 16.7732 56.9628 17.0594 57.2176 17.2533C57.4724 17.4472 57.7946 17.5329 58.1133 17.4917C58.432 17.4504 58.7211 17.2856 58.917 17.0333C61.6413 13.5241 59.8692 11.3086 58.6975 9.84243C57.5437 8.39942 57.0172 7.74089 58.8403 5.81413C58.9492 5.69915 59.034 5.56408 59.0901 5.41663C59.1462 5.26918 59.1724 5.11225 59.1672 4.95478C59.162 4.79731 59.1255 4.6424 59.0599 4.49889C58.9942 4.35537 58.9006 4.22607 58.7844 4.11836C58.6683 4.01065 58.5318 3.92664 58.3828 3.87113C58.2339 3.81561 58.0753 3.78969 57.9162 3.79483C57.7572 3.79997 57.6007 3.83607 57.4557 3.90108C57.3107 3.96609 57.18 4.05873 57.0712 4.17371C53.82 7.60911 55.6113 9.84929 56.7965 11.3317C57.9389 12.7595 58.5677 13.5458 56.9954 15.5711ZM69.4452 28.5315C69.3483 28.6565 69.2772 28.7991 69.236 28.9513C69.1948 29.1035 69.1843 29.2622 69.205 29.4184C69.2258 29.5746 69.2774 29.7252 69.357 29.8616C69.4366 29.9981 69.5425 30.1177 69.6687 30.2136C69.795 30.3095 69.9391 30.3799 70.0928 30.4207C70.2466 30.4614 70.4069 30.4719 70.5647 30.4513C70.7225 30.4308 70.8747 30.3797 71.0125 30.3009C71.1504 30.2222 71.2712 30.1173 71.3681 29.9924C74.0885 26.4845 72.3178 24.269 71.1462 22.8035C69.9914 21.3588 69.4645 20.6994 71.2912 18.7692C71.511 18.537 71.6286 18.2279 71.6182 17.9098C71.6077 17.5918 71.47 17.2909 71.2354 17.0733C71.0008 16.8558 70.6885 16.7394 70.3672 16.7498C70.0459 16.7601 69.7419 16.8964 69.5221 17.1286C66.2674 20.5674 68.0594 22.809 69.2451 24.2923C70.3863 25.7202 71.0151 26.5067 69.4452 28.5315ZM39.9907 15.5718C39.8938 15.6968 39.8227 15.8395 39.7815 15.9916C39.7403 16.1438 39.7297 16.3025 39.7505 16.4587C39.7712 16.615 39.8229 16.7656 39.9024 16.9021C39.982 17.0385 40.088 17.1581 40.2142 17.254C40.3405 17.35 40.4846 17.4204 40.6384 17.4612C40.7921 17.502 40.9525 17.5124 41.1103 17.4918C41.2681 17.4713 41.4203 17.4202 41.5581 17.3414C41.696 17.2627 41.8168 17.1578 41.9138 17.0328C44.6344 13.5244 42.8632 11.3094 41.6913 9.84363C40.5373 8.40062 40.0106 7.74191 41.8364 5.81464C42.0563 5.58252 42.174 5.27344 42.1636 4.95541C42.1533 4.63738 42.0157 4.33643 41.7812 4.11879C41.5467 3.90114 41.2345 3.78462 40.9132 3.79485C40.5919 3.80509 40.2878 3.94124 40.0679 4.17336C36.8133 7.60945 38.6045 9.85014 39.7909 11.3327C40.932 12.7607 41.5608 13.547 39.9907 15.5718ZM31.7858 36.0213C31.6874 36.146 31.6148 36.2889 31.5724 36.4415C31.53 36.5941 31.5185 36.7536 31.5386 36.9106C31.5588 37.0677 31.6101 37.2192 31.6897 37.3566C31.7693 37.4939 31.8756 37.6143 32.0024 37.7107C32.1292 37.8072 32.274 37.8779 32.4286 37.9187C32.5831 37.9595 32.7443 37.9696 32.9028 37.9484C33.0613 37.9272 33.214 37.8752 33.3521 37.7954C33.4902 37.7155 33.611 37.6094 33.7075 37.4831C36.4317 33.9739 34.6596 31.7584 33.4878 30.2922C32.3341 28.8494 31.8074 28.191 33.6308 26.2643C33.7396 26.1493 33.8245 26.0142 33.8806 25.8668C33.9367 25.7193 33.9629 25.5624 33.9577 25.4049C33.9525 25.2474 33.916 25.0925 33.8504 24.949C33.7847 24.8055 33.6911 24.6761 33.5749 24.5684C33.4588 24.4607 33.3223 24.3767 33.1733 24.3211C33.0244 24.2656 32.8658 24.2397 32.7067 24.2448C32.5476 24.25 32.3911 24.2861 32.2461 24.3511C32.1011 24.4161 31.9705 24.5087 31.8616 24.6237C28.6104 28.0591 30.4015 30.2993 31.5869 31.7817C32.7293 33.2093 33.3583 33.9958 31.7858 36.0213Z" fill="#2B2B2B"/>
<path d="M64.9645 72.2944C64.9645 72.6125 64.8368 72.9176 64.6096 73.1425C64.3823 73.3675 64.0741 73.4939 63.7527 73.4939H63.1831C62.8617 73.4939 62.5535 73.3675 62.3262 73.1425C62.0989 72.9176 61.9712 72.6125 61.9712 72.2944C61.9712 71.9762 62.0989 71.6711 62.3262 71.4462C62.5535 71.2212 62.8617 71.0948 63.1831 71.0948H63.7523C63.9115 71.0948 64.0691 71.1258 64.2162 71.1861C64.3632 71.2463 64.4969 71.3347 64.6094 71.446C64.722 71.5574 64.8113 71.6897 64.8722 71.8352C64.9332 71.9808 64.9645 72.1368 64.9645 72.2944ZM72.5024 72.2505H71.9326C71.7735 72.2505 71.6159 72.2815 71.4689 72.3418C71.3219 72.4021 71.1883 72.4904 71.0757 72.6018C70.9632 72.7132 70.8739 72.8454 70.813 72.991C70.7521 73.1365 70.7208 73.2925 70.7208 73.45C70.7208 73.6075 70.7521 73.7635 70.813 73.909C70.8739 74.0546 70.9632 74.1868 71.0757 74.2982C71.1883 74.4096 71.3219 74.4979 71.4689 74.5582C71.6159 74.6185 71.7735 74.6495 71.9326 74.6495H72.502C72.8234 74.6495 73.1317 74.5231 73.359 74.2982C73.5862 74.0732 73.7139 73.7681 73.7139 73.45C73.7139 73.1319 73.5862 72.8268 73.359 72.6018C73.1317 72.3769 72.8234 72.2505 72.502 72.2505H72.5024ZM62.5401 65.5231C62.8615 65.5231 63.1698 65.3967 63.397 65.1718C63.6243 64.9468 63.752 64.6417 63.752 64.3236C63.752 64.0055 63.6243 63.7004 63.397 63.4754C63.1698 63.2505 62.8615 63.1241 62.5401 63.1241H61.9709C61.6495 63.1241 61.3413 63.2505 61.114 63.4754C60.8867 63.7004 60.7591 64.0055 60.7591 64.3236C60.7591 64.6417 60.8867 64.9468 61.114 65.1718C61.3413 65.3967 61.6495 65.5231 61.9709 65.5231H62.5401ZM33.8955 71.5364H33.3212C32.9998 71.5364 32.6916 71.6628 32.4643 71.8878C32.237 72.1127 32.1094 72.4178 32.1094 72.7359C32.1094 73.0541 32.237 73.3592 32.4643 73.5841C32.6916 73.8091 32.9998 73.9355 33.3212 73.9355H33.8955C34.2169 73.9355 34.5251 73.8091 34.7524 73.5841C34.9796 73.3592 35.1073 73.0541 35.1073 72.7359C35.1073 72.4178 34.9796 72.1127 34.7524 71.8878C34.5251 71.6628 34.2169 71.5364 33.8955 71.5364ZM72.0066 68.3987C72.328 68.3987 72.6362 68.2723 72.8635 68.0474C73.0907 67.8224 73.2184 67.5173 73.2184 67.1992C73.2184 66.881 73.0907 66.5759 72.8635 66.351C72.6362 66.126 72.328 65.9997 72.0066 65.9997H71.4374C71.1159 65.9997 70.8077 66.126 70.5804 66.351C70.3532 66.5759 70.2255 66.881 70.2255 67.1992C70.2255 67.5173 70.3532 67.8224 70.5804 68.0474C70.8077 68.2723 71.1159 68.3987 71.4374 68.3987H72.0066ZM107.217 49.9228C107.176 50.181 107.051 50.4189 106.861 50.6003C106.671 50.7817 106.426 50.8966 106.164 50.9276L95.638 52.1708L93.1201 54.6367L95.8632 57.3784C95.9753 57.4904 96.0639 57.6231 96.1241 57.7689C96.1844 57.9148 96.215 58.0709 96.2142 58.2285C96.2135 58.3861 96.1814 58.542 96.1198 58.6873C96.0582 58.8326 95.9683 58.9644 95.8552 59.0753C95.7421 59.1862 95.608 59.274 95.4607 59.3336C95.3133 59.3932 95.1555 59.4235 94.9963 59.4228C94.8371 59.422 94.6797 59.3902 94.5329 59.3293C94.3861 59.2683 94.2529 59.1793 94.1408 59.0673L91.3969 56.3256L89.675 58.0119L93.7388 62.0764C93.965 62.3026 94.0911 62.6084 94.0894 62.9266C94.0877 63.2449 93.9584 63.5494 93.7298 63.7732C93.5013 63.997 93.1923 64.1218 92.8708 64.1202C92.5494 64.1185 92.2417 63.9905 92.0156 63.7643L87.9517 59.6996L86.2276 61.3884L88.969 64.1315C89.1951 64.3577 89.3211 64.6636 89.3194 64.9818C89.3176 65.3 89.1883 65.6044 88.9597 65.8282C88.7312 66.052 88.4222 66.1768 88.1007 66.175C87.7793 66.1733 87.4717 66.0453 87.2456 65.819L84.5044 63.0761L81.4748 66.043C81.8529 67.5906 81.8198 69.2087 81.3787 70.7398C81.692 71.0806 81.9871 71.4375 82.2626 71.8089C83.5158 73.4978 84.3361 75.4625 84.6533 77.5343C84.6791 77.705 84.6674 77.8791 84.619 78.0449C84.5706 78.2107 84.4866 78.3641 84.3728 78.4948C84.259 78.6256 84.1181 78.7304 83.9596 78.8023C83.8012 78.8742 83.6289 78.9114 83.4546 78.9114H24.5909C24.4212 78.9114 24.2535 78.8762 24.0984 78.808C23.9434 78.7398 23.8045 78.6402 23.6909 78.5155C23.5772 78.3908 23.4913 78.2439 23.4386 78.0843C23.3859 77.9247 23.3677 77.7559 23.3851 77.5888C23.5867 75.9302 23.9857 74.3009 24.5737 72.7349C22.2446 71.2912 20.195 69.0176 18.7304 66.2267C18.6437 66.0617 18.597 65.879 18.5939 65.6931C18.5908 65.5071 18.6315 65.323 18.7126 65.1553C18.7938 64.9876 18.9132 64.8408 19.0615 64.7266C19.2098 64.6125 19.3829 64.534 19.5671 64.4974C19.673 64.4763 19.7558 64.4562 19.8278 64.4345C20.1079 64.3522 20.3687 64.216 20.5955 64.0336C20.8222 63.8512 21.0102 63.6263 21.1489 63.3718C21.2875 63.1172 21.374 62.8381 21.4033 62.5504C21.4326 62.2627 21.4042 61.9721 21.3198 61.6953C21.1954 61.2929 20.9586 60.9334 20.6368 60.6584C20.4996 60.5421 20.3905 60.3969 20.3173 60.2334C20.2441 60.07 20.2088 59.8924 20.2139 59.7137C20.219 59.5349 20.2644 59.3596 20.3467 59.2005C20.4291 59.0414 20.5464 58.9025 20.6899 58.794C21.2649 58.3569 21.6921 57.7572 21.9151 57.0744C22.1381 56.3916 22.1463 55.6578 21.9387 54.9703C21.7661 54.3996 21.45 53.8816 21.0201 53.4648C20.5901 53.048 20.0604 52.746 19.4803 52.5871C19.2793 52.5316 19.096 52.4256 18.9485 52.2795C18.8009 52.1333 18.694 51.9519 18.6381 51.7528C18.5822 51.5537 18.5792 51.3437 18.6294 51.1432C18.6796 50.9426 18.7813 50.7583 18.9246 50.608C20.1521 49.3204 22.3529 47.9667 26.0692 48.2885C25.6559 45.6695 24.3876 44.9559 23.4137 44.6536C23.1068 44.5585 22.8507 44.3465 22.7018 44.0644C22.5528 43.7824 22.5231 43.4533 22.6193 43.1495C22.7155 42.8458 22.9296 42.5924 23.2146 42.4449C23.4995 42.2974 23.832 42.2681 24.1389 42.3633C26.3822 43.0595 27.7917 44.7299 28.3521 47.3352C31.0639 45.446 33.4509 45.4313 35.0893 45.8323L35.1 45.8352C37.4069 42.0874 40.6789 38.1204 44.8489 34.0181C42.3356 31.4955 41.1376 29.1834 40.7841 26.2662C40.7217 25.7491 40.7701 25.2249 40.9261 24.7276C41.082 24.2303 41.3422 23.7711 41.6894 23.38C42.0367 22.9889 42.4634 22.6745 42.9416 22.4576C43.4198 22.2406 43.9388 22.1258 44.4649 22.1206C48.2673 22.0917 55.4458 22.0917 59.2418 22.1206C59.7683 22.1249 60.288 22.2389 60.767 22.4555C61.2459 22.672 61.6733 22.986 62.0213 23.3772C62.3693 23.7683 62.6301 24.2277 62.7865 24.7253C62.943 25.2229 62.9916 25.7476 62.9293 26.2651C62.5758 29.1834 61.3778 31.4953 58.8646 34.0179C61.991 37.0926 64.6283 40.1022 66.7381 43L66.7651 42.9126C66.7767 42.8755 66.79 42.839 66.8051 42.8031C67.965 40.0528 69.5207 39.566 70.6571 39.2106L70.752 39.1808L72.0064 35.1496C72.1978 34.5396 72.6254 34.0294 73.1956 33.7304C73.7659 33.4314 74.4325 33.368 75.0499 33.554L78.8904 34.7255C79.5078 34.9136 80.0247 35.3363 80.3278 35.901C80.6309 36.4656 80.6956 37.1262 80.5075 37.7379L79.2524 41.7673C79.2735 41.7938 79.2948 41.8209 79.3164 41.848C80.0539 42.7749 81.0639 44.0445 80.4622 46.9591C80.4543 46.997 80.4447 47.0345 80.4333 47.0715L76.4515 59.8917C77.828 60.5454 79.0205 61.5251 79.9232 62.7438C80.132 63.0252 80.3247 63.318 80.5002 63.6209L82.8 61.3683L80.0565 58.6232C79.9446 58.5112 79.856 58.3784 79.7959 58.2325C79.7358 58.0866 79.7053 57.9305 79.7062 57.7729C79.707 57.6154 79.7392 57.4595 79.8009 57.3143C79.8626 57.169 79.9526 57.0373 80.0658 56.9265C80.179 56.8157 80.3131 56.728 80.4605 56.6685C80.6078 56.609 80.7656 56.5788 80.9248 56.5796C81.084 56.5805 81.2414 56.6124 81.3882 56.6735C81.5349 56.7345 81.668 56.8236 81.78 56.9356L84.5232 59.6806L86.2472 57.9922L82.1814 53.9269C81.9553 53.7007 81.8292 53.3949 81.8309 53.0767C81.8326 52.7585 81.9619 52.454 82.1903 52.2302C82.4188 52.0064 82.7278 51.8816 83.0493 51.8832C83.3707 51.8849 83.6784 52.0129 83.9045 52.239L87.9701 56.3054L89.6913 54.6197L86.9469 51.878C86.8349 51.766 86.7463 51.6333 86.6861 51.4875C86.6259 51.3416 86.5953 51.1855 86.596 51.0279C86.5968 50.8704 86.6289 50.7145 86.6905 50.5692C86.7522 50.424 86.8421 50.2921 86.9552 50.1813C87.0683 50.0704 87.2023 49.9827 87.3497 49.9231C87.497 49.8635 87.6548 49.8332 87.8139 49.8339C87.9731 49.8347 88.1306 49.8665 88.2774 49.9275C88.4241 49.9884 88.5573 50.0775 88.6693 50.1894L91.4145 52.9325L93.9327 50.4661L95.302 40.0611C95.3358 39.8016 95.4545 39.5603 95.6397 39.3738C95.825 39.1873 96.0668 39.0659 96.3283 39.028C96.5898 38.9901 96.8566 39.0379 97.0881 39.164C97.3196 39.2901 97.5031 39.4877 97.6107 39.7266L100.374 45.8477L106.526 48.6467C106.766 48.7557 106.963 48.9394 107.088 49.1697C107.213 49.4001 107.258 49.6645 107.217 49.9228ZM64.9145 57.0342C66.3576 57.6718 67.6716 58.5638 68.7924 59.6666C70.487 58.9722 72.3507 58.7874 74.1507 59.1354L78.0978 46.4231C78.4541 44.643 78.0158 44.0926 77.4114 43.3321C77.24 43.1166 77.0626 42.8938 76.8955 42.6362C76.8 42.4893 76.7381 42.3234 76.7142 42.1502C76.6902 41.977 76.7049 41.8008 76.757 41.6338L78.1899 37.0338C78.1887 37.0286 78.186 37.0237 78.1822 37.02L74.3389 35.8479C74.3351 35.8446 74.3247 35.8533 74.3215 35.8559L72.8895 40.4608C72.8375 40.6277 72.7493 40.7814 72.6312 40.9111C72.513 41.0408 72.3677 41.1434 72.2053 41.2117C71.9221 41.3308 71.6498 41.416 71.3868 41.4984C70.4563 41.7897 69.7813 42.0005 69.0639 43.6747L68.317 46.0785C68.3141 46.0884 68.3111 46.0984 68.3078 46.1081L64.9145 57.0342ZM47.0684 32.8127H56.6446C59.1445 30.4502 60.209 28.563 60.5226 25.9812C60.5445 25.7983 60.5272 25.613 60.4717 25.4372C60.4162 25.2615 60.3238 25.0994 60.2005 24.9615C60.0773 24.8236 59.9259 24.713 59.7565 24.6371C59.587 24.5612 59.4032 24.5216 59.2172 24.5209C55.437 24.4921 48.2772 24.4921 44.4907 24.5209C44.3051 24.5225 44.122 24.5628 43.9533 24.6393C43.7846 24.7157 43.6341 24.8265 43.5116 24.9644C43.389 25.1023 43.2973 25.2642 43.2423 25.4396C43.1872 25.615 43.1702 25.7999 43.1923 25.9822C43.5042 28.5629 44.5687 30.4502 47.0684 32.8127ZM37.3584 46.7843C39.417 48.0275 41.1818 50.2082 42.3914 53.0357C44.2284 51.6284 46.486 50.8656 48.809 50.8673C50.6402 50.8741 52.4384 51.351 54.0276 52.2515C55.6169 53.1521 56.9429 54.4453 57.8761 56.005C59.4595 55.8036 61.0667 55.8902 62.6187 56.2605L65.8308 45.9205C63.5506 42.518 60.4599 38.92 56.6325 35.2125H54.8629C55.7082 36.4185 56.1923 37.867 56.3232 39.586C56.3352 39.7432 56.3158 39.9011 56.2661 40.0508C56.2164 40.2005 56.1375 40.339 56.0337 40.4585C55.9299 40.578 55.8034 40.676 55.6613 40.7471C55.5192 40.8181 55.3644 40.8608 55.2057 40.8726C55.1747 40.875 55.1437 40.8762 55.1132 40.8762C54.8077 40.8759 54.5136 40.7615 54.2897 40.5557C54.0658 40.3499 53.9287 40.068 53.9059 39.7665C53.7615 37.8728 53.1211 36.5239 51.8558 35.4926C50.5863 36.5259 49.9462 37.8745 49.8062 39.7641C49.7945 39.9212 49.7517 40.0745 49.6802 40.2153C49.6087 40.3561 49.5099 40.4815 49.3895 40.5845C49.269 40.6874 49.1292 40.7659 48.9781 40.8154C48.827 40.8649 48.6675 40.8844 48.5087 40.8729C48.35 40.8613 48.1951 40.819 48.0529 40.7482C47.9107 40.6774 47.7839 40.5796 47.6799 40.4604C47.5759 40.3411 47.4966 40.2028 47.4466 40.0532C47.3966 39.9036 47.3769 39.7457 47.3885 39.5886C47.5158 37.8692 47.9988 36.42 48.8464 35.2125H47.0806C42.9128 39.2507 39.6488 43.1363 37.3584 46.7843ZM25.5294 70.4884C26.0368 69.4377 26.6322 68.4309 27.3092 67.4785C30.1003 63.5852 33.875 61.406 38.2837 61.1223C38.3174 58.8559 39.1013 56.663 40.5153 54.88C39.3533 51.6679 37.4012 49.2809 35.2337 48.3992C35.211 48.391 35.1885 48.3821 35.1663 48.3733C34.9517 48.2885 34.7315 48.2181 34.5073 48.1626C32.4847 47.6672 30.3823 48.4678 28.2592 50.5417C28.1185 50.6788 27.9462 50.78 27.7571 50.8363C27.5681 50.8927 27.368 50.9026 27.1742 50.8652C25.1163 50.4655 23.4175 50.5875 22.0986 51.2266C23.1319 51.9861 23.8898 53.0556 24.2594 54.2758C24.5457 55.2246 24.5887 56.2291 24.3843 57.1985C24.18 58.1679 23.7347 59.0716 23.0889 59.8278C23.3256 60.1908 23.5108 60.5843 23.6392 60.9972C23.9383 61.983 23.8956 63.0396 23.5177 63.9985C23.1399 64.9575 22.4487 65.7638 21.5543 66.2889C22.57 67.9471 23.9238 69.3773 25.5294 70.4884ZM80.3093 73.2276C79.9606 72.7574 79.5738 72.3162 79.1528 71.9081C78.9848 71.7454 78.8682 71.5378 78.8172 71.3107C78.7663 71.0835 78.7831 70.8466 78.8658 70.6287C79.362 69.3214 79.4431 67.8953 79.0983 66.5411C78.7535 65.1869 77.9992 63.9692 76.9364 63.0508C75.8735 62.1323 74.5526 61.557 73.1505 61.4017C71.7483 61.2465 70.3317 61.5186 69.09 62.1818C68.8477 62.3118 68.5678 62.3562 68.2966 62.3076C68.0253 62.259 67.7789 62.1203 67.598 61.9145C66.3601 60.5125 64.7702 59.4589 62.989 58.8601C61.2078 58.2614 59.2985 58.1387 57.454 58.5044C57.1893 58.5569 56.9145 58.5204 56.673 58.4009C56.4316 58.2813 56.2373 58.0855 56.121 57.8443C55.3323 56.2007 54.0021 54.8715 52.3491 54.0753C50.6961 53.2791 48.8186 53.0633 47.0253 53.4632C45.2319 53.8632 43.6293 54.8551 42.481 56.2761C41.3327 57.697 40.7069 59.4624 40.7066 61.282C40.7062 61.5729 40.7231 61.8636 40.7573 62.1525C40.7775 62.3226 40.7607 62.495 40.708 62.6581C40.6553 62.8213 40.5679 62.9713 40.4517 63.0982C40.3355 63.2251 40.1932 63.326 40.0343 63.3939C39.8755 63.4618 39.7037 63.4952 39.5307 63.492C30.556 63.3283 26.9263 72.0171 26.0061 76.5103H81.95C81.5997 75.3301 81.0445 74.2193 80.3093 73.2276ZM101.608 49.0488L98.9477 47.8385C98.6808 47.7172 98.4674 47.5041 98.3473 47.2388L97.1512 44.5896L96.4846 49.6548L101.608 49.0488ZM40.9915 71.4626H40.4221C40.1007 71.4626 39.7925 71.589 39.5652 71.8139C39.338 72.0389 39.2103 72.344 39.2103 72.6621C39.2103 72.9802 39.338 73.2853 39.5652 73.5103C39.7925 73.7352 40.1007 73.8616 40.4221 73.8616H40.9915C41.3129 73.8616 41.6212 73.7352 41.8484 73.5103C42.0757 73.2853 42.2034 72.9802 42.2034 72.6621C42.2034 72.344 42.0757 72.0389 41.8484 71.8139C41.6212 71.589 41.3129 71.4626 40.9915 71.4626ZM53.7999 64.191H53.2307C52.9093 64.191 52.6011 64.3173 52.3738 64.5423C52.1465 64.7672 52.0188 65.0723 52.0188 65.3905C52.0188 65.7086 52.1465 66.0137 52.3738 66.2387C52.6011 66.4636 52.9093 66.59 53.2307 66.59H53.7999C54.1213 66.59 54.4296 66.4636 54.6568 66.2387C54.8841 66.0137 55.0118 65.7086 55.0118 65.3905C55.0118 65.0723 54.8841 64.7672 54.6568 64.5423C54.4296 64.3173 54.1213 64.191 53.7999 64.191ZM52.9705 70.87H52.4013C52.0799 70.87 51.7716 70.9964 51.5444 71.2214C51.3171 71.4463 51.1894 71.7514 51.1894 72.0695C51.1894 72.3877 51.3171 72.6928 51.5444 72.9177C51.7716 73.1427 52.0799 73.269 52.4013 73.269H52.9705C53.2919 73.269 53.6001 73.1427 53.8274 72.9177C54.0547 72.6928 54.1823 72.3877 54.1823 72.0695C54.1823 71.7514 54.0547 71.4463 53.8274 71.2214C53.6001 70.9964 53.2919 70.87 52.9705 70.87ZM48.603 58.2453H48.0338C47.7124 58.2453 47.4041 58.3717 47.1769 58.5966C46.9496 58.8216 46.8219 59.1267 46.8219 59.4448C46.8219 59.763 46.9496 60.0681 47.1769 60.293C47.4041 60.518 47.7124 60.6443 48.0338 60.6443H48.603C48.9244 60.6443 49.2326 60.518 49.4599 60.293C49.6872 60.0681 49.8148 59.763 49.8148 59.4448C49.8148 59.1267 49.6872 58.8216 49.4599 58.5966C49.2326 58.3717 48.9244 58.2453 48.603 58.2453ZM44.8289 65.9786H44.2595C43.9381 65.9786 43.6299 66.105 43.4026 66.3299C43.1754 66.5549 43.0477 66.86 43.0477 67.1781C43.0477 67.4962 43.1754 67.8013 43.4026 68.0263C43.6299 68.2512 43.9381 68.3776 44.2595 68.3776H44.8289C45.1503 68.3776 45.4586 68.2512 45.6859 68.0263C45.9131 67.8013 46.0408 67.4962 46.0408 67.1781C46.0408 66.86 45.9131 66.5549 45.6859 66.3299C45.4586 66.105 45.1503 65.9786 44.8289 65.9786ZM86.8325 40.8253C86.6367 41.0777 86.5501 41.3967 86.5919 41.7122C86.6337 42.0277 86.8004 42.3139 87.0553 42.5077C87.3103 42.7016 87.6326 42.7872 87.9513 42.7459C88.2701 42.7045 88.5592 42.5395 88.755 42.2872C91.476 38.7819 89.7062 36.5658 88.535 35.0999C87.381 33.6553 86.8543 32.9959 88.6787 31.0681C88.8984 30.8359 89.016 30.5267 89.0055 30.2087C88.995 29.8906 88.8572 29.5897 88.6226 29.3722C88.3879 29.1547 88.0756 29.0383 87.7543 29.0487C87.433 29.0591 87.129 29.1955 86.9092 29.4277C83.6578 32.8636 85.4486 35.105 86.6336 36.5883C87.7733 38.0161 88.4024 38.8028 86.8325 40.8253ZM56.9954 15.5711C56.7995 15.8234 56.7129 16.1423 56.7545 16.4578C56.7962 16.7732 56.9628 17.0594 57.2176 17.2533C57.4724 17.4472 57.7946 17.5329 58.1133 17.4917C58.432 17.4504 58.7211 17.2856 58.917 17.0333C61.6413 13.5241 59.8692 11.3086 58.6975 9.84243C57.5437 8.39942 57.0172 7.74089 58.8403 5.81413C58.9492 5.69915 59.034 5.56408 59.0901 5.41663C59.1462 5.26918 59.1724 5.11225 59.1672 4.95478C59.162 4.79731 59.1255 4.6424 59.0599 4.49889C58.9942 4.35537 58.9006 4.22607 58.7844 4.11836C58.6683 4.01065 58.5318 3.92664 58.3828 3.87113C58.2339 3.81561 58.0753 3.78969 57.9162 3.79483C57.7572 3.79997 57.6007 3.83607 57.4557 3.90108C57.3107 3.96609 57.18 4.05873 57.0712 4.17371C53.82 7.60911 55.6113 9.84929 56.7965 11.3317C57.9389 12.7595 58.5677 13.5458 56.9954 15.5711ZM69.4452 28.5315C69.3483 28.6565 69.2772 28.7991 69.236 28.9513C69.1948 29.1035 69.1843 29.2622 69.205 29.4184C69.2258 29.5746 69.2774 29.7252 69.357 29.8616C69.4366 29.9981 69.5425 30.1177 69.6687 30.2136C69.795 30.3095 69.9391 30.3799 70.0928 30.4207C70.2466 30.4614 70.4069 30.4719 70.5647 30.4513C70.7225 30.4308 70.8747 30.3797 71.0125 30.3009C71.1504 30.2222 71.2712 30.1173 71.3681 29.9924C74.0885 26.4845 72.3178 24.269 71.1462 22.8035C69.9914 21.3588 69.4645 20.6994 71.2912 18.7692C71.511 18.537 71.6286 18.2279 71.6182 17.9098C71.6077 17.5918 71.47 17.2909 71.2354 17.0733C71.0008 16.8558 70.6885 16.7394 70.3672 16.7498C70.0459 16.7601 69.7419 16.8964 69.5221 17.1286C66.2674 20.5674 68.0594 22.809 69.2451 24.2923C70.3863 25.7202 71.0151 26.5067 69.4452 28.5315ZM39.9907 15.5718C39.8938 15.6968 39.8227 15.8395 39.7815 15.9916C39.7403 16.1438 39.7297 16.3025 39.7505 16.4587C39.7712 16.615 39.8229 16.7656 39.9024 16.9021C39.982 17.0385 40.088 17.1581 40.2142 17.254C40.3405 17.35 40.4846 17.4204 40.6384 17.4612C40.7921 17.502 40.9525 17.5124 41.1103 17.4918C41.2681 17.4713 41.4203 17.4202 41.5581 17.3414C41.696 17.2627 41.8168 17.1578 41.9138 17.0328C44.6344 13.5244 42.8632 11.3094 41.6913 9.84363C40.5373 8.40062 40.0106 7.74191 41.8364 5.81464C42.0563 5.58252 42.174 5.27344 42.1636 4.95541C42.1533 4.63738 42.0157 4.33643 41.7812 4.11879C41.5467 3.90114 41.2345 3.78462 40.9132 3.79485C40.5919 3.80509 40.2878 3.94124 40.0679 4.17336C36.8133 7.60945 38.6045 9.85014 39.7909 11.3327C40.932 12.7607 41.5608 13.547 39.9907 15.5718ZM31.7858 36.0213C31.6874 36.146 31.6148 36.2889 31.5724 36.4415C31.53 36.5941 31.5185 36.7536 31.5386 36.9106C31.5588 37.0677 31.6101 37.2192 31.6897 37.3566C31.7693 37.4939 31.8756 37.6143 32.0024 37.7107C32.1292 37.8072 32.274 37.8779 32.4286 37.9187C32.5831 37.9595 32.7443 37.9696 32.9028 37.9484C33.0613 37.9272 33.214 37.8752 33.3521 37.7954C33.4902 37.7155 33.611 37.6094 33.7075 37.4831C36.4317 33.9739 34.6596 31.7584 33.4878 30.2922C32.3341 28.8494 31.8074 28.191 33.6308 26.2643C33.7396 26.1493 33.8245 26.0142 33.8806 25.8668C33.9367 25.7193 33.9629 25.5624 33.9577 25.4049C33.9525 25.2474 33.916 25.0925 33.8504 24.949C33.7847 24.8055 33.6911 24.6761 33.5749 24.5684C33.4588 24.4607 33.3223 24.3767 33.1733 24.3211C33.0244 24.2656 32.8658 24.2397 32.7067 24.2448C32.5476 24.25 32.3911 24.2861 32.2461 24.3511C32.1011 24.4161 31.9705 24.5087 31.8616 24.6237C28.6104 28.0591 30.4015 30.2993 31.5869 31.7817C32.7293 33.2093 33.3583 33.9958 31.7858 36.0213Z" stroke="white" mask="url(#path-1-outside-1_1_4375)"/>
<path d="M2.5 84.4192L93.9577 2.50007" stroke="#FB7E00" stroke-width="5" stroke-linecap="round"/>
</svg>
