<svg width="73" height="85" viewBox="0 0 73 85" fill="none" xmlns="http://www.w3.org/2000/svg">
<path d="M31.6791 82.8738H60.4949L65.3528 69.5232V52.5035C65.3528 51.2118 64.3127 50.1716 63.021 50.1716H57.3059V49.4058C57.3059 48.1142 56.2657 47.0741 54.974 47.0741H49.2589V46.5368C49.2589 45.2452 48.2188 44.2051 46.9271 44.2051H41.212V31.0145C41.212 28.7627 39.3831 26.9453 37.1428 26.9453H35.7711C33.5194 26.9453 31.7019 28.7742 31.7019 31.0145V63.8194L26.4783 54.7667C25.3581 52.8235 22.8663 52.1491 20.9117 53.2807L19.723 53.9665C17.7799 55.0867 17.1055 57.5785 18.2371 59.5331L31.7134 82.8738H31.6791Z" stroke="black" stroke-width="3" stroke-linecap="round" stroke-linejoin="round"/>
<path d="M41.1953 57.0135V44.2344" stroke="black" stroke-width="3" stroke-linecap="round" stroke-linejoin="round"/>
<path d="M49.2656 58.1697V47.0938" stroke="black" stroke-width="3" stroke-linecap="round" stroke-linejoin="round"/>
<path d="M57.2812 59.5303V50.2031" stroke="black" stroke-width="3" stroke-linecap="round" stroke-linejoin="round"/>
<path d="M23.469 68.8931C10.5985 63.7381 1.5 51.1533 1.5 36.4425C1.5 17.1481 17.1481 1.5 36.4425 1.5C55.7368 1.5 71.3849 17.1481 71.3849 36.4425C71.3849 43.6779 69.1903 50.3988 65.4183 55.9768" stroke="black" stroke-width="3" stroke-linecap="round" stroke-linejoin="round"/>
<path d="M46.9921 37.7302C48.0323 35.9356 48.6266 33.8667 48.6266 31.6492C48.6266 24.9168 43.1744 19.4531 36.4305 19.4531C29.6866 19.4531 24.2344 24.9054 24.2344 31.6492C24.2344 33.8667 24.8402 35.9356 25.8689 37.7302" stroke="black" stroke-width="3" stroke-linecap="round" stroke-linejoin="round"/>
<path d="M52.375 43.0909C52.9351 42.3251 53.4266 41.5135 53.8724 40.6562" stroke="black" stroke-width="3" stroke-linecap="round" stroke-linejoin="round"/>
<path d="M55.6756 35.6186C55.9499 34.327 56.087 33.0011 56.087 31.6295C56.087 20.7821 47.2971 11.9922 36.4498 11.9922C25.6024 11.9922 16.8125 20.7821 16.8125 31.6295C16.8125 33.9384 17.2126 36.1444 17.9555 38.2019" stroke="black" stroke-width="3" stroke-linecap="round" stroke-linejoin="round"/>
<path d="M19.0234 40.6562C19.4692 41.5021 19.9722 42.3137 20.5208 43.0909" stroke="black" stroke-width="3" stroke-linecap="round" stroke-linejoin="round"/>
</svg>
