<svg xmlns="http://www.w3.org/2000/svg" width="785" height="801" viewBox="0 0 785 801" fill="none">
  <path fill-rule="evenodd" clip-rule="evenodd"
    d="M356.263 8.6665C419.69 49.851 372.815 184.55 441.586 216.038C509.258 247.023 593.399 95.0153 650.094 143.201C702.359 187.622 554.483 271.284 580.981 334.512C610.994 406.124 748.952 380.453 779.453 451.859C802.345 505.452 750.449 582.933 695.749 603.193C623.927 629.794 534.521 522.352 471.541 565.903C410.594 608.048 488.034 729.858 436.132 782.721C399.195 820.343 321.748 793.497 281.3 759.667C236.568 722.254 267.888 627.272 216.742 599.229C154.596 565.155 45.9643 667.951 6.61016 609.055C-31.1469 552.55 105.122 501.618 106.131 433.693C106.97 377.226 16.6796 351.694 11.2674 295.48C6.32912 244.188 47.2568 198.79 79.6537 158.687C112.827 117.623 154.997 85.273 201.423 60.0936C249.75 33.8829 310.157 -21.2713 356.263 8.6665Z"
    fill="#E1F2FF" />
</svg>