<svg width="58" height="39" viewBox="0 0 58 39" fill="none" xmlns="http://www.w3.org/2000/svg">
<path d="M49.6065 5.94531H15.0888C14.0745 5.94531 13.2578 6.83476 13.2578 7.93623V30.8861C13.2578 31.9876 14.0797 32.877 15.0888 32.877H49.6013C50.1995 32.877 50.7821 32.6702 51.2658 32.2823L55.8744 28.5694C56.587 27.9954 57.0032 27.0904 57.0032 26.1286V12.6938C57.0032 11.7319 56.5818 10.8269 55.8744 10.2529L51.2658 6.54C50.7821 6.15216 50.1995 5.94531 49.6013 5.94531H49.6065Z" stroke="#FB7E00" stroke-width="2" stroke-linecap="round" stroke-linejoin="round"/>
<path d="M42.6614 9.46875H18.5156V29.3624H42.6614V9.46875Z" stroke="#FB7E00" stroke-width="2" stroke-linecap="round" stroke-linejoin="round"/>
<path d="M21.3554 1H28.0967C28.674 1 29.1474 1.46541 29.1474 2.04459V5.94886H20.3047V2.04459C20.3047 1.47058 20.7728 1 21.3554 1Z" stroke="#FB7E00" stroke-width="2" stroke-linecap="round" stroke-linejoin="round"/>
<path d="M42.6614 13.7812H18.5156V25.0493H42.6614V13.7812Z" stroke="#FB7E00" stroke-width="2" stroke-linecap="round" stroke-linejoin="round"/>
<path d="M42.6614 5.94531H18.5156V32.8822H42.6614V5.94531Z" stroke="#FB7E00" stroke-width="2" stroke-linecap="round" stroke-linejoin="round"/>
<path d="M9.23274 11.802H13.2588V27.0313H9.23274C8.53572 27.0313 7.96875 26.4676 7.96875 25.7747V13.0535C7.96875 12.3605 8.53572 11.7969 9.23274 11.7969V11.802Z" stroke="#FB7E00" stroke-width="2" stroke-linecap="round" stroke-linejoin="round"/>
<path d="M17.7891 37.8281H48.7385" stroke="#FB7E00" stroke-width="2" stroke-linecap="round" stroke-linejoin="round"/>
<path d="M23.625 37.8343V32.8906" stroke="#FB7E00" stroke-width="2" stroke-linecap="round" stroke-linejoin="round"/>
<path d="M42.6641 37.8343V32.8906" stroke="#FB7E00" stroke-width="2" stroke-linecap="round" stroke-linejoin="round"/>
<path d="M2.961 17.2812C1.87907 17.2812 1 18.2328 1 19.4118C1 20.5908 1.87907 21.5423 2.961 21.5423H7.97533V17.2864H2.961V17.2812Z" stroke="#FB7E00" stroke-width="2" stroke-linecap="round" stroke-linejoin="round"/>
</svg>
