<svg width="115" height="102" viewBox="0 0 115 102" fill="none" xmlns="http://www.w3.org/2000/svg">
<path d="M35.6134 101.106H5.0283C4.01953 101.106 3.18246 100.291 3.09661 99.2271L0.00590291 56.5627C-0.0370236 55.9968 0.156146 55.431 0.52102 55.0236C0.885895 54.6162 1.40101 54.3672 1.93759 54.3672H9.38533C10.4585 54.3672 11.317 55.2725 11.317 56.4042C11.317 57.5359 10.4585 58.4412 9.38533 58.4412H4.04099L6.83121 97.009H33.832L36.6222 58.4412H23.7228C22.6496 58.4412 21.7911 57.5359 21.7911 56.4042C21.7911 55.2725 22.6496 54.3672 23.7228 54.3672H38.7256C39.2622 54.3672 39.7773 54.5935 40.1421 55.0236C40.507 55.431 40.7002 55.9968 40.6573 56.5627L37.5666 99.2271C37.4807 100.291 36.6436 101.106 35.6349 101.106H35.6134Z" fill="#2B2B2B"/>
<path d="M17.0098 91.6856C15.9367 91.6856 15.0781 90.7802 15.0781 89.6485V24.8484C15.0781 20.9327 18.1044 17.7188 21.839 17.7188C25.5736 17.7188 28.6 20.9101 28.6 24.8484V38.8812C28.6 40.5561 29.8878 41.9141 31.476 41.9141C33.0643 41.9141 34.3521 40.5561 34.3521 38.8812V24.8484C34.3521 20.9327 37.3784 17.7188 41.113 17.7188C44.8476 17.7188 47.8739 20.9101 47.8739 24.8484V52.9141C47.8739 56.9655 50.9861 60.2474 54.828 60.2474H59.1636C60.2368 60.2474 61.0953 61.1527 61.0953 62.2844C61.0953 63.4161 60.2368 64.3215 59.1636 64.3215H54.828C48.8612 64.3215 43.9891 59.2063 43.9891 52.8915V24.8257C43.9891 23.1508 42.7013 21.7928 41.113 21.7928C39.5247 21.7928 38.2369 23.1508 38.2369 24.8257V38.8586C38.2369 42.7742 35.2106 45.9882 31.476 45.9882C27.7414 45.9882 24.7151 42.7968 24.7151 38.8586V24.8257C24.7151 23.1508 23.4273 21.7928 21.839 21.7928C20.2508 21.7928 18.963 23.1508 18.963 24.8257V89.6259C18.963 90.7576 18.1044 91.6629 17.0313 91.6629L17.0098 91.6856Z" fill="#2B2B2B"/>
<path d="M78.2449 93.1405H59.1426C58.0695 93.1405 57.2109 92.2352 57.2109 91.1035V39.5214C57.2109 38.3897 58.0695 37.4844 59.1426 37.4844H78.2449C79.3181 37.4844 80.1766 38.3897 80.1766 39.5214V91.1035C80.1766 92.2352 79.3181 93.1405 78.2449 93.1405ZM61.0743 89.0665H76.3132V41.5584H61.0743V89.0665Z" fill="#2B2B2B"/>
<path d="M72.7226 34.2668H64.6739C63.6007 34.2668 62.7422 33.3615 62.7422 32.2298V13.2402C62.7422 12.1085 63.6007 11.2031 64.6739 11.2031H72.7226C73.7958 11.2031 74.6543 12.1085 74.6543 13.2402V32.2298C74.6543 33.3615 73.7958 34.2668 72.7226 34.2668ZM66.6056 30.1928H70.7909V15.2772H66.6056V30.1928Z" fill="#2B2B2B"/>
<path d="M75.5399 15.2777H61.8464C60.0435 15.2777 58.5625 13.7386 58.5625 11.8148V3.46295C58.5625 1.56172 60.022 0 61.8464 0H75.5399C77.3428 0 78.8238 1.53909 78.8238 3.46295V11.8374C78.8238 13.7386 77.3643 15.3004 75.5399 15.3004V15.2777ZM62.4473 11.2037H74.9389V4.07406H62.4473V11.181V11.2037Z" fill="#2B2B2B"/>
<path d="M111.726 14.1472H88.5886C86.7856 14.1472 85.3047 12.6081 85.3047 10.6842V4.59576C85.3047 2.69454 86.7642 1.13281 88.5886 1.13281H111.726C113.529 1.13281 115.01 2.6719 115.01 4.59576V10.6842C115.01 12.5854 113.55 14.1472 111.726 14.1472ZM89.1895 10.0505H111.125V5.20687H89.1895V10.0505Z" fill="#2B2B2B"/>
<path d="M86.3078 101.021H51.0651C49.4983 101.021 48.1461 99.9571 47.6739 98.3954C47.2017 96.811 47.7598 95.1361 49.0476 94.1855L55.5509 89.4325C55.8729 89.1835 56.2592 89.0703 56.6456 89.0703H80.7488C81.1351 89.0703 81.5215 89.2061 81.8434 89.4325L88.3468 94.1855C89.6346 95.1361 90.1711 96.811 89.7204 98.3954C89.2482 99.9797 87.896 101.021 86.3292 101.021H86.3078ZM52.0739 96.9468H85.3204L80.1478 93.1444H57.2465L52.0739 96.9468Z" fill="#2B2B2B"/>
<path d="M80.3021 41.5574H57.1218C55.3189 41.5574 53.8594 40.0183 53.8594 38.1171V33.6356C53.8594 31.7344 55.3189 30.1953 57.1218 30.1953H80.3021C82.105 30.1953 83.5645 31.7344 83.5645 33.6356V38.1171C83.5645 40.0183 82.105 41.5574 80.3021 41.5574ZM57.7013 37.4834H79.6796V34.2694H57.7013V37.4834Z" fill="#2B2B2B"/>
<path d="M87.2359 9.69125H76.8692C75.796 9.69125 74.9375 8.7859 74.9375 7.65422C74.9375 6.52253 75.796 5.61719 76.8692 5.61719H87.2359C88.3091 5.61719 89.1676 6.52253 89.1676 7.65422C89.1676 8.7859 88.3091 9.69125 87.2359 9.69125Z" fill="#2B2B2B"/>
<path d="M48.8119 14.1472H25.6745C23.8716 14.1472 22.3906 12.6081 22.3906 10.6842V4.59576C22.3906 2.69454 23.8501 1.13281 25.6745 1.13281H48.8119C50.6148 1.13281 52.0957 2.6719 52.0957 4.59576V10.6842C52.0957 12.5854 50.6362 14.1472 48.8119 14.1472ZM26.254 10.0505H48.1894V5.20687H26.254V10.0505Z" fill="#2B2B2B"/>
<path d="M60.5094 9.69125H50.1426C49.0695 9.69125 48.2109 8.7859 48.2109 7.65422C48.2109 6.52253 49.0695 5.61719 50.1426 5.61719H60.5094C61.5825 5.61719 62.4411 6.52253 62.4411 7.65422C62.4411 8.7859 61.5825 9.69125 60.5094 9.69125Z" fill="#2B2B2B"/>
<path d="M18.2541 78.1121C16.2795 78.1121 14.3263 77.6368 12.3947 76.6636C8.10201 74.5134 4.7752 76.4825 4.64642 76.5731C3.72351 77.1389 2.54303 76.822 2.00645 75.8488C1.46987 74.8755 1.74889 73.6533 2.65034 73.0648C2.86498 72.929 7.82298 69.8282 14.0688 72.9517C18.0395 74.9434 21.9673 74.1513 26.4101 70.4167C31.6472 66.0258 38.0003 70.6204 38.2578 70.8241C39.1378 71.4805 39.3525 72.748 38.73 73.6759C38.1291 74.6039 36.9057 74.8303 36.0471 74.1739C36.0042 74.1286 31.7759 71.1183 28.814 73.6307C25.2511 76.6183 21.7312 78.1121 18.2541 78.1121Z" fill="#2B2B2B"/>
</svg>
