<svg width="50" height="44" viewBox="0 0 50 44" fill="none" xmlns="http://www.w3.org/2000/svg">
<path d="M15.3705 43.633H2.17018C1.7348 43.633 1.37353 43.2813 1.33648 42.8222L0.00254766 24.4085C-0.0159791 24.1643 0.0673914 23.9201 0.224869 23.7442C0.382347 23.5684 0.604668 23.4609 0.836253 23.4609H4.05065C4.51382 23.4609 4.88436 23.8517 4.88436 24.3401C4.88436 24.8285 4.51382 25.2193 4.05065 25.2193H1.74407L2.94831 41.8649H14.6017L15.8059 25.2193H10.2386C9.77543 25.2193 9.40489 24.8285 9.40489 24.3401C9.40489 23.8517 9.77543 23.4609 10.2386 23.4609H16.7137C16.9453 23.4609 17.1676 23.5586 17.3251 23.7442C17.4826 23.9201 17.5659 24.1643 17.5474 24.4085L16.2135 42.8222C16.1764 43.2813 15.8152 43.633 15.3798 43.633H15.3705Z" fill="#FB7E00"/>
<path d="M7.34152 39.572C6.87835 39.572 6.50781 39.1813 6.50781 38.6929V10.7255C6.50781 9.03557 7.81395 7.64844 9.42578 7.64844C11.0376 7.64844 12.3437 9.0258 12.3437 10.7255V16.782C12.3437 17.5049 12.8996 18.091 13.585 18.091C14.2705 18.091 14.8263 17.5049 14.8263 16.782V10.7255C14.8263 9.03557 16.1325 7.64844 17.7443 7.64844C19.3561 7.64844 20.6623 9.0258 20.6623 10.7255V22.8385C20.6623 24.5871 22.0055 26.0035 23.6636 26.0035H25.5348C25.998 26.0035 26.3685 26.3943 26.3685 26.8827C26.3685 27.3711 25.998 27.7619 25.5348 27.7619H23.6636C21.0884 27.7619 18.9856 25.5542 18.9856 22.8288V10.7158C18.9856 9.99289 18.4298 9.40678 17.7443 9.40678C17.0588 9.40678 16.503 9.99289 16.503 10.7158V16.7723C16.503 18.4622 15.1969 19.8493 13.585 19.8493C11.9732 19.8493 10.6671 18.472 10.6671 16.7723V10.7158C10.6671 9.99289 10.1113 9.40678 9.42578 9.40678C8.74029 9.40678 8.18449 9.99289 8.18449 10.7158V38.6831C8.18449 39.1715 7.81395 39.5623 7.35078 39.5623L7.34152 39.572Z" fill="#FB7E00"/>
<path d="M33.7656 40.201H25.5212C25.058 40.201 24.6875 39.8103 24.6875 39.3218V17.0593C24.6875 16.5709 25.058 16.1802 25.5212 16.1802H33.7656C34.2288 16.1802 34.5993 16.5709 34.5993 17.0593V39.3218C34.5993 39.8103 34.2288 40.201 33.7656 40.201ZM26.3549 38.4427H32.9319V17.9385H26.3549V38.4427Z" fill="#FB7E00"/>
<path d="M31.3856 14.7823H27.9118C27.4487 14.7823 27.0781 14.3915 27.0781 13.9031V5.70729C27.0781 5.21887 27.4487 4.82812 27.9118 4.82812H31.3856C31.8488 4.82812 32.2193 5.21887 32.2193 5.70729V13.9031C32.2193 14.3915 31.8488 14.7823 31.3856 14.7823ZM28.7455 13.0239H30.5519V6.58646H28.7455V13.0239Z" fill="#FB7E00"/>
<path d="M32.6008 6.59377H26.6907C25.9126 6.59377 25.2734 5.92951 25.2734 5.09918V1.49459C25.2734 0.674029 25.9033 0 26.6907 0H32.6008C33.3789 0 34.0181 0.664261 34.0181 1.49459V5.10895C34.0181 5.92951 33.3882 6.60354 32.6008 6.60354V6.59377ZM26.9501 4.83543H32.3414V1.75834H26.9501V4.82566V4.83543Z" fill="#FB7E00"/>
<path d="M48.2157 6.1091H38.2298C37.4517 6.1091 36.8125 5.44484 36.8125 4.61451V1.98677C36.8125 1.16622 37.4424 0.492188 38.2298 0.492188H48.2157C48.9939 0.492188 49.633 1.15645 49.633 1.98677V4.61451C49.633 5.43507 49.0031 6.1091 48.2157 6.1091ZM38.4892 4.34099H47.9564V2.25053H38.4892V4.34099Z" fill="#FB7E00"/>
<path d="M37.2458 43.5953H22.0353C21.3591 43.5953 20.7755 43.1362 20.5717 42.4621C20.3679 41.7783 20.6088 41.0555 21.1646 40.6452L23.9714 38.5938C24.1103 38.4863 24.2771 38.4375 24.4438 38.4375H34.8466C35.0133 38.4375 35.1801 38.4961 35.319 38.5938L38.1258 40.6452C38.6816 41.0555 38.9132 41.7783 38.7187 42.4621C38.5149 43.1459 37.9313 43.5953 37.2551 43.5953H37.2458ZM22.4707 41.837H36.8197L34.5872 40.1958H24.7032L22.4707 41.837Z" fill="#FB7E00"/>
<path d="M34.6547 17.9351H24.6502C23.8721 17.9351 23.2422 17.2708 23.2422 16.4502V14.5161C23.2422 13.6955 23.8721 13.0312 24.6502 13.0312H34.6547C35.4328 13.0312 36.0627 13.6955 36.0627 14.5161V16.4502C36.0627 17.2708 35.4328 17.9351 34.6547 17.9351ZM24.9003 16.1767H34.386V14.7896H24.9003V16.1767Z" fill="#FB7E00"/>
<path d="M37.6517 4.18086H33.1775C32.7143 4.18086 32.3438 3.78998 32.3438 3.30137C32.3438 2.81276 32.7143 2.42188 33.1775 2.42188H37.6517C38.1148 2.42188 38.4854 2.81276 38.4854 3.30137C38.4854 3.78998 38.1148 4.18086 37.6517 4.18086Z" fill="#FB7E00"/>
<path d="M21.0673 6.1091H11.0814C10.3032 6.1091 9.66406 5.44484 9.66406 4.61451V1.98677C9.66406 1.16622 10.294 0.492188 11.0814 0.492188H21.0673C21.8454 0.492188 22.4846 1.15645 22.4846 1.98677V4.61451C22.4846 5.43507 21.8547 6.1091 21.0673 6.1091ZM11.3315 4.34099H20.7987V2.25053H11.3315V4.34099Z" fill="#FB7E00"/>
<path d="M26.1126 4.18086H21.6384C21.1752 4.18086 20.8047 3.78998 20.8047 3.30137C20.8047 2.81276 21.1752 2.42188 21.6384 2.42188H26.1126C26.5758 2.42188 26.9463 2.81276 26.9463 3.30137C26.9463 3.78998 26.5758 4.18086 26.1126 4.18086Z" fill="#FB7E00"/>
<path d="M7.87981 33.7165C7.02758 33.7165 6.18461 33.5114 5.35091 33.0914C3.49823 32.1634 2.0624 33.0132 2.00682 33.0523C1.6085 33.2965 1.09901 33.1597 0.867425 32.7397C0.63584 32.3196 0.756264 31.7921 1.14533 31.5382C1.23796 31.4796 3.3778 30.1413 6.07345 31.4893C7.78718 32.349 9.48238 32.0071 11.3999 30.3952C13.6602 28.5001 16.4021 30.4832 16.5133 30.5711C16.8931 30.8544 16.9857 31.4014 16.7171 31.8019C16.4577 32.2024 15.9297 32.3001 15.5592 32.0168C15.5406 31.9973 13.7157 30.6981 12.4374 31.7824C10.8997 33.0718 9.38048 33.7165 7.87981 33.7165Z" fill="#FB7E00"/>
</svg>
