<svg xmlns="http://www.w3.org/2000/svg" width="40" height="40" viewBox="0 0 40 40" fill="none">
    <path
        d="M20.0026 3.33337C13.5526 3.33337 8.33594 8.55004 8.33594 15C8.33594 23.75 20.0026 36.6667 20.0026 36.6667C20.0026 36.6667 31.6693 23.75 31.6693 15C31.6693 8.55004 26.4526 3.33337 20.0026 3.33337ZM20.0026 19.1667C18.8975 19.1667 17.8377 18.7277 17.0563 17.9463C16.2749 17.1649 15.8359 16.1051 15.8359 15C15.8359 13.895 16.2749 12.8352 17.0563 12.0538C17.8377 11.2724 18.8975 10.8334 20.0026 10.8334C21.1077 10.8334 22.1675 11.2724 22.9489 12.0538C23.7303 12.8352 24.1693 13.895 24.1693 15C24.1693 16.1051 23.7303 17.1649 22.9489 17.9463C22.1675 18.7277 21.1077 19.1667 20.0026 19.1667Z"
        fill="#EA7600" />
</svg>