<svg width="82" height="82" viewBox="0 0 82 82" fill="none" xmlns="http://www.w3.org/2000/svg">
<path d="M71.366 78.6824C76.8077 77.2286 80.0392 71.6336 78.5838 66.1857C77.1283 60.7377 71.5371 57.4998 66.0953 58.9536C60.6536 60.4074 57.4221 66.0024 58.8775 71.4503C60.333 76.8983 65.9243 80.1362 71.366 78.6824Z" stroke="#FB7E00" stroke-width="4" stroke-miterlimit="10" stroke-linecap="round" stroke-linejoin="round"/>
<circle cx="68.7408" cy="68.8111" r="2.39707" fill="black" stroke="#FB7E00" stroke-width="4" stroke-miterlimit="10" stroke-linecap="round" stroke-linejoin="round"/>
<path d="M68.2661 58.6121L68.25 7.76239C68.249 4.55607 70.862 1.96676 74.065 2.00032L79.0315 2.05226" stroke="#FB7E00" stroke-width="4" stroke-miterlimit="10" stroke-linecap="round" stroke-linejoin="round"/>
<path d="M58.5962 69.9751H40.9531V44.0397C40.9571 37.2738 44.829 31.1093 50.9177 28.1748L68.2602 19.8164" stroke="#FB7E00" stroke-width="4" stroke-miterlimit="10" stroke-linecap="round" stroke-linejoin="round"/>
<path d="M52.1765 27.5684L52.1593 51.4562C52.1553 56.9775 47.709 61.4625 42.1935 61.5092L40.9453 61.5198H61.5895" stroke="#FB7E00" stroke-width="4" stroke-miterlimit="10" stroke-linecap="round" stroke-linejoin="round"/>
<path d="M2 72.3929L12.2144 66.9922H23.4529L33.6671 72.3929V79.028H2V72.3929Z" stroke="#FB7E00" stroke-width="4" stroke-miterlimit="10" stroke-linecap="round" stroke-linejoin="round"/>
<path d="M12.2948 66.9922L23.4609 66.9922L23.4609 57.9132L12.2948 57.9132L12.2948 66.9922Z" stroke="#FB7E00" stroke-width="4" stroke-miterlimit="10" stroke-linecap="round" stroke-linejoin="round"/>
<path d="M17.875 57.9111V7.91612C17.875 4.64876 20.5238 2 23.7911 2C27.0585 2 29.7072 4.64876 29.7072 7.91612V36.4035C29.7072 40.8993 33.3519 44.5439 37.8477 44.5439H40.946" stroke="#FB7E00" stroke-width="4" stroke-miterlimit="10" stroke-linecap="round" stroke-linejoin="round"/>
</svg>
