<svg width="144" height="144" viewBox="0 0 144 144" fill="none" xmlns="http://www.w3.org/2000/svg">
<rect x="0.132812" width="143" height="144" rx="15" fill="white"/>
<path d="M42.3698 28.7988H101.622C109.108 28.7988 115.195 34.873 115.195 42.3718V101.624C115.195 109.11 109.121 115.197 101.622 115.197H42.3698C34.884 115.197 28.7969 109.123 28.7969 101.624V42.3718C28.7969 34.8859 34.871 28.7988 42.3698 28.7988Z" fill="white"/>
<path d="M0 22.6245L22.8387 0L45.5216 0.558537L0.545537 45.5216L0 22.6245Z" fill="#ED1C24"/>
<path d="M0.0523837 85.1961L87.2122 0H113.34L0 111.481L0.0523837 85.1961Z" fill="#ED1C24"/>
<path d="M143.958 48.4703L48.0643 143.999L22.2969 143.803L143.997 22.2988L143.958 48.4703Z" fill="#ED1C24"/>
<path d="M143.031 110.676L110.123 144.001H88.2578L143.07 88.2598L143.031 110.676Z" fill="#ED1C24"/>
<path fill-rule="evenodd" clip-rule="evenodd" d="M14.2389 1.2968C7.08889 1.2968 1.2968 7.10119 1.2968 14.239V129.758C1.2968 136.908 7.10104 142.7 14.2389 142.7H129.758C136.908 142.7 142.7 136.896 142.7 129.758V14.239C142.7 7.08903 136.896 1.2968 129.758 1.2968H14.2389ZM0 14.239C0 6.38581 6.37186 0 14.2389 0H129.758C137.611 0 143.997 6.37204 143.997 14.239V129.758C143.997 137.611 137.625 143.997 129.758 143.997H14.2389C6.38564 143.997 0 137.625 0 129.758V14.239Z" fill="#ED1C24"/>
<path d="M42.3698 28.7988H101.622C109.108 28.7988 115.195 34.873 115.195 42.3718V101.624C115.195 109.11 109.121 115.197 101.622 115.197H42.3698C34.884 115.197 28.7969 109.123 28.7969 101.624V42.3718C28.7969 34.8859 34.871 28.7988 42.3698 28.7988Z" fill="white"/>
<path fill-rule="evenodd" clip-rule="evenodd" d="M42.1084 28.9686C34.8469 28.9686 28.9647 34.8632 28.9647 42.1123V101.886C28.9647 109.148 34.8593 115.03 42.1084 115.03H101.882C109.144 115.03 115.026 109.135 115.026 101.886V42.1123C115.026 34.8509 109.131 28.9686 101.882 28.9686H42.1084ZM27.8672 42.1123C27.8672 34.2578 34.2401 27.8711 42.1084 27.8711H101.882C109.737 27.8711 116.123 34.244 116.123 42.1123V101.886C116.123 109.741 109.75 116.127 101.882 116.127H42.1084C34.2539 116.127 27.8672 109.754 27.8672 101.886V42.1123Z" fill="#1D1D1B"/>
<path d="M64.0687 93.6185H93.8317V100.33H55.7422V38.0859H64.0687V93.6185Z" fill="#1D1D1B"/>
</svg>
