<svg width="811" height="120" viewBox="0 0 811 120" fill="none" xmlns="http://www.w3.org/2000/svg">
    <path
        d="M414.667 76C414.667 78.9455 417.054 81.3333 420 81.3333C422.946 81.3333 425.333 78.9455 425.333 76C425.333 73.0545 422.946 70.6667 420 70.6667C417.054 70.6667 414.667 73.0545 414.667 76ZM420 76L419 76L419 79.5833L420 79.5833L421 79.5833L421 76L420 76ZM420 86.75L419 86.75L419 93.9167L420 93.9167L421 93.9167L421 86.75L420 86.75ZM420 101.083L419 101.083L419 108.25L420 108.25L421 108.25L421 101.083L420 101.083ZM420 115.417L419 115.417L419 119L420 119L421 119L421 115.417L420 115.417Z"
        fill="#FB7E00" />
    <path d="M453 119H391" stroke="#FB7E00" stroke-width="2" stroke-dasharray="8 8" />
    <path d="M811 1L544.14 1L544.137 119H514" stroke="#FB7E00" stroke-width="2"
        stroke-dasharray="8 8" />
    <path d="M0 1L281.236 1L281.239 119H313" stroke="#FB7E00" stroke-width="2"
        stroke-dasharray="8 8" />
</svg>
    