<svg xmlns="http://www.w3.org/2000/svg" width="49" height="42" viewBox="0 0 49 42" fill="none">
    <path d="M24.0967 12.7461H29.1123C29.2916 12.7462 29.4465 12.824 29.5381 12.9355C29.6041 13.0163 29.633 13.1089 29.6279 13.1992L29.6123 13.2881L28.7695 15.9443L28.5625 16.5957H30.8018C31.0021 16.5958 31.1692 16.692 31.2539 16.8203C31.3349 16.943 31.3387 17.0878 31.2676 17.2129L25.5596 27.2148C25.4599 27.3893 25.2158 27.5075 24.9551 27.4473H24.9561C24.7009 27.3879 24.5737 27.1938 24.5762 27.0254L24.6592 21.2959L24.666 20.7881H22.665C22.4959 20.788 22.3472 20.7188 22.2549 20.6172L22.2539 20.6162C22.1858 20.5413 22.1517 20.4551 22.1484 20.3701L22.1553 20.2861L23.5859 13.1084C23.6219 12.9281 23.8136 12.7461 24.0967 12.7461ZM24.4541 14.0127L23.3945 19.3262L23.2754 19.9238H25.1895C25.3402 19.9239 25.4777 19.9792 25.5723 20.0664V20.0674C25.6651 20.1538 25.7075 20.2607 25.7061 20.3613L25.666 23.1318L26.6006 23.3867L29.5557 18.208L29.9824 17.46H27.8906C27.7557 17.46 27.6338 17.4167 27.543 17.3477L27.4629 17.2705C27.3752 17.1623 27.3542 17.034 27.3906 16.9189V16.918L28.2334 14.2617L28.4395 13.6104H24.5342L24.4541 14.0127Z" fill="#FB7E00" stroke="#FB7E00"/>
    <mask id="path-2-inside-1_54_57" fill="white">
      <path d="M43.9966 5.47441H25.8195V2.86401C25.8188 2.10469 25.5419 1.37669 25.0498 0.839766C24.5576 0.302839 23.8903 0.000828842 23.1943 0H18.1978C17.5018 0.000828842 16.8345 0.302839 16.3423 0.839766C15.8502 1.37669 15.5733 2.10469 15.5726 2.86401V5.47445H14.4232C13.3185 5.4757 12.2593 5.95503 11.4782 6.80728C10.697 7.65953 10.2576 8.81506 10.2565 10.0203V11.332H9.34893C6.91149 11.3109 4.97008 13.9622 5.10271 16.9547H2.89196C2.70828 16.9549 2.52926 17.0178 2.38005 17.1347L0.359903 18.7242C0.256085 18.8074 0.170227 18.9143 0.108366 19.0376C0.0465049 19.1608 0.0101424 19.2974 0.00183583 19.4376C-0.00647077 19.5778 0.0134803 19.7183 0.0602856 19.8493C0.107091 19.9802 0.179614 20.0983 0.272757 20.1954L2.14852 22.1169C2.31094 22.2828 2.52508 22.3751 2.74756 22.3751H5.10272C4.96693 25.9756 7.27379 28.4885 10.2565 28.1077V28.9786C10.2577 30.1838 10.697 31.3394 11.4782 32.1916C12.2594 33.0439 13.3186 33.5232 14.4233 33.5245H17.8654V35.3685H12.1382C11.6393 35.3692 11.161 35.5857 10.8083 35.9706C10.4555 36.3554 10.2571 36.8772 10.2565 37.4215V39.5518C10.2571 40.096 10.4556 40.6178 10.8083 41.0026C11.1611 41.3874 11.6393 41.6039 12.1382 41.6046H40.4801C40.979 41.6039 41.4573 41.3874 41.81 41.0026C42.1628 40.6177 42.3612 40.0959 42.3619 39.5517V37.4214C42.3612 36.8771 42.1628 36.3554 41.81 35.9705C41.4573 35.5857 40.979 35.3692 40.4801 35.3685H34.982V33.5244H43.9966C45.3231 33.5226 46.5948 32.947 47.5327 31.9237C48.4707 30.9004 48.9984 29.513 49 28.0658V10.933C48.9984 9.48584 48.4707 8.09846 47.5327 7.07516C46.5948 6.05187 45.3231 5.47619 43.9966 5.47441ZM17.3227 2.86401C17.3229 2.61087 17.4151 2.36815 17.5792 2.18915C17.7433 2.01015 17.9658 1.90952 18.1978 1.90934H23.1944C23.4264 1.90952 23.6489 2.01015 23.813 2.18915C23.977 2.36815 24.0693 2.61087 24.0694 2.86401V5.47445H17.3227V2.86401ZM3.09364 20.4657L2.24508 19.5959L3.17482 18.8641H5.10272V20.4657H3.09364ZM9.34893 26.1984C7.97226 26.1984 6.8528 24.6657 6.8528 22.7816V16.6582C6.8528 14.7741 7.97226 13.2414 9.34893 13.2414H10.2565V26.1984H9.34893ZM12.0066 28.9785V10.0203C12.0074 9.32131 12.2623 8.65122 12.7153 8.15697C13.1684 7.66273 13.7826 7.38466 14.4232 7.38375H40.6083V31.6151H14.4232C13.7826 31.6142 13.1684 31.3361 12.7153 30.8418C12.2623 30.3476 12.0074 29.6775 12.0066 28.9785ZM40.6117 37.4214V39.5517C40.6117 39.5898 40.5979 39.6263 40.5732 39.6532C40.5485 39.6801 40.515 39.6953 40.4801 39.6953H12.1382C12.1033 39.6953 12.0698 39.6801 12.0451 39.6532C12.0205 39.6263 12.0066 39.5898 12.0066 39.5517V37.4214C11.9699 36.9915 40.3529 37.4297 40.4803 37.2775C40.5152 37.2777 40.5486 37.2929 40.5732 37.3199C40.5979 37.3469 40.6117 37.3833 40.6117 37.4214ZM33.2319 35.3685H19.6155V33.5244H33.2319V35.3685ZM47.2499 28.0658C47.2489 29.0068 46.9058 29.9089 46.2959 30.5743C45.686 31.2396 44.8591 31.6139 43.9966 31.6151H42.3585V7.38375H43.9966C44.8591 7.38488 45.686 7.75917 46.2959 8.42455C46.9058 9.08992 47.2489 9.99203 47.2499 10.933V28.0658Z"/>
    </mask>
    <path d="M43.9966 5.47441H25.8195V2.86401C25.8188 2.10469 25.5419 1.37669 25.0498 0.839766C24.5576 0.302839 23.8903 0.000828842 23.1943 0H18.1978C17.5018 0.000828842 16.8345 0.302839 16.3423 0.839766C15.8502 1.37669 15.5733 2.10469 15.5726 2.86401V5.47445H14.4232C13.3185 5.4757 12.2593 5.95503 11.4782 6.80728C10.697 7.65953 10.2576 8.81506 10.2565 10.0203V11.332H9.34893C6.91149 11.3109 4.97008 13.9622 5.10271 16.9547H2.89196C2.70828 16.9549 2.52926 17.0178 2.38005 17.1347L0.359903 18.7242C0.256085 18.8074 0.170227 18.9143 0.108366 19.0376C0.0465049 19.1608 0.0101424 19.2974 0.00183583 19.4376C-0.00647077 19.5778 0.0134803 19.7183 0.0602856 19.8493C0.107091 19.9802 0.179614 20.0983 0.272757 20.1954L2.14852 22.1169C2.31094 22.2828 2.52508 22.3751 2.74756 22.3751H5.10272C4.96693 25.9756 7.27379 28.4885 10.2565 28.1077V28.9786C10.2577 30.1838 10.697 31.3394 11.4782 32.1916C12.2594 33.0439 13.3186 33.5232 14.4233 33.5245H17.8654V35.3685H12.1382C11.6393 35.3692 11.161 35.5857 10.8083 35.9706C10.4555 36.3554 10.2571 36.8772 10.2565 37.4215V39.5518C10.2571 40.096 10.4556 40.6178 10.8083 41.0026C11.1611 41.3874 11.6393 41.6039 12.1382 41.6046H40.4801C40.979 41.6039 41.4573 41.3874 41.81 41.0026C42.1628 40.6177 42.3612 40.0959 42.3619 39.5517V37.4214C42.3612 36.8771 42.1628 36.3554 41.81 35.9705C41.4573 35.5857 40.979 35.3692 40.4801 35.3685H34.982V33.5244H43.9966C45.3231 33.5226 46.5948 32.947 47.5327 31.9237C48.4707 30.9004 48.9984 29.513 49 28.0658V10.933C48.9984 9.48584 48.4707 8.09846 47.5327 7.07516C46.5948 6.05187 45.3231 5.47619 43.9966 5.47441ZM17.3227 2.86401C17.3229 2.61087 17.4151 2.36815 17.5792 2.18915C17.7433 2.01015 17.9658 1.90952 18.1978 1.90934H23.1944C23.4264 1.90952 23.6489 2.01015 23.813 2.18915C23.977 2.36815 24.0693 2.61087 24.0694 2.86401V5.47445H17.3227V2.86401ZM3.09364 20.4657L2.24508 19.5959L3.17482 18.8641H5.10272V20.4657H3.09364ZM9.34893 26.1984C7.97226 26.1984 6.8528 24.6657 6.8528 22.7816V16.6582C6.8528 14.7741 7.97226 13.2414 9.34893 13.2414H10.2565V26.1984H9.34893ZM12.0066 28.9785V10.0203C12.0074 9.32131 12.2623 8.65122 12.7153 8.15697C13.1684 7.66273 13.7826 7.38466 14.4232 7.38375H40.6083V31.6151H14.4232C13.7826 31.6142 13.1684 31.3361 12.7153 30.8418C12.2623 30.3476 12.0074 29.6775 12.0066 28.9785ZM40.6117 37.4214V39.5517C40.6117 39.5898 40.5979 39.6263 40.5732 39.6532C40.5485 39.6801 40.515 39.6953 40.4801 39.6953H12.1382C12.1033 39.6953 12.0698 39.6801 12.0451 39.6532C12.0205 39.6263 12.0066 39.5898 12.0066 39.5517V37.4214C11.9699 36.9915 40.3529 37.4297 40.4803 37.2775C40.5152 37.2777 40.5486 37.2929 40.5732 37.3199C40.5979 37.3469 40.6117 37.3833 40.6117 37.4214ZM33.2319 35.3685H19.6155V33.5244H33.2319V35.3685ZM47.2499 28.0658C47.2489 29.0068 46.9058 29.9089 46.2959 30.5743C45.686 31.2396 44.8591 31.6139 43.9966 31.6151H42.3585V7.38375H43.9966C44.8591 7.38488 45.686 7.75917 46.2959 8.42455C46.9058 9.08992 47.2489 9.99203 47.2499 10.933V28.0658Z" fill="black"/>
    <path d="M43.9966 5.47441L44.0074 -2.52559H43.9966V5.47441ZM25.8195 5.47441H17.8195V13.4744H25.8195V5.47441ZM25.8195 2.86401H33.8195L33.8195 2.85601L25.8195 2.86401ZM23.1943 0L23.2039 -8H23.1943V0ZM18.1978 0V-8.00001L18.1882 -7.99999L18.1978 0ZM15.5726 2.86401L7.57258 2.85601V2.86401H15.5726ZM15.5726 5.47445V13.4744H23.5726V5.47445H15.5726ZM14.4232 5.47445V-2.52556L14.4142 -2.52555L14.4232 5.47445ZM10.2565 10.0203L2.25647 10.0127V10.0203H10.2565ZM10.2565 11.332V19.332H18.2565V11.332H10.2565ZM9.34893 11.332L9.27971 19.3317L9.31432 19.332H9.34893V11.332ZM5.10271 16.9547V24.9547H13.4651L13.0949 16.6005L5.10271 16.9547ZM2.89196 16.9547V8.95474L2.88647 8.95474L2.89196 16.9547ZM2.38005 17.1347L-2.55326 10.8369L-2.56008 10.8422L-2.5669 10.8476L2.38005 17.1347ZM0.359903 18.7242L-4.58705 12.4371L-4.61451 12.4587L-4.64179 12.4806L0.359903 18.7242ZM0.272757 20.1954L-5.49923 25.7347L-5.47564 25.7593L-5.45185 25.7836L0.272757 20.1954ZM2.14852 22.1169L-3.57609 27.7052L-3.56783 27.7136L2.14852 22.1169ZM2.74756 22.3751L2.74595 30.3751H2.74756V22.3751ZM5.10272 22.3751L13.097 22.6766L13.4101 14.3751H5.10272V22.3751ZM10.2565 28.1077H18.2565V19.0214L9.2434 20.1721L10.2565 28.1077ZM10.2565 28.9786H2.25652L2.25652 28.9862L10.2565 28.9786ZM14.4233 33.5245L14.4143 41.5245H14.4233V33.5245ZM17.8654 33.5245H25.8654V25.5245H17.8654V33.5245ZM17.8654 35.3685V43.3685H25.8654V35.3685H17.8654ZM12.1382 35.3685V27.3685L12.1274 27.3685L12.1382 35.3685ZM10.2565 37.4215L2.25647 37.4124V37.4215H10.2565ZM10.2565 39.5518H2.25646L2.25647 39.5612L10.2565 39.5518ZM12.1382 41.6046L12.1274 49.6046H12.1382V41.6046ZM40.4801 41.6046V49.6046L40.491 49.6046L40.4801 41.6046ZM42.3619 39.5517L50.3619 39.5608V39.5517H42.3619ZM42.3619 37.4214H50.3619L50.3619 37.4123L42.3619 37.4214ZM40.4801 35.3685L40.491 27.3685H40.4801V35.3685ZM34.982 35.3685H26.982V43.3685H34.982V35.3685ZM34.982 33.5244V25.5244H26.982V33.5244H34.982ZM43.9966 33.5244V41.5244L44.0074 41.5244L43.9966 33.5244ZM49 28.0658L57 28.0748V28.0658H49ZM49 10.933H57L57 10.924L49 10.933ZM17.3227 2.86401L9.32273 2.85903V2.86401H17.3227ZM18.1978 1.90934V-6.09066L18.1919 -6.09065L18.1978 1.90934ZM23.1944 1.90934L23.2003 -6.09066H23.1944V1.90934ZM24.0694 2.86401H32.0694L32.0694 2.85903L24.0694 2.86401ZM24.0694 5.47445V13.4744H32.0694V5.47445H24.0694ZM17.3227 5.47445H9.32273V13.4744H17.3227V5.47445ZM3.09364 20.4657L-2.6328 26.0521L-0.278229 28.4657H3.09364V20.4657ZM2.24508 19.5959L-2.70306 13.3097L-9.69472 18.8132L-3.48136 25.1823L2.24508 19.5959ZM3.17482 18.8641V10.8641H0.403955L-1.77331 12.5779L3.17482 18.8641ZM5.10272 18.8641H13.1027V10.8641H5.10272V18.8641ZM5.10272 20.4657V28.4657H13.1027V20.4657H5.10272ZM10.2565 13.2414H18.2565V5.24137H10.2565V13.2414ZM10.2565 26.1984V34.1984H18.2565V26.1984H10.2565ZM12.0066 28.9785H4.00658L4.00659 28.988L12.0066 28.9785ZM12.0066 10.0203L4.00658 10.0108V10.0203H12.0066ZM14.4232 7.38375V-0.616253L14.412 -0.616237L14.4232 7.38375ZM40.6083 7.38375H48.6083V-0.616245H40.6083V7.38375ZM40.6083 31.6151V39.6151H48.6083V31.6151H40.6083ZM14.4232 31.6151L14.4119 39.6151H14.4232V31.6151ZM40.6117 37.4214H48.6118L48.6117 37.4118L40.6117 37.4214ZM40.6117 39.5517L48.6117 39.5546V39.5517H40.6117ZM40.4801 39.6953V47.6953L40.4836 47.6953L40.4801 39.6953ZM12.1382 39.6953L12.1347 47.6953H12.1382V39.6953ZM12.0066 39.5517H4.00658L4.00658 39.5546L12.0066 39.5517ZM12.0066 37.4214H20.0066V37.0805L19.9776 36.7409L12.0066 37.4214ZM40.4803 37.2775L40.5225 29.2776L36.7617 29.2578L34.3471 32.1411L40.4803 37.2775ZM33.2319 35.3685V43.3685H41.2319V35.3685H33.2319ZM19.6155 35.3685H11.6155V43.3685H19.6155V35.3685ZM19.6155 33.5244V25.5244H11.6155V33.5244H19.6155ZM33.2319 33.5244H41.2319V25.5244H33.2319V33.5244ZM47.2499 28.0658L55.2499 28.0746V28.0658H47.2499ZM43.9966 31.6151V39.6151L44.007 39.6151L43.9966 31.6151ZM42.3585 31.6151H34.3585V39.6151H42.3585V31.6151ZM42.3585 7.38375V-0.616245H34.3585V7.38375H42.3585ZM43.9966 7.38375L44.007 -0.616245H43.9966V7.38375ZM47.2499 10.933H55.2499L55.2499 10.9243L47.2499 10.933ZM43.9966 5.47441V-2.52559H25.8195V5.47441V13.4744H43.9966V5.47441ZM25.8195 5.47441H33.8195V2.86401H25.8195H17.8195V5.47441H25.8195ZM25.8195 2.86401L33.8195 2.85601C33.8168 0.191489 32.8517 -2.48803 30.9472 -4.56584L25.0498 0.839766L19.1524 6.24537C18.2321 5.24142 17.8207 4.01788 17.8195 2.87202L25.8195 2.86401ZM25.0498 0.839766L30.9472 -4.56584C29.0214 -6.66683 26.254 -7.99636 23.2039 -7.99999L23.1943 0L23.1848 7.99999C21.5267 7.99802 20.0938 7.27251 19.1524 6.24537L25.0498 0.839766ZM23.1943 0V-8H18.1978V0V8H23.1943V0ZM18.1978 0L18.1882 -7.99999C15.1381 -7.99636 12.3707 -6.66683 10.4449 -4.56584L16.3423 0.839766L22.2397 6.24537C21.2982 7.27251 19.8654 7.99802 18.2073 7.99999L18.1978 0ZM16.3423 0.839766L10.4449 -4.56584C8.54038 -2.48803 7.57525 0.191489 7.57259 2.85601L15.5726 2.86401L23.5726 2.87202C23.5714 4.01788 23.16 5.24142 22.2397 6.24537L16.3423 0.839766ZM15.5726 2.86401H7.57258V5.47445H15.5726H23.5726V2.86401H15.5726ZM15.5726 5.47445V-2.52555H14.4232V5.47445V13.4744H15.5726V5.47445ZM14.4232 5.47445L14.4142 -2.52555C10.9552 -2.52164 7.79566 -1.01475 5.58075 1.40167L11.4782 6.80728L17.3756 12.2129C16.723 12.9248 15.6818 13.473 14.4323 13.4744L14.4232 5.47445ZM11.4782 6.80728L5.58075 1.40167C3.38709 3.7949 2.25942 6.90214 2.25647 10.0127L10.2565 10.0203L18.2565 10.0279C18.2558 10.728 18.0069 11.5241 17.3756 12.2129L11.4782 6.80728ZM10.2565 10.0203H2.25647V11.332H10.2565H18.2565V10.0203H10.2565ZM10.2565 11.332V3.33204H9.34893V11.332V19.332H10.2565V11.332ZM9.34893 11.332L9.41814 3.33234C5.08582 3.29485 1.77878 5.65025 -0.144569 8.22209C-2.06861 10.7949 -3.03434 14.0397 -2.88945 17.309L5.10271 16.9547L13.0949 16.6005C13.1071 16.8772 13.0458 17.3001 12.6687 17.8044C12.2922 18.3078 11.1746 19.3481 9.27971 19.3317L9.34893 11.332ZM5.10271 16.9547V8.95474H2.89196V16.9547V24.9547H5.10271V16.9547ZM2.89196 16.9547L2.88647 8.95474C0.855749 8.95614 -1.04594 9.65611 -2.55326 10.8369L2.38005 17.1347L7.31337 23.4325C6.10445 24.3795 4.56082 24.9536 2.89746 24.9547L2.89196 16.9547ZM2.38005 17.1347L-2.5669 10.8476L-4.58705 12.4371L0.359903 18.7242L5.30685 25.0113L7.327 23.4218L2.38005 17.1347ZM0.359903 18.7242L-4.64179 12.4806C-5.67768 13.3104 -6.48253 14.3351 -7.04156 15.4489L0.108366 19.0376L7.25829 22.6263C6.82298 23.4936 6.18985 24.3043 5.3616 24.9678L0.359903 18.7242ZM0.108366 19.0376L-7.04156 15.4489C-7.60001 16.5615 -7.91284 17.7605 -7.98416 18.9645L0.00183583 19.4376L7.98784 19.9107C7.93313 20.8342 7.69302 21.7601 7.25829 22.6263L0.108366 19.0376ZM0.00183583 19.4376L-7.98416 18.9645C-8.05548 20.1685 -7.88599 21.3867 -7.47272 22.5426L0.0602856 19.8493L7.59329 17.156C7.91295 18.05 8.04254 18.9872 7.98784 19.9107L0.00183583 19.4376ZM0.0602856 19.8493L-7.47272 22.5426C-7.05918 23.6992 -6.39986 24.7962 -5.49923 25.7347L0.272757 20.1954L6.04474 14.656C6.75909 15.4004 7.27336 16.2611 7.59329 17.156L0.0602856 19.8493ZM0.272757 20.1954L-5.45185 25.7836L-3.57609 27.7052L2.14852 22.1169L7.87313 16.5286L5.99736 14.6071L0.272757 20.1954ZM2.14852 22.1169L-3.56783 27.7136C-1.97414 29.3414 0.270554 30.3746 2.74595 30.3751L2.74756 22.3751L2.74917 14.3751C4.7796 14.3755 6.59601 15.2242 7.86487 16.5202L2.14852 22.1169ZM2.74756 22.3751V30.3751H5.10272V22.3751V14.3751H2.74756V22.3751ZM5.10272 22.3751L-2.8916 22.0736C-3.02514 25.6144 -1.97156 29.2841 0.578052 32.1019C3.22125 35.0231 7.11652 36.5735 11.2696 36.0433L10.2565 28.1077L9.2434 20.1721C9.74754 20.1078 10.3619 20.1548 10.99 20.391C11.6103 20.6243 12.0986 20.9871 12.4423 21.3669C13.1267 22.1234 13.0948 22.7364 13.097 22.6766L5.10272 22.3751ZM10.2565 28.1077H2.25652V28.9786H10.2565H18.2565V28.1077H10.2565ZM10.2565 28.9786L2.25652 28.9862C2.25947 32.0967 3.38713 35.204 5.58079 37.5972L11.4782 32.1916L17.3756 26.786C18.0069 27.4748 18.2559 28.2709 18.2565 28.971L10.2565 28.9786ZM11.4782 32.1916L5.58079 37.5972C7.79571 40.0137 10.9552 41.5206 14.4143 41.5245L14.4233 33.5245L14.4323 25.5245C15.6819 25.5259 16.7231 26.0741 17.3756 26.786L11.4782 32.1916ZM14.4233 33.5245V41.5245H17.8654V33.5245V25.5245H14.4233V33.5245ZM17.8654 33.5245H9.86542V35.3685H17.8654H25.8654V33.5245H17.8654ZM17.8654 35.3685V27.3685H12.1382V35.3685V43.3685H17.8654V35.3685ZM12.1382 35.3685L12.1274 27.3685C9.27486 27.3724 6.69699 28.6164 4.91088 30.565L10.8083 35.9706L16.7057 41.3762C15.6251 42.5551 14.0038 43.366 12.149 43.3685L12.1382 35.3685ZM10.8083 35.9706L4.91088 30.565C3.14601 32.4904 2.25926 34.9633 2.25647 37.4124L10.2565 37.4215L18.2565 37.4305C18.2549 38.7911 17.7651 40.2204 16.7057 41.3762L10.8083 35.9706ZM10.2565 37.4215H2.25647V39.5518H10.2565H18.2565V37.4215H10.2565ZM10.2565 39.5518L2.25647 39.5612C2.25935 42.0102 3.14616 44.483 4.91102 46.4083L10.8083 41.0026L16.7056 35.5969C17.765 36.7525 18.2549 38.1818 18.2565 39.5424L10.2565 39.5518ZM10.8083 41.0026L4.91102 46.4083C6.69711 48.3568 9.27492 49.6007 12.1274 49.6046L12.1382 41.6046L12.149 33.6046C14.0037 33.6071 15.625 34.418 16.7056 35.5969L10.8083 41.0026ZM12.1382 41.6046V49.6046H40.4801V41.6046V33.6046H12.1382V41.6046ZM40.4801 41.6046L40.491 49.6046C43.3435 49.6007 45.9214 48.3568 47.7074 46.4082L41.81 41.0026L35.9126 35.597C36.9932 34.4181 38.6146 33.6071 40.4693 33.6046L40.4801 41.6046ZM41.81 41.0026L47.7074 46.4082C49.4723 44.4827 50.3591 42.0099 50.3619 39.5608L42.3619 39.5517L34.3619 39.5426C34.3634 38.182 34.8533 36.7527 35.9126 35.597L41.81 41.0026ZM42.3619 39.5517H50.3619V37.4214H42.3619H34.3619V39.5517H42.3619ZM42.3619 37.4214L50.3619 37.4123C50.3591 34.9632 49.4723 32.4904 47.7074 30.5649L41.81 35.9705L35.9126 41.3761C34.8533 40.2204 34.3634 38.7911 34.3619 37.4305L42.3619 37.4214ZM41.81 35.9705L47.7074 30.5649C45.9214 28.6163 43.3435 27.3724 40.491 27.3685L40.4801 35.3685L40.4693 43.3685C38.6146 43.366 36.9932 42.555 35.9126 41.3761L41.81 35.9705ZM40.4801 35.3685V27.3685H34.982V35.3685V43.3685H40.4801V35.3685ZM34.982 35.3685H42.982V33.5244H34.982H26.982V35.3685H34.982ZM34.982 33.5244V41.5244H43.9966V33.5244V25.5244H34.982V33.5244ZM43.9966 33.5244L44.0074 41.5244C47.6875 41.5195 51.0588 39.9163 53.4301 37.3293L47.5327 31.9237L41.6353 26.5181C42.1307 25.9776 42.9587 25.5258 43.9859 25.5244L43.9966 33.5244ZM47.5327 31.9237L53.4301 37.3293C55.7802 34.7654 56.9962 31.4269 57 28.0748L49 28.0658L41 28.0568C41.0005 27.5991 41.1612 27.0354 41.6353 26.5181L47.5327 31.9237ZM49 28.0658H57V10.933H49H41V28.0658H49ZM49 10.933L57 10.924C56.9962 7.57195 55.7802 4.23346 53.4301 1.66956L47.5327 7.07516L41.6353 12.4808C41.1612 11.9635 41.0005 11.3997 41 10.942L49 10.933ZM47.5327 7.07516L53.4301 1.66956C51.0588 -0.917507 47.6875 -2.52064 44.0074 -2.52558L43.9966 5.47441L43.9859 13.4744C42.9587 13.473 42.1307 13.0212 41.6353 12.4808L47.5327 7.07516ZM17.3227 2.86401L25.3227 2.869C25.3217 4.522 24.7257 6.23204 23.4766 7.59475L17.5792 2.18915L11.6818 -3.21645C10.1046 -1.49574 9.32407 0.699746 9.32273 2.85903L17.3227 2.86401ZM17.5792 2.18915L23.4766 7.59475C22.2062 8.9807 20.3271 9.90777 18.2037 9.90934L18.1978 1.90934L18.1919 -6.09065C15.6044 -6.08874 13.2803 -4.96039 11.6818 -3.21645L17.5792 2.18915ZM18.1978 1.90934V9.90934H23.1944V1.90934V-6.09066H18.1978V1.90934ZM23.1944 1.90934L23.1884 9.90934C21.065 9.90777 19.1859 8.98068 17.9155 7.59475L23.813 2.18915L29.7104 -3.21645C28.1119 -4.96038 25.7878 -6.08874 23.2003 -6.09065L23.1944 1.90934ZM23.813 2.18915L17.9155 7.59475C16.6665 6.23207 16.0705 4.52204 16.0694 2.869L24.0694 2.86401L32.0694 2.85903C32.0681 0.699709 31.2875 -1.49577 29.7104 -3.21645L23.813 2.18915ZM24.0694 2.86401H16.0694V5.47445H24.0694H32.0694V2.86401H24.0694ZM24.0694 5.47445V-2.52555H17.3227V5.47445V13.4744H24.0694V5.47445ZM17.3227 5.47445H25.3227V2.86401H17.3227H9.32273V5.47445H17.3227ZM3.09364 20.4657L8.82008 14.8793L7.97152 14.0095L2.24508 19.5959L-3.48136 25.1823L-2.6328 26.0521L3.09364 20.4657ZM2.24508 19.5959L7.19321 25.8821L8.12296 25.1502L3.17482 18.8641L-1.77331 12.5779L-2.70306 13.3097L2.24508 19.5959ZM3.17482 18.8641V26.8641H5.10272V18.8641V10.8641H3.17482V18.8641ZM5.10272 18.8641H-2.89728V20.4657H5.10272H13.1027V18.8641H5.10272ZM5.10272 20.4657V12.4657H3.09364V20.4657V28.4657H5.10272V20.4657ZM9.34893 26.1984V18.1984C11.8423 18.1984 13.4037 19.6002 14.0446 20.4776C14.6925 21.3645 14.8528 22.2033 14.8528 22.7816H6.8528H-1.1472C-1.1472 25.244 -0.427159 27.7912 1.12462 29.9155C2.66944 32.0303 5.4789 34.1984 9.34893 34.1984V26.1984ZM6.8528 22.7816H14.8528V16.6582H6.8528H-1.1472V22.7816H6.8528ZM6.8528 16.6582H14.8528C14.8528 17.2365 14.6925 18.0753 14.0446 18.9622C13.4037 19.8396 11.8423 21.2414 9.34893 21.2414V13.2414V5.24137C5.47889 5.24137 2.66942 7.40953 1.12462 9.5243C-0.427155 11.6486 -1.1472 14.1958 -1.1472 16.6582H6.8528ZM9.34893 13.2414V21.2414H10.2565V13.2414V5.24137H9.34893V13.2414ZM10.2565 13.2414H2.25647V26.1984H10.2565H18.2565V13.2414H10.2565ZM10.2565 26.1984V18.1984H9.34893V26.1984V34.1984H10.2565V26.1984ZM12.0066 28.9785H20.0066V10.0203H12.0066H4.00658V28.9785H12.0066ZM12.0066 10.0203L20.0066 10.0298C20.0051 11.2355 19.5717 12.5164 18.6127 13.5626L12.7153 8.15697L6.81793 2.75136C4.95289 4.78608 4.00969 7.40708 4.00659 10.0108L12.0066 10.0203ZM12.7153 8.15697L18.6127 13.5626C17.6325 14.632 16.1473 15.3813 14.4345 15.3837L14.4232 7.38375L14.412 -0.616237C11.4178 -0.612011 8.7042 0.693484 6.81793 2.75136L12.7153 8.15697ZM14.4232 7.38375V15.3838H40.6083V7.38375V-0.616245H14.4232V7.38375ZM40.6083 7.38375H32.6083V31.6151H40.6083H48.6083V7.38375H40.6083ZM40.6083 31.6151V23.6151H14.4232V31.6151V39.6151H40.6083V31.6151ZM14.4232 31.6151L14.4346 23.6151C16.1474 23.6175 17.6325 24.3669 18.6127 25.4362L12.7153 30.8418L6.81792 36.2474C8.70417 38.3053 11.4178 39.6108 14.4119 39.6151L14.4232 31.6151ZM12.7153 30.8418L18.6127 25.4362C19.5717 26.4825 20.0051 27.7633 20.0066 28.969L12.0066 28.9785L4.00659 28.988C4.00969 31.5917 4.95288 34.2127 6.81792 36.2474L12.7153 30.8418ZM40.6117 37.4214H32.6117V39.5517H40.6117H48.6117V37.4214H40.6117ZM40.6117 39.5517L32.6117 39.5488C32.6124 37.6805 33.2865 35.7632 34.6758 34.2476L40.5732 39.6532L46.4706 45.0588C47.9092 43.4893 48.611 41.4991 48.6117 39.5546L40.6117 39.5517ZM40.5732 39.6532L34.6758 34.2476C36.0862 32.7088 38.1555 31.6963 40.4767 31.6953L40.4801 39.6953L40.4836 47.6953C42.8746 47.6942 45.0108 46.6515 46.4706 45.0588L40.5732 39.6532ZM40.4801 39.6953V31.6953H12.1382V39.6953V47.6953H40.4801V39.6953ZM12.1382 39.6953L12.1417 31.6953C14.4628 31.6963 16.532 32.7087 17.9426 34.2476L12.0451 39.6532L6.14773 45.0588C7.60763 46.6515 9.74382 47.6942 12.1347 47.6953L12.1382 39.6953ZM12.0451 39.6532L17.9426 34.2476C19.3316 35.7631 20.0059 37.6802 20.0066 39.5488L12.0066 39.5517L4.00658 39.5546C4.00729 41.4994 4.7093 43.4895 6.14773 45.0588L12.0451 39.6532ZM12.0066 39.5517H20.0066V37.4214H12.0066H4.00658V39.5517H12.0066ZM12.0066 37.4214L19.9776 36.7409C20.2376 39.7861 18.761 41.9426 17.7533 42.9815C16.8228 43.9408 15.8803 44.4249 15.4947 44.6105C14.6704 45.0072 13.9754 45.1583 13.8324 45.1904C13.5744 45.2481 13.3779 45.2772 13.296 45.2887C13.1994 45.3023 13.1327 45.3092 13.1093 45.3115C13.0635 45.316 13.1678 45.3056 13.519 45.2922C14.167 45.2675 15.1748 45.2495 16.4877 45.2387C19.0867 45.2174 22.5878 45.2268 26.1405 45.2452C29.6181 45.2632 33.3015 45.2909 35.9337 45.3036C37.2742 45.3101 38.4253 45.3133 39.2535 45.3097C39.6592 45.3079 40.0363 45.3044 40.3347 45.2971C40.469 45.2938 40.6774 45.2878 40.8942 45.274C40.9801 45.2686 41.2238 45.2527 41.5205 45.2128C41.6449 45.1961 41.9968 45.1473 42.4339 45.0367C42.6428 44.9839 43.0799 44.8657 43.606 44.6422C43.8966 44.5187 45.3562 43.9153 46.6136 42.414L40.4803 37.2775L34.3471 32.1411C35.6034 30.6409 37.0612 30.0387 37.349 29.9164C37.8725 29.694 38.306 29.5769 38.5104 29.5252C38.9387 29.4169 39.2784 29.3703 39.3872 29.3556C39.6528 29.3199 39.852 29.308 39.8804 29.3062C39.9823 29.2997 40.0241 29.2999 39.9436 29.3019C39.8122 29.3051 39.5665 29.3082 39.184 29.3098C38.4357 29.3131 37.3488 29.3103 36.0111 29.3038C33.2867 29.2906 29.8528 29.2642 26.2233 29.2454C22.6689 29.227 19.0731 29.217 16.3567 29.2392C15.0118 29.2502 13.8073 29.2696 12.9096 29.3039C12.488 29.3199 11.9861 29.3443 11.5286 29.3898C11.3515 29.4073 10.8796 29.4554 10.337 29.5768C10.1413 29.6207 9.40671 29.7839 8.55618 30.1933C8.15751 30.3851 7.20534 30.8757 6.26853 31.8415C5.25449 32.8869 3.77503 35.05 4.03558 38.1019L12.0066 37.4214ZM40.4803 37.2775L40.4381 45.2774C38.1251 45.2652 36.068 44.2497 34.6663 42.7151L40.5732 37.3199L46.4801 31.9246C45.0292 30.3361 42.9053 29.2902 40.5225 29.2776L40.4803 37.2775ZM40.5732 37.3199L34.6663 42.7151C33.2854 41.2032 32.614 39.2935 32.6118 37.431L40.6117 37.4214L48.6117 37.4118C48.6094 35.4732 47.9103 33.4905 46.4801 31.9246L40.5732 37.3199ZM33.2319 35.3685V27.3685H19.6155V35.3685V43.3685H33.2319V35.3685ZM19.6155 35.3685H27.6155V33.5244H19.6155H11.6155V35.3685H19.6155ZM19.6155 33.5244V41.5244H33.2319V33.5244V25.5244H19.6155V33.5244ZM33.2319 33.5244H25.2319V35.3685H33.2319H41.2319V33.5244H33.2319ZM47.2499 28.0658L39.2499 28.0571C39.2509 27.0931 39.5962 26.044 40.3985 25.1687L46.2959 30.5743L52.1933 35.9799C54.2154 33.7738 55.2468 30.9205 55.2499 28.0746L47.2499 28.0658ZM46.2959 30.5743L40.3985 25.1687C41.222 24.2702 42.4949 23.617 43.9862 23.6151L43.9966 31.6151L44.007 39.6151C47.2234 39.6109 50.15 38.2091 52.1933 35.9799L46.2959 30.5743ZM43.9966 31.6151V23.6151H42.3585V31.6151V39.6151H43.9966V31.6151ZM42.3585 31.6151H50.3585V7.38375H42.3585H34.3585V31.6151H42.3585ZM42.3585 7.38375V15.3838H43.9966V7.38375V-0.616245H42.3585V7.38375ZM43.9966 7.38375L43.9862 15.3837C42.4949 15.3818 41.222 14.7286 40.3985 13.8301L46.2959 8.42455L52.1933 3.01894C50.15 0.789717 47.2233 -0.612056 44.007 -0.616239L43.9966 7.38375ZM46.2959 8.42455L40.3985 13.8301C39.5962 12.9548 39.2509 11.9057 39.2499 10.9417L47.2499 10.933L55.2499 10.9243C55.2468 8.07834 54.2154 5.225 52.1933 3.01894L46.2959 8.42455ZM47.2499 10.933H39.2499V28.0658H47.2499H55.2499V10.933H47.2499Z" fill="#FB7E00" mask="url(#path-2-inside-1_54_57)"/>
    <circle cx="26.2689" cy="19.6419" r="11.0189" stroke="#FB7E00" stroke-width="2"/>
  </svg>