<svg preserveAspectRatio="none" width="100%" height="100%" overflow="visible" style="display: block;" viewBox="0 0 48.9802 49.203" fill="none" xmlns="http://www.w3.org/2000/svg">
<g id="Rotate">
<path id="Vector" d="M4.03168 6.98672V12.8603H9.87679" stroke="var(--stroke-0, #FB7E00)" stroke-width="3" stroke-miterlimit="10" stroke-linecap="round" stroke-linejoin="round"/>
<path id="Vector_2" d="M4.23695 12.8556C8.27952 5.83314 15.8354 1.5 24.4895 1.5C37.4021 1.5 47.4802 11.6272 47.4802 24.6028C47.4802 26.0568 47.3488 27.4799 47.0972 28.8608" stroke="var(--stroke-0, #FB7E00)" stroke-width="3" stroke-miterlimit="10" stroke-linecap="round" stroke-linejoin="round"/>
<path id="Vector_3" d="M44.8348 36.2037C44.1006 37.5015 43.2471 38.7223 42.2891 39.8508" stroke="var(--stroke-0, #FB7E00)" stroke-width="3" stroke-miterlimit="10" stroke-linecap="round" stroke-linejoin="round"/>
<path id="Vector_4" d="M36.3425 44.8593C35.075 45.609 33.7309 46.242 32.3249 46.7438" stroke="var(--stroke-0, #FB7E00)" stroke-width="3" stroke-miterlimit="10" stroke-linecap="round" stroke-linejoin="round"/>
<path id="Vector_5" d="M24.6732 47.7023C24.6136 47.7028 24.5539 47.703 24.4941 47.703C23.0471 47.703 21.6309 47.571 20.2567 47.3183" stroke="var(--stroke-0, #FB7E00)" stroke-width="3" stroke-miterlimit="10" stroke-linecap="round" stroke-linejoin="round"/>
<path id="Vector_6" d="M12.9554 45.0396C11.6638 44.3019 10.449 43.4442 9.32597 42.4816" stroke="var(--stroke-0, #FB7E00)" stroke-width="3" stroke-miterlimit="10" stroke-linecap="round" stroke-linejoin="round"/>
<path id="Vector_7" d="M4.33421 36.5032C3.58779 35.2296 2.95749 33.8789 2.45793 32.466" stroke="var(--stroke-0, #FB7E00)" stroke-width="3" stroke-miterlimit="10" stroke-linecap="round" stroke-linejoin="round"/>
<path id="Vector_8" d="M1.50068 24.7803C1.50019 24.7204 1.5 24.6604 1.5 24.6003C1.5 23.1462 1.63142 21.7232 1.88305 20.3422" stroke="var(--stroke-0, #FB7E00)" stroke-width="3" stroke-miterlimit="10" stroke-linecap="round" stroke-linejoin="round"/>
<path id="Vector_9" d="M24.4887 36.3527C30.945 36.3527 36.1789 31.0933 36.1789 24.6055C36.1789 18.1177 30.945 12.8583 24.4887 12.8583C18.0324 12.8583 12.7985 18.1177 12.7985 24.6055C12.7985 31.0933 18.0324 36.3527 24.4887 36.3527Z" stroke="var(--stroke-0, #FB7E00)" stroke-width="3" stroke-miterlimit="10" stroke-linecap="round" stroke-linejoin="round"/>
</g>
</svg>
