<svg preserveAspectRatio="none" width="100%" height="100%" overflow="visible" style="display: block;" viewBox="0 0 51.3905 49" fill="none" xmlns="http://www.w3.org/2000/svg">
<g id="Group 2043">
<path id="Vector" d="M1.5 47.5L39.297 11.2382" stroke="var(--stroke-0, #FB7E00)" stroke-width="3" stroke-linecap="round" stroke-linejoin="round"/>
<path id="Vector_2" d="M8.98438 35.2585V27.036C8.98438 27.036 9.07719 21.9914 11.9612 19.6532C14.8386 17.3149 22.801 9.37016 22.801 9.37016L26.2552 12.2703L25.5856 5.82406C25.5856 5.82406 32.1094 2.18108 38.726 1.70956C45.3427 1.23804 49.1813 1.70956 49.1813 1.70956C49.1813 1.70956 51.5814 12.3414 47.5504 18.3807C43.5194 24.42 36.9028 31.5251 36.9028 31.5251H28.3635L32.5868 35.265C32.5868 35.265 31.4332 39.8446 22.516 40.8716C13.5921 41.8986 9.38879 39.9479 9.38879 39.9479" stroke="var(--stroke-0, #FB7E00)" stroke-width="3" stroke-linecap="round" stroke-linejoin="round"/>
</g>
</svg>
