<svg width="220" height="68" viewBox="0 0 220 68" fill="none" xmlns="http://www.w3.org/2000/svg">
<path d="M80.7698 26.0833H84.2073C88.5156 26.0833 90.5323 24.0174 90.5323 21.8943C90.5323 21.1295 90.3718 18.744 86.0635 18.744H82.3052L80.7812 26.0833H80.7698ZM77.6646 41.3671H81.377C86.2354 41.3671 87.7021 38.7075 87.7021 36.9041C87.7021 36.3562 87.5416 35.7627 87.2666 35.2718C86.2812 33.6396 84.5968 33.5825 83.1187 33.5825H79.2458L77.6646 41.3557M93.6375 10.9937C102.151 10.9937 104.981 15.5594 104.981 19.5315C104.981 24.4283 100.994 28.6744 95.5396 29.656L95.4823 29.8729C100.169 30.2496 102.46 33.7309 102.46 36.9497C102.46 42.4514 97.3271 49.0831 86.1437 49.0831H62.1958L69.9416 10.9937H93.6145" fill="#1D1D1B"/>
<path d="M120.209 30.3865C119.338 32.1215 118.353 36.6415 118.353 38.9244C118.353 41.2073 119.499 41.5953 120.37 41.5953C122.501 41.5953 123.429 39.7462 123.922 38.3309C124.632 36.3676 125.388 33.2173 125.388 30.8203C125.388 29.9984 125.285 28.0922 123.269 28.0922C121.47 28.0922 120.599 29.6218 120.221 30.3751L120.209 30.3865ZM140.009 32.0644C140.009 41.2643 132.218 49.7451 119.121 49.7451C106.024 49.7451 103.744 41.8579 103.744 38.0455C103.744 29.0625 110.779 19.931 124.793 19.931C136.079 19.931 140.009 26.0263 140.009 32.0644Z" fill="#1D1D1B"/>
<path d="M165.917 20.5931C161.597 21.0954 157.632 23.9946 156.039 27.065H155.822L157.185 20.5931H144.306L138.474 49.106H152.212L154.344 38.7647C155.501 33.263 163.659 31.665 163.659 31.665L165.905 20.5931H165.917Z" fill="#1D1D1B"/>
<path d="M184.8 31.665H196.075L198.332 20.5932H187.057L188.788 11.3818L175.084 11.5074L173.307 20.5818H169.606L167.452 31.6536H171.062L169.606 38.6392C169.331 39.9975 169.171 41.253 169.171 42.6113C169.171 47.7363 173.479 49.7453 178.934 49.7453C182.921 49.7453 185.866 48.8778 187.607 48.2842L189.303 40.0659C187.779 40.4426 186.851 40.6138 186.084 40.6138C184.617 40.6138 183.574 39.792 183.574 38.1598C183.574 37.726 183.62 37.2923 183.735 36.8471L184.812 31.665H184.8Z" fill="#1D1D1B"/>
<path d="M193.188 15.9361V14.9317C193.188 14.6121 193.245 14.6121 193.577 14.6121C194.07 14.6121 194.345 14.7833 194.345 15.2627C194.345 15.8791 193.841 15.9361 193.291 15.9361H193.176H193.188ZM193.188 16.1302C194.23 16.0274 194.07 17.1575 194.494 17.4542C194.666 17.5684 194.872 17.5341 195.055 17.5341H195.273V17.3972C194.941 17.3972 194.861 17.1232 194.689 16.7922C194.517 16.4384 194.322 16.0503 193.978 16.016C194.437 15.9818 194.884 15.6622 194.884 15.1942C194.884 14.555 194.345 14.4294 193.577 14.4294H192.237V14.5664C192.615 14.5664 192.626 14.6349 192.626 14.7947V17.1575C192.626 17.3173 192.615 17.3857 192.237 17.3857V17.5227H193.566V17.3857C193.199 17.3857 193.188 17.3173 193.188 17.1575V16.1188V16.1302ZM193.577 18.7669C195.285 18.7669 196.407 17.6369 196.407 16.0959C196.407 14.555 195.296 13.4364 193.589 13.4364C191.881 13.4364 190.827 14.6349 190.827 16.1188C190.827 17.6026 191.916 18.7669 193.577 18.7669ZM193.589 13.7788C195.01 13.7788 195.995 14.692 195.995 16.0959C195.995 17.4999 195.021 18.4359 193.635 18.4359C192.248 18.4359 191.217 17.5227 191.217 16.0959C191.217 14.6691 192.202 13.7788 193.577 13.7788H193.589Z" fill="#1D1D1B"/>
<path d="M56.4322 30.592C56.4322 45.6361 44.1947 57.8265 29.0926 57.8265C13.9905 57.8265 1.75305 45.6246 1.75305 30.592C1.75305 15.5594 13.9905 3.35754 29.0926 3.35754C44.1947 3.35754 56.4322 15.548 56.4322 30.592Z" fill="#EA7600"/>
<path d="M20.2468 33.5255C20.224 33.6739 20.2354 33.6625 20.2468 33.5598C20.2468 33.5598 20.2468 33.5369 20.2468 33.5255Z" fill="#1D1D1B"/>
<path d="M14.6208 26.6769C14.7011 26.8139 14.7813 26.9622 14.8729 27.122C14.8844 27.122 14.8958 27.122 14.9073 27.122C14.85 27.0536 14.7469 26.8938 14.6323 26.6883L14.6208 26.6769Z" fill="#1D1D1B"/>
<path d="M13.5321 26.597C13.5321 26.597 13.4979 26.6655 13.4865 26.6998H13.5321C13.5321 26.6998 13.5549 26.6199 13.5549 26.597H13.5321Z" fill="#1D1D1B"/>
<path d="M11.4468 35.1007L11.0802 35.1578L10.8968 35.192H10.8854C10.8854 35.192 10.8854 35.2263 10.8854 35.2491L11.0229 35.2263L11.2864 35.1806L11.9968 35.0665C11.9968 35.0665 11.9968 35.0208 11.9968 35.0094L11.4583 35.1007H11.4468Z" fill="#1D1D1B"/>
<path d="M14.609 26.6541C14.609 26.6541 14.5634 26.5856 14.552 26.5627C14.552 26.5627 14.5862 26.6312 14.609 26.6541Z" fill="#1D1D1B"/>
<path d="M13.6239 26.6997H13.5322C13.5322 26.6997 13.5322 26.7225 13.5322 26.734H13.6812L14.277 26.6997C14.3916 26.6997 14.5176 26.6997 14.6322 26.6883C14.6322 26.6883 14.6322 26.6655 14.6208 26.6541C14.2999 26.6655 13.9676 26.6883 13.6354 26.6997H13.6239Z" fill="#1D1D1B"/>
<path d="M10.851 35.2034H10.8852C10.8966 34.9751 10.8852 35.0664 10.851 35.2034Z" fill="#1D1D1B"/>
<path d="M12.799 31.3796C12.799 31.3796 12.7989 31.2883 12.8218 31.2198C12.8218 31.2769 12.8104 31.3226 12.799 31.3796Z" fill="#1D1D1B"/>
<path d="M26.6976 26.1519C26.6748 26.2546 26.652 26.3117 26.6405 26.3117C26.6177 26.4715 26.5949 26.5856 26.6976 26.1747C26.6976 26.1747 26.6976 26.1633 26.6976 26.1519Z" fill="#1D1D1B"/>
<path d="M12.077 24.2457C12.077 24.2457 12.077 24.2229 12.077 24.28C12.077 24.3256 12.0884 24.3827 12.0998 24.4283C12.0998 24.3599 12.0998 24.3028 12.0884 24.2457H12.077Z" fill="#1D1D1B"/>
<path d="M21.2207 36.3562C21.2207 36.6187 21.2093 36.8813 21.1979 37.0867C21.1979 37.0525 21.2207 36.7329 21.2207 36.3562Z" fill="#1D1D1B"/>
<path d="M21.5185 35.6029H21.4729C21.4843 35.7969 21.4957 36.0709 21.5185 35.6029Z" fill="#1D1D1B"/>
<path d="M21.5187 33.6282H21.5415C21.5415 33.4456 21.5301 33.5141 21.5187 33.6282Z" fill="#1D1D1B"/>
<path d="M21.5186 35.6029C21.5186 35.4203 21.5186 35.2719 21.5186 35.1235C21.5186 35.3404 21.5186 35.5002 21.5072 35.6029H21.5186Z" fill="#1D1D1B"/>
<path d="M12.2489 26.2775C12.3059 26.8482 12.3516 27.1221 12.2831 26.346C12.2831 26.346 12.2831 26.2889 12.2717 26.2546H12.2489V26.2775Z" fill="#1D1D1B"/>
<path d="M11.9854 36.5731V36.6073H12.0082V36.4932C12.0082 36.5616 11.9968 36.6187 11.9854 36.5731Z" fill="#1D1D1B"/>
<path d="M25.9416 26.9738C25.9416 27.0422 25.9416 27.008 25.953 26.9281H25.9302C25.9302 26.9281 25.9302 26.9623 25.9302 26.9738H25.9416Z" fill="#1D1D1B"/>
<path d="M12.5583 36.4704C12.5583 36.4019 12.5583 36.3334 12.5583 36.2992H12.5469C12.5469 36.2992 12.5469 36.4133 12.5469 36.4704H12.5583Z" fill="#1D1D1B"/>
<path d="M12.0654 24.2799C12.0426 24.1087 12.0198 24.0174 12.0654 24.668H12.0882C12.0768 24.4968 12.0654 24.3598 12.0654 24.2799Z" fill="#1D1D1B"/>
<path d="M21.427 35.6257H21.4612C21.4498 35.5002 21.4384 35.4317 21.427 35.6257Z" fill="#1D1D1B"/>
<path d="M9.86559 39.8491H9.92288H10.0375C10.2781 39.8491 10.4958 39.8491 10.7364 39.8491V39.792C10.4614 39.792 10.1979 39.792 9.92288 39.792H9.85413C9.85413 39.9404 9.84267 40.1687 9.87704 39.8491H9.86559Z" fill="#1D1D1B"/>
<path d="M14.0362 32.8749C14.002 32.9662 14.0134 32.8749 14.0476 32.6694C14.0248 32.7836 14.002 32.8749 13.9906 32.9548H14.0248C14.0248 32.9548 14.0362 32.8977 14.0476 32.8635L14.0362 32.8749Z" fill="#1D1D1B"/>
<path d="M10.9883 33.4456C10.9997 33.3429 11.0111 33.2516 11.0225 33.1603C11.0454 32.7608 10.9997 33.0689 10.9541 33.5483C10.9769 33.3657 10.9883 33.3771 10.9883 33.4456Z" fill="#1D1D1B"/>
<path d="M10.7937 39.6892H10.8165C10.8165 39.4952 10.8165 39.5751 10.7937 39.6892Z" fill="#1D1D1B"/>
<path d="M10.7593 39.4951C10.7593 39.6093 10.7593 39.7006 10.7479 39.7919C10.7479 39.7234 10.7479 39.6321 10.7593 39.4951Z" fill="#1D1D1B"/>
<path d="M20.3041 33.6625C20.3041 33.6625 20.3041 33.6168 20.3155 33.594C20.3155 33.6168 20.3155 33.6397 20.3041 33.6625Z" fill="#1D1D1B"/>
<path d="M14.0592 32.4868C14.0478 32.5438 14.025 32.6123 14.0135 32.6808H14.0478C14.0592 32.6123 14.0706 32.5438 14.0934 32.4753H14.0706L14.0592 32.4868Z" fill="#1D1D1B"/>
<path d="M9.8425 39.7919C9.8425 39.6435 9.8425 39.5636 9.79688 40.0887H9.80828C9.80828 39.986 9.81969 39.8946 9.83109 39.7919H9.8425Z" fill="#1D1D1B"/>
<path d="M18.9634 39.4266C18.9406 39.9403 18.9634 39.8033 18.9862 39.4381C18.9862 39.4381 18.9862 39.4381 18.9862 39.4266H18.9634Z" fill="#1D1D1B"/>
<path d="M21.1634 36.8813H21.1406C21.1406 37.0982 21.1406 37.0526 21.1634 36.8813Z" fill="#1D1D1B"/>
<path d="M11.7791 33.1489L13.2343 33.069L13.9676 33.0347C13.9676 33.0347 13.9676 33.0005 13.9676 32.9777L12.5697 33.0576L11.527 33.1146L11.0343 33.1375C11.0343 33.1375 11.0343 33.1717 11.0343 33.1945L11.7676 33.1603L11.7791 33.1489Z" fill="#1D1D1B"/>
<path d="M11.0228 33.1374H11.057C11.1141 32.5325 11.0799 32.7151 11.0228 33.1603C11.0228 33.1717 11.0228 33.1945 11.0228 33.2173C11.0228 33.1831 11.0228 33.1603 11.0228 33.126V33.1374Z" fill="#1D1D1B"/>
<path d="M24.4864 29.4962C24.4864 29.4962 24.4864 29.5533 24.475 29.5989C24.475 29.5419 24.4864 29.5076 24.4864 29.4962Z" fill="#1D1D1B"/>
<path d="M13.7841 27.533C13.7727 27.6014 13.7499 27.6928 13.7271 27.8411C13.7499 27.7156 13.7727 27.6129 13.7841 27.533Z" fill="#1D1D1B"/>
<path d="M11.9968 35.0094C11.9968 35.0094 11.9968 34.9181 11.9968 34.8724C11.9968 34.8724 11.9968 34.9067 11.9854 35.0094H11.9968Z" fill="#1D1D1B"/>
<path d="M10.7936 35.1805C10.748 35.6828 10.7936 35.3974 10.8507 35.2034H10.8165C10.8165 35.2604 10.8051 35.249 10.8051 35.1805H10.7936Z" fill="#1D1D1B"/>
<path d="M24.4405 29.8387C24.4405 29.8387 24.4291 29.9186 24.4177 29.9643C24.4177 29.9643 24.4291 29.873 24.4405 29.8387Z" fill="#1D1D1B"/>
<path d="M13.8071 27.5786C13.8071 27.5786 13.8185 27.4987 13.8299 27.4645C13.8527 27.2819 13.8641 27.1221 13.7843 27.5444C13.8299 27.3275 13.8185 27.4417 13.8071 27.59V27.5786Z" fill="#1D1D1B"/>
<path d="M12.5697 36.4692H12.5922V36.4133H12.5697V36.4692Z" fill="#1D1D1B"/>
<path d="M24.1883 31.1514C24.1883 31.1514 24.1769 31.2313 24.1655 31.2769C24.1655 31.2769 24.1769 31.197 24.1883 31.1514Z" fill="#1D1D1B"/>
<path d="M12.0083 35.0093C12.0083 35.0093 12.0083 35.0436 12.0083 35.0664H12.0311C12.0311 35.0664 12.0311 35.0208 12.0311 34.9979H12.0083V35.0093Z" fill="#1D1D1B"/>
<path d="M25.7927 26.4258C25.7927 26.4258 25.7927 26.4489 25.7927 26.4605H25.8044C25.8044 26.4605 25.8044 26.4374 25.8044 26.4258H25.7927Z" fill="#1D1D1B"/>
<path d="M42.6593 18.0478C42.6593 18.0478 42.6593 18.0364 42.6593 18.0249C42.7395 18.0249 42.8197 18.0249 42.9 18.0249C42.8197 18.0249 42.7395 18.0249 42.6593 18.0364V18.0478ZM36.1739 16.0274C36.1739 16.0274 36.1968 15.9704 36.2083 15.9475C36.3343 15.9475 36.4604 15.9475 36.575 15.9475L40.0927 15.8791L41.6166 15.8448L41.7885 16.1188C39.8979 16.0845 38.0302 16.0617 36.1739 16.0274ZM32.9885 23.0472C33.0114 22.8874 33.0114 22.7733 32.9885 22.7733C32.8854 22.7733 32.7708 22.7733 32.6677 22.7733C32.6677 22.6934 32.6677 22.6249 32.6791 22.545C33.5958 22.5792 34.501 22.6135 35.4177 22.6477C34.6041 22.7847 33.7906 22.9217 32.977 23.0586L32.9885 23.0472ZM34.077 15.9932C34.7875 15.9818 35.4979 15.959 36.2083 15.9475C36.2083 15.9704 36.1854 15.9932 36.1739 16.0274C35.475 16.0274 34.776 16.0046 34.077 15.9932ZM30.8114 22.7162C30.4333 22.7162 30.0552 22.7048 29.677 22.6934C29.7 22.5564 29.677 22.6021 29.6427 22.6934C28.9781 22.682 28.3135 22.6591 27.6604 22.6477L25.8958 22.4879L22.7677 22.2026C25.7125 22.3053 28.6687 22.4194 31.6135 22.5222L30.8114 22.739V22.7162ZM26.3885 26.1633H26.652C26.652 26.1633 26.6406 26.2204 26.6291 26.2546H26.1135C26.1135 26.2546 26.1135 26.2318 26.1135 26.2204C26.1135 26.2318 26.1135 26.2546 26.1135 26.2661H26.102C26.102 26.2661 26.102 26.2546 26.102 26.2432C26.102 26.2204 26.1135 26.1976 26.125 26.1747C26.125 26.1747 26.125 26.1633 26.125 26.1519C26.125 26.1519 26.125 26.1633 26.125 26.1747H26.3885V26.1633ZM26.0104 26.5514C26.0104 26.4943 26.0333 26.4144 26.0562 26.3231C26.0562 26.3231 26.0562 26.3117 26.0677 26.2889C25.9875 26.677 25.9989 26.6427 26.0104 26.54V26.5514ZM25.9302 26.4943C25.9302 26.4943 25.8843 26.4943 25.8614 26.4943C25.8614 26.4715 25.8729 26.4487 25.8843 26.4144H26.0218C26.0218 26.4144 26.0218 26.4487 25.9989 26.4829H25.9302V26.4943ZM25.85 26.4943H25.827C25.827 26.4943 25.827 26.4373 25.8385 26.4144H25.8614C25.8614 26.4144 25.85 26.4601 25.8385 26.4943H25.85ZM25.7239 26.9852H25.701C25.701 26.9852 25.701 26.9623 25.701 26.9395H25.7125C25.7125 26.9395 25.7125 26.9623 25.7125 26.9852H25.7239ZM25.8041 26.4601H25.7927C25.7927 26.4601 25.7927 26.4829 25.7927 26.4943C25.7927 26.4943 25.7812 26.4943 25.7697 26.4943C25.7697 26.4715 25.7697 26.4601 25.7812 26.4487L25.6437 26.4259H25.7583L25.7927 26.4144H25.827C25.827 26.4144 25.827 26.4373 25.827 26.4601H25.8041ZM25.6552 26.9966H25.6093C25.6093 26.9966 25.6093 26.9737 25.6093 26.9623H25.6437C25.6437 26.9737 25.6437 26.9852 25.6437 27.008L25.6552 26.9966ZM25.3114 28.1951C24.8875 28.1951 24.475 28.1722 24.051 28.1722C24.4406 28.138 24.8187 28.1038 25.2083 28.0581H25.2312H25.3229C25.3458 28.001 25.3458 28.0581 25.3229 28.1951H25.3114ZM20.2583 33.5598C20.2583 33.5598 20.2468 33.6397 20.2354 33.6739H20.2125L20.0177 33.7082C20.0177 33.6625 20.0177 33.6054 20.0177 33.5598L20.2354 33.5255C20.2354 33.5255 20.2468 33.4114 20.2698 33.3315H20.1781L20.0291 33.3772C20.0291 33.3429 20.0291 33.3087 20.0291 33.2744C20.0864 33.2744 20.1437 33.2516 20.201 33.2516C20.3041 33.2288 20.5104 32.327 20.4989 32.1102H20.5562C20.4989 32.464 20.3041 33.3201 20.2354 33.5712L20.2583 33.5598ZM20.2239 33.7538L20.0177 33.7767L20.0979 33.7538L20.2239 33.731V33.7538ZM20.6822 31.8819C20.6822 31.8819 20.6593 31.9732 20.6479 32.0189H20.625C20.625 32.0189 20.6479 31.9275 20.6479 31.8819H20.6822ZM22.0802 31.7221L23.5354 31.5509L23.902 31.5052L24.0854 31.4824C24.0854 31.4824 24.0739 31.5737 24.0625 31.6194H23.9708L22.4468 31.8134L20.6479 32.0303C20.6479 32.0303 20.6708 31.9275 20.6822 31.8819L22.0802 31.7221ZM20.2125 33.8908C20.2125 33.8908 20.201 33.9593 20.1895 33.9935H20.0062C20.0062 33.9935 20.0062 33.8908 20.0062 33.8337L20.201 33.8109C20.201 33.8794 20.201 33.9022 20.201 33.8908H20.2125ZM20.1666 34.1419C20.1666 34.2104 20.1666 34.199 20.1781 34.1419L20.4875 34.1077L21.1177 34.0392L21.427 34.0049C21.427 34.0049 21.427 34.0506 21.427 34.062C20.9458 34.1077 20.4645 34.1647 19.9718 34.2104C19.9718 34.1876 19.9718 34.1762 19.9718 34.1533H20.1437L20.1666 34.1419ZM20.2698 33.8109L21.3125 33.7082H21.4843C21.4843 33.7767 21.4843 33.8223 21.4843 33.8451C21.4843 33.868 21.4843 33.8908 21.4843 33.9136C21.4843 33.868 21.4958 33.8908 21.4958 34.062C21.4958 34.062 21.4729 34.062 21.4614 34.062C21.4614 34.0392 21.4614 34.0164 21.4614 33.9935C21.4614 34.0164 21.4614 33.9935 21.45 33.868H21.3697L20.7281 33.9365L20.2239 33.9821C20.2239 33.9821 20.2583 33.868 20.2698 33.7995V33.8109ZM21.2323 35.3518C21.1635 35.3632 21.0947 35.3861 21.026 35.4089H20.9802L20.6822 35.4431H20.5562C20.7854 35.3975 21.0031 35.3404 21.2208 35.2719C21.2208 35.2948 21.2208 35.3176 21.2208 35.3518H21.2323ZM21.3125 35.2491C21.3812 35.2263 21.45 34.998 21.5072 34.7469C21.5072 34.9067 21.5072 35.0779 21.5072 35.2833L21.427 35.3062L21.2666 35.3518C21.2666 35.3518 21.2552 35.3518 21.2437 35.3518V35.2719C21.2437 35.2719 21.2895 35.2719 21.3125 35.2491ZM21.2323 35.5345C21.2323 35.5345 21.2208 35.5345 21.2093 35.5345V35.4888H21.2323V35.5345ZM20.9458 35.5573L21.0375 35.5345L21.1635 35.5002H21.2093C21.2093 35.5002 21.2093 35.523 21.2093 35.5345C21.1291 35.5345 21.0375 35.5459 20.9458 35.5573ZM19.9948 34.1533C19.9948 34.1533 19.9948 34.1876 19.9948 34.2104C19.9948 34.1876 19.9948 34.1647 19.9948 34.1533ZM20.0062 33.6968C20.0062 33.6968 20.0062 33.6054 20.0062 33.5712C20.0062 33.5712 20.0062 33.5598 20.0062 33.5484H20.0177C20.0177 33.5484 20.0177 33.6397 20.0177 33.6968H19.9948H20.0062ZM20.0062 33.7652H20.0177H19.9948H20.0062ZM20.0062 33.8337H20.0177C20.0177 33.8908 20.0177 33.9479 20.0062 34.0049H19.9948C19.9948 33.9479 19.9948 33.8908 19.9948 33.8337H20.0062ZM19.9718 33.8337H19.9948C19.9948 33.8337 19.9948 33.9479 19.9948 34.0049H19.9375C19.9375 34.0049 19.9718 33.9022 19.9833 33.8337H19.9718ZM20.0635 33.3657C20.0635 33.3657 20.0635 33.4 20.0635 33.4228C20.0635 33.4114 20.0635 33.3886 20.0635 33.3657ZM19.9833 34.1533C19.9833 34.1533 19.9833 34.1876 19.9833 34.2104C19.9375 34.2104 19.8916 34.2104 19.8458 34.2218C19.8458 34.2104 19.8687 34.1876 19.8802 34.1647H19.9833V34.1533ZM19.9833 31.9618L20.3958 31.9161L20.6135 31.9504C20.6135 31.9504 20.625 31.939 20.6135 32.0303H20.5218C20.3385 32.0189 20.1552 31.9846 19.9718 31.9618H19.9833ZM19.101 37.3836C19.101 37.3836 19.101 37.4406 19.101 37.4635H18.9177H18.7343L19.101 37.3722V37.3836ZM18.1614 37.4977H17.9322C18.3218 37.4064 18.7229 37.3037 19.1125 37.2009C19.1125 37.2238 19.1125 37.2352 19.1125 37.258C18.7916 37.3379 18.4822 37.4178 18.1729 37.4977H18.1614ZM17.8635 37.8972C17.8635 37.8972 17.8406 37.8972 17.8291 37.8972C17.5198 37.9086 17.1989 37.92 16.8895 37.9315C16.901 37.9315 16.9125 37.9315 16.9354 37.9315C17.2562 37.92 17.5541 37.9086 17.875 37.8972H17.8635ZM18.1614 37.8858C18.276 37.8858 18.402 37.8858 18.5052 37.8744L18.975 37.8516H19.0322C18.7229 37.863 18.425 37.8744 18.1156 37.8858H18.15H18.1614ZM19.0895 37.6575C19.0895 37.6575 19.0895 37.7146 19.0781 37.7488C19.0781 37.7488 19.0781 37.7831 19.0781 37.863H19.0552C19.0552 37.863 19.0666 37.7945 19.0781 37.7488C19.0781 37.7488 19.0781 37.8059 19.0552 37.863C19.0552 37.863 19.0552 37.8173 19.0552 37.7602H18.6197L19.0895 37.6575ZM18.8375 39.0501C18.9062 39.0272 18.9864 38.7761 19.0437 38.5022C19.0437 38.6506 19.0208 38.8218 19.0093 39.0272L18.8947 39.0501L18.6656 39.1071L17.7375 39.3354L15.9156 39.7692C15.8125 39.792 15.7093 39.8148 15.6062 39.8491C15.6062 39.8491 15.6062 39.8376 15.6062 39.8262C16.6833 39.5637 17.7604 39.3012 18.8375 39.0386V39.0501ZM15.5489 40.1344C15.5489 40.1344 15.5489 40.1116 15.5375 40.1116C15.5375 40.1116 15.5375 40.0888 15.5375 40.0659H15.4916H15.1708C15.3083 40.0317 15.4343 39.9974 15.5718 39.9632C15.5718 40.0203 15.5604 40.0773 15.5489 40.1344ZM15.3427 41.1845C15.3427 41.1845 15.3427 41.2302 15.3312 41.2873H15.2854C15.2854 41.2873 15.3312 41.2416 15.3427 41.1845ZM15.3885 41.0476C15.2854 41.721 15.3541 41.1959 15.3427 41.1845C15.3541 41.1503 15.377 41.1046 15.3885 41.0476ZM14.7239 40.0659C14.9989 39.9974 15.2739 39.929 15.5489 39.8605C15.5489 39.8605 15.5489 39.8605 15.5489 39.8833C15.5489 39.8833 15.5489 39.8833 15.5604 39.8833C15.5604 39.8833 15.5604 39.8719 15.5604 39.8605H15.5833C15.5833 39.8605 15.5833 39.8719 15.5833 39.8833C15.5833 39.8833 15.5604 39.8833 15.5489 39.8833C15.5489 39.929 15.5375 39.9518 15.5375 39.8833C15.2854 39.9404 15.0447 39.9974 14.8041 40.0659H14.7239ZM14.426 31.1742H14.4031H14.3916H14.3572C14.3572 31.1742 14.277 31.197 14.2312 31.197C14.2083 31.197 14.1854 31.2541 14.151 31.3226L13.1541 31.4596L12.9708 31.4824H12.8677C12.8677 31.4824 12.8791 31.3911 12.8906 31.3568H12.9937L13.727 31.2427L14.3458 31.1628C14.3458 31.1628 14.3687 31.0943 14.3802 31.0601C14.3802 31.0601 14.3916 31.0601 14.4031 31.0601C14.4031 31.0943 14.3916 31.1285 14.3802 31.1628H14.3916C14.3916 31.1628 14.3916 31.1171 14.4031 31.1057H14.426C14.426 31.1057 14.426 31.14 14.4145 31.1628L14.6093 31.14H14.6437H14.6552C14.575 31.14 14.4947 31.1628 14.4145 31.1742H14.426ZM13.6468 29.5191H13.5437L13.6927 29.5077L14.0479 29.4735L14.7697 29.405H14.8385H15.9614L15.0791 29.4849L14.6666 29.5191H13.6583H13.6468ZM13.5093 29.2794C13.5093 29.2109 13.5208 29.1767 13.5208 29.1539C13.876 29.1539 14.2427 29.1653 14.5979 29.1767L14.2885 29.1995L13.5895 29.2566H13.4979L13.5093 29.2794ZM13.4062 29.6447C13.4062 29.6447 13.4062 29.5648 13.4291 29.5191C13.4291 29.5191 13.4177 29.6104 13.4177 29.6447H13.4062ZM13.452 29.3822C13.452 29.3822 13.4406 29.4735 13.4291 29.5077C13.4291 29.5077 13.4406 29.4278 13.452 29.3822ZM16.3625 37.9543C16.3625 37.9543 16.3281 37.9543 16.3166 37.9657C16.2479 37.9657 16.1677 37.9657 16.0989 37.9657C16.1104 37.9657 16.1333 37.9657 16.1447 37.9657C16.2135 37.9657 16.2937 37.9657 16.3625 37.9657V37.9543ZM15.7781 27.339V27.2249C16.752 27.145 17.726 27.0651 18.7 26.9852C18.8489 27.008 18.9864 27.0308 19.1239 27.0536C18.6427 27.0993 18.15 27.1335 17.6572 27.1792L16.0645 27.3162H15.8583L15.7666 27.339H15.7781ZM15.7322 27.4531C15.7322 27.4531 15.7322 27.3618 15.7322 27.2363H15.7666C15.7666 27.2363 15.7666 27.4075 15.7552 27.4531H15.7322ZM16.8666 22.1227L16.7406 22.2711C16.6833 22.3053 16.626 22.3281 16.5572 22.3624L16.9239 21.94C16.9239 21.94 16.9927 21.94 17.0156 21.94L16.8666 22.1113V22.1227ZM15.652 26.5742V26.4943C15.652 26.4943 15.652 26.54 15.652 26.5742ZM15.1937 26.5971C15.0677 26.5971 14.9531 26.5971 14.827 26.6085C14.8156 26.5857 14.8041 26.5628 14.7927 26.54C14.85 26.54 14.9072 26.5172 14.9531 26.5058L15.5375 26.4829C15.5375 26.4829 15.5947 26.4829 15.6177 26.4943L15.2052 26.5971H15.1937ZM14.8843 26.677C14.8843 26.677 14.8843 26.6884 14.85 26.6427C14.9187 26.6427 14.9875 26.6427 15.0562 26.6427L14.8958 26.677H14.8843ZM15.2625 24.6795L15.2281 24.7251H15.1822L15.2625 24.6795ZM18.5166 22.3624C18.5166 22.3624 18.5166 22.3624 18.5281 22.3738C18.5281 22.3738 18.5281 22.3738 18.5281 22.3624H18.5166ZM17.8062 24.5311C17.9895 24.5311 18.1729 24.5311 18.3677 24.5197C18.1614 24.5767 17.9552 24.6224 17.7604 24.6795C17.7718 24.6452 17.7833 24.5996 17.8062 24.5311ZM17.9322 23.3897L18.0239 23.344C18.001 23.4696 18.001 23.5609 18.0239 23.5723C18.0239 23.5723 18.0239 23.5723 18.0354 23.5723C17.9781 23.7663 17.9208 23.949 17.875 24.1088L16.8208 24.1316C16.901 24.0403 16.9927 23.9375 17.0843 23.8348L17.9093 23.4011L17.9322 23.3897ZM18.0468 23.2184C18.0468 23.2184 18.0468 23.2869 18.0354 23.3098L17.2218 23.7321L17.1531 23.7663C17.1531 23.7663 17.2447 23.6636 17.2906 23.6179L18.0468 23.2184ZM17.7833 24.5311C17.7718 24.5882 17.7604 24.6452 17.7489 24.6795C17.2791 24.6795 16.8093 24.6909 16.3395 24.7023C16.3854 24.6566 16.4198 24.611 16.4656 24.5539C16.901 24.5539 17.3364 24.5425 17.7833 24.5311ZM16.9697 24.2229C16.901 24.2229 16.8322 24.2229 16.752 24.2229C16.775 24.1887 16.8093 24.1658 16.8322 24.1316C17.1875 24.1316 17.5427 24.1316 17.8979 24.1088C17.8979 24.143 17.8864 24.1658 17.875 24.2001C17.577 24.2001 17.2677 24.2001 16.9697 24.2115V24.2229ZM20.5677 31.5737H20.6937C20.6937 31.5737 20.6937 31.6422 20.6937 31.665L20.3958 31.6993L19.9718 31.6422C20.1781 31.6194 20.3729 31.5965 20.5791 31.5737H20.5677ZM25.7927 19.5887C25.2656 19.5887 24.727 19.6001 24.2 19.6115C21.5072 19.6572 18.8145 19.8284 16.0989 20.0453L12.7875 19.9197L11.802 19.8855L11.3093 19.8626C11.3093 19.8626 11.3093 19.8284 11.3208 19.7942H11.5041H11.825H12.4552C15.7666 19.7371 18.6083 19.6914 20.9229 19.6458M15.4802 15.6736H15.4458C15.4114 16.0845 15.4229 15.8448 15.4458 15.6394C16.2937 15.6279 17.1416 15.6165 18.001 15.6051C17.8635 15.6394 17.7375 15.6736 17.6 15.7193L15.9041 15.6964H15.6291H15.4916L15.4802 15.6736ZM23.9708 29.8616L24.2114 29.8273H24.3375C24.3375 29.8844 24.3375 29.9186 24.3375 29.93H24.3031C24.0166 29.93 23.7302 29.93 23.4437 29.93L23.9708 29.8616ZM24.3833 29.8045H24.4062C24.4062 29.8045 24.4062 29.873 24.3948 29.9186H24.3489C24.3489 29.9186 24.3718 29.8501 24.3833 29.8045ZM13.1427 41.8694C12.9823 41.8922 12.8333 41.915 12.6729 41.9379C12.5239 41.8694 12.3635 41.8009 12.2145 41.7438C12.375 41.721 12.5468 41.6982 12.7072 41.6753C12.8562 41.7438 12.9937 41.8123 13.1427 41.8808V41.8694ZM12.6614 37.6004L12.6041 37.6233V37.6004C12.6041 37.6004 12.7187 37.589 12.776 37.589L12.6729 37.6119L12.6614 37.6004ZM12.6041 36.2421C12.6041 36.2421 12.6041 36.1622 12.6041 36.128C12.6041 36.128 12.6156 36.128 12.6385 36.128C12.6385 36.1622 12.6385 36.1965 12.6385 36.2421H12.6156H12.6041ZM12.077 34.9637L12.1572 34.9409L12.352 34.9181L12.077 34.9637ZM12.1229 34.6898H12.1458C12.1458 34.7811 12.1343 34.7583 12.1229 34.6898ZM14.2197 44.5746C14.2427 44.5061 14.2656 44.5061 14.2197 44.5746V44.5746ZM10.7822 39.8833C10.7822 39.8833 10.7822 39.8376 10.7937 39.8148C10.8854 39.8148 10.977 39.8148 11.0802 39.8148C10.9885 39.8376 10.8854 39.8605 10.7822 39.8833ZM12.0541 34.8039C12.0541 34.8039 12.0541 34.7355 12.0541 34.7012C12.0541 34.7012 12.0541 34.7697 12.0541 34.8039ZM11.0343 33.5826C11.0343 33.5826 11.0343 33.537 11.0458 33.5027H11.126L11.4698 33.4799L11.7677 33.4571C11.5156 33.5027 11.275 33.537 11.0229 33.5826H11.0343ZM13.5895 26.3003C13.6125 26.2318 13.6239 26.1976 13.6239 26.1747C13.8187 26.209 14.0135 26.2318 14.2083 26.2661L13.5895 26.3003ZM14.3802 24.5996C14.4489 24.5996 14.5062 24.5996 14.5635 24.5996L14.5406 24.6338L14.3802 24.611V24.5996ZM58.7583 17.6483L58.8729 17.0205L54.4614 16.9748C54.5416 16.5183 54.5416 16.3585 54.5416 16.3585H54.3354L53.5333 16.347C51.4479 16.3128 52.6739 16.2671 51.2302 16.2443H51.1614C50.0843 15.4681 50.2791 15.3083 49.9697 15.1029H49.9354H49.6489L48.526 15.1371C47.0364 15.1828 45.6156 15.2284 44.252 15.2627H43.7708L43.45 14.7833L43.2552 14.1897V14.1669C43.7593 14.418 42.5218 13.8017 42.6364 13.8587H42.5791H42.4645H42.2354L41.777 13.8701L40.8718 13.893L39.1302 13.9272C36.8614 13.9729 34.7989 14.0071 32.9427 14.0528C31.4989 14.0756 30.1812 14.1098 28.9666 14.1327C28.6687 14.0185 28.3822 13.893 28.0843 13.7788C27.8552 13.6875 27.076 13.1739 26.7781 13.2538C25.5177 13.5848 24.2687 13.9272 23.0197 14.2582C16.9697 14.3838 15.8125 14.418 15.8125 14.418L15.7552 14.4409C14.7697 14.4409 13.7729 14.4637 12.7875 14.4751C12.6843 14.4751 12.4208 15.6736 12.5125 15.6736C13.4864 15.6508 14.4604 15.6394 15.4343 15.6279C15.4229 15.7649 15.4 15.9704 15.377 16.29C15.3312 16.3014 15.2854 16.3128 15.2395 16.3242C15.2395 16.3242 15.2052 16.347 15.1937 16.3699L0.401001 16.9292H15.0218C14.9989 17.089 14.976 17.2374 14.9645 17.3401C14.3687 17.3857 13.7729 17.42 13.2 17.4656L11.8708 17.557H11.7906H11.7448C11.7677 17.4086 11.7104 17.7282 11.6187 18.1962C11.5041 18.4929 11.3666 19.1892 11.4239 19.2577C11.3781 19.4746 11.3437 19.68 11.3093 19.8398H11.0687L10.9541 19.8284C10.7364 20.753 11.1718 18.4244 10.725 20.4676C10.702 20.4676 10.6677 20.4676 10.6333 20.4676C10.5187 20.4676 10.2666 21.6547 10.3583 21.6661C10.3927 21.6661 10.427 21.6661 10.4614 21.6661C10.427 21.8716 10.3812 22.077 10.3239 22.3053L12.3177 22.1341C13.4635 22.0428 14.5979 21.94 15.7322 21.8487C16.1218 21.8601 16.5114 21.883 16.8895 21.8944L16.5 22.3395C15.3541 22.9331 14.2197 23.538 13.0739 24.1316H12.1343C12.0312 23.4011 12.0312 23.6294 12.077 24.1658H12.226H12.8333L13.0166 24.1544C12.9593 24.1772 12.902 24.2115 12.8447 24.2343C12.627 24.2343 12.3864 24.2343 12.1687 24.2457H12.1C12.1114 24.4854 12.1 24.4398 12.1 24.337C12.1 24.4055 12.1 24.4854 12.1229 24.5653H12.2375C12.2375 24.5653 12.1687 24.5996 12.1343 24.6224C12.1343 24.5996 12.1343 24.5767 12.1343 24.5653H12.1229C12.1229 24.5653 12.1229 24.611 12.1229 24.6224C12.1229 24.6224 12.1114 24.6224 12.1 24.6224C12.1 24.5996 12.1 24.5767 12.1 24.5539H12.0083C12.0083 24.5539 11.9968 24.5539 12.0083 24.6795C11.9968 24.6795 11.9854 24.6909 11.9739 24.7023C11.8135 24.7822 11.6302 25.9008 11.6989 25.9008C11.8479 25.9008 11.9854 25.9008 12.1343 25.9008C12.1687 26.2432 12.2031 26.3916 12.1572 25.9008H12.1687C12.1687 25.9008 12.1916 25.9008 12.2145 25.9008C12.2145 26.0035 12.226 26.1063 12.2375 26.209L12.2718 26.1862C12.2718 26.0948 12.2489 26.0035 12.2375 25.9008H12.2604C12.2718 26.0149 12.2833 26.1063 12.2947 26.1747L12.375 26.1405L12.65 25.9921L12.8333 25.9008C12.8906 25.9008 12.9479 25.9008 13.0052 25.9008L12.6614 26.0834L12.3635 26.2318L12.2947 26.2661C12.2947 26.3231 12.3177 26.3345 12.3177 26.2661L12.4552 26.1976L12.7416 26.0492L13.0281 25.9008C13.1656 25.9008 13.3031 25.9008 13.4406 25.9008C13.4291 26.0264 13.4291 26.1063 13.452 26.1063C13.4635 26.1063 13.475 26.1063 13.4979 26.1063C13.475 26.1862 13.475 26.209 13.5093 26.1177C13.3947 26.5514 13.4635 26.346 13.5093 26.209C13.5093 26.1747 13.5208 26.1519 13.5323 26.1177C13.5323 26.1177 13.5208 26.1747 13.5093 26.1862C13.5093 26.1633 13.5208 26.1405 13.5323 26.1177C13.5323 26.1405 13.5093 26.1633 13.4979 26.1976C13.475 26.3003 13.4406 26.403 13.4062 26.5172C13.2458 27.0879 13.3489 26.8368 13.4291 26.6199H13.3947C13.3604 26.6998 13.3718 26.6427 13.4062 26.5172H13.475C13.5093 26.4373 13.5322 26.403 13.4979 26.5172H13.5552L13.8989 26.4943L14.4947 26.4715H14.5291C14.5291 26.4715 14.5635 26.54 14.5864 26.5628H14.552C14.552 26.5628 14.552 26.5857 14.5635 26.5971H14.5979C14.7239 26.8139 14.8041 26.9509 14.85 27.0308C14.8729 27.0651 14.8843 27.0765 14.8958 27.0765C14.9416 27.145 14.9187 27.1107 14.8958 27.0422L15.0447 27.008L15.3541 26.9281L15.5947 26.871C15.5947 26.871 15.5947 26.8596 15.5947 26.8482C15.3541 26.9053 15.125 26.9737 14.8843 27.0308C14.8156 26.8938 14.701 26.6541 14.8843 26.9623L15.0218 26.9281L15.6062 26.7797C15.6062 26.7112 15.6062 26.6313 15.6062 26.5514C15.6062 26.6313 15.6062 26.6998 15.6062 26.7683V26.8482V26.871C15.6062 26.9395 15.6062 27.008 15.6062 27.0765C15.6062 27.1678 15.6062 27.2819 15.6062 27.3961V27.4417C15.6062 27.4417 15.6062 27.5216 15.6062 27.5559C15.6062 27.5559 15.6062 27.6358 15.6062 27.6928V27.7157C15.6062 27.67 15.6062 27.6244 15.6062 27.5559L13.7843 27.5216C13.7843 27.5216 13.7958 27.4531 13.8073 27.4075H13.8989H14.2656H14.9875L15.6062 27.4303V27.3961L14.575 27.3732H13.9906L13.8416 27.3618C13.9791 26.5742 13.9104 26.8254 13.7843 27.3847C13.7729 27.5102 13.75 27.6472 13.7843 27.5787C13.727 27.807 13.75 27.6472 13.7729 27.4988C13.7614 27.5787 13.7385 27.67 13.7156 27.7613H13.8416H14.1854C14.3916 27.7613 14.6093 27.7613 14.827 27.7727C14.4489 27.807 14.0708 27.8412 13.6927 27.8755C13.6927 27.8298 13.7041 27.7842 13.7156 27.7499H13.6927C13.6927 27.7499 13.6812 27.8298 13.6698 27.8755C13.6698 27.8755 13.6812 27.7842 13.6927 27.7499H13.6698C13.6698 27.7499 13.6583 27.8412 13.6468 27.8869C13.6468 27.8869 13.6239 27.8869 13.6125 27.8869C13.4979 27.8869 13.2572 29.0854 13.3375 29.0854H13.4177C13.4062 29.1653 13.3947 29.2338 13.3947 29.268C13.4062 29.1995 13.4177 29.1425 13.4291 29.0854C13.4291 29.1425 13.4062 29.1995 13.3947 29.268C13.3947 29.268 13.4177 29.1539 13.4291 29.0854H13.452C13.452 29.0854 13.4177 29.1995 13.3947 29.268C13.3947 29.268 13.3947 29.268 13.3947 29.2794C13.3947 29.2794 13.3947 29.268 13.3947 29.2566H13.3833C13.3833 29.2566 13.3833 29.2908 13.3833 29.3023V29.3365C13.3833 29.3707 13.3718 29.405 13.3604 29.4392H13.1427C13.0625 29.8273 13.1083 29.4392 13.1197 29.3023H13.3833C13.3833 29.3023 13.3833 29.2794 13.3833 29.2566H13.177C13.2687 28.4918 13.2114 28.7201 13.1197 29.2566C13.1197 29.2566 13.0854 29.3593 13.0395 29.6447C13.0625 29.5305 13.0854 29.4164 13.0968 29.2908C13.0739 29.405 13.0625 29.5191 13.0395 29.6447H13.7729C13.5208 29.6903 13.2687 29.7246 13.0281 29.7474C13.0281 29.7132 13.0395 29.6789 13.051 29.6447C13.051 29.6447 13.051 29.7132 13.0281 29.7474C13.0281 29.7018 13.0395 29.6675 13.051 29.6333C13.051 29.5762 13.0395 29.6333 13.0166 29.7474C13.0166 29.7474 12.9937 29.7474 12.9822 29.7474C12.8562 29.7702 12.627 30.9459 12.7072 30.9459H12.8218C12.8218 31.0144 12.8104 31.0601 12.7989 31.1171C12.7989 31.0601 12.8218 31.003 12.8333 30.9459H12.8447C12.8218 31.0829 12.7989 31.1856 12.7875 31.2655C12.7875 31.2655 12.7875 31.3454 12.7875 31.3568C12.7302 31.7677 12.7875 31.5623 12.8218 31.3797C12.8218 31.3454 12.8218 31.3112 12.8218 31.2655H12.8104C12.8104 31.2655 12.8333 31.1514 12.8562 31.0486C12.8562 31.0486 12.8562 30.9802 12.8677 30.9459C13.0968 30.9459 13.326 30.9459 13.5666 30.9459L13.1197 31.003L12.9479 31.0258H12.8562C12.8562 31.1171 12.8333 31.1856 12.8333 31.2541H12.8447C12.8447 31.2541 12.8333 31.3226 12.8218 31.3682C12.8218 31.4596 12.8218 31.4938 12.8333 31.4253L14.1052 31.2541C13.9906 31.5851 13.8531 32.2586 13.9333 32.27C13.9677 32.27 14.0135 32.27 14.0479 32.2814C14.0364 32.3613 14.0364 32.3955 14.0479 32.3613C14.0479 32.3385 14.0479 32.3042 14.0593 32.2814H14.0822C14.0822 32.3042 14.0822 32.327 14.0708 32.3385C14.0708 32.3385 14.0708 32.2928 14.0822 32.2814C14.1625 32.2928 14.2427 32.3042 14.3229 32.3156L14.0708 32.3385C14.0593 32.4184 14.0364 32.4754 14.025 32.5325H14.0708L14.7927 32.4412L15.0677 32.4069C15.251 32.4298 15.4458 32.4526 15.6291 32.4868L14.8729 32.5782L14.1166 32.6695H14.025C14.025 32.6695 14.025 32.7265 14.0135 32.738H14.151L14.426 32.6923L15.526 32.5553L15.8468 32.5211C16.0187 32.5439 16.1791 32.5667 16.351 32.5896C16.0302 32.6352 15.7093 32.6923 15.3885 32.7494L14.6322 32.7836L13.9906 32.8179C13.9906 32.8179 13.9906 32.8635 13.9791 32.8863L14.827 32.8407C14.5406 32.8863 14.2427 32.932 13.9562 32.9777C13.9562 32.9548 13.9677 32.9206 13.9791 32.8863H13.9562C13.9562 32.8863 13.9562 32.9548 13.9333 32.9777C13.7385 33.0119 13.5437 33.0347 13.3604 33.069L12.4666 33.1146L11.0687 33.1945H10.977C10.977 33.1945 10.977 33.1146 10.977 33.0804C10.977 33.1717 10.9541 33.263 10.9427 33.3429V33.4571C10.9427 33.4571 10.9427 33.4571 10.9312 33.4571C10.9312 33.4228 10.9312 33.3772 10.9427 33.3315V33.2858C10.9427 33.2858 10.9312 33.3886 10.9197 33.4456C10.9197 33.4456 10.9198 33.4456 10.9083 33.4456C10.7593 33.537 10.5875 34.6327 10.6447 34.6327C10.6791 34.6327 10.725 34.6327 10.7593 34.6327C10.7593 34.6556 10.7593 34.6784 10.7593 34.7126H10.7822C10.7708 34.8496 10.7593 34.9523 10.7593 35.0094C10.7593 34.9409 10.7708 34.8496 10.7822 34.7583C10.7822 34.7469 10.7822 34.724 10.7822 34.7126C10.7822 34.7126 10.7822 34.667 10.7822 34.6327C11.0229 34.6213 11.2635 34.6099 11.5041 34.5871L10.9197 34.6784L10.7822 34.7012C10.7822 34.7012 10.7822 34.7355 10.7822 34.7469C10.7822 34.8724 10.7822 34.9409 10.7822 34.8724L10.9541 34.8496L11.3093 34.7925L11.9625 34.6898C11.9625 34.6898 11.9625 34.7583 11.9739 34.8268C11.9739 34.7697 11.9739 34.7355 11.9739 34.6898C11.9739 34.6898 11.9739 34.7811 11.9739 34.8496C11.9739 34.8496 11.9739 34.8838 11.9739 34.9067C11.9739 34.9067 11.9625 34.9295 11.951 34.9295C11.951 34.9295 11.951 34.9181 11.951 34.9067C11.951 34.9067 11.951 34.9295 11.951 34.9523C11.8135 35.192 11.7104 36.0938 11.7333 36.0938C11.802 36.0938 11.8593 36.0823 11.9281 36.0709V36.128H11.9395C11.9395 36.128 11.9395 36.0938 11.9395 36.0709H11.951C11.951 36.0709 11.951 36.1052 11.951 36.1166H11.9625V36.0595C12.077 36.0481 12.2031 36.0367 12.3291 36.0139L12.0885 36.0709L11.9625 36.1052C11.9625 36.1737 11.9625 36.2421 11.9625 36.322C11.9739 36.1737 11.9968 35.9682 11.9968 36.265L12.077 36.2421L12.4093 36.1622L12.4895 36.1394C12.4895 36.0823 12.4895 36.0367 12.4895 36.0024C12.4895 36.0024 12.4895 36.0481 12.4895 36.0938C12.4895 36.0938 12.4895 36.1166 12.4895 36.1394C12.4895 36.1394 12.4895 36.2079 12.4895 36.2536C12.4895 36.2193 12.4895 36.1737 12.4895 36.1394H12.5125C12.5125 36.1394 12.5125 36.2079 12.5125 36.2536H12.6385L12.7875 36.2307C12.7072 36.2536 12.627 36.2764 12.5468 36.2992H12.501C12.501 36.2992 12.501 36.3106 12.501 36.322C12.501 36.322 12.4895 36.322 12.4781 36.3335H12.4666C12.4666 36.3449 12.4666 36.3563 12.4666 36.3677C12.4666 36.3677 12.4666 36.3791 12.4552 36.3905V36.3335L12.3406 36.3677L11.9854 36.4476L11.9166 36.4704C11.9166 36.4704 11.9166 36.5161 11.9166 36.5389L12.1687 36.4704L12.4552 36.4019C12.3177 36.6645 12.226 37.5205 12.2489 37.5205C12.3177 37.5205 12.3979 37.5091 12.4666 37.4977C12.4666 37.532 12.4666 37.5434 12.4666 37.5434C12.4666 37.532 12.4666 37.5205 12.4666 37.4977C12.4666 37.4977 12.4666 37.4977 12.4781 37.4977C12.4781 37.4977 12.4781 37.5091 12.4781 37.5205V37.532C12.4781 37.5548 12.4781 37.5776 12.4781 37.6004C12.077 37.6119 11.6875 37.6233 11.2864 37.6461H10.8968L10.7937 37.6689C10.7937 37.6803 10.7937 37.6918 10.7937 37.7032C10.7937 37.7032 10.7937 37.7032 10.7937 37.726H11.0802L11.6531 37.6918C11.8708 37.6918 12.077 37.6803 12.2947 37.6689C11.9625 37.7488 11.6416 37.8401 11.3093 37.92H10.8968L10.7708 37.9429C10.7708 37.9771 10.7708 38.0228 10.7708 38.057H10.8052C10.8052 38.057 10.7822 38.057 10.7708 38.057C10.7708 38.0342 10.7708 37.9999 10.7708 37.9429C10.7708 37.863 10.7708 37.7831 10.7822 37.7032C10.7822 37.7032 10.7593 37.8401 10.7479 38.0456V38.057C10.7479 37.9657 10.7479 37.6233 10.7135 37.9543C10.7135 37.9771 10.7135 38.0228 10.7135 38.0684C10.7135 38.0228 10.7135 37.9885 10.7135 37.9543C10.7135 37.92 10.7135 37.9314 10.6906 38.0798C10.5416 38.194 10.3812 39.2669 10.4385 39.2669C10.5072 39.2669 10.576 39.2669 10.6447 39.2669C10.6447 39.3012 10.6447 39.3354 10.6447 39.3697H10.6562C10.6562 39.3697 10.6562 39.3012 10.6562 39.2669C10.6562 39.2669 10.6562 39.3354 10.6562 39.3697H10.702L10.977 39.2898L11.1375 39.2441C11.4698 39.2441 11.7906 39.2213 12.1114 39.2099H12.077L10.8968 39.518L10.7479 39.5523H10.725C10.725 39.5523 10.725 39.5979 10.725 39.6208L10.9197 39.5751L11.7218 39.3697L12.4093 39.1984C12.6729 39.1984 12.9364 39.1756 13.2 39.1642C12.5354 39.324 11.8593 39.4952 11.1948 39.655C11.0229 39.655 10.851 39.655 10.6906 39.655C10.6906 39.6208 10.6906 39.5865 10.702 39.5637H10.6791C10.6791 39.5637 10.6791 39.6322 10.6791 39.655H10.6562C10.6562 39.655 10.6562 39.7007 10.6562 39.7121C10.6562 39.7121 10.6562 39.7121 10.6677 39.7121C10.6677 39.7349 10.6677 39.7577 10.6677 39.7806C10.6677 39.7692 10.6677 39.7349 10.6677 39.7007C10.6677 39.7235 10.6677 39.7577 10.6677 39.7806C10.4385 39.8376 10.1979 39.8947 9.96871 39.9518H9.751C9.751 39.9518 9.751 39.986 9.751 40.0089C9.751 39.986 9.751 39.9746 9.751 39.9518H9.71662V40.0203C9.71662 40.0203 9.71662 39.9746 9.71662 39.9518C9.71662 39.9518 9.71663 39.9061 9.70517 40.0203C9.6135 40.0431 9.51038 40.4768 9.45308 40.8193H9.43017C9.32704 40.8307 9.04058 41.9835 9.15517 42.0178C9.18954 42.0178 9.22392 42.0178 9.24683 42.0406C9.201 42.189 9.22392 42.1319 9.24683 42.0406C9.24683 42.0406 9.26975 42.0406 9.29267 42.0406C9.23538 42.2575 9.201 42.3602 9.23538 42.2803C9.23538 42.2803 9.26975 42.1433 9.29267 42.0406C9.476 42.0863 9.64787 42.1433 9.83121 42.2004L9.64787 42.2232L9.26975 42.2803H9.23538C9.21246 42.3602 9.21246 42.383 9.23538 42.326L9.36142 42.3031C9.54475 42.2803 9.73954 42.2575 9.92287 42.2232C10.5875 42.4287 11.2406 42.6684 11.8708 42.9309C12.4552 43.182 13.0052 43.4788 13.4979 43.8326C13.75 44.0153 13.9447 44.2321 14.0822 44.5061C14.025 44.5746 13.9333 44.6659 13.7843 44.7914C11.7104 46.5606 7.94058 47.0629 5.51142 48.0445C3.27704 48.9348 1.82183 50.0534 1.43225 52.1651C1.26038 53.101 1.53538 53.9114 1.95933 54.642C2.66975 55.8519 4.68642 57.8037 3.976 59.5159C3.87288 59.7441 3.75829 60.6459 3.80413 60.5431C4.97288 57.701 3.74683 55.8975 2.42913 53.7745C2.07392 53.2038 1.3635 52.1879 1.89058 51.3889C2.37183 50.6584 3.31142 50.1447 4.09058 49.7452C5.80933 48.8549 7.69996 48.3299 9.48746 47.7363C11.5614 47.0515 14.0479 46.4237 14.426 44.1865C14.6093 43.0907 13.7729 42.3488 12.6729 41.8237C12.8218 41.8009 12.9823 41.7781 13.1427 41.7667C13.326 41.858 13.5093 41.9493 13.6812 42.052C14.3114 42.5086 15.2625 42.8624 15.2739 44.2664C15.0104 45.7046 12.4552 47.0857 13.5666 46.4465C14.0822 46.1269 14.8614 45.6475 15.1937 44.6887C15.5833 43.7185 14.9416 42.9423 14.552 42.6227C14.1395 42.2803 13.6927 42.0064 13.2229 41.7667C13.3833 41.7438 13.5552 41.721 13.7156 41.6982L14.8729 41.5384L15.1708 41.5041H15.2395C15.2625 41.3329 15.2854 41.1731 15.3197 41.0476C15.2739 41.3557 15.2395 41.5498 15.2395 41.4471H15.1822L14.9645 41.4813L14.5291 41.5384L13.6812 41.6525C13.4979 41.6753 13.326 41.6982 13.1541 41.721C13.0166 41.6525 12.8677 41.584 12.7187 41.5155C12.7875 41.5155 12.8677 41.4927 12.9364 41.4927L14.277 41.3101L14.976 41.2188L15.1593 41.1959H15.251C15.3312 40.7051 15.1708 41.9036 15.3312 40.8535C15.3427 40.8078 15.3541 40.7508 15.377 40.6937C15.3656 40.8079 15.3427 40.922 15.3312 41.0247C15.3541 40.8992 15.3656 40.7736 15.3885 40.6709C15.4343 40.4654 15.4687 40.2371 15.4916 40.0888L17.7718 39.5295L18.4937 39.3582L18.8604 39.2669L18.9291 39.2441V39.187H18.8604L18.5854 39.2669L17.5083 39.5295C16.8208 39.7007 16.1562 39.8605 15.4802 40.0203V39.986C15.4802 39.9175 15.5031 39.8491 15.5145 39.792C16.1791 39.6322 16.8666 39.4724 17.5541 39.3012L18.5166 39.0729L18.7572 39.0158L18.8718 38.993H18.9291C18.952 38.6962 18.9635 38.4565 18.9864 38.2625C19.0093 38.1712 19.0208 38.0684 19.0322 37.9885C19.0093 38.4109 18.975 38.9359 18.9406 39.2783C18.9406 39.3925 18.9979 38.662 19.0322 37.9885C19.0552 37.8516 19.0552 37.7488 19.0437 37.7146C19.0437 37.6233 19.0437 37.5548 19.0437 37.4977C19.0437 37.5662 19.0437 37.6347 19.0437 37.7146C19.0437 37.7146 19.0437 37.7146 19.0322 37.7146C19.0322 37.6004 19.0322 37.5434 19.0322 37.5091H19.0552V37.4406C18.7916 37.5091 18.5281 37.5776 18.2531 37.6347L17.325 37.6689C17.4395 37.6461 17.5427 37.6119 17.6572 37.589L18.3677 37.4064L18.9062 37.3836H19.0437V37.3493C19.0437 37.3037 19.0437 37.2694 19.0437 37.2238L19.9375 36.9955L21.0833 36.7101V36.5846H21.0145L20.877 36.6416L20.5906 36.7101L19.4677 36.9955C19.3302 37.0297 19.1927 37.064 19.0552 37.0982V37.0526C19.6968 36.8928 20.327 36.733 20.9573 36.5732C21.026 36.5617 21.0947 36.3563 21.1406 36.128C21.1406 36.3563 21.1177 36.5732 21.1177 36.7101C21.1177 36.79 21.1177 36.8585 21.1177 36.9042L20.9802 36.9384L20.6593 37.0183L19.4104 37.3379C19.2843 37.3607 19.1698 37.395 19.0437 37.4292C19.0437 37.4521 19.0437 37.4635 19.0437 37.4977L20.0291 37.2466L20.8885 37.0297L21.1062 36.9841C21.1062 37.6803 21.1291 37.4406 21.152 36.9384C21.152 36.9384 21.152 36.9384 21.152 36.9156C21.152 36.733 21.1635 36.4019 21.175 36.0709C21.175 36.0367 21.1864 36.0024 21.1979 35.9682C21.1979 36.0481 21.1979 36.1394 21.1979 36.2079C21.1979 36.1166 21.1979 36.0253 21.1979 35.9454C21.2208 35.8084 21.2437 35.6828 21.2437 35.5915L21.3927 35.5459C21.3927 35.5459 21.3927 35.5002 21.3927 35.4774L21.2437 35.5116C21.2437 35.4431 21.2437 35.3861 21.2437 35.3861C21.2323 35.3861 21.2093 35.3861 21.1979 35.3861C21.1979 35.3747 21.1979 35.3518 21.1979 35.3404L21.3125 35.3062L21.4729 35.2605C21.4729 34.9637 21.4729 34.7126 21.4729 34.5072C21.4729 34.4729 21.4729 34.4387 21.4843 34.4044C21.4843 34.5642 21.4843 34.7469 21.4843 34.9523C21.4843 34.7925 21.4843 34.5985 21.4958 34.3702C21.5416 34.1191 21.5531 33.8908 21.5416 33.8908C21.5416 33.8908 21.5187 33.8908 21.5072 33.8908C21.5072 33.7538 21.5072 33.6054 21.5072 33.4456H21.4958C21.4958 33.5255 21.4958 33.6739 21.4958 33.8908C21.4958 33.8908 21.4843 33.8908 21.4729 33.8908C21.4729 33.6853 21.4729 33.594 21.4729 33.5598C21.4729 33.5255 21.4729 33.4799 21.4729 33.4456H21.3927L20.4416 33.5484L20.2354 33.5712C20.2354 33.5712 20.2468 33.5141 20.2583 33.4799H20.2239C20.3156 33.1032 20.4875 32.3499 20.5677 31.9047H20.602C20.5333 32.2357 20.4302 32.7151 20.2812 33.4114C20.3843 32.9662 20.5218 32.3385 20.602 31.9047L22.1718 31.7221L23.2947 31.5851L23.8562 31.5166L23.9937 31.4938C23.9135 31.996 23.9135 32.0645 23.9593 31.8819C23.9593 31.8591 23.9593 31.7906 23.9822 31.6764C23.9822 31.7906 24.0395 31.4938 24.1083 31.0829L23.9364 31.1057L22.5156 31.2769L20.6822 31.5052C20.6822 31.5052 20.6593 31.5965 20.6479 31.6536C20.6479 31.5965 20.6708 31.5395 20.6708 31.5052H20.6364C20.6364 31.5052 20.6593 31.4367 20.6708 31.3911C20.6708 31.3911 20.6708 31.3911 20.6937 31.3911C20.6937 31.4139 20.6937 31.4596 20.6822 31.5052C20.6822 31.5052 20.6937 31.4253 20.7052 31.3911C21.8166 31.2541 22.9395 31.1285 24.051 30.9916C24.0854 30.9916 24.1427 30.866 24.177 30.7176C24.177 30.7975 24.1541 30.8774 24.1312 30.9687C24.1541 30.866 24.177 30.7519 24.1885 30.6491C24.1885 30.6035 24.2114 30.5578 24.2229 30.5122C24.1197 31.0829 23.9937 31.6764 23.9479 31.8933C23.9479 32.0074 24.0968 31.2427 24.2229 30.5008C24.2687 30.3067 24.3031 30.1127 24.3145 29.9643C24.3145 29.9186 24.3375 29.8616 24.3375 29.8159C24.3375 29.8159 24.326 29.9072 24.3145 29.9643C24.3145 29.9186 24.3145 29.8844 24.3145 29.8616C24.3145 29.8501 24.3145 29.8273 24.3145 29.8159C24.3145 29.8159 24.3145 29.7817 24.3145 29.7702C24.3145 29.7702 24.326 29.6789 24.3375 29.6447H24.3489C24.3604 29.5534 24.3718 29.4735 24.3833 29.4164L23.9822 29.4735H23.5468H23.0885C23.4093 29.4278 23.7187 29.3936 24.0395 29.3479H24.2H24.3833C24.3833 29.3251 24.3947 29.3137 24.4062 29.3251V29.3023C24.5895 29.2794 24.7843 29.2452 24.9677 29.2224C25.0135 29.2224 25.0708 29.0626 25.1281 28.8571C25.025 29.4735 24.9218 30.0328 25.0135 29.3479L24.8302 29.3707L24.475 29.4164H24.3948C24.3948 29.4849 24.3718 29.5648 24.3604 29.6561L24.601 29.6219L24.9677 29.5762C24.9677 29.5762 24.9562 29.6675 24.9447 29.7018H24.8187L24.4406 29.7702H24.3375C24.3375 29.7702 24.3375 29.8159 24.3375 29.8273C24.3489 29.8273 24.3604 29.8273 24.3718 29.8273L24.9447 29.7474C24.8875 30.1127 24.9104 30.0442 24.9677 29.7702C24.9677 29.7702 24.9791 29.7474 24.9906 29.6903H24.9791C25.0364 29.405 25.1281 28.9598 25.1968 28.5603C25.2197 28.4804 25.2312 28.4119 25.2312 28.3435C25.2312 28.332 25.2312 28.3092 25.2427 28.2978C25.151 28.8799 25.0364 29.4849 24.9906 29.7018H25.002C25.1166 29.0854 25.1854 28.6288 25.2541 28.275C25.3114 28.0581 25.4145 27.7043 25.552 27.1678C25.426 27.6244 25.3343 27.944 25.2656 28.1722C25.2656 28.1494 25.2656 28.138 25.2656 28.1152V28.138C25.2656 28.1608 25.2656 28.1722 25.2656 28.1951C25.2656 28.2065 25.2656 28.2293 25.2541 28.2293C25.2541 28.2521 25.2541 28.2864 25.2427 28.3092C25.2427 28.2864 25.2427 28.2636 25.2427 28.2521C25.2427 28.2521 25.2427 28.2407 25.2427 28.2293C25.2427 28.2065 25.2427 28.1837 25.2427 28.1608C25.2427 28.1608 25.2427 28.138 25.2427 28.1266C25.2541 28.0353 25.277 27.944 25.2885 27.8412C25.2885 27.8412 25.2885 27.8412 25.2885 27.8641C25.2885 27.7842 25.3114 27.7271 25.3114 27.6814C25.3114 27.6814 25.3114 27.67 25.3114 27.6586C25.3114 27.7157 25.3 27.7842 25.2885 27.8412C25.2885 27.8298 25.2885 27.807 25.3 27.7956C25.3 27.7271 25.3229 27.67 25.3343 27.6129C25.4031 27.4075 25.4718 27.1107 25.5062 26.8938C25.5062 26.871 25.5062 26.8482 25.5177 26.8368H25.552C25.4718 27.1678 25.3687 27.5559 25.3 27.7956C25.2885 27.8755 25.2656 27.9896 25.2541 28.0923C25.3343 27.8184 25.4718 27.3048 25.5979 26.8254H25.6208C25.5864 26.9395 25.5635 27.0422 25.5406 27.145C25.5635 27.0536 25.5979 26.9395 25.6322 26.8254H25.7927C25.6552 27.6472 25.7239 27.3847 25.8614 26.7683L25.6437 26.7911C25.6437 26.7911 25.6437 26.7683 25.6552 26.7455H25.7583L25.85 26.734H25.8614C25.9072 26.5286 25.9531 26.3117 25.9989 26.072C25.9416 26.3688 25.8958 26.6085 25.8729 26.7226C25.9187 26.4829 25.9645 26.2661 25.9989 26.072H26.102H26.3885H26.5375V26.1063C26.5375 26.0492 26.5604 25.9921 26.5604 25.9465H26.5947C26.6062 25.878 26.6291 25.8095 26.652 25.7182C26.5718 26.0149 26.7322 25.2045 26.6177 25.6497H26.4687H26.1593H26.102C26.102 25.6497 26.1135 25.5698 26.125 25.5355L26.2395 25.5127C26.4 25.5127 26.5489 25.5127 26.7093 25.5127C26.6979 25.5926 26.675 25.6611 26.6635 25.7296C26.6635 25.6953 26.675 25.6497 26.6979 25.5926C26.6979 25.5698 26.6979 25.5355 26.7208 25.5127C26.7208 25.5127 26.7093 25.5698 26.6979 25.5926C26.6635 25.7638 26.6291 25.8894 26.6062 25.9807C26.6062 26.0264 26.652 25.8209 26.7208 25.5127H26.7322C26.7322 25.5127 26.7666 25.4785 26.7895 25.4328L28.3593 25.1589L28.9552 25.0561L29.1041 25.0333C29.15 24.7708 29.1958 24.5425 29.2416 24.3142H29.826C29.826 24.4512 29.8145 24.5197 29.8145 24.5197C29.8604 24.5197 29.8947 24.5197 29.9291 24.4968C29.9864 25.4328 30.0552 26.1862 30.0208 25.1018L30.3072 25.0561L30.8687 24.9648L32.0031 24.7708C35.0166 24.2686 37.9958 23.7549 40.9406 23.2641C40.7802 24.4512 40.975 23.4353 41.1468 22.3624L41.6052 22.3281L42.3041 22.2825H42.476L42.5218 22.2711C42.877 22.0998 41.777 22.6477 43.3354 21.883L43.3927 21.8145L43.6333 21.552L44.0916 20.9013L44.1375 20.8557L44.5958 20.7872C46.3718 20.5361 48.0677 20.2964 49.7062 20.0567L50.0156 20.011L50.1645 19.9882L51.1614 19.1207L53.5104 18.3902L53.9343 18.356H54.0375C54.026 18.4244 54.0833 18.1048 54.152 17.6939L58.6093 17.4771L58.7583 17.6483Z" fill="#1D1D1B"/>
<path d="M55.6187 59.5729C55.6187 60.1778 55.4812 60.623 55.2062 60.8969C54.9312 61.1709 54.4844 61.3078 53.8656 61.3078H51.6771C51.0583 61.3078 50.6229 61.1709 50.3365 60.8969C50.0615 60.623 49.924 60.1778 49.924 59.5729V56.7878C49.924 56.1714 50.0615 55.7377 50.3365 55.4523C50.6115 55.1784 51.0583 55.0414 51.6771 55.0414H53.8656C54.4729 55.0414 54.9198 55.1784 55.2062 55.4523C55.4812 55.7262 55.6187 56.1714 55.6187 56.7878V59.5729ZM54.0489 56.7878C54.0489 56.4339 53.8771 56.2627 53.5219 56.2627H52.0323C51.6771 56.2627 51.5052 56.4339 51.5052 56.7878V59.5729C51.5052 59.9267 51.6771 60.0979 52.0323 60.0979H53.5219C53.8771 60.0979 54.0489 59.9267 54.0489 59.5729V56.7878Z" fill="#1D1D1B"/>
<path d="M63.4104 59.0478C63.4104 59.6642 63.2729 60.0979 62.9979 60.3833C62.7229 60.6572 62.2761 60.7942 61.6573 60.7942H60.6032V61.3991H59.0334V60.7942H57.9792C57.3604 60.7942 56.925 60.6572 56.6386 60.3833C56.3521 60.1093 56.2261 59.6642 56.2261 59.0478V57.3014C56.2261 56.6965 56.3636 56.2513 56.6386 55.9774C56.9136 55.7034 57.3604 55.5664 57.9792 55.5664H59.0334V54.9501H60.6032V55.5664H61.6573C62.2761 55.5664 62.7115 55.7034 62.9979 55.9774C63.2729 56.2513 63.4104 56.6965 63.4104 57.3014V59.0478ZM57.8073 59.0478C57.8073 59.4016 57.9792 59.5729 58.3344 59.5729H59.125V56.7878H58.3344C57.9792 56.7878 57.8073 56.959 57.8073 57.3128V59.0592V59.0478ZM61.8292 57.3014C61.8292 56.9476 61.6573 56.7764 61.3021 56.7764H60.5115V59.5614H61.3021C61.6573 59.5614 61.8292 59.3902 61.8292 59.0364V57.29V57.3014Z" fill="#1D1D1B"/>
<path d="M69.5292 61.228H67.9594V57.4841L65.8625 61.228H64.201V55.1213H65.7823V58.8652L67.8792 55.1213H69.5406V61.228H69.5292Z" fill="#1D1D1B"/>
<path d="M70.5834 61.228V55.1213H72.1646V60.0067H74.3531V55.1213H75.9229V60.0067H76.5761V62.358H75.0865L74.9948 61.228H70.5719H70.5834Z" fill="#1D1D1B"/>
<path d="M82.6146 61.228H81.0448V57.4841L78.948 61.228H77.2865V55.1213H78.8678V58.8652L80.9646 55.1213H82.6261V61.228H82.6146Z" fill="#1D1D1B"/>
<path d="M84.7687 61.228H83.0614L85.376 55.1213H87.1291L89.4437 61.228H87.7364L87.3468 60.1436H85.1583L84.7687 61.228ZM85.5593 59.0022H86.9572L86.2583 56.9476L85.5593 59.0022Z" fill="#1D1D1B"/>
<path d="M91.3229 60.954C91.0823 61.1937 90.7844 61.3192 90.4406 61.3192C90.0969 61.3192 89.7646 61.285 89.4552 61.2279V60.0522H89.8448C89.9594 60.0522 90.051 60.018 90.1198 59.9381C90.1885 59.8582 90.2344 59.7669 90.2344 59.6642L90.4979 55.1327H95.3562V61.2393H93.7864V56.354H91.9531L91.7354 59.9723C91.701 60.3947 91.575 60.7257 91.3344 60.9654L91.3229 60.954Z" fill="#1D1D1B"/>
<path d="M97.9802 57.2102H100.077C100.684 57.2102 101.131 57.3471 101.406 57.6211C101.681 57.895 101.819 58.3402 101.819 58.9565V59.4816C101.819 60.098 101.681 60.5317 101.406 60.8171C101.131 61.091 100.684 61.228 100.077 61.228H96.3989V55.1213H97.9802V57.2102ZM100.26 58.9565C100.26 58.6027 100.089 58.4315 99.7333 58.4315H97.9802V60.0067H99.7333C100.089 60.0067 100.26 59.8354 100.26 59.4816V58.9565Z" fill="#1D1D1B"/>
<path d="M107.96 61.228H106.391V58.7397H104.202V61.228H102.621V55.1213H104.202V57.5183H106.391V55.1213H107.96V61.228Z" fill="#1D1D1B"/>
<path d="M110.584 57.2102H112.601C113.208 57.2102 113.655 57.3471 113.93 57.6211C114.205 57.895 114.343 58.3402 114.343 58.9565V59.4816C114.343 60.098 114.205 60.5317 113.93 60.8171C113.655 61.1024 113.208 61.228 112.601 61.228H109.015V55.1213H110.596V57.2102H110.584ZM112.773 58.9565C112.773 58.6027 112.601 58.4315 112.246 58.4315H110.584V60.0067H112.246C112.601 60.0067 112.773 59.8354 112.773 59.4816V58.9565ZM116.623 61.228H115.053V55.1213H116.623V61.228Z" fill="#1D1D1B"/>
<path d="M121.447 61.228V57.4841L119.35 61.228H117.688V55.1213H119.27V58.8652L121.367 55.1213H123.028V61.228H121.458H121.447ZM119.866 54.6876C119.109 54.6876 118.731 54.3109 118.731 53.5576V53.295H119.866V53.5119C119.866 53.6032 119.9 53.6717 119.957 53.7288C120.015 53.7859 120.083 53.8201 120.175 53.8201H120.438C120.53 53.8201 120.599 53.7859 120.656 53.7288C120.713 53.6717 120.748 53.6032 120.748 53.5119V53.295H121.882V53.5576C121.882 54.3109 121.504 54.6876 120.748 54.6876H119.877H119.866Z" fill="#1D1D1B"/>
<path d="M132.034 61.228H130.465V57.4841L128.368 61.228H126.706V55.1213H128.288V58.8652L130.384 55.1213H132.046V61.228H132.034Z" fill="#1D1D1B"/>
<path d="M138.428 61.228H136.858V58.7397H134.67V61.228H133.089V55.1213H134.67V57.5183H136.858V55.1213H138.428V61.228Z" fill="#1D1D1B"/>
<path d="M142.45 61.228H140.88V56.3427H139.047V55.1213H144.295V56.3427H142.461V61.228H142.45Z" fill="#1D1D1B"/>
<path d="M149.76 61.228H144.902V55.1213H149.76V56.3427H146.483V57.5183H149.061V58.7397H146.483V60.0067H149.76V61.228Z" fill="#1D1D1B"/>
<path d="M150.459 55.1213H154.137C154.745 55.1213 155.192 55.2583 155.467 55.5323C155.742 55.8062 155.879 56.2514 155.879 56.8677V57.7352C155.879 58.3402 155.742 58.7853 155.467 59.0707C155.192 59.356 154.745 59.4816 154.137 59.4816H152.041V61.228H150.459V55.1213ZM154.309 56.8677C154.309 56.5139 154.137 56.3427 153.782 56.3427H152.029V58.2603H153.782C154.137 58.2603 154.309 58.0891 154.309 57.7352V56.8677Z" fill="#1D1D1B"/>
<path d="M162.021 61.228H160.451V58.7397H158.263V61.228H156.681V55.1213H158.263V57.5183H160.451V55.1213H162.021V61.228Z" fill="#1D1D1B"/>
<path d="M167.922 61.228H163.063V55.1213H167.922V56.3427H164.645V57.5183H167.223V58.7397H164.645V60.0067H167.922V61.228Z" fill="#1D1D1B"/>
<path d="M171.6 61.228H170.03V56.3427H168.197V55.1213H173.445V56.3427H171.611V61.228H171.6Z" fill="#1D1D1B"/>
<path d="M173.273 58.7853V57.564H176.859V58.7853H173.273Z" fill="#1D1D1B"/>
<path d="M182.898 57.8265L181.672 60.0067H180.446L179.22 57.8265V61.228H177.639V55.1213H179.3L181.053 58.3516L182.806 55.1213H184.468V61.228H182.886V57.8265H182.898Z" fill="#1D1D1B"/>
<path d="M186.622 61.228H184.915L187.229 55.1213H188.982L191.297 61.228H189.59L189.2 60.1436H187.011L186.622 61.228ZM187.412 59.0022H188.81L188.111 56.9476L187.412 59.0022Z" fill="#1D1D1B"/>
<path d="M193.314 61.228H191.732V55.1213H196.499V56.3427H193.302V61.228H193.314Z" fill="#1D1D1B"/>
<path d="M197.164 61.228H195.456L197.771 55.1213H199.524L201.839 61.228H200.131L199.742 60.1436H197.553L197.164 61.228ZM197.954 59.0022H199.352L198.653 56.9476L197.954 59.0022Z" fill="#1D1D1B"/>
<path d="M201.93 59.9609C203.42 60.0522 204.474 60.0865 205.081 60.0865C205.219 60.0865 205.322 60.0522 205.402 59.9723C205.482 59.8924 205.517 59.7897 205.517 59.6527V59.2989C205.517 58.9451 205.345 58.7738 204.99 58.7738H202.893V57.5525H204.818C205.173 57.5525 205.345 57.3813 205.345 57.0275V56.8562C205.345 56.5024 205.173 56.3312 204.818 56.3312H202.022V55.1099H205.265C205.837 55.1099 206.261 55.2354 206.525 55.4979C206.789 55.7605 206.926 56.1486 206.926 56.685C206.926 57.0389 206.846 57.3128 206.685 57.5297C206.525 57.7466 206.319 57.8949 206.055 57.9863C206.525 58.1118 206.846 58.4314 207.018 58.9336C207.075 59.1163 207.109 59.3217 207.109 59.5614V59.6527C207.109 60.2235 206.972 60.6458 206.708 60.9083C206.445 61.1708 206.021 61.3078 205.448 61.3078C204.474 61.3078 203.305 61.2507 201.942 61.1366V59.9609H201.93Z" fill="#1D1D1B"/>
<path d="M213.228 61.228H211.658V57.4841L209.561 61.228H207.9V55.1213H209.481V58.8652L211.578 55.1213H213.24V61.228H213.228Z" fill="#1D1D1B"/>
<path d="M219.622 61.228H218.052V58.7397H215.863V61.228H214.282V55.1213H215.863V57.5183H218.052V55.1213H219.622V61.228Z" fill="#1D1D1B"/>
</svg>
