<svg width="24" height="34" viewBox="0 0 24 34" fill="none" xmlns="http://www.w3.org/2000/svg">
<path d="M11.6667 0C5.21667 0 0 5.21667 0 11.6667C0 20.4167 11.6667 33.3333 11.6667 33.3333C11.6667 33.3333 23.3333 20.4167 23.3333 11.6667C23.3333 5.21667 18.1167 0 11.6667 0ZM11.6667 15.8333C10.5616 15.8333 9.50179 15.3943 8.72039 14.6129C7.93899 13.8315 7.5 12.7717 7.5 11.6667C7.5 10.5616 7.93899 9.50179 8.72039 8.72039C9.50179 7.93899 10.5616 7.5 11.6667 7.5C12.7717 7.5 13.8315 7.93899 14.6129 8.72039C15.3943 9.50179 15.8333 10.5616 15.8333 11.6667C15.8333 12.7717 15.3943 13.8315 14.6129 14.6129C13.8315 15.3943 12.7717 15.8333 11.6667 15.8333Z" fill="#EA7600"/>
</svg>
