<svg xmlns="http://www.w3.org/2000/svg" width="636" height="661" viewBox="0 0 636 661" fill="none">
    <path fill-rule="evenodd" clip-rule="evenodd" d="M221.619 562.911C187.152 539.703 138.604 545.805 106.394 519.543C71.171 490.824 47.7889 450.103 31.1918 407.649C12.4522 359.714 -8.9466 307.469 3.91051 257.396C16.7888 207.241 62.645 173.495 100.41 138.074C136.415 104.303 176.112 76.3712 220.255 54.4787C266.864 31.363 320.195 -17.08 366.42 6.14629C421.432 33.7882 411.785 120.083 448.848 169.339C469.502 196.788 505.565 205.802 532.576 226.965C568.121 254.813 623.2 270.261 633.901 314.323C644.285 357.085 607.641 398.19 583.075 434.907C562.052 466.329 533.993 492.191 501.765 511.82C473.66 528.938 434.703 520.465 408.933 540.971C368.924 572.809 365.86 654.284 315.289 660.208C269.904 665.523 259.413 588.361 221.619 562.911Z" fill="#E1F2FF"/>
  </svg>