<svg preserveAspectRatio="none" width="100%" height="100%" overflow="visible" style="display: block;" viewBox="0 0 78 78" fill="none" xmlns="http://www.w3.org/2000/svg">
<g id="Group 2151">
<path id="Subtract" d="M39.4023 2C59.6147 2 75.9999 18.7893 76 39.5C76 60.2108 59.6148 77 39.4023 77C39.2671 77 39.132 76.9956 38.9971 76.9941V2.00488C39.132 2.00338 39.2671 2 39.4023 2Z" fill="var(--fill-0, #5CB9FF)"/>
<g id="_&#195;&#144;&#203;&#156;&#195;&#144;&#194;&#186;&#195;&#144;&#194;&#190;&#195;&#144;&#194;&#189;&#195;&#144;&#194;&#186;&#195;&#144;&#194;&#184;" clip-path="url(#clip0_0_4)">
<path id="Vector" d="M39.0046 76.291C59.5971 76.291 76.2905 59.5975 76.2905 39.0051C76.2905 18.4127 59.5971 1.71924 39.0046 1.71924C18.4122 1.71924 1.71875 18.4127 1.71875 39.0051C1.71875 59.5975 18.4122 76.291 39.0046 76.291Z" stroke="var(--stroke-0, #7C7C7C)" stroke-width="3.31" stroke-linecap="round" stroke-linejoin="round"/>
<path id="Vector_2" d="M39.0021 22.4956V40.0407L30.7578 47.6221" stroke="var(--stroke-0, #7C7C7C)" stroke-width="3" stroke-linecap="round" stroke-linejoin="round"/>
<g id="Group">
<path id="Vector_3" d="M39 11.0405V14.4273" stroke="var(--stroke-0, #7C7C7C)" stroke-width="3" stroke-linecap="round" stroke-linejoin="round"/>
<path id="Vector_4" d="M39 66.9694V63.5723" stroke="var(--stroke-0, #7C7C7C)" stroke-width="3" stroke-linecap="round" stroke-linejoin="round"/>
<path id="Vector_5" d="M11.0391 39.0049H14.4259" stroke="var(--stroke-0, #7C7C7C)" stroke-width="3" stroke-linecap="round" stroke-linejoin="round"/>
<path id="Vector_6" d="M66.9675 39.0049H63.5703" stroke="var(--stroke-0, #7C7C7C)" stroke-width="3" stroke-linecap="round" stroke-linejoin="round"/>
<path id="Vector_7" d="M58.7779 19.2227L56.375 21.6255" stroke="var(--stroke-0, #7C7C7C)" stroke-width="3" stroke-linecap="round" stroke-linejoin="round"/>
<path id="Vector_8" d="M19.2188 58.7769L21.6216 56.374" stroke="var(--stroke-0, #7C7C7C)" stroke-width="3" stroke-linecap="round" stroke-linejoin="round"/>
<path id="Vector_9" d="M19.2188 19.2227L21.6216 21.6255" stroke="var(--stroke-0, #7C7C7C)" stroke-width="3" stroke-linecap="round" stroke-linejoin="round"/>
<path id="Vector_10" d="M58.7779 58.7769L56.375 56.374" stroke="var(--stroke-0, #7C7C7C)" stroke-width="3" stroke-linecap="round" stroke-linejoin="round"/>
</g>
</g>
</g>
<defs>
<clipPath id="clip0_0_4">
<rect width="78" height="78" fill="white"/>
</clipPath>
</defs>
</svg>
