<svg width="58" height="53" viewBox="0 0 58 53" fill="none" xmlns="http://www.w3.org/2000/svg">
<path d="M1.50704 1.5L8.94989 10.2393C9.59648 11.0044 9.95491 11.9872 9.95491 13.019V46.0529C9.95491 49.0642 12.2602 51.5 15.0996 51.5H41.385C44.2244 51.5 46.5296 49.0642 46.5296 46.0529V1.50702H1.5L1.50704 1.5Z" stroke="#5CB9FF" stroke-width="3" stroke-linecap="round" stroke-linejoin="round"/>
<path d="M46.5312 5.78369C51.711 5.78369 55.9069 10.227 55.9069 15.7023V31.068C55.9069 36.5502 51.711 40.9866 46.5312 40.9866" stroke="#5CB9FF" stroke-width="3" stroke-linecap="round" stroke-linejoin="round"/>
<path d="M9.96094 29.7103C9.96094 29.7103 17.3124 24.2632 26.8708 29.7103C36.4291 35.1575 45.2495 27.2886 45.2495 27.2886" stroke="#5CB9FF" stroke-width="3" stroke-linecap="round" stroke-linejoin="round"/>
<path d="M21.1406 33.8981C22.1105 34.0806 23.1296 34.3613 24.1768 34.7685" stroke="#5CB9FF" stroke-width="3" stroke-linecap="round" stroke-linejoin="round"/>
<path d="M30.3359 37.4915C33.8149 38.4321 37.0549 37.8495 39.6132 36.8878" stroke="#5CB9FF" stroke-width="3" stroke-linecap="round" stroke-linejoin="round"/>
<path d="M42.6484 35.4347C44.279 34.48 45.2348 33.6236 45.2348 33.6236" stroke="#5CB9FF" stroke-width="3" stroke-linecap="round" stroke-linejoin="round"/>
</svg>
