<svg width="260" height="80" viewBox="0 0 260 80" fill="none" xmlns="http://www.w3.org/2000/svg">
<path d="M95.4552 30.6867H99.5177C104.609 30.6867 106.993 28.2561 106.993 25.7584C106.993 24.8587 106.803 22.0521 101.711 22.0521H97.2698L95.4687 30.6867H95.4552ZM91.7854 48.6675H96.1729C101.915 48.6675 103.648 45.5387 103.648 43.4169C103.648 42.7724 103.458 42.0741 103.133 41.4967C101.969 39.5764 99.9781 39.5092 98.2312 39.5092H93.6542L91.7854 48.6541M110.662 12.9341C120.724 12.9341 124.069 18.3055 124.069 22.9787C124.069 28.7395 119.356 33.7349 112.91 34.8898L112.843 35.1449C118.381 35.5881 121.09 39.6838 121.09 43.4707C121.09 49.9432 115.023 57.7452 101.806 57.7452H73.5042L82.6583 12.9341H110.635" fill="white"/>
<path d="M142.066 35.7488C141.037 37.79 139.872 43.1077 139.872 45.7934C139.872 48.4791 141.226 48.9357 142.255 48.9357C144.774 48.9357 145.871 46.7602 146.453 45.0951C147.293 42.7854 148.187 39.0791 148.187 36.2591C148.187 35.2922 148.065 33.0497 145.681 33.0497C143.555 33.0497 142.526 34.8491 142.079 35.7354L142.066 35.7488ZM165.466 37.7228C165.466 48.5462 156.257 58.5237 140.779 58.5237C125.301 58.5237 122.606 49.2445 122.606 44.7594C122.606 34.1911 130.921 23.4482 147.482 23.4482C160.821 23.4482 165.466 30.6191 165.466 37.7228Z" fill="white"/>
<path d="M196.083 24.2275C190.978 24.8184 186.293 28.2293 184.41 31.8415H184.153L185.765 24.2275H170.544L163.651 57.7721H179.888L182.406 45.6058C183.774 39.1333 193.416 37.2533 193.416 37.2533L196.07 24.2275H196.083Z" fill="white"/>
<path d="M218.4 37.2532H231.725L234.393 24.2275H221.068L223.113 13.3906L206.917 13.5383L204.818 24.2141H200.444L197.898 37.2398H202.164L200.444 45.4581C200.119 47.0561 199.929 48.5332 199.929 50.1312C199.929 56.1606 205.021 58.5241 211.467 58.5241C216.179 58.5241 219.659 57.5035 221.718 56.8052L223.722 47.1366C221.921 47.5798 220.824 47.7812 219.917 47.7812C218.183 47.7812 216.951 46.8143 216.951 44.8941C216.951 44.3838 217.005 43.8735 217.141 43.3498L218.414 37.2532H218.4Z" fill="white"/>
<path d="M228.313 18.7485V17.5668C228.313 17.1908 228.38 17.1908 228.773 17.1908C229.355 17.1908 229.68 17.3922 229.68 17.9562C229.68 18.6813 229.084 18.7485 228.434 18.7485H228.299H228.313ZM228.313 18.9768C229.545 18.8559 229.355 20.1853 229.856 20.5345C230.059 20.6688 230.303 20.6285 230.52 20.6285H230.777V20.4673C230.384 20.4673 230.29 20.145 230.087 19.7556C229.883 19.3393 229.653 18.8828 229.247 18.8425C229.789 18.8022 230.317 18.4262 230.317 17.8756C230.317 17.1236 229.68 16.9759 228.773 16.9759H227.189V17.137C227.635 17.137 227.649 17.2176 227.649 17.4056V20.1853C227.649 20.3733 227.635 20.4539 227.189 20.4539V20.615H228.759V20.4539C228.326 20.4539 228.313 20.3733 228.313 20.1853V18.9633V18.9768ZM228.773 22.0788C230.791 22.0788 232.118 20.7493 232.118 18.9365C232.118 17.1236 230.804 15.8076 228.786 15.8076C226.769 15.8076 225.523 17.2176 225.523 18.9633C225.523 20.709 226.809 22.0788 228.773 22.0788ZM228.786 16.2105C230.466 16.2105 231.63 17.2848 231.63 18.9365C231.63 20.5882 230.479 21.6893 228.841 21.6893C227.202 21.6893 225.983 20.615 225.983 18.9365C225.983 17.2579 227.148 16.2105 228.773 16.2105H228.786Z" fill="white"/>
<path d="M66.6927 35.9908C66.6927 53.6896 52.2302 68.0313 34.3823 68.0313C16.5344 68.0313 2.0719 53.6762 2.0719 35.9908C2.0719 18.3053 16.5344 3.9502 34.3823 3.9502C52.2302 3.9502 66.6927 18.2919 66.6927 35.9908Z" fill="#EA7600"/>
<path d="M23.928 39.4419C23.9011 39.6165 23.9146 39.603 23.928 39.4822C23.928 39.4822 23.928 39.4553 23.928 39.4419Z" fill="white"/>
<path d="M17.2792 31.3848C17.374 31.5459 17.4688 31.7205 17.5771 31.9085C17.5906 31.9085 17.6042 31.9085 17.6177 31.9085C17.55 31.8279 17.4281 31.6399 17.2927 31.3982L17.2792 31.3848Z" fill="white"/>
<path d="M15.9924 31.2905C15.9924 31.2905 15.952 31.3711 15.9386 31.4114H15.9924C15.9924 31.4114 16.0192 31.3174 16.0192 31.2905H15.9924Z" fill="white"/>
<path d="M13.5282 41.2949L13.0948 41.3621L12.8782 41.4024H12.8646C12.8646 41.4024 12.8646 41.4426 12.8646 41.4695L13.0271 41.4426L13.3386 41.3889L14.1782 41.2546C14.1782 41.2546 14.1782 41.2009 14.1782 41.1875L13.5417 41.2949H13.5282Z" fill="white"/>
<path d="M17.2652 31.3579C17.2652 31.3579 17.2114 31.2773 17.198 31.2505C17.198 31.2505 17.2383 31.3311 17.2652 31.3579Z" fill="white"/>
<path d="M16.1011 31.4116H15.9928C15.9928 31.4116 15.9928 31.4385 15.9928 31.4519H16.1688L16.873 31.4116C17.0084 31.4116 17.1574 31.4116 17.2928 31.3982C17.2928 31.3982 17.2928 31.3713 17.2793 31.3579C16.9001 31.3713 16.5074 31.3982 16.1147 31.4116H16.1011Z" fill="white"/>
<path d="M12.824 41.416H12.8643C12.8777 41.1475 12.8643 41.2549 12.824 41.416Z" fill="white"/>
<path d="M15.1261 36.9175C15.1261 36.9175 15.1261 36.8101 15.153 36.7295C15.153 36.7966 15.1395 36.8503 15.1261 36.9175Z" fill="white"/>
<path d="M31.5514 30.7671C31.5245 30.8879 31.4977 30.9551 31.4842 30.9551C31.4573 31.1431 31.4305 31.2774 31.5514 30.7939C31.5514 30.7939 31.5514 30.7805 31.5514 30.7671Z" fill="white"/>
<path d="M14.2729 28.5243C14.2729 28.5243 14.2729 28.4975 14.2729 28.5646C14.2729 28.6183 14.2864 28.6855 14.2998 28.7392C14.2998 28.6586 14.2998 28.5915 14.2864 28.5243H14.2729Z" fill="white"/>
<path d="M25.079 42.772C25.079 43.0808 25.0656 43.3897 25.0521 43.6314C25.0521 43.5911 25.079 43.2151 25.079 42.772Z" fill="white"/>
<path d="M25.4308 41.8857H25.3771C25.3905 42.114 25.404 42.4363 25.4308 41.8857Z" fill="white"/>
<path d="M25.4313 39.5628H25.4581C25.4581 39.3479 25.4447 39.4285 25.4313 39.5628Z" fill="white"/>
<path d="M25.4312 41.8858C25.4312 41.6709 25.4312 41.4963 25.4312 41.3218C25.4312 41.5769 25.4312 41.7649 25.4177 41.8858H25.4312Z" fill="white"/>
<path d="M14.4761 30.9146C14.5433 31.586 14.597 31.9083 14.5164 30.9951C14.5164 30.9951 14.5164 30.928 14.503 30.8877H14.4761V30.9146Z" fill="white"/>
<path d="M14.1647 43.0271V43.0674H14.1915V42.9331C14.1915 43.0137 14.1781 43.0808 14.1647 43.0271Z" fill="white"/>
<path d="M30.6582 31.7339C30.6582 31.8145 30.6582 31.7742 30.6717 31.6802H30.6448C30.6448 31.6802 30.6448 31.7205 30.6448 31.7339H30.6582Z" fill="white"/>
<path d="M14.8416 42.9065C14.8416 42.8259 14.8416 42.7454 14.8416 42.7051H14.8281C14.8281 42.7051 14.8281 42.8394 14.8281 42.9065H14.8416Z" fill="white"/>
<path d="M14.2592 28.5647C14.2323 28.3633 14.2054 28.2559 14.2592 29.0213H14.2861C14.2726 28.8199 14.2592 28.6587 14.2592 28.5647Z" fill="white"/>
<path d="M25.323 41.9126H25.3633C25.3499 41.7649 25.3364 41.6843 25.323 41.9126Z" fill="white"/>
<path d="M11.6594 46.8811H11.7271H11.8625C12.1469 46.8811 12.4042 46.8811 12.6886 46.8811V46.814C12.3636 46.814 12.0521 46.814 11.7271 46.814H11.6458C11.6458 46.9885 11.6323 47.2571 11.6729 46.8811H11.6594Z" fill="white"/>
<path d="M16.5882 38.6763C16.5479 38.7837 16.5613 38.6763 16.6016 38.4346C16.5747 38.5689 16.5479 38.6763 16.5344 38.7703H16.5747C16.5747 38.7703 16.5882 38.7031 16.6016 38.6629L16.5882 38.6763Z" fill="white"/>
<path d="M12.9862 39.3477C12.9997 39.2269 13.0131 39.1194 13.0266 39.012C13.0534 38.542 12.9997 38.9046 12.9459 39.4686C12.9728 39.2537 12.9862 39.2672 12.9862 39.3477Z" fill="white"/>
<path d="M12.7563 46.6934H12.7832C12.7832 46.4651 12.7832 46.5591 12.7563 46.6934Z" fill="white"/>
<path d="M12.7156 46.4648C12.7156 46.5991 12.7156 46.7066 12.7021 46.814C12.7021 46.7334 12.7021 46.626 12.7156 46.4648Z" fill="white"/>
<path d="M23.9958 39.603C23.9958 39.603 23.9958 39.5493 24.0093 39.5225C24.0093 39.5493 24.0093 39.5762 23.9958 39.603Z" fill="white"/>
<path d="M16.6153 38.22C16.6018 38.2871 16.575 38.3677 16.5615 38.4483H16.6018C16.6153 38.3677 16.6287 38.2871 16.6556 38.2065H16.6287L16.6153 38.22Z" fill="white"/>
<path d="M11.6319 46.8142C11.6319 46.6396 11.6319 46.5456 11.5781 47.1633H11.5916C11.5916 47.0425 11.605 46.9351 11.6184 46.8142H11.6319Z" fill="white"/>
<path d="M22.4114 46.3843C22.3845 46.9886 22.4114 46.8274 22.4383 46.3977C22.4383 46.3977 22.4383 46.3977 22.4383 46.3843H22.4114Z" fill="white"/>
<path d="M25.0112 43.3901H24.9844C24.9844 43.6453 24.9844 43.5916 25.0112 43.3901Z" fill="white"/>
<path d="M13.9209 38.9988L15.6406 38.9048L16.5073 38.8645C16.5073 38.8645 16.5073 38.8242 16.5073 38.7974L14.8552 38.8914L13.6229 38.9585L13.0406 38.9854C13.0406 38.9854 13.0406 39.0256 13.0406 39.0525L13.9073 39.0122L13.9209 38.9988Z" fill="white"/>
<path d="M13.0271 38.9855H13.0674C13.1346 38.2738 13.0943 38.4886 13.0271 39.0123C13.0271 39.0258 13.0271 39.0526 13.0271 39.0795C13.0271 39.0392 13.0271 39.0123 13.0271 38.972V38.9855Z" fill="white"/>
<path d="M28.9385 34.7017C28.9385 34.7017 28.9385 34.7688 28.925 34.8225C28.925 34.7554 28.9385 34.7151 28.9385 34.7017Z" fill="white"/>
<path d="M16.2901 32.3921C16.2767 32.4727 16.2498 32.5801 16.2229 32.7547C16.2498 32.6069 16.2767 32.4861 16.2901 32.3921Z" fill="white"/>
<path d="M14.1781 41.1875C14.1781 41.1875 14.1781 41.0801 14.1781 41.0264C14.1781 41.0264 14.1781 41.0667 14.1647 41.1875H14.1781Z" fill="white"/>
<path d="M12.7561 41.3892C12.7023 41.98 12.7561 41.6443 12.8233 41.416H12.7829C12.7829 41.4832 12.7695 41.4697 12.7695 41.3892H12.7561Z" fill="white"/>
<path d="M28.8842 35.1045C28.8842 35.1045 28.8707 35.1985 28.8573 35.2522C28.8573 35.2522 28.8707 35.1448 28.8842 35.1045Z" fill="white"/>
<path d="M16.3175 32.4457C16.3175 32.4457 16.331 32.3517 16.3444 32.3114C16.3713 32.0965 16.3847 31.9085 16.2906 32.4054C16.3444 32.1502 16.331 32.2845 16.3175 32.4591V32.4457Z" fill="white"/>
<path d="M14.8552 42.906H14.8823V42.8394H14.8552V42.906Z" fill="white"/>
<path d="M28.5863 36.6489C28.5863 36.6489 28.5729 36.7429 28.5594 36.7966C28.5594 36.7966 28.5729 36.7026 28.5863 36.6489Z" fill="white"/>
<path d="M14.1917 41.1877C14.1917 41.1877 14.1917 41.228 14.1917 41.2549H14.2185C14.2185 41.2549 14.2185 41.2012 14.2185 41.1743H14.1917V41.1877Z" fill="white"/>
<path d="M30.4823 31.0894C30.4823 31.0894 30.4823 31.117 30.4823 31.1308H30.4964C30.4964 31.1308 30.4964 31.1032 30.4964 31.0894H30.4823Z" fill="white"/>
<path d="M50.4157 21.2329C50.4157 21.2329 50.4157 21.2195 50.4157 21.206C50.5105 21.206 50.6052 21.206 50.7 21.206C50.6052 21.206 50.5105 21.206 50.4157 21.2195V21.2329ZM42.7511 18.856C42.7511 18.856 42.7782 18.7889 42.7917 18.762C42.9407 18.762 43.0896 18.762 43.225 18.762L47.3823 18.6815L49.1834 18.6412L49.3865 18.9635C47.1521 18.9232 44.9448 18.8963 42.7511 18.856ZM38.9865 27.1146C39.0136 26.9266 39.0136 26.7923 38.9865 26.7923C38.8646 26.7923 38.7292 26.7923 38.6073 26.7923C38.6073 26.6983 38.6073 26.6178 38.6209 26.5238C39.7042 26.564 40.774 26.6043 41.8573 26.6446C40.8959 26.8058 39.9344 26.9669 38.973 27.128L38.9865 27.1146ZM40.273 18.8158C41.1125 18.8023 41.9521 18.7755 42.7917 18.762C42.7917 18.7889 42.7646 18.8158 42.7511 18.856C41.925 18.856 41.099 18.8292 40.273 18.8158ZM36.4136 26.7252C35.9667 26.7252 35.5198 26.7118 35.073 26.6983C35.1 26.5372 35.073 26.5909 35.0323 26.6983C34.2469 26.6849 33.4615 26.658 32.6896 26.6446L30.6042 26.4566L26.9073 26.1209C30.3875 26.2418 33.8813 26.376 37.3615 26.4969L36.4136 26.752V26.7252ZM31.1865 30.7806H31.498C31.498 30.7806 31.4844 30.8478 31.4709 30.888H30.8615C30.8615 30.888 30.8615 30.8612 30.8615 30.8478C30.8615 30.8612 30.8615 30.888 30.8615 30.9015H30.848C30.848 30.9015 30.848 30.888 30.848 30.8746C30.848 30.8478 30.8615 30.8209 30.875 30.794C30.875 30.794 30.875 30.7806 30.875 30.7672C30.875 30.7672 30.875 30.7806 30.875 30.794H31.1865V30.7806ZM30.7396 31.2372C30.7396 31.17 30.7667 31.076 30.7938 30.9686C30.7938 30.9686 30.7938 30.9552 30.8073 30.9283C30.7125 31.3849 30.7261 31.3446 30.7396 31.2238V31.2372ZM30.6448 31.17C30.6448 31.17 30.5907 31.17 30.5636 31.17C30.5636 31.1432 30.5771 31.1163 30.5907 31.076H30.7532C30.7532 31.076 30.7532 31.1163 30.7261 31.1566H30.6448V31.17ZM30.55 31.17H30.523C30.523 31.17 30.523 31.1029 30.5365 31.076H30.5636C30.5636 31.076 30.55 31.1298 30.5365 31.17H30.55ZM30.4011 31.7475H30.374C30.374 31.7475 30.374 31.7206 30.374 31.6938H30.3875C30.3875 31.6938 30.3875 31.7206 30.3875 31.7475H30.4011ZM30.4959 31.1298H30.4823C30.4823 31.1298 30.4823 31.1566 30.4823 31.17C30.4823 31.17 30.4688 31.17 30.4552 31.17C30.4552 31.1432 30.4552 31.1298 30.4688 31.1163L30.3063 31.0895H30.4417L30.4823 31.076H30.523C30.523 31.076 30.523 31.1029 30.523 31.1298H30.4959ZM30.3198 31.7609H30.2657C30.2657 31.7609 30.2657 31.734 30.2657 31.7206H30.3063C30.3063 31.734 30.3063 31.7475 30.3063 31.7743L30.3198 31.7609ZM29.9136 33.1709C29.4125 33.1709 28.925 33.144 28.424 33.144C28.8844 33.1038 29.3313 33.0635 29.7917 33.0098H29.8188H29.9271C29.9542 32.9426 29.9542 33.0098 29.9271 33.1709H29.9136ZM23.9417 39.4823C23.9417 39.4823 23.9282 39.5763 23.9146 39.6166H23.8875L23.6573 39.6569C23.6573 39.6032 23.6573 39.536 23.6573 39.4823L23.9146 39.442C23.9146 39.442 23.9282 39.3078 23.9552 39.2138H23.8469L23.6709 39.2675C23.6709 39.2272 23.6709 39.1869 23.6709 39.1466C23.7386 39.1466 23.8063 39.1198 23.874 39.1198C23.9959 39.0929 24.2396 38.032 24.2261 37.7769H24.2938C24.2261 38.1932 23.9959 39.2003 23.9146 39.4958L23.9417 39.4823ZM23.9011 39.7106L23.6573 39.7375L23.7521 39.7106L23.9011 39.6838V39.7106ZM24.4427 37.5083C24.4427 37.5083 24.4157 37.6158 24.4021 37.6695H24.375C24.375 37.6695 24.4021 37.562 24.4021 37.5083H24.4427ZM26.0948 37.3203L27.8146 37.1189L28.248 37.0652L28.4646 37.0383C28.4646 37.0383 28.4511 37.1458 28.4375 37.1995H28.3292L26.5282 37.4278L24.4021 37.6829C24.4021 37.6829 24.4292 37.562 24.4427 37.5083L26.0948 37.3203ZM23.8875 39.8718C23.8875 39.8718 23.874 39.9523 23.8605 39.9926H23.6438C23.6438 39.9926 23.6438 39.8718 23.6438 39.8046L23.874 39.7778C23.874 39.8583 23.874 39.8852 23.874 39.8718H23.8875ZM23.8334 40.1672C23.8334 40.2478 23.8334 40.2343 23.8469 40.1672L24.2125 40.1269L24.9573 40.0463L25.323 40.006C25.323 40.006 25.323 40.0598 25.323 40.0732C24.7542 40.1269 24.1855 40.194 23.6032 40.2478C23.6032 40.2209 23.6032 40.2075 23.6032 40.1806H23.8063L23.8334 40.1672ZM23.9552 39.7778L25.1875 39.6569H25.3907C25.3907 39.7375 25.3907 39.7912 25.3907 39.818C25.3907 39.8449 25.3907 39.8718 25.3907 39.8986C25.3907 39.8449 25.4042 39.8718 25.4042 40.0732C25.4042 40.0732 25.3771 40.0732 25.3636 40.0732C25.3636 40.0463 25.3636 40.0195 25.3636 39.9926C25.3636 40.0195 25.3636 39.9926 25.35 39.8449H25.2552L24.4969 39.9255L23.9011 39.9792C23.9011 39.9792 23.9417 39.8449 23.9552 39.7643V39.7778ZM25.0927 41.5906C25.0115 41.604 24.9302 41.6309 24.849 41.6578H24.7948L24.4427 41.698H24.2938C24.5646 41.6443 24.8219 41.5772 25.0792 41.4966C25.0792 41.5235 25.0792 41.5503 25.0792 41.5906H25.0927ZM25.1875 41.4698C25.2688 41.4429 25.35 41.1743 25.4177 40.8789C25.4177 41.0669 25.4177 41.2683 25.4177 41.51L25.323 41.5369L25.1334 41.5906C25.1334 41.5906 25.1198 41.5906 25.1063 41.5906V41.4966C25.1063 41.4966 25.1605 41.4966 25.1875 41.4698ZM25.0927 41.8055C25.0927 41.8055 25.0792 41.8055 25.0657 41.8055V41.7518H25.0927V41.8055ZM24.7542 41.8323L24.8625 41.8055L25.0115 41.7652H25.0657C25.0657 41.7652 25.0657 41.792 25.0657 41.8055C24.9709 41.8055 24.8625 41.8189 24.7542 41.8323ZM23.6302 40.1806C23.6302 40.1806 23.6302 40.2209 23.6302 40.2478C23.6302 40.2209 23.6302 40.194 23.6302 40.1806ZM23.6438 39.6435C23.6438 39.6435 23.6438 39.536 23.6438 39.4958C23.6438 39.4958 23.6438 39.4823 23.6438 39.4689H23.6573C23.6573 39.4689 23.6573 39.5763 23.6573 39.6435H23.6302H23.6438ZM23.6438 39.724H23.6573H23.6302H23.6438ZM23.6438 39.8046H23.6573C23.6573 39.8718 23.6573 39.9389 23.6438 40.006H23.6302C23.6302 39.9389 23.6302 39.8718 23.6302 39.8046H23.6438ZM23.6032 39.8046H23.6302C23.6302 39.8046 23.6302 39.9389 23.6302 40.006H23.5625C23.5625 40.006 23.6032 39.8852 23.6167 39.8046H23.6032ZM23.7115 39.254C23.7115 39.254 23.7115 39.2943 23.7115 39.3212C23.7115 39.3078 23.7115 39.2809 23.7115 39.254ZM23.6167 40.1806C23.6167 40.1806 23.6167 40.2209 23.6167 40.2478C23.5625 40.2478 23.5084 40.2478 23.4542 40.2612C23.4542 40.2478 23.4813 40.2209 23.4948 40.194H23.6167V40.1806ZM23.6167 37.6023L24.1042 37.5486L24.3615 37.5889C24.3615 37.5889 24.375 37.5755 24.3615 37.6829H24.2532C24.0365 37.6695 23.8198 37.6292 23.6032 37.6023H23.6167ZM22.574 43.9809C22.574 43.9809 22.574 44.048 22.574 44.0749H22.3573H22.1407L22.574 43.9675V43.9809ZM21.4636 44.1152H21.1927C21.6532 44.0078 22.1271 43.8869 22.5875 43.766C22.5875 43.7929 22.5875 43.8063 22.5875 43.8332C22.2084 43.9272 21.8427 44.0212 21.4771 44.1152H21.4636ZM21.1115 44.5852C21.1115 44.5852 21.0844 44.5852 21.0709 44.5852C20.7052 44.5986 20.3261 44.612 19.9605 44.6255C19.974 44.6255 19.9875 44.6255 20.0146 44.6255C20.3938 44.612 20.7459 44.5986 21.125 44.5852H21.1115ZM21.4636 44.5718C21.599 44.5718 21.748 44.5718 21.8698 44.5583L22.425 44.5315H22.4927C22.1271 44.5449 21.775 44.5583 21.4094 44.5718H21.45H21.4636ZM22.5605 44.3032C22.5605 44.3032 22.5605 44.3703 22.5469 44.4106C22.5469 44.4106 22.5469 44.4509 22.5469 44.5449H22.5198C22.5198 44.5449 22.5334 44.4643 22.5469 44.4106C22.5469 44.4106 22.5469 44.4778 22.5198 44.5449C22.5198 44.5449 22.5198 44.4912 22.5198 44.424H22.0052L22.5605 44.3032ZM22.2625 45.9415C22.3438 45.9146 22.4386 45.6192 22.5063 45.2969C22.5063 45.4715 22.4792 45.6729 22.4657 45.9146L22.3302 45.9415L22.0594 46.0086L20.9625 46.2772L18.8094 46.7875C18.6875 46.8143 18.5657 46.8412 18.4438 46.8815C18.4438 46.8815 18.4438 46.868 18.4438 46.8546C19.7167 46.5458 20.9896 46.2369 22.2625 45.928V45.9415ZM18.3761 47.2172C18.3761 47.2172 18.3761 47.1903 18.3625 47.1903C18.3625 47.1903 18.3625 47.1635 18.3625 47.1366H18.3084H17.9292C18.0917 47.0963 18.2407 47.056 18.4032 47.0158C18.4032 47.0829 18.3896 47.15 18.3761 47.2172ZM18.1323 48.4526C18.1323 48.4526 18.1323 48.5063 18.1188 48.5735H18.0646C18.0646 48.5735 18.1188 48.5198 18.1323 48.4526ZM18.1865 48.2915C18.0646 49.0838 18.1459 48.466 18.1323 48.4526C18.1459 48.4123 18.173 48.3586 18.1865 48.2915ZM17.4011 47.1366C17.7261 47.056 18.0511 46.9755 18.3761 46.8949C18.3761 46.8949 18.3761 46.8949 18.3761 46.9218C18.3761 46.9218 18.3761 46.9218 18.3896 46.9218C18.3896 46.9218 18.3896 46.9083 18.3896 46.8949H18.4167C18.4167 46.8949 18.4167 46.9083 18.4167 46.9218C18.4167 46.9218 18.3896 46.9218 18.3761 46.9218C18.3761 46.9755 18.3625 47.0023 18.3625 46.9218C18.0646 46.9889 17.7802 47.056 17.4959 47.1366H17.4011ZM17.049 36.6758H17.0219H17.0084H16.9677C16.9677 36.6758 16.873 36.7026 16.8188 36.7026C16.7917 36.7026 16.7646 36.7698 16.724 36.8503L15.5459 37.0115L15.3292 37.0383H15.2073C15.2073 37.0383 15.2209 36.9309 15.2344 36.8906H15.3563L16.223 36.7563L16.9542 36.6623C16.9542 36.6623 16.9813 36.5818 16.9948 36.5415C16.9948 36.5415 17.0084 36.5415 17.0219 36.5415C17.0219 36.5818 17.0084 36.622 16.9948 36.6623H17.0084C17.0084 36.6623 17.0084 36.6086 17.0219 36.5952H17.049C17.049 36.5952 17.049 36.6355 17.0355 36.6623L17.2657 36.6355H17.3063H17.3198C17.225 36.6355 17.1302 36.6623 17.0355 36.6758H17.049ZM16.1282 34.7286H16.0063L16.1823 34.7152L16.6021 34.6749L17.4552 34.5943H17.5365H18.8636L17.8209 34.6883L17.3334 34.7286H16.1417H16.1282ZM15.9657 34.4466C15.9657 34.366 15.9792 34.3258 15.9792 34.2989C16.399 34.2989 16.8323 34.3123 17.2521 34.3258L16.8865 34.3526L16.0605 34.4198H15.9521L15.9657 34.4466ZM15.8438 34.8763C15.8438 34.8763 15.8438 34.7823 15.8709 34.7286C15.8709 34.7286 15.8573 34.836 15.8573 34.8763H15.8438ZM15.898 34.5675C15.898 34.5675 15.8844 34.6749 15.8709 34.7152C15.8709 34.7152 15.8844 34.6212 15.898 34.5675ZM19.3375 44.6523C19.3375 44.6523 19.2969 44.6523 19.2834 44.6658C19.2021 44.6658 19.1073 44.6658 19.0261 44.6658C19.0396 44.6658 19.0667 44.6658 19.0802 44.6658C19.1615 44.6658 19.2563 44.6658 19.3375 44.6658V44.6523ZM18.6469 32.1638V32.0295C19.798 31.9355 20.949 31.8415 22.1 31.7475C22.2761 31.7743 22.4386 31.8012 22.6011 31.828C22.0323 31.8818 21.45 31.922 20.8677 31.9758L18.9855 32.1369H18.7417L18.6334 32.1638H18.6469ZM18.5927 32.298C18.5927 32.298 18.5927 32.1906 18.5927 32.0429H18.6334C18.6334 32.0429 18.6334 32.2443 18.6198 32.298H18.5927ZM19.9334 26.0269L19.7844 26.2015C19.7167 26.2418 19.649 26.2686 19.5677 26.3089L20.0011 25.812C20.0011 25.812 20.0823 25.812 20.1094 25.812L19.9334 26.0135V26.0269ZM18.498 31.264V31.17C18.498 31.17 18.498 31.2238 18.498 31.264ZM17.9563 31.2909C17.8073 31.2909 17.6719 31.2909 17.523 31.3043C17.5094 31.2775 17.4959 31.2506 17.4823 31.2238C17.55 31.2238 17.6177 31.1969 17.6719 31.1835L18.3625 31.1566C18.3625 31.1566 18.4302 31.1566 18.4573 31.17L17.9698 31.2909H17.9563ZM17.5907 31.3849C17.5907 31.3849 17.5907 31.3983 17.55 31.3446C17.6313 31.3446 17.7125 31.3446 17.7938 31.3446L17.6042 31.3849H17.5907ZM18.0375 29.0349L17.9969 29.0886H17.9427L18.0375 29.0349ZM21.8834 26.3089C21.8834 26.3089 21.8834 26.3089 21.8969 26.3223C21.8969 26.3223 21.8969 26.3223 21.8969 26.3089H21.8834ZM21.0438 28.8603C21.2605 28.8603 21.4771 28.8603 21.7073 28.8469C21.4636 28.914 21.2198 28.9678 20.9896 29.0349C21.0032 28.9946 21.0167 28.9409 21.0438 28.8603ZM21.1927 27.5175L21.3011 27.4638C21.274 27.6115 21.274 27.7189 21.3011 27.7323C21.3011 27.7323 21.3011 27.7323 21.3146 27.7323C21.2469 27.9606 21.1792 28.1755 21.125 28.3635L19.8792 28.3903C19.974 28.2829 20.0823 28.162 20.1907 28.0412L21.1657 27.5309L21.1927 27.5175ZM21.3282 27.316C21.3282 27.316 21.3282 27.3966 21.3146 27.4235L20.3532 27.9203L20.2719 27.9606C20.2719 27.9606 20.3802 27.8398 20.4344 27.786L21.3282 27.316ZM21.0167 28.8603C21.0032 28.9275 20.9896 28.9946 20.9761 29.0349C20.4209 29.0349 19.8657 29.0483 19.3105 29.0618C19.3646 29.008 19.4052 28.9543 19.4594 28.8872C19.974 28.8872 20.4886 28.8738 21.0167 28.8603ZM20.0552 28.4978C19.974 28.4978 19.8927 28.4978 19.798 28.4978C19.825 28.4575 19.8657 28.4306 19.8927 28.3903C20.3125 28.3903 20.7323 28.3903 21.1521 28.3635C21.1521 28.4038 21.1386 28.4306 21.125 28.4709C20.773 28.4709 20.4073 28.4709 20.0552 28.4843V28.4978ZM24.3073 37.1458H24.4563C24.4563 37.1458 24.4563 37.2263 24.4563 37.2532L24.1042 37.2935L23.6032 37.2263C23.8469 37.1995 24.0771 37.1726 24.3209 37.1458H24.3073ZM30.4823 23.0458C29.8594 23.0458 29.223 23.0592 28.6 23.0726C25.4177 23.1263 22.2355 23.3278 19.0261 23.5829L15.1125 23.4352L13.948 23.3949L13.3657 23.368C13.3657 23.368 13.3657 23.3278 13.3792 23.2875H13.5959H13.975H14.7198C18.6334 23.2203 21.9917 23.1666 24.7271 23.1129M18.2948 18.4398H18.2542C18.2136 18.9232 18.2271 18.6412 18.2542 18.3995C19.2563 18.386 20.2584 18.3726 21.274 18.3592C21.1115 18.3995 20.9625 18.4398 20.8 18.4935L18.7959 18.4666H18.4709H18.3084L18.2948 18.4398ZM28.3292 35.1315L28.6136 35.0912H28.7625C28.7625 35.1583 28.7625 35.1986 28.7625 35.212H28.7219C28.3834 35.212 28.0448 35.212 27.7063 35.212L28.3292 35.1315ZM28.8167 35.0643H28.8438C28.8438 35.0643 28.8438 35.1449 28.8302 35.1986H28.7761C28.7761 35.1986 28.8032 35.118 28.8167 35.0643ZM15.5323 49.2583C15.3427 49.2852 15.1667 49.312 14.9771 49.3389C14.8011 49.2583 14.6115 49.1778 14.4355 49.1106C14.625 49.0838 14.8282 49.0569 15.0177 49.03C15.1938 49.1106 15.3563 49.1912 15.5323 49.2718V49.2583ZM14.9636 44.236L14.8959 44.2629V44.236C14.8959 44.236 15.0313 44.2226 15.099 44.2226L14.9771 44.2495L14.9636 44.236ZM14.8959 42.638C14.8959 42.638 14.8959 42.544 14.8959 42.5038C14.8959 42.5038 14.9094 42.5038 14.9365 42.5038C14.9365 42.544 14.9365 42.5843 14.9365 42.638H14.9094H14.8959ZM14.273 41.134L14.3677 41.1072L14.598 41.0803L14.273 41.134ZM14.3271 40.8118H14.3542C14.3542 40.9192 14.3407 40.8923 14.3271 40.8118ZM16.8052 52.4409C16.8323 52.3603 16.8594 52.3603 16.8052 52.4409V52.4409ZM12.7427 46.9218C12.7427 46.9218 12.7427 46.868 12.7563 46.8412C12.8646 46.8412 12.973 46.8412 13.0948 46.8412C12.9865 46.868 12.8646 46.8949 12.7427 46.9218ZM14.2459 40.946C14.2459 40.946 14.2459 40.8655 14.2459 40.8252C14.2459 40.8252 14.2459 40.9058 14.2459 40.946ZM13.0407 39.5092C13.0407 39.5092 13.0407 39.4555 13.0542 39.4152H13.149L13.5552 39.3883L13.9073 39.3615C13.6094 39.4152 13.325 39.4555 13.0271 39.5092H13.0407ZM16.0605 30.9418C16.0875 30.8612 16.1011 30.8209 16.1011 30.794C16.3313 30.8343 16.5615 30.8612 16.7917 30.9015L16.0605 30.9418ZM16.9948 28.9409C17.0761 28.9409 17.1438 28.9409 17.2115 28.9409L17.1844 28.9812L16.9948 28.9543V28.9409ZM69.4417 20.7629L69.5771 20.0243L64.3636 19.9706C64.4584 19.4335 64.4584 19.2455 64.4584 19.2455H64.2146L63.2667 19.232C60.8021 19.1918 62.2511 19.138 60.5448 19.1112H60.4636C59.1907 18.198 59.4209 18.01 59.0552 17.7683H59.0146H58.6761L57.349 17.8086C55.5886 17.8623 53.9094 17.916 52.298 17.9563H51.7292L51.35 17.3923L51.1198 16.694V16.6672C51.7157 16.9626 50.2532 16.2375 50.3886 16.3046H50.3209H50.1855H49.9146L49.373 16.318L48.3032 16.3449L46.2448 16.3852C43.5636 16.4389 41.1261 16.4792 38.9323 16.5329C37.2261 16.5598 35.6688 16.6 34.2334 16.6269C33.8813 16.4926 33.5427 16.3449 33.1907 16.2106C32.9198 16.1032 31.999 15.4989 31.6469 15.5929C30.1573 15.9823 28.6813 16.3852 27.2052 16.7746C20.0552 16.9223 18.6875 16.9626 18.6875 16.9626L18.6198 16.9895C17.4552 16.9895 16.2771 17.0163 15.1125 17.0298C14.9907 17.0298 14.6792 18.4398 14.7875 18.4398C15.9386 18.4129 17.0896 18.3995 18.2407 18.386C18.2271 18.5472 18.2 18.7889 18.173 19.1649C18.1188 19.1783 18.0646 19.1918 18.0105 19.2052C18.0105 19.2052 17.9698 19.232 17.9563 19.2589L0.473999 19.9169H17.7532C17.7261 20.1049 17.699 20.2795 17.6855 20.4003C16.9813 20.454 16.2771 20.4943 15.6 20.548L14.0292 20.6555H13.9344H13.8802C13.9073 20.4809 13.8396 20.8569 13.7313 21.4075C13.5959 21.7566 13.4334 22.5758 13.5011 22.6563C13.4469 22.9115 13.4063 23.1532 13.3657 23.3412H13.0813L12.9459 23.3278C12.6886 24.4155 13.2032 21.676 12.675 24.0798C12.648 24.0798 12.6073 24.0798 12.5667 24.0798C12.4313 24.0798 12.1334 25.4763 12.2417 25.4898C12.2823 25.4898 12.323 25.4898 12.3636 25.4898C12.323 25.7315 12.2688 25.9732 12.2011 26.2418L14.5573 26.0403C15.9115 25.9329 17.2521 25.812 18.5927 25.7046C19.0532 25.718 19.5136 25.7449 19.9605 25.7583L19.5 26.282C18.1459 26.9803 16.8052 27.692 15.4511 28.3903H14.3407C14.2188 27.5309 14.2188 27.7995 14.273 28.4306H14.449H15.1667L15.3834 28.4172C15.3157 28.444 15.248 28.4843 15.1802 28.5112C14.923 28.5112 14.6386 28.5112 14.3813 28.5246H14.3C14.3136 28.8066 14.3 28.7529 14.3 28.632C14.3 28.7126 14.3 28.8066 14.3271 28.9006H14.4625C14.4625 28.9006 14.3813 28.9409 14.3407 28.9678C14.3407 28.9409 14.3407 28.914 14.3407 28.9006H14.3271C14.3271 28.9006 14.3271 28.9543 14.3271 28.9678C14.3271 28.9678 14.3136 28.9678 14.3 28.9678C14.3 28.9409 14.3 28.914 14.3 28.8872H14.1917C14.1917 28.8872 14.1782 28.8872 14.1917 29.0349C14.1782 29.0349 14.1646 29.0483 14.1511 29.0618C13.9615 29.1558 13.7448 30.4718 13.8261 30.4718C14.0021 30.4718 14.1646 30.4718 14.3407 30.4718C14.3813 30.8746 14.4219 31.0492 14.3677 30.4718H14.3813C14.3813 30.4718 14.4084 30.4718 14.4355 30.4718C14.4355 30.5926 14.449 30.7135 14.4625 30.8343L14.5032 30.8075C14.5032 30.7 14.4761 30.5926 14.4625 30.4718H14.4896C14.5032 30.606 14.5167 30.7135 14.5302 30.794L14.625 30.7538L14.95 30.5792L15.1667 30.4718C15.2344 30.4718 15.3021 30.4718 15.3698 30.4718L14.9636 30.6866L14.6115 30.8612L14.5302 30.9015C14.5302 30.9686 14.5573 30.982 14.5573 30.9015L14.7198 30.8209L15.0584 30.6463L15.3969 30.4718C15.5594 30.4718 15.7219 30.4718 15.8844 30.4718C15.8709 30.6195 15.8709 30.7135 15.898 30.7135C15.9115 30.7135 15.925 30.7135 15.9521 30.7135C15.925 30.8075 15.925 30.8343 15.9657 30.7269C15.8302 31.2372 15.9115 30.9955 15.9657 30.8343C15.9657 30.794 15.9792 30.7672 15.9927 30.7269C15.9927 30.7269 15.9792 30.794 15.9657 30.8075C15.9657 30.7806 15.9792 30.7538 15.9927 30.7269C15.9927 30.7538 15.9657 30.7806 15.9521 30.8209C15.925 30.9418 15.8844 31.0626 15.8438 31.1969C15.6542 31.8683 15.7761 31.5729 15.8709 31.3178H15.8302C15.7896 31.4118 15.8032 31.3446 15.8438 31.1969H15.925C15.9657 31.1029 15.9927 31.0626 15.9521 31.1969H16.0198L16.4261 31.17L17.1302 31.1432H17.1709C17.1709 31.1432 17.2115 31.2238 17.2386 31.2506H17.198C17.198 31.2506 17.198 31.2775 17.2115 31.2909H17.2521C17.4011 31.546 17.4959 31.7072 17.55 31.8012C17.5771 31.8415 17.5907 31.8549 17.6042 31.8549C17.6584 31.9355 17.6313 31.8952 17.6042 31.8146L17.7802 31.7743L18.1459 31.6803L18.4302 31.6132C18.4302 31.6132 18.4302 31.5998 18.4302 31.5863C18.1459 31.6535 17.875 31.734 17.5907 31.8012C17.5094 31.64 17.374 31.358 17.5907 31.7206L17.7532 31.6803L18.4438 31.5058C18.4438 31.4252 18.4438 31.3312 18.4438 31.2372C18.4438 31.3312 18.4438 31.4118 18.4438 31.4923V31.5863V31.6132C18.4438 31.6938 18.4438 31.7743 18.4438 31.8549C18.4438 31.9623 18.4438 32.0966 18.4438 32.2309V32.2846C18.4438 32.2846 18.4438 32.3786 18.4438 32.4189C18.4438 32.4189 18.4438 32.5129 18.4438 32.58V32.6069C18.4438 32.5532 18.4438 32.4995 18.4438 32.4189L16.2907 32.3786C16.2907 32.3786 16.3042 32.298 16.3177 32.2443H16.4261H16.8594H17.7125L18.4438 32.2712V32.2309L17.225 32.204H16.5344L16.3584 32.1906C16.5209 31.264 16.4396 31.5595 16.2907 32.2175C16.2771 32.3652 16.25 32.5263 16.2907 32.4458C16.223 32.7143 16.25 32.5263 16.2771 32.3518C16.2636 32.4458 16.2365 32.5532 16.2094 32.6606H16.3584H16.7646C17.0084 32.6606 17.2657 32.6606 17.523 32.674C17.0761 32.7143 16.6292 32.7546 16.1823 32.7949C16.1823 32.7412 16.1959 32.6875 16.2094 32.6472H16.1823C16.1823 32.6472 16.1688 32.7412 16.1552 32.7949C16.1552 32.7949 16.1688 32.6875 16.1823 32.6472H16.1552C16.1552 32.6472 16.1417 32.7546 16.1282 32.8083C16.1282 32.8083 16.1011 32.8083 16.0875 32.8083C15.9521 32.8083 15.6677 34.2183 15.7625 34.2183H15.8573C15.8438 34.3123 15.8302 34.3929 15.8302 34.4332C15.8438 34.3526 15.8573 34.2855 15.8709 34.2183C15.8709 34.2855 15.8438 34.3526 15.8302 34.4332C15.8302 34.4332 15.8573 34.2989 15.8709 34.2183H15.898C15.898 34.2183 15.8573 34.3526 15.8302 34.4332C15.8302 34.4332 15.8302 34.4332 15.8302 34.4466C15.8302 34.4466 15.8302 34.4332 15.8302 34.4198H15.8167C15.8167 34.4198 15.8167 34.46 15.8167 34.4735V34.5138C15.8167 34.554 15.8032 34.5943 15.7896 34.6346H15.5323C15.4375 35.0912 15.4917 34.6346 15.5052 34.4735H15.8167C15.8167 34.4735 15.8167 34.4466 15.8167 34.4198H15.573C15.6813 33.52 15.6136 33.7886 15.5052 34.4198C15.5052 34.4198 15.4646 34.5406 15.4105 34.8763C15.4375 34.742 15.4646 34.6078 15.4782 34.46C15.4511 34.5943 15.4375 34.7286 15.4105 34.8763H16.2771C15.9792 34.93 15.6813 34.9703 15.3969 34.9972C15.3969 34.9569 15.4105 34.9166 15.424 34.8763C15.424 34.8763 15.424 34.9569 15.3969 34.9972C15.3969 34.9435 15.4105 34.9032 15.424 34.8629C15.424 34.7958 15.4105 34.8629 15.3834 34.9972C15.3834 34.9972 15.3563 34.9972 15.3427 34.9972C15.1938 35.024 14.923 36.4072 15.0177 36.4072H15.1532C15.1532 36.4878 15.1396 36.5415 15.1261 36.6086C15.1261 36.5415 15.1532 36.4743 15.1667 36.4072H15.1802C15.1532 36.5683 15.1261 36.6892 15.1125 36.7832C15.1125 36.7832 15.1125 36.8772 15.1125 36.8906C15.0448 37.374 15.1125 37.1323 15.1532 36.9175C15.1532 36.8772 15.1532 36.8369 15.1532 36.7832H15.1396C15.1396 36.7832 15.1667 36.6489 15.1938 36.528C15.1938 36.528 15.1938 36.4475 15.2073 36.4072C15.4782 36.4072 15.749 36.4072 16.0334 36.4072L15.5052 36.4743L15.3021 36.5012H15.1938C15.1938 36.6086 15.1667 36.6892 15.1667 36.7698H15.1802C15.1802 36.7698 15.1667 36.8503 15.1532 36.904C15.1532 37.0115 15.1532 37.0518 15.1667 36.9712L16.6698 36.7698C16.5344 37.1592 16.3719 37.9515 16.4667 37.9649C16.5073 37.9649 16.5615 37.9649 16.6021 37.9783C16.5886 38.0723 16.5886 38.1126 16.6021 38.0723C16.6021 38.0455 16.6021 38.0052 16.6157 37.9783H16.6427C16.6427 38.0052 16.6427 38.032 16.6292 38.0455C16.6292 38.0455 16.6292 37.9918 16.6427 37.9783C16.7375 37.9918 16.8323 38.0052 16.9271 38.0186L16.6292 38.0455C16.6157 38.1395 16.5886 38.2066 16.575 38.2738H16.6292L17.4823 38.1663L17.8073 38.126C18.024 38.1529 18.2542 38.1798 18.4709 38.22L17.5771 38.3275L16.6834 38.4349H16.575C16.575 38.4349 16.575 38.502 16.5615 38.5155H16.724L17.049 38.4618L18.349 38.3006L18.7282 38.2603C18.9313 38.2872 19.1209 38.314 19.324 38.3409C18.9448 38.3946 18.5657 38.4618 18.1865 38.5289L17.2927 38.5692L16.5344 38.6095C16.5344 38.6095 16.5344 38.6632 16.5209 38.69L17.523 38.6363C17.1844 38.69 16.8323 38.7438 16.4938 38.7975C16.4938 38.7706 16.5073 38.7303 16.5209 38.69H16.4938C16.4938 38.69 16.4938 38.7706 16.4667 38.7975C16.2365 38.8378 16.0063 38.8646 15.7896 38.9049L14.7334 38.9586L13.0813 39.0526H12.973C12.973 39.0526 12.973 38.9586 12.973 38.9183C12.973 39.0258 12.9459 39.1332 12.9323 39.2272V39.3615C12.9323 39.3615 12.9323 39.3615 12.9188 39.3615C12.9188 39.3212 12.9188 39.2675 12.9323 39.2138V39.16C12.9323 39.16 12.9188 39.2809 12.9052 39.348C12.9052 39.348 12.9052 39.348 12.8917 39.348C12.7157 39.4555 12.5125 40.7446 12.5802 40.7446C12.6209 40.7446 12.675 40.7446 12.7157 40.7446C12.7157 40.7715 12.7157 40.7983 12.7157 40.8386H12.7427C12.7292 40.9998 12.7157 41.1206 12.7157 41.1878C12.7157 41.1072 12.7292 40.9998 12.7427 40.8923C12.7427 40.8789 12.7427 40.852 12.7427 40.8386C12.7427 40.8386 12.7427 40.7849 12.7427 40.7446C13.0271 40.7312 13.3115 40.7178 13.5959 40.6909L12.9052 40.7983L12.7427 40.8252C12.7427 40.8252 12.7427 40.8655 12.7427 40.8789C12.7427 41.0266 12.7427 41.1072 12.7427 41.0266L12.9459 40.9998L13.3657 40.9326L14.1375 40.8118C14.1375 40.8118 14.1375 40.8923 14.1511 40.9729C14.1511 40.9058 14.1511 40.8655 14.1511 40.8118C14.1511 40.8118 14.1511 40.9192 14.1511 40.9998C14.1511 40.9998 14.1511 41.04 14.1511 41.0669C14.1511 41.0669 14.1375 41.0938 14.124 41.0938C14.124 41.0938 14.124 41.0803 14.124 41.0669C14.124 41.0669 14.124 41.0938 14.124 41.1206C13.9615 41.4026 13.8396 42.4635 13.8667 42.4635C13.948 42.4635 14.0157 42.45 14.0969 42.4366V42.5038H14.1105C14.1105 42.5038 14.1105 42.4635 14.1105 42.4366H14.124C14.124 42.4366 14.124 42.4769 14.124 42.4903H14.1375V42.4232C14.273 42.4098 14.4219 42.3963 14.5709 42.3695L14.2865 42.4366L14.1375 42.4769C14.1375 42.5575 14.1375 42.638 14.1375 42.732C14.1511 42.5575 14.1782 42.3158 14.1782 42.6649L14.273 42.638L14.6657 42.544L14.7605 42.5172C14.7605 42.45 14.7605 42.3963 14.7605 42.356C14.7605 42.356 14.7605 42.4098 14.7605 42.4635C14.7605 42.4635 14.7605 42.4903 14.7605 42.5172C14.7605 42.5172 14.7605 42.5978 14.7605 42.6515C14.7605 42.6112 14.7605 42.5575 14.7605 42.5172H14.7875C14.7875 42.5172 14.7875 42.5978 14.7875 42.6515H14.9365L15.1125 42.6246C15.0177 42.6515 14.923 42.6783 14.8282 42.7052H14.774C14.774 42.7052 14.774 42.7186 14.774 42.732C14.774 42.732 14.7605 42.732 14.7469 42.7455H14.7334C14.7334 42.7589 14.7334 42.7723 14.7334 42.7858C14.7334 42.7858 14.7334 42.7992 14.7198 42.8126V42.7455L14.5844 42.7858L14.1646 42.8798L14.0834 42.9066C14.0834 42.9066 14.0834 42.9603 14.0834 42.9872L14.3813 42.9066L14.7198 42.826C14.5573 43.1349 14.449 44.142 14.4761 44.142C14.5573 44.142 14.6521 44.1286 14.7334 44.1152C14.7334 44.1555 14.7334 44.1689 14.7334 44.1689C14.7334 44.1555 14.7334 44.142 14.7334 44.1152C14.7334 44.1152 14.7334 44.1152 14.7469 44.1152C14.7469 44.1152 14.7469 44.1286 14.7469 44.142V44.1555C14.7469 44.1823 14.7469 44.2092 14.7469 44.236C14.273 44.2495 13.8125 44.2629 13.3386 44.2898H12.8782L12.7563 44.3166C12.7563 44.33 12.7563 44.3435 12.7563 44.3569C12.7563 44.3569 12.7563 44.3569 12.7563 44.3838H13.0948L13.7719 44.3435C14.0292 44.3435 14.273 44.33 14.5302 44.3166C14.1375 44.4106 13.7584 44.518 13.3657 44.612H12.8782L12.7292 44.6389C12.7292 44.6792 12.7292 44.7329 12.7292 44.7732H12.7698C12.7698 44.7732 12.7427 44.7732 12.7292 44.7732C12.7292 44.7463 12.7292 44.706 12.7292 44.6389C12.7292 44.5449 12.7292 44.4509 12.7427 44.3569C12.7427 44.3569 12.7157 44.518 12.7021 44.7598V44.7732C12.7021 44.6658 12.7021 44.2629 12.6615 44.6523C12.6615 44.6792 12.6615 44.7329 12.6615 44.7866C12.6615 44.7329 12.6615 44.6926 12.6615 44.6523C12.6615 44.612 12.6615 44.6255 12.6344 44.8C12.4584 44.9343 12.2688 46.1966 12.3365 46.1966C12.4177 46.1966 12.499 46.1966 12.5802 46.1966C12.5802 46.2369 12.5802 46.2772 12.5802 46.3175H12.5938C12.5938 46.3175 12.5938 46.2369 12.5938 46.1966C12.5938 46.1966 12.5938 46.2772 12.5938 46.3175H12.648L12.973 46.2235L13.1625 46.1698C13.5552 46.1698 13.9344 46.1429 14.3136 46.1295H14.273L12.8782 46.492L12.7021 46.5323H12.675C12.675 46.5323 12.675 46.586 12.675 46.6129L12.9052 46.5592L13.8532 46.3175L14.6657 46.116C14.9771 46.116 15.2886 46.0892 15.6 46.0758C14.8146 46.2638 14.0157 46.4652 13.2302 46.6532C13.0271 46.6532 12.824 46.6532 12.6344 46.6532C12.6344 46.6129 12.6344 46.5726 12.648 46.5458H12.6209C12.6209 46.5458 12.6209 46.6263 12.6209 46.6532H12.5938C12.5938 46.6532 12.5938 46.7069 12.5938 46.7203C12.5938 46.7203 12.5938 46.7203 12.6073 46.7203C12.6073 46.7472 12.6073 46.774 12.6073 46.8009C12.6073 46.7875 12.6073 46.7472 12.6073 46.7069C12.6073 46.7338 12.6073 46.774 12.6073 46.8009C12.3365 46.868 12.0521 46.9352 11.7813 47.0023H11.524C11.524 47.0023 11.524 47.0426 11.524 47.0695C11.524 47.0426 11.524 47.0292 11.524 47.0023H11.4834V47.0829C11.4834 47.0829 11.4834 47.0292 11.4834 47.0023C11.4834 47.0023 11.4834 46.9486 11.4698 47.0829C11.3615 47.1098 11.2396 47.62 11.1719 48.0229H11.1448C11.023 48.0363 10.6844 49.3926 10.8198 49.4329C10.8605 49.4329 10.9011 49.4329 10.9282 49.4598C10.874 49.6343 10.9011 49.5672 10.9282 49.4598C10.9282 49.4598 10.9552 49.4598 10.9823 49.4598C10.9146 49.7149 10.874 49.8358 10.9146 49.7418C10.9146 49.7418 10.9552 49.5806 10.9823 49.4598C11.199 49.5135 11.4021 49.5806 11.6188 49.6478L11.4021 49.6746L10.9552 49.7418H10.9146C10.8875 49.8358 10.8875 49.8626 10.9146 49.7955L11.0636 49.7686C11.2802 49.7418 11.5105 49.7149 11.7271 49.6746C12.5125 49.9163 13.2844 50.1983 14.0292 50.5072C14.7198 50.8026 15.3698 51.1518 15.9521 51.568C16.25 51.7829 16.4802 52.038 16.6427 52.3603C16.575 52.4409 16.4667 52.5483 16.2907 52.696C13.8396 54.7775 9.38441 55.3683 6.51358 56.5232C3.87296 57.5706 2.15317 58.8866 1.69275 61.3709C1.48962 62.472 1.81462 63.4255 2.31567 64.2849C3.15525 65.7083 5.53858 68.0046 4.699 70.0189C4.57712 70.2875 4.44171 71.3483 4.49587 71.2275C5.87712 67.8837 4.42816 65.762 2.87087 63.2643C2.45108 62.5929 1.6115 61.3978 2.23442 60.4578C2.80317 59.5983 3.91358 58.994 4.83442 58.524C6.86566 57.4766 9.10004 56.8589 11.2125 56.1606C13.6636 55.3549 16.6021 54.6163 17.049 51.9843C17.2657 50.6952 16.2771 49.8223 14.9771 49.2046C15.1532 49.1778 15.3427 49.1509 15.5323 49.1375C15.749 49.2449 15.9657 49.3523 16.1688 49.4732C16.9136 50.0103 18.0375 50.4266 18.0511 52.0783C17.7396 53.7703 14.7198 55.3952 16.0334 54.6432C16.6427 54.2672 17.5636 53.7032 17.9563 52.5752C18.4167 51.4338 17.6584 50.5206 17.198 50.1446C16.7105 49.7418 16.1823 49.4195 15.6271 49.1375C15.8167 49.1106 16.0198 49.0838 16.2094 49.0569L17.5771 48.8689L17.9292 48.8286H18.0105C18.0375 48.6272 18.0646 48.4392 18.1052 48.2915C18.0511 48.654 18.0105 48.8823 18.0105 48.7615H17.9427L17.6855 48.8018L17.1709 48.8689L16.1688 49.0032C15.9521 49.03 15.749 49.0569 15.5459 49.0838C15.3834 49.0032 15.2073 48.9226 15.0313 48.842C15.1125 48.842 15.2073 48.8152 15.2886 48.8152L16.873 48.6003L17.699 48.4929L17.9157 48.466H18.024C18.1188 47.8886 17.9292 49.2986 18.1188 48.0632C18.1323 48.0095 18.1459 47.9423 18.173 47.8752C18.1594 48.0095 18.1323 48.1438 18.1188 48.2646C18.1459 48.1169 18.1594 47.9692 18.1865 47.8483C18.2407 47.6066 18.2813 47.338 18.3084 47.1635L21.0032 46.5055L21.8563 46.304L22.2896 46.1966L22.3709 46.1698V46.1026H22.2896L21.9646 46.1966L20.6917 46.5055C19.8792 46.7069 19.0938 46.8949 18.2948 47.0829V47.0426C18.2948 46.962 18.3219 46.8815 18.3355 46.8143C19.1209 46.6263 19.9334 46.4383 20.7459 46.2369L21.8834 45.9683L22.1677 45.9012L22.3032 45.8743H22.3709C22.398 45.5252 22.4115 45.2432 22.4386 45.0149C22.4657 44.9075 22.4792 44.7866 22.4927 44.6926C22.4657 45.1895 22.425 45.8072 22.3844 46.21C22.3844 46.3443 22.4521 45.4849 22.4927 44.6926C22.5198 44.5315 22.5198 44.4106 22.5063 44.3703C22.5063 44.2629 22.5063 44.1823 22.5063 44.1152C22.5063 44.1958 22.5063 44.2763 22.5063 44.3703C22.5063 44.3703 22.5063 44.3703 22.4927 44.3703C22.4927 44.236 22.4927 44.1689 22.4927 44.1286H22.5198V44.048C22.2084 44.1286 21.8969 44.2092 21.5719 44.2763L20.475 44.3166C20.6105 44.2898 20.7323 44.2495 20.8677 44.2226L21.7073 44.0078L22.3438 43.9809H22.5063V43.9406C22.5063 43.8869 22.5063 43.8466 22.5063 43.7929L23.5625 43.5243L24.9167 43.1886V43.0409H24.8355L24.673 43.108L24.3344 43.1886L23.0073 43.5243C22.8448 43.5646 22.6823 43.6049 22.5198 43.6452V43.5915C23.2782 43.4035 24.023 43.2155 24.7677 43.0275C24.849 43.014 24.9302 42.7723 24.9844 42.5038C24.9844 42.7723 24.9573 43.0275 24.9573 43.1886C24.9573 43.2826 24.9573 43.3632 24.9573 43.4169L24.7948 43.4572L24.4157 43.5512L22.9396 43.9272C22.7907 43.954 22.6552 43.9943 22.5063 44.0346C22.5063 44.0615 22.5063 44.0749 22.5063 44.1152L23.6709 43.8198L24.6865 43.5646L24.9438 43.5109C24.9438 44.33 24.9709 44.048 24.998 43.4572C24.998 43.4572 24.998 43.4572 24.998 43.4303C24.998 43.2155 25.0115 42.826 25.025 42.4366C25.025 42.3963 25.0386 42.356 25.0521 42.3158C25.0521 42.4098 25.0521 42.5172 25.0521 42.5978C25.0521 42.4903 25.0521 42.3829 25.0521 42.2889C25.0792 42.1278 25.1063 41.98 25.1063 41.8726L25.2823 41.8189C25.2823 41.8189 25.2823 41.7652 25.2823 41.7383L25.1063 41.7786C25.1063 41.698 25.1063 41.6309 25.1063 41.6309C25.0927 41.6309 25.0657 41.6309 25.0521 41.6309C25.0521 41.6175 25.0521 41.5906 25.0521 41.5772L25.1875 41.5369L25.3771 41.4832C25.3771 41.134 25.3771 40.8386 25.3771 40.5969C25.3771 40.5566 25.3771 40.5163 25.3907 40.476C25.3907 40.664 25.3907 40.8789 25.3907 41.1206C25.3907 40.9326 25.3907 40.7043 25.4042 40.4358C25.4584 40.1403 25.4719 39.8718 25.4584 39.8718C25.4584 39.8718 25.4313 39.8718 25.4177 39.8718C25.4177 39.7106 25.4177 39.536 25.4177 39.348H25.4042C25.4042 39.442 25.4042 39.6166 25.4042 39.8718C25.4042 39.8718 25.3907 39.8718 25.3771 39.8718C25.3771 39.63 25.3771 39.5226 25.3771 39.4823C25.3771 39.442 25.3771 39.3883 25.3771 39.348H25.2823L24.1584 39.4689L23.9146 39.4958C23.9146 39.4958 23.9282 39.4286 23.9417 39.3883H23.9011C24.0094 38.9452 24.2125 38.0589 24.3073 37.5352H24.348C24.2667 37.9246 24.1448 38.4886 23.9688 39.3078C24.0907 38.784 24.2532 38.0455 24.348 37.5352L26.2032 37.3203L27.5302 37.1592L28.1938 37.0786L28.3563 37.0518C28.2615 37.6426 28.2615 37.7232 28.3157 37.5083C28.3157 37.4815 28.3157 37.4009 28.3427 37.2666C28.3427 37.4009 28.4105 37.0518 28.4917 36.5683L28.2886 36.5952L26.6094 36.7966L24.4427 37.0652C24.4427 37.0652 24.4157 37.1726 24.4021 37.2398C24.4021 37.1726 24.4292 37.1055 24.4292 37.0652H24.3886C24.3886 37.0652 24.4157 36.9846 24.4292 36.9309C24.4292 36.9309 24.4292 36.9309 24.4563 36.9309C24.4563 36.9578 24.4563 37.0115 24.4427 37.0652C24.4427 37.0652 24.4563 36.9712 24.4698 36.9309C25.7834 36.7698 27.1105 36.622 28.424 36.4609C28.4646 36.4609 28.5323 36.3132 28.573 36.1386C28.573 36.2326 28.5459 36.3266 28.5188 36.434C28.5459 36.3132 28.573 36.1789 28.5865 36.058C28.5865 36.0043 28.6136 35.9506 28.6271 35.8969C28.5052 36.5683 28.3563 37.2666 28.3021 37.5218C28.3021 37.656 28.4782 36.7563 28.6271 35.8835C28.6813 35.6552 28.7219 35.4269 28.7355 35.2523C28.7355 35.1986 28.7625 35.1315 28.7625 35.0778C28.7625 35.0778 28.749 35.1852 28.7355 35.2523C28.7355 35.1986 28.7355 35.1583 28.7355 35.1315C28.7355 35.118 28.7355 35.0912 28.7355 35.0778C28.7355 35.0778 28.7355 35.0375 28.7355 35.024C28.7355 35.024 28.749 34.9166 28.7625 34.8763H28.7761C28.7896 34.7689 28.8032 34.6749 28.8167 34.6078L28.3427 34.6749H27.8282H27.2865C27.6657 34.6212 28.0313 34.5809 28.4105 34.5272H28.6H28.8167C28.8167 34.5003 28.8302 34.4869 28.8438 34.5003V34.4735C29.0605 34.4466 29.2907 34.4063 29.5073 34.3795C29.5615 34.3795 29.6292 34.1915 29.6969 33.9498C29.575 34.6749 29.4532 35.3329 29.5615 34.5272L29.3448 34.554L28.925 34.6078H28.8302C28.8302 34.6883 28.8032 34.7823 28.7896 34.8898L29.074 34.8495L29.5073 34.7958C29.5073 34.7958 29.4938 34.9032 29.4802 34.9435H29.3313L28.8844 35.024H28.7625C28.7625 35.024 28.7625 35.0778 28.7625 35.0912C28.7761 35.0912 28.7896 35.0912 28.8032 35.0912L29.4802 34.9972C29.4125 35.4269 29.4396 35.3463 29.5073 35.024C29.5073 35.024 29.5209 34.9972 29.5344 34.93H29.5209C29.5886 34.5943 29.6969 34.0706 29.7782 33.6006C29.8052 33.5066 29.8188 33.426 29.8188 33.3455C29.8188 33.332 29.8188 33.3052 29.8323 33.2918C29.724 33.9766 29.5886 34.6883 29.5344 34.9435H29.548C29.6834 34.2183 29.7646 33.6812 29.8459 33.2649C29.9136 33.0098 30.0355 32.5935 30.198 31.9623C30.049 32.4995 29.9407 32.8755 29.8594 33.144C29.8594 33.1172 29.8594 33.1038 29.8594 33.0769V33.1038C29.8594 33.1306 29.8594 33.144 29.8594 33.1709C29.8594 33.1843 29.8594 33.2112 29.8459 33.2112C29.8459 33.238 29.8459 33.2783 29.8323 33.3052C29.8323 33.2783 29.8323 33.2515 29.8323 33.238C29.8323 33.238 29.8323 33.2246 29.8323 33.2112C29.8323 33.1843 29.8323 33.1575 29.8323 33.1306C29.8323 33.1306 29.8323 33.1038 29.8323 33.0903C29.8459 32.9829 29.873 32.8755 29.8865 32.7546C29.8865 32.7546 29.8865 32.7546 29.8865 32.7815C29.8865 32.6875 29.9136 32.6203 29.9136 32.5666C29.9136 32.5666 29.9136 32.5532 29.9136 32.5398C29.9136 32.6069 29.9 32.6875 29.8865 32.7546C29.8865 32.7412 29.8865 32.7143 29.9 32.7009C29.9 32.6203 29.9271 32.5532 29.9407 32.486C30.0219 32.2443 30.1032 31.8952 30.1438 31.64C30.1438 31.6132 30.1438 31.5863 30.1573 31.5729H30.198C30.1032 31.9623 29.9813 32.4189 29.9 32.7009C29.8865 32.7949 29.8594 32.9292 29.8459 33.05C29.9407 32.7278 30.1032 32.1235 30.2521 31.5595H30.2792C30.2386 31.6938 30.2115 31.8146 30.1844 31.9355C30.2115 31.828 30.2521 31.6938 30.2927 31.5595H30.4823C30.3198 32.5263 30.4011 32.2175 30.5636 31.4923L30.3063 31.5192C30.3063 31.5192 30.3063 31.4923 30.3198 31.4655H30.4417L30.55 31.452H30.5636C30.6177 31.2103 30.6719 30.9552 30.7261 30.6732C30.6584 31.0223 30.6042 31.3043 30.5771 31.4386C30.6313 31.1566 30.6855 30.9015 30.7261 30.6732H30.848H31.1865H31.3625V30.7135C31.3625 30.6463 31.3896 30.5792 31.3896 30.5255H31.4302C31.4438 30.4449 31.4709 30.3643 31.498 30.2569C31.4032 30.606 31.5927 29.6526 31.4573 30.1763H31.2813H30.9157H30.848C30.848 30.1763 30.8615 30.0823 30.875 30.042L31.0105 30.0152C31.2 30.0152 31.3761 30.0152 31.5657 30.0152C31.5521 30.1092 31.525 30.1898 31.5115 30.2703C31.5115 30.23 31.525 30.1763 31.5521 30.1092C31.5521 30.0823 31.5521 30.042 31.5792 30.0152C31.5792 30.0152 31.5657 30.0823 31.5521 30.1092C31.5115 30.3106 31.4709 30.4583 31.4438 30.5658C31.4438 30.6195 31.498 30.3778 31.5792 30.0152H31.5927C31.5927 30.0152 31.6334 29.9749 31.6605 29.9212L33.5157 29.5989L34.2198 29.478L34.3959 29.4512C34.45 29.1423 34.5042 28.8738 34.5584 28.6052H35.249C35.249 28.7663 35.2355 28.8469 35.2355 28.8469C35.2896 28.8469 35.3302 28.8469 35.3709 28.82C35.4386 29.9212 35.5198 30.8075 35.4792 29.5318L35.8177 29.478L36.4813 29.3706L37.8219 29.1423C41.3834 28.5515 44.9042 27.9472 48.3844 27.3698C48.1948 28.7663 48.425 27.5712 48.6282 26.3089L49.1698 26.2686L49.9959 26.2149H50.199L50.2532 26.2015C50.673 26 49.373 26.6446 51.2146 25.7449L51.2823 25.6643L51.5667 25.3555L52.1084 24.59L52.1625 24.5363L52.7042 24.4558C54.8032 24.1603 56.8073 23.8783 58.7438 23.5963L59.1094 23.5426L59.2854 23.5158L60.4636 22.4952L63.2396 21.6358L63.7407 21.5955H63.8625C63.849 21.676 63.9167 21.3 63.998 20.8166L69.2657 20.5615L69.4417 20.7629Z" fill="white"/>
<path d="M65.7313 70.086C65.7313 70.7977 65.5688 71.3215 65.2438 71.6437C64.9188 71.966 64.3907 72.1272 63.6594 72.1272H61.073C60.3417 72.1272 59.8271 71.966 59.4886 71.6437C59.1636 71.3215 59.0011 70.7977 59.0011 70.086V66.8095C59.0011 66.0843 59.1636 65.574 59.4886 65.2383C59.8136 64.916 60.3417 64.7549 61.073 64.7549H63.6594C64.3771 64.7549 64.9053 64.916 65.2438 65.2383C65.5688 65.5606 65.7313 66.0843 65.7313 66.8095V70.086ZM63.8761 66.8095C63.8761 66.3932 63.673 66.1917 63.2532 66.1917H61.4928C61.073 66.1917 60.8699 66.3932 60.8699 66.8095V70.086C60.8699 70.5023 61.073 70.7037 61.4928 70.7037H63.2532C63.673 70.7037 63.8761 70.5023 63.8761 70.086V66.8095Z" fill="white"/>
<path d="M74.9396 69.4683C74.9396 70.1935 74.7771 70.7037 74.4521 71.0395C74.1271 71.3617 73.599 71.5229 72.8677 71.5229H71.6219V72.2346H69.7667V71.5229H68.5208C67.7896 71.5229 67.275 71.3617 66.9365 71.0395C66.5979 70.7172 66.449 70.1935 66.449 69.4683V67.4137C66.449 66.702 66.6115 66.1783 66.9365 65.856C67.2615 65.5337 67.7896 65.3726 68.5208 65.3726H69.7667V64.6475H71.6219V65.3726H72.8677C73.599 65.3726 74.1136 65.5337 74.4521 65.856C74.7771 66.1783 74.9396 66.702 74.9396 67.4137V69.4683ZM68.3177 69.4683C68.3177 69.8846 68.5208 70.086 68.9406 70.086H69.875V66.8095H68.9406C68.5208 66.8095 68.3177 67.0109 68.3177 67.4272V69.4817V69.4683ZM73.0708 67.4137C73.0708 66.9975 72.8677 66.796 72.4479 66.796H71.5136V70.0726H72.4479C72.8677 70.0726 73.0708 69.8712 73.0708 69.4549V67.4003V67.4137Z" fill="white"/>
<path d="M82.1709 72.0329H80.3157V67.6283L77.8376 72.0329H75.874V64.8486H77.7428V69.2532L80.2209 64.8486H82.1844V72.0329H82.1709Z" fill="white"/>
<path d="M83.4167 72.0329V64.8486H85.2855V70.5961H87.8719V64.8486H89.7272V70.5961H90.499V73.3623H88.7386L88.6303 72.0329H83.4032H83.4167Z" fill="white"/>
<path d="M97.6355 72.0329H95.7803V67.6283L93.3022 72.0329H91.3386V64.8486H93.2074V69.2532L95.6855 64.8486H97.649V72.0329H97.6355Z" fill="white"/>
<path d="M100.181 72.0329H98.1636L100.899 64.8486H102.971L105.706 72.0329H103.689L103.228 70.7572H100.642L100.181 72.0329ZM101.116 69.4143H102.768L101.942 66.9972L101.116 69.4143Z" fill="white"/>
<path d="M107.927 71.7109C107.643 71.9929 107.291 72.1406 106.884 72.1406C106.478 72.1406 106.085 72.1003 105.72 72.0332V70.65H106.18C106.316 70.65 106.424 70.6097 106.505 70.5157C106.587 70.4217 106.641 70.3143 106.641 70.1934L106.952 64.8623H112.694V72.0466H110.839V66.2992H108.672L108.415 70.556C108.374 71.0529 108.225 71.4423 107.941 71.7243L107.927 71.7109Z" fill="white"/>
<path d="M115.795 67.3061H118.273C118.991 67.3061 119.519 67.4672 119.844 67.7895C120.169 68.1118 120.331 68.6355 120.331 69.3606V69.9783C120.331 70.7035 120.169 71.2138 119.844 71.5495C119.519 71.8718 118.991 72.0329 118.273 72.0329H113.926V64.8486H115.795V67.3061ZM118.49 69.3606C118.49 68.9443 118.287 68.7429 117.867 68.7429H115.795V70.5961H117.867C118.287 70.5961 118.49 70.3946 118.49 69.9783V69.3606Z" fill="white"/>
<path d="M127.59 72.0329H125.734V69.1055H123.148V72.0329H121.279V64.8486H123.148V67.6686H125.734V64.8486H127.59V72.0329Z" fill="white"/>
<path d="M130.691 67.3061H133.074C133.792 67.3061 134.32 67.4672 134.645 67.7895C134.97 68.1118 135.132 68.6355 135.132 69.3606V69.9783C135.132 70.7035 134.97 71.2138 134.645 71.5495C134.32 71.8852 133.792 72.0329 133.074 72.0329H128.835V64.8486H130.704V67.3061H130.691ZM133.277 69.3606C133.277 68.9443 133.074 68.7429 132.654 68.7429H130.691V70.5961H132.654C133.074 70.5961 133.277 70.3946 133.277 69.9783V69.3606ZM137.827 72.0329H135.972V64.8486H137.827V72.0329Z" fill="white"/>
<path d="M143.528 72.0331V67.6285L141.05 72.0331H139.087V64.8488H140.955V69.2533L143.433 64.8488H145.397V72.0331H143.542H143.528ZM141.659 64.3385C140.766 64.3385 140.319 63.8953 140.319 63.0091V62.7002H141.659V62.9553C141.659 63.0628 141.7 63.1433 141.768 63.2105C141.836 63.2776 141.917 63.3179 142.025 63.3179H142.337C142.445 63.3179 142.526 63.2776 142.594 63.2105C142.662 63.1433 142.702 63.0628 142.702 62.9553V62.7002H144.043V63.0091C144.043 63.8953 143.596 64.3385 142.702 64.3385H141.673H141.659Z" fill="white"/>
<path d="M156.041 72.0329H154.185V67.6283L151.707 72.0329H149.744V64.8486H151.613V69.2532L154.091 64.8486H156.054V72.0329H156.041Z" fill="white"/>
<path d="M163.597 72.0329H161.742V69.1055H159.155V72.0329H157.286V64.8486H159.155V67.6686H161.742V64.8486H163.597V72.0329Z" fill="white"/>
<path d="M168.35 72.0329H166.495V66.2855H164.328V64.8486H170.53V66.2855H168.364V72.0329H168.35Z" fill="white"/>
<path d="M176.99 72.0329H171.248V64.8486H176.99V66.2855H173.117V67.6686H176.164V69.1055H173.117V70.5961H176.99V72.0329Z" fill="white"/>
<path d="M177.816 64.8486H182.163C182.88 64.8486 183.408 65.0098 183.733 65.3321C184.058 65.6543 184.221 66.1781 184.221 66.9032V67.9238C184.221 68.6355 184.058 69.1592 183.733 69.4949C183.408 69.8306 182.88 69.9783 182.163 69.9783H179.684V72.0329H177.816V64.8486ZM182.366 66.9032C182.366 66.4869 182.163 66.2855 181.743 66.2855H179.671V68.5415H181.743C182.163 68.5415 182.366 68.3401 182.366 67.9238V66.9032Z" fill="white"/>
<path d="M191.479 72.0329H189.624V69.1055H187.038V72.0329H185.169V64.8486H187.038V67.6686H189.624V64.8486H191.479V72.0329Z" fill="white"/>
<path d="M198.453 72.0329H192.712V64.8486H198.453V66.2855H194.58V67.6686H197.627V69.1055H194.58V70.5961H198.453V72.0329Z" fill="white"/>
<path d="M202.8 72.0329H200.945V66.2855H198.778V64.8486H204.98V66.2855H202.814V72.0329H202.8Z" fill="white"/>
<path d="M204.777 69.1595V67.7227H209.016V69.1595H204.777Z" fill="white"/>
<path d="M216.152 68.0312L214.703 70.5961H213.254L211.805 68.0312V72.0329H209.937V64.8486H211.9L213.972 68.6489L216.044 64.8486H218.007V72.0329H216.139V68.0312H216.152Z" fill="white"/>
<path d="M220.553 72.0329H218.536L221.271 64.8486H223.343L226.078 72.0329H224.061L223.6 70.7572H221.014L220.553 72.0329ZM221.488 69.4143H223.14L222.314 66.9972L221.488 69.4143Z" fill="white"/>
<path d="M228.462 72.0329H226.593V64.8486H232.226V66.2855H228.448V72.0329H228.462Z" fill="white"/>
<path d="M233.011 72.0329H230.994L233.729 64.8486H235.801L238.536 72.0329H236.519L236.058 70.7572H233.472L233.011 72.0329ZM233.946 69.4143H235.598L234.772 66.9972L233.946 69.4143Z" fill="white"/>
<path d="M238.645 70.5426C240.405 70.65 241.651 70.6903 242.369 70.6903C242.531 70.6903 242.653 70.65 242.748 70.556C242.843 70.462 242.883 70.3412 242.883 70.18V69.7637C242.883 69.3474 242.68 69.146 242.261 69.146H239.782V67.7092H242.057C242.477 67.7092 242.68 67.5077 242.68 67.0914V66.89C242.68 66.4737 242.477 66.2723 242.057 66.2723H238.753V64.8354H242.586C243.263 64.8354 243.764 64.9832 244.075 65.292C244.387 65.6009 244.549 66.0575 244.549 66.6886C244.549 67.1049 244.454 67.4272 244.265 67.6823C244.075 67.9374 243.831 68.112 243.52 68.2194C244.075 68.3672 244.454 68.7432 244.657 69.334C244.725 69.5489 244.766 69.7906 244.766 70.0726V70.18C244.766 70.8514 244.603 71.3483 244.292 71.6572C243.98 71.966 243.479 72.1272 242.802 72.1272C241.651 72.1272 240.27 72.06 238.658 71.9257V70.5426H238.645Z" fill="white"/>
<path d="M251.997 72.0329H250.142V67.6283L247.664 72.0329H245.7V64.8486H247.569V69.2532L250.047 64.8486H252.01V72.0329H251.997Z" fill="white"/>
<path d="M259.553 72.0329H257.698V69.1055H255.112V72.0329H253.243V64.8486H255.112V67.6686H257.698V64.8486H259.553V72.0329Z" fill="white"/>
</svg>
