<svg xmlns="http://www.w3.org/2000/svg" width="185" height="140" viewBox="0 0 185 140" fill="none">
    <path
        d="M2.12733 99.3136L1 67.5379L1.56366 59.2527V52.162C1.56366 52.162 1.75444 47.469 6.33312 44.7983C10.9118 42.1276 14.2851 40.2845 14.2851 40.2845L28.8883 17.6302C28.8883 17.6302 30.4752 14.5926 31.9321 14.7718C33.3889 14.9509 36.2333 16.1967 36.2333 16.1967L46.5266 13.3895C46.5266 13.3895 46.6654 12.6983 48.4951 11.9645C50.3248 11.2307 82.6184 1.69115 82.6184 1.69115L86.7808 1.36691L87.5786 1.73381H92.1139L94.1258 1C94.1258 1 95.9035 1.04266 96.6492 1.55462C97.395 2.06659 97.9587 2.57001 97.9587 2.57001L102.078 6.85342V10.6334L105.494 11.5976L111.252 12.613L122.812 12.9799L129.741 13.9441V15.6506L130.773 15.881L133.912 14.9595L136.765 16.1114C136.765 16.1114 137.328 17.5875 138.17 17.5875C139.011 17.5875 140.043 17.1694 140.043 17.1694L143.321 18.1848L143.598 19.0637L145.749 19.7122L148.697 19.277L151.645 20.3607L152.773 21.7856L154.221 21.9222L155.903 22.8437C155.903 22.8437 156.137 23.8079 157.638 24.0895C159.138 24.371 159.554 24.4137 159.554 24.4137L162.268 26.3933C162.268 26.3933 167.792 30.0794 172.05 32.4259C176.308 34.7724 180.852 37.9551 180.852 37.9551C180.852 37.9551 183.002 38.7827 183.141 40.3528C183.28 41.9142 183.982 54.4402 183.982 54.4402L182.161 74.5603L181.086 91.6428C181.086 91.6428 180.054 94.177 174.912 97.7692C174.912 97.7692 173.698 99.5611 165.459 103.153C157.221 106.746 132.229 117.386 132.229 117.386L90.6224 134.886L83.3728 137.924C83.3728 137.924 80.0515 138.521 77.1465 137.694C74.2415 136.866 53.9843 129.357 53.9843 129.357C53.9843 129.357 44.0205 125.168 35.1233 120.978C26.2347 116.789 14.2938 108.589 14.2938 108.589L2.12733 99.3307V99.3136Z"
        stroke="#FF6200" stroke-width="2" stroke-linecap="round" stroke-linejoin="round" />
    <path
        d="M14.7118 72.181V61.4042L19.8108 53.1189L30.3903 35.6184C30.3903 35.6184 32.4455 31.9835 34.6048 32.1627C36.764 32.3419 67.0804 44.6375 67.0804 44.6375C67.0804 44.6375 68.7194 45.7894 67.4533 48.4174C66.1872 51.0455 50.8382 75.7732 50.8382 75.7732C50.8382 75.7732 50.3266 76.5071 50.2312 79.8689C50.1358 83.2308 50.2746 88.1542 50.2746 88.1542C50.2746 88.1542 50.4654 89.6303 49.338 90.4068C48.2107 91.1833 46.0601 90.1338 46.0601 90.1338L16.8104 77.2409C16.8104 77.2409 14.7031 75.9012 14.7031 72.1724L14.7118 72.181Z"
        stroke="#FF6200" stroke-width="2" stroke-linecap="round" stroke-linejoin="round" />
    <path
        d="M18.4609 67.3516V75.176C18.4609 75.176 23.6987 79.4083 36.2467 84.2463C48.786 89.0843 50.0781 89.5195 50.0781 89.5195"
        stroke="#FF6200" stroke-width="2" stroke-linecap="round" stroke-linejoin="round" />
    <path
        d="M61.6554 79.0723C59.5482 79.004 58.2127 80.4546 58.2127 80.4546C55.4031 79.2088 50.5903 76.4869 50.5903 76.4869C50.5903 76.4869 50.5122 79.0467 48.2229 79.4648C45.9335 79.8829 18.9297 67.5873 18.9297 67.5873C18.9297 67.5873 14.1343 65.8808 14.7153 61.4182L7.89062 57.2969C7.89062 57.2969 9.00061 58.1501 9.77239 63.7391C10.5442 69.3365 10.1193 81.3505 10.1193 81.3505L9.06998 104.594C9.06998 104.594 38.2677 119.748 46.0636 122.649C53.8595 125.55 56.383 126.659 56.383 126.659C56.383 126.659 54.9088 124.176 58.4208 124.517C61.9329 124.859 68.8789 130.738 73.3709 133.221C77.8629 135.704 82.008 135.636 84.6008 134.74C87.1937 133.844 117.311 121.48 117.311 121.48L170.798 98.8255C170.798 98.8255 178.498 94.2178 181.074 91.6154"
        stroke="#FF6200" stroke-width="2" stroke-linecap="round" stroke-linejoin="round" />
    <path
        d="M18.5786 60.54L32.4534 37.6041C32.6962 37.2031 33.1992 37.0324 33.6415 37.2116L61.7205 48.3809C62.2582 48.5942 62.4836 49.2256 62.1975 49.7205L48.0105 74.4909C47.759 74.9261 47.2127 75.0968 46.7618 74.8834L18.9949 61.8711C18.4833 61.6322 18.2925 61.0093 18.5786 60.5314V60.54Z"
        stroke="#FF6200" stroke-width="2" stroke-linecap="round" stroke-linejoin="round" />
    <path d="M18.4609 60.8487L34.5557 47.7083L33.0034 37.1875" stroke="#FF6200" stroke-width="2"
        stroke-linecap="round" stroke-linejoin="round" />
    <path d="M57.8643 57.2931L34.5547 47.7109" stroke="#FF6200" stroke-width="2"
        stroke-linecap="round" stroke-linejoin="round" />
    <path d="M36.2422 16.1953L44.2462 19.4633" stroke="#FF6200" stroke-width="2"
        stroke-linecap="round" stroke-linejoin="round" />
    <path
        d="M29.25 17C29.25 17 29.3541 18.8431 29.9871 19.4659C30.6201 20.0888 63.8936 34.2446 63.8936 34.2446C63.8936 34.2446 82.9194 41.0793 85.1654 41.2926C87.4113 41.5059 97.8001 41.2926 97.8001 41.2926C97.8001 41.2926 105.24 41.8472 107.07 45.6442C108.891 49.4413 115.282 61.7369 115.282 61.7369L162.387 44.8848C162.387 44.8848 170.183 41.9155 171.163 38.0501C172.143 34.1848 171.623 33.0159 168.414 30.2854"
        stroke="#FF6200" stroke-width="2" stroke-linecap="round" stroke-linejoin="round" />
    <path
        d="M182.782 39.375L111.709 65.3997C111.709 65.3997 89.7346 73.8983 86.3006 75.6901C82.8666 77.482 78.4353 81.8337 73.1716 82.7381C67.9079 83.6341 66.0781 80.8695 66.0781 80.8695C66.0781 80.8695 68.3935 84.1887 68.6016 88.7451C68.8097 93.3016 68.7403 130.393 68.7403 130.393"
        stroke="#FF6200" stroke-width="2" stroke-linecap="round" stroke-linejoin="round" />
    <path
        d="M14.2917 40.2734C14.2917 40.2734 6.8253 53.5162 6.75593 55.2398C6.75593 55.2398 2.61951 54.5913 1.49219 60.2655"
        stroke="#FF6200" stroke-width="2" stroke-linecap="round" stroke-linejoin="round" />
    <path d="M1.71224 51.1562C1.71224 51.1562 1.20927 54.8424 4.15766 55.8407" stroke="#FF6200"
        stroke-width="2" stroke-linecap="round" stroke-linejoin="round" />
    <path
        d="M57.4335 82.5312C57.4335 82.5312 56.1674 83.7088 55.8205 90.0571C55.4737 96.4054 55.1875 125.493 55.1875 125.493"
        stroke="#FF6200" stroke-width="2" stroke-linecap="round" stroke-linejoin="round" />
    <path d="M83.6915 42.8125L62.9141 77.4893" stroke="#FF6200" stroke-width="2"
        stroke-linecap="round" stroke-linejoin="round" />
    <path
        d="M46.6269 14.4508C46.6269 14.4508 45.9245 14.2802 45.3262 14.4508C44.7278 14.6215 44.2422 14.8689 44.2422 14.8689V21.7378L78.8164 35.1341C78.8164 35.1341 81.1664 35.9276 82.2938 35.1341C83.4211 34.3405 86.2567 35.4839 86.2567 35.4839L92.4917 33.4702C92.4917 33.4702 92.4657 32.8815 87.8697 30.808C83.2737 28.7346 79.1633 27.1134 79.1633 27.1134C79.1633 27.1134 78.4609 27.4973 77.5503 27.3523C76.6398 27.2072 52.5584 16.9765 52.5584 16.9765L46.6269 14.4338V14.4508Z"
        stroke="#FF6200" stroke-width="2" stroke-linecap="round" stroke-linejoin="round" />
    <path
        d="M81.3837 28.3306C81.3837 28.3306 81.2102 28.8853 79.9442 28.7829C78.6781 28.6805 70.2925 25.3954 70.2925 25.3954L48.7779 16.4531L47.2344 18.0402L77.6288 30.3358"
        stroke="#FF6200" stroke-width="2" stroke-linecap="round" stroke-linejoin="round" />
    <path d="M86.25 35.5L104.131 42.9661" stroke="#FF6200" stroke-width="2" stroke-linecap="round"
        stroke-linejoin="round" />
    <path
        d="M46.5391 13.3881C46.5391 13.3881 48.8804 13.7294 49.4788 14.1816C50.0771 14.6339 50.9183 15.0434 50.9183 15.0434L52.1497 14.7362L89.837 3.09766H84.5386"
        stroke="#FF6200" stroke-width="2" stroke-linecap="round" stroke-linejoin="round" />
    <path
        d="M86.7824 1.36328L75.6565 5.33098L49.9275 13.0701C49.9275 13.0701 48.7395 13.3176 48.6094 13.821"
        stroke="#FF6200" stroke-width="2" stroke-linecap="round" stroke-linejoin="round" />
    <path
        d="M97.0274 2.33594L86.2137 5.20292C86.2137 5.20292 88.0001 5.72341 88.2863 6.20125C88.5725 6.67908 88.5985 8.65013 88.5985 8.65013L62.063 17.2511C62.063 17.2511 57.0767 17.9764 56.8686 16.4575C56.6605 14.9387 79.788 8.37708 79.788 8.37708L87.4365 6.06472"
        stroke="#FF6200" stroke-width="2" stroke-linecap="round" stroke-linejoin="round" />
    <path
        d="M88.3196 8.743L92.5427 7.4375L99.5581 9.71573C99.5581 9.71573 86.6806 13.0691 86.2557 14.1015C85.8308 15.134 88.5711 14.7927 88.5711 14.7927C88.5711 14.7927 98.2574 11.5844 99.801 10.9956C101.345 10.4069 102.082 10.6117 102.082 10.6117L111.031 13.6152L123.631 18.1716L111.56 22.2844C111.56 22.2844 109.773 22.8731 111.066 23.351C112.358 23.8288 115.315 22.8987 115.315 22.8987L126.198 19.2382L130.022 20.7229L130.204 20.7912L130.377 23.2059L131.392 23.7605C131.392 23.7605 134.765 22.3441 135.607 22.5489C136.448 22.7537 136.656 23.1718 136.656 23.1718L106.331 33.7011C106.331 33.7011 104.154 34.2899 104.362 34.7677C104.57 35.2455 107.068 36.1159 107.068 36.1159C107.068 36.1159 107.172 34.9725 109.808 34.1448C112.444 33.3171 140.272 23.4704 140.272 23.4704C140.272 23.4704 142.795 22.4721 144.096 23.2656C144.096 23.2656 144.374 23.8203 144.729 23.6069C145.085 23.3936 148.449 22.1564 148.449 22.1564C148.449 22.1564 148.172 20.9447 148.796 20.9106C149.421 20.8765 151.641 20.2963 151.641 20.2963"
        stroke="#FF6200" stroke-width="2" stroke-linecap="round" stroke-linejoin="round" />
    <path d="M65.7188 22.5514L72.4654 20.4609L90.3985 27.3724L85.1955 29.6421" stroke="#FF6200"
        stroke-width="2" stroke-linecap="round" stroke-linejoin="round" />
    <path
        d="M130.016 20.7422L100.15 31.0326C100.15 31.0326 97.9737 31.7238 98.9883 32.5514C100.003 33.3791 104.122 33.4132 104.122 33.4132L131.386 23.7798"
        stroke="#FF6200" stroke-width="2" stroke-linecap="round" stroke-linejoin="round" />
    <path d="M123.633 18.1797V20.1173" stroke="#FF6200" stroke-width="2" stroke-linecap="round"
        stroke-linejoin="round" />
    <path d="M99.5547 9.73438V11.0998" stroke="#FF6200" stroke-width="2" stroke-linecap="round"
        stroke-linejoin="round" />
    <path
        d="M107.07 36.1398L111.415 37.8634L111.701 42.5991L147.671 29.9963L148.235 28.23L148.096 27.0781L144.168 28.2983L144.445 28.9553L111.944 40.3209"
        stroke="#FF6200" stroke-width="2" stroke-linecap="round" stroke-linejoin="round" />
    <path
        d="M110.875 53.2119V46.7868L147.322 33.7318L148.233 31.7266L148.372 30.003L148.207 28.0234"
        stroke="#FF6200" stroke-width="2" stroke-linecap="round" stroke-linejoin="round" />
    <path
        d="M152.766 21.7656L156.278 25.6821L156.625 34.4879C156.625 34.4879 161.082 33.2421 162.096 32.1755C163.111 31.1089 163.779 30.486 163.397 28.8904C163.016 27.2948 161.567 25.8613 161.567 25.8613"
        stroke="#FF6200" stroke-width="2" stroke-linecap="round" stroke-linejoin="round" />
    <path d="M129.739 13.9375L125.984 15.3203L129.002 16.3958L131.014 15.8068" stroke="#FF6200"
        stroke-width="2" stroke-linecap="round" stroke-linejoin="round" />
    <path d="M136.768 16.1016L132.484 17.4246L135.537 18.7049L140.037 17.16" stroke="#FF6200"
        stroke-width="2" stroke-linecap="round" stroke-linejoin="round" />
    <path d="M143.312 18.1719L139.219 19.8443L141.924 21.218L145.991 19.6566" stroke="#FF6200"
        stroke-width="2" stroke-linecap="round" stroke-linejoin="round" />
    <path d="M136.664 23.1928L142.249 21.1016" stroke="#FF6200" stroke-width="2"
        stroke-linecap="round" stroke-linejoin="round" />
    <path
        d="M111.531 54.4707L159.928 36.5265C159.928 36.5265 162.885 35.2807 163.51 33.2073V29.6406"
        stroke="#FF6200" stroke-width="2" stroke-linecap="round" stroke-linejoin="round" />
    <path d="M159.205 24.3438L155.719 25.0527" stroke="#FF6200" stroke-width="2"
        stroke-linecap="round" stroke-linejoin="round" />
    <path d="M155.903 22.8281L154.047 23.1963" stroke="#FF6200" stroke-width="2"
        stroke-linecap="round" stroke-linejoin="round" />
    <path
        d="M95.9568 87.1288L94.5953 119.015C94.5433 120.219 95.7834 121.063 96.9107 120.603L170.638 90.32C171.227 90.0726 171.626 89.518 171.661 88.8865L173.265 59.2952C173.326 58.1006 172.129 57.2473 170.993 57.674L97.0234 85.6612C96.3991 85.9001 95.9828 86.4718 95.9568 87.1288Z"
        stroke="#FF6200" stroke-width="2" stroke-linecap="round" stroke-linejoin="round" />
</svg>