<svg preserveAspectRatio="none" width="100%" height="100%" overflow="visible" style="display: block;" viewBox="0 0 33 56" fill="none" xmlns="http://www.w3.org/2000/svg">
<g id="_&#208;&#160;&#194;&#152;&#208;&#160;&#209;&#148;&#208;&#160;&#209;&#149;&#208;&#160;&#208;&#133;&#208;&#160;&#209;&#148;&#208;&#160;&#209;&#145;" clip-path="url(#clip0_0_84)">
<path id="Vector (Stroke)" d="M30.1596 9.86289C30.1596 8.92846 29.4362 8.16683 28.5286 8.12747C28.5042 8.12878 28.4798 8.13203 28.4552 8.13203H22.939C22.1797 8.132 21.5642 7.50512 21.564 6.73203V2.89115H11.4315V6.72474C11.4313 7.49777 10.8157 8.12474 10.0565 8.12474H4.54036C3.60171 8.12495 2.83594 8.90032 2.83594 9.86289V51.3707L2.84489 51.5484C2.93214 52.4246 3.65751 53.1087 4.54036 53.1089H28.4552C29.3939 53.1087 30.1596 52.3333 30.1596 51.3707V9.86289ZM24.314 5.33203H28.3146C28.3608 5.32727 28.4078 5.32474 28.4552 5.32474C30.9222 5.32485 32.9096 7.36354 32.9096 9.86289V51.3707C32.9096 53.8818 30.9106 55.9087 28.4552 55.9089H4.54036C2.15062 55.9087 0.210364 53.9957 0.0913086 51.604L0.0859375 51.3707V9.86289C0.0859375 7.35181 2.085 5.32495 4.54036 5.32474H8.68148V2.08724C8.68163 0.987275 9.55966 0.0911458 10.6419 0.0911458H22.3536C23.4359 0.0911458 24.3139 0.987273 24.314 2.08724V5.33203Z" fill="var(--fill-0, #FB7E00)"/>
<path id="Vector (Stroke)_2" d="M6.76042 16.3415H15.1223V12.1115H6.76042V16.3415ZM17.8723 17.3314C17.8723 18.3298 17.078 19.1415 16.0954 19.1415H5.78735C4.80489 19.1413 4.01048 18.3297 4.01042 17.3314V11.1216C4.01042 10.1232 4.80485 9.31168 5.78735 9.31146H16.0954C17.078 9.31154 17.8723 10.1231 17.8723 11.1216V17.3314Z" fill="var(--fill-0, #FB7E00)"/>
<path id="Vector (Stroke)_3" d="M6.76042 27.2717H15.1223V23.0417H6.76042V27.2717ZM17.8723 28.2616C17.8723 29.26 17.078 30.0717 16.0954 30.0717H5.78735C4.80489 30.0715 4.01048 29.2599 4.01042 28.2616V22.0518C4.01042 21.0534 4.80485 20.2419 5.78735 20.2417H16.0954C17.078 20.2417 17.8723 21.0533 17.8723 22.0518V28.2616Z" fill="var(--fill-0, #FB7E00)"/>
<path id="Vector (Stroke)_4" d="M6.76042 38.1983H15.1223V33.9682H6.76042V38.1983ZM17.8723 39.1882C17.8723 40.1866 17.078 40.9982 16.0954 40.9983H5.78735C4.80489 40.9981 4.01048 40.1865 4.01042 39.1882V32.9784C4.01042 31.98 4.80484 31.1685 5.78735 31.1682H16.0954C17.078 31.1683 17.8723 31.9799 17.8723 32.9784V39.1882Z" fill="var(--fill-0, #FB7E00)"/>
<path id="Vector (Stroke)_5" d="M6.76042 49.1212H15.1223V44.8911H6.76042V49.1212ZM17.8723 50.1111C17.8723 51.1095 17.078 51.9211 16.0954 51.9212H5.78735C4.8049 51.921 4.01048 51.1094 4.01042 50.1111V43.9013C4.01042 42.9029 4.80485 42.0914 5.78735 42.0911H16.0954C17.078 42.0912 17.8723 42.9028 17.8723 43.9013V50.1111Z" fill="var(--fill-0, #FB7E00)"/>
<path id="Vector (Stroke)_6" d="M27.2556 45.6094C28.0149 45.6094 28.6306 46.2362 28.6306 47.0094C28.6306 47.7825 28.0149 48.4093 27.2556 48.4094H20.8398C20.0805 48.4094 19.4648 47.7826 19.4648 47.0094C19.4648 46.2362 20.0805 45.6094 20.8398 45.6094H27.2556Z" fill="var(--fill-0, #FB7E00)"/>
<path id="Vector (Stroke)_7" d="M27.2556 12.8297C28.0149 12.8298 28.6306 13.4565 28.6306 14.2297C28.6306 15.0028 28.0149 15.6296 27.2556 15.6297H20.8398C20.0805 15.6297 19.4648 15.0029 19.4648 14.2297C19.4648 13.4565 20.0805 12.8297 20.8398 12.8297H27.2556Z" fill="var(--fill-0, #FB7E00)"/>
<path id="Vector (Stroke)_8" d="M22.6732 17.4973V10.9667C22.6732 10.1935 23.2888 9.56667 24.0482 9.56667C24.8076 9.56667 25.4232 10.1935 25.4232 10.9667V17.4973C25.423 18.2704 24.8075 18.8973 24.0482 18.8973C23.2889 18.8973 22.6733 18.2704 22.6732 17.4973Z" fill="var(--fill-0, #FB7E00)"/>
</g>
<defs>
<clipPath id="clip0_0_84">
<rect width="33" height="56" fill="white"/>
</clipPath>
</defs>
</svg>
