<svg preserveAspectRatio="none" width="100%" height="100%" overflow="visible" style="display: block;" viewBox="0 0 53.5 51.5" fill="none" xmlns="http://www.w3.org/2000/svg">
<g id="Group 1343">
<path id="Vector (Stroke)" fill-rule="evenodd" clip-rule="evenodd" d="M20.4914 19.4353C20.6433 18.604 21.3677 18 22.2128 18H30.8432C31.3938 18 31.9123 18.2591 32.2428 18.6995C32.5733 19.1399 32.6773 19.7102 32.5235 20.2389L31.0728 25.2253H33.75C34.3622 25.2253 34.93 25.5452 35.247 26.069C35.5641 26.5927 35.5844 27.2441 35.3006 27.7866L25.477 46.5613C25.1015 47.2789 24.2826 47.6452 23.4974 47.4466C22.7121 47.248 22.1658 46.5366 22.1765 45.7267L22.3195 34.9721H19.75C19.2308 34.9721 18.7384 34.7416 18.4059 34.3428C18.0734 33.944 17.9352 33.4182 18.0285 32.9074L20.4914 19.4353ZM23.6719 21.5L21.8489 31.4721H24.0929C24.5611 31.4721 25.0097 31.6597 25.3386 31.9929C25.6674 32.3262 25.849 32.7772 25.8428 33.2454L25.7737 38.4448L30.8593 28.7253H28.7411C28.1904 28.7253 27.6719 28.4661 27.3414 28.0257C27.0109 27.5853 26.9069 27.0151 27.0607 26.4864L28.5115 21.5H23.6719Z" fill="var(--fill-0, #FB7E00)"/>
<path id="Vector (Stroke)_2" fill-rule="evenodd" clip-rule="evenodd" d="M26.7465 2.76763e-09C27.3989 -3.65945e-05 27.9972 0.362883 28.2986 0.941528L53.3021 48.9415C53.5846 49.484 53.5635 50.1347 53.2462 50.6577C52.929 51.1806 52.3617 51.5 51.75 51.5H1.75C1.13836 51.5 0.571099 51.1807 0.253836 50.6577C-0.063428 50.1348 -0.0846521 49.4842 0.197856 48.9417L25.1944 0.941702C25.4958 0.363023 26.094 3.66e-05 26.7465 2.76763e-09ZM26.7468 5.53842L4.63441 48H48.8652L26.7468 5.53842Z" fill="var(--fill-0, #FB7E00)"/>
</g>
</svg>
