<svg preserveAspectRatio="none" width="100%" height="100%" overflow="visible" style="display: block;" viewBox="0 0 36 49" fill="none" xmlns="http://www.w3.org/2000/svg">
<path id="&#195;&#184;" d="M32.5976 0L8.34146 49H3.84146L28.0976 0H32.5976ZM0 24.7917V23.9531C0 21.1094 0.414634 18.4722 1.2439 16.0417C2.07317 13.5868 3.26829 11.4601 4.82927 9.66146C6.39024 7.83854 8.28049 6.42882 10.5 5.43229C12.7195 4.41146 15.2073 3.90104 17.9634 3.90104C20.7439 3.90104 23.2439 4.41146 25.4634 5.43229C27.7073 6.42882 29.6098 7.83854 31.1707 9.66146C32.7317 11.4601 33.9268 13.5868 34.7561 16.0417C35.5854 18.4722 36 21.1094 36 23.9531V24.7917C36 27.6354 35.5854 30.2726 34.7561 32.7031C33.9268 35.1337 32.7317 37.2604 31.1707 39.0833C29.6098 40.8819 27.7195 42.2917 25.5 43.3125C23.3049 44.309 20.8171 44.8073 18.0366 44.8073C15.2561 44.8073 12.7561 44.309 10.5366 43.3125C8.31707 42.2917 6.41463 40.8819 4.82927 39.0833C3.26829 37.2604 2.07317 35.1337 1.2439 32.7031C0.414634 30.2726 0 27.6354 0 24.7917ZM6.76829 23.9531V24.7917C6.76829 26.7604 7 28.6198 7.46341 30.3698C7.92683 32.0955 8.62195 33.6267 9.54878 34.9635C10.5 36.3003 11.6829 37.3576 13.0976 38.1354C14.5122 38.8889 16.1585 39.2656 18.0366 39.2656C19.8902 39.2656 21.5122 38.8889 22.9024 38.1354C24.3171 37.3576 25.4878 36.3003 26.4146 34.9635C27.3415 33.6267 28.0366 32.0955 28.5 30.3698C28.9878 28.6198 29.2317 26.7604 29.2317 24.7917V23.9531C29.2317 22.0087 28.9878 20.1736 28.5 18.4479C28.0366 16.6979 27.3293 15.1545 26.378 13.8177C25.4512 12.4566 24.2805 11.3872 22.8659 10.6094C21.4756 9.8316 19.8415 9.44271 17.9634 9.44271C16.1098 9.44271 14.4756 9.8316 13.061 10.6094C11.6707 11.3872 10.5 12.4566 9.54878 13.8177C8.62195 15.1545 7.92683 16.6979 7.46341 18.4479C7 20.1736 6.76829 22.0087 6.76829 23.9531Z" fill="var(--fill-0, #FB7E00)"/>
</svg>
