<svg width="140" height="54" viewBox="0 0 140 54" fill="none" xmlns="http://www.w3.org/2000/svg">
<g clip-path="url(#clip0_2132_5)">
<path d="M110.043 30.4766L100.703 39.6652" stroke="#FB7E00" stroke-width="3" stroke-linecap="round" stroke-linejoin="round"/>
<path d="M126.044 19.5611H121.148V14.75" stroke="#FB7E00" stroke-width="3" stroke-linecap="round" stroke-linejoin="round"/>
<path d="M100.062 35.4844H104.958V40.2955" stroke="#FB7E00" stroke-width="3" stroke-linecap="round" stroke-linejoin="round"/>
<path d="M100.703 15.3828L110.043 24.5643" stroke="#FB7E00" stroke-width="3" stroke-linecap="round" stroke-linejoin="round"/>
<path d="M104.958 14.75V19.5611H100.062" stroke="#FB7E00" stroke-width="3" stroke-linecap="round" stroke-linejoin="round"/>
<path d="M121.148 40.2955V35.4844H126.044" stroke="#FB7E00" stroke-width="3" stroke-linecap="round" stroke-linejoin="round"/>
<path d="M108.805 27.5156H95.5938" stroke="#FB7E00" stroke-width="3" stroke-linecap="round" stroke-linejoin="round"/>
<path d="M127.972 30.9212L124.508 27.5228L127.972 24.1172" stroke="#FB7E00" stroke-width="3" stroke-linecap="round" stroke-linejoin="round"/>
<path d="M98.1328 24.1172L101.597 27.5228L98.1328 30.9212" stroke="#FB7E00" stroke-width="3" stroke-linecap="round" stroke-linejoin="round"/>
<path d="M113.055 10.3516V23.3456" stroke="#FB7E00" stroke-width="3" stroke-linecap="round" stroke-linejoin="round"/>
<path d="M116.515 12.8516L113.05 16.2564L109.586 12.8516" stroke="#FB7E00" stroke-width="3" stroke-linecap="round" stroke-linejoin="round"/>
<path d="M109.586 42.179L113.05 38.7812L116.515 42.179" stroke="#FB7E00" stroke-width="3" stroke-linecap="round" stroke-linejoin="round"/>
<path d="M113.054 31.697C115.4 31.697 117.302 29.8271 117.302 27.5204C117.302 25.2137 115.4 23.3438 113.054 23.3438C110.707 23.3438 108.805 25.2137 108.805 27.5204C108.805 29.8271 110.707 31.697 113.054 31.697Z" stroke="#FB7E00" stroke-width="3" stroke-linecap="round" stroke-linejoin="round"/>
<path d="M113.055 31.7031V44.69" stroke="#FB7E00" stroke-width="3" stroke-linecap="round" stroke-linejoin="round"/>
<path d="M130.515 27.5156H117.289" stroke="#FB7E00" stroke-width="3" stroke-linecap="round" stroke-linejoin="round"/>
<path d="M116.047 30.4609L125.402 39.6638" stroke="#FB7E00" stroke-width="3" stroke-linecap="round" stroke-linejoin="round"/>
<path d="M125.403 15.3828L116.062 24.5643" stroke="#FB7E00" stroke-width="3" stroke-linecap="round" stroke-linejoin="round"/>
<path d="M103.133 6.8823C109.132 4.12699 115.719 4.10558 121.435 6.28984" stroke="#FB7E00" stroke-width="3" stroke-linecap="round" stroke-linejoin="round"/>
<path d="M117.422 2.07031L121.525 6.33891" stroke="#FB7E00" stroke-width="3" stroke-linecap="round" stroke-linejoin="round"/>
<path d="M121.525 6.34375L115.664 7.49299" stroke="#FB7E00" stroke-width="3" stroke-linecap="round" stroke-linejoin="round"/>
<path d="M134.062 17.9219C136.866 23.8192 136.888 30.2947 134.665 35.9136" stroke="#FB7E00" stroke-width="3" stroke-linecap="round" stroke-linejoin="round"/>
<path d="M117.422 2.07031L121.525 6.33891" stroke="#FB7E00" stroke-width="3" stroke-linecap="round" stroke-linejoin="round"/>
<path d="M121.525 6.34375L115.664 7.49299" stroke="#FB7E00" stroke-width="3" stroke-linecap="round" stroke-linejoin="round"/>
<path d="M138.904 32.2422L134.539 36.2467" stroke="#FB7E00" stroke-width="3" stroke-linecap="round" stroke-linejoin="round"/>
<path d="M134.539 36.2531L133.398 30.4844" stroke="#FB7E00" stroke-width="3" stroke-linecap="round" stroke-linejoin="round"/>
<path d="M138.904 32.2422L134.539 36.2467" stroke="#FB7E00" stroke-width="3" stroke-linecap="round" stroke-linejoin="round"/>
<path d="M134.539 36.2531L133.398 30.4844" stroke="#FB7E00" stroke-width="3" stroke-linecap="round" stroke-linejoin="round"/>
<path d="M87.0859 23.0375L91.3929 18.9688" stroke="#FB7E00" stroke-width="3" stroke-linecap="round" stroke-linejoin="round"/>
<path d="M91.3906 18.9688L92.6108 24.7161" stroke="#FB7E00" stroke-width="3" stroke-linecap="round" stroke-linejoin="round"/>
<path d="M87.0859 23.0375L91.3929 18.9688" stroke="#FB7E00" stroke-width="3" stroke-linecap="round" stroke-linejoin="round"/>
<path d="M91.3906 18.9688L92.6108 24.7161" stroke="#FB7E00" stroke-width="3" stroke-linecap="round" stroke-linejoin="round"/>
<path d="M122.834 48.3359C116.835 51.0912 110.247 51.1127 104.531 48.9284" stroke="#FB7E00" stroke-width="3" stroke-linecap="round" stroke-linejoin="round"/>
<path d="M117.422 2.07031L121.525 6.33891" stroke="#FB7E00" stroke-width="3" stroke-linecap="round" stroke-linejoin="round"/>
<path d="M121.525 6.34375L115.664 7.49299" stroke="#FB7E00" stroke-width="3" stroke-linecap="round" stroke-linejoin="round"/>
<path d="M109.989 47.375L104.172 48.717" stroke="#FB7E00" stroke-width="3" stroke-linecap="round" stroke-linejoin="round"/>
<path d="M104.172 48.7188L108.421 52.8517" stroke="#FB7E00" stroke-width="3" stroke-linecap="round" stroke-linejoin="round"/>
<path d="M109.989 47.375L104.172 48.717" stroke="#FB7E00" stroke-width="3" stroke-linecap="round" stroke-linejoin="round"/>
<path d="M104.172 48.7188L108.421 52.8517" stroke="#FB7E00" stroke-width="3" stroke-linecap="round" stroke-linejoin="round"/>
<path d="M109.989 47.375L104.172 48.717" stroke="#FB7E00" stroke-width="3" stroke-linecap="round" stroke-linejoin="round"/>
<path d="M104.172 48.7188L108.421 52.8517" stroke="#FB7E00" stroke-width="3" stroke-linecap="round" stroke-linejoin="round"/>
<path d="M91.8966 37.2886C89.0931 31.3913 89.0713 24.9157 91.2937 19.2969" stroke="#FB7E00" stroke-width="3" stroke-linecap="round" stroke-linejoin="round"/>
<path d="M117.422 2.07031L121.525 6.33891" stroke="#FB7E00" stroke-width="3" stroke-linecap="round" stroke-linejoin="round"/>
<path d="M121.525 6.34375L115.664 7.49299" stroke="#FB7E00" stroke-width="3" stroke-linecap="round" stroke-linejoin="round"/>
</g>
<g clip-path="url(#clip1_2132_5)">
<path d="M69.4847 8.05469H20.9198C19.4927 8.05469 18.3438 9.3061 18.3438 10.8558V43.1452C18.3438 44.6949 19.5001 45.9464 20.9198 45.9464H69.4774C70.319 45.9464 71.1387 45.6553 71.8193 45.1097L78.3034 39.8857C79.306 39.0781 79.8915 37.8049 79.8915 36.4516V17.5494C79.8915 16.1962 79.2987 14.9229 78.3034 14.1153L71.8193 8.89139C71.1387 8.34571 70.319 8.05469 69.4774 8.05469H69.4847Z" stroke="#FB7E00" stroke-width="3" stroke-linecap="round" stroke-linejoin="round"/>
<path d="M59.722 13.0078H25.75V40.9973H59.722V13.0078Z" stroke="#FB7E00" stroke-width="3" stroke-linecap="round" stroke-linejoin="round"/>
<path d="M29.7439 1.09375H39.2286C40.0409 1.09375 40.7069 1.74856 40.7069 2.56343V8.05656H28.2656V2.56343C28.2656 1.75584 28.9243 1.09375 29.7439 1.09375Z" stroke="#FB7E00" stroke-width="3" stroke-linecap="round" stroke-linejoin="round"/>
<path d="M59.722 19.0781H25.75V34.9318H59.722V19.0781Z" stroke="#FB7E00" stroke-width="3" stroke-linecap="round" stroke-linejoin="round"/>
<path d="M59.722 8.05469H25.75V45.9536H59.722V8.05469Z" stroke="#FB7E00" stroke-width="3" stroke-linecap="round" stroke-linejoin="round"/>
<path d="M12.6846 16.2885H18.3491V37.7154H12.6846C11.704 37.7154 10.9062 36.9223 10.9062 35.9474V18.0492C10.9062 17.0743 11.704 16.2812 12.6846 16.2812V16.2885Z" stroke="#FB7E00" stroke-width="3" stroke-linecap="round" stroke-linejoin="round"/>
<path d="M24.7266 52.9062H68.271" stroke="#FB7E00" stroke-width="3" stroke-linecap="round" stroke-linejoin="round"/>
<path d="M32.9375 52.9087V45.9531" stroke="#FB7E00" stroke-width="3" stroke-linecap="round" stroke-linejoin="round"/>
<path d="M59.7266 52.9087V45.9531" stroke="#FB7E00" stroke-width="3" stroke-linecap="round" stroke-linejoin="round"/>
<path d="M3.8606 24.0078C2.33837 24.0078 1.10156 25.3465 1.10156 27.0054C1.10156 28.6642 2.33837 30.003 3.8606 30.003H10.9155V24.0151H3.8606V24.0078Z" stroke="#FB7E00" stroke-width="3" stroke-linecap="round" stroke-linejoin="round"/>
</g>
<defs>
<clipPath id="clip0_2132_5">
<rect width="54" height="52.9256" fill="white" transform="translate(86 1)"/>
</clipPath>
<clipPath id="clip1_2132_5">
<rect width="81" height="54" fill="white"/>
</clipPath>
</defs>
</svg>
