<svg width="83" height="61" viewBox="0 0 83 61" fill="none" xmlns="http://www.w3.org/2000/svg">
<g clip-path="url(#clip0_2119_834)">
<path d="M81.7637 4.24246L78.6011 1.23438H12.0068L1.23438 30.4029H31.8467L40.3954 7.24232H78.6011L81.7637 4.24246Z" stroke="#FB7E00" stroke-width="3" stroke-linecap="round" stroke-linejoin="round"/>
<path d="M15.0762 7.40625L8.27344 25.8164H23.6002L30.3947 7.40625" stroke="#FB7E00" stroke-width="3" stroke-linecap="round" stroke-linejoin="round"/>
<path d="M19.9664 7.40625L13.1719 25.8164" stroke="#FB7E00" stroke-width="3" stroke-linecap="round" stroke-linejoin="round"/>
<path d="M35.2958 7.40625L26.8047 30.4025" stroke="#FB7E00" stroke-width="3" stroke-linecap="round" stroke-linejoin="round"/>
<path d="M43.5454 7.24219H13.1719" stroke="#FB7E00" stroke-width="3" stroke-linecap="round" stroke-linejoin="round"/>
<path d="M69.3783 1.23438H46.3594V7.24232H69.3783V1.23438Z" stroke="#FB7E00" stroke-width="3" stroke-linecap="round" stroke-linejoin="round"/>
<path d="M33.3281 12.5334C33.3528 12.4759 38.1543 12.5334 38.1543 12.5334" stroke="#FB7E00" stroke-width="3" stroke-linecap="round" stroke-linejoin="round"/>
<path d="M31.0547 18.9162C31.0794 18.8587 35.8808 18.9162 35.8808 18.9162" stroke="#FB7E00" stroke-width="3" stroke-linecap="round" stroke-linejoin="round"/>
<path d="M28.7188 25.3303C28.7435 25.2727 33.5449 25.3303 33.5449 25.3303" stroke="#FB7E00" stroke-width="3" stroke-linecap="round" stroke-linejoin="round"/>
<path d="M28.7598 30.3984V35.6996C28.7598 38.8309 26.2149 41.3623 23.0853 41.3623H6.10319C4.40662 41.3623 3.03125 42.7349 3.03125 44.4279C3.03125 46.121 4.40662 47.4936 6.10319 47.4936H20.4252C22.1217 47.4936 23.4971 48.8661 23.4971 50.5592C23.4971 52.2522 22.1217 53.6248 20.4252 53.6248H6.10319C4.40662 53.6248 3.03125 54.9973 3.03125 56.6904C3.03125 58.3835 4.40662 59.756 6.10319 59.756H24.1724" stroke="#FB7E00" stroke-width="3" stroke-linecap="round" stroke-linejoin="round"/>
</g>
<defs>
<clipPath id="clip0_2119_834">
<rect width="83" height="61" fill="white"/>
</clipPath>
</defs>
</svg>
