<svg width="65" height="68" viewBox="0 0 65 68" fill="none" xmlns="http://www.w3.org/2000/svg">
<g clip-path="url(#clip0_2119_897)">
<path d="M26.5082 12.9598C25.5695 11.2226 24.6749 9.5186 23.7362 7.84225C23.3662 7.18389 22.9299 6.55871 22.4716 5.95014C21.8034 5.05387 21.8697 4.23506 22.7588 3.56563C23.2944 3.16176 23.8742 2.83534 24.5921 2.81874C24.8019 2.81874 25.0449 2.60851 25.205 2.437C25.7517 1.84502 26.21 1.15899 26.8119 0.633402C27.6568 -0.102421 28.3139 0.107814 28.7943 1.12026C28.9103 1.36369 29.0318 1.60712 29.1257 1.80076C31.2903 1.12579 33.3997 0.882364 35.5147 1.77863C36.2105 2.07185 36.8179 2.50339 37.2486 3.15069C37.3922 3.36646 37.5468 3.59329 37.7511 3.74267C38.0327 3.9529 38.342 4.16314 38.6733 4.25166C39.5458 4.47849 40.3189 4.87683 41.0533 5.38582C41.2742 5.54073 41.5558 5.65138 41.8264 5.69564C42.5222 5.80629 43.1572 5.9944 43.5658 6.64723C43.9634 7.28347 43.9137 7.88098 43.3228 8.35124C43.0302 8.58361 42.6878 8.77172 42.3399 8.91556C40.8435 9.5186 39.1427 10.8464 38.3144 12.141C38.7285 12.047 39.0709 11.975 39.4077 11.8865C40.0814 11.7095 40.6391 11.9695 40.8158 12.5449C40.9981 13.1535 40.6723 13.7012 39.9931 13.9003C39.7777 13.9667 39.5513 14.0165 39.3304 14.0719C39.3359 14.1106 39.3304 14.1548 39.347 14.1659C42.2405 16.1742 44.2174 18.9294 45.747 22.0442C47.122 24.8436 47.9945 27.7869 48.0939 30.9294C48.2209 34.9128 47.122 38.4259 44.0462 41.1313C42.0583 42.8796 39.6783 43.8423 37.1216 44.3734C32.8254 45.2641 28.5624 45.1479 24.3822 43.7703C21.08 42.686 18.4516 40.7275 16.8778 37.5352C15.6795 35.1009 15.3703 32.5062 15.6684 29.8506C16.2427 24.7109 18.3135 20.224 21.7758 16.3955C23.0072 15.0345 24.4706 13.9667 26.1217 13.159C26.2321 13.1037 26.337 13.0483 26.5027 12.9598H26.5082ZM32.588 42.863C33.5102 42.7413 35.1668 42.5974 36.7958 42.2876C38.977 41.8727 41.0036 41.0207 42.6989 39.5324C45.101 37.4135 46.0894 34.6528 46.0066 31.5435C45.863 25.9391 43.6873 21.1535 39.7501 17.2143C37.8063 15.2669 35.3877 14.1438 32.6101 13.9667C28.844 13.7233 25.7241 15.1784 23.2447 17.9225C19.937 21.5795 17.9877 25.8948 17.7061 30.8519C17.43 35.798 19.5781 39.7537 24.6197 41.6403C26.95 42.5145 29.3797 42.7911 32.588 42.8685V42.863ZM40.3244 7.5601C39.7777 6.99578 39.2034 6.54765 38.4911 6.4038C37.2265 6.14377 36.3264 5.38029 35.5754 4.40657C35.222 3.94737 34.7858 3.58776 34.2391 3.51584C33.3997 3.40519 32.5438 3.33326 31.6989 3.38859C30.9921 3.43285 30.3019 3.68181 29.6006 3.82012C28.3692 4.06355 27.6126 3.65415 27.1212 2.50892C27.0825 2.41487 27.0273 2.32635 26.9776 2.23783C27.1101 2.97365 27.1433 3.64862 26.5027 4.2074C25.9394 4.69426 25.2934 4.91556 24.5976 4.98748C25.9008 7.42732 27.193 9.83395 28.4851 12.2461C28.5459 12.2406 28.6066 12.2406 28.6673 12.224C30.8596 11.6873 33.0463 11.6818 35.2275 12.2904C35.5257 12.3734 35.6306 12.2185 35.7687 12.0138C36.967 10.2323 38.3696 8.66106 40.3299 7.5601H40.3244Z" fill="#FB7E00" stroke="#FB7E00" stroke-width="0.75" stroke-miterlimit="10"/>
<path d="M24.1448 58.4588C24.5424 58.4588 24.8627 58.4477 25.1774 58.4588C25.7738 58.4864 26.188 58.8848 26.1935 59.4823C26.2045 61.9166 26.199 64.3454 26.1935 66.7797C26.1935 67.3108 25.818 67.6981 25.2934 67.7755C25.1609 67.7921 25.0173 67.7921 24.8848 67.7921C19.5891 67.7921 14.288 67.7921 8.99233 67.7921C8.87084 67.7921 8.74936 67.7976 8.62787 67.7921C8.0591 67.7368 7.66151 67.344 7.65599 66.7686C7.64495 64.3509 7.64495 61.9332 7.65599 59.521C7.65599 58.8737 8.08119 58.4809 8.73279 58.4699C9.15247 58.4588 9.57766 58.4699 10.1299 58.4699C9.88138 58.16 9.72676 57.9221 9.52244 57.7285C7.37437 55.687 5.22077 53.651 3.06165 51.6206C1.15102 49.8225 0.22884 47.5874 0.212274 44.9927C0.190186 40.0245 0.212274 35.0508 0.234362 30.0826C0.234362 29.308 0.289583 28.5169 0.455244 27.7645C0.792089 26.2264 1.85784 25.8115 3.1997 26.658C3.61938 26.9235 4.01696 27.261 4.34276 27.6372C5.02198 28.4173 5.6791 29.225 6.29757 30.0604C6.94365 30.9346 7.25288 31.9636 7.16453 33.0425C7.05409 34.3813 7.31915 35.6206 7.82718 36.8378C7.86583 36.9373 7.91001 37.0369 7.93209 37.1421C8.06462 37.8945 8.47878 38.243 9.26291 38.4477C11.1514 38.9456 12.4381 40.2845 13.41 41.9111C14.1554 43.1559 14.796 44.456 15.4918 45.7285C15.7679 46.2375 16.0882 46.7243 16.3587 47.2389C16.8668 48.2015 17.6675 48.8156 18.6283 49.2859C19.5836 49.7506 20.5389 50.243 21.4445 50.8018C23.0901 51.8143 23.9018 53.3357 23.9847 55.2665C24.0289 56.3177 24.0896 57.3689 24.1448 58.4754V58.4588ZM22.0409 58.4588C21.9747 57.3302 21.947 56.279 21.8532 55.2278C21.7593 54.1545 21.2789 53.2416 20.3733 52.6497C19.5229 52.0964 18.6173 51.604 17.7006 51.1614C16.3974 50.5362 15.3206 49.6842 14.6193 48.3952C13.9566 47.1725 13.294 45.9498 12.6037 44.7492C12.0957 43.864 11.5877 42.9733 10.9913 42.1434C10.2293 41.0867 9.18008 40.4284 7.87135 40.2347C7.74434 40.2181 7.58421 40.2071 7.47929 40.2624C6.4301 40.788 6.13743 42.066 6.84977 42.9954C6.98782 43.178 7.15349 43.3385 7.31362 43.4989C8.9868 45.1752 10.66 46.8516 12.3276 48.5279C12.797 48.9982 12.8191 49.6123 12.4105 50.0438C11.9798 50.4975 11.3668 50.4975 10.8643 50.0328C10.5937 49.7838 10.3452 49.5183 10.0857 49.2582C8.56161 47.7313 7.03752 46.2154 5.52448 44.6829C4.86184 44.0079 4.32068 43.2499 4.18262 42.2817C3.98383 40.8654 4.68513 39.8253 5.70119 38.9899C6.12639 38.6414 6.17056 38.3703 5.97729 37.8945C5.33673 36.3454 4.8784 34.7575 5.05511 33.0369C5.13242 32.2734 4.85631 31.5653 4.35933 30.9567C3.90652 30.3979 3.48132 29.817 3.01747 29.2693C2.74689 28.9539 2.42661 28.6829 2.12842 28.3952C2.09529 28.4173 2.06216 28.4394 2.02903 28.4616C2.4984 29.8779 2.29409 31.3385 2.30513 32.7769C2.33274 36.5833 2.31617 40.3952 2.31617 44.2015C2.31617 44.3564 2.31617 44.5058 2.30513 44.6607C2.22782 46.7963 2.92912 48.6165 4.49738 50.0881C6.67859 52.1407 8.87636 54.1766 11.0134 56.2679C11.5049 56.7492 11.8251 57.4353 12.1454 58.066C12.2945 58.3537 12.405 58.4643 12.7308 58.4643C15.6464 58.4533 18.562 58.4588 21.4777 58.4588C21.6433 58.4588 21.809 58.4588 22.0354 58.4588H22.0409ZM9.77094 65.6566H24.062V60.5999H9.77094V65.6566Z" fill="#FB7E00" stroke="#FB7E00" stroke-width="0.75" stroke-miterlimit="10"/>
<path d="M54.8872 58.4648C55.4228 58.4648 55.8314 58.4648 56.2401 58.4648C56.9469 58.4759 57.35 58.8632 57.3555 59.5769C57.3611 61.9614 57.3611 64.3459 57.3555 66.7359C57.3555 67.3666 56.9524 67.7594 56.3284 67.7982C56.1462 67.8092 55.964 67.7982 55.7817 67.7982C50.5745 67.7982 45.3727 67.7982 40.1654 67.7982C39.1493 67.7982 38.818 67.4607 38.8125 66.4538C38.8125 64.2352 38.8125 62.0167 38.8125 59.8037C38.8125 58.7968 39.1438 58.4704 40.1599 58.4648C40.3697 58.4648 40.5851 58.4648 40.8501 58.4648C40.8777 58.1052 40.9054 57.7788 40.9274 57.4469C40.9882 56.5008 41.0213 55.5547 41.1042 54.6087C41.2422 53.1038 41.9601 51.8922 43.2025 51.0623C44.1247 50.4427 45.0966 49.8895 46.1016 49.4192C47.2778 48.8659 48.211 48.1191 48.8184 46.9517C49.6247 45.4081 50.4585 43.8812 51.3144 42.3653C52.1317 40.9213 53.1477 39.6488 54.6553 38.8742C55.1633 38.6142 55.7376 38.4814 56.2787 38.2712C56.4499 38.2048 56.7039 38.1108 56.7481 37.978C57.1733 36.711 57.8359 35.5105 57.858 34.1274C57.8636 33.6073 57.8359 33.0872 57.8525 32.5672C57.8801 31.5879 58.2059 30.7027 58.7913 29.9337C59.4318 29.0983 60.1 28.2795 60.7902 27.4884C61.2651 26.9462 61.8339 26.5036 62.5573 26.3155C63.3966 26.0997 64.0372 26.3542 64.3354 27.1619C64.5452 27.7263 64.6833 28.3404 64.7219 28.9379C64.7937 29.989 64.7661 31.0458 64.7716 32.1025C64.7827 36.4012 64.8103 40.6944 64.7827 44.9932C64.7606 47.7871 63.6672 50.0831 61.5633 51.9641C59.4208 53.8729 57.3887 55.9033 55.3124 57.8895C55.1743 58.0222 55.0804 58.2048 54.8872 58.4648ZM42.9596 58.3874C43.0369 58.4316 43.0479 58.4482 43.059 58.4482C46.19 58.4538 49.3154 58.4593 52.4464 58.4482C52.5679 58.4482 52.717 58.2712 52.7943 58.1384C53.1312 57.5796 53.341 56.9047 53.7828 56.4621C55.9364 54.3431 58.1452 52.274 60.354 50.2103C61.1271 49.4911 61.7566 48.6834 62.1597 47.7041C62.6346 46.5644 62.6898 45.3749 62.6788 44.1523C62.6457 40.1025 62.6567 36.0471 62.6733 31.9973C62.6733 30.8134 62.5242 29.6184 62.9218 28.4344C62.6677 28.5893 62.4303 28.7442 62.2536 28.9545C61.7014 29.6073 61.1768 30.2823 60.6356 30.9406C60.1442 31.5326 59.9454 32.2242 59.9178 32.9766C59.9178 33.0098 59.9178 33.0375 59.9178 33.0707C60.1221 34.7193 59.6637 36.2463 59.0784 37.7567C58.7857 38.5146 58.8133 38.5146 59.3932 39.0513C60.3374 39.9254 61.0111 40.9379 60.8068 42.3099C60.6632 43.2781 60.111 44.0305 59.4484 44.7C57.6979 46.4704 55.9364 48.2297 54.1748 49.989C53.6668 50.498 53.0373 50.5202 52.5955 50.061C52.1593 49.6128 52.2035 48.9932 52.717 48.4787C53.6889 47.505 54.6608 46.5368 55.6271 45.5575C56.483 44.6889 57.3831 43.848 58.1728 42.924C58.8962 42.072 58.5207 40.7221 57.5101 40.2408C57.4328 40.202 57.3279 40.191 57.2506 40.2131C56.6487 40.4123 56.0026 40.5451 55.4559 40.8438C54.346 41.4469 53.6502 42.4704 53.0483 43.5437C52.2035 45.0485 51.3752 46.5644 50.5745 48.0914C49.7682 49.6239 48.5313 50.6363 46.9686 51.3224C46.2341 51.6433 45.5218 52.0471 44.8426 52.4787C43.8596 53.0983 43.2688 54.0167 43.1584 55.1841C43.059 56.2463 43.0313 57.3141 42.9706 58.3763L42.9596 58.3874ZM55.2185 65.6626V60.6059H40.9274V65.6626H55.2185Z" fill="#FB7E00" stroke="#FB7E00" stroke-width="0.75" stroke-miterlimit="10"/>
<path d="M30.4905 20.5859H32.3901V21.532C34.1406 22.0189 34.9579 23.2305 35.1677 24.9953C34.4112 25.1337 33.6988 25.2664 32.981 25.3937C32.854 25.0064 32.7656 24.6357 32.611 24.2982C32.3459 23.7229 31.9318 23.496 31.3796 23.5514C30.7942 23.6067 30.4905 23.9884 30.3359 24.503C30.0985 25.2664 30.2641 25.9801 30.6286 26.6662C31.0593 27.4684 31.733 28.0438 32.4177 28.6025C33.5553 29.5375 34.5051 30.6164 35.0131 32.0272C35.4052 33.1115 35.3499 34.1904 34.9137 35.2471C34.4554 36.348 33.5829 36.9566 32.4122 37.2111V38.2568H30.5126C30.5126 38.2568 30.4629 38.2125 30.4629 38.1904C30.5899 37.4324 30.2255 37.0894 29.5518 36.7519C28.3425 36.1378 27.8952 34.9373 27.6577 33.6648C27.6191 33.4711 27.6025 33.272 27.5859 33.0728C27.5859 33.0285 27.608 32.9843 27.6301 32.9013C28.3314 32.8515 29.0438 32.8017 29.7451 32.7519C29.8721 33.2111 29.9549 33.6482 30.115 34.0576C30.4408 34.8819 31.0262 35.236 31.7275 35.0866C32.3073 34.9649 32.7877 34.4227 32.8761 33.8086C33.0196 32.8128 32.6331 32.0161 31.9373 31.3411C31.1697 30.5942 30.3801 29.875 29.6181 29.1226C28.7566 28.2706 28.0884 27.3079 27.8731 26.0742C27.5694 24.3204 28.3204 22.4725 29.7285 21.8473C30.2917 21.5984 30.5458 21.3218 30.4464 20.7243C30.4408 20.6855 30.474 20.6413 30.4961 20.5859H30.4905Z" fill="#FB7E00" stroke="#FB7E00" stroke-width="0.75" stroke-miterlimit="10"/>
<path d="M20.6323 62.0699C20.9692 62.0699 21.306 62.0588 21.6373 62.0699C22.2779 62.092 22.7141 62.5401 22.7031 63.1432C22.692 63.7352 22.2669 64.1612 21.6429 64.1722C20.9692 64.1833 20.301 64.1888 19.6273 64.1722C19.0144 64.1556 18.5781 63.7075 18.5781 63.1266C18.5781 62.5567 19.0199 62.0975 19.6218 62.0699C19.9586 62.0533 20.2955 62.0699 20.6268 62.0699H20.6323Z" fill="#FB7E00" stroke="#FB7E00" stroke-width="0.75" stroke-miterlimit="10"/>
<path d="M44.3488 64.1745C43.9954 64.1745 43.6475 64.1911 43.2941 64.1745C42.7088 64.1469 42.3002 63.7098 42.2891 63.1344C42.2836 62.5701 42.6977 62.0998 43.2776 62.0832C43.9954 62.0556 44.7133 62.0556 45.4256 62.0832C45.9944 62.1054 46.4196 62.5922 46.4141 63.1455C46.4086 63.6987 45.9723 64.1524 45.3925 64.1801C45.0446 64.1967 44.6912 64.1801 44.3378 64.1801L44.3488 64.1745Z" fill="#FB7E00" stroke="#FB7E00" stroke-width="0.75" stroke-miterlimit="10"/>
</g>
<defs>
<clipPath id="clip0_2119_897">
<rect width="65" height="68" fill="white"/>
</clipPath>
</defs>
</svg>
