<svg width="52" height="53" viewBox="0 0 52 53" fill="none" xmlns="http://www.w3.org/2000/svg">
<g clip-path="url(#clip0_2119_776)">
<path d="M23.7007 29.5078L14.4922 38.7093" stroke="#FB7E00" stroke-width="2" stroke-linecap="round" stroke-linejoin="round"/>
<path d="M13.8594 34.5234H18.6856V39.3423" stroke="#FB7E00" stroke-width="2" stroke-linecap="round" stroke-linejoin="round"/>
<path d="M14.4922 14.3984L23.7007 23.5928" stroke="#FB7E00" stroke-width="2" stroke-linecap="round" stroke-linejoin="round"/>
<path d="M18.6856 13.7656V18.5845H13.8594" stroke="#FB7E00" stroke-width="2" stroke-linecap="round" stroke-linejoin="round"/>
<path d="M22.4782 26.5547H9.45312" stroke="#FB7E00" stroke-width="2" stroke-linecap="round" stroke-linejoin="round"/>
<path d="M11.9609 23.1406L15.3765 26.551L11.9609 29.9542" stroke="#FB7E00" stroke-width="2" stroke-linecap="round" stroke-linejoin="round"/>
<path d="M26.6641 9.35938V22.3717" stroke="#FB7E00" stroke-width="2" stroke-linecap="round" stroke-linejoin="round"/>
<path d="M30.0812 11.8672L26.6656 15.2775L23.25 11.8672" stroke="#FB7E00" stroke-width="2" stroke-linecap="round" stroke-linejoin="round"/>
<path d="M23.25 41.2313L26.6656 37.8281L30.0812 41.2313" stroke="#FB7E00" stroke-width="2" stroke-linecap="round" stroke-linejoin="round"/>
<path d="M26.6655 30.74C28.979 30.74 30.8544 28.8675 30.8544 26.5575C30.8544 24.2476 28.979 22.375 26.6655 22.375C24.352 22.375 22.4766 24.2476 22.4766 26.5575C22.4766 28.8675 24.352 30.74 26.6655 30.74Z" stroke="#FB7E00" stroke-width="2" stroke-linecap="round" stroke-linejoin="round"/>
<path d="M26.6641 30.7344V43.7395" stroke="#FB7E00" stroke-width="2" stroke-linecap="round" stroke-linejoin="round"/>
<path d="M16.8906 5.88577C22.8052 3.12603 29.2999 3.10458 34.9352 5.29236" stroke="#FB7E00" stroke-width="2" stroke-linecap="round" stroke-linejoin="round"/>
<path d="M30.9844 1.07031L35.0301 5.34577" stroke="#FB7E00" stroke-width="2" stroke-linecap="round" stroke-linejoin="round"/>
<path d="M35.0286 5.34375L29.25 6.49484" stroke="#FB7E00" stroke-width="2" stroke-linecap="round" stroke-linejoin="round"/>
<path d="M30.9844 1.07031L35.0301 5.34577" stroke="#FB7E00" stroke-width="2" stroke-linecap="round" stroke-linejoin="round"/>
<path d="M35.0286 5.34375L29.25 6.49484" stroke="#FB7E00" stroke-width="2" stroke-linecap="round" stroke-linejoin="round"/>
<path d="M1.07031 22.0675L5.31653 17.9922" stroke="#FB7E00" stroke-width="2" stroke-linecap="round" stroke-linejoin="round"/>
<path d="M5.32031 17.9922L6.52329 23.7476" stroke="#FB7E00" stroke-width="2" stroke-linecap="round" stroke-linejoin="round"/>
<path d="M1.07031 22.0675L5.31653 17.9922" stroke="#FB7E00" stroke-width="2" stroke-linecap="round" stroke-linejoin="round"/>
<path d="M5.32031 17.9922L6.52329 23.7476" stroke="#FB7E00" stroke-width="2" stroke-linecap="round" stroke-linejoin="round"/>
<path d="M32.0504 48.8995C27.3888 50.0435 22.5841 49.6645 18.2734 47.9844" stroke="#FB7E00" stroke-width="2" stroke-linecap="round" stroke-linejoin="round"/>
<path d="M30.9844 1.07031L35.0301 5.34577" stroke="#FB7E00" stroke-width="2" stroke-linecap="round" stroke-linejoin="round"/>
<path d="M35.0286 5.34375L29.25 6.49484" stroke="#FB7E00" stroke-width="2" stroke-linecap="round" stroke-linejoin="round"/>
<path d="M23.6497 46.4453L17.9141 47.7894" stroke="#FB7E00" stroke-width="2" stroke-linecap="round" stroke-linejoin="round"/>
<path d="M17.9141 47.7891L22.103 51.9287" stroke="#FB7E00" stroke-width="2" stroke-linecap="round" stroke-linejoin="round"/>
<path d="M23.6497 46.4453L17.9141 47.7894" stroke="#FB7E00" stroke-width="2" stroke-linecap="round" stroke-linejoin="round"/>
<path d="M17.9141 47.7891L22.103 51.9287" stroke="#FB7E00" stroke-width="2" stroke-linecap="round" stroke-linejoin="round"/>
<path d="M23.6497 46.4453L17.9141 47.7894" stroke="#FB7E00" stroke-width="2" stroke-linecap="round" stroke-linejoin="round"/>
<path d="M17.9141 47.7891L22.103 51.9287" stroke="#FB7E00" stroke-width="2" stroke-linecap="round" stroke-linejoin="round"/>
<path d="M5.81096 36.3373C3.04698 30.4317 3.0255 23.947 5.21663 18.3203" stroke="#FB7E00" stroke-width="2" stroke-linecap="round" stroke-linejoin="round"/>
<path d="M30.9844 1.07031L35.0301 5.34577" stroke="#FB7E00" stroke-width="2" stroke-linecap="round" stroke-linejoin="round"/>
<path d="M35.0286 5.34375L29.25 6.49484" stroke="#FB7E00" stroke-width="2" stroke-linecap="round" stroke-linejoin="round"/>
<path d="M50.5631 41.9135C49.3529 37.4235 45.4361 31.2677 43.8822 28.9369C43.5815 28.4794 42.9084 28.4794 42.6005 28.9369C41.0467 31.2677 37.1298 37.4307 35.9197 41.9135C35.4256 43.4506 35.4041 45.188 36.0343 46.9825C36.7861 49.1274 38.519 50.8147 40.6815 51.5154C46.0089 53.2384 50.9282 49.3204 50.9282 44.2585C50.9282 43.4435 50.7994 42.657 50.5631 41.9206V41.9135Z" stroke="#FB7E00" stroke-width="2" stroke-linecap="round" stroke-linejoin="round"/>
<path d="M43.2442 49.2833C40.4587 49.2833 38.2031 47.0312 38.2031 44.25" stroke="#FB7E00" stroke-width="2" stroke-linecap="round" stroke-linejoin="round"/>
<path d="M50.5631 14.39C49.3529 9.90007 45.4361 3.74426 43.8822 1.41349C43.5815 0.955919 42.9084 0.955919 42.6005 1.41349C41.0467 3.74426 37.1298 9.90722 35.9197 14.39C35.4256 15.9272 35.4041 17.6645 36.0343 19.4591C36.7861 21.604 38.519 23.2913 40.6815 23.9919C46.0089 25.715 50.9282 21.797 50.9282 16.7351C50.9282 15.92 50.7994 15.1336 50.5631 14.3972V14.39Z" stroke="#FB7E00" stroke-width="2" stroke-linecap="round" stroke-linejoin="round"/>
<path d="M43.2442 21.7599C40.4587 21.7599 38.2031 19.5078 38.2031 16.7266" stroke="#FB7E00" stroke-width="2" stroke-linecap="round" stroke-linejoin="round"/>
</g>
<defs>
<clipPath id="clip0_2119_776">
<rect width="52" height="53" fill="white"/>
</clipPath>
</defs>
</svg>
