<svg preserveAspectRatio="none" width="100%" height="100%" overflow="visible" style="display: block;" viewBox="0 0 197.996 81.4266" fill="none" xmlns="http://www.w3.org/2000/svg">
<g id="Group 1422">
<path id="Vector" d="M44.3946 35.8431C45.1316 36.1809 45.6839 36.3903 46.1929 36.6747C48.9956 38.249 50.0982 40.9195 49.5322 44.5303C48.744 49.5731 45.4952 52.2159 40.8922 53.5275C39.3474 53.968 37.7574 54.1912 36.1418 54.1932C31.6901 54.1932 27.2385 54.203 22.7868 54.2011C21.643 54.2011 21.582 54.1379 21.8297 53.0179C23.8147 44.0285 25.8116 35.0431 27.8045 26.0558C28.2821 23.9047 28.7754 21.7576 29.2255 19.6026C29.3592 18.9587 29.6245 18.6111 30.3242 18.6229C34.9999 18.7019 39.6894 18.3543 44.3454 18.9903C46.8533 19.334 49.2491 20.0866 50.8392 22.2574C53.8718 26.3935 51.8337 32.8526 46.869 34.9543C46.1241 35.2683 45.3458 35.5054 44.3946 35.8451V35.8431ZM34.1587 47.8348V47.8111C34.9095 47.8111 35.6622 47.8427 36.4111 47.8032C37.7141 47.7361 38.9248 47.341 39.937 46.4956C41.5447 45.1505 41.9044 43.3728 41.4582 41.4192C41.0593 39.6711 39.6737 39.1102 38.0954 38.8909C36.5683 38.6776 35.0294 38.8257 33.4964 38.802C32.9873 38.7941 32.8438 39.1576 32.7534 39.5625C32.2012 42.0276 31.6685 44.4967 31.0887 46.9559C30.9256 47.6512 31.1713 47.8546 31.8081 47.8408C32.5923 47.825 33.3765 47.8368 34.1607 47.8368L34.1587 47.8348ZM37.2542 32.6393C38.7578 32.6472 40.2652 32.6946 41.6784 32.0329C43.3077 31.2704 44.2649 29.5243 44.0094 27.7565C43.7735 26.1308 42.9323 25.4276 40.8647 25.0839C39.5321 24.8627 38.1917 25.0227 36.8572 24.9575C36.2244 24.9279 35.9217 25.1728 35.7939 25.8168C35.4893 27.3614 35.1159 28.8922 34.768 30.427C34.4339 31.9018 35.0346 32.6393 36.5703 32.6393C36.7983 32.6393 37.0282 32.6393 37.2562 32.6393H37.2542Z" fill="var(--fill-0, #FB7E00)"/>
<path id="Vector_2" d="M130.804 18.5652C132.113 18.5652 133.424 18.5829 134.731 18.5573C135.379 18.5454 135.654 18.7903 135.723 19.46C136.218 24.2973 136.749 29.1308 137.264 33.9662C137.765 38.6712 138.266 43.3743 138.76 48.0793C138.944 49.8432 139.086 51.613 139.288 53.375C139.361 54.0031 139.131 54.2046 138.543 54.2006C136.547 54.1868 134.55 54.171 132.553 54.2065C131.698 54.2223 131.604 53.6732 131.556 53.0569C131.405 51.0264 131.222 48.9939 131.148 46.9594C131.116 46.0883 130.806 45.8335 129.974 45.8414C126.702 45.8769 123.428 45.873 120.155 45.8414C119.398 45.8354 118.954 46.11 118.616 46.7855C117.531 48.9603 116.372 51.0995 115.295 53.2801C114.955 53.9675 114.52 54.2263 113.764 54.2105C111.735 54.167 109.705 54.2006 107.675 54.1947C106.602 54.1907 106.543 54.1078 107.054 53.1676C109.33 48.984 111.619 44.8063 113.907 40.6287C117.681 33.743 121.48 26.8731 125.212 19.9656C125.764 18.9444 126.364 18.421 127.563 18.5375C128.632 18.6422 129.721 18.5592 130.802 18.5612L130.804 18.5652ZM129.658 24.9353C128.697 26.8158 127.905 28.7278 126.934 30.5589C125.548 33.1721 124.233 35.8229 122.869 38.448C122.541 39.0801 122.643 39.3369 123.386 39.3309C125.515 39.3132 127.643 39.3033 129.772 39.3369C130.501 39.3487 130.641 39.0682 130.578 38.3907C130.393 36.3621 130.293 34.3257 130.126 32.2931C129.925 29.8438 129.735 27.3925 129.656 24.9353H129.658Z" fill="var(--fill-0, #FB7E00)"/>
<path id="Vector_3" d="M93.4722 18.6191C96.5776 18.6527 99.6927 18.5263 102.737 19.348C107.14 20.5351 109.587 23.8358 109.779 28.4124C110.084 35.6794 105.288 39.7938 99.0383 41.1212C96.8881 41.5774 94.6967 41.7276 92.5013 41.69C91.6483 41.6742 91.2867 41.9982 91.1137 42.8238C90.4003 46.2351 89.6161 49.6305 88.9007 53.0418C88.7238 53.8911 88.3759 54.2566 87.462 54.223C85.6322 54.1558 83.7965 54.2092 81.9627 54.2013C80.7796 54.1973 80.7245 54.144 80.9899 52.947C82.5622 45.8203 84.1483 38.6975 85.7285 31.5708C86.5834 27.7191 87.4364 23.8674 88.2835 20.0156C88.5882 18.631 88.5803 18.627 90.0308 18.6231C91.1766 18.6211 92.3224 18.6231 93.4683 18.6231L93.4722 18.6191ZM94.5414 35.3495C96.3044 35.2448 98.3169 34.9841 99.9325 33.5481C101.666 32.0074 102.175 30.044 101.621 27.8297C101.116 25.811 99.5257 25.2105 97.69 25.0229C97.2045 24.9735 96.7092 25.0071 96.2238 24.9538C95.4337 24.8669 95.0622 25.1671 94.8952 25.9848C94.3507 28.6534 93.7316 31.3062 93.1302 33.9629C92.8118 35.3692 92.8 35.3673 94.5414 35.3495Z" fill="var(--fill-0, #FB7E00)"/>
<path id="Vector_4" d="M64.6586 46.2269C64.9475 45.4822 65.1834 44.8817 65.4134 44.2793C66.8226 40.5796 68.788 37.1526 70.5392 33.6189C71.4884 31.7049 72.4928 29.8165 73.4303 27.8985C73.729 27.2862 74.1162 27.0314 74.8041 27.0413C76.9326 27.0749 79.0612 27.0472 81.1897 27.0571C82.2334 27.063 82.3041 27.1934 81.7892 28.1178C77.652 35.5191 73.5109 42.9183 69.3717 50.3196C67.9271 52.9012 66.5081 55.4967 65.038 58.0626C63.0568 61.5173 60.5273 64.3715 56.5651 65.5764C54.3618 66.246 52.135 66.325 49.8669 65.926C49.0434 65.7799 48.7742 65.3927 48.7997 64.5987C48.839 63.3819 48.8449 62.1612 48.7997 60.9464C48.7663 60.0576 49.0198 59.6566 49.9809 59.8561C50.8772 60.0418 51.7891 60.1148 52.7148 59.9924C55.1696 59.6665 56.7341 58.1396 58.0627 56.19C58.9452 54.8943 59.1889 53.636 58.9255 52.04C57.6126 44.0916 56.453 36.1195 55.205 28.1613C55.0733 27.3198 55.2659 27.0255 56.1209 27.0452C57.9861 27.0847 59.8552 27.0808 61.7203 27.0452C62.4692 27.0314 62.7384 27.3139 62.817 28.0605C63.4479 33.9744 64.3501 39.8626 64.5309 45.8219C64.5328 45.9049 64.582 45.9859 64.6626 46.2308L64.6586 46.2269Z" fill="var(--fill-0, #FB7E00)"/>
<path id="Vector_5" d="M143.316 49.0348C143.316 48.2447 143.346 47.4546 143.308 46.6664C143.267 45.7914 143.583 45.7381 144.285 46.0917C146.197 47.0516 148.2 47.7844 150.325 48.0807C152.048 48.3217 153.784 48.3889 155.482 47.8694C158.694 46.8877 159.505 43.7826 157.19 41.3175C156.262 40.3299 155.128 39.5951 154.035 38.8148C152.239 37.5349 150.515 36.172 149.275 34.3053C146.294 29.8215 147.473 23.6232 151.881 20.5556C154.749 18.5587 157.97 17.9779 161.396 18.1044C164.317 18.213 167.086 18.8747 169.763 20.0302C170.529 20.3601 170.647 20.7156 170.258 21.4406C169.543 22.7719 168.882 24.1328 168.247 25.5036C167.964 26.116 167.638 26.2384 167.021 25.9678C164.869 25.0237 162.63 24.4666 160.258 24.5279C158.08 24.5832 156.478 25.553 155.962 27.1787C155.392 28.9702 155.987 30.6788 157.744 31.9923C159.161 33.0511 160.683 33.9715 162.082 35.05C166.571 38.5146 167.819 44.1085 165.164 48.8392C163.715 51.4169 161.388 52.9339 158.638 53.7359C154.22 55.0237 149.788 55.0079 145.417 53.4495C143.306 52.6969 143.316 52.6732 143.316 50.4155C143.316 49.9552 143.316 49.495 143.316 49.0328V49.0348Z" fill="var(--fill-0, #FB7E00)"/>
<path id="Vector_6" d="M179.948 54.5846C177.192 54.6656 174.543 54.2153 172.008 53.0874C171.157 52.7081 170.744 52.1985 170.793 51.2109C170.87 49.7018 170.838 48.1848 170.803 46.6718C170.783 45.8066 171.064 45.7414 171.778 46.0891C174.669 47.5034 177.678 48.4258 180.95 48.2204C181.845 48.1651 182.705 48.0031 183.531 47.6792C185.915 46.7429 186.689 44.3825 185.347 42.1781C184.877 41.4058 184.215 40.8251 183.517 40.272C181.846 38.9505 180.068 37.7851 178.478 36.3452C172.798 31.2076 174.325 21.3471 182.981 18.805C187.939 17.3473 192.756 18.0643 197.432 20.1185C198.014 20.3733 198.14 20.6775 197.837 21.2583C197.126 22.6291 196.432 24.0098 195.791 25.4161C195.477 26.1055 195.133 26.2517 194.427 25.9376C192.153 24.9283 189.773 24.393 187.267 24.549C185.219 24.6774 183.684 25.8685 183.338 27.6541C183.03 29.2501 183.57 30.5952 184.777 31.6224C185.596 32.3216 186.499 32.9339 187.403 33.5226C188.7 34.364 189.942 35.2588 191.029 36.3709C196.153 41.6112 194.502 50.1877 187.792 53.1229C185.288 54.2192 182.664 54.6696 179.944 54.5846H179.948Z" fill="var(--fill-0, #FB7E00)"/>
<path id="Vector_7" d="M34.5691 0.965466C39.86 1.03065 44.2625 1.88396 48.4803 3.68341C50.3612 4.48536 50.4418 4.43203 51.5326 2.68986C51.9689 1.99457 52.3777 1.27558 52.8652 0.617822C53.5059 -0.247336 54.3117 -0.209807 54.6576 0.767941C55.7406 3.83748 56.7645 6.93071 57.7472 10.0338C58.0303 10.9286 57.5487 11.4935 56.4206 11.6911C54.7126 11.9913 52.9929 12.2283 51.2771 12.4752C50.0467 12.651 48.8105 12.7932 47.5782 12.9592C47.0456 13.0303 46.4894 13.1053 46.1611 12.57C45.8408 12.0466 46.1238 11.5567 46.3989 11.0965C46.8038 10.419 47.2225 9.74939 47.6116 9.06596C48.2071 8.02303 48.0656 7.6023 46.8923 7.11639C44.2409 6.01617 41.4618 5.34657 38.6257 5.0325C33.4311 4.4577 28.3368 5.03843 23.5137 7.10849C12.5132 11.8274 5.99201 20.151 4.20938 32.0559C3.28957 38.1989 4.30372 44.1266 7.01402 49.7185C7.7825 51.3027 6.99044 52.6142 6.05294 53.5169C5.47117 54.0779 4.88745 53.7362 4.48061 53.1574C3.7593 52.1283 3.26795 50.9629 2.81393 49.8094C-1.72027 38.3273 -0.818148 27.2501 5.83478 16.882C11.2691 8.41017 19.1878 3.38712 29.0384 1.52249C31.0864 1.13534 33.1776 0.827198 34.5691 0.965466Z" fill="var(--fill-0, #FB7E00)"/>
<path id="Vector_8" d="M105.266 67.162C105.714 66.7768 106.196 66.3956 106.64 65.9729C107.965 64.7146 109.541 64.2169 111.33 64.4184C112.774 64.5803 113.869 65.2934 114.374 66.7116C114.618 67.3951 114.767 67.4859 115.276 66.8716C116.516 65.3764 118.051 64.3887 120.085 64.3868C122.752 64.3868 124.301 65.8386 124.486 68.517C124.572 69.7851 124.317 71.0078 124.054 72.2285C123.49 74.8319 122.89 77.4273 122.354 80.0366C122.2 80.7813 121.89 81.1211 121.109 81.0756C120.229 81.0262 119.339 81.0183 118.458 81.0756C117.55 81.1369 117.407 80.7458 117.589 79.9576C118.218 77.2338 118.816 74.502 119.419 71.7742C119.582 71.0374 119.775 70.3006 119.708 69.5323C119.608 68.3807 118.83 67.8592 117.719 68.1773C116.697 68.4716 116.08 69.2123 115.571 70.0853C114.7 71.5846 114.242 73.226 113.888 74.9069C113.523 76.6451 113.108 78.3735 112.78 80.1176C112.642 80.8524 112.302 81.1072 111.585 81.0737C110.638 81.0302 109.684 81.0341 108.737 81.0737C107.992 81.1033 107.845 80.8129 108.004 80.1216C108.67 77.2041 109.291 74.2768 109.948 71.3574C110.093 70.7056 110.144 70.0537 110.087 69.398C110.001 68.4044 109.26 67.8889 108.291 68.1318C107.07 68.44 106.392 69.3782 105.828 70.3955C104.855 72.1455 104.523 74.107 104.077 76.0269C103.765 77.372 103.454 78.7192 103.201 80.0762C103.059 80.8346 102.688 81.1211 101.927 81.0776C101.013 81.0262 100.093 81.0539 99.1773 81.0657C98.57 81.0736 98.2497 80.9077 98.4069 80.1966C99.5095 75.2546 100.592 70.3066 101.687 65.3625C101.744 65.1077 101.811 64.7877 102.096 64.7324C103.098 64.5428 104.113 64.5369 105.113 64.7324C105.471 64.8035 105.437 65.1927 105.42 65.483C105.382 66.0657 105.315 66.6484 105.266 67.16V67.162Z" fill="var(--fill-0, #FB7E00)"/>
<path id="Vector_9" d="M49.2164 68.2442C47.7187 69.0619 46.3154 69.4748 44.9239 69.8994C38.6876 71.7976 32.416 71.772 26.1247 70.1918C25.4604 70.0239 24.8138 69.7809 24.1652 69.5518C23.0154 69.1449 22.6165 69.2595 21.9463 70.2965C21.3232 71.2624 20.7316 72.25 20.1184 73.2218C19.8668 73.6208 19.5681 73.9684 19.0256 73.923C18.4714 73.8776 18.2414 73.4628 18.094 73.0243C17.1015 70.0634 16.1011 67.1045 15.1577 64.1278C14.8295 63.0927 15.2344 62.4547 16.3173 62.2888C19.3558 61.8246 22.4003 61.3901 25.4506 61.0128C26.7242 60.8548 27.1408 61.5382 26.563 62.7036C26.2721 63.2903 25.8967 63.8354 25.5665 64.4043C24.9632 65.4472 25.1263 65.8798 26.2505 66.2057C31.3881 67.697 36.6063 67.8985 41.7773 66.6423C43.8645 66.1346 45.6 66.3302 47.3728 67.3494C47.8995 67.6516 48.4656 67.8827 49.2164 68.2422V68.2442Z" fill="var(--fill-0, #FB7E00)"/>
<path id="Vector_10" d="M142.986 71.2172C142.972 73.8186 142.361 76.2363 140.743 78.3221C138.524 81.1862 133.898 82.2766 130.675 80.7063C128.558 79.6752 127.497 77.935 127.381 75.6062C127.245 72.8448 127.744 70.2375 129.334 67.9086C131.614 64.5665 135.861 63.7033 139.124 64.7976C141.756 65.6806 142.99 67.8316 142.984 71.2172H142.986ZM138.192 71.3179C138.192 70.99 138.212 70.6602 138.188 70.3342C138.065 68.5901 136.956 67.7881 135.297 68.2642C134.464 68.5032 133.912 69.1333 133.481 69.8365C132.442 71.5391 132.062 73.4196 132.157 75.3988C132.251 77.3799 134.016 78.2965 135.716 77.2575C136.347 76.8703 136.807 76.3252 137.147 75.6733C137.858 74.3104 138.202 72.8566 138.194 71.3179H138.192Z" fill="var(--fill-0, #FB7E00)"/>
<path id="Vector_11" d="M174.03 71.1332C174.03 73.7702 173.421 76.2195 171.78 78.335C169.508 81.2603 164.771 82.3092 161.532 80.6124C159.555 79.5774 158.555 77.8925 158.433 75.6901C158.279 72.8951 158.775 70.2542 160.39 67.8958C162.678 64.5536 166.937 63.7043 170.186 64.8025C172.786 65.6815 174.032 67.8286 174.03 71.1352V71.1332ZM169.229 71.2873C169.229 70.9258 169.262 70.5624 169.221 70.2048C169.132 69.4325 168.938 68.6602 168.14 68.3501C167.285 68.0182 166.4 68.0419 165.624 68.6266C164.93 69.1481 164.417 69.8295 164.077 70.6275C163.427 72.1584 163.097 73.7524 163.199 75.4254C163.315 77.3217 164.942 78.2401 166.615 77.3394C167.297 76.972 167.792 76.415 168.158 75.7316C168.899 74.343 169.248 72.8596 169.229 71.2873Z" fill="var(--fill-0, #FB7E00)"/>
<path id="Vector_12" d="M154.544 78.9752C154.544 80.7114 154.509 80.7904 152.844 81.1361C151.527 81.4087 150.202 81.543 148.852 81.2665C146.899 80.8675 145.884 79.7199 145.869 77.7031C145.853 75.7042 146.576 73.8336 146.932 71.8979C147.103 70.9616 147.323 70.0313 147.571 69.1108C147.759 68.4076 147.553 68.1607 146.826 68.1726C146.397 68.1805 145.645 68.4491 145.629 67.7558C145.611 67.0269 145.513 65.9386 146.427 65.7134C148.561 65.186 149.695 63.7065 150.562 61.8755C151.002 60.9471 151.842 61.2552 152.551 61.2414C154.045 61.2118 154.053 61.2355 153.738 62.7209C153.3 64.7988 153.145 64.6112 155.275 64.623C157.866 64.6388 157.638 64.3821 157.134 66.9598C156.946 67.9276 156.513 68.3029 155.546 68.2081C154.833 68.139 154.108 68.22 153.388 68.1903C152.748 68.1647 152.449 68.4491 152.319 69.0713C151.84 71.3547 151.305 73.6262 150.835 75.9116C150.548 77.3041 150.934 77.711 152.37 77.6419C152.663 77.6281 152.956 77.5846 153.243 77.5234C154.542 77.2449 154.542 77.2409 154.548 78.5861C154.548 78.7184 154.548 78.8488 154.548 78.9811L154.544 78.9752Z" fill="var(--fill-0, #FB7E00)"/>
<path id="Vector_13" d="M182.713 67.1576C183.184 66.7468 183.686 66.3339 184.159 65.8934C185.472 64.6747 187.029 64.254 188.778 64.4041C189.311 64.4495 189.556 64.6629 189.411 65.2337C189.165 66.1878 188.943 67.1497 188.717 68.1077C188.601 68.5976 188.336 68.799 187.805 68.7694C185.099 68.6134 183.589 69.5556 182.557 72.0839C181.797 73.9505 181.59 75.9672 181.095 77.9069C180.891 78.7029 180.716 79.5049 180.559 80.3128C180.452 80.8639 180.15 81.0792 179.603 81.0693C178.623 81.0495 177.64 81.0416 176.659 81.0713C175.901 81.095 175.688 80.8145 175.861 80.0599C176.636 76.6645 177.369 73.2591 178.119 69.8578C178.424 68.4771 178.788 67.1082 179.026 65.7177C179.175 64.8446 179.597 64.5424 180.423 64.6155C180.846 64.653 181.274 64.6155 181.699 64.6234C182.815 64.6411 182.907 64.7616 182.844 65.9033C182.821 66.3478 182.581 66.7803 182.715 67.1556L182.713 67.1576Z" fill="var(--fill-0, #FB7E00)"/>
</g>
</svg>
