<svg xmlns="http://www.w3.org/2000/svg" width="47" height="54" viewBox="0 0 47 54" fill="none">
    <path fill-rule="evenodd" clip-rule="evenodd" d="M5.86377 15.8077C3.70772 15.8077 1.96788 17.502 1.96788 19.5783V26.2839C1.96788 28.3706 3.71847 30.0545 5.86377 30.0545H29.2946V15.8077H5.86377ZM0.100098 19.5783C0.100098 16.5071 2.67254 14 5.86377 14H31.1623V31.8622H5.86377C2.69054 31.8622 0.100098 29.3724 0.100098 26.2839V19.5783Z" fill="#FB7E00" stroke="#FB7E00" stroke-width="0.2" stroke-miterlimit="10"/>
    <path fill-rule="evenodd" clip-rule="evenodd" d="M4.88135 41.9353V30.7109H6.74798V41.9353C6.74798 43.9573 8.4275 45.5976 10.4979 45.5976H15.0368C14.1443 44.6264 13.6013 43.3426 13.6013 41.9353V30.7109H15.4679V41.9353C15.4679 43.9573 17.1474 45.5976 19.2178 45.5976V47.4207H10.4979C7.3966 47.4207 4.88135 44.9642 4.88135 41.9353Z" fill="#FB7E00" stroke="#FB7E00" stroke-width="0.2" stroke-miterlimit="10"/>
    <path fill-rule="evenodd" clip-rule="evenodd" d="M19.1785 32.3663V30.7109H20.9991V32.3663C20.9991 34.9539 18.9242 37.0491 16.3618 37.0491H14.4282V35.2107H16.3618C17.9187 35.2107 19.1785 33.9385 19.1785 32.3663Z" fill="#FB7E00" stroke="#FB7E00" stroke-width="0.2" stroke-miterlimit="10"/>
    <path fill-rule="evenodd" clip-rule="evenodd" d="M46.1013 23.797H40.7251V22.0684H46.1013V23.797Z" fill="#FB7E00" stroke="#FB7E00" stroke-width="0.2" stroke-miterlimit="10"/>
    <path fill-rule="evenodd" clip-rule="evenodd" d="M37.7457 21.5118H35.3423V19.7637H37.7457C39.7169 19.7637 41.3158 21.312 41.3158 23.2209C41.3158 25.1297 39.7169 26.6781 37.7457 26.6781H35.3423V24.9299H37.7457C38.7199 24.9299 39.5106 24.1642 39.5106 23.2209C39.5106 22.2775 38.7199 21.5118 37.7457 21.5118Z" fill="#FB7E00" stroke="#FB7E00" stroke-width="0.2" stroke-miterlimit="10"/>
    <path fill-rule="evenodd" clip-rule="evenodd" d="M34.6329 18.6299H29.9595V16.8809H36.5303V28.981H29.9595V27.232H34.6329V18.6299Z" fill="#FB7E00" stroke="#FB7E00" stroke-width="0.2" stroke-miterlimit="10"/>
    <path fill-rule="evenodd" clip-rule="evenodd" d="M16.2292 21.4923H9.06104V19.7637H16.2292V21.4923Z" fill="#FB7E00" stroke="#FB7E00" stroke-width="0.2" stroke-miterlimit="10"/>
    <path fill-rule="evenodd" clip-rule="evenodd" d="M16.2292 26.6778H9.06104V24.9492H16.2292V26.6778Z" fill="#FB7E00" stroke="#FB7E00" stroke-width="0.2" stroke-miterlimit="10"/>
    <path fill-rule="evenodd" clip-rule="evenodd" d="M23.4048 30.7097V15.1523H25.1968V30.7097H23.4048Z" fill="#FB7E00" stroke="#FB7E00" stroke-width="0.2" stroke-miterlimit="10"/>
    <path fill-rule="evenodd" clip-rule="evenodd" d="M9.6626 53.7582V46.2676H11.4546V53.7582H9.6626Z" fill="#FB7E00" stroke="#FB7E00" stroke-width="0.2" stroke-miterlimit="10"/>
    <path d="M36.1006 4.73875V5.23862C36.1006 5.97176 36.0028 6.63159 35.8073 7.2181C35.6118 7.80017 35.3341 8.29559 34.9742 8.70437C34.6143 9.11316 34.1855 9.42641 33.6879 9.64413C33.1902 9.86185 32.637 9.97071 32.0283 9.97071C31.4284 9.97071 30.8775 9.86185 30.3754 9.64413C29.8777 9.42641 29.4467 9.11316 29.0824 8.70437C28.7181 8.29559 28.4359 7.80017 28.236 7.2181C28.036 6.63159 27.936 5.97176 27.936 5.23862V4.73875C27.936 4.00117 28.036 3.34134 28.236 2.75927C28.4359 2.1772 28.7158 1.68178 29.0757 1.273C29.4356 0.859774 29.8644 0.544301 30.3621 0.326581C30.8642 0.10886 31.4151 0 32.015 0C32.6237 0 33.1769 0.10886 33.6745 0.326581C34.1722 0.544301 34.6009 0.859774 34.9609 1.273C35.3252 1.68178 35.6051 2.1772 35.8006 2.75927C36.0006 3.34134 36.1006 4.00117 36.1006 4.73875ZM34.2477 5.23862V4.72542C34.2477 4.19667 34.1988 3.73235 34.1011 3.33246C34.0033 2.92812 33.8589 2.58821 33.6679 2.31272C33.4768 2.03724 33.2413 1.83063 32.9614 1.69289C32.6815 1.5507 32.366 1.47961 32.015 1.47961C31.6595 1.47961 31.344 1.5507 31.0685 1.69289C30.7975 1.83063 30.5665 2.03724 30.3754 2.31272C30.1843 2.58821 30.0377 2.92812 29.9355 3.33246C29.8378 3.73235 29.7889 4.19667 29.7889 4.72542V5.23862C29.7889 5.76293 29.8378 6.22725 29.9355 6.63159C30.0377 7.03592 30.1843 7.37806 30.3754 7.65798C30.5709 7.93347 30.8064 8.1423 31.0819 8.28448C31.3574 8.42667 31.6728 8.49776 32.0283 8.49776C32.3838 8.49776 32.6992 8.42667 32.9747 8.28448C33.2502 8.1423 33.4812 7.93347 33.6679 7.65798C33.8589 7.37806 34.0033 7.03592 34.1011 6.63159C34.1988 6.22725 34.2477 5.76293 34.2477 5.23862Z" fill="#FB7E00"/>
    <path d="M24.2024 0.132812V9.83692H22.3762V0.132812H24.2024ZM27.2149 0.132812V1.5791H19.397V0.132812H27.2149Z" fill="#FB7E00"/>
    <path d="M16.4635 0.132812H18.2964V6.57778C18.2964 7.31981 18.1364 7.94409 17.8165 8.45062C17.4966 8.95271 17.0612 9.33261 16.5102 9.59032C15.9592 9.84359 15.3327 9.97022 14.6307 9.97022C13.9198 9.97022 13.2866 9.84359 12.7312 9.59032C12.1758 9.33261 11.7403 8.95271 11.4249 8.45062C11.1094 7.94409 10.9517 7.31981 10.9517 6.57778V0.132812H12.7845V6.57778C12.7845 7.031 12.86 7.40201 13.0111 7.69082C13.1622 7.97519 13.3755 8.18625 13.6509 8.32399C13.9264 8.46173 14.253 8.5306 14.6307 8.5306C15.0128 8.5306 15.3394 8.46173 15.6104 8.32399C15.8859 8.18625 16.097 7.97519 16.2436 7.69082C16.3902 7.40201 16.4635 7.031 16.4635 6.57778V0.132812Z" fill="#FB7E00"/>
    <path d="M5.92271 1.60576L3.15677 9.83692H1.21729L4.843 0.132812H6.08267L5.92271 1.60576ZM8.23544 9.83692L5.45617 1.60576L5.28955 0.132812H6.53588L10.1816 9.83692H8.23544ZM8.1088 6.23121V7.67749H2.90351V6.23121H8.1088Z" fill="#FB7E00"/>
  </svg>