<svg preserveAspectRatio="none" overflow="visible" style="display: block;" width="47" height="54" viewBox="0 0 47 54" fill="none" xmlns="http://www.w3.org/2000/svg">
<g id="_&#208;&#160;&#194;&#152;&#208;&#160;&#209;&#148;&#208;&#160;&#209;&#149;&#208;&#160;&#208;&#133;&#208;&#160;&#209;&#148;&#208;&#160;&#209;&#145;" clip-path="url(#clip0_0_61)">
<g id="Group">
<path id="Vector" d="M31.8589 52.5613V1.43292" stroke="#FB7E00" stroke-width="3" stroke-linecap="round" stroke-linejoin="round"/>
<path id="Vector_2" d="M36.5532 9.20054L31.8589 1.43292" stroke="#FB7E00" stroke-width="3" stroke-linecap="round" stroke-linejoin="round"/>
<path id="Vector_3" d="M27.1647 9.20054L31.8589 1.43292" stroke="#FB7E00" stroke-width="3" stroke-linecap="round" stroke-linejoin="round"/>
</g>
<g id="Group_2">
<path id="Vector_4" d="M40.873 1.43292V52.5613" stroke="#FB7E00" stroke-width="3" stroke-linecap="round" stroke-linejoin="round"/>
<path id="Vector_5" d="M36.1788 44.7915L40.873 52.5591" stroke="#FB7E00" stroke-width="3" stroke-linecap="round" stroke-linejoin="round"/>
<path id="Vector_6" d="M45.5673 44.7915L40.873 52.5591" stroke="#FB7E00" stroke-width="3" stroke-linecap="round" stroke-linejoin="round"/>
</g>
<path id="Vector_7" d="M21.6382 52.5638C22.2554 52.5638 22.7507 52.0613 22.7507 51.4511V47.1437L15.9821 38.3208C15.2069 37.3085 15.7524 35.9661 16.9008 36.0451L22.7507 36.4471V35.6717L15.9821 26.8488C15.2069 25.8366 15.7524 24.4941 16.9008 24.5731L22.7507 24.9751V24.1998L15.9821 15.3769C15.2069 14.3647 15.7524 13.0222 16.9008 13.1012L22.7507 13.5032V10.7824L16.2764 2.7563C15.0633 1.24873 12.788 0.990283 11.2304 2.18199L2.31562 8.9948C1.76293 9.41836 1.43275 10.0788 1.43275 10.7752V51.4511C1.43275 52.0685 1.93519 52.5638 2.5453 52.5638H21.6382Z" stroke="#FB7E00" stroke-width="3" stroke-linecap="round" stroke-linejoin="round"/>
</g>
<defs>
<clipPath id="clip0_0_61">
<rect width="47" height="54" fill="white"/>
</clipPath>
</defs>
</svg>
