<svg preserveAspectRatio="none" overflow="visible" style="display: block;" width="62" height="59" viewBox="0 0 62 59" fill="none" xmlns="http://www.w3.org/2000/svg">
<g id="_&#208;&#160;&#194;&#152;&#208;&#160;&#209;&#148;&#208;&#160;&#209;&#149;&#208;&#160;&#208;&#133;&#208;&#160;&#209;&#148;&#208;&#160;&#209;&#145;" clip-path="url(#clip0_0_74)">
<path id="Vector" d="M55.2854 9.44798L52.4076 6.92368C51.4226 6.05968 49.8926 6.12126 48.9903 7.06125C48.088 8.00123 48.155 9.46365 49.14 10.3277L52.0178 12.852C53.0028 13.716 54.5328 13.6544 55.4351 12.7144C56.3374 11.7744 56.2704 10.312 55.2854 9.44798Z" stroke="#FB7E00" stroke-width="3" stroke-linecap="round" stroke-linejoin="round"/>
<path id="Vector_2" d="M45.9943 20.6899C47.5532 20.6899 48.817 19.4819 48.817 17.9917C48.817 16.5015 47.5532 15.2935 45.9943 15.2935C44.4354 15.2935 43.1716 16.5015 43.1716 17.9917C43.1716 19.4819 44.4354 20.6899 45.9943 20.6899Z" stroke="#FB7E00" stroke-width="3" stroke-linecap="round" stroke-linejoin="round"/>
<path id="Vector_3" d="M28.6127 20.606L32.3872 16.6763" stroke="#FB7E00" stroke-width="3" stroke-linecap="round" stroke-linejoin="round"/>
<path id="Vector_4" d="M32.121 23.6812L35.8873 19.7515" stroke="#FB7E00" stroke-width="3" stroke-linecap="round" stroke-linejoin="round"/>
<path id="Vector_5" d="M35.6016 26.7289L39.3678 22.7992" stroke="#FB7E00" stroke-width="3" stroke-linecap="round" stroke-linejoin="round"/>
<path id="Vector_6" d="M39.0752 29.7756L42.8497 25.8538" stroke="#FB7E00" stroke-width="3" stroke-linecap="round" stroke-linejoin="round"/>
<path id="Vector_7" d="M59.4805 13.8525L60.3257 8.1815C60.4487 7.34223 60.1369 6.49512 59.4805 5.92253L55.2957 2.2517C54.6885 1.71833 53.8516 1.48302 53.0311 1.60852L39.8368 3.71846C39.246 3.81259 38.7044 4.09496 38.2942 4.51852L34.5361 8.4325L36.7351 8.33838C37.9824 8.28347 39.0326 9.20902 39.0901 10.4013C39.1475 11.5935 38.1793 12.5975 36.9321 12.6524L30.22 12.9269L27.3071 15.9624C26.3061 17.0056 26.3717 18.6371 27.4712 19.594L40.2224 30.7712C41.3137 31.7282 43.0205 31.6654 44.0215 30.6144L58.7995 15.2173C59.1687 14.8329 59.4067 14.3545 59.4805 13.8446V13.8525Z" stroke="#FB7E00" stroke-width="3" stroke-linecap="round" stroke-linejoin="round"/>
<path id="Vector_8" d="M25.0546 8.82346L36.7529 8.34304C37.999 8.29187 39.0507 9.21434 39.1042 10.4055C39.1577 11.5966 38.1927 12.6019 36.9466 12.6531L25.2483 13.1335C24.0023 13.1847 22.9506 12.2622 22.8971 11.0711C22.8435 9.87993 23.8086 8.87464 25.0546 8.82346Z" stroke="#FB7E00" stroke-width="3" stroke-linecap="round" stroke-linejoin="round"/>
<path id="Vector_9" d="M29.5064 21.3889L21.6374 29.5855H28.5546C29.0141 29.5855 29.252 30.1032 28.9402 30.4248L15.4998 44.4335C15.229 44.7159 14.8433 44.8806 14.4413 44.8806H6.96616L3.8317 48.1514C1.66547 50.4104 1.82137 53.9087 4.18453 55.9794C6.54768 58.0501 10.2073 57.9011 12.3735 55.6421L38.0564 28.8796L29.5146 21.3889H29.5064Z" stroke="#FB7E00" stroke-width="3" stroke-linecap="round" stroke-linejoin="round"/>
<path id="Vector_10" d="M59.4238 29.5894H37.3759L22.6964 44.8846H59.4238C59.9407 44.8846 60.351 44.4845 60.351 43.9982V30.4836C60.351 29.9895 59.9325 29.5973 59.4238 29.5973V29.5894Z" stroke="#FB7E00" stroke-width="3" stroke-linecap="round" stroke-linejoin="round"/>
<path id="Vector_11" d="M2.56717 44.8708H14.4322C14.8342 44.8708 15.2199 44.7061 15.4907 44.4237L28.9311 30.4149C29.2429 30.0934 29.005 29.5757 28.5455 29.5757H2.56717C2.05023 29.5757 1.63996 29.9757 1.63996 30.462V43.9766C1.63996 44.4708 2.05843 44.863 2.56717 44.863V44.8708Z" stroke="#FB7E00" stroke-width="3" stroke-linecap="round" stroke-linejoin="round"/>
<path id="Vector_12" d="M6.10313 29.5894C6.10313 29.5894 13.7506 37.8567 20.7251 29.5894" stroke="#FB7E00" stroke-width="3" stroke-linecap="round" stroke-linejoin="round"/>
<path id="Vector_13" d="M1.63996 37.2327C1.63996 37.2327 5.71804 40.4173 10.7315 39.1231C15.745 37.8289 20.7175 38.9897 20.7175 38.9897" stroke="#FB7E00" stroke-width="3" stroke-linecap="round" stroke-linejoin="round"/>
<path id="Vector_14" d="M35.7538 44.8722C35.7538 44.8722 38.0595 38.9345 44.1069 39.1149C50.1543 39.2953 54.2898 43.1701 60.3618 41.5072" stroke="#FB7E00" stroke-width="3" stroke-linecap="round" stroke-linejoin="round"/>
<path id="Vector_15" d="M48.05 29.5894C48.05 29.5894 50.7332 30.6954 52.2101 33.3701C53.6871 36.0448 55.3118 37.4645 60.3581 37.237" stroke="#FB7E00" stroke-width="3" stroke-linecap="round" stroke-linejoin="round"/>
</g>
<defs>
<clipPath id="clip0_0_74">
<rect width="62" height="59" fill="white"/>
</clipPath>
</defs>
</svg>
